<?xml version="1.0" encoding="UTF-8"?>
<!DOCTYPE svg PUBLIC "-//W3C//DTD SVG 1.1//EN" "http://www.w3.org/Graphics/SVG/1.1/DTD/svg11.dtd">
<!-- Creator: CorelDRAW 2021 (64-Bit) -->
<svg xmlns="http://www.w3.org/2000/svg" xml:space="preserve" width="22in" height="22in" version="1.1" style="shape-rendering:geometricPrecision; text-rendering:geometricPrecision; image-rendering:optimizeQuality; fill-rule:evenodd; clip-rule:evenodd"
viewBox="0 0 22000 22000"
 xmlns:xlink="http://www.w3.org/1999/xlink"
 xmlns:xodm="http://www.corel.com/coreldraw/odm/2003">
 <defs>
  <style type="text/css">
   <![CDATA[
    .fil0 {fill:none}
    .fil1 {fill:#2B2A29}
   ]]>
  </style>
 </defs>
 <g id="Layer_x0020_1">
  <metadata id="CorelCorpID_0Corel-Layer"/>
  <rect class="fil0" width="22000" height="22000"/>
  <rect class="fil0" width="22000" height="22000"/>
  <path class="fil1" d="M19602.01 8905.29c128.44,-49.48 206.41,-158.32 282.3,-276.06 62.82,-96.35 69.54,-204.25 -2.72,-298.38 -196.22,-255.57 -526.28,-45.93 -715.87,97.21 -167.63,126.68 -324.6,267.62 -467.37,422.79 -63.8,69.6 -125.72,141.41 -183.32,216.36 -28.91,37.44 -208.63,259.11 -291.17,348.76 -1.33,-1.39 -3.17,-2.25 -4.52,-3.15 172.23,-246.65 323.83,-585.6 347.48,-864.78 20.46,-238.62 -105.71,-539.63 -381.76,-545.88 -245.3,-6.27 -376.39,226.57 -338.04,446.44 32.02,184.62 156.97,331.36 224.71,502.18 96.8,243.05 42.89,446.89 -49.46,666.74 -114.68,78.53 -228.33,157.89 -342.04,237.27 359.04,-536.08 161.36,-1634.56 -581.22,-1549.36 -242.99,28.08 -455.76,296.56 -241.7,505.75 69.54,68.23 178.8,89.19 259.13,142.71 115.53,76.24 211.42,189.09 272.5,313.08 129.36,262.68 45.52,545.46 -30.8,813.04 -152.04,106.56 -304.58,212.72 -457.94,317.56 174.8,-271.63 193.06,-599.84 67.27,-907.14 -110.98,-271.18 -432.56,-827.31 -784.48,-799.66 -296.13,23.18 -503.48,369.71 -261.78,589.59 58.36,53.08 128.42,82.51 199.77,114.19 187.34,83.83 303.75,156.09 405.39,336.71 139.61,247.98 260.5,512.45 190.96,790.73 -145.88,98.58 -292.13,195.81 -440.19,290.37 -94.6,60.66 -190.96,116.39 -289.05,169.49 189.07,-275.2 33,-860.36 -78.06,-1117.24 -126.24,-293.03 -487.47,-654.26 -839.4,-619.06 -323.29,33.03 -210.5,450.49 -9.35,569.11 74.07,43.7 160.59,62 240.93,90.54 166.34,58.86 257.33,150.76 339.86,305.07 66.82,124.87 115.43,258.23 146.69,396.04 10.28,45.91 88.72,419.22 17.3,468.72 -276.5,135.12 -563.26,244.4 -856.22,337.16 61.53,-214.52 94.07,-427.69 64.64,-656.06 -32.08,-249.3 -138.71,-482.55 -188.15,-728.28 -41.54,-206.5 -91.91,-376.86 -233.78,-538.78 -84.24,-96.35 -248.85,-275.15 -395.1,-255.53 -392.94,53.01 -8.09,643.99 91.43,777.78 151.62,203.84 313.49,392.06 409.01,631.11 102.99,258.63 130.17,538.31 106.52,814.36 -231.02,68.68 -465.56,128.01 -701.95,182.42 -72.26,16.93 -144.98,32.55 -218.14,47.7 87.45,-131.54 116.43,-255.08 91.43,-431.27 -38.35,-271.6 -58.37,-593.61 -186.42,-841.59 -124.44,-240.87 -330.48,-468.72 -503.09,-675.67 -129.34,-155.24 -297.87,-303.26 -514.19,-282.33 -154.76,15.18 -297.03,115.06 -313.13,278.3 -18.7,187.77 127.61,332.71 272.59,425.49 271.99,173.9 516.82,341.61 706.88,610.58 199.32,283.14 286.31,612.76 251.95,953.93 -631.96,113.28 -1283.13,145.86 -1909.74,-8.91 -153.77,-38.12 -304.81,-84.86 -451.54,-142.29 19.98,-13.44 39.78,-27.11 59.38,-41.02 200.67,-142.72 580.62,-406.74 562.36,-685.47 -2.2,-38.35 -33.9,-62 -71.36,-54.43 -145.88,29.9 -242.58,165.02 -351.93,258.25 -127.54,108.81 -258.22,211.85 -401.84,298.83 -41.34,25.2 -83.25,49.19 -125.67,72.05 -42.42,-22.86 -84.33,-46.85 -125.69,-72.05 -143.53,-86.98 -274.3,-190.02 -401.75,-298.83 -109.33,-93.23 -206.13,-228.35 -351.93,-258.25 -37.52,-7.57 -69.09,16.07 -71.44,54.43 -18.26,278.73 361.75,542.76 562.45,685.47 19.59,13.91 39.39,27.58 59.36,41.01 -146.74,57.43 -297.78,104.18 -451.53,142.3 -626.7,154.76 -1277.84,122.19 -1909.74,8.91 -34.37,-341.17 52.54,-670.79 251.95,-953.93 190.04,-268.97 434.85,-436.69 706.87,-610.58 144.96,-92.78 291.32,-237.72 272.57,-425.49 -16.07,-163.24 -158.4,-263.13 -313.12,-278.3 -216.32,-20.93 -384.85,127.09 -514.19,282.33 -172.59,206.94 -378.72,434.8 -503.08,675.67 -128.07,247.98 -148.06,569.98 -186.5,841.59 -24.91,176.19 4.09,299.72 91.43,431.27 -73.15,-15.15 -145.78,-30.78 -218.05,-47.7 -236.4,-54.41 -470.99,-113.74 -702.04,-182.42 -23.56,-276.06 3.62,-555.73 106.61,-814.36 95.43,-239.05 257.41,-427.27 408.92,-631.11 99.52,-133.79 484.39,-724.77 91.44,-777.78 -146.25,-19.63 -310.84,159.17 -395.1,255.53 -141.82,161.91 -192.24,332.28 -233.7,538.78 -49.53,245.73 -156.05,478.98 -188.24,728.28 -29.45,228.37 3.19,441.54 64.72,656.06 -293.05,-92.76 -579.81,-202.04 -856.31,-337.16 -71.42,-49.5 7.11,-422.81 17.38,-468.72 31.17,-137.81 79.88,-271.17 146.78,-396.04 82.44,-154.31 173.45,-246.22 339.83,-305.07 80.26,-28.53 166.8,-46.83 240.78,-90.54 201.15,-118.61 313.96,-536.08 -9.35,-569.11 -351.86,-35.2 -713.06,326.03 -839.31,619.06 -111.08,256.88 -267.13,842.04 -78.08,1117.24 -98.09,-53.1 -194.49,-108.83 -289.02,-169.49 -148.07,-94.56 -294.31,-191.79 -440.19,-290.37 -69.63,-278.28 51.26,-542.76 190.96,-790.73 101.62,-180.62 217.99,-252.87 405.37,-336.71 71.36,-31.68 141.37,-61.11 199.8,-114.19 241.69,-219.87 34.29,-566.41 -261.78,-589.59 -351.93,-27.65 -673.42,528.48 -784.5,799.66 -125.79,307.3 -107.49,635.52 67.29,907.14 -153.44,-104.83 -305.87,-210.99 -458.02,-317.56 -76.26,-267.58 -160.05,-550.35 -30.74,-813.04 61.02,-123.99 156.99,-236.84 272.44,-313.08 80.33,-53.53 189.59,-74.48 259.19,-142.71 214.07,-209.19 1.31,-477.67 -241.77,-505.75 -742.57,-85.2 -940.1,1013.28 -581.15,1549.36 -113.63,-79.38 -227.41,-158.74 -342.04,-237.27 -92.33,-219.85 -146.24,-423.69 -49.53,-666.74 67.81,-170.82 192.71,-317.56 224.78,-502.18 38.35,-219.87 -92.7,-452.72 -338.04,-446.44 -276.03,6.25 -402.27,307.26 -381.83,545.88 23.71,279.18 175.42,618.14 347.48,864.78 -1.35,0.9 -3.08,1.76 -4.45,3.15 -82.53,-89.66 -262.2,-311.33 -291.21,-348.76 -57.55,-74.95 -119.51,-146.76 -183.33,-216.36 -142.7,-155.17 -299.75,-296.11 -467.38,-422.79 -189.52,-143.15 -519.54,-352.79 -715.86,-97.21 -72.26,94.13 -65.54,202.02 -2.63,298.38 75.81,117.74 153.89,226.57 282.3,276.06 242.6,93.68 487.93,181.97 728.32,281.45 100.81,41.48 194.89,90.51 286.76,143.17 -171.69,-30.35 -350.54,-29.9 -517.8,-8.48 -236.39,30.33 -697.05,106.99 -672.97,428.57 18.28,242.63 291.23,455.33 528.91,367.94 186.42,-68.68 297.5,-265.35 477.2,-352.74 206.58,-100.36 406.74,-95.03 624.88,-69.13 99.89,78.93 199.8,158.3 299.66,237.25 -251.57,0.87 -523.99,127.56 -690.78,280.08 -234.24,214.09 -413.01,589.18 -297.95,907.16 81.16,223.43 435.74,407.64 573.54,123.54 101.71,-209.19 -109.24,-412.56 8.54,-631.99 136.81,-255.12 396.04,-449.14 693.44,-413.42 16.52,1.76 29,-2.23 38.35,-9.82 136.96,107.04 274.77,213.17 413.46,317.98 -265.85,50.85 -530.8,342.54 -652.96,530.75 -170.35,262.25 -341.12,751.48 -100.81,1024 185.97,211.4 565.53,142.24 601.7,-155.21 33,-272.93 -200.68,-451.77 -57.62,-735 105.8,-208.74 267.69,-346.56 434.01,-498.19 177.07,129.38 355.87,255.12 537.45,376.41 -186.89,59.33 -355.39,206.49 -457.19,373.78 -206.49,338.96 -285.85,899.99 -104.79,1264.36 115.51,232.82 520.99,331.81 545.88,-14.26 7.11,-105.69 -48.61,-203.82 -78.44,-301.95 -54.9,-180.17 -52.24,-371.96 -5.44,-553.89 68.34,-264.95 202.52,-457.59 436.73,-557.07 242.96,139.18 494.56,256 752.78,355.91 -267.6,234.15 -467.38,577.13 -566,905.37 -87.8,292.15 -70.44,802.33 243.14,976.29 94.98,52.61 193.07,4.88 243.05,-86.53 78.06,-141.83 4,-314.43 -32.56,-456.27 -64.25,-251.07 -47.77,-515.57 39.19,-759.5 41.46,-115.96 99.97,-227.49 170.88,-328.24 11.98,-16.97 90.08,-90.11 156.97,-158.34 306.85,103.91 622.16,186.85 944.11,256.88 -59.27,106.59 -83.8,247.53 -109.63,350.09 -63.35,250.22 -82.51,512.9 -61.54,769.8 28.53,343.43 158.28,859.39 576.17,909.39 128.05,15.15 266.31,-37.93 322.03,-160.57 65.54,-142.29 -17.81,-255.59 -123.15,-346.51 -137.79,-119.09 -233.68,-205.19 -286.76,-386.28 -41.46,-142.26 -57.08,-293.41 -71.36,-440.62 -21.36,-216.74 9.82,-427.26 30.8,-639.11 730.52,136.06 1498.57,174.39 2217.88,-36.13 192.63,-56.37 382.8,-130.27 563.88,-221.27 181.07,91 371.21,164.9 563.8,221.27 719.42,210.52 1487.35,172.19 2217.94,36.13 20.93,211.85 52.18,422.37 30.74,639.11 -14.19,147.21 -29.83,298.36 -71.27,440.62 -53.08,181.09 -149.05,267.2 -286.84,386.28 -105.24,90.92 -188.63,204.22 -123.09,346.51 55.75,122.64 193.97,175.72 322.03,160.57 417.87,-50 547.72,-565.96 576.25,-909.39 20.93,-256.9 1.76,-519.58 -61.6,-769.8 -25.9,-102.56 -50.36,-243.5 -109.71,-350.09 322.03,-70.03 637.25,-152.96 944.19,-256.88 66.91,68.23 144.96,141.37 156.97,158.34 70.91,100.74 129.34,212.28 170.86,328.24 86.92,243.93 103.44,508.43 39.19,759.5 -36.53,141.84 -110.61,314.43 -32.53,456.27 50,91.41 147.98,139.14 243.05,86.53 313.57,-173.96 330.93,-684.14 243.05,-976.29 -98.52,-328.24 -298.33,-671.22 -565.91,-905.37 258.25,-99.91 509.73,-216.73 752.85,-355.91 234.09,99.48 368.33,292.13 436.58,557.07 46.83,181.93 49.53,373.72 -5.35,553.89 -29.9,98.13 -85.63,196.26 -78.53,301.95 25.08,346.06 430.46,247.07 545.97,14.26 180.98,-364.37 101.7,-925.4 -104.87,-1264.36 -101.62,-167.29 -270.24,-314.45 -457.1,-373.78 181.52,-121.29 360.38,-247.04 537.43,-376.41 166.37,151.64 328.24,289.45 433.94,498.19 143.17,283.23 -90.54,462.07 -57.55,735 36.17,297.46 415.67,366.61 601.64,155.21 240.42,-272.52 69.6,-761.75 -100.81,-1024 -122.17,-188.22 -387.11,-479.9 -652.96,-530.75 138.71,-104.81 276.57,-210.94 413.46,-317.98 9.37,7.59 21.89,11.58 38.35,9.82 297.5,-35.72 556.63,158.3 693.52,413.42 117.8,219.43 -93.17,422.8 8.52,631.99 137.81,284.1 492.37,99.89 573.47,-123.54 115.15,-317.98 -63.72,-693.07 -297.87,-907.16 -166.79,-152.52 -439.3,-279.2 -690.8,-280.08 99.91,-78.96 199.71,-158.32 299.59,-237.25 218.14,-25.9 418.39,-31.23 624.88,69.13 179.81,87.39 290.78,284.06 477.2,352.74 237.79,87.39 510.72,-125.31 528.97,-367.94 24.12,-321.58 -436.64,-398.24 -672.95,-428.57 -167.31,-21.43 -346.13,-21.87 -517.91,8.48 91.9,-52.65 186.06,-101.69 286.86,-143.17 240.42,-99.48 485.63,-187.77 728.32,-281.45z"/>
 </g>
</svg>
