<?xml version="1.0" encoding="UTF-8"?>
<!DOCTYPE svg PUBLIC "-//W3C//DTD SVG 1.1//EN" "http://www.w3.org/Graphics/SVG/1.1/DTD/svg11.dtd">
<!-- Creator: CorelDRAW 2021 (64-Bit) -->
<svg xmlns="http://www.w3.org/2000/svg" xml:space="preserve" width="22in" height="22in" version="1.1" style="shape-rendering:geometricPrecision; text-rendering:geometricPrecision; image-rendering:optimizeQuality; fill-rule:evenodd; clip-rule:evenodd"
viewBox="0 0 22000 22000"
 xmlns:xlink="http://www.w3.org/1999/xlink"
 xmlns:xodm="http://www.corel.com/coreldraw/odm/2003">
 <defs>
  <style type="text/css">
   <![CDATA[
    .fil1 {fill:none}
    .fil0 {fill:#2B2A29}
   ]]>
  </style>
 </defs>
 <g id="Layer_x0020_1">
  <metadata id="CorelCorpID_0Corel-Layer"/>
  <path class="fil0" d="M18685.05 11063.91c-410,351.09 -892.55,606.75 -1409.09,761.63 -1088.55,326.24 -2250.65,210.05 -3341.47,-42.38 -311.2,-72.02 -602.6,-168.98 -882.87,-324.43 -241.3,-133.73 -632.59,-343.33 -519.02,-674.04 235.28,-60.33 484.91,-78.23 721.6,-70.97 10.36,101.94 99.29,220.32 153.29,288.13 80.63,100.96 186.42,197.83 308.12,245.02 25.83,9.95 38.05,-28.31 17.91,-42.29 -113.09,-77.84 -218.52,-148.37 -301.95,-260.35 -37.07,-49.82 -68.49,-102.52 -94.75,-158.94 -10.96,-23.39 -19.03,-47.02 -28.85,-69.24 16.76,0.83 33.6,1.37 50.13,2.42 217.69,13.38 432.96,45.31 647.39,83.96 89.17,169.36 249,383.71 439.96,416.95 13.06,2.19 27.93,-14.96 14.79,-25.3 -80.78,-63.89 -171.16,-106.99 -242.43,-184.09 -55.05,-59.5 -96.57,-129.12 -143.08,-194.87 235.88,44.09 470.91,94.69 707.02,136.81 43.94,77.69 106.82,140.74 174.03,200.84 75.59,67.42 155.24,155.32 250.01,194.96 10.64,4.37 20.76,-10.36 14.87,-19.33 -96.5,-145.2 -263.51,-225.01 -366.35,-363.87 57.76,9.82 115.59,19.17 173.51,27.57 196.54,28.38 394.97,51.26 594.44,68.19 31.5,69.99 90.15,138.99 127,194.04 54.58,81.46 115.9,162.26 205.06,207.48 6.44,3.25 15.93,-3.92 10.81,-10.87 -62.45,-86.3 -134.17,-162.34 -187.94,-255.42 -21.75,-37.61 -43.04,-85.4 -68.85,-128.83 257.24,19.48 516.07,28.79 774.74,26.13 52.33,30.8 105.41,60.48 155.69,94.3 69.86,47.04 118.61,107.83 176.62,167.48 12.63,12.82 34.65,-0.3 29.96,-17.44 -31.23,-114.85 -134.33,-189.22 -241.92,-246.37 269.19,-6.66 537.9,-26.35 804.13,-61.02 30.59,26.96 60.64,54.6 90.62,82.23 29.45,26.88 57.23,65.09 92.87,83.28 20.76,10.72 41.07,-10.49 31.04,-31.04 -18.43,-37.76 -61.02,-66.67 -92.65,-93.4 -20.61,-17.51 -42.2,-33.37 -64.34,-48.69 258.93,-35.72 515.56,-85.55 767.66,-151.38 17.38,-4.54 9.52,-28.4 -7.24,-26.05 -240.63,32.68 -480.9,60.16 -721,82 15.94,-11.11 31.33,-22.73 46.21,-33.91 39.94,-29.69 78.91,-61.38 107.44,-102.54 6.57,-9.5 -6.42,-22.13 -15.8,-15.86 -40.22,26.73 -75.13,60.94 -112.8,90.98 -29.22,23.42 -62.67,43.49 -92.33,67.12 -296.94,25.45 -593.7,41.24 -890.21,45.09 51.58,-21.15 100.96,-50.21 150.1,-74.31 107.98,-53.08 217.75,-101.17 313.36,-175.01 12.01,-9.22 5.95,-30.89 -11.02,-26.2 -104.43,28.83 -196.93,78.98 -293.26,127.91 -85.93,43.7 -189.07,80.17 -258.38,149.05 -258.82,1.11 -517.52,-7.94 -776.2,-27.11 99.74,-53.3 197.44,-115.45 306.02,-144.67 85.33,-22.96 149.95,-25.68 194.57,-108.96 3.64,-6.87 -4.15,-16.52 -11.47,-11.39 -76.48,53.29 -188.39,48.61 -273.49,86.21 -102.61,45.4 -200.31,109.71 -292.79,172.98 -254.67,-21.13 -509.28,-53.38 -764.04,-97.54 134.11,-102.33 266.15,-150.93 431.29,-197.38 87.96,-24.7 161.66,-60.85 188.9,-152.45 2.65,-8.81 -8.99,-15.54 -15.24,-8.99 -98.39,102.18 -251.65,97.34 -376.93,145.52 -111.96,43.02 -211.57,110.37 -288.28,202.49 -31.93,-5.74 -63.8,-11.02 -95.74,-17.21 -211.63,-40.92 -423.52,-87.81 -636.29,-128.82 108.75,-22.8 212.77,-95.44 310.02,-144.96 125.21,-63.65 261.78,-121.03 368.78,-212.91 11.85,-10.21 -0.92,-29 -14.73,-25.3 -128.5,34.5 -245.47,109.56 -361.52,172.91 -108.49,59.11 -250.37,111.21 -333.35,204.38 -230.06,-43.56 -461.34,-79.19 -694.57,-92.12 14.49,-20.07 28.61,-41.07 44,-56.01 75.68,-73.93 172.85,-124.29 269.48,-164.52 167.95,-69.78 341.5,-111.3 506.18,-191.19 11.26,-5.44 3.17,-22.41 -8.3,-19.63 -267.41,65.02 -749.98,137.13 -895.63,427.82 -55.56,-1.76 -111.23,-2.42 -167.09,-1.07 -155.47,3.7 -317.04,19.86 -475.31,52.63 333.97,-544.08 956.28,-766.07 1580.24,-707.47 366.05,34.41 704.09,176.74 1061.46,251.2 307.22,63.95 619.66,109.09 930.9,148.73 1210.94,153.95 2454.36,137.58 3596.21,-328.81 -302.08,391.41 -697.65,739.73 -1069.89,1058.5zm-16440.03 -1040.76c1141.91,466.39 2385.25,482.64 3596.21,328.67 311.31,-39.49 623.66,-84.71 930.96,-148.67 357.3,-74.44 695.4,-216.77 1061.37,-251.2 623.98,-58.67 1246.36,163.32 1580.31,707.47 -158.31,-32.77 -319.82,-48.99 -475.38,-52.69 -55.78,-1.2 -111.51,-0.6 -167.09,1.13 -145.56,-290.7 -628.05,-362.89 -895.54,-427.8 -11.49,-2.72 -19.56,14.19 -8.32,19.69 164.63,79.74 338.19,121.27 506.11,191.11 96.81,40.26 193.83,90.62 269.55,164.52 15.35,15.02 29.45,35.94 44.03,56.1 -233.23,12.84 -464.51,48.41 -694.57,92.05 -83.04,-93.25 -224.93,-145.28 -333.35,-204.48 -116.13,-63.18 -233.01,-138.39 -361.6,-172.83 -13.8,-3.68 -26.5,15.2 -14.72,25.3 107.02,91.82 243.74,149.28 368.86,212.94 97.19,49.44 201.3,122.15 309.94,145.05 -212.68,40.9 -424.57,87.8 -636.2,128.8 -31.93,6.12 -63.87,11.32 -95.82,17.14 -76.62,-92.12 -176.21,-159.47 -288.19,-202.51 -125.25,-48.09 -278.63,-43.41 -376.93,-145.5 -6.33,-6.57 -17.89,0.24 -15.32,8.91 27.42,91.76 100.96,127.76 188.92,152.52 165.21,46.53 297.24,95.07 431.27,197.38 -254.65,44.24 -509.35,76.41 -763.96,97.56 -92.48,-63.27 -190.19,-127.67 -292.81,-172.91 -85.16,-37.61 -196.91,-32.98 -273.55,-86.38 -7.23,-4.96 -15.09,4.62 -11.39,11.49 44.63,83.19 109.24,85.93 194.57,108.94 108.57,29.24 206.28,91.46 306.02,144.6 -258.68,19.26 -517.44,28.23 -776.26,27.18 -69.24,-68.94 -172.38,-105.32 -258.38,-148.96 -96.27,-49.01 -188.77,-99.22 -293.2,-127.99 -16.97,-4.69 -23.09,16.91 -11.09,26.2 95.67,73.86 205.44,121.95 313.49,175.04 49.01,24.07 98.45,53.14 150.04,74.35 -296.58,-3.91 -593.33,-19.69 -890.21,-45.22 -29.73,-23.54 -63.12,-43.7 -92.42,-67.03 -37.59,-30.14 -72.56,-64.19 -112.73,-90.98 -9.42,-6.27 -22.34,6.33 -15.86,15.77 28.64,41.22 67.59,72.94 107.44,102.69 14.89,11.02 30.28,22.73 46.29,33.81 -240.16,-21.74 -480.43,-49.29 -721.06,-82.06 -16.69,-2.2 -24.55,21.59 -7.19,26.11 252.13,65.92 508.69,115.6 767.66,151.47 -22.05,15.32 -43.7,31.1 -64.4,48.54 -31.55,26.81 -74.14,55.73 -92.57,93.48 -10.02,20.53 10.27,41.67 31.03,31.1 35.57,-18.34 63.42,-56.48 92.8,-83.43 30.11,-27.48 60.02,-55.2 90.6,-82.15 266.32,34.57 534.94,54.36 804.28,61 -107.74,57.17 -210.67,131.54 -242,246.3 -4.67,17.21 17.38,30.41 29.9,17.51 58.17,-59.56 106.78,-120.43 176.62,-167.46 50.3,-33.9 103.44,-63.5 155.77,-94.39 258.61,2.63 517.44,-6.57 774.74,-26.05 -25.9,43.41 -47.11,91.13 -68.85,128.74 -53.83,93.08 -125.57,169.19 -188,255.43 -5.05,7.02 4.37,14.19 10.87,10.96 89.1,-45.22 150.48,-126.02 205,-207.5 36.92,-55.03 95.5,-124.05 126.98,-194.13 199.5,-16.82 397.92,-39.79 594.46,-68.17 57.98,-8.3 115.75,-17.68 173.49,-27.48 -102.82,138.93 -269.7,218.59 -366.27,363.79 -5.95,8.96 4.24,23.78 14.81,19.33 94.75,-39.49 174.41,-127.39 249.98,-194.96 67.36,-60.1 130.24,-123.15 174.2,-200.76 236.03,-42.14 471.06,-92.8 706.94,-136.83 -46.48,65.77 -88.03,135.37 -143.14,194.81 -71.27,77.16 -161.66,120.2 -242.39,184.09 -13.12,10.49 1.76,27.55 14.73,25.28 190.98,-33.13 350.79,-247.42 440.04,-416.84 214.37,-38.67 429.62,-70.52 647.31,-83.96 16.61,-1.07 33.52,-1.58 50.21,-2.35 -9.89,22.22 -17.89,45.7 -28.91,69.24 -26.28,56.27 -57.62,109.03 -94.69,158.79 -83.43,112.04 -188.84,182.59 -301.95,260.5 -20.14,13.83 -8.01,52.18 17.83,42.14 121.8,-47.19 227.58,-144.08 308.14,-245.02 54.06,-67.72 142.93,-186.12 153.27,-288.06 236.72,-7.32 486.4,10.66 721.6,70.91 113.74,330.78 -277.7,540.38 -518.93,674.11 -280.34,155.39 -571.74,252.49 -882.89,324.44 -1090.87,252.34 -2252.92,368.69 -3341.47,42.36 -516.5,-154.85 -999.15,-410.51 -1409.13,-761.69 -372.09,-318.71 -767.75,-667.09 -1069.89,-1058.35zm-103.14 -48.78c386.04,521.74 884.37,1008.14 1403.69,1397.14 984.13,737.16 2298.68,870.71 3484.7,728.77 604.96,-72.34 1268.85,-170.41 1819.06,-444.26 271.9,-135.31 880,-447.3 716.46,-825.66 222.59,70.07 428.04,181.76 591.43,351.63 55.82,58 141.28,-28.83 87.81,-87.88 -188.67,-208.4 -443.96,-335.38 -716.07,-407.51 -0.3,-6.04 -1.91,-12.37 -5.07,-18.85 -206.32,-421.94 -634,-684.23 -1087.72,-769.18 -524.97,-98.24 -989.42,53.61 -1490.76,185.52 -524.07,137.94 -1080.1,201.59 -1619.05,247.42 -1059.94,90.08 -2158.61,26.37 -3147.88,-393.75 -21.21,-8.99 -54.67,12.22 -36.6,36.62zm17679.66 -54.28c-989.35,420.16 -2087.94,483.83 -3147.88,393.67 -538.93,-45.76 -1094.97,-109.48 -1619.05,-247.35 -501.34,-131.82 -965.78,-283.8 -1490.76,-185.5 -453.78,85.01 -881.37,347.31 -1087.8,769.16 -3.17,6.42 -4.69,12.76 -5.05,18.79 -272.03,72.28 -527.33,199.2 -716.02,407.66 -53.38,58.97 32,145.89 87.8,87.82 163.35,-169.81 368.86,-281.56 591.45,-351.63 -163.48,378.36 444.5,690.27 716.38,825.57 550.2,273.85 1214.19,372 1819.14,444.35 1186.04,141.94 2500.48,8.31 3484.61,-728.77 519.41,-389.02 1017.81,-875.34 1403.8,-1397.17 17.98,-24.29 -15.47,-45.59 -36.62,-36.6z"/>
  <rect class="fil1" width="22000" height="22000"/>
 </g>
</svg>
