<?xml version="1.0" encoding="UTF-8"?>
<!DOCTYPE svg PUBLIC "-//W3C//DTD SVG 1.1//EN" "http://www.w3.org/Graphics/SVG/1.1/DTD/svg11.dtd">
<!-- Creator: CorelDRAW 2021 (64-Bit) -->
<svg xmlns="http://www.w3.org/2000/svg" xml:space="preserve" width="22in" height="22in" version="1.1" style="shape-rendering:geometricPrecision; text-rendering:geometricPrecision; image-rendering:optimizeQuality; fill-rule:evenodd; clip-rule:evenodd"
viewBox="0 0 22000 22000"
 xmlns:xlink="http://www.w3.org/1999/xlink"
 xmlns:xodm="http://www.corel.com/coreldraw/odm/2003">
 <defs>
  <style type="text/css">
   <![CDATA[
    .fil0 {fill:none}
    .fil1 {fill:#2B2A29}
   ]]>
  </style>
 </defs>
 <g id="Layer_x0020_1">
  <metadata id="CorelCorpID_0Corel-Layer"/>
  <rect class="fil0" width="22000" height="22000"/>
  <path class="fil1" d="M20387.58 11063.91c300.5,-125.42 588.92,-470.39 390.35,-724.85 -137.49,-175.93 -374.49,-79.28 -490.77,64.19 -115.53,141.86 -254.46,418.28 -216.02,619.13 -6.72,3.02 -13.53,5.28 -20.4,8.3 -16.52,7.56 -18.87,23.41 -12.82,37.76 -249.92,35.48 -499.03,69.47 -748.95,100.42 179.63,-104.19 345.06,-209.9 425.02,-428.94 66.54,-181.13 15.86,-440.19 -206.8,-477.95 -424.33,-70.14 -583.66,807.21 -429.62,931.8 -320.89,36.26 -642.56,62.67 -965.72,72.49 147.17,-82.38 278.62,-201.59 374.51,-325.43 148,-190.27 332.99,-551.19 78.53,-737.67 -221.22,-162.34 -481.72,61.17 -614.61,235.58 -172.89,224.99 -276.42,540.53 -273.4,830.54 -406.89,-6.87 -810.85,-38.59 -1214.81,-79.36 132.91,-87.49 317.13,-136.57 437.18,-233.98 123.84,-98.93 231.05,-223.49 305.06,-364.69 108.73,-206.88 184.9,-515.7 -88.35,-598.77 -315.61,-95.13 -548.92,132.14 -696.9,390.37 -95.13,166.85 -277.87,599.43 -139.01,787.52 -261.93,-27.95 -523.17,-58.15 -785.17,-86.08 -144.3,-15.11 -286.93,-29.52 -428.12,-43.04 285.34,-143.46 540.61,-357.96 690.11,-643.28 97.41,-185.76 70.97,-325.43 52.78,-525.53 -7.47,-89.1 21.21,-108.73 -67.12,-163.84 -268.05,-166.94 -620.67,130.62 -746.75,335.24 -166.86,271.75 -354.11,645.57 -256.71,969.49 -280.12,-21.15 -558.81,-32.47 -839.61,-25.66 -5.29,-2.35 -10.57,-4.54 -15.18,-6.06 -8.99,-3.02 -17.29,0.69 -24.1,6.06 -70.97,2.25 -142.69,6.04 -214.44,10.49 220.47,-178.12 408.41,-404.62 506.65,-668.14 98.9,-266.55 20.37,-692.39 -290.01,-791.29 -292.13,-93.64 -495.99,270.21 -588.88,489.27 -134.39,317.85 -154.02,687.01 -21.89,1006.47 -573.06,73.24 -1274.52,169.13 -1741.13,531.54 -37,28.7 4.52,75.51 40.02,69.47 347.24,-58.15 679.54,-201.59 1024.58,-277.1 382.06,-83.07 770.91,-136.74 1161.28,-168.46 37.76,-3.02 76.26,-6.04 114.01,-7.47 -92.12,270.32 160.82,622.16 304.29,825.28 123,175.16 392.61,457.55 619.89,236.25 183.46,-178.87 168.37,-584.32 30.11,-778.39 -86.75,-122.31 -221.16,-189.5 -355.63,-244.63 -33.88,-14.34 -67.12,-28.68 -100.33,-43.04 372.24,12 743.65,52.78 1115.13,92.12 -39.94,283.91 23.39,582.91 157.87,834.33 89.04,167.63 227.28,366.95 441.71,259.75 236.33,-117.12 206.13,-396.41 122.23,-602.54 -82.96,-203.11 -223.41,-341.27 -391.78,-458.39 44.54,4.6 89.08,8.39 133.64,12.16 400.94,33.99 806.4,64.94 1211.86,83.07 -83.88,195.54 24.16,529.27 107.2,693.13 97.41,192.54 303.54,457.46 557.22,342.79 223.51,-101.17 161.59,-458.32 83.07,-631.98 -73.99,-160.82 -203.86,-300.5 -360.17,-390.35 361.67,8.3 723.33,3.77 1083.5,-20.46 -173.67,411.56 228.78,1333.49 711.24,1021.65 234.83,-151.02 132.89,-490.79 10.57,-678.86 -78.5,-119.98 -240.09,-286.84 -410.81,-368.39 354.95,-35.49 706.79,-92.87 1054.87,-178.2 140.44,271.81 691.64,649.34 916.62,281.64 173.69,-283.16 -202.34,-406.23 -505.11,-405.46zm-18775.17 0c-300.5,-125.42 -588.92,-470.39 -390.35,-724.85 137.45,-175.93 374.51,-79.28 490.77,64.19 115.55,141.86 254.46,418.28 215.98,619.13 6.78,3.02 13.57,5.28 20.4,8.3 16.59,7.56 18.88,23.41 12.82,37.76 249.92,35.48 499.07,69.47 749,100.42 -179.68,-104.19 -345.08,-209.9 -425.06,-428.94 -66.48,-181.13 -15.86,-440.19 206.86,-477.95 424.33,-70.14 583.64,807.21 429.6,931.8 320.89,36.26 642.58,62.67 965.72,72.49 -147.21,-82.38 -278.6,-201.59 -374.51,-325.43 -147.98,-190.27 -332.99,-551.19 -78.53,-737.67 221.26,-162.34 481.72,61.17 614.63,235.58 172.91,224.99 276.35,540.53 273.33,830.54 406.93,-6.87 810.89,-38.59 1214.85,-79.36 -132.91,-87.49 -317.13,-136.57 -437.18,-233.98 -123.84,-98.93 -231.05,-223.49 -305.04,-364.69 -108.73,-206.88 -184.96,-515.7 88.33,-598.77 315.63,-95.13 548.92,132.14 696.9,390.37 95.18,166.85 277.87,599.43 138.97,787.52 261.97,-27.95 523.22,-58.15 785.23,-86.08 144.24,-15.11 286.91,-29.52 428.13,-43.04 -285.39,-143.46 -540.64,-357.96 -690.14,-643.28 -97.41,-185.76 -70.97,-325.43 -52.82,-525.53 7.51,-89.1 -21.17,-108.73 67.16,-163.84 268.07,-166.94 620.67,130.62 746.75,335.24 166.88,271.75 354.11,645.57 256.71,969.49 280.14,-21.15 558.76,-32.47 839.64,-25.66 5.26,-2.35 10.57,-4.54 15.11,-6.06 9.03,-3.02 17.36,0.69 24.14,6.06 70.97,2.25 142.71,6.04 214.44,10.49 -220.47,-178.12 -408.46,-404.62 -506.65,-668.14 -98.9,-266.55 -20.37,-692.39 289.97,-791.29 292.17,-93.64 496.01,270.21 588.9,489.27 134.39,317.85 154.02,687.01 21.89,1006.47 573.07,73.24 1274.52,169.13 1741.22,531.54 36.92,28.7 -4.6,75.51 -40.11,69.47 -347.24,-58.15 -679.54,-201.59 -1024.58,-277.1 -382.06,-83.07 -770.91,-136.74 -1161.24,-168.46 -37.74,-3.02 -76.28,-6.04 -114.04,-7.47 92.14,270.32 -160.8,622.16 -304.26,825.28 -123.05,175.16 -392.64,457.55 -619.87,236.25 -183.51,-178.87 -168.38,-584.32 -30.2,-778.39 86.83,-122.31 221.2,-189.5 355.61,-244.63 33.97,-14.34 67.19,-28.68 100.4,-43.04 -372.22,12 -743.69,52.78 -1115.18,92.12 40,283.91 -23.41,582.91 -157.83,834.33 -89.08,167.63 -227.26,366.95 -441.71,259.75 -236.31,-117.12 -206.13,-396.41 -122.3,-602.54 83.04,-203.11 223.51,-341.27 391.89,-458.39 -44.58,4.6 -89.12,8.39 -133.66,12.16 -400.92,33.99 -806.4,64.94 -1211.88,83.07 83.84,195.54 -24.14,529.27 -107.2,693.13 -97.41,192.54 -303.54,457.46 -557.2,342.79 -223.49,-101.17 -161.59,-458.32 -83.07,-631.98 73.99,-160.82 203.89,-300.5 360.15,-390.35 -361.67,8.3 -723.33,3.77 -1083.5,-20.46 173.69,411.56 -228.75,1333.49 -711.24,1021.65 -234.81,-151.02 -132.87,-490.79 -10.59,-678.86 78.55,-119.98 240.12,-286.84 410.79,-368.39 -354.88,-35.49 -706.75,-92.87 -1054.82,-178.2 -140.43,271.81 -691.64,649.34 -916.62,281.64 -173.67,-283.16 202.36,-406.23 505.11,-405.46z"/>
 </g>
</svg>
