<?xml version="1.0" encoding="UTF-8"?>
<!DOCTYPE svg PUBLIC "-//W3C//DTD SVG 1.1//EN" "http://www.w3.org/Graphics/SVG/1.1/DTD/svg11.dtd">
<!-- Creator: CorelDRAW 2021 (64-Bit) -->
<svg xmlns="http://www.w3.org/2000/svg" xml:space="preserve" width="22in" height="22in" version="1.1" style="shape-rendering:geometricPrecision; text-rendering:geometricPrecision; image-rendering:optimizeQuality; fill-rule:evenodd; clip-rule:evenodd"
viewBox="0 0 22000 22000"
 xmlns:xlink="http://www.w3.org/1999/xlink"
 xmlns:xodm="http://www.corel.com/coreldraw/odm/2003">
 <defs>
  <style type="text/css">
   <![CDATA[
    .fil0 {fill:none}
    .fil1 {fill:#2B2A29}
   ]]>
  </style>
 </defs>
 <g id="Layer_x0020_1">
  <metadata id="CorelCorpID_0Corel-Layer"/>
  <rect class="fil0" width="22000" height="22000"/>
  <path class="fil1" d="M21075.54 9860.52c-146.01,76.24 -302.78,137.21 -453.06,204.62 -146.34,65.59 -358.3,186.73 -541.08,197.36 -2.36,2.13 -5.51,4.28 -8.9,5.77 -40.29,17.61 -80.98,34.59 -121.96,51.67 88.34,86.17 182.78,165.8 286.03,235.01 99.98,67.09 213.69,118.08 307.87,193.41 60.41,48.28 233.54,244.72 138.19,334.63 -28.24,26.37 -50.44,17.96 -83.81,10.63 -51.65,-11.31 -108.1,-63.21 -153.94,-89.58 -57.09,-33.12 -113.87,-64.68 -168.25,-102.59 -194.88,-137.61 -344.38,-332.81 -499.78,-512.96 -104.81,39.78 -210.46,77.53 -317.35,112.4 184.35,130.51 354.68,292.69 524.68,437.23 70.54,59.82 254.78,189.79 132.98,293.03 -128.7,109.02 -295.42,-103.83 -375.25,-177.99 -103.83,-96.17 -209.81,-192.76 -307.29,-295.35 -58.58,-61.39 -92.06,-137.28 -138.44,-204.69 -102.08,30.9 -204.36,60.17 -307.28,87.43 29.67,31.56 57.34,65.59 85.87,96.26 81.69,87.41 163.07,175.26 244.17,263.6 133.59,145.43 320.39,294.83 399.57,479.67 4.56,10.72 5.77,24.31 -4.2,32.89 -170.89,144.52 -338.93,-126.91 -437.56,-237.16 -165.21,-184.09 -340.43,-367.11 -439.14,-596.44 -148.81,36.83 -298.12,70.22 -447.85,100.54 73.51,96.89 126.98,207.73 218.36,291.8 112,103.25 225.29,196.19 325.17,313.12 65.94,77.37 335.29,325.18 207.73,436.91 -64.43,56.78 -121.21,-6.33 -168.84,-52.82 -106.87,-105.06 -216.49,-209.8 -309.76,-327.39 -157.88,-198.5 -325.5,-399.8 -434.77,-629.98 -1.87,0.26 -3.62,0.91 -5.51,1.24 -174.93,32.73 -350.39,60.41 -525.9,84.63 47.72,59 76.8,132.09 116.35,198.04 46.41,77.11 96.5,152.11 150.55,224.06 115.39,153 275.49,235.59 404.78,370.82 87.1,91.28 370.72,440.29 94.67,505.52 -92.85,21.84 -159.35,-47.37 -205.51,-117.82 -95,-146.04 -180.63,-293.61 -286.12,-433.28 -108.01,-143.31 -220.34,-283.88 -315.11,-436.67 -58,-93.2 -113.64,-185.82 -120.88,-289.32 -155.08,18.78 -310.24,34.62 -465.74,46.98 84.95,183.17 166.71,369.25 266.57,544.44 96.03,168.19 223.83,310.08 337.96,465.26 56.78,76.78 375.67,645.21 95.32,616.04 -123.82,-13.01 -178.81,-217.38 -223.8,-305.46 -94.68,-185.75 -189.7,-371.64 -284.46,-557.8 -104.72,-204.93 -211.05,-408.97 -313.15,-615.13 -19.99,-40.13 -48.45,-88.67 -55.78,-134.24 -132.09,8.81 -264.51,15.49 -396.93,19.44 214.41,320.65 404.27,659.48 537.53,1021.73 67.09,182.2 206.17,331.93 262.62,516.27 31.3,102.92 34.27,262.62 -74.35,324.59 -99.27,56.53 -157.62,-35.6 -195.28,-117.26 -93.86,-203.71 -95.02,-435.69 -187.64,-640.94 -166.13,-368.04 -401.72,-699.94 -486.19,-1100.76 -162.97,3.04 -326.06,3.3 -489.15,-0.25 8.18,461.45 393.57,828.57 559.04,1241.25 44.99,111.98 418.78,845.04 120.56,835.98 -133.07,-3.95 -190.7,-186.14 -217.47,-289.39 -57.02,-219.55 -56.46,-430.89 -171.8,-634.11 -104.48,-183.67 -217.79,-356.15 -290.56,-556.22 -71.45,-194.97 -110.6,-394.81 -121.23,-600.9 -179.46,-5.52 -359.19,-14.57 -538.67,-27.94 188.32,352.85 345.52,705.06 460.98,1092.44 62.46,209.32 128.71,421.58 252.32,603.77 54.96,80.76 198.83,215.91 97.48,320.32 -70.19,72.25 -185.82,35.83 -245.74,-28.19 -119.22,-127.56 -152.04,-372.06 -203.13,-532.32 -153.93,-484.62 -309.92,-967.51 -517.09,-1432.61 -6.01,-13.33 -2.06,-26.44 6.09,-35.27 -87.41,-7.33 -174.61,-15.48 -261.78,-24.62 -83.13,-8.41 -166.38,-18.48 -249.28,-29.43 210.13,250.85 288.18,590.6 385.07,900.92 79.87,255.7 166.13,509.26 258.77,760.34 26.37,71.94 53.4,143.63 80.98,214.99 15.75,41.6 66.83,119.67 62.56,160.36 -3.62,32.46 -18.22,57.02 -44.33,78.3 -311.23,252.3 -446.62,-616.39 -469.46,-748.81 -84.7,-493.03 -203.04,-945.83 -435.4,-1387.36 -210.39,-28.85 -420.85,-59.82 -631.88,-83.56 138.44,202.29 267.16,410.62 385.98,625.29 113.54,205.51 231.62,417.54 270.52,651.89 19.39,117.82 18.8,237.82 39.48,355.33 22.17,127.21 85.05,222.23 136.62,335.78 46.74,102.59 54.4,262.97 -71.59,315.2 -116.11,47.95 -199.51,-68.3 -236.6,-161.27 -95.39,-238.63 -70.78,-512.46 -137.28,-759.43 -71.01,-264.68 -192.5,-513.45 -306.04,-762.15 -92.62,-202.57 -208.64,-408.73 -283.97,-620.66 -176.99,-15.09 -354.91,-23.01 -533.49,-18.22 -39.78,1.24 -79.19,3.39 -118.41,6.42 122.38,206.42 299.37,369.26 445.41,558.37 161.33,208.9 242.35,445.82 310.98,697.56 73.2,268.39 156.99,543.2 195.56,818.86 17.99,127.21 42.28,455.28 -125.67,513.54 -159.77,55.87 -168.02,-205.02 -180.37,-293.36 -37.66,-274.16 -59.59,-552.04 -124.27,-821.66 -72.85,-304.88 -227.11,-542.63 -378.57,-811.01 -115.44,-204.46 -210.46,-422.4 -273.32,-648.6 -293.29,37.98 -571.72,128.38 -825.05,271.43 339.78,380.79 688.07,780.69 853.31,1271.34 81.99,243.49 118.99,506.86 84.04,762.15 -21.17,157.06 -58.25,392.66 -222.81,461.96 -9.39,3.94 -19.46,-1.31 -26.47,-7.01 -148.46,-118.17 -25.53,-373.79 -17.63,-523.84 16.42,-309.1 -83.46,-612.42 -223.15,-884.19 -126.56,-245.99 -285.44,-473.08 -432.04,-706.85 -39.22,-62.32 -132.42,-176.76 -164.31,-281.5 -109.27,73.42 -213.19,157.56 -310.67,252.22 -99.88,97.57 -248.05,-51.57 -152.69,-152.93 121.23,-129.15 255.12,-239.64 398.1,-333.17 -72.6,-439.96 299.36,-800.06 555.07,-1116.17 179.47,-221.42 271.43,-438.79 335.78,-712.46 26.81,-114.06 86.54,-391.33 234.77,-417.47 149.99,-27.03 165.8,235.36 165.8,330.69 -0.3,219.85 -95.09,431.15 -222.58,605.76 -144.52,198.01 -333.07,358.3 -499.53,537.2 -197.33,211.93 -356.8,449.68 -473.67,713.19 284.48,-165.8 602.95,-265.91 937.69,-304.16 -38.63,-160.09 62.56,-353.74 146.02,-481.3 140.33,-215.02 340.67,-381.12 487.59,-590.6 126.09,-180.14 191.1,-386.56 229.57,-600.64 24.9,-138.45 46.81,-297.31 148.16,-404.11 83.25,-87.76 153.44,-91.47 221.09,16.07 71.39,113.87 49.29,262.95 11.89,383.76 -201.98,651.96 -894.26,1011.76 -1088.32,1663.16 4.86,-0.35 9.81,-0.65 14.57,-0.91 176.22,-9.16 351.72,-2.15 526.25,13.59 52.91,-324.85 333.72,-606.98 547.5,-833.44 243.84,-258.51 520.46,-526.32 610.69,-882.14 38.24,-149.73 25.7,-378.97 208.57,-436.64 103.25,-32.49 189.51,30.97 220.18,129.29 107.71,342.3 -322.54,734.21 -536.29,937.99 -320.36,305.48 -715.75,651.98 -722.43,1124.16 192.83,27.86 385.39,62.22 577.24,95.02 93.88,-467.31 404.43,-824.7 683.54,-1196.92 157.91,-210.79 233.87,-426.37 323.09,-669.37 31.35,-84.65 93.2,-289.91 221.44,-234.94 144.22,61.97 107.35,317.84 75.24,433.61 -61.31,218.94 -214.43,391.91 -365.63,554.74 -176.08,189.2 -341.24,384.41 -484.95,599.66 -68.3,102.1 -132.02,207.17 -190.61,314.94 -38.89,71.69 -71.36,149.4 -107.22,224.38 63.8,10.63 127.56,20.6 191.26,30.09 99.65,14.48 199.5,26.7 299.39,37.91 52.58,-395.65 339.82,-685.6 600.98,-971.07 178.83,-195.54 327.95,-393.48 421.41,-643.41 32.21,-85.94 106.63,-321.95 226.28,-327.96 92.64,-4.53 135.39,128.47 132.09,198.59 -9.37,195.54 -227.19,396.61 -351.03,530.52 -165.45,178.48 -346.17,342.79 -500.69,531.01 -83.21,101.17 -161.27,208.55 -221.35,324.99 -47.7,91.31 -129.69,251.67 -119.71,376.75 180.39,16.4 361.07,27.35 542.04,34.03 -47.61,-116.61 16.07,-274.16 59.49,-382.03 71.39,-176.33 170.1,-336.7 291.24,-483.04 154.82,-186.82 313.38,-347.43 393.87,-582.19 48.87,-142.65 92.29,-276.54 217.15,-370.74 11.47,-8.74 31.13,-4.53 40.62,5.21 242.6,246.53 -10.63,549.3 -181.54,748.78 -264.49,309.11 -610.69,643.18 -648.34,1069.13 135.48,3.13 270.61,3.62 405.67,1.89 -15.72,-156.15 63.79,-291.54 144.54,-425.13 104.51,-172.81 211.38,-344.03 333.4,-504.64 66.85,-87.52 140.27,-171.24 195.23,-267.24 48.31,-85.03 65.34,-176.76 106.96,-263.6 37.91,-80.1 148.49,-181.29 250.17,-149.31 77.78,23.97 88.91,138.35 72.85,206.17 -35.18,146.93 -197.38,251.99 -296.32,354.35 -291.54,301.19 -535.06,647.69 -669.88,1046.7 21.28,-0.68 42.54,-1 63.8,-1.57 109.92,-3.06 219.2,-8.83 328.54,-15.74 2.97,-278.46 289.09,-569.67 448.44,-763.73 140.69,-171.57 248.7,-343.44 350.73,-538.68 44.33,-84.72 125.15,-228.91 237.81,-232.86 77.46,-2.73 124.18,73.16 116.84,144.52 -13.92,138.68 -187.29,277.55 -270.22,376.84 -141.48,170.57 -287.24,339.43 -415.38,520.39 -107.52,152.44 -182.53,308.26 -250.52,477.35 147.28,-12.44 293.62,-27.68 439.4,-46.13 35.5,-162.76 123.59,-321.3 197.92,-468.22 81.43,-160.35 173.72,-316.11 290.89,-453.39 141.28,-165.22 286.68,-344.03 443.35,-494.67 29.5,-28.2 62.3,-63.37 105.46,-68.56 53.98,-6.68 76.73,44.57 125.67,46.13 23.33,0.91 38.24,25.46 26.37,46.39 -133.24,235.76 -354.09,387.57 -538.67,578.83 -209.46,217.12 -346.11,487.4 -408.41,780.69 175.54,-25.81 350.71,-54.96 525.01,-88.11 -27.03,-115.27 10.3,-230.48 50.17,-343.04 52.19,-148.56 115.63,-293.59 189.7,-432.44 80.84,-151.22 174.86,-300.3 283.64,-432.96 39.48,-48.04 143.3,-183.69 225.95,-157.65 175.77,55.62 -123.94,392.07 -172.81,451.01 -121.7,148.07 -237.81,295.42 -329.2,464.84 -70.68,131.18 -149.98,281.73 -168.18,434.85 139.1,-27.12 277.52,-56.2 415.97,-87.2 37.09,-290.07 181.29,-577.24 356.48,-808.63 75.66,-100.21 115.11,-220.76 192.24,-319.71 71.62,-92.06 174.3,-154.02 284.23,-189.79 6.66,-2.15 12.76,1.5 16.63,7.01 54.17,74 -0.26,144.87 -49.76,212.51 -83.81,114.79 -174.3,223.48 -254.14,341.32 -147.58,218.29 -308.19,462.13 -384.76,720.29 111.75,-26.54 223.24,-53.8 334.66,-82.32 140.66,-307.94 317.91,-594.22 498.87,-879.67 105.42,-166.13 220.76,-451.82 453.63,-448.43 9.41,0.16 21.02,7.17 22.59,17.21 37.91,220.76 -131.51,411.53 -275.8,559.37 -114.79,117.75 -238.66,223.73 -328.47,363.81 -66.57,103.18 -102.76,215.58 -143.38,328.21 93.86,-24.97 187.71,-50.76 281.47,-76.87 142.42,-228.94 297.57,-450.26 451.25,-671.68 92.31,-132.35 224.96,-363.41 390.44,-411.69 4.95,-1.24 11.87,0 15.58,4.28 114.72,136.88 -53.81,334.56 -145.52,431.15 -183.67,193.06 -379.81,360.42 -517.67,588.45 13.61,-2.73 27.05,-5.21 40.38,-7.59 0.91,-0.33 1.5,-0.33 2.39,-0.65 202.57,-184.26 434.28,-336.13 686.51,-444.17 85.96,-37.09 417.3,-181.94 457.34,3.55 12.8,57.77 -27.94,71.78 -72.25,94.84zm-20151.03 64.37c146.04,76.2 302.76,137.28 452.97,204.69 146.43,65.57 358.39,186.71 541.15,197.36 2.47,2.12 5.44,4.28 8.83,5.74 40.39,17.64 81.07,34.62 122.12,51.6 -88.41,86.26 -182.85,165.87 -286.12,235.11 -99.86,67.06 -213.76,118.08 -307.85,193.48 -60.47,48.12 -233.54,244.66 -138.19,334.57 28.26,26.37 50.43,17.87 83.79,10.63 51.6,-11.3 108.13,-63.2 154.03,-89.58 57.04,-33.12 113.8,-64.68 168.18,-102.69 194.98,-137.54 344.28,-332.74 499.78,-512.86 104.74,39.78 210.46,77.46 317.33,112.38 -184.32,130.62 -354.65,292.7 -524.73,437.25 -70.48,59.82 -254.72,189.77 -133.01,293.04 128.8,109.01 295.49,-103.83 375.35,-177.93 103.83,-96.26 209.78,-192.83 307.28,-295.49 58.58,-61.31 92.04,-137.21 138.45,-204.71 102.01,31 204.34,60.17 307.26,87.52 -29.73,31.56 -57.35,65.59 -85.85,96.24 -81.75,87.43 -163.09,175.21 -244.17,263.53 -133.57,145.52 -320.39,294.85 -399.67,479.76 -4.53,10.63 -5.67,24.31 4.3,32.89 170.98,144.52 338.84,-127 437.55,-237.16 165.15,-184.11 340.41,-367.13 439.05,-596.37 148.84,36.76 298.22,70.12 447.87,100.44 -73.51,96.91 -126.9,207.75 -218.31,291.8 -112.05,103.24 -225.27,196.21 -325.24,313.05 -65.92,77.55 -335.13,325.27 -207.66,436.99 64.37,56.79 121.13,-6.33 168.86,-52.81 106.8,-105.07 216.56,-209.87 309.67,-327.3 157.9,-198.69 325.57,-399.92 434.85,-630.14 1.82,0.3 3.71,0.98 5.44,1.24 174.95,32.77 350.47,60.38 525.99,84.7 -47.72,58.91 -76.9,132.19 -116.28,197.94 -46.56,77.2 -96.57,152.2 -150.64,224.12 -115.44,153.12 -275.37,235.69 -404.76,370.75 -87.18,91.45 -370.75,440.36 -94.77,505.62 92.95,21.91 159.45,-47.37 205.51,-117.82 95.12,-146.04 180.8,-293.62 286.12,-433.37 108.11,-143.3 220.41,-283.88 315.18,-436.57 57.95,-93.2 113.57,-185.82 120.81,-289.42 155.26,18.78 310.41,34.62 465.84,47.07 -85.03,183.18 -166.71,369.32 -266.59,544.52 -95.98,168.19 -223.8,309.93 -338.02,465.09 -56.76,76.87 -375.59,645.31 -95.33,616.22 123.94,-13.1 178.91,-217.46 223.8,-305.48 94.7,-185.89 189.79,-371.73 284.56,-557.87 104.74,-204.95 211.02,-409.06 313.06,-615.22 20.02,-40.06 48.61,-88.67 55.85,-134.24 132.12,8.9 264.54,15.58 396.87,19.53 -214.32,320.63 -404.11,659.56 -537.44,1021.73 -67.15,182.2 -206.16,331.83 -262.69,516.28 -31.23,102.89 -34.29,262.61 74.49,324.49 99.3,56.53 157.56,-35.43 195.21,-117.19 93.78,-203.71 95,-435.73 187.64,-640.94 166.13,-368.09 401.72,-699.94 486.1,-1100.75 163.09,3.06 326.15,3.39 489.22,-0.33 -8.22,461.55 -393.47,828.67 -559.02,1241.35 -44.9,112.05 -418.7,845.04 -120.55,835.98 133,-3.97 190.68,-186.15 217.46,-289.41 57.04,-219.52 56.43,-430.87 171.8,-634 104.51,-183.79 217.73,-356.24 290.63,-556.31 71.32,-194.97 110.51,-394.71 121.14,-600.9 179.42,-5.53 359.21,-14.57 538.7,-27.94 -188.29,352.76 -345.61,705.06 -460.98,1092.53 -62.53,209.2 -128.8,421.48 -252.39,603.68 -54.87,80.66 -198.85,215.81 -97.41,320.29 70.13,72.27 185.82,35.86 245.64,-28.26 119.34,-127.47 152.11,-371.96 203.13,-532.25 153.96,-484.62 310.08,-967.42 517.09,-1432.66 6.19,-13.36 2.22,-26.37 -6.02,-35.2 87.45,-7.33 174.54,-15.49 261.71,-24.65 83.25,-8.48 166.47,-18.45 249.28,-29.41 -210.04,250.85 -288.17,590.6 -384.9,900.92 -79.93,255.71 -166.13,509.17 -258.74,760.35 -26.44,71.92 -53.49,143.63 -81.1,214.99 -15.79,41.53 -66.83,119.64 -62.53,160.36 3.62,32.37 18.12,57.02 44.33,78.28 311.25,252.41 446.61,-616.37 469.37,-748.81 84.72,-493.1 203.19,-945.81 435.43,-1387.34 210.46,-28.85 420.9,-59.75 631.94,-83.48 -138.43,202.22 -267.25,410.56 -385.91,625.13 -113.52,205.67 -231.72,417.63 -270.61,652.06 -19.43,117.75 -18.78,237.65 -39.48,355.23 -22.14,127.24 -84.96,222.26 -136.63,335.8 -46.79,102.59 -54.28,263.04 71.71,315.28 115.95,47.96 199.48,-68.4 236.48,-161.34 95.35,-238.65 70.71,-512.46 137.3,-759.34 71.04,-264.77 192.48,-513.56 306.05,-762.17 92.64,-202.54 208.57,-408.73 283.88,-620.76 177.08,-15.16 355,-23.06 533.56,-18.13 39.73,1.15 79.28,3.3 118.33,6.35 -122.26,206.49 -299.36,369.16 -445.38,558.36 -161.27,208.89 -242.28,445.73 -310.93,697.46 -73.16,268.46 -157.06,543.3 -195.53,819.03 -17.89,127.21 -42.19,455.11 125.67,513.44 159.71,55.87 167.93,-204.93 180.38,-293.36 37.65,-274.23 59.5,-552.01 124.17,-821.64 72.95,-304.8 227.12,-542.62 378.67,-811.01 115.37,-204.46 210.44,-422.42 273.25,-648.63 293.36,37.91 571.8,128.41 825.03,271.45 -339.75,380.79 -688.07,780.62 -853.22,1271.41 -81.96,243.49 -119.08,506.79 -84.14,762.17 21.28,156.97 58.35,392.57 222.91,461.78 9.42,3.95 19.37,-1.24 26.37,-7.01 148.49,-118.08 25.53,-373.78 17.63,-523.68 -16.39,-309.17 83.56,-612.51 223.15,-884.26 126.65,-245.99 285.44,-473.08 432.13,-706.95 39.13,-62.22 132.43,-176.68 164.31,-281.49 109.27,73.58 213.17,157.65 310.57,252.41 99.97,97.38 248.12,-51.6 152.79,-153.11 -121.11,-128.96 -255.05,-239.55 -398.11,-333.07 72.53,-440.06 -299.36,-800.15 -555.07,-1116.26 -179.37,-221.25 -271.52,-438.7 -335.87,-712.3 -26.7,-114.2 -86.54,-391.42 -234.69,-417.54 -149.99,-27.03 -165.8,235.33 -165.8,330.69 0.33,219.85 95,431.13 222.56,605.83 144.56,197.94 333.16,358.23 499.45,537.11 197.45,211.86 356.89,449.68 473.74,713.21 -284.53,-165.71 -603.03,-265.92 -937.59,-304.22 38.5,-159.96 -62.63,-353.77 -146.11,-481.26 -140.31,-214.99 -340.73,-381.12 -487.66,-590.57 -126,-180.07 -191,-386.56 -229.57,-600.65 -24.87,-138.54 -46.74,-297.24 -148.17,-404.1 -83.22,-87.85 -153.35,-91.48 -221.02,16.07 -71.43,113.87 -49.19,262.94 -11.87,383.73 201.91,651.89 894.26,1011.85 1088.23,1663.18 -4.84,-0.35 -9.72,-0.68 -14.58,-1 -176.03,-9.06 -351.55,-2.06 -526.15,13.69 -52.91,-324.85 -333.75,-607 -547.5,-833.53 -243.81,-258.41 -520.45,-526.22 -610.62,-882.04 -38.29,-149.73 -25.86,-378.97 -208.64,-436.67 -103.24,-32.46 -189.44,31 -220.11,129.29 -107.84,342.32 322.47,734.3 536.22,938.02 320.29,305.46 715.66,651.89 722.34,1124.15 -192.8,27.94 -385.32,62.2 -577.24,95.02 -93.76,-467.33 -404.43,-824.79 -683.55,-1197.01 -157.88,-210.72 -233.77,-426.27 -323.1,-669.2 -31.16,-84.79 -93.13,-289.98 -221.25,-235.11 -144.28,61.97 -107.54,318.01 -75.33,433.7 61.32,218.87 214.34,392.01 365.54,554.74 176.12,189.11 341.34,384.41 484.95,599.73 68.32,102.03 132.09,207.01 190.77,314.88 38.82,71.59 71.29,149.31 107.12,224.38 -63.77,10.54 -127.56,20.67 -191.33,30.09 -99.53,14.58 -199.51,26.7 -299.39,37.98 -52.47,-395.72 -339.75,-685.76 -600.97,-971.04 -178.81,-195.65 -327.89,-393.66 -421.41,-643.5 -32.19,-85.96 -106.54,-321.86 -226.18,-327.96 -92.64,-4.53 -135.48,128.45 -132.12,198.6 9.48,195.54 227.12,396.51 351.06,530.43 165.47,178.58 346.08,342.79 500.69,531.08 83.23,101.12 161.17,208.66 221.32,324.92 47.75,91.38 129.71,251.76 119.67,376.85 -180.3,16.39 -361.04,27.35 -541.99,34.03 47.65,-116.6 -16.07,-274.25 -59.57,-382.03 -71.29,-176.36 -170,-336.69 -291.14,-483.13 -154.89,-186.66 -313.38,-347.35 -393.81,-582.03 -48.93,-142.72 -92.29,-276.63 -217.14,-370.72 -11.61,-8.92 -31.3,-4.63 -40.71,5.09 -242.65,246.55 10.65,549.3 181.64,748.81 264.44,309.1 610.61,643.16 648.27,1069.2 -135.39,3.04 -270.54,3.62 -405.76,1.72 15.91,-155.98 -63.7,-291.46 -144.54,-425.03 -104.39,-172.81 -211.28,-344.05 -333.4,-504.64 -66.74,-87.52 -140.25,-171.31 -195.21,-267.24 -48.3,-84.96 -65.26,-176.76 -106.89,-263.54 -37.88,-80.17 -148.42,-181.35 -250.17,-149.47 -77.69,23.96 -88.99,138.51 -72.85,206.16 35.2,147.02 197.36,252.09 296.33,354.42 291.46,301.19 534.96,647.62 669.85,1046.63 -21.26,-0.59 -42.51,-0.91 -63.77,-1.5 -109.93,-3.04 -219.2,-8.81 -328.54,-15.81 -3.04,-278.46 -289.09,-569.58 -448.53,-763.65 -140.57,-171.56 -248.7,-343.46 -350.71,-538.67 -44.33,-84.72 -125.01,-228.91 -237.74,-232.89 -77.46,-2.71 -124.17,73.18 -116.93,144.54 14.02,138.77 187.38,277.45 270.28,376.75 141.6,170.73 287.26,339.52 415.41,520.55 107.45,152.37 182.52,308.2 250.5,477.29 -147.23,-12.45 -293.69,-27.61 -439.37,-46.16 -35.51,-162.74 -123.62,-321.2 -198.01,-468.29 -81.34,-160.29 -173.63,-316.02 -290.89,-453.23 -141.25,-165.21 -286.61,-344.03 -443.35,-494.67 -29.41,-28.26 -62.3,-63.44 -105.3,-68.65 -54.05,-6.68 -76.9,44.66 -125.67,46.15 -23.47,0.91 -38.31,25.56 -26.53,46.48 133.33,235.57 354.09,387.45 538.67,578.71 209.57,217.14 346.27,487.35 408.4,780.69 -175.42,-25.78 -350.63,-54.96 -525.01,-88.08 27.05,-115.37 -10.3,-230.48 -50.01,-343.11 -52.25,-148.52 -115.7,-293.62 -189.86,-432.39 -80.66,-151.2 -174.86,-300.28 -283.55,-433.02 -39.54,-47.98 -143.3,-183.69 -225.87,-157.56 -175.82,55.52 123.84,391.98 172.71,450.92 121.81,148.23 237.74,295.49 329.12,464.84 70.8,131.18 150.06,281.82 168.2,434.93 -139.03,-27.05 -277.54,-56.2 -415.9,-87.19 -37.07,-289.98 -181.38,-577.24 -356.56,-808.63 -75.64,-100.21 -115.04,-220.76 -192.25,-319.74 -71.59,-91.96 -174.2,-153.93 -284.13,-189.76 -6.66,-2.15 -12.78,1.56 -16.73,7 -54.05,73.98 0.33,144.78 49.85,212.52 83.74,114.79 174.28,223.47 254.15,341.31 147.6,218.29 308.19,462.13 384.67,720.22 -111.72,-26.37 -223.17,-53.73 -334.57,-82.24 -140.57,-307.87 -317.91,-594.3 -498.96,-879.67 -105.3,-166.06 -220.67,-451.83 -453.62,-448.53 -9.39,0.33 -20.93,7.33 -22.43,17.31 -37.98,220.76 131.51,411.44 275.72,559.37 114.72,117.82 238.63,223.8 328.54,363.72 66.5,103.27 102.59,215.58 143.31,328.21 -93.85,-24.81 -187.64,-50.67 -281.5,-76.71 -142.39,-229.01 -297.57,-450.33 -451.15,-671.75 -92.36,-132.35 -225.06,-363.51 -390.6,-411.79 -4.77,-1.15 -11.8,0 -15.42,4.3 -114.86,136.95 53.72,334.63 145.36,431.13 183.76,193.15 379.97,360.43 517.83,588.52 -13.69,-2.71 -27.03,-5.19 -40.45,-7.57 -0.89,-0.35 -1.5,-0.33 -2.41,-0.65 -202.55,-184.28 -434.17,-336.13 -686.58,-444.17 -85.94,-37.09 -417.14,-181.87 -457.34,3.62 -12.69,57.68 28.01,71.69 72.34,94.7z"/>
 </g>
</svg>
