<?xml version="1.0" encoding="UTF-8"?>
<!DOCTYPE svg PUBLIC "-//W3C//DTD SVG 1.1//EN" "http://www.w3.org/Graphics/SVG/1.1/DTD/svg11.dtd">
<!-- Creator: CorelDRAW 2021 (64-Bit) -->
<svg xmlns="http://www.w3.org/2000/svg" xml:space="preserve" width="22in" height="22in" version="1.1" style="shape-rendering:geometricPrecision; text-rendering:geometricPrecision; image-rendering:optimizeQuality; fill-rule:evenodd; clip-rule:evenodd"
viewBox="0 0 22000 22000"
 xmlns:xlink="http://www.w3.org/1999/xlink"
 xmlns:xodm="http://www.corel.com/coreldraw/odm/2003">
 <defs>
  <style type="text/css">
   <![CDATA[
    .fil0 {fill:none}
    .fil1 {fill:#2B2A29}
   ]]>
  </style>
 </defs>
 <g id="Layer_x0020_1">
  <metadata id="CorelCorpID_0Corel-Layer"/>
  <rect class="fil0" width="22000" height="22000"/>
  <path class="fil1" d="M20116.31 10782.54c-92.06,-148.67 -214.61,-275.52 -367.64,-362.56 -83.34,-47.81 -208.79,-110.91 -308.97,-89.85 42.91,-55.89 95.82,-116.73 126.26,-176.98 101.49,-203.74 91.35,-445.93 208.08,-639.54 20.31,-33.37 -26.13,-68.85 -53.68,-42.06 -160.22,160.22 -302.4,325.58 -385.68,538.82 -34.12,86.96 -105.18,301.57 -23.27,393.66 1.52,5.82 5.14,11.65 10.21,20.31 -134.17,44.24 -268.35,88.41 -402.44,132.67 55.8,-77.56 87.73,-169.66 107.29,-273.33 49.29,-269.7 60.85,-526.41 166.02,-783.88 5.07,-12.99 -12.31,-20.25 -21,-12.99 -205.19,176.23 -795.44,867.93 -437.24,1129.71 -187.08,60.16 -375.65,118.91 -563.41,174.71 295.08,-355.27 326.25,-855.62 258.14,-1297.94 -2.25,-15.24 -22.5,-13.74 -28.98,-3.62 -187.17,257.39 -356.08,530.04 -407.57,849.12 -24.61,150.79 -56.57,381.38 83.43,479.98 -207.39,59.5 -414.75,114.63 -623.6,163.18 281.34,-419.82 297.93,-947.66 271.22,-1450.91 -1.52,-18.88 -24.7,-30.5 -38.53,-16.01 -240.67,249.45 -426.28,503.25 -469.77,857.81 -22.5,185.58 -29,502.5 139.14,631.6 -248.7,55.11 -498.86,100.06 -750.43,131.99 350.28,-378.51 242.9,-1152.2 292.96,-1603.27 1.37,-13.08 -16.01,-15.93 -24.01,-9.44 -311.76,248.04 -486.49,524.99 -557.53,917.31 -41.37,228.39 -52.26,532.91 115.3,714.96 -174.11,16.65 -349.53,26.8 -524.99,28.98 448.05,-398.07 405.31,-1321.1 453.19,-1844.66 2.18,-18.9 -21.74,-29 -36.32,-21.06 -348.01,201.59 -487.24,608.33 -625.71,964.42 -117.39,300.97 -182.72,647.52 55.11,900.61 -263.28,-4.37 -527.92,-27.55 -795.44,-74.74 198.66,-110.93 298.01,-360.38 381.38,-565.53 68.85,-167.57 117.48,-340.07 143.61,-519.92 42.74,-292.24 -8,-598.92 142.78,-866.5 9.46,-16.69 -10.13,-37 -27.48,-26.88 -664.96,390.88 -1142.85,1185.57 -797.64,1948.4 -229.14,-46.44 -474.91,-107.3 -727.25,-166.8 571.35,-295.83 530.71,-1463.96 769.99,-1926.56 10.19,-20.33 -12.31,-50.06 -34.05,-34.14 -374.87,271.94 -751.95,567.05 -958.62,993.42 -163.82,338.61 -255.21,607.67 -67.42,902.05 -293.71,-63.14 -593.16,-114.53 -883.17,-129.1 580.11,-441.56 809.93,-1418.29 1027.45,-2056.37 8.03,-22.52 -18.85,-38.44 -37.67,-29 -720.76,368.3 -1675.74,1157.28 -1229.06,2081.76 -502.54,13.04 -966.54,163.16 -1317.56,589.52 -47.8,59.5 25.38,134.18 84.2,84.11 376.24,-318.33 765.61,-433.62 1176.05,-450.3 -229.81,889.72 302.4,1863.53 974.54,2421.89 26.15,21.75 68.19,8.67 68.87,-28.25 8.69,-549.69 -129.79,-1078.96 -273.34,-1605.45 -73.9,-269.02 -134.09,-582.22 -331.38,-774.38 216.11,20.31 438.68,56.57 669.36,95.76 13.07,2.1 26.71,4.97 39.79,7.17 -369.05,726.56 474.24,1771.48 941.98,2234.79 16.63,16.01 40.56,2.93 41.99,-17.36 41.39,-464.83 -110.84,-986.87 -249.39,-1427.73 -73.24,-234.98 -169.66,-504.68 -323.46,-715.71 202.34,37.67 406.06,73.99 609.92,106.61 -38.5,246.52 113.09,635.91 181.22,830.18 136.36,385.83 366.87,736.78 638.83,1040.61 13.07,14.49 39.1,2.87 39.1,-16.01 -4.28,-435.76 -30.41,-872.23 -176.21,-1287.06 -59.41,-168.89 -139.16,-376.31 -273.33,-511.17 149.43,17.36 298.7,30.44 448.11,37.01 32.64,1.41 65.24,1.43 97.94,2.12 -221.13,601.17 491.54,1302.3 857.72,1688.05 21.77,22.49 68.19,6.57 65.26,-26.8 -34.05,-439.44 -95.67,-1393.67 -566.98,-1664.12 116.75,-5.07 233.46,-13.07 350.2,-25.38 -50.73,593.07 448.13,1042.73 816.52,1449.47 15.94,17.44 52.16,4.39 49.29,-20.31 -53.66,-488.67 -77.54,-1199.31 -535.84,-1471.97 179.1,-27.57 358.26,-62.37 535.84,-103.65 -11.6,562.64 548.92,981.78 1007.16,1207.32 17.38,8.67 45.7,-0.77 42.74,-24.7 -38.35,-358.2 -191.41,-672.14 -427.06,-943.35 -91.35,-104.43 -229.07,-234.21 -350.26,-306.7 187.85,-50.74 374.96,-106.61 560.54,-167.54 -79.04,490.17 399.57,902.07 802.7,1094.23 26.13,12.28 55.18,-2.87 56.55,-32.62 33.45,-503.27 -337.8,-851.33 -722.13,-1107.97 162.36,-55.13 323.4,-114.61 483.62,-175.48 -38.42,157.35 46.36,342.96 108.73,484.37 94.24,213.15 298.76,376.33 458.3,539.48 30.46,31.16 72.49,-2.18 66.67,-39.19 -42.72,-275.52 -117.4,-912.17 -438.68,-1060.83 135.61,-53.61 270.45,-108.73 403.19,-164.61 21.74,84.11 110.25,129.12 188.54,169.74 168.91,85.53 351.63,151.54 527.86,219.64 36.32,13.83 68.85,-34.05 49.31,-65.24zm-18232.61 0c92.12,-148.67 214.65,-275.52 367.64,-362.56 83.34,-47.81 208.83,-110.91 308.89,-89.85 -42.8,-55.89 -95.76,-116.73 -126.17,-176.98 -101.47,-203.74 -91.37,-445.93 -208.1,-639.54 -20.29,-33.37 26.13,-68.85 53.68,-42.06 160.24,160.22 302.34,325.58 385.68,538.82 34.22,86.96 105.19,301.57 23.26,393.66 -1.5,5.82 -5.05,11.65 -10.19,20.31 134.26,44.24 268.33,88.41 402.44,132.67 -55.8,-77.56 -87.75,-169.66 -107.29,-273.33 -49.31,-269.7 -60.87,-526.41 -166.05,-783.88 -5.05,-12.99 12.31,-20.25 21.06,-12.99 205.17,176.23 795.46,867.93 437.26,1129.71 187.02,60.16 375.56,118.91 563.35,174.71 -295.15,-355.27 -326.26,-855.62 -258.16,-1297.94 2.2,-15.24 22.5,-13.74 29,-3.62 187.19,257.39 356.08,530.04 407.57,849.12 24.61,150.79 56.55,381.38 -83.45,479.98 207.41,59.5 414.74,114.63 623.59,163.18 -281.3,-419.82 -297.93,-947.66 -271.2,-1450.91 1.5,-18.88 24.68,-30.5 38.5,-16.01 240.7,249.45 426.3,503.25 469.86,857.81 22.52,185.58 28.92,502.5 -139.22,631.6 248.72,55.11 498.86,100.06 750.43,131.99 -350.17,-378.51 -242.82,-1152.2 -292.94,-1603.27 -1.44,-13.08 15.92,-15.93 24.01,-9.44 311.76,248.04 486.47,524.99 557.59,917.31 41.33,228.39 52.18,532.91 -115.36,714.96 174.11,16.65 349.51,26.8 524.97,28.98 -448.03,-398.07 -405.31,-1321.1 -453.17,-1844.66 -2.19,-18.9 21.81,-29 36.3,-21.06 348.03,201.59 487.24,608.33 625.71,964.42 117.5,300.97 182.72,647.52 -55.05,900.61 263.24,-4.37 527.86,-27.55 795.46,-74.74 -198.72,-110.93 -298.1,-360.38 -381.46,-565.53 -68.83,-167.57 -117.48,-340.07 -143.53,-519.92 -42.8,-292.24 7.92,-598.92 -142.86,-866.5 -9.42,-16.69 10.12,-37 27.48,-26.88 664.99,390.88 1142.85,1185.57 797.71,1948.4 229.1,-46.44 474.93,-107.3 727.27,-166.8 -571.42,-295.83 -530.79,-1463.96 -770.08,-1926.56 -10.1,-20.33 12.31,-50.06 34.06,-34.14 374.89,271.94 751.95,567.05 958.61,993.42 163.93,338.61 255.27,607.67 67.42,902.05 293.73,-63.14 593.16,-114.53 883.26,-129.1 -580.17,-441.56 -810.02,-1418.29 -1027.54,-2056.37 -7.92,-22.52 18.88,-38.44 37.67,-29 720.79,368.3 1675.74,1157.28 1229.15,2081.76 502.48,13.04 966.45,163.16 1317.48,589.52 47.88,59.5 -25.36,134.18 -84.2,84.11 -376.28,-318.33 -765.6,-433.62 -1176.05,-450.3 229.82,889.72 -302.4,1863.53 -974.54,2421.89 -26.11,21.75 -68.19,8.67 -68.87,-28.25 -8.67,-549.69 129.81,-1078.96 273.33,-1605.45 74.01,-269.02 134.09,-582.22 331.38,-774.38 -216.06,20.31 -438.67,56.57 -669.27,95.76 -13.06,2.1 -26.8,4.97 -39.87,7.17 369.07,726.56 -474.23,1771.48 -941.93,2234.79 -16.67,16.01 -40.62,2.93 -42.06,-17.36 -41.37,-464.83 110.93,-986.87 249.47,-1427.73 73.18,-234.98 169.66,-504.68 323.4,-715.71 -202.34,37.67 -406.08,73.99 -609.85,106.61 38.44,246.52 -113.11,635.91 -181.28,830.18 -136.27,385.83 -366.89,736.78 -638.85,1040.61 -12.97,14.49 -39.11,2.87 -39.11,-16.01 4.3,-435.76 30.41,-872.23 176.23,-1287.06 59.42,-168.89 139.23,-376.31 273.31,-511.17 -149.41,17.36 -298.7,30.44 -448.11,37.01 -32.62,1.41 -65.24,1.43 -97.94,2.12 221.18,601.17 -491.54,1302.3 -857.72,1688.05 -21.74,22.49 -68.19,6.57 -65.24,-26.8 34.06,-439.44 95.65,-1393.67 567.03,-1664.12 -116.8,-5.07 -233.53,-13.07 -350.26,-25.38 50.74,593.07 -448.2,1042.73 -816.5,1449.47 -15.86,17.44 -52.18,4.39 -49.31,-20.31 53.7,-488.67 77.61,-1199.31 535.87,-1471.97 -179.1,-27.57 -358.2,-62.37 -535.87,-103.65 11.56,562.64 -548.83,981.78 -1007.16,1207.32 -17.36,8.67 -45.7,-0.77 -42.74,-24.7 38.44,-358.2 191.41,-672.14 427.05,-943.35 91.37,-104.43 229.1,-234.21 350.28,-306.7 -187.79,-50.74 -374.96,-106.61 -560.56,-167.54 79.06,490.17 -399.57,902.07 -802.67,1094.23 -26.13,12.28 -55.13,-2.87 -56.57,-32.62 -33.34,-503.27 337.89,-851.33 722.2,-1107.97 -162.47,-55.13 -323.46,-114.61 -483.66,-175.48 38.42,157.35 -46.38,342.96 -108.73,484.37 -94.24,213.15 -298.79,376.33 -458.26,539.48 -30.5,31.16 -72.56,-2.18 -66.73,-39.19 42.74,-275.52 117.42,-912.17 438.67,-1060.83 -135.59,-53.61 -270.45,-108.73 -403.19,-164.61 -21.72,84.11 -110.24,129.12 -188.54,169.74 -168.89,85.53 -351.63,151.54 -527.86,219.64 -36.24,13.83 -68.85,-34.05 -49.29,-65.24z"/>
 </g>
</svg>
