<?xml version="1.0" encoding="UTF-8"?>
<!DOCTYPE svg PUBLIC "-//W3C//DTD SVG 1.1//EN" "http://www.w3.org/Graphics/SVG/1.1/DTD/svg11.dtd">
<!-- Creator: CorelDRAW 2021 (64-Bit) -->
<svg xmlns="http://www.w3.org/2000/svg" xml:space="preserve" width="22in" height="22in" version="1.1" style="shape-rendering:geometricPrecision; text-rendering:geometricPrecision; image-rendering:optimizeQuality; fill-rule:evenodd; clip-rule:evenodd"
viewBox="0 0 22000 22000"
 xmlns:xlink="http://www.w3.org/1999/xlink"
 xmlns:xodm="http://www.corel.com/coreldraw/odm/2003">
 <defs>
  <style type="text/css">
   <![CDATA[
    .fil0 {fill:none}
    .fil1 {fill:#2B2A29}
   ]]>
  </style>
 </defs>
 <g id="Layer_x0020_1">
  <metadata id="CorelCorpID_0Corel-Layer"/>
  <rect class="fil0" width="22000" height="22000"/>
  <path class="fil1" d="M20725.01 10904.5c-66.89,61.08 -145.11,111.23 -222.35,158.04 -64.94,39.42 -484.82,278.09 -530.2,109.71 170.5,-66.07 340.91,-135.37 491.99,-228.63 10.57,-6.5 3.46,-21.59 -8.16,-19.41 -178.26,33.98 -356.23,107.14 -528.61,187.19 -158.94,-120.82 391.93,-313.72 444.71,-329.43 96.89,-28.77 294.33,-131.16 391.72,-108.43 29.47,30.44 58.84,60.87 88.2,91.22 -34.44,54.19 -76.86,100.79 -127.3,139.74zm-19577.37 -214.89c29.43,-30.41 58.81,-60.85 88.22,-91.2 97.43,-22.73 294.87,79.67 391.74,108.43 52.78,15.69 603.63,208.61 444.73,329.35 -172.4,-79.96 -350.37,-153.2 -528.57,-187.11 -11.67,-2.19 -18.77,12.84 -8.2,19.41 151.06,93.23 321.45,162.49 491.96,228.56 -45.39,168.36 -465.28,-70.31 -530.19,-109.71 -77.2,-46.74 -155.47,-96.87 -222.4,-157.95 -50.38,-38.98 -92.78,-85.55 -127.3,-139.78zm1564.13 837.67c-44.18,17.44 -88.37,34.35 -132.7,49.46 -142.22,48.76 -297.12,77.76 -433.9,137.02 -8.09,3.56 -4.93,15.65 2.33,17.83 157.29,46.89 334.1,-55.56 480.8,-108.58 39.51,-14.28 81.44,-27.78 123.94,-41.82 3.1,14.55 11.39,23.18 21.49,27.63 19.89,270.83 -401.33,309.57 -581.47,314.17 -67.7,1.67 -135.57,-0.09 -203.29,-1.37 -118.21,-2.18 -238.47,-32.23 -143.19,-164.14 73.18,-101.41 696.8,-332.3 865.98,-230.21zm1336.36 362.06c-11.41,36.15 -21.6,71.87 -31.44,105.09 -46.53,157.74 -84.91,325.28 -73.13,490.41 0.98,13.51 20.63,17.36 24.31,3.25 41.87,-157.95 61.94,-319.84 111.92,-476.21 11.54,-36.09 26.02,-71.57 41.31,-106.84 206.58,127.84 85.98,432.49 10.51,605.7 -31.8,73.01 -140.89,387.87 -256.56,346.19 -37.05,-13.29 -90.06,-197.89 -100.77,-234.45 -24.72,-84.48 -31.59,-168.74 -25.87,-255.72 12.2,-185.91 85.5,-447.54 299.73,-477.41zm2094.23 -334.04c-4.34,12.97 -8.82,26.35 -13.16,39.04 -47.41,138.39 -92.01,280.19 -102.52,426.73 -1.41,19.71 25.02,19.11 31.29,4.18 56.01,-133.43 89.63,-275.82 134.24,-413.55 6.85,-21.15 14.49,-42.35 22.39,-63.57 14.4,-2.57 25.43,-9.44 32.62,-19.5 230.21,188.17 -12.35,628.88 -116.03,807.53 -55.71,95.97 -244.61,467.83 -377.85,294.46 -67.19,-87.37 -22.28,-439.21 -10.49,-542.65 27.59,-241.61 143.53,-495.3 399.51,-532.67zm2330.5 -689.22c-18.04,28.47 -35.87,57.08 -52.03,87.73 -65.83,125.72 -145.73,259.66 -121.19,404.71 1.35,8.15 12.52,9.97 17.74,4.77 103.14,-103.67 133.04,-256.79 198.81,-385.17 19.63,-38.29 39.32,-76.56 59.33,-114.76 293.2,268.18 122.7,555.64 -65.3,831.31 -120.65,176.98 -322.63,590.15 -546.82,652.9 -459.37,128.57 -163,-761.09 -119.98,-883.49 112.8,-320.59 282.78,-569.83 629.44,-598zm-331.11 -652.51c-53.89,-54.52 -109.24,-106.91 -161.85,-157.57 -119.37,-114.93 -282.95,-314.65 -450.21,-349.06 -15.41,-3.19 -27.14,11.92 -19.99,26.05 45.65,90.36 137.51,140.51 213.69,205.89 81.85,70.14 161.25,143.08 238.15,218.65 41.78,41.01 82.59,83.07 122.77,125.57 -346.98,102.99 -592.63,-48.69 -827.93,-321.79 -148.86,-172.76 -423.61,-511.64 -406.78,-755.74 24.96,-362.74 561.19,42.66 699.15,141.58 145.2,104.1 916.71,610 604.12,853.35 -5.2,3.98 -8.46,8.52 -11.11,13.06zm-1549.06 547.1c-56.12,-53.14 -119.04,-101.56 -166.58,-147.3 -121.82,-117.2 -238.34,-245.56 -376.41,-343.71 -26.45,-18.88 -66.43,19.41 -45.97,46 98.6,127.67 223.23,233.76 339.3,345.42 53.98,52.03 107.76,104.28 162.06,156.01 -276.46,151.89 -600.5,-70.37 -773.99,-286.78 -122.21,-152.52 -343.43,-444.88 -335.17,-643.97 13.29,-320.08 579.42,40.39 713.36,136.21 153.29,109.63 734.04,511.47 483.41,738.12zm-1418.14 461.26c-51.92,-41.76 -103.61,-83.88 -155.85,-125.19 -139.78,-110.7 -279.97,-246.58 -442.33,-322.54 -20.61,-9.67 -37.5,13.35 -23.59,30.59 116.8,144.81 293.13,255.81 440.11,369.28 43.66,33.58 87.58,66.97 131.37,100.43 -255.79,75.36 -501.36,-129.72 -667.9,-304.07 -98.69,-103.29 -332.39,-368.45 -330.24,-522.64 5.2,-373.82 538.78,82.38 635.96,160.01 150.29,119.96 550.65,369.5 412.48,614.13zm-1760.26 -29.81c-62.73,-63.35 -125.98,-126.17 -182.22,-191.64 -125.27,-145.71 -234.19,-302.91 -356.56,-450.44 -23.48,-28.25 -68.64,8.6 -50.02,38.65 111.23,179.61 260.54,349.66 403.55,504.98 31.4,34.12 66.65,76.11 104.21,119.45 -118.34,18.49 -198.75,-8.09 -291.21,-130.26 -46.17,-61 -92.31,-121.55 -139.29,-181.88 -91.58,-117.65 -379.67,-447.6 -312.2,-608.19 81.27,-193.22 374.76,165.57 458.79,245.69 98.18,93.62 576.9,481.95 364.94,653.65zm-1916.51 -134.86c133.49,82.15 536.96,319.39 623.17,75.89 78.89,30.35 157.1,60.93 232.56,93.47 10.32,4.45 20.06,1.97 27.35,-3.56 191.19,75.66 385.34,145.82 582.2,206.52 -49.48,17.35 -98.65,36.68 -147.77,56.33 -5.89,-7.04 -13.19,-12.78 -21.49,-14.87 -47.3,-12.33 -81.8,-59.14 -130.83,-69.78 -71.08,-15.47 -143.21,4.9 -212.66,19.09 -178.22,36.32 -369.35,80.2 -533.36,161.15 -122.21,60.25 -376.28,280.87 -186.7,411.79 104.19,71.89 309.06,38.14 426.78,36.32 157.42,-2.27 323.8,-13.29 467.72,-83.88 104.53,-51.34 213.81,-138.26 236.46,-259.81 8.18,-43.96 9.44,-100.51 -14.17,-138.03 68.83,-25.51 135.65,-55.35 193.83,-95.07 361.96,106.7 732.62,180.24 1110.19,195.71 3.34,0.15 6.7,0.17 10.06,0.24 -35.57,46.06 -62.67,101.71 -84.8,159.62 -253,-92.89 -370.33,292.04 -390.28,482.4 -16.35,156.05 -8.73,637.94 190.21,711.48 181.05,66.97 369.46,-506.95 407.06,-625.93 43.43,-137.51 106.24,-561.91 -132.1,-539.93 26.8,-61.17 51.69,-122.64 64.36,-186.36 694.93,15.71 1372.8,-173.36 2020.91,-409.46 16.95,-6.21 33.69,-12.54 50.57,-18.73 -43.64,65.75 -76.69,140.89 -104.47,218.05 -321.43,12.61 -500.93,280.21 -545.22,581.99 -25.54,174.35 -97.53,699.19 125.19,790.33 252.6,103.29 502.67,-508.24 566.39,-665.2 94.02,-231.49 195.58,-549.31 -79.28,-689.96 32.6,-82.83 64.59,-166.26 79.79,-250.91 736.37,-274 1401.93,-582.52 2206.66,-599.58 47.2,-0.92 93.85,-0.75 140.36,-0.15 -55.26,59.74 -106.54,121.03 -153.35,185.73 -455.52,17.06 -656.92,351.27 -779.99,759.74 -49.2,163.24 -265.85,892.85 82.51,940.04 343.07,46.42 766.95,-733.01 901.79,-952.94 141.73,-231.13 198.28,-643.24 -131.67,-713.38 39.4,-74.37 81.01,-147.31 126.38,-218.05 765.93,20.67 1418.89,279.97 1860.6,962.47 9.89,15.32 32.83,1.95 24.46,-14.28 -449.1,-869.07 -1345.5,-1136.88 -2244.46,-1075.8 -45.82,-71.59 -101.41,-139.52 -161.51,-204.16 6.12,-1.67 12.16,-4.54 17.89,-8.99 373.31,-288.66 -268.33,-746.28 -468.04,-901.15 -165.44,-128.29 -736.94,-611.59 -957.78,-392.17 -230.98,229.67 187.32,813.18 322.71,985.56 246.2,313.64 630.79,646.32 1020.13,379.94 16.16,17.5 32.56,34.71 48.56,52.39 26.5,29.28 51.18,64.02 77.31,96.95 -388.38,36.83 -774.17,132.96 -1121.43,267.13 -142.44,55.11 -284.98,111.44 -427.89,167.31 -11.19,-30.11 -28.33,-58.81 -49.61,-86.21 283.22,-255.96 -136.38,-616.04 -340.33,-783.61 -186.46,-153.2 -716.15,-573.54 -982.07,-373.05 -242.48,182.72 209.34,802.01 334.87,951.81 211.97,253.09 575.72,426.52 862.2,216.86 1.24,1.13 2.46,2.33 3.7,3.46 34.03,31.85 62.2,68.34 93.4,101.02 -415.49,161.72 -834.84,316.89 -1265.79,425.08 -50.62,-40.77 -101.41,-81.31 -152,-122.08 191.65,-238.06 -204.25,-545.97 -365.24,-682.5 -141.56,-119.96 -581.02,-546.03 -784.87,-345.06 -182.27,179.55 172.31,619.15 283.59,746.75 194.98,223.49 506.93,475 813.39,329.59 40.82,31.25 81.55,62.52 122.36,93.61 -199.15,46.98 -400.85,83.67 -605.94,105.5 -353.24,37.43 -697.59,12.76 -1037.4,-44.26 2.55,-1.73 4.65,-4.37 5.87,-7.32 1.78,-4.39 3.57,-8.75 5.35,-13.06 1.93,-4.6 -1.48,-9.35 -4.86,-11.92 -3.06,-2.35 -6.1,-4.69 -9.14,-7.04 -6.98,-5.35 -17.17,5.14 -12.11,12.16 -52.63,-72.77 -116,-140.57 -181.3,-207.24 210.99,-72.49 43.92,-353.6 -59.76,-473.58 -203.37,-235.41 -487.17,-560.01 -790,-660.19 -18.88,-6.27 -37.41,4.67 -48.05,19.54 -179.53,251.96 164.33,684.08 306.72,872.08 133.11,175.7 305.66,446.92 527.41,285.8 73.67,80.48 154.89,155.69 238.54,187.1 -477.37,-82.08 -945.94,-227.13 -1417,-357.06 -22,-10.57 -44.17,-21 -66.37,-31.57 41.63,-26.97 59.78,-75.06 45.8,-135.31 -25.85,-111.51 -167.01,-169.04 -258.89,-209.07 -173.02,-75.36 -361.97,-121.57 -543.78,-170.26 -75.15,-20.24 -244.23,-84.86 -317.88,-25.75 -188.43,151.47 344.99,475.44 434.26,530.26zm18656.41 775.45c95.29,131.91 -25,161.96 -143.16,164.14 -67.72,1.2 -135.59,3.02 -203.33,1.29 -180.06,-4.45 -601.31,-43.34 -581.45,-314.17 10.13,-4.39 18.41,-13.06 21.51,-27.63 42.5,14.04 84.41,27.63 123.99,41.91 146.63,53.08 323.46,155.38 480.73,108.57 7.26,-2.2 10.43,-14.36 2.33,-17.83 -136.81,-59.27 -291.66,-88.33 -433.84,-137.04 -44.33,-15.18 -88.56,-32.08 -132.74,-49.53 169.21,-102.09 792.81,128.89 865.96,230.3zm-1902.63 609.24c5.74,86.92 -1.13,171.33 -25.83,255.74 -10.72,36.53 -63.72,221.07 -100.81,234.44 -115.57,41.59 -224.69,-273.19 -256.56,-346.28 -75.43,-173.13 -196.01,-477.8 10.48,-605.7 15.35,35.42 29.84,70.84 41.39,106.93 49.91,156.28 70.06,318.24 111.9,476.19 3.7,14.04 23.33,10.28 24.31,-3.31 11.77,-165.04 -26.58,-332.6 -73.18,-490.32 -9.8,-33.24 -19.99,-68.94 -31.4,-105.17 214.29,29.96 287.53,291.59 299.69,477.48zm-1994.45 -278.75c11.83,103.44 56.7,455.28 -10.43,542.65 -133.28,173.36 -322.2,-198.51 -377.91,-294.46 -103.59,-178.59 -346.19,-619.38 -115.98,-807.54 7.19,10.04 18.19,16.85 32.62,19.48 7.85,21.15 15.56,42.44 22.35,63.59 44.65,137.64 78.22,280.04 134.26,413.52 6.27,14.96 32.68,15.56 31.33,-4.22 -10.49,-146.48 -55.11,-288.28 -102.54,-426.69 -4.37,-12.61 -8.84,-26.11 -13.2,-39.04 256.04,37.3 372,291.08 399.51,532.7zm-2100.55 -623.9c43.04,122.32 339.39,1012 -119.98,883.41 -224.17,-62.67 -426.15,-475.91 -546.8,-652.81 -188,-275.69 -358.5,-563.13 -65.32,-831.31 20.01,38.2 39.72,76.56 59.35,114.76 65.77,128.35 95.67,281.49 198.81,385.08 5.2,5.2 16.37,3.46 17.74,-4.69 24.53,-145.05 -55.35,-279.07 -121.19,-404.71 -16.16,-30.73 -34.05,-59.26 -52.03,-87.81 346.64,28.17 516.6,277.4 629.42,598.08zm-309.42 -1263.59c-312.59,-243.41 458.92,-749.3 604.1,-853.35 137.96,-98.97 674.19,-504.3 699.19,-141.65 16.76,244.19 -257.93,583.06 -406.74,755.8 -235.35,273.04 -480.96,424.87 -827.99,321.73 40.24,-42.44 81.01,-84.48 122.77,-125.55 76.88,-75.59 156.3,-148.54 238.15,-218.59 76.17,-65.32 168.07,-115.54 213.75,-205.98 7.1,-14.13 -4.6,-29.15 -20.01,-25.98 -167.31,34.44 -330.87,234.15 -450.23,349.15 -52.63,50.51 -107.98,102.99 -161.89,157.42 -2.63,-4.45 -5.89,-8.99 -11.09,-12.99zm2043.62 -178.03c133.94,-95.76 700,-456.29 713.27,-136.21 8.33,199.09 -212.91,491.45 -335.15,643.97 -173.52,216.41 -497.51,438.69 -774.02,286.84 54.3,-51.73 108.13,-104.04 162.13,-156.07 116.05,-111.59 240.7,-217.76 339.3,-345.43 20.48,-26.52 -19.54,-64.78 -46.06,-45.99 -138,98.15 -254.52,226.53 -376.39,343.71 -47.47,45.74 -110.46,94.22 -166.56,147.44 -250.59,-226.74 330.12,-628.56 483.47,-738.27zm1347.14 585.22c97.19,-77.54 630.77,-533.72 635.99,-159.99 2.12,154.25 -231.58,419.43 -330.27,522.72 -166.56,174.26 -412.11,379.35 -667.92,304.05 43.79,-33.52 87.75,-66.82 131.46,-100.49 146.95,-113.41 323.25,-224.41 440.04,-369.22 13.89,-17.3 -2.93,-40.24 -23.56,-30.59 -162.41,75.96 -302.53,211.87 -442.29,322.56 -52.33,41.31 -103.98,83.37 -155.92,125.12 -138.09,-244.57 262.14,-494.11 412.48,-614.18zm1712.75 -69.3c84.05,-80.11 377.53,-438.83 458.77,-245.62 67.51,160.61 -220.62,490.49 -312.2,608.12 -46.96,60.31 -93.1,120.97 -139.24,181.88 -92.48,122.17 -172.89,148.84 -291.21,130.26 37.52,-43.28 72.79,-85.33 104.19,-119.39 143.01,-155.39 292.28,-325.35 403.57,-505.04 18.66,-30.05 -26.58,-66.89 -50.06,-38.59 -122.38,147.53 -231.26,304.76 -356.53,450.4 -56.24,65.52 -119.51,128.35 -182.18,191.71 -212.02,-171.7 266.74,-560.09 364.9,-653.73zm1985.87 -11.41c-73.71,-59.2 -242.75,5.52 -317.9,25.69 -181.82,48.78 -370.79,94.9 -543.85,170.35 -91.82,40 -233.01,97.53 -258.83,208.98 -13.98,60.33 4.15,108.43 45.83,135.31 -22.28,10.57 -44.39,21 -66.46,31.63 -470.99,129.87 -939.57,275.07 -1416.98,357.06 83.67,-31.4 164.89,-106.69 238.52,-187.1 221.76,161.06 394.37,-110.07 527.48,-285.86 142.33,-187.85 486.25,-620.11 306.7,-872.08 -10.57,-14.79 -29.15,-25.81 -48.03,-19.54 -302.85,100.25 -586.68,424.87 -790,660.22 -103.66,120.05 -270.77,401.07 -59.8,473.56 -65.32,66.67 -128.65,134.47 -181.28,207.26 5.05,-6.95 -5.14,-17.38 -12.09,-12.09 -3,2.33 -6.1,4.6 -9.12,7.02 -3.4,2.57 -6.81,7.26 -4.92,11.94 1.76,4.3 3.55,8.67 5.37,12.97 1.2,3.04 3.32,5.59 5.89,7.34 -339.83,57.06 -684.23,81.76 -1037.35,44.24 -205.15,-21.74 -406.83,-58.45 -606,-105.41 40.86,-31.18 81.54,-62.43 122.32,-93.61 306.55,145.41 618.46,-106.09 813.42,-329.67 111.36,-127.61 465.85,-567.11 283.59,-746.73 -203.78,-200.93 -643.31,225.14 -784.8,345.12 -161.04,136.44 -556.93,444.43 -365.29,682.5 -50.59,40.78 -101.41,81.25 -152,122.02 -430.97,-108.13 -850.34,-263.3 -1265.83,-425.02 31.27,-32.79 59.41,-69.24 93.49,-101.02 1.2,-1.16 2.39,-2.42 3.68,-3.56 286.48,209.75 650.18,36.24 862.19,-216.7 125.51,-149.89 577.39,-769.16 334.87,-951.96 -265.93,-200.39 -795.59,219.94 -982.09,373.07 -203.93,167.61 -623.59,527.63 -340.31,783.65 -21.27,27.42 -38.42,56.12 -49.67,86.17 -142.85,-55.88 -285.41,-112.13 -427.89,-167.24 -347.24,-134.26 -733.01,-230.38 -1121.39,-267.22 26.11,-32.85 50.81,-67.65 77.31,-96.87 16.01,-17.68 32.39,-34.97 48.54,-52.42 389.38,266.32 773.93,-66.37 1020.15,-379.92 135.39,-172.4 553.67,-755.97 322.71,-985.5 -220.85,-219.57 -792.36,263.75 -957.78,392.02 -199.71,154.94 -841.35,612.51 -468.06,901.24 5.76,4.45 11.8,7.24 17.89,8.99 -60.08,64.62 -115.66,132.57 -161.48,204.17 -898.97,-61.17 -1795.37,206.73 -2244.4,1075.78 -8.37,16.16 14.51,29.54 24.4,14.21 441.69,-682.43 1094.65,-941.7 1860.67,-962.38 45.31,70.65 86.9,143.76 126.39,217.97 -330.01,70.14 -273.47,482.4 -131.76,713.44 134.86,219.96 558.74,999.3 901.83,952.88 348.31,-47.2 131.69,-776.71 82.53,-940.04 -123.07,-408.5 -324.51,-742.66 -779.96,-759.65 -46.89,-64.79 -98.15,-126.02 -153.42,-185.74 46.51,-0.69 93.17,-0.83 140.36,0.15 804.81,16.97 1470.3,325.5 2206.62,599.58 15.26,84.56 47.19,168.07 79.81,250.91 -274.83,140.66 -173.28,458.39 -79.28,689.94 63.72,156.91 313.79,768.5 566.43,665.14 222.74,-91.07 150.72,-615.89 125.12,-790.33 -44.24,-301.72 -223.72,-569.38 -545.15,-581.9 -27.78,-77.18 -60.85,-152.37 -104.49,-218.06 16.91,6.19 33.58,12.52 50.57,18.73 648.06,236.01 1325.95,425.15 2020.89,409.37 12.69,63.8 37.61,125.27 64.4,186.35 -238.37,-21.92 -175.55,402.5 -132.12,539.93 37.61,118.98 226.06,692.9 407.04,626.02 198.96,-73.56 206.58,-555.43 190.19,-711.56 -19.93,-190.27 -137.26,-575.2 -390.28,-482.34 -22.11,-57.98 -49.22,-113.48 -84.78,-159.6 3.4,-0.17 6.72,-0.09 10.04,-0.24 377.61,-15.56 748.33,-89.1 1110.3,-195.71 58.15,39.72 124.89,69.54 193.74,95.07 -23.63,37.43 -22.26,94.07 -14.19,137.94 22.67,121.63 131.97,208.46 236.48,259.81 143.91,70.67 310.32,81.61 467.76,83.96 117.71,1.8 322.54,35.55 426.75,-36.32 189.59,-130.92 -64.49,-351.54 -186.74,-411.81 -163.99,-81.01 -355.1,-124.89 -533.36,-161.19 -69.39,-14.21 -141.56,-34.52 -212.62,-19.03 -48.99,10.7 -83.51,57.38 -130.86,69.69 -8.3,2.19 -15.54,7.92 -21.51,14.88 -49.08,-19.65 -98.24,-38.89 -147.68,-56.25 196.84,-60.78 391.03,-130.86 582.2,-206.43 7.26,5.42 16.99,7.92 27.33,3.38 75.43,-32.53 153.65,-63.03 232.56,-93.46 86.23,243.5 489.72,6.33 623.15,-75.81 89.25,-54.9 622.68,-378.87 434.31,-530.28z"/>
 </g>
</svg>
