<?xml version="1.0" encoding="UTF-8"?>
<!DOCTYPE svg PUBLIC "-//W3C//DTD SVG 1.1//EN" "http://www.w3.org/Graphics/SVG/1.1/DTD/svg11.dtd">
<!-- Creator: CorelDRAW 2021 (64-Bit) -->
<svg xmlns="http://www.w3.org/2000/svg" xml:space="preserve" width="22in" height="22in" version="1.1" style="shape-rendering:geometricPrecision; text-rendering:geometricPrecision; image-rendering:optimizeQuality; fill-rule:evenodd; clip-rule:evenodd"
viewBox="0 0 22000 22000"
 xmlns:xlink="http://www.w3.org/1999/xlink"
 xmlns:xodm="http://www.corel.com/coreldraw/odm/2003">
 <defs>
  <style type="text/css">
   <![CDATA[
    .fil0 {fill:none}
    .fil1 {fill:#2B2A29}
   ]]>
  </style>
 </defs>
 <g id="Layer_x0020_1">
  <metadata id="CorelCorpID_0Corel-Layer"/>
  <rect class="fil0" width="22000" height="22000"/>
  <path class="fil1" d="M19811.68 9197.53c21.73,-335.96 213.44,-624.13 422.51,-879.12 154.33,280.99 289.83,577.25 232.26,906.06 -41.6,237.01 -170.58,438.8 -311.17,630.01 79.2,-308.95 91.61,-667.3 46.57,-939.7 -6.23,-38.2 -57.8,-23.52 -61.77,8.26 -29.45,239.17 -29.25,478.07 -72.63,716.28 -15.55,86.39 -38.26,171.26 -60,256.19 -88.87,-226.08 -213.06,-432.29 -195.78,-697.98zm-679.15 2176.33c77.02,-178 149.17,-328 379.11,-438.12 3.91,-1.79 7.94,-3.19 11.8,-4.97 -119.11,161.72 -249.67,310.16 -390.9,443.09zm664.02 1260.31c-71.73,-246.93 -180.77,-487.11 -291.88,-718.67 -33.8,-70.41 -67.09,-157 -107.34,-239 634.26,226.5 637.27,1086.69 540.72,1689.53 -381.95,-536.22 -636.49,-1030.62 -696.86,-1694.16 181.56,320.51 321.61,661.22 475.32,996.09 20.91,45.43 93.55,13.14 80.03,-33.79zm-2466.53 -421.67c-51.62,-64.8 -103.61,-129.42 -145.43,-202.79 -116.94,-204.78 -142.33,-438.58 -247.59,-642.25 -26.23,-50.99 -90.82,-19.42 -96.89,26.37 -24.89,189.86 76.03,403.61 158.88,571 45.61,92.09 99.3,179.49 159,263.02 -533.99,-191.89 -584.65,-897.11 -493.31,-1413.6 427.25,355.46 846.39,789 823.33,1375.41 -52.34,8.93 -105.15,16.33 -158,22.84zm-413.42 320.48c49.58,0.13 98.85,-0.85 148.17,-2.82 17.5,15.55 34.66,31.44 51.86,47.32 -65.94,-11.35 -132.73,-26.15 -200.03,-44.5zm-1303.43 -549.09c211.06,7.73 422.63,10.93 630.71,66.76 150.12,40.13 284.11,101.52 409.68,174.67 -344.74,-27.52 -694.67,-107.04 -1040.39,-241.43zm-1227.57 512.25c-91.26,268 -243.43,525.32 -395.5,769.27 -84.89,-316.55 -151.03,-650.63 -137.14,-975.45 13.6,-314.72 190.35,-500.91 326.48,-732.28 15.72,8.59 31.12,17.32 46.66,25.93 3.26,3.75 6.41,7.37 9.81,11.04 -145.46,348.61 -282.01,795.83 -183.24,1161.69 6.5,24.55 43.47,24.92 50.07,0 51.57,-196.22 47.23,-403.83 83.42,-603.65 30.15,-167.05 75.03,-328.9 128.76,-489.09 21.35,16.43 43.47,32.52 66.08,48.33 80.56,262.11 102.07,498.15 4.58,784.21zm-1418.14 -1797.3c116.49,13.59 232,37.3 346.52,82.42 116.9,46.12 215.83,113.75 306.28,191.67 -214.46,-102.63 -431.17,-195.07 -652.81,-274.08zm-1217.41 274.94c-1103.52,-203.59 -396.35,-203.8 -1500,0.02 -493.83,91.23 -969.05,110.44 -1442.93,83.07 386.87,-164.76 790.17,-287.09 1226.88,-322.71 24.17,-1.99 1907.8,-1.97 1931.94,0 436.87,35.61 840.2,158.01 1227,322.71 -473.83,27.33 -949.3,8.19 -1442.9,-83.09zm-3370.29 -0.85c90.53,-77.92 189.35,-145.53 306.09,-191.67 114.56,-45.13 230.28,-68.83 346.68,-82.41 -221.64,78.97 -438.48,171.46 -652.77,274.07zm1395.57 -1178.61c100.16,-328.34 292.31,-616.95 550.18,-840.04 94.62,286.39 143.43,591.92 65,888.94 -70.96,268.65 -222.13,432.38 -417.41,574.93 179.63,-283.24 316.45,-629.23 230.37,-928.57 -6.81,-23.96 -36.53,-20.17 -44.79,0 -71.77,174.76 -83.74,364.23 -143.99,543.94 -56.48,168.25 -135.4,323.4 -233.91,468.16 -24.47,4.05 -49.31,7.07 -73.47,11.57 41.52,-227.19 -1.78,-490.2 68.01,-718.94zm1834.13 48.91c-78.43,-297.04 -29.46,-602.53 65.09,-888.94 257.92,223.07 449.84,511.7 550.01,840.06 69.87,228.71 26.7,491.75 68.18,718.93 -24.19,-4.53 -49.2,-7.51 -73.47,-11.57 -98.47,-144.78 -177.55,-299.9 -234.03,-468.16 -60.21,-179.76 -72.14,-369.17 -143.87,-543.94 -8.23,-20.19 -38.06,-23.93 -44.93,0 -85.99,299.33 50.77,645.34 230.39,928.57 -195.22,-142.55 -346.44,-306.27 -417.38,-574.93zm-3462.55 2446.73c14.04,324.82 -51.99,658.93 -137.19,975.46 -151.89,-243.95 -304.06,-501.25 -395.41,-769.24 -97.38,-286.11 -75.8,-522.09 4.63,-784.24 22.56,-15.83 44.7,-31.9 66.22,-48.33 53.52,160.18 98.41,322.05 128.72,489.09 36.21,199.8 31.9,407.46 83.42,603.65 6.41,24.92 43.38,24.62 50.09,0 98.57,-365.89 -37.84,-813.04 -183.37,-1161.69 3.44,-3.68 6.5,-7.3 9.93,-11.04 15.45,-8.61 31,-17.32 46.46,-25.93 136.27,231.35 312.87,417.62 326.5,732.27zm-2800.48 -64.68c125.45,-73.12 259.58,-134.46 409.52,-174.62 208.28,-55.83 419.72,-59.02 630.88,-66.74 -345.74,134.37 -695.52,213.93 -1040.4,241.37zm-504.48 2.57c59.75,-83.55 113.43,-170.91 159,-263.01 83.01,-167.42 183.81,-381.1 158.76,-571 -6.02,-45.8 -70.5,-77.35 -96.85,-26.37 -105.15,203.67 -130.53,437.48 -247.5,642.25 -41.74,73.35 -93.8,138.05 -145.31,202.79 -53.04,-6.52 -105.71,-13.89 -158.1,-22.84 -22.93,-586.42 396.07,-1019.92 823.3,-1375.41 91.39,516.49 40.59,1221.72 -493.31,1413.59zm41.32 349.62c17.43,-15.9 34.59,-31.76 52.03,-47.31 49.12,1.96 98.65,2.98 148.2,2.89 -67.39,18.26 -134.08,33.09 -200.23,44.42zm-2406.71 -1646.71c3.85,1.75 7.91,3.23 11.8,4.98 229.87,110.09 302.18,260.15 379.21,438.13 -141.33,-132.94 -271.88,-281.35 -391.01,-443.12zm-414.63 2435.26c-96.45,-602.86 -93.47,-1462.99 540.6,-1689.52 -40.24,81.97 -73.38,168.61 -107.15,239 -111.09,231.55 -220.08,471.76 -291.92,718.72 -13.55,46.86 59.13,79.21 80.09,33.74 153.53,-334.87 293.7,-675.58 475.19,-996.09 -60.32,663.51 -314.87,1157.95 -696.82,1694.15zm-69.51 -3470.51c-21.52,-84.96 -44.26,-169.8 -59.94,-256.19 -43.2,-238.21 -43.15,-477.09 -72.61,-716.28 -3.84,-31.81 -55.49,-46.45 -61.77,-8.26 -45.12,272.38 -32.56,630.76 46.44,939.7 -140.33,-191.24 -269.32,-393 -310.92,-630.01 -57.65,-328.82 78.01,-625.04 232.04,-906.06 209.33,254.98 400.83,543.16 422.7,879.13 17.22,265.66 -106.81,471.91 -195.94,697.96zm18780.66 -192.87c-195.03,0 -381.98,171.48 -372.95,372.83 4.44,99.74 44.58,191.54 109,259.19 -141.89,120.46 -326.15,200.12 -517.67,270.63 80.85,-167.5 147.96,-343.78 201.12,-527.06 220.48,-225.63 417.28,-522.08 471.79,-833.91 71.85,-412.44 -134.72,-799.14 -328.93,-1147.02 -29.04,-52.16 -112.74,-67.61 -153.91,-19.85 -557.21,645.66 -756.11,1341.43 -238.53,2080.65 2.48,3.42 5.41,5.41 8.15,8.3 -76.82,187.61 -166.6,363.41 -267.22,527.15 49.34,-354.27 -30.11,-759.97 -356.04,-852.98 -38.22,-10.93 -75.16,43.26 -41.16,70.84 193.89,157.06 273.2,314.66 289.4,570.3 5.66,88.92 7.72,182.06 1.21,274.2 -347.56,138.76 -632.07,326.23 -622.37,771.74 -395.39,320.51 -856.53,537.57 -1350.92,640.41 35.43,-664.55 -449.06,-1118.88 -935.95,-1522.27 -36.27,-30.02 -98.87,-23.28 -111.22,29.33 -117.36,498.93 -100.65,1133.02 245.28,1489.4 -527.05,-313.92 -977.56,-252.89 -1587.6,-359.8 -403.48,-200.61 -787.23,-416.96 -1169.11,-617.44 -17.5,-25.37 -34.96,-50.63 -53.29,-75.34 117.57,-24.54 234.25,-52.42 349.32,-86.28 62.05,112.96 180.52,203.13 312.7,188.34 5.86,-0.67 11.69,-1.32 17.54,-1.98 101.2,-11.25 181.72,-37.31 256.96,-106.49 84.58,-77.57 114.75,-195.62 99.99,-305.28 -28.87,-215.49 -240.53,-358.48 -453.58,-302.09 -5.73,1.39 -11.39,2.98 -17.23,4.51 -174.53,46.23 -282.88,222.55 -259.37,397.31 0.91,6.7 3.41,13.46 4.74,20.21 -138.02,24.14 -275.08,46.44 -411.52,65.65 -128.72,-148.76 -279.28,-274.63 -466.62,-349 -292.83,-116.09 -648.65,-144.21 -971.03,-88.48 -15.86,-3.76 -31.69,-7.6 -47.57,-11.04 112.65,-252.58 15.57,-656.25 -60.12,-884.41 -125.09,-377.25 -354.85,-679.89 -668.5,-920.19 -48.51,-37.18 -111.55,5.52 -128.67,52.3 -171.52,473.09 -194.62,1259.56 184.37,1666.02 -176.04,-6.52 -357.26,-2.09 -545.6,18.1 -63.71,6.72 -125.98,16.67 -187.98,26.72 -62.07,-10.08 -124.24,-19.99 -187.92,-26.72 -188.35,-20.22 -369.61,-24.61 -545.7,-18.1 379.02,-406.46 356.05,-1192.91 184.25,-1666.02 -16.82,-46.81 -79.88,-89.47 -128.54,-52.3 -313.75,240.3 -543.39,542.95 -668.5,920.19 -75.65,228.15 -172.79,631.86 -60.01,884.41 -16,3.4 -31.77,7.3 -47.67,11.04 -322.34,-55.72 -678.23,-27.58 -971.15,88.48 -187.2,74.34 -337.63,200.26 -466.48,349 -136.45,-19.23 -273.63,-41.5 -411.55,-65.65 1.32,-6.76 3.75,-13.48 4.75,-20.21 23.48,-174.78 -84.75,-351.06 -259.4,-397.31 -5.73,-1.53 -11.6,-3.07 -17.32,-4.51 -212.76,-56.39 -424.57,86.61 -453.58,302.09 -14.65,109.63 15.57,227.72 99.95,305.28 75.53,69.16 155.81,95.24 256.98,106.49 5.99,0.65 11.79,1.32 17.77,1.98 132.26,14.78 250.55,-75.38 312.57,-188.34 115.11,33.86 231.81,61.79 349.41,86.28 -18.37,24.71 -35.96,49.99 -53.51,75.34 -381.7,200.48 -765.38,416.84 -1168.95,617.44 -610,106.89 -1060.54,45.89 -1587.61,359.8 345.96,-356.39 362.67,-990.46 245.3,-1489.4 -12.33,-52.63 -74.81,-59.35 -111.12,-29.33 -486.84,403.35 -971.48,857.73 -936.17,1522.27 -494.27,-102.83 -955.39,-319.85 -1350.83,-640.41 9.72,-445.51 -274.59,-632.94 -622.38,-771.74 -6.49,-92.17 -4.41,-185.25 1.22,-274.2 16.24,-255.66 95.54,-413.17 289.39,-570.3 34.16,-27.6 -2.84,-81.76 -41.26,-70.84 -325.87,93.01 -405.26,498.71 -355.81,852.98 -100.7,-163.76 -190.57,-339.46 -267.22,-527.15 2.56,-2.89 5.59,-4.85 7.94,-8.3 517.69,-739.24 318.95,-1434.98 -238.31,-2080.65 -41.14,-47.76 -124.93,-32.31 -154.04,19.85 -194.06,347.86 -400.73,734.61 -328.79,1147.02 54.39,311.79 251.23,608.28 471.65,833.91 53.34,183.26 120.39,359.57 201.26,527.06 -191.61,-70.5 -375.89,-150.16 -517.8,-270.63 64.33,-67.67 104.49,-159.45 109.12,-259.19 8.96,-201.39 -177.96,-372.8 -373.01,-372.8 -209.08,-0.03 -363.9,170.8 -372.94,372.8 -8.91,201.41 177.87,372.93 372.94,372.93 34.64,-0.01 66.95,-6.07 98.17,-14.8 89.4,101.7 210.3,181.06 348.35,242.07 142.23,62.88 294.03,97.86 444.52,136.36 146.67,256.93 325.05,491.21 529.15,698.64 -312.65,56.91 -552.2,328.35 -700.95,606.05 -228.46,426.64 -113.84,1035.6 -16.66,1486.08 17.12,79.63 117.97,75.48 158.22,20.74 392.7,-533.91 843.93,-1157.61 858.63,-1842.22 461.3,369.9 1016.83,619.28 1614.17,711.74 5.41,4.08 11.78,7.28 19.07,8.51 8.54,1.3 17.11,2.65 25.61,4.09 9.39,1.53 19.08,0.75 27.91,-2 39.01,5.19 78.34,9.39 117.63,13.14 -29.5,29.12 -60.02,57.61 -89.04,87.17 -200.04,13.44 -400.96,0 -614.88,-34.3 -97.41,-15.82 -186.81,-27.93 -269.44,-28.25 -32.2,-181.74 -190.21,-319.98 -381.22,-319.98 -214.24,-0.03 -388.04,173.67 -388.04,387.93 0.03,214.36 173.78,388.04 388.04,388.04 197.85,-0.02 359.14,-148.5 383.09,-339.61 244.19,-18.67 499.69,53.63 752.45,79.67 -61.87,63.43 -124.22,126.2 -190.08,186.69 -261.59,240.16 -603.87,362.2 -949.75,446.17 -65.41,-148.76 -223.87,-256.3 -387.5,-256.3 -234.65,0 -408.46,191.74 -418.59,418.5 -10.12,226.14 199.7,418.71 418.59,418.71 234.83,-0.05 408.56,-191.87 418.72,-418.71 0.79,-18.35 -2.1,-35.98 -3.97,-53.87 433.08,-55.49 844.29,-291.71 1148.78,-594.92 46.25,-46.09 92.36,-92.11 138.57,-137.68 39.37,-0.46 78.58,-2.22 117.51,-7.06 291.3,-36.11 619.19,-127.77 896.45,-267.01 542.76,-104.86 1038.13,-335.09 1522.7,-595.04 -38.68,62.65 -73.37,127.88 -105.58,194.39 -122.11,253.44 -236,518.15 -331.43,786.02 -31.06,-8.6 -63.46,-13.78 -95.98,-15.22 -150.33,-6.73 -290.43,100.08 -346.56,233.04 -58.92,139.78 -29.59,305.27 78.34,414.18 3.48,3.3 6.73,6.63 10.04,10.16 138.7,139.66 377.87,139.46 516.24,0 3.31,-3.54 6.62,-6.85 10.04,-10.16 118.37,-119.38 144.43,-313.81 59.25,-459.4 -34.2,-58.41 -83.18,-103.93 -140.13,-135.61 152.23,-339.29 278.17,-700.3 498.28,-994 -100.02,529.5 324.27,1164 578.26,1573.34 32.14,51.77 111.53,42.16 128.85,-16.76 118.89,-402.84 246.82,-880.57 185.37,-1305.22 -31.4,-216.51 -133.81,-514.04 -316.1,-678.12 179.09,-98.57 359.13,-194.41 542.16,-283.02 342.74,35.4 689.15,39.86 1030.53,19.99 491.59,-28.59 972.48,-173.79 1455.29,-227.18 482.83,53.37 963.75,198.59 1455.2,227.18 341.64,19.81 688,15.45 1030.6,-19.99 182.92,88.61 363.12,184.5 542.06,283.02 -182.11,164.01 -284.54,461.63 -315.87,678.12 -61.65,424.64 66.31,902.39 185.24,1305.22 17.37,58.92 96.89,68.52 128.85,16.76 254.03,-409.36 678.47,-1043.84 578.37,-1573.34 220.03,293.7 346.01,654.72 498.16,994 -56.91,31.65 -105.93,77.24 -140.02,135.61 -85.39,145.58 -59.14,340.02 59.26,459.4 3.32,3.3 6.73,6.63 10.04,10.16 138.42,139.45 377.43,139.69 516.14,0 3.35,-3.54 6.59,-6.85 9.91,-10.16 108.05,-108.91 137.36,-274.39 78.47,-414.18 -56.13,-132.98 -196.07,-239.77 -346.46,-233.04 -32.63,1.44 -64.87,6.64 -95.99,15.22 -95.65,-267.88 -209.3,-532.56 -331.55,-786.02 -32.07,-66.53 -66.97,-131.73 -105.46,-194.39 484.47,259.94 979.86,490.2 1522.45,595.04 277.33,139.22 605.41,230.91 896.59,267.01 39.1,4.84 78.22,6.63 117.63,7.06 46.24,45.56 92.23,91.59 138.58,137.68 304.44,303.19 715.71,539.44 1148.78,594.92 -2.08,17.83 -4.84,35.53 -3.97,53.87 10.05,226.81 183.93,418.71 418.59,418.71 218.92,-0.05 428.66,-192.54 418.62,-418.71 -10.16,-226.77 -183.94,-418.5 -418.62,-418.5 -163.66,0 -322.04,107.59 -387.47,256.3 -346.01,-83.99 -688.17,-205.98 -949.78,-446.17 -65.7,-60.52 -128.29,-123.26 -189.96,-186.69 252.81,-26.06 508.19,-98.33 752.23,-79.67 24.07,191.08 185.46,339.61 383.2,339.61 214.36,-0.02 387.93,-173.67 387.93,-388.04 0.04,-214.28 -173.67,-387.93 -387.93,-387.93 -191.06,-0.03 -348.87,138.26 -381.19,319.98 -82.5,0.3 -172.01,12.44 -269.43,28.25 -213.93,34.29 -414.76,47.74 -614.92,34.3 -29.05,-29.59 -59.35,-58.05 -89.13,-87.17 39.56,-3.77 78.65,-7.94 117.72,-13.14 8.86,2.74 18.54,3.54 27.9,2 8.55,-1.45 17,-2.74 25.62,-4.09 7.44,-1.24 13.56,-4.42 19.07,-8.51 597.36,-92.48 1152.78,-341.81 1614.19,-711.74 14.8,684.6 465.93,1308.32 858.6,1842.22 40.33,54.69 140.99,58.92 158.31,-20.74 97.26,-450.5 211.73,-1059.42 -16.77,-1486.08 -148.55,-277.71 -388.16,-549.14 -700.82,-606.05 204.03,-207.46 382.41,-441.64 529.02,-698.64 150.58,-38.5 302.31,-73.47 444.67,-136.36 138.04,-61.03 258.95,-140.33 348.08,-242.07 31.39,8.7 63.68,14.8 98.33,14.8 195.12,-0.01 381.97,-171.45 372.94,-372.93 -9.01,-202.04 -163.86,-372.8 -372.91,-372.83z"/>
 </g>
</svg>
