<?xml version="1.0" encoding="UTF-8"?>
<!DOCTYPE svg PUBLIC "-//W3C//DTD SVG 1.1//EN" "http://www.w3.org/Graphics/SVG/1.1/DTD/svg11.dtd">
<!-- Creator: CorelDRAW 2021 (64-Bit) -->
<svg xmlns="http://www.w3.org/2000/svg" xml:space="preserve" width="22in" height="22in" version="1.1" style="shape-rendering:geometricPrecision; text-rendering:geometricPrecision; image-rendering:optimizeQuality; fill-rule:evenodd; clip-rule:evenodd"
viewBox="0 0 22000 22000"
 xmlns:xlink="http://www.w3.org/1999/xlink"
 xmlns:xodm="http://www.corel.com/coreldraw/odm/2003">
 <defs>
  <style type="text/css">
   <![CDATA[
    .fil0 {fill:none}
    .fil1 {fill:#2B2A29}
   ]]>
  </style>
 </defs>
 <g id="Layer_x0020_1">
  <metadata id="CorelCorpID_0Corel-Layer"/>
  <rect class="fil0" width="22000" height="22000"/>
  <path class="fil1" d="M17142.87 13240.3c-7.11,6.7 -14.21,13.21 -20.93,19.93 -10.19,-11.26 -20.31,-22.43 -31.1,-33.45 16.91,4.98 34.42,9.2 52.03,13.52zm-12233.79 -13.52c-10.76,11.02 -20.91,22.19 -31.06,33.45 -6.78,-6.72 -13.83,-13.23 -20.89,-19.93 17.51,-4.32 35.06,-8.54 51.94,-13.52zm839.83 172.29c-5.22,13.68 -10.17,27.42 -14.49,41.46 -10.12,-4.24 -20.27,-8.45 -30.41,-12.99 15.05,-9.59 29.84,-19.03 44.91,-28.47zm1049.21 -4400.04c-28.89,-14.81 -59.35,-29.15 -90.72,-42.27 7.38,-6.81 14.44,-13.74 21.87,-20.46 24.89,20.44 47.62,41.44 68.85,62.73zm833.37 4347.64c-11.39,19.95 -23.09,40.09 -34.44,60.04 -9.54,-3.79 -18.77,-7.79 -28.31,-11.86 21.53,-15.92 42.42,-31.78 62.75,-48.18zm857.02 -4725.62c-15.11,-16.39 -31.04,-32.68 -47.35,-48.78 12.91,-2.48 25.81,-5.2 39.02,-7.7 1.61,19.11 4.3,37.91 8.33,56.48zm-2375.51 556.48c-41.52,-22.73 -84.89,-43.64 -130.37,-62.45 9.2,-8.76 18.43,-17.66 27.97,-26.41 35.36,29.07 69.8,58.67 102.39,88.87zm-933.9 191.41c-29.83,-15.94 -59.07,-31.42 -88.26,-47.13 10.44,-7.56 20.89,-15.17 31.37,-22.79 17.21,24.4 36.28,47.49 56.89,69.92zm-772.8 142.93c-19.97,-7.85 -40,-15.02 -60.27,-21.98l28.62 -20.85c8.92,15.5 19.69,29.54 31.65,42.83zm-674.09 244.63c-35.36,-6.95 -70.99,-13.06 -107.61,-18.13 5.24,-9.44 10.77,-18.64 16.01,-28.02 28.89,15.41 59.95,30.88 91.6,46.14zm-2229.11 1624.7c312.12,-67.72 607.65,-144.51 936.06,-157.27 0.6,0 1.22,0 1.84,-0.21 106.99,15.47 214.03,29.6 321.34,42.12 -76.28,11.85 -151.3,27.33 -218.63,51.94 -86.75,32.08 -154.68,74.37 -246.63,102 -74.12,22.13 -150.68,41.01 -226.64,59.35 -91.94,22.65 -474.48,47.73 -450.53,164.82 9.85,47.73 64.31,62.52 123.63,53.08 48,-7.32 82.44,-38.65 124.24,-55.26 87.04,-34.29 194.04,-54.06 286.61,-81.09 146.07,-42.89 295.53,-84.48 434.82,-138.48 79.96,-30.88 149.46,-73.75 233.07,-99.05 43.98,-13.38 81.8,-23.71 119.92,-37.84 88.91,9.14 177.8,17.53 266.64,24.7 -38.46,14.26 -75.04,32.92 -98.39,42.51 -135.31,54.43 -262.04,116.73 -381.33,187.7 -198.94,118.85 -438.2,226.5 -579.04,389.59 -6.17,7.17 -0.92,19.26 11.39,20.7 250.93,30.41 389.62,-124.44 561.48,-223.19 233.74,-134.86 464.36,-292.36 725.75,-399.66 43.06,2.87 86.13,5.37 129.47,7.79l0.3 0c-137.15,77.07 -238.64,187.77 -260.75,313.04 -40.92,-11.41 -86.43,-12.31 -128.57,-2.72 -31.38,7.23 -23.03,37.67 7.38,39.64 6.14,0.45 11.69,2.12 16.91,4.3 -0.3,1.97 -0.92,3.85 -1.22,5.82 -2.76,-0.24 -5.52,-0.69 -8,-0.92 -19.05,-2.93 -29.52,14.57 -13.23,22.43 9.85,4.69 19.69,8.3 29.84,11.26 3.1,3.47 6.48,6.87 10.46,9.95 27.35,20.46 65.81,20.7 99.95,11.49 21.19,5.12 45.82,2.27 65.81,-14.13 17.51,-14.36 25.79,-40.32 2.76,-53.76 -5.54,-3.17 -12.33,-4.69 -18.77,-5.13 -8.3,-5.59 -17.51,-10.57 -25.83,-14.34 50.43,-130.86 142.07,-244.25 296.73,-322.86 0.34,0 0.34,0 0.34,0 0.28,-0.24 0.28,0 0.28,0 67.66,3.62 135.61,6.72 203.59,9.44 -93.79,40.26 -180.19,90.24 -226.02,163.99 -14.13,22.88 -16.01,46.14 -28.59,68.28 -38.44,67.27 -90.08,93.85 -163.6,134.69 -84.89,47.05 -170.67,92.96 -256.15,139.31 -167.91,90.75 -344.42,213.54 -545.84,262.38 -122.68,29.52 -238.02,24.16 -304.46,116.5 -6.14,8.54 -1.5,21.98 13.25,23.71 343.8,43.7 764.77,-114.85 978.8,-305.57 122.68,-108.88 297.07,-174.95 417.29,-284.28 47.69,-43.28 83.67,-92.12 120.24,-140.74 25.21,-32.92 49.51,-66.22 79.32,-97.24 14.79,-14.96 71.06,-49.91 94.13,-75l0.3 0c92.57,2.87 184.81,5.14 277.36,6.51 33.54,0.67 66.76,0.9 100.28,1.13 -136.23,104.64 -222.06,234.51 -322.59,357.52 -50.15,61.68 -107.33,121.87 -181.43,169.57 -86.13,55.41 -190.68,64.34 -281.09,107.83 -66.09,31.78 -94.41,86.9 -126.08,136.81 -56.25,89.4 -121.78,144.75 -235.84,198.52 -109.8,51.77 -225.42,109.78 -183.28,216.23 4.63,11.64 19.99,16.76 35.66,14.57 382.54,-51.58 662.7,-292.81 907.46,-495.54 245.09,-203.24 478.81,-430.22 528.01,-704.84 222.01,0 443.1,-4.75 663.28,-13.42 -49.5,28.46 -83.6,65.83 -120.52,107.51 -69.2,77.93 -139.61,155.02 -215.55,229.91 -161.79,158.57 -339.2,308.44 -516.97,457.4 -167.26,140.3 -346.21,264.13 -568.57,357.99 -163.91,69.22 -412.99,99.5 -505.86,231.94 -6.16,8.46 -1.22,19.48 12.31,22.2 455.43,88.03 916.39,-243.35 1190.39,-467.59 168.81,-138.03 317.64,-288.13 460.33,-440.5 76.86,-82.23 153.14,-165.06 226.96,-248.64 69.47,-79.13 119.3,-184.83 205.38,-257.48 125.48,-6.06 250.95,-13.44 375.8,-21.68 -22.45,21.44 -49.53,41.46 -67.04,64.57 -21.83,29.06 -30.44,62.52 -43.69,93.85 -43.36,101.24 -103.63,195.92 -190.33,281.32 -63.35,62.52 -135.31,111.83 -181.73,182.12 -81.52,123.45 -135.01,197.68 -289.37,282.99 -89.8,49.55 -124.54,93.7 -188.52,159.77 -73.8,75.96 -186.01,138.03 -272.16,206.58 -100.85,80.33 -196.5,164.23 -290.29,248.87 -65.17,58.88 -162.94,120.95 -181.13,197.81 -3.96,16.63 18.77,33.6 41.52,23.33 447.75,-203.48 823.22,-478.55 1157.19,-774.3 321.64,-284.96 562.13,-608.94 638.37,-976.12 119.64,-8.69 238.64,-18.34 357.94,-28.92 -157.42,126.83 -209.11,252.49 -251.83,425.7 -49.53,202.34 -143.31,395.19 -276.78,576.25 -124.52,169.11 -273.06,328.37 -416.05,489.27 -144.51,162.85 -313.96,311.13 -460.35,472.49 -8.88,9.82 5.86,23.33 20.93,19.94 492.93,-113.35 765.71,-439.83 966.19,-765.09 240.78,-391.2 428.66,-805.86 531.09,-1228.7 99.61,-9.14 199.56,-18.79 299.21,-29.07l0.3 0c-57.81,46.36 -101.79,99.97 -136.23,157.5 -5.52,-0.47 -10.77,-1.58 -17.55,-4.24 -24.89,-10.34 -55.63,6.72 -48.26,27.03 1.54,3.4 1.84,6.81 2.46,10.12 -0.92,0.45 -1.54,0.69 -2.46,1.37 -11.07,7.83 -10.15,20.61 -0.62,28.83 -4.6,19.56 -10.76,39.04 3.68,59.2 19.39,27.54 55.67,40.09 95.33,27.57 19.37,-6.06 18.45,-24.17 8.3,-34.97 7.09,-0.69 14.15,-1.73 20.91,-3.32 18.13,2.19 37.22,-0.75 51.35,-11.17 34.78,-24.93 12.95,-70.37 -32.87,-77.39 -6.78,-1.05 -14.45,-0.24 -20.33,2.48 -0.9,0 -1.5,-0.15 -2.12,-0.15 -3.68,-0.24 -8,-0.45 -11.98,-0.9 0,-0.24 0,-0.24 0,-0.45 0.3,-1.46 0,-2.72 -0.34,-4.3 53.21,-65.86 117.18,-127 182.7,-186.8l0.3 0c94.71,-9.89 189.41,-20.46 284.46,-31.12 -120.26,197.98 -239.28,396.49 -359.8,594.53 -51.97,85.16 -107.66,170.26 -142.72,260.11 -36.28,93.4 -44.26,191.11 -86.38,283.67 -89.17,195.8 -239.86,394.44 -397.02,565.68 -155.58,169.36 -291.81,325.43 -355.14,526.51 -4.02,13.35 16.89,21.66 30.41,12.91 215.57,-138.03 408.37,-253.86 542.48,-441.56 133.13,-185.97 249.37,-378.19 359.46,-572.17 117.78,-207.2 238.62,-415.81 336.73,-628.43 91.33,-198.96 131.91,-403.94 162.66,-611.59 157.76,-18.34 315.8,-37.45 474.18,-57.38 12.33,-1.5 24.94,-3.17 37.22,-4.69 -3.7,4.47 -7.08,8.78 -10.15,12.93 -53.51,70.59 -93.17,142.78 -125.17,218.5 -8.93,-10.96 -29.54,-15.92 -45.5,-8.75 -9.25,4.22 -18.77,9.2 -28.32,15.02 -2.76,-0.69 -5.82,-1.13 -9.2,-1.52 -21.53,-2.57 -51.37,10.43 -40.6,29.54 2.14,3.53 4.94,6.94 7.7,10.25 -0.32,0.45 -0.34,0.77 -0.62,1.13 -16.63,9.83 -26.43,25.3 -23.07,41.46 -3.36,2.03 -6.14,4.45 -9.85,6.48 -10.14,6.04 -9.52,17.98 -4.28,25.53 19.99,28.92 70.72,35.19 108.83,22.43 10.46,-3.64 20.93,-9.44 30.16,-16.63 17.85,0.92 35.36,-2.19 50.1,-11.17 11.69,0 22.45,-5.35 22.15,-16.37 0,-1.37 -0.92,-2.87 -0.92,-4.45 0,-0.17 0,-0.39 0.3,-0.62 2.46,-1.44 5.22,-2.93 7.7,-4.52 11.04,-6.72 12.61,-21.06 5.22,-29.37 -3.72,-4.24 -8,-7.34 -12.61,-10.72 -5.87,-10.59 -16.91,-18.58 -33.22,-22.67 16.93,-32.23 44.28,-83.13 75.31,-133.56 31.38,-50.38 66.44,-100.36 98.41,-130.56 10.47,-1.37 20.93,-2.48 31.68,-3.85 -5.54,224.32 -139.93,420.93 -240.76,628.65 -99.65,205.24 -132.87,423.97 -220.22,632.22 -86.7,206.86 -169.72,419.86 -319.78,607.8 -123.94,155.09 -348.72,261.93 -441.31,428.42 -3.98,6.94 5.86,14.94 15.41,14.73 260.77,-6.27 514.16,-221.09 654.37,-364.02 175.27,-178.8 361.35,-413.37 408.37,-632.65 27.37,-127.24 19.69,-256.49 53.51,-383.11 39.08,-146.33 124.87,-273.79 217.11,-405.31 126.09,-179.17 147.62,-365.82 26.13,-544.39 249.09,-28.02 499.05,-50.44 750.32,-60.27 -270.3,345 -342.85,759.06 -484.33,1137.27 -155.9,417.31 -361.32,823.31 -591.02,1221.81 -6.79,11.86 17.21,20.25 28.27,12.09 830.61,-617.26 952.99,-1561.75 1123.93,-2373.89 130.41,-3.77 261.42,-3.98 392.4,0.47 -31.7,408.17 -91.35,836.36 -269.1,1224.37 -81.76,178.8 -205.36,337.8 -255.51,524.22 -25.81,97.7 -48.24,193.31 -118.68,280.29 -53.23,65.6 -116.58,110.01 -120.22,188.84 -0.36,9.2 15.94,13.65 24.55,7.38 361.07,-267.52 523.09,-676.59 676.52,-1024.96 167.63,-380.63 289.41,-790.54 229.38,-1192.29 174.73,11.24 348.76,31.1 519.11,61.98 -64.55,735.34 -569.17,1414.2 -972.96,2075.55 -9.52,15.02 14.19,29.75 32.02,17.89 356.08,-235.88 540.91,-561.38 707.54,-882.87 196.24,-378.66 397.63,-772.35 368.09,-1183.39 26.81,5.8 53.53,11.86 79.96,18.34 235.88,57.38 449.55,145.89 666.7,232.78 21.83,8.76 45.55,-12.52 27.03,-25.51 -211.55,-146.93 -487.07,-241.56 -776.71,-302.02 22.43,-405.03 34.14,-818.62 -105.77,-1214.04 -32.62,-92.14 -73.54,-182.59 -124.59,-270.17 -57.83,-99.74 -143.91,-190.04 -198.66,-290.16 -54.73,-100.33 -61.54,-210.58 -95.29,-315.24 -30.5,-93.61 -73.54,-183.91 -124.89,-272.63 14.72,56.01 28.91,112.2 42.44,168.89 -23.03,-53.31 -50.15,-105.92 -80.26,-157.72 12.61,-3.79 25.21,-7.79 37.82,-11.62 -0.9,-1.07 -1.58,-2.42 -2.12,-3.64 -9.57,-16.46 -41.89,-3.7 -37.59,11.71 103.66,394.73 173.13,806.31 329.05,1192.14 78.44,193.98 182.63,378.13 208.85,581.3 23.63,182.87 3.68,366.95 -19.41,549.61 -16.61,-2.93 -33.52,-5.35 -50.15,-8.07l-0.3 -0.02c-1.8,-6.25 -4,-11.69 -6.4,-14.34 -24.93,-27.33 -67.06,-44.39 -92.89,-71.96 -69.24,-73.39 -79.04,-162.85 -81.84,-249.54 13.29,-1.82 25.59,-6.27 35.12,-12.76 12.91,-3.1 25.21,-6.72 36.83,-11.47 20.01,-7.79 19.71,-26.13 6.8,-37.39 -10.19,-8.99 -22.43,-17.21 -35.63,-23.93 -7.7,-8.09 -18.52,-14.13 -31.12,-17.74 -8.9,-8.99 -24.91,-14.57 -38.74,-10.72 -12.91,3.62 -24,8.99 -33.22,15.71 -24.01,7.77 -40.24,23.72 -46.12,42.51 -1.52,3.17 -2.72,6.27 -3.1,9.67 -0.6,4.45 0.39,8.3 1.88,11.83 3.41,19.95 20.91,36.8 50.45,41.01 5.5,0.69 11.02,0.9 16.31,0.9 -11.71,92.57 -9.89,190.66 71.27,266.85 19.41,18.11 44.63,34.5 70.82,50.13 -117.57,-15.65 -234.06,-26.8 -347.24,-34.74 -2.42,-0.24 -4.93,-0.37 -7.32,-0.37 91.58,-183.93 43.64,-375.94 -15.11,-562.59 -70.44,-223.11 -129.79,-446.98 -187.56,-671.84 -105.78,-412.03 -240.78,-840.15 -591.96,-1182.26 -11.09,-10.79 -40.62,-8.99 -39.1,7.77 17.89,191.32 157.8,349.75 242.07,527.26 88.87,188.15 116.5,387.26 153.12,583.33 38.74,206.97 107.29,401.69 192.24,600.87 96.2,225.39 174.35,458.32 66.97,688.23 -163.24,-5.13 -326.86,-3.17 -490.17,4.24 129.19,-434.61 -14.72,-883.56 -247.8,-1285.25 -131.97,-227.43 -273.1,-453.04 -442.55,-667.17 -83.37,-105.32 -170.37,-213.52 -271.86,-310.32 -35.63,-34.05 -62.71,-61.39 -124.2,-49.74 -13.87,2.72 -21.23,15.24 -13.55,24.38 154.38,181.5 231.88,393.9 324.75,595.04 91.03,196.31 181.71,392.49 272.44,589.03 91.97,199.17 214.95,404.17 249.99,614.07 28.31,168.23 14.79,335.85 83.36,499.39 -49.46,3.08 -99.37,6.94 -148.86,11.02 -39.04,-86.08 -83.94,-167.39 -117.11,-253.03 26.09,-3.55 38.12,-29.36 23.65,-44.54 4.32,-0.92 8.94,-1.52 13.2,-2.95 1.84,1.2 3.72,2.04 5.56,2.95 26.43,13.66 65.47,-9.22 55.05,-30.65 -5.24,-11.05 -13.87,-19.8 -24.63,-26.52 5.24,-32.47 -37.2,-70.05 -84.54,-69.84 -17.23,-6.93 -40.28,-2.03 -51.97,9.2 -46.76,-16.14 -91.94,-21.36 -116.24,7.11 -3.7,4.3 1.2,11.7 8.63,11.02 23.37,-2.12 40.58,3.79 56.24,12.31 -4.3,1.74 -8.93,3.85 -12.91,6.27 -18.75,13.2 -27.97,33.37 -27.05,51.94 1.84,43.7 52.86,62.6 104.85,70.14 16.01,92.12 52.91,185.31 122.68,260.28 -117.44,10.1 -234.32,21.96 -350.86,35.25 -0.3,0 -0.62,0 -0.62,0 -8.61,-410.44 -178.95,-839.46 -359.17,-1223.93 -157.46,-336.31 -364.11,-682.2 -803.23,-869.67 -18.45,-7.94 -34.74,9.59 -21.83,20.31 182.97,151.44 247.57,333.11 377.63,505.49 52.56,69.63 132.52,126.02 182.97,196.48 68.57,96.27 24.89,201.81 44.56,304.2 35.08,180.83 181.43,352.16 259.85,524.76 83.37,182.33 143.93,368.69 187,557.98 -29.54,3.61 -59.35,6.95 -88.89,10.57 -150.37,18.58 -300.45,37.61 -450.49,56.48 -20.93,-404.02 -135.01,-807.21 -355.82,-1178.85 -180.49,-303.83 -424.04,-692.54 -854.88,-845.59 -23.03,-8.3 -46.12,12.16 -27.65,26.2 185.71,142.57 328.08,307.84 418.81,492.91 43.36,88.72 75.04,180.15 126.39,266.59 46.46,77.78 102.41,144.98 123,229.46 43.69,177.13 153.14,330.87 216.81,503.4 64.25,174.26 64.55,358.95 123.63,534.11 -147.62,18.13 -295.53,35.66 -443.75,51.5 32.6,-183.7 2.76,-365.13 -55.37,-545.73 -58.11,-180.41 -128.22,-367.64 -236.48,-535.95 -228.76,-355.33 -715.84,-592.03 -1136.84,-815.45 -19.69,-10.55 -41.84,9.22 -31.38,22.58 112.56,144.75 286.61,250.31 444.37,367.72 202.02,150.31 323.46,300.2 415.41,498.69 78.14,169.36 230.66,312.29 313.38,480.96 81.18,165.59 157.14,361.37 172.21,539.27 -122.69,12.61 -246.01,24.01 -369.33,33.81 -50.44,-204.1 -162.36,-399.87 -266.94,-591.88 -92.22,-169.13 -188.15,-334.57 -340.39,-480.58 -283.54,-272.59 -654.39,-554.06 -1084.59,-700.16 -19.69,-6.65 -36.57,6.79 -28.61,20.91 37.52,63.63 99.35,106.61 169.77,151.83 39.34,25.3 81.18,49.38 116.54,77.54 63.06,50.43 78.12,108.21 119.02,166.49 114.06,163.33 376.37,241.92 493.83,399.64 58.43,78.68 107.96,117.72 190.38,183.34 100.55,80.17 125.14,186.8 178.95,284.19 95.95,172.98 272.16,313.72 321.69,498.56 -4.32,0.23 -8.63,0.69 -12.95,0.92 -60.57,4.22 -120.84,8.01 -181.41,11.62 -11.07,-7.17 -24.31,-13.44 -38.46,-22.19 -31.68,-19.26 -62.09,-39.43 -91.33,-60.7 -56.59,-41.24 -106.39,-87.15 -161.44,-129.27 2.19,-2.06 4.02,-4 5.54,-6.04 6.15,1.58 12.01,3.08 18.13,4.45 27.7,6.04 43.98,-16.1 34.14,-32.47 -5.2,-8.99 -12.61,-16.4 -21.53,-22.88 0.62,-0.83 1.26,-1.52 2.19,-2.18 3.38,-2.27 5.82,-4.93 7.36,-7.85 7.7,-8.99 14.47,-17.53 19.99,-24.7 8.28,-10.27 3.68,-24.83 -11.06,-30.89 -38.12,-15.47 -83.32,-7.38 -107.61,18.37 -22.45,2.48 -43.98,8.3 -63.37,17.74 -12.91,6.25 -17.51,17.44 -12.91,26.8 -2.46,1.88 -5.22,3.85 -7.71,5.82 -11.34,10.34 -10.72,21.13 0,31.19 2.81,2.7 6.17,5.2 9.25,7.62 0.3,1.13 0,2.48 0.3,3.85 4.32,25.06 36.92,39.19 69.8,37.16 12.61,-0.92 23.37,-4.09 33.22,-8.48 38.16,51.26 93.49,96.95 150.1,137.49 22.11,15.94 52.27,40.77 85.16,61.41 -90.41,4.96 -181.13,8.97 -271.24,12.37 -34.44,-97.94 -189.44,-276.72 -210.63,-304.74 -144.54,-187.04 -249.71,-380.93 -370.27,-575.95 -224.15,-363.4 -625.16,-608.93 -1166.07,-685.67 -23.97,-3.46 -35.06,17.83 -15.97,27.87 103.63,55.35 208.15,110.01 311.5,166.04 88.54,48.15 132.23,87.34 181.75,159.69 31.68,45.91 0.92,19.93 41.18,64.1 54.45,59.35 145.78,98.99 212.51,151.02 86.43,66.89 154.06,145.18 213.71,225.82 53.51,72.11 99.33,146.93 146.68,221.16 20.61,31.78 40.92,63.5 62.45,95.13 39.96,59.2 55.33,120.05 83.02,180.83 55.33,121.4 240.44,172.46 311.2,281.19 -155,3.98 -309.98,6.04 -464.98,6.25 -122.7,-324.9 -312.42,-636.95 -597.46,-904.23 -258.02,-242.15 -622.74,-494.04 -1060.32,-528.46 -14.45,-1.22 -25.52,13.21 -17.21,21.66 40.3,40.09 84.56,75.96 141.15,104.43 87.3,43.94 179.59,55.35 245.41,121.63 35.93,36.08 51.02,63.44 101.45,92.12 57.81,32.85 253.69,85.33 200.48,162.64 -2.76,4 -3.98,10.04 0,14.13 73.22,69.69 183.89,108.87 268.18,171.09 119.94,89.01 187.25,193.2 250.28,307.22 88.91,160.67 205.72,317.19 379.2,437.78 -141.17,-0.24 -282.63,-2.03 -423.76,-5.2 5.82,-55.5 -59.37,-139.16 -84.29,-185.28 -43.02,-79.75 -91.33,-158.19 -144.81,-234.54 -111.02,-159.54 -241.4,-328.43 -413.29,-457.94 -72.88,-54.88 -834.61,-421.92 -893.33,-253.84 -9.55,27.55 55.05,50.66 74.09,60.1 81.2,40.54 169.75,56.63 226.96,111.08 41.52,39.85 60.29,69.15 125.76,100.57 58.73,28.23 126.7,49.29 183.59,78.81 74.42,38.59 78.1,62.6 126.09,107.38 74.74,69.45 209.7,90.54 230.94,184.83 11.98,52.39 0,77.54 54.43,124.59 76.88,66.52 157.46,124.29 226.34,197.59 54.41,57.61 107.61,113.78 174.05,163.78 -182.05,-4.69 -363.76,-11.62 -545.54,-20.61 -85.48,-225.16 -261.97,-434.39 -469.24,-610.69 -169.45,-144.51 -404.09,-347.78 -686.07,-365.43 -7.69,-0.47 -16.93,5.59 -15.67,11.62 4.9,30.65 5.82,42.12 28.89,68.34 10.15,11.69 142.97,90.75 130.37,104.34 -3.06,3.62 -2.44,8.39 0,11.71 66.44,86.44 181.48,145.56 282,209.9 74.44,47.8 113.48,101.77 180.83,152.22 44.88,33.52 110.67,60.19 151.26,95.82 34.46,30.2 46.76,80.26 79.06,114.53 61.79,66.28 132.25,138.18 203.24,201.76 -81.76,-4.24 -163.88,-8.93 -245.69,-14.06 -0.3,0 -0.3,0 -0.62,0 -45.83,-39.64 -113.48,-68.11 -170.67,-95.74 -87.04,-41.61 -165.12,-82.59 -211.59,-147.83 2.48,-1.07 4.62,-2.42 6.78,-4.24 3.06,-1.59 5.84,-3.32 8,-5.59 13.2,6.27 27.65,11.17 42.74,15.26 29.52,7.77 51.05,-18.81 38.12,-36.32 -10.77,-14.57 -32.26,-26.43 -56.57,-33.15 -6.48,-18.13 -23.07,-30.73 -43.04,-36.77 -0.64,-0.6 -0.94,-1.58 -1.22,-2.48 -8.63,-20.09 -48.31,-18.13 -53.21,1.43 -1.54,0.22 -2.8,0.69 -4.02,1.29 -14.15,-16.78 -38.74,-28.25 -69.5,-29.99 -16.59,-1.2 -32.59,13.44 -26.43,25.09 12.61,23.69 31.68,44.84 57.81,59.8 -1.24,4.43 -1.24,9.42 0,14.1l0 0.69c0,2.42 0.3,5.2 1.22,7.62 3.38,12.07 14.15,21.06 28.31,25.98 10.15,4.69 22.11,6.94 34.09,6.72 0.34,0 0.34,0 0.62,0 17.23,54.43 67.65,102.61 126.39,138.03 51.98,31.55 113.2,61.39 174.97,88.63 -43.34,-2.65 -86.41,-5.5 -130.07,-8.45 -199.88,-166.73 -395.76,-326.63 -568.89,-509.88 -120.86,-127.91 -235.56,-302.7 -456.01,-347.69 -13.25,-2.74 -26.78,4.67 -26.78,14.55 2.14,85.78 56.89,148.54 135.01,210.13 70.09,55.11 142.67,100.36 200.48,163.78 41.22,45.44 75.31,94.09 116.84,139.61 112.88,122.98 290.91,241.47 478.5,321.05 -105.77,-7.7 -211.87,-15.71 -317.64,-24.46 -16.01,-3.79 -32.02,-7.85 -47.99,-11.92 -42.14,-53.55 -123.94,-89.1 -189.11,-128.37 -104.28,-62.67 -210.67,-123.67 -317.98,-183.25 -55.35,-30.65 -332.73,-205.36 -413.59,-117.33 -71.33,77.69 162.66,200.93 229.4,232.11 162.66,76.17 343.8,136.57 528.31,185.2 -39.96,-1.59 -79.64,-1.14 -114.7,-2.63 -159.3,-7.19 -325.65,-13.68 -484.67,-1.37 -130.98,10.27 -437.56,53.76 -488.59,166.43 -60.29,134 237.68,65.6 302.28,51.77zm14792.83 2046.34c-10.12,4.54 -20.33,8.77 -30.43,12.99 -4.3,-14.04 -9.22,-27.78 -14.43,-41.46 15.02,9.44 29.81,18.88 44.86,28.47zm-1025.22 -4491.26c7.41,6.72 14.43,13.68 21.83,20.48 -31.33,13.12 -61.77,27.48 -90.69,42.27 21.21,-21.3 43.94,-42.27 68.85,-62.76zm-839.53 4458.57c-9.52,4.07 -18.73,8.07 -28.25,11.86 -11.39,-19.95 -23.09,-40.09 -34.41,-60.04 20.22,16.37 41.13,32.26 62.67,48.18zm-911.42 -4830.28c13.22,2.5 26.13,5.22 39.04,7.7 -16.31,16.07 -32.32,32.41 -47.34,48.78 4,-18.58 6.72,-37.37 8.3,-56.48zm2469.62 524.07c9.5,8.78 18.71,17.68 28,26.43 -45.52,18.81 -88.93,39.72 -130.39,62.45 32.62,-30.22 67.06,-59.8 102.39,-88.89zm888.39 210.37c10.49,7.62 20.89,15.26 31.4,22.79 -29.3,15.71 -58.45,31.19 -88.26,47.13 20.61,-22.43 39.64,-45.52 56.87,-69.92zm747.56 170.02l28.61 20.85c-20.31,6.96 -40.32,14.13 -60.25,21.98 11.92,-13.29 22.73,-27.33 31.63,-42.83zm734.06 241.32c5.22,9.37 10.72,18.57 16.01,28.02 -36.62,5.05 -72.34,11.17 -107.68,18.13 31.65,-15.26 62.75,-30.73 91.67,-46.14zm2439.79 1619.07c-51.11,-112.67 -357.67,-156.16 -488.67,-166.43 -159,-12.31 -325.35,-5.8 -484.67,1.37 -35.04,1.5 -74.67,1.05 -114.68,2.63 184.54,-48.63 365.67,-109.03 528.31,-185.2 66.73,-31.2 300.73,-154.42 229.46,-232.11 -80.94,-88.03 -358.28,86.68 -413.63,117.33 -107.36,59.58 -213.75,120.58 -317.94,183.25 -65.24,39.27 -147.02,74.82 -189.14,128.37 -16.01,4.07 -32.02,8.15 -48.03,11.92 -105.77,8.75 -211.87,16.76 -317.64,24.46 187.62,-79.6 365.67,-198.04 478.46,-321.05 41.54,-45.54 75.66,-94.15 116.88,-139.61 57.85,-63.44 130.41,-108.66 200.48,-163.78 78.14,-61.62 132.87,-124.35 135.07,-210.13 0,-9.89 -13.59,-17.27 -26.82,-14.55 -220.47,44.99 -335.15,219.78 -456.03,347.69 -173.13,183.25 -369.01,343.17 -568.87,509.88 -43.7,2.93 -86.74,5.82 -130.09,8.45 61.83,-27.27 123,-57.08 174.95,-88.63 58.75,-35.42 109.17,-83.6 126.38,-138.03 0.32,0 0.3,0 0.62,0 12.01,0.22 23.99,-2.03 34.11,-6.72 14.21,-4.92 24.91,-13.89 28.32,-25.98 0.92,-2.42 1.2,-5.2 1.2,-7.62l0.02 -0.69c1.28,-4.69 1.26,-9.65 -0.02,-14.1 26.22,-14.96 45.25,-36.11 57.85,-59.8 6.19,-11.65 -9.83,-26.28 -26.43,-25.09 -30.8,1.74 -55.35,13.23 -69.54,29.99 -1.2,-0.62 -2.42,-1.07 -4,-1.29 -4.9,-19.56 -44.54,-21.53 -53.16,-1.43 -0.3,0.9 -0.67,1.89 -1.2,2.48 -20.01,6.04 -36.62,18.66 -43.11,36.77 -24.25,6.72 -45.84,18.58 -56.57,33.15 -12.91,17.51 8.61,44.09 38.14,36.32 15.02,-4.09 29.51,-8.99 42.72,-15.26 2.14,2.27 4.92,4 8,5.59 2.12,1.82 4.32,3.17 6.72,4.24 -46.34,65.24 -124.5,106.22 -211.48,147.83 -57.23,27.63 -124.89,56.1 -170.71,95.74 -0.3,0 -0.3,0 -0.6,0 -81.78,5.13 -163.93,9.82 -245.7,14.06 71.06,-63.59 141.43,-135.46 203.26,-201.76 32.26,-34.29 44.54,-84.33 79.06,-114.53 40.54,-35.66 106.37,-62.3 151.24,-95.82 67.42,-50.44 106.46,-104.42 180.83,-152.22 100.57,-64.33 215.57,-123.45 282.01,-209.9 2.5,-3.32 3.1,-8.09 0,-11.71 -12.61,-13.59 120.28,-92.65 130.39,-104.34 23.05,-26.22 23.95,-37.69 28.94,-68.34 1.2,-6.06 -8,-12.09 -15.71,-11.62 -282,17.66 -516.6,220.92 -686.05,365.43 -207.24,176.3 -383.78,385.53 -469.32,610.69 -181.67,8.97 -363.49,15.93 -545.46,20.61 66.37,-50 119.6,-106.16 174.05,-163.78 68.85,-73.33 149.41,-131.07 226.27,-197.59 54.45,-47.04 42.5,-72.19 54.45,-124.59 21.21,-94.3 156.22,-115.36 230.96,-184.83 47.94,-44.78 51.65,-68.79 126.11,-107.38 56.85,-29.52 124.8,-50.57 183.55,-78.81 65.54,-31.42 84.26,-60.72 125.79,-100.57 57.17,-54.45 145.73,-70.52 226.89,-111.08 19.11,-9.44 83.66,-32.53 74.14,-60.1 -58.73,-168.08 -820.42,198.96 -893.3,253.84 -171.91,129.49 -302.31,298.4 -413.31,457.94 -53.53,76.35 -101.77,154.79 -144.81,234.54 -24.91,46.12 -90.15,129.79 -84.26,185.28 -141.2,3.17 -282.63,4.99 -423.74,5.2 173.36,-120.58 290.24,-277.1 379.11,-437.78 63.06,-114.01 130.39,-218.2 250.29,-307.22 84.26,-62.22 195.04,-101.41 268.2,-171.09 4,-4.09 2.72,-10.13 0,-14.13 -53.23,-77.33 142.63,-129.79 200.54,-162.64 50.36,-28.7 65.47,-56.01 101.41,-92.12 65.84,-66.29 158.11,-77.69 245.39,-121.63 56.63,-28.46 100.87,-64.34 141.2,-104.43 8.3,-8.45 -2.8,-22.88 -17.21,-21.66 -437.63,34.42 -802.33,286.31 -1060.32,528.46 -285.02,267.28 -474.85,579.33 -597.55,904.23 -154.94,-0.24 -309.94,-2.27 -464.87,-6.25 70.67,-108.73 255.81,-159.78 311.16,-281.19 27.72,-60.78 43.11,-121.63 83.04,-180.83 21.53,-31.63 41.84,-63.35 62.37,-95.13 47.43,-74.23 93.17,-149.05 146.72,-221.16 59.65,-80.65 127.31,-158.94 213.75,-225.82 66.76,-52.03 158.02,-91.67 212.47,-151.02 40.32,-44.17 9.5,-18.19 41.22,-64.1 49.55,-72.34 93.17,-111.53 181.76,-159.69 103.29,-56.04 207.84,-110.7 311.45,-166.04 19.09,-10.04 8.01,-31.33 -15.94,-27.87 -540.98,76.71 -941.92,322.26 -1166.09,685.67 -120.5,195.02 -225.76,388.93 -370.27,575.95 -21.21,28.02 -176.23,206.82 -210.65,304.74 -90.09,-3.4 -180.77,-7.41 -271.22,-12.37 32.92,-20.63 63.03,-45.46 85.16,-61.41 56.63,-40.54 111.98,-86.21 150.1,-137.49 9.82,4.39 20.61,7.56 33.22,8.48 32.94,2.03 65.47,-12.09 69.86,-37.16 0.21,-1.37 0,-2.72 0.21,-3.85 3.11,-2.42 6.51,-4.9 9.29,-7.62 10.72,-10.06 11.32,-20.85 0,-31.19 -2.48,-1.97 -5.29,-3.94 -7.7,-5.82 4.62,-9.37 0,-20.55 -12.91,-26.8 -19.39,-9.46 -40.92,-15.26 -63.35,-17.74 -24.29,-25.77 -69.54,-33.84 -107.66,-18.37 -14.72,6.04 -19.33,20.61 -11.11,30.89 5.58,7.17 12.39,15.71 20.07,24.7 1.52,2.93 3.94,5.58 7.34,7.85 0.9,0.66 1.5,1.35 2.18,2.18 -8.99,6.48 -16.31,13.89 -21.59,22.88 -9.8,16.37 6.48,38.5 34.2,32.47 6.12,-1.37 11.92,-2.87 18.13,-4.45 1.52,2.03 3.4,4 5.5,6.04 -55.03,42.12 -104.87,88.03 -161.42,129.27 -29.22,21.28 -59.65,41.44 -91.37,60.7 -14.1,8.75 -27.33,15.02 -38.42,22.19 -60.55,-3.64 -120.89,-7.41 -181.45,-11.62 -4.22,-0.23 -8.61,-0.69 -12.91,-0.92 49.55,-184.84 225.76,-325.56 321.73,-498.56 53.76,-97.4 78.37,-204.01 178.95,-284.19 82.38,-65.62 131.91,-104.66 190.33,-183.34 117.42,-157.72 379.8,-236.31 493.89,-399.64 40.84,-58.28 55.95,-116.04 118.98,-166.49 35.36,-28.17 77.18,-52.24 116.52,-77.54 70.44,-45.22 132.27,-88.18 169.72,-151.83 8,-14.13 -8.91,-27.57 -28.53,-20.91 -430.22,146.1 -801.11,427.57 -1084.64,700.16 -152.22,146.01 -248.1,311.45 -340.46,480.58 -104.49,192.01 -216.47,387.8 -266.89,591.88 -123.3,-9.82 -246.6,-21.21 -369.31,-33.81 15.11,-177.9 91.07,-373.68 172.23,-539.27 82.77,-168.67 235.28,-311.6 313.36,-480.96 91.97,-198.49 213.43,-348.38 415.41,-498.69 157.83,-117.42 331.85,-222.98 444.43,-367.72 10.42,-13.35 -11.71,-33.13 -31.42,-22.58 -421,223.43 -908.08,460.14 -1136.88,815.45 -108.26,168.31 -178.33,355.57 -236.48,535.95 -58.04,180.6 -87.88,362.03 -55.33,545.73 -148.22,-15.84 -296.13,-33.37 -443.75,-51.5 59.05,-175.16 59.35,-359.85 123.6,-534.11 63.65,-172.53 173.13,-326.26 216.77,-503.4 20.61,-84.5 76.64,-151.68 123.07,-229.46 51.37,-86.44 82.98,-177.88 126.41,-266.59 90.68,-185.07 233.07,-350.34 418.83,-492.91 18.43,-14.04 -4.62,-34.5 -27.72,-26.2 -430.82,153.05 -674.34,541.75 -854.87,845.59 -220.77,371.62 -334.85,774.83 -355.78,1178.85 -150.1,-18.88 -300.13,-37.91 -450.53,-56.48 -29.51,-3.62 -59.35,-6.93 -88.86,-10.57 43.04,-189.29 103.67,-375.62 186.95,-557.98 78.44,-172.61 224.84,-343.93 259.87,-524.76 19.65,-102.39 -24.01,-207.93 44.56,-304.2 50.44,-70.46 130.39,-126.85 183.02,-196.48 130.02,-172.38 194.66,-354.02 377.61,-505.49 12.91,-10.72 -3.4,-28.25 -21.83,-20.31 -439.12,187.47 -645.79,533.36 -803.23,869.67 -180.21,384.46 -350.56,813.48 -359.17,1223.93 0,0 -0.3,0 -0.6,0 -116.58,-13.29 -233.4,-25.15 -350.88,-35.25 69.77,-74.99 106.69,-168.16 122.7,-260.28 51.94,-7.56 102.99,-26.41 104.87,-70.14 0.9,-18.58 -8.3,-38.74 -27.11,-51.94 -3.98,-2.42 -8.61,-4.54 -12.91,-6.27 15.71,-8.52 32.92,-14.43 56.25,-12.31 7.41,0.69 12.31,-6.72 8.69,-11.02 -24.31,-28.47 -69.54,-23.24 -116.28,-7.11 -11.69,-11.24 -34.74,-16.14 -51.94,-9.2 -47.35,-0.21 -89.85,37.37 -84.56,69.84 -10.79,6.72 -19.41,15.47 -24.61,26.52 -10.49,21.42 28.61,44.3 55.05,30.65 1.8,-0.92 3.68,-1.73 5.5,-2.95 4.3,1.43 8.91,2.04 13.2,2.95 -14.4,15.18 -2.39,40.99 23.72,44.54 -33.22,85.61 -78.14,166.94 -117.18,253.03 -49.53,-4.09 -99.29,-7.94 -148.81,-11.02 68.56,-163.56 55.05,-331.17 83.37,-499.39 35.04,-209.9 158.02,-414.9 249.98,-614.07 90.69,-196.54 181.43,-392.7 272.42,-589.03 92.89,-201.15 170.41,-413.53 324.75,-595.04 7.7,-9.14 0.3,-21.66 -13.51,-24.38 -61.53,-11.65 -88.56,15.69 -124.29,49.74 -101.41,96.8 -188.45,205 -271.81,310.32 -169.43,214.14 -310.56,439.75 -442.53,667.17 -233.02,401.67 -377.01,850.64 -247.83,1285.25 -163.3,-7.41 -326.84,-9.37 -490.17,-4.24 -107.29,-229.91 -29.21,-462.84 67.06,-688.23 84.86,-199.17 153.42,-393.9 192.16,-600.87 36.62,-196.07 64.25,-395.18 153.11,-583.33 84.29,-177.52 224.26,-335.92 242.07,-527.26 1.52,-16.76 -28,-18.56 -39.11,-7.77 -351.09,342.1 -486.1,770.23 -591.87,1182.26 -57.85,224.84 -117.18,448.73 -187.64,671.84 -58.73,186.65 -106.69,378.66 -15.02,562.59 -2.48,-0.02 -4.9,0.15 -7.41,0.37 -113.16,7.92 -229.76,19.11 -347.16,34.74 26.13,-15.65 51.35,-32.02 70.67,-50.13 81.16,-76.19 83.04,-174.28 71.36,-266.85 5.2,0 10.79,-0.22 16.31,-0.9 29.52,-4.21 47.02,-21.06 50.43,-41.01 1.52,-3.55 2.51,-7.38 1.82,-11.83 -0.3,-3.4 -1.52,-6.5 -3.02,-9.67 -5.82,-18.81 -22.19,-34.74 -46.15,-42.51 -9.2,-6.72 -20.31,-12.09 -33.22,-15.71 -13.8,-3.85 -29.83,1.73 -38.74,10.72 -12.61,3.61 -23.39,9.67 -31.03,17.74 -13.27,6.72 -25.6,14.96 -35.7,23.93 -12.91,11.26 -13.23,29.6 6.78,37.39 11.71,4.75 23.93,8.37 36.85,11.47 9.59,6.49 21.9,10.94 35.04,12.76 -2.72,86.69 -12.63,176.15 -81.78,249.54 -25.83,27.57 -67.95,44.63 -92.8,71.96 -2.48,2.65 -4.67,8.09 -6.48,14.36l-0.3 -0.02c-16.61,2.72 -33.52,5.16 -50.15,8.09 -23.09,-182.65 -43.02,-366.72 -19.39,-549.61 26.13,-203.18 130.39,-387.33 208.85,-581.3 155.92,-385.83 225.37,-797.41 329.05,-1192.14 4.22,-15.41 -28.02,-28.17 -37.54,-11.71 -0.66,1.2 -1.2,2.57 -2.18,3.64 12.61,3.83 25.21,7.83 37.84,11.62 -30.13,51.8 -57.17,104.43 -80.28,157.72 13.52,-56.69 27.72,-112.88 42.44,-168.89 -51.35,88.72 -94.39,179.02 -124.8,272.63 -33.84,104.66 -40.63,214.91 -95.37,315.24 -54.73,100.13 -140.81,190.43 -198.66,290.16 -51.02,87.58 -91.95,178.05 -124.5,270.17 -139.91,395.4 -128.29,809.03 -105.78,1214.04 -289.71,60.46 -565.23,155.08 -776.8,302.02 -18.43,12.97 5.2,34.27 27.03,25.51 217.15,-86.89 430.82,-175.4 666.7,-232.78 26.43,-6.5 53.23,-12.54 79.96,-18.34 -29.52,411.05 171.93,804.73 368.09,1183.39 166.65,321.49 351.48,646.99 707.56,882.87 17.89,11.86 41.52,-2.87 32.02,-17.89 -403.81,-661.35 -908.41,-1340.21 -972.96,-2075.55 170.35,-30.88 344.37,-50.74 519.02,-61.98 -59.95,401.75 61.83,811.66 229.46,1192.29 153.42,348.38 315.46,757.45 676.5,1024.96 8.63,6.27 24.93,1.82 24.61,-7.38 -3.68,-78.83 -67.04,-123.24 -120.26,-188.84 -70.37,-87 -92.87,-182.59 -118.7,-280.29 -50.13,-186.42 -173.73,-345.43 -255.51,-524.22 -177.73,-388.01 -237.46,-816.2 -269.1,-1224.37 131.01,-4.45 261.99,-4.24 392.4,-0.47 170.94,812.13 293.33,1756.63 1123.95,2373.89 11.04,8.15 35.04,-0.24 28.25,-12.09 -229.68,-398.52 -435.06,-804.49 -590.98,-1221.81 -141.49,-378.21 -214.05,-792.27 -484.37,-1137.27 251.2,9.83 501.21,32.26 750.36,60.27 -121.48,178.57 -99.95,365.22 26.13,544.39 92.27,131.52 178.03,258.97 217.07,405.31 33.83,126.62 26.13,255.89 53.53,383.11 47.04,219.25 233.1,453.85 408.35,632.65 140.21,142.93 393.6,357.75 654.39,364.02 9.59,0.21 19.41,-7.79 15.41,-14.73 -92.59,-166.49 -317.36,-273.33 -441.33,-428.42 -150.04,-187.94 -233.1,-400.92 -319.76,-607.8 -87.37,-208.25 -120.58,-426.99 -220.17,-632.22 -100.87,-207.71 -235.28,-404.32 -240.8,-628.65 10.74,1.35 21.23,2.5 31.65,3.85 32.02,30.2 67.04,80.2 98.37,130.56 31.12,50.43 58.45,101.32 75.36,133.56 -16.31,4.07 -27.33,12.09 -33.22,22.67 -4.6,3.38 -8.91,6.48 -12.61,10.72 -7.32,8.28 -5.82,22.64 5.29,29.37 2.42,1.58 5.2,3.08 7.62,4.52 0.39,0.23 0.39,0.47 0.39,0.62 0,1.59 -0.98,3.08 -0.98,4.45 -0.3,11.02 10.49,16.37 22.11,16.37 14.81,8.99 32.31,12.09 50.15,11.17 9.29,7.17 19.71,12.99 30.11,16.63 38.22,12.76 88.95,6.48 108.88,-22.43 5.31,-7.56 5.82,-19.48 -4.3,-25.53 -3.68,-2.04 -6.42,-4.45 -9.8,-6.48 3.4,-16.16 -6.51,-31.63 -23.03,-41.46 -0.38,-0.39 -0.38,-0.66 -0.69,-1.13 2.81,-3.31 5.59,-6.72 7.71,-10.25 10.72,-19.11 -19.11,-32.1 -40.56,-29.54 -3.38,0.39 -6.49,0.83 -9.29,1.52 -9.5,-5.82 -19.03,-10.81 -28.23,-15.02 -16.01,-7.19 -36.62,-2.2 -45.52,8.75 -32.02,-75.74 -71.66,-147.91 -125.19,-218.5 -3.1,-4.18 -6.42,-8.46 -10.12,-12.93 12.31,1.52 24.91,3.19 37.22,4.69 158.34,19.93 316.44,39.04 474.18,57.38 30.74,207.63 71.33,412.63 162.64,611.59 98.15,212.62 218.95,421.25 336.73,628.43 110.1,193.98 226.29,386.19 359.48,572.17 134.11,187.7 326.87,303.54 542.44,441.56 13.5,8.76 34.41,0.45 30.5,-12.91 -63.35,-201.08 -199.62,-357.15 -355.24,-526.51 -157.12,-171.24 -307.75,-369.89 -396.94,-565.68 -42.12,-92.57 -50.12,-190.27 -86.44,-283.67 -35.04,-89.85 -90.69,-174.93 -142.72,-260.11 -120.5,-198.04 -239.5,-396.56 -359.76,-594.53 95.05,10.66 189.74,21.23 284.43,31.12l0.38 0c65.45,59.8 129.41,120.94 182.63,186.8 -0.3,1.58 -0.6,2.87 -0.3,4.3 0,0.21 0,0.21 0,0.45 -4,0.45 -8.31,0.69 -12.01,0.9 -0.6,0 -1.2,0.15 -2.19,0.15 -5.82,-2.72 -13.52,-3.53 -20.24,-2.48 -45.83,7.02 -67.66,52.48 -32.92,77.39 14.13,10.41 33.22,13.36 51.35,11.17 6.81,1.59 13.89,2.63 20.91,3.32 -10.19,10.79 -11.09,28.91 8.3,34.97 39.72,12.52 75.96,0 95.28,-27.57 14.51,-20.16 8.39,-39.64 3.7,-59.2 9.59,-8.24 10.51,-21 -0.6,-28.83 -0.9,-0.69 -1.52,-0.92 -2.42,-1.37 0.62,-3.31 0.9,-6.72 2.42,-10.12 7.41,-20.31 -23.33,-37.37 -48.24,-27.03 -6.81,2.65 -12.01,3.79 -17.53,4.24 -34.42,-57.53 -78.44,-111.15 -136.21,-157.5l0.24 0c99.67,10.25 199.63,19.93 299.21,29.07 102.39,422.81 290.33,837.5 531.11,1228.7 200.46,325.26 473.26,651.74 966.15,765.09 15.11,3.38 29.83,-10.12 20.91,-19.94 -146.31,-161.36 -315.76,-309.64 -460.27,-472.49 -143,-160.91 -291.53,-320.15 -416.09,-489.27 -133.49,-181.07 -227.28,-373.91 -276.74,-576.25 -42.81,-173.21 -94.45,-298.85 -251.89,-425.7 119.32,10.57 238.39,20.22 357.99,28.92 76.26,367.17 316.65,691.16 638.38,976.12 333.97,295.74 709.44,570.81 1157.11,774.3 22.81,10.27 45.54,-6.7 41.54,-23.33 -18.13,-76.86 -115.92,-138.93 -181.16,-197.81 -93.76,-84.65 -189.44,-168.52 -290.22,-248.87 -86.15,-68.55 -198.37,-130.62 -272.14,-206.58 -64.02,-66.07 -98.75,-110.22 -188.52,-159.77 -154.33,-85.31 -207.87,-159.54 -289.41,-282.99 -46.44,-70.29 -118.31,-119.6 -181.76,-182.12 -86.66,-85.4 -147,-180.08 -190.33,-281.32 -13.2,-31.35 -21.83,-64.79 -43.64,-93.85 -17.51,-23.12 -44.63,-43.13 -67.06,-64.57 124.89,8.24 250.31,15.65 375.79,21.68 86.15,72.62 135.91,178.35 205.45,257.48 73.78,83.58 150.04,166.41 226.96,248.64 142.65,152.35 291.46,302.47 460.29,440.5 274,224.24 734.96,555.64 1190.41,467.59 13.51,-2.72 18.41,-13.74 12.22,-22.2 -92.78,-132.44 -341.89,-162.7 -505.79,-231.94 -222.36,-93.87 -401.33,-217.69 -568.63,-357.99 -177.75,-148.96 -355.18,-298.83 -516.9,-457.4 -75.96,-74.91 -146.33,-151.98 -215.57,-229.91 -36.92,-41.67 -71.06,-79.04 -120.5,-107.51 220.17,8.67 441.24,13.42 663.3,13.42 49.16,274.62 282.84,501.6 527.93,704.84 244.87,202.73 524.99,443.98 907.5,495.54 15.71,2.19 31.1,-2.93 35.7,-14.57 42.14,-106.46 -73.54,-164.44 -183.31,-216.23 -114.08,-53.77 -179.55,-109.11 -235.88,-198.52 -31.63,-49.91 -59.95,-105.02 -126.09,-136.81 -90.38,-43.49 -194.96,-52.39 -281.04,-107.83 -74.06,-47.73 -131.29,-107.89 -181.43,-169.57 -100.57,-123 -186.33,-252.88 -322.56,-357.52 33.54,-0.24 66.76,-0.45 100.27,-1.13 92.59,-1.37 184.77,-3.64 277.34,-6.51l0.3 0c23.11,25.06 79.36,60.04 94.09,75 29.81,31.02 54.13,64.32 79.34,97.24 36.62,48.63 72.64,97.49 120.28,140.74 120.2,109.33 294.55,175.4 417.23,284.28 214.07,190.72 635.09,349.3 978.87,305.57 14.79,-1.73 19.39,-15.17 13.2,-23.71 -66.37,-92.33 -181.73,-86.98 -304.44,-116.5 -201.44,-48.84 -377.91,-171.63 -545.82,-262.38 -85.48,-46.36 -171.24,-92.27 -256.19,-139.31 -73.45,-40.86 -125.12,-67.42 -163.54,-134.69 -12.61,-22.13 -14.51,-45.4 -28.61,-68.28 -45.82,-73.76 -132.2,-123.73 -225.99,-163.99 67.95,-2.72 135.84,-5.8 203.56,-9.44 0,0 0,-0.21 0.3,0 0,0 0,0 0.3,0 154.72,78.59 246.3,192 296.73,322.86 -8.28,3.77 -17.51,8.76 -25.81,14.34 -6.48,0.45 -13.23,1.97 -18.73,5.13 -23.09,13.44 -14.79,39.43 2.72,53.76 20.01,16.4 44.62,19.26 65.83,14.13 34.14,9.2 72.56,8.97 99.97,-11.49 3.94,-3.08 7.32,-6.48 10.43,-9.95 10.12,-2.95 19.93,-6.57 29.81,-11.26 16.33,-7.86 5.82,-25.36 -13.2,-22.43 -2.48,0.24 -5.22,0.69 -8,0.92 -0.3,-1.97 -0.9,-3.85 -1.28,-5.82 5.29,-2.18 10.79,-3.85 16.91,-4.3 30.52,-1.97 38.8,-32.39 7.41,-39.64 -42.06,-9.59 -87.67,-8.69 -128.5,2.72 -22.13,-125.27 -123.6,-235.94 -260.8,-313.04l0.3 0c43.34,-2.42 86.44,-4.92 129.49,-7.79 261.39,107.3 491.99,264.8 725.67,399.66 171.93,98.75 310.64,253.63 561.55,223.19 12.3,-1.43 17.5,-13.5 11.39,-20.7 -140.81,-163.09 -380.09,-270.74 -579.04,-389.59 -119.3,-70.97 -246.01,-133.26 -381.31,-187.7 -23.31,-9.59 -59.95,-28.23 -98.37,-42.51 88.87,-7.19 177.73,-15.56 266.59,-24.7 38.14,14.13 75.96,24.46 119.9,37.84 83.67,25.3 153.14,68.17 233.1,99.05 139.31,54 288.79,95.59 434.82,138.48 92.57,27.03 199.56,46.81 286.63,81.09 41.82,16.61 76.26,47.94 124.2,55.26 59.35,9.44 113.78,-5.35 123.6,-53.08 24.01,-117.11 -358.5,-142.18 -450.47,-164.82 -75.96,-18.34 -152.52,-37.22 -226.66,-59.35 -91.88,-27.63 -159.93,-69.9 -246.61,-102 -67.35,-24.61 -142.39,-40.09 -218.67,-51.94 107.38,-12.52 214.37,-26.65 321.37,-42.12 0.69,0.21 1.2,0.21 1.88,0.21 328.37,12.76 623.9,89.55 936.04,157.29 64.55,13.8 362.57,82.21 302.32,-51.8z"/>
 </g>
</svg>
