<?xml version="1.0" encoding="UTF-8"?>
<!DOCTYPE svg PUBLIC "-//W3C//DTD SVG 1.1//EN" "http://www.w3.org/Graphics/SVG/1.1/DTD/svg11.dtd">
<!-- Creator: CorelDRAW 2021 (64-Bit) -->
<svg xmlns="http://www.w3.org/2000/svg" xml:space="preserve" width="22in" height="22in" version="1.1" style="shape-rendering:geometricPrecision; text-rendering:geometricPrecision; image-rendering:optimizeQuality; fill-rule:evenodd; clip-rule:evenodd"
viewBox="0 0 22000 22000"
 xmlns:xlink="http://www.w3.org/1999/xlink"
 xmlns:xodm="http://www.corel.com/coreldraw/odm/2003">
 <defs>
  <style type="text/css">
   <![CDATA[
    .fil0 {fill:none}
    .fil1 {fill:#2B2A29}
   ]]>
  </style>
 </defs>
 <g id="Layer_x0020_1">
  <metadata id="CorelCorpID_0Corel-Layer"/>
  <rect class="fil0" width="22000" height="22000"/>
  <path class="fil1" d="M5482.53 9011.65c-176.12,212.45 -233.45,487.7 -175.37,739.09 -205.85,-137.52 -450.3,-196.2 -709.65,-169 -49.59,5.63 -82.86,63.72 -54.97,109.5 154.7,258.96 585.89,583.56 898.91,416.08 187.63,65.63 367.27,150.48 543.29,246.16 -28.37,10.36 -55.89,23.52 -82,37.45 -43.8,-71.69 -119.1,-126.4 -189.74,-157.5 -37.98,-16.85 -73.86,1.35 -87.42,42.67 -49.2,151.3 -71.68,301.91 -73.69,460.92 -0.25,19.31 10.28,32.35 24.44,39.97 -16.96,35.52 -32.72,71.37 -47.39,107.43 -21.59,53.14 7.57,106.04 63.39,106.91 18.71,0.44 37.33,1.06 56.15,0.96 -3.87,68.98 18.43,139.25 53,199.58 24.84,43.19 57.25,81.86 95.02,112.28 -184.69,7.36 -368.4,12.5 -551.44,12.7 144.51,-479.92 -251.43,-936.44 -641.92,-1121.58 -45.09,-21.67 -99.96,10.3 -98.69,66.35 5.47,268.15 72.5,526.72 205.52,752.74 53.81,91.63 131.91,208.85 225.17,298.28 -443.25,-13.45 -877.65,-59.83 -1296.07,-169.51 127.03,-425.56 -64.03,-903.04 -474.98,-1049.78 -28.84,-10.4 -65.24,17.59 -70.89,47.68 -58.55,331.81 5.58,650.22 191.24,892.11 -384.5,-138.93 -752.45,-340.19 -1098.49,-628.44 -0.56,-0.15 -0.72,-1.52 -1.22,-2.12 5.76,-15.06 3.72,-31.72 -3.37,-44.54 135.69,-192.56 191.18,-451.74 176.49,-682.13 -8.89,-144.66 -67.48,-585.62 -282.11,-540.04 -187.91,39.65 -189.37,470.17 -190.32,616.37 -1.17,141.61 15.69,305.64 68.73,447.8 -346.72,-227.94 -807.77,-255.86 -1198.44,-119.74 -40.29,13.99 -51.44,68.46 -22.48,98.71 338.7,350.38 816.97,466.26 1267.6,314.81 20.01,10.88 45.37,10.35 69.73,-10.96 8.79,-8.05 17.1,-16.13 25.54,-24.83 7.52,6.09 15.09,11.49 22.49,17.57 1,0.94 2.13,1.24 3.2,1.46 174.05,210.29 375.19,379.85 595.9,516.48 -309.06,259.01 -312.92,831.74 -139.4,1153.17 20.62,38.49 76.51,51.84 111.36,25.36 309.67,-232.69 447.35,-646.06 334.34,-1015.72 145.01,66.06 295.35,121.67 450.48,166.99 16.02,14.84 37.97,22.4 58.56,17.1 155.13,42.73 314.08,76.51 475.3,102.59 -183.04,239.65 -216.83,592.88 -177.85,881.89 17.62,129.66 63.63,436.52 247.48,317.07 208.83,-136.34 328.42,-503.64 355.09,-740.27 11.01,-94.38 13.05,-284.6 -40.13,-410.53 224.85,20.53 451.84,29.76 675.26,31.23 -223.69,165.37 -231.19,645.13 -189.87,874.76 8.62,47.42 70.19,64.65 105.91,39.6 181.08,-128.16 375.36,-270.93 451.4,-498.73 29.66,-89.04 39.17,-177.52 21.67,-268.39 -11.18,-56.86 -35.67,-104.36 -62.68,-151.25 163.91,-3.96 324.37,-10.48 480.46,-18.71 10.18,-0.9 20.37,-1.6 30.67,-2.44 -113.58,361.85 -152.32,723.26 36.51,1070.14 23.24,42.74 81.68,44.84 113.09,10.14 150.04,-165.35 242.37,-369.41 262.87,-596.19 9.28,-102.84 3.58,-204.89 -17.83,-304.83 -13.46,-61.9 -56.7,-133.57 -83.91,-197.33 273.84,-16.39 548.58,-33.39 823,-41.53 -72.22,94.92 -122,218.06 -155.61,319.1 -78.51,236.13 -74.24,481.51 -11.66,715.84 13.8,50.71 63.56,70.25 108.94,59.35 399.4,-99.32 626.83,-702.82 521.24,-1097.65 289.84,4.63 577.74,25.14 863.9,71.61 -127.9,119.63 -229.04,263.61 -282.36,438.42 -85.74,281.31 -6.27,572.59 -57.02,858.13 -10.04,54.55 33.97,99 85.27,83.21 321.42,-98.86 588.46,-343.06 688.67,-687.35 35.79,-123.93 79.72,-427.8 9.57,-598.25 14.78,9.56 33.16,14.49 50.35,11.44 229.98,60.52 455.68,134.5 678.68,217.75 -104.53,55.59 -195.09,146.29 -254.65,249.73 -78.98,137.51 -139.23,303.45 -204.48,448.66 -61.29,134.16 -86.86,275.36 -94.95,421.77 -1.84,34.46 32.8,64.95 63.64,61.94 534.91,-56.5 826.79,-549.69 771.19,-1070.73 260.55,107.48 517.95,225.53 772.77,347.35 19.7,24.45 39.8,32.1 59.07,27.84 95.93,46.06 191.87,92.61 287.41,139.08 15.94,15.66 37.1,25.4 60.54,23.52 23.46,1.86 44.63,-7.84 60.55,-23.53 95.53,-46.47 191.46,-92.98 287.4,-139.07 19.27,4.23 39.38,-3.37 59.06,-27.84 254.83,-121.83 512.25,-239.85 772.78,-347.35 -55.6,521.03 236.27,1014.26 771.18,1070.73 30.87,3 65.51,-27.48 63.64,-61.94 -8.06,-146.42 -33.64,-287.58 -94.94,-421.77 -65.25,-145.22 -125.46,-311.12 -204.48,-448.66 -59.54,-103.47 -150.08,-194.13 -254.64,-249.73 223.01,-83.26 448.7,-157.21 678.69,-217.75 17.2,3.04 35.58,-1.85 50.34,-11.44 -70.11,170.46 -26.2,474.33 9.57,598.25 100.22,344.26 367.26,588.5 688.68,687.35 51.31,15.79 95.34,-28.65 85.26,-83.21 -50.74,-285.56 28.75,-576.81 -57.02,-858.13 -53.29,-174.83 -154.43,-318.79 -282.35,-438.42 286.15,-46.5 574.07,-66.98 863.88,-71.61 -105.56,394.8 121.88,998.35 521.25,1097.65 45.41,10.88 95.16,-8.62 108.94,-59.35 62.6,-234.33 66.86,-479.7 -11.65,-715.84 -33.62,-101.06 -83.38,-224.15 -155.63,-319.1 274.43,8.14 549.15,25.15 823,41.53 -27.17,63.76 -70.43,135.45 -83.9,197.33 -21.43,99.92 -27.1,202.01 -17.83,304.83 20.52,226.74 112.83,430.85 262.85,596.19 31.45,34.67 89.88,32.59 113.1,-10.14 188.83,-346.9 150.13,-708.27 36.53,-1070.14 10.3,0.83 20.48,1.57 30.67,2.44 156.11,8.2 316.55,14.76 480.46,18.71 -27.02,46.88 -51.48,94.42 -62.68,151.25 -17.5,90.87 -7.99,179.35 21.66,268.39 76.07,227.77 270.34,370.6 451.42,498.73 35.72,25.02 97.3,7.83 105.91,-39.6 41.35,-229.63 33.83,-709.38 -189.88,-874.76 223.44,-1.48 450.46,-10.69 675.28,-31.23 -53.16,125.92 -51.13,316.17 -40.14,410.53 26.65,236.61 146.27,603.94 355.07,740.27 183.9,119.45 229.92,-187.41 247.5,-317.07 39.01,-289.01 5.22,-642.2 -177.83,-881.89 161.2,-26.09 320.18,-59.86 475.28,-102.59 20.61,5.28 42.54,-2.26 58.56,-17.1 155.15,-45.33 305.49,-100.92 450.49,-166.99 -112.98,369.65 24.69,783.04 334.33,1015.72 34.86,26.45 90.74,13.15 111.37,-25.36 173.52,-321.46 169.65,-894.14 -139.41,-1153.17 220.73,-136.65 421.85,-306.18 595.91,-516.48 1.07,-0.24 2.2,-0.51 3.18,-1.46 7.43,-6.09 14.97,-11.46 22.49,-17.57 8.45,8.69 16.76,16.8 25.56,24.83 24.36,21.31 49.73,21.85 69.72,10.96 450.65,151.44 928.88,35.58 1267.61,-314.81 28.98,-30.28 17.81,-84.71 -22.49,-98.71 -390.65,-136.13 -851.71,-108.19 -1198.43,119.74 53.04,-142.19 69.89,-306.19 68.73,-447.8 -0.95,-146.21 -2.42,-576.7 -190.32,-616.37 -214.63,-45.58 -273.21,395.38 -282.12,540.04 -14.69,230.38 40.8,489.6 176.5,682.13 -7.06,12.8 -9.13,29.5 -3.39,44.54 -0.45,0.58 -0.65,2 -1.21,2.12 -346.03,288.24 -713.96,489.51 -1098.5,628.44 185.67,-241.89 249.81,-560.28 191.26,-892.11 -5.64,-30.1 -42.04,-58.06 -70.9,-47.68 -410.93,146.73 -602.03,624.24 -474.98,1049.78 -418.41,109.66 -852.81,156.08 -1296.07,169.51 93.28,-89.43 171.37,-206.65 225.17,-298.28 133.02,-226.04 200.04,-484.58 205.49,-752.74 1.3,-56.07 -53.56,-88 -98.66,-66.35 -390.49,185.14 -786.43,641.67 -641.92,1121.58 -183.04,-0.21 -366.75,-5.34 -551.44,-12.7 37.79,-30.44 70.19,-69.08 95,-112.28 34.59,-60.34 56.9,-130.59 53.02,-199.58 18.83,0.1 37.46,-0.51 56.15,-0.96 55.81,-0.87 85,-53.76 63.39,-106.91 -14.67,-36.07 -30.43,-71.9 -47.41,-107.43 14.15,-7.62 24.7,-20.66 24.45,-39.97 -2.03,-159.03 -24.48,-309.6 -73.69,-460.92 -13.57,-41.33 -49.42,-59.51 -87.41,-42.67 -70.63,31.07 -145.93,85.81 -189.76,157.5 -26.09,-13.95 -53.62,-27.07 -81.98,-37.45 176.01,-95.67 355.69,-180.52 543.28,-246.16 313.01,167.47 744.22,-157.11 898.9,-416.08 27.89,-45.8 -5.35,-103.85 -54.95,-109.5 -259.34,-27.23 -503.8,31.49 -709.67,169 58.08,-251.39 0.77,-526.63 -175.34,-739.07 -22.7,-27.44 -71.57,-32.56 -94.66,-4.8 -210.55,249.34 -302.49,722.3 -74.43,1000.04 -209,66.89 -408.11,159.19 -602.16,263.99 -34.57,-139.03 -122.93,-270.92 -224.07,-356.11 -163.12,-137.35 -348.11,-164.06 -545.8,-139.67 -29.19,3.59 -55.81,38.97 -54.88,69.35 7.96,215.95 143.38,386.36 296.24,520.41 48.39,41.58 105.45,85.41 166.61,115.94 -222.17,136.33 -441.65,278.78 -667.28,407.76 39.91,-174.31 35.5,-352.07 -19.18,-534.81 -38.32,-129.4 -118.15,-441.39 -262.5,-480.5 -25.15,-6.72 -53.85,-3.96 -72.73,16.57 -214.61,242.08 -260.93,904.3 0.62,1184.93 -149.91,70.98 -304.18,132.3 -464.97,178.44 -16.7,4.39 -27.39,14.27 -34.87,25.37 -149.31,16.56 -297.85,38.41 -445.67,67.04 219.82,-335.16 91.98,-811.41 -63.77,-1187.99 -12.88,-30.23 -58.37,-54.29 -87.55,-42.52 -238.38,90.5 -307.16,429.37 -343.59,670.32 -34.37,226.7 -18.98,459.52 82.48,659.75 -453.46,128.22 -890.28,311.94 -1318.76,514.08 179.04,-343.47 172.69,-774.8 55.39,-1165.7 -21.63,-72.08 -104.74,-88.18 -145.9,-28.18 -237.69,344.95 -487.74,665.67 -442.66,1122.58 4.3,39.79 38.64,179.46 86.34,288.69l-239.73 120.07 -239.74 -120.09c47.67,-109.22 82.02,-248.86 86.3,-288.67 45.11,-456.92 -204.94,-777.61 -442.65,-1122.58 -41.16,-60 -124.24,-43.89 -145.9,28.18 -117.27,390.91 -123.62,822.23 55.4,1165.7 -428.48,-202.14 -865.29,-385.85 -1318.75,-514.08 101.47,-200.24 116.88,-433.04 82.47,-659.75 -36.4,-240.98 -105.19,-579.8 -343.57,-670.32 -29.16,-11.77 -74.68,12.3 -87.54,42.52 -155.74,376.56 -283.59,852.84 -63.77,1187.99 -147.83,-28.63 -296.35,-50.48 -445.69,-67.04 -7.44,-11.12 -18.15,-20.98 -34.85,-25.37 -160.77,-46.15 -315.06,-107.46 -464.99,-178.44 261.57,-280.65 215.27,-942.83 0.63,-1184.93 -18.87,-20.53 -47.55,-23.28 -72.73,-16.57 -144.34,39.09 -224.15,351.13 -262.48,480.5 -54.68,182.72 -59.06,360.5 -19.19,534.81 -225.61,-128.98 -445.1,-271.43 -667.27,-407.76 61.16,-30.54 118.23,-74.37 166.61,-115.94 152.87,-134.06 288.3,-304.44 296.23,-520.41 0.94,-30.41 -25.67,-65.74 -54.86,-69.35 -197.7,-24.4 -382.66,2.33 -545.8,139.67 -101.15,85.18 -189.5,217.11 -224.09,356.11 -194.04,-104.8 -393.14,-197.1 -602.16,-263.99 228.07,-277.75 136.13,-750.67 -74.43,-1000.04 -23.07,-27.76 -71.94,-22.61 -94.63,4.79zm8941.91 2231.07c139.97,-3.71 280.59,-3.84 420.61,-1.31 -50.48,-36.01 -93.74,-80.65 -120.13,-132.71 -98.33,49.16 -198.83,94.07 -300.49,134.02zm704.17 -357.24c202.63,10.72 399.91,99.69 551.56,264.04 25.05,26.88 25.63,66.03 10.35,97.06 -6.16,11.88 -12.74,21.59 -20.06,30.79 42.98,2.66 86.51,5.35 130,7.28 -18.87,-51.98 -31.01,-107.39 -35.27,-157.68 -6.66,-75.96 -2.21,-182.75 45.59,-246.69 -8.96,-6.17 -18.93,-10.84 -28.7,-17.26 -90.73,-62.57 -165.24,-151.89 -203.28,-254.61 -150.22,92.39 -299.52,187.16 -450.2,277.1l0.02 -0.04zm-7553.05 357.24c-139.96,-3.71 -280.62,-3.84 -420.64,-1.31 50.53,-36.01 93.76,-80.65 120.13,-132.71 98.38,49.16 198.83,94.07 300.52,134.02zm-704.17 -357.24c-202.66,10.72 -399.94,99.69 -551.57,264.04 -25.02,26.88 -25.65,66.03 -10.36,97.06 6.18,11.88 12.75,21.59 20.07,30.79 -42.93,2.66 -86.51,5.35 -130,7.28 18.88,-51.98 31.01,-107.39 35.26,-157.68 6.69,-75.96 2.22,-182.75 -45.59,-246.69 9,-6.17 18.94,-10.84 28.7,-17.26 90.77,-62.57 165.25,-151.89 203.28,-254.61 150.22,92.39 299.53,187.16 450.19,277.1l0.02 -0.04z"/>
 </g>
</svg>
