<?xml version="1.0" encoding="UTF-8"?>
<!DOCTYPE svg PUBLIC "-//W3C//DTD SVG 1.1//EN" "http://www.w3.org/Graphics/SVG/1.1/DTD/svg11.dtd">
<!-- Creator: CorelDRAW 2021 (64-Bit) -->
<svg xmlns="http://www.w3.org/2000/svg" xml:space="preserve" width="22in" height="22in" version="1.1" style="shape-rendering:geometricPrecision; text-rendering:geometricPrecision; image-rendering:optimizeQuality; fill-rule:evenodd; clip-rule:evenodd"
viewBox="0 0 22000 22000"
 xmlns:xlink="http://www.w3.org/1999/xlink"
 xmlns:xodm="http://www.corel.com/coreldraw/odm/2003">
 <defs>
  <style type="text/css">
   <![CDATA[
    .fil0 {fill:none}
    .fil1 {fill:#2B2A29}
   ]]>
  </style>
 </defs>
 <g id="Layer_x0020_1">
  <metadata id="CorelCorpID_0Corel-Layer"/>
  <rect class="fil0" width="22000" height="22000"/>
  <path class="fil1" d="M14721.89 9414.99c0.54,-13.44 0.28,-26.86 -0.62,-40.3 2.12,22.2 2.63,37.67 0.62,40.3zm-7443.13 -40.32c-0.96,13.44 -1.22,26.9 -0.69,40.32 -2.03,-2.65 -1.43,-18.11 0.69,-40.32zm-5468.13 2559.3c58.28,39.51 166.94,-9.03 199.71,-70.57 17.59,-1.22 35.48,-3.64 53.38,-7.02 -9.2,8.75 -16.84,18.79 -21.89,29.96 -16.01,34.87 -9.22,82.76 27.33,105.47 48.71,30.29 103.44,-3.38 131.07,-41.52 18.43,-25.15 30.89,-55.86 39.04,-85.17 4.32,-15.86 11.92,-35.42 7.85,-51.28 8.15,-2.2 16.22,-4.37 24.46,-6.57 -8.24,22.43 -12.76,45.16 -13.08,62.99 -0.3,43.41 33.3,76.41 82.17,77.84 94.99,2.48 138.16,-206.96 142.16,-208.7 15.73,-6.12 -15.99,82.3 -15.48,131.07 0.62,58.82 57.77,96.96 120.67,90.62 71.21,-7.11 113.48,-68.19 121.04,-127.99 0.3,-1.91 0.3,-4.39 0.51,-6.57 23.65,37.58 62.15,72.56 109.56,71.06 79.9,-2.2 103.22,-84.5 100.72,-142.33 -1.05,-23.95 -5.65,-47.88 -12.67,-71.06 53.61,44.93 147.98,75.96 214.59,51.28 75.57,-27.57 44.39,-134.02 12.97,-180.62 -25.21,-37.61 -62.58,-66.67 -101.85,-92.03 -24.14,-15.65 -49.08,-29.75 -74.29,-43.73 179.42,33 368.54,41.07 551.41,54.45 60.72,13.42 121.95,24.91 183.79,34.95 -23.63,-2.5 -47.19,-3.92 -71.06,-5.67 -68.25,-4.6 -206.73,-23.39 -218.89,61.77 -10.32,69.62 62.3,115 133.81,122.1 -63.12,2.19 -163.09,14.34 -155.02,90.54 7.11,67.85 106.31,75.94 164.22,75.19 7.62,-0.32 15.41,-0.75 23.33,-0.98 -13.29,4.15 -25.45,8.3 -35.49,11.94 -50.74,18.11 -159.83,16.61 -168.52,86.44 -4.6,39.56 36.23,66.14 77.48,77.61 -16.54,1.22 -33,2.95 -49.01,5.37 -46.12,7.3 -83.52,40.32 -76.41,85.16 3.25,20.53 14.57,35.96 29.96,46.89 -62.28,-2.93 -125.7,15.86 -138.93,67.89 -3.77,14.85 -1.05,28.53 5.74,40.24 -23.31,1.26 -46.13,8.07 -65.39,20.76 -34.12,22.94 -47.35,67.42 -19.18,98.9 17.61,20.01 34.44,18.07 59.89,16.31 28.7,-1.97 54.66,-4.15 80.47,-17.36 6.21,-3.19 12.16,-7.26 17.53,-11.92 1.43,41.97 26.58,79.81 80.56,75.19 44.93,-4.15 73.61,-37.07 89.94,-72.26 16.52,-35.19 31.4,-91.82 16.22,-131.82 6.81,-5.13 13.89,-10.51 20.55,-15.86 0.6,3.38 0.81,6.87 1.11,10.27 1.67,17.06 -2.4,35.4 -0.3,52.25 3.85,30.95 32.02,55.65 66.67,57.61 120.67,6.79 74.07,-172.61 51.58,-238.98 8.07,-9.82 15.92,-20.07 23.78,-30.26 6.27,24.08 16.55,48.54 20.85,64.7 10.34,40.24 21.75,87.05 78.83,85.16 46.44,-1.52 77.54,-36.62 73.46,-76.71 -3.53,-33.15 -21.96,-68.55 -33.82,-100.04 -13.89,-36.85 -26.88,-74.01 -43.13,-109.86 -1.05,-2.42 -3.02,-4.39 -4.6,-6.35 5.7,-10.72 11.32,-21.66 17.15,-32.47 9.67,59.11 27.57,121.35 59.89,168.01 27.33,39.02 82.3,78.59 133.79,47.56 55.82,-33.45 34.12,-97.7 12.99,-142.85 -6.48,-14.13 -14.43,-29.98 -23.33,-46.59 81.31,81.01 178.03,134.24 230.06,47.11 51.2,-85.7 -79.66,-150.63 -136.3,-194.04 -5.71,-4.39 -12.76,-10.49 -20.31,-17.59 29.6,19.24 60.4,35.64 92.65,46.89 73.48,25.34 174.78,40.47 208.91,-38.14 34.97,-80.58 -24.38,-150.1 -106.46,-184.3 -48.84,-20.24 -108.88,-21.21 -161.51,-28.55 -52.01,-6.87 -106.46,-21.43 -157.74,-11.24 -0.43,-0.26 -1.05,-0.45 -1.88,-0.69l5.74 -21.98c219.15,24.17 442.7,30.97 664.37,29 -4.67,0.75 -9.2,1.52 -13.59,2.27 -57.36,8.99 -136.51,27.26 -121.1,96.87 13.8,62.73 94.6,77.93 153.65,66.37 11.11,-2.2 22.5,-4.6 33.82,-6.79 -8.88,2.91 -17.81,5.89 -26.2,9.06 -52.1,19 -132.21,77.31 -93.56,132.29 23.65,33.88 51.8,41.97 82.08,39.79 -53.92,24.14 -90.45,63.72 -77.39,123.96 0.24,1.97 0.83,3.41 1.28,5.14 -51.73,20.22 -89.1,54.9 -85.4,107.44 4.45,60.55 54.51,73.54 93.55,73.84 -29.6,3.92 -60.33,8.63 -84.5,18.13 -24.46,9.29 -18.49,21.74 -31.19,36.38 -15.24,17.59 -36.92,17.38 -46.13,41.99 -7.77,21.72 -0.83,41.97 13.89,57.38 -24.38,9.5 -45.31,24.91 -57.47,46.59 -15.99,28.31 -12.76,51.02 1.37,68.41 -45.52,9.27 -81.09,62.73 -81.33,102 0,25.67 10.87,51.5 37.45,60.79 -26.56,41.52 -18.49,95.2 26.5,124.26 55.5,36.09 109.5,5.37 134.62,-44.93 13.61,-27.09 18.22,-56.61 20.93,-85.91 0.3,-0.47 0.3,-0.98 0.3,-1.44 14.87,16.29 34.65,27.55 55.8,36.54 27.65,12.01 28.98,8.31 56.63,2.5 8.61,-1.99 17.27,-9.29 19.24,-17.38 9.74,-41.99 15.17,-84.48 13.29,-127.37 21.38,21.66 51.71,30.5 85.25,13.89 50.12,-24.91 48.84,-81.99 42.89,-126.47 -0.83,-6.14 -2.27,-13.68 -3.55,-21.74 15.49,10.25 35.78,14.19 62.07,9.05 56.33,-11.47 86.68,-69.54 77.69,-117.63 29.83,9.5 63.12,9.74 87.28,-6.63 19.26,-13.4 25.21,-34.67 24.38,-55.58 -0.81,-15.63 -8.07,-29.6 -10.57,-44.99 -3.23,-19.26 1.67,-39.72 -2.4,-59.05 -1.58,-8.09 -4.32,-15.63 -8.09,-22.97 42.23,28.08 126.7,57.92 139.16,-14.19 5.74,-32.4 -5.37,-69.77 -22.96,-104.94 33.02,15.62 69.92,21.27 103.52,1.5 58.45,-34.44 46.59,-107.35 10.28,-150.63 -13.5,-16.39 -30.97,-30.05 -49.08,-42.95 84.26,28.31 167.46,26.58 205.66,-44.63 36.02,-67.89 -44.99,-134.33 -104.04,-164.83 -39.02,-20.24 -86.15,-29.3 -134.93,-32.7 246.52,-12.46 493.43,-30.74 739.73,-53.91 -7.08,1.65 -14.43,2.89 -21.23,4.62 -68.24,16.59 -183.1,59.56 -161.12,142.01 12.76,48.84 69.84,64.27 127.82,67.44 -1.05,0.43 -2.4,0.96 -3.77,1.43 -52.54,25.88 -96.72,85.46 -79.88,142.09 16.16,56.1 67.66,69.09 120.5,63.5 -56.63,35.1 -101.32,102.22 -70.14,164.44 17.06,34.44 50.13,49.08 87.5,53.23 -32.53,20.76 -58.81,46.44 -62.28,77.93 -6.04,51.93 40.92,82.44 91.07,92.27 -33.13,16.59 -61.02,37.82 -68.94,74.68 -10.49,48.84 30.11,75.21 76.71,84.71 -63.95,22.94 -114.85,60.33 -111.08,118.4 2.53,37.8 25.15,59.8 57.17,70.97 -52.24,14.41 -90.24,43.04 -81.55,96.48 7.11,42.42 41.76,64.64 84.8,73.24 -32.23,13.67 -62.3,32.7 -70.97,64.87 -8.15,30.56 3.53,61.75 25.51,85.25 -43.4,9.72 -79.96,42.19 -86.74,85.91 -4.3,28.53 5.2,56.39 24.91,78.14 -9.52,5.82 -17.89,12.39 -24.61,19.03 -32,31.48 -45.22,80.8 -5.97,112.06 34.65,27.55 88.35,44.16 126.56,13.36 30.26,-24.85 33.28,-58.6 26.5,-91.52 22.49,17.06 50.66,31.04 73.15,18.58 35.27,-19.56 49.08,-84.48 49.85,-121.78 16.31,4.6 36.39,1.2 59.87,-15.63 54.81,-39.36 48.54,-107.23 25.75,-166.49 27.95,20.98 60.7,24.91 88.11,-12.69 29.83,-41.29 20.31,-99.35 1.67,-142.33 -5.82,-12.99 -13.59,-30.26 -23.65,-47.64 10.06,6.57 21.38,12.01 33.6,15.65 42.61,12.22 120.58,1.73 144.21,-37.39 22.96,-37.84 -7.62,-98.3 -29.06,-131.52 -8.91,-13.89 -19.48,-27.63 -31.1,-40.77 36.56,6.79 75.57,-2.18 86.68,-38.35 16.52,-53.17 1.88,-112.52 -29.83,-163.99 64.48,29.28 134.92,29.96 183.4,-32.02 37.15,-47.36 27.93,-96.87 -4.54,-142.78 19.71,1.95 40.11,0.45 59.89,-5.37 90.98,-27.57 85.1,-111.06 35.72,-168.44 -13.22,-15.41 -28.17,-29.54 -44.17,-42.98 14.64,3.7 29.81,6.57 45.82,8.32 84.28,8.82 164.67,-46.38 150.33,-128.67 -4.37,-25.15 -19.48,-47.34 -40.09,-66.13 52.33,-7.34 92.63,-32.92 110.61,-85.7 24.63,-73.71 -52.1,-114.7 -114.91,-140.15 -154.49,-61.47 -292.13,-38.5 -451.37,-45.82 414.23,-47.36 826.92,-107.68 1236.62,-177.73 -72.94,29.04 -164.55,89.61 -133.96,163.09 11.49,27.07 37.15,44.69 69.69,56.31 -49.29,58.67 -0.81,154.33 69.32,192.15 -27.03,44.39 -31.42,101.11 -3.47,146.72 4.93,8.31 10.55,15.41 16.52,21.75 -90.28,75.64 -66.97,230.21 59.05,268.05 130.34,39.25 94.3,-12.01 -52.54,84.93 -54.22,35.87 -149.05,144 -70.76,202.58 33.54,25.15 85.63,24.7 137.73,14.34 -103.95,47.71 -212.94,119.69 -159.39,187.57 42.8,54.28 156.52,31.33 233.98,7.54 -41.52,16.91 -93.25,40.32 -134.03,65.39 -53.66,33.22 -111.06,105.71 -46.87,157.2 38.2,30.56 111.15,20.55 176.68,0.3 -4.07,5.59 -8.09,11.26 -19.26,16.85 -9.2,4.37 -21.06,5.58 -30.59,9.52 -36.3,14.85 -77.99,47.32 -97.85,78.59 -16.52,26.11 -12.15,55.65 14.13,75.43 37.93,28.1 95.89,17.29 138.24,3.4 8.63,-2.95 18.66,-6.87 29.15,-11.71 -4,8.31 -8.07,16.85 -12.46,25.15 -7.23,0.21 -15.11,1.2 -23.78,1.97 -47.41,5.35 -100.27,4.37 -146.87,15.84 -53.38,13.2 -116.28,59.8 -94.07,116.67 20.38,51.47 86.75,53.46 137.71,41.31 -28.15,21.72 -59.87,34.87 -86.21,57.83 -41.16,35.87 -77.71,86.89 -99.67,134.24 -36.08,78.14 -62.6,156.97 35.49,192.09 50.66,18.34 88.86,35.72 137.64,12.69 44.5,-20.7 84.8,-64.19 105.92,-103.91 22.52,-42.74 39.04,-107.21 41.24,-169.72 25.75,27.61 59.26,43.94 98.91,34.65 37.69,-8.78 41.91,-37.07 38.44,-65.6 21.36,13.42 45.52,20.76 72.02,19.54 138.18,-6.65 -98.84,-384.76 -96.93,-388.91 8.91,-9.97 58.28,75.19 96.19,121.63 32.17,39.25 114.85,123.45 179.4,81.93 66.61,-42.68 -0.6,-145.74 -27.48,-189.16 -34.03,-56.18 -110.24,-210.65 -77.69,-169.66 41.16,51.8 80.26,107.15 125.7,156.22 42.61,45.22 150.12,89.64 176.92,4.39 10.06,-31.27 -10.87,-88.03 -47.11,-149.35 40.92,27.33 79.43,28.76 110.52,-15.63 46.38,-66.39 16.31,-202.67 -19.24,-267.75 -11.84,-21.53 -26.58,-42.72 -42.3,-63.8 58.6,60.31 151.24,133.57 236.87,99.67 110.85,-43.96 47.41,-165.81 -8.69,-222.89 -49.35,-50.08 -110.52,-94.45 -175.85,-134.78 3.02,1.43 5.44,2.95 8.39,4.39 26.82,11.24 55.26,7.62 82.15,15.63 11.86,3.68 46.27,30.05 69.09,32.77 34.35,3.85 112.64,1.2 143.83,-17.59 68.04,-40.34 11.94,-104.96 -32.23,-137.49 -18.19,-13.37 -37.69,-26.05 -57.68,-38.29 54.96,5.35 108.57,-6.57 141.71,-50.06 44.62,-58.6 9.22,-112.04 -42.06,-150.1 41.24,-3.19 79.43,-22.94 113.87,-71.27 63.97,-89.87 -0.3,-203.33 -97.56,-250.76 -45.29,-22.11 -97.32,-39.72 -152.28,-53.91 7.56,-1.2 15.71,-2.42 24.38,-3.92 55.58,-8.24 101.86,0.98 153.05,-26.35 51.28,-27.14 81.01,-76.41 106.76,-122.56 5.69,-10.06 5.14,-22.88 -4.37,-31.25 -38.65,-32.94 -55.5,-68.79 -103.44,-90.09 -48.48,-21.68 -117.57,-25.59 -171.78,-26.05 -147.06,-1.75 125.19,-116.96 408.56,-149.43 -8.6,22.41 -11.85,46.59 -8.39,70.99 4.93,34.18 28.7,60.31 61.24,80.11 -74.74,53.21 -107.3,196.01 -50.43,266.51 14.96,18.58 32.53,31.27 52.39,40.11 -67.5,21.72 -111.44,82.74 -90.6,149.65 6.27,19.99 15.47,36.32 26.35,49.98 -47.19,61.3 -50.96,120.37 -18.43,162.11 -90.75,2.72 -97.85,129.34 -45.52,199.2 -54.45,27.31 -65.85,100.57 -54.15,152.37 15.86,72.92 59.05,108.13 137.88,117.39 9.67,1.05 18.34,2.06 26.43,2.95 -62.97,-5.22 -126.92,-13.14 -189.52,0.45 -70.52,15.41 -143.38,74.23 -107.06,146.72 29.21,58.35 75.81,88.87 130.83,99.59 -120.89,23.39 -209.96,72.02 -158.49,169.13 33.39,62.73 108.36,61.3 174.2,49.61 -28.68,6.79 -57.46,16.82 -85.31,32.17 -56.93,31.01 -121.12,89.38 -95.44,155.54 11.71,30.03 33.37,42.42 58.88,45.61 -26.56,20.06 -49.68,45.67 -68.11,71.04 -23.24,32.02 -21.89,46.66 1.97,77.69 20.01,26.05 28.17,32.41 60.64,37.07 0.32,-0.3 0.3,-0.3 0.6,-0.3 1.91,1.05 3.46,2.5 5.65,3.02 9.31,0.24 14.43,0.69 23.35,-1.5 11.32,-3.19 23.63,-8.01 36.09,-13.89 -7.41,7.77 -14.72,15.63 -21.98,23.39 -45.5,-5.13 -125.7,25.39 -143.68,44.41 -21.87,23.46 -20.85,62.28 3.02,84.71 1.91,1.73 4.09,2.93 6.19,4.69 -10.02,6.1 -19.69,12.46 -28.98,18.04 -9.22,5.42 -18.88,10.49 -26.82,17.59 -3.46,2.93 -15.71,16.61 -12.97,16.61 -12.99,5.11 -21.68,15.86 -17.59,29.06 5.67,19.24 6.49,41.97 27.1,53.68 8.3,4.9 17.83,6.57 27.57,5.07 7.08,-0.92 12.46,-5.07 18.49,-7.56 29.75,4.22 48.48,-19.48 63.87,-43.64 3.34,-5.16 6.81,-11.02 10.06,-16.84 -0.54,22.64 6.25,52.18 38.8,48.54 36.24,-4.15 71.51,-55.18 83.13,-81.76 20.1,-46.15 -9.5,79.81 93.55,67.87 39.28,-4.47 61.77,-44.69 74.44,-85.16 12.26,27.24 33.6,50.96 70.97,36.62 38.76,-15.41 55.88,-77.69 64.78,-135.52 12.48,70.5 38.2,115.66 85.85,104.19 85.93,-20.23 94.83,-160.61 92.95,-220.86 -0.22,-3.47 -0.54,-6.87 -0.54,-10.27 24.4,55.43 59.89,87.67 111.38,77.63 97.34,-18.6 80.71,-202.58 71.51,-261.48 -27.33,-172.85 -73.69,-319.97 -29,-218.65 27.12,61 81.31,220.17 178.11,196.24 115.39,-28.57 137.04,-198.21 104.19,-278.78 -31.85,-78.4 -93.17,-140.59 -154.4,-201.15 -73.07,-72.49 -27.33,-69.83 73.99,46.36 50.15,57.59 176.38,249.24 283.14,155.77 95.16,-83.3 55.5,-232.41 -12.22,-312.97 -51.71,-61.24 -124.35,-110.08 -189.07,-159.84 -73.76,-56.42 -70.22,-84.03 -37.13,-45.67 18.94,22.19 34.41,42.2 57.98,60.55 79.15,61.98 296.96,175.7 401.54,102.54 76.11,-53.76 79.34,-159.24 26.5,-226.3 60.78,7.75 118.46,-2.72 157.42,-51.04 87.52,-108.13 18.43,-224.86 -95.59,-274.15 75.06,7.83 142.78,-17.08 185.91,-103.29 57.68,-115.92 17.06,-202.07 -105.71,-248.94 -76.92,-29.32 -202.13,-70.61 -187.49,-69.09 102.41,10.49 156.31,17.59 245.24,-41.99 0.02,-0.32 0.24,-0.3 0.24,-0.52 128.14,87.86 242.22,195.32 340.07,322.48 66.31,86.21 209.39,12.01 156.31,-82.23 -93.47,-166.51 -227.04,-303 -385,-411.13 4.09,-92.27 -52.87,-141.56 -139.01,-163.31 130.85,-1.22 279.07,-30.28 291.29,-158.19 7.56,-78.59 -63.12,-134.26 -129.79,-174.05 -82.98,-49.29 -155.54,-54.43 -240.87,-57.3 51.43,-5.91 102.93,-12.54 154.4,-20.31 77.27,-11.94 178.05,-7.11 227.07,-70.52 35.48,-45.91 37.88,-112.81 16.52,-164.07 -35.25,-83.98 -105.41,-115.98 -185.05,-122.32 112.13,-29.24 219.19,-79.28 164.2,-209.9 -31.4,-73.93 -109.69,-98.6 -198.04,-99.82 57.62,-47.43 83.67,-120.13 26.5,-186.51 -47.17,-54.45 -128.95,-62.05 -199.09,-54.66 -80.26,8.22 -171.24,21.98 -254.22,43.94 196.22,-88.12 343.84,-197.51 223.56,-354.71 -93.77,-122.77 -295.36,32.23 -380.69,84.95 -156.05,96.93 -223.79,102.76 -112.43,42.21 76.43,-41.24 149.05,-83.52 207.8,-144.75 82.15,-85.72 71.57,-224.86 -50.9,-283.89 -115.66,-55.88 -246.28,117.18 -302.17,185.05 -66.35,81.03 317.88,-400.86 64.04,-482.4 -72.64,-23.2 -134.95,38.82 -173.98,97.94 4.62,-13.97 9.14,-27.87 12.69,-41.54 17.68,-65.39 21.98,-183.56 -61.15,-218.95 -68.62,-29 -115.54,21.74 -147.7,103.97 0.26,-59.07 -8.96,-130.56 -54.51,-155.7 -39.79,-21.96 -74.97,4.62 -97.26,36.41 -7.83,-42.74 -28.44,-83.28 -71.48,-96.2 -73.99,-21.74 -94.54,32.94 -106.24,83.75 -9.2,39.47 -10.79,95.65 0,145.2 -9.5,-10.29 -19.48,-20.24 -29.22,-30.28 9.74,-50.75 8.91,-114.7 -13.59,-160.61 -13.57,-27.63 -54.75,-75.19 -92.42,-75.64 -36,-0.32 -43.87,31.7 -46.06,58.81 -10.04,-32.47 -34.95,-65.47 -58.75,-77.84 -11.69,-6.12 -26.88,-3.49 -34.95,-5.14 -8.46,-1.99 -17.98,-10.27 -31.19,-10.04 -33.9,0.75 -45.82,25.9 -59.11,49.29 -6.48,11.26 -4.54,29.6 10.04,35.42 9.53,3.7 15.48,16.16 23.33,22.5 8.39,6.78 18.73,11.92 28.23,17.3 7.34,4.15 15.11,9.05 23.03,13.89 -0.3,0.3 -0.3,0.3 -0.3,0.3 -32.77,17.29 -45.52,55.65 -22.5,83.96 25.21,30.95 82.59,39.79 120.35,51.26 15.94,4.81 39.49,10.72 59.59,9.52 7.02,7 14.04,14.34 21.36,21.44 -22.49,-11.49 -45.82,-21.44 -67.72,-25.15 -40.93,-7.34 -127.31,16.85 -136,64.7 -6.19,34.2 46.89,79.06 70.67,100.06 3.85,3.45 7.32,6.1 11.17,8.82 -33.35,0.75 -62.67,11.71 -80.56,42.98 -44.69,79.02 60.78,141.35 125.19,170.86 6.81,3.15 13.89,6.12 20.91,8.75 -79.13,-12.69 -170.18,-11.47 -200.01,59.35 -32.21,77.37 47.73,126.92 163.09,159.15 -69.3,5.14 -135.67,25.6 -167.61,73.03 -53.38,79.28 37.37,133.25 111.81,152.52 39.9,10.25 80.26,15.17 120.89,17.83 -8.13,2.18 -16.01,4.9 -23.87,7.77 -89.08,35.91 -127.28,196.76 -66.13,234.15 -35.4,25.13 -60.1,60.31 -57.15,104.94 3.02,48.09 42.27,76.41 87.58,84.71 -46.66,32.23 -62.37,82.76 -9.74,152.07 -16.61,11.02 -30.89,24.91 -41.76,43.28 -44.48,74.65 10.87,121.55 78.53,146.93 -10.79,2.93 -21.68,6.33 -31.96,10.72 -136.78,60.55 -118.38,205.81 -30.86,272.41 -47.71,16.37 -83.75,42.74 -90.54,84.72 -1.88,11.47 -2.2,22.19 -1.67,32.46 -69.3,-40.02 -143.53,-46.36 -219.42,-33.9 41.46,-22.52 79.66,-46.42 111.98,-71.81 83.69,-66.37 124.05,-193.59 33.52,-267.81 -46.27,-38.29 -88.33,-49.52 -128.65,-44.62 40.11,-47.11 62.61,-106.46 4.3,-154.04 -45.22,-37.37 -103.5,-37.13 -157.42,-18.79 2.5,-2.18 4.9,-4.37 7.02,-6.57 43.87,-42.29 143.83,-143.29 41.46,-184.6 -13.5,-5.31 -22.73,-2.42 -33.54,-0.92 0,0.66 -96.78,7.26 -95.13,6.81 -12.14,4.37 -21.13,9.74 -30.89,16.07 -18.41,25.45 -43.64,41.54 -76.11,48.18 -4.43,1.65 -8.67,3.46 -13.06,5.28 116.88,-151.47 208.17,-319.61 59.05,-360.53 -82.06,-22.67 -148.67,28.31 -201.83,106.24 3.79,-11.49 7.56,-23.2 10.28,-34.67 17.14,-71.06 12.76,-210.65 -51.43,-264.11 -41.74,-34.74 -78.59,-26.2 -110.52,7.02 18.43,-63.74 24.61,-119.6 11.32,-145.73 -37.07,-73.01 -128.65,-37.58 -164.76,14.96 -39.77,57.83 -62.58,130.56 -90.75,193.52 -21.15,46.87 10.87,-116.2 29.3,-176.46 14.57,-46.9 55.2,-166.26 -24.91,-192.37 -74.52,-24.19 -132.83,80.56 -152.6,123.96 -17.3,38.8 -27.03,78.76 -30.05,119.06 5.74,-59.86 22.35,-167.31 30.35,-216.47 8.69,-53.68 9.44,-118.61 -31.19,-162.32 -5.65,-6.36 -15.71,-7.02 -23.78,-5.82 -30.44,5.12 -55.65,20.01 -75.66,41.22 -2.93,-31.06 -13.5,-62.22 -56.03,-62.52 -40.15,0 -68.02,22.28 -85.61,53.76 -19.56,-64.19 -56.39,-127.45 -94.83,-165.51 -31.7,-31.72 -95.74,-74.68 -145.58,-74.44 -41.44,0.19 -89.61,33.67 -120.8,56.61 -77.24,56.63 1.58,156.99 52.84,209.24 33.63,34.35 78.31,73.16 124.59,93.7 28.17,12.46 55.8,16.61 84.8,29.75 -58.22,-0.7 -134.32,21.51 -122.4,85.7 10.59,56.93 79.96,78.89 136.59,76.65 43.28,-1.69 88.57,-10.96 131.61,-15.35 8.39,-0.98 16.01,-1.74 23.11,-2.93 6.19,7.08 12.46,14.43 18.64,21.44 -16.22,-3.19 -31.42,-5.29 -44.99,-6.04 -55.2,-3.19 -177.22,28.3 -123.54,99.8 24.91,33.43 83.73,58.6 126.56,65.92 23.78,3.83 39.02,10.27 59.87,19.48 -29.58,-1.43 -58.81,-1.2 -85.1,0.3 -32.83,1.67 -64.25,2.65 -87.82,26.58 -56.31,57.59 12.24,122.32 71,145.5 31.87,12.52 79.43,25.36 131.52,37.91 -70.14,-3.04 -168.61,1.88 -196.24,51.94 -39.7,72.09 97.56,124.97 252.73,163.48 -66.74,-9.61 -141.43,-15.86 -182.8,34.5 -59.35,71.72 56.63,155.77 117.27,179.61 168.82,66.89 195.62,5.14 77.01,73.78 -111.45,64.4 -94.6,218.44 13.29,272.89 -7.92,13.87 -13.59,30.05 -15.18,49.07 -4.09,44.45 14.57,87.88 47.64,119.13 -59.65,53.68 -85.85,153.05 -19.48,199.88 -28.7,18.32 -49.4,40.77 -53.08,69.6 -12.24,94.24 141.65,131.31 216.98,134.71 85.57,3.7 -391.27,88.87 -820.2,156.97 59.05,-38.29 94.6,-101.79 75.06,-168.91 -25.96,-89.34 -95.59,-111.3 -177.13,-98.37 60.94,-48.88 78.53,-136.44 26.8,-196.78 -35.7,-41.46 -77.24,-53.91 -120.05,-47.79 22.73,-26.9 39.04,-52.48 33.07,-89.61 -5.35,-33.15 -11.41,-69.86 -45.82,-87.37 -39.49,-20.31 -82.83,-14.64 -122.79,2.87 25.23,-52.18 42.06,-121.27 -10.19,-163 -51.8,-41.46 -103.29,-24.16 -147.68,18.49 35.51,-62.45 38.95,-132.98 -21.44,-197.89 -6.25,-6.66 -20.31,-8.09 -28.17,-3.19 -23.24,14.34 -49.83,7.56 -71.27,26.13 -19.24,16.31 -32.23,43.64 -43.88,64.63 -18.7,34.2 -68.79,57.38 -67.95,56.4 51.73,-63.95 86.92,-134.78 90.15,-214.29 1.61,-47.11 -8.91,-106.01 -76.71,-100.57 -15.39,1.2 -29.75,7.79 -43.04,17.3 5.14,-17.81 8.93,-34.65 11.11,-48.33 8.15,-50.06 -5.14,-110.31 -60.1,-135.46 -47.11,-21.53 -94.54,22.43 -113.57,59.05 -13.5,26.11 -16.24,54.21 -13.29,82.29 -6.48,-8.84 -12.99,-17.36 -19.48,-26.2 2.12,-1.88 4.39,-4.37 5.35,-7.02 29,-61.75 65.41,-148.22 34.44,-215.04 -17.57,-38.35 -54.43,-64.25 -100.49,-46.89 -26.5,9.95 -44.18,25.39 -55.28,43.96 6.5,-34.67 6.27,-72.04 -1.35,-98.39 -12.76,-45.16 -49.01,-75.66 -98.3,-87.67 -8.75,-1.97 -18.21,0 -24.46,5.89 -8.09,7.54 -15.41,15.33 -21.38,23.42 -15.69,-39.81 -47.7,-82.98 -101.08,-73.48 -56.1,9.97 -60.19,72.79 -41.46,111.83 10.04,20.98 28.47,29.75 44.69,42.96 -1.86,2.95 -2.93,5.82 -3.56,9.29 -37.37,0.21 -70.89,10.96 -82.51,38.29 -17.38,40.07 24.31,72.02 63.87,79.13 14.96,2.63 30.13,1.67 44.71,2.87 16.01,1.52 28.98,5.65 44.15,5.89 -42.72,13.89 -65.83,40.77 -53.59,93.02 2.12,8.97 12.97,15.86 23.01,15.65 2.14,-0.02 38.53,31.48 46.08,34.35 24.31,9.8 53.59,13.74 79.64,17.14 32.26,4.35 66.37,5.59 96.72,-3.4 11.11,12.88 22.22,25.81 32.77,39.25 -98.07,-29.52 -242.22,-20.46 -217.52,66.22 9.46,33.13 51.71,52.39 95.37,63.89 -15.24,8.61 -28.25,19.78 -37.16,34.72 -36.53,60.48 15.39,120.82 75.28,146.42 40.94,17.57 87.58,26.65 132.51,30.8 8.69,0.98 17.68,0.98 26.58,0.98 -1.35,0.24 -2.42,0.24 -3.46,0.45 -52.85,8.07 -133.64,39.13 -135.55,96.66 -1.88,58.88 87.22,101.77 142.27,109.86l1.61 -0.02c-34.97,16.85 -61.7,44.71 -72.58,85.25 -18.19,67.04 15.93,104.96 71.27,122.49 -40.62,12.44 -72.85,36.39 -78.83,82.06 -7.32,57.32 18.94,91.28 62.58,109.11 -28.74,15.09 -49.29,39.55 -52.85,79.04 -6.19,67.2 25.21,99.14 75.57,109.86 -40.37,24.91 -65.09,62.75 -45.52,121.12 13.83,42.19 58.75,70.29 108.13,83.43 -164.76,19.56 -329.73,35.94 -495.33,49.08 45.55,-33.69 71.83,-96.42 51.81,-146.18 -27.18,-67.36 -99.22,-66.89 -164.22,-52.25 20.55,-12.48 39.04,-27.33 53.92,-46.12 36.32,-45.39 52.24,-123.3 -6.21,-160.61 -28.44,-18.13 -70.22,-18.58 -110.01,-10.04 34.16,-48.11 62.82,-129.43 25.75,-179.7 -28.44,-38.06 -65.6,-39.04 -103.59,-19.48 18.22,-44.2 18.73,-102.78 -6.42,-137.43 -44.37,-61.24 -88.95,-49.46 -110.37,-36.77 46.89,-47.43 84.78,-147.83 33.13,-199.78 -59.63,-59.8 -152.28,-19.03 -194.79,35.1 -36.54,46.64 -31.18,39.57 -9.22,11.47 23.8,-30.5 27.87,-54.13 25.15,-90.54 -1.88,-27.33 9.2,-58.13 -10.87,-81.55 -50.66,-58.36 -138.18,-30.71 -178.5,18.37 -26.02,31.7 -24.91,18.26 -13.59,-0.77 5.22,-8.54 10.57,-15.62 13.29,-24.91 11.94,-41.76 -19.48,-83.19 -66.89,-88.33 -37.9,-3.96 -68.87,17.3 -85.33,45.89 7.56,-57.15 -7.85,-131.14 -50.96,-143.29 -47.62,-13.44 -75.28,29.3 -85.1,65.92 -10.25,-21.56 -27.1,-39.34 -56.01,-40.56 -18.73,-0.75 -36.92,8.09 -46.44,22.73 -9.2,14.11 -6.19,29.75 -2.95,45.16 3.28,15.84 12.48,30.95 28.79,39.04 1.67,0.75 4.07,1.5 6.7,1.94 -27.54,5.12 -52.76,22.73 -51.94,51.05 1.07,34.35 44.93,49.08 77.48,50.51 18.66,0.75 34.35,-3.92 50.36,-12.22 0.83,-0.47 1.58,-0.98 2.42,-1.46 9.22,11.26 18.43,22.52 27.63,33.69 -22.94,-3.64 -46.06,-3.92 -67.65,1.2 -49.91,12.01 -63.2,58.37 -39.1,96.66 23.95,37.91 74.29,60.33 122.02,56.63 25.67,-1.99 54.96,-8.45 79.88,-13.89 8.15,-1.97 13.29,-3.64 18.64,-6.57 8.48,9.74 16.84,19.54 25,29.3 -59.63,-7.81 -123.3,10.25 -119.52,75.42 2.42,41.22 44.15,61.98 83.19,72.26 -36.83,8.76 -66.37,34.2 -74.29,74.68 -5.35,28.53 8.45,39.79 31.72,54.21 28.47,17.81 58.28,38.57 91.88,49.08 4.63,1.41 9.5,2.63 14.43,4.15 -52.63,5.8 -107.08,29.96 -114.94,78.83 -5.41,31.72 28.4,76.41 49.02,98.39 21.74,23.16 46.06,27.1 75.87,33.67 -41.65,18.04 -69.6,52.99 -62.88,105.92 6.81,52.24 71.34,91.3 131.22,109.86 -50.66,19.24 -97.02,54.98 -89.46,104.21 4.09,26.86 20.37,44.93 43.02,57.68 -75.25,-0.54 -150.31,-1.73 -225.67,-3.7 52.09,-25.15 98.69,-68.11 86.23,-118.61 -17.98,-72.52 -147.4,-78.38 -214.07,-82 53.1,-31.78 81.54,-85.48 51.19,-144.3 -40.83,-79.6 -110.01,-77.39 -198.13,-68.1 -67.42,7.32 -196.61,25.15 -168.74,20.55 44.48,-7.64 93.47,-6.12 136.89,-22.28 62.6,-23.2 122.98,-88.11 96.42,-152.52 -27.63,-67.65 -137.96,-65.92 -200.78,-50.6 -39.64,9.83 -67.8,30.29 -97.26,54.96 -29.81,24.61 -79.43,11.94 -57.74,6.06 32.02,-8.78 61.54,-17.53 83.49,-41.69 31.66,-34.65 61.77,-106.22 24.61,-144.72 -40.6,-42.08 -106.22,-48.63 -151.98,-11.8 -38.5,30.8 -51.8,47.13 -27.63,14.66 31.19,-41.76 36.02,-103.97 -7.32,-140.06 -36.32,-30.61 -91.91,-30.82 -124.89,2.4 15.41,-33.88 17.59,-71.49 -11.49,-101.54 -35.91,-37.39 -96.93,-40.56 -137.34,-7.34 -33.52,27.57 -52.46,77.09 -58.22,122.56 -4.07,-2.72 -8.45,-5.37 -12.46,-8.31 4.02,-2.2 7.34,-5.37 8.99,-10.04 20.25,-55.13 55.5,-294.85 -81.54,-254.83 -51.56,15.15 -66.14,53.23 -61,96.19 -6.78,-9.07 -14.34,-17.59 -23.86,-24.91 -36.6,-29.09 -107.83,-37.84 -144.96,-2.65 -37.37,35.64 -4.62,82 31.48,104.21 25.75,16.37 56.01,33.43 85.85,46.12 -15.17,7.83 -24.91,22.2 -22.73,46.44 1.91,25.58 22.19,47.26 46.59,59.5 15.71,7.6 33.28,11.02 50.66,13.2 3.85,0.45 11.32,0.45 20.01,0.75 -1.89,3.4 -3.56,7.02 -5.14,10.96 -8.91,26.33 4.37,53.44 26.35,71.27 10.21,8.52 25.45,17.83 41.37,24.17 -1.35,0.73 -3.02,1.2 -4.6,1.97 -69.3,38.12 -27.03,92.78 21.98,130.32 -0.54,0.28 -1.37,0.51 -1.91,0.75 -44.39,26.11 -43.94,78.38 -19.48,116.5 18.66,28.74 48.71,43.43 81.54,52.72 -3.85,5.56 -7.08,11.69 -9.5,18.79 -17.36,51.71 29.51,103.44 80.47,128.35 -22.49,7.32 -40.92,18.34 -53.14,33.67 -55.48,70.29 -3.25,144.75 80.26,160.91 104.06,20.22 128.42,21 -12.01,16.31 -119.98,-36.11 -250.31,-27.55 -381.98,-46.06 -23.63,-3.47 -46.89,-7.39 -70.22,-11.56 14.13,-33.9 -19.78,-74.44 -35.19,-107.12 -7.02,-14.89 -14.64,-29.3 -21.98,-43.96 27.72,13.89 49.91,45.91 71.89,62.76 66.07,51.04 253.33,112.58 256.56,-25.15 3.49,-139.07 -374.51,-154.7 -382.58,-154.55 -3.53,0 272.8,-6.51 251.96,-145.43 -9.95,-66.43 -76.11,-91.05 -150.7,-89.61 43.19,-38.07 59.86,-103.98 21.21,-149.89 -33.67,-40.02 -90.3,-44.39 -148.52,-28.31 28.79,-37.07 38.2,-83.49 -2.42,-121.33 -115.96,-107.59 -287.23,56.93 -346.56,168.98 -9.14,-5.43 -18.37,-10.25 -27.87,-15.17 57.7,-48.11 121.33,-104.72 140.28,-168.38 14.69,-49.07 -3.46,-111.12 -57.68,-134.77 -56.61,-24.7 -105.62,21.23 -126.77,65.85 -26.26,55.18 -20.38,125.7 -12.01,188.52 -0.15,0 -0.75,0 -0.98,-0.3 -34.72,-84.65 -95.74,-156.43 -180.24,-206.94 -61.13,-36.87 -161.19,-73.48 -213.21,-4.69 -57.98,76.69 67.2,138.69 126.56,169.87 10.49,5.44 21.36,10.81 32.15,16.16l-3.98 0c-62.82,0.98 -156.39,11.26 -172.55,78.61 -15.54,64.92 56.78,106.37 119.45,109.41 62.31,2.85 133.28,-20.55 198.36,-51.35 -9.72,7.3 -19.78,14.64 -29.3,21.51 -34.11,24.38 -65.32,51.26 -82.08,88.11 -23.31,51.5 -20.83,104.96 49.85,110.85 70.76,5.8 133.85,-41.01 166.86,-93.55 18.75,-29.24 43.64,-85.17 40.62,-129.79 26.07,18.02 52.09,36.3 77.48,55.11 -48.99,21.21 -93.19,58.9 -121.57,92.27 -34.44,40.99 -94.09,137.19 -43.94,185.52 -39.04,5.41 -75.59,32 -89.19,64.91 -12.46,30.56 -0.75,55.97 19.26,77.39 -68.47,20.31 -122.7,70.61 -151.17,138.71 -11.9,28.53 13.29,63.65 44.41,70.76 82.38,18.32 169.34,10.04 244.94,-25.6 22.28,-10.53 45.61,-24.7 65.39,-41.31 -0.3,1.5 -0.83,2.48 -1.13,3.92 -3.26,29.09 7.32,52.48 26.8,71.3 -56.85,-7.88 -133.56,-5.91 -164.14,45.89 -14.64,24.38 -7.32,45.16 8.9,62.22 -43.11,-4.84 -86.15,-0.22 -114.08,29.6 -12.99,13.89 -18.66,29 -18.96,43.88 -51.94,-29.77 -110.22,-40.71 -151.98,0.75 -26.26,26.35 -23.56,61.08 -5.13,88.35 -34.95,-28.55 -83.43,-46.36 -128.44,-26.82 -40.3,17.3 -61.23,69.33 -35.48,103.98 -9.8,-2.65 -19.24,-4.15 -27.93,-2.42 -24.29,5.14 -51.8,22.96 -67.65,39.79 -28.46,29.96 -33.67,79.81 4.54,105.69zm18383.39 -105.69c-16.01,-16.84 -43.36,-34.65 -67.82,-39.79 -8.67,-1.74 -18.11,-0.24 -27.93,2.42 25.83,-34.65 4.99,-86.68 -35.48,-103.98 -44.91,-19.56 -93.47,-1.73 -128.44,26.82 18.45,-27.29 21.23,-62 -5.14,-88.35 -41.65,-41.46 -99.89,-30.5 -151.98,-0.75 -0.3,-14.88 -5.97,-29.99 -18.96,-43.88 -27.93,-29.83 -70.97,-34.42 -114.07,-29.6 16.24,-17.08 23.56,-37.82 8.99,-62.22 -30.65,-51.8 -107.3,-53.74 -164.22,-45.89 19.56,-18.81 30.05,-42.21 26.8,-71.3 -0.3,-1.43 -0.75,-2.42 -1.05,-3.92 19.78,16.61 43.11,30.8 65.32,41.31 75.57,35.62 162.56,43.94 244.92,25.6 31.12,-7.11 56.33,-42.23 44.41,-70.76 -28.38,-68.13 -82.61,-118.4 -151.17,-138.71 20.1,-21.44 31.72,-46.81 19.26,-77.39 -13.59,-32.92 -50.15,-59.48 -89.17,-64.91 50.13,-48.35 -9.52,-144.54 -43.88,-185.52 -28.46,-33.39 -72.64,-71.06 -121.63,-92.27 25.45,-18.81 51.41,-37.07 77.46,-55.11 -3.02,44.62 21.89,100.57 40.62,129.79 33.09,52.54 96.19,99.35 166.86,93.55 70.78,-5.91 73.24,-59.35 49.91,-110.85 -16.76,-36.85 -47.94,-63.74 -82.14,-88.11 -9.42,-6.89 -19.39,-14.19 -29.22,-21.51 65,30.8 136.06,54.21 198.34,51.35 62.6,-3.04 134.92,-44.48 119.54,-109.41 -16.31,-67.35 -109.8,-77.63 -172.61,-78.61l-4.07 0c10.79,-5.37 21.66,-10.72 32.23,-16.16 59.37,-31.19 184.47,-93.17 126.47,-169.87 -51.92,-68.79 -151.92,-32.17 -213.22,4.69 -84.5,50.49 -145.5,122.32 -180.17,206.94 -0.19,0.3 -0.81,0.3 -1.05,0.3 8.39,-62.82 14.34,-133.34 -11.92,-188.52 -21.15,-44.65 -70.22,-90.54 -126.86,-65.85 -54.21,23.65 -72.34,85.7 -57.68,134.77 18.94,63.65 82.59,120.29 140.36,168.38 -9.44,4.9 -18.64,9.74 -27.87,15.17 -59.39,-112.06 -230.59,-276.57 -346.56,-168.98 -40.63,37.82 -31.19,84.26 -2.5,121.33 -58.2,-16.07 -114.83,-11.69 -148.43,28.31 -38.74,45.89 -21.98,111.83 21.13,149.89 -74.5,-1.43 -140.57,23.18 -150.63,89.61 -20.89,138.93 255.53,145.43 251.98,145.43 -8.15,-0.15 -386.13,15.48 -382.66,154.55 3.31,137.7 190.57,76.19 256.64,25.15 21.98,-16.85 44.18,-48.84 71.81,-62.76 -7.32,14.64 -14.87,29.09 -21.98,43.96 -15.39,32.66 -49.23,73.24 -35.19,107.12 -23.24,4.15 -46.57,8.09 -70.22,11.56 -131.67,18.49 -261.91,9.97 -381.98,46.06 -140.42,4.67 -115.96,3.94 -11.92,-16.31 83.45,-16.16 135.76,-90.6 80.18,-160.91 -12.2,-15.32 -30.56,-26.35 -53.08,-33.67 50.92,-24.91 97.79,-76.65 80.41,-128.35 -2.4,-7.11 -5.65,-13.2 -9.5,-18.79 32.85,-9.31 62.91,-23.95 81.63,-52.72 24.4,-38.14 24.91,-90.39 -19.5,-116.5 -0.58,-0.24 -1.43,-0.45 -1.95,-0.75 49.08,-37.54 91.28,-92.2 21.96,-130.32 -1.56,-0.77 -3.23,-1.22 -4.6,-1.97 16.01,-6.36 31.19,-15.63 41.52,-24.17 21.92,-17.83 35.12,-44.93 26.2,-71.27 -1.56,-3.94 -3.23,-7.56 -5.11,-10.96 8.69,-0.3 16.31,-0.3 20.07,-0.75 17.29,-2.2 34.89,-5.58 50.59,-13.2 24.46,-12.26 44.78,-33.9 46.66,-59.5 2.2,-24.25 -7.64,-38.59 -22.73,-46.44 29.75,-12.69 60.1,-29.75 85.85,-46.12 36.02,-22.22 68.85,-68.57 31.48,-104.21 -37.2,-35.19 -108.43,-26.41 -144.96,2.65 -9.5,7.32 -17.15,15.86 -23.93,24.91 5.2,-42.98 -9.46,-81.01 -60.87,-96.19 -137.19,-40.04 -101.92,199.71 -81.54,254.83 1.58,4.67 4.83,7.85 8.9,10.04 -4.07,2.93 -8.45,5.59 -12.46,8.31 -5.71,-45.46 -24.68,-94.99 -58.28,-122.56 -40.39,-33.24 -101.41,-30.05 -137.34,7.34 -29,30.03 -26.88,67.65 -11.47,101.54 -33,-33.22 -88.5,-32.98 -124.89,-2.4 -43.34,36.09 -38.44,98.3 -7.26,140.06 24.1,32.45 10.79,16.16 -27.72,-14.66 -45.74,-36.85 -111.3,-30.26 -151.92,11.8 -37.22,38.48 -7.09,110.07 24.61,144.72 22,24.15 51.43,32.92 83.45,41.69 21.66,5.89 -27.87,18.56 -57.7,-6.06 -29.52,-24.7 -57.68,-45.14 -97.24,-54.96 -62.9,-15.32 -173.13,-17.06 -200.84,50.6 -26.5,64.4 33.96,129.34 96.48,152.52 43.34,16.16 92.35,14.64 136.83,22.28 27.93,4.6 -101.34,-13.23 -168.76,-20.55 -88.03,-9.31 -157.12,-11.47 -198.04,68.1 -30.43,58.81 -1.97,112.52 51.17,144.3 -66.65,3.59 -196.16,9.5 -214.05,82 -12.45,50.49 34.14,93.46 86.15,118.61 -75.34,1.95 -150.4,3.17 -225.67,3.7 22.81,-12.78 38.95,-30.82 43.04,-57.68 7.64,-49.25 -38.67,-84.95 -89.4,-104.21 59.95,-18.58 124.35,-57.59 131.16,-109.86 6.81,-52.93 -21.15,-87.88 -62.91,-105.92 29.84,-6.57 54.22,-10.49 75.87,-33.67 20.63,-22 54.45,-66.67 49.01,-98.39 -7.77,-48.86 -62.3,-73 -114.85,-78.83 4.92,-1.52 9.82,-2.72 14.34,-4.15 33.63,-10.51 63.44,-31.27 91.91,-49.08 23.33,-14.45 37.07,-25.69 31.7,-54.21 -7.9,-40.47 -37.37,-65.92 -74.29,-74.68 39.06,-10.27 80.8,-31.03 83.21,-72.26 3.85,-65.17 -59.89,-83.21 -119.45,-75.42 8.07,-9.76 16.52,-19.56 24.91,-29.3 5.37,2.93 10.57,4.6 18.64,6.57 24.93,5.42 54.21,11.92 79.96,13.89 47.73,3.68 98.09,-18.72 121.93,-56.63 24.1,-38.29 10.87,-84.65 -39.02,-96.66 -21.68,-5.13 -44.71,-4.81 -67.74,-1.2 9.23,-11.17 18.43,-22.43 27.63,-33.69 0.85,0.45 1.67,0.98 2.42,1.46 16.01,8.28 31.72,12.97 50.36,12.22 32.55,-1.46 76.49,-16.16 77.54,-50.51 0.77,-28.31 -24.38,-45.91 -52.01,-51.05 2.63,-0.47 5.2,-1.2 6.79,-1.94 16.24,-8.09 25.45,-23.2 28.7,-39.04 3.25,-15.43 6.27,-31.04 -2.95,-45.16 -9.5,-14.66 -27.63,-23.48 -46.36,-22.73 -28.98,1.2 -45.82,19.03 -56.09,40.56 -9.72,-36.64 -37.37,-79.36 -85.01,-65.92 -43.11,12.13 -58.6,86.15 -50.96,143.29 -16.55,-28.59 -47.43,-49.83 -85.33,-45.89 -47.49,5.12 -78.91,46.57 -66.97,88.33 2.72,9.29 8.15,16.39 13.29,24.91 11.32,19.03 12.46,32.47 -13.59,0.77 -40.33,-49.1 -127.84,-76.73 -178.5,-18.37 -20.07,23.39 -8.99,54.22 -10.87,81.55 -2.7,36.39 1.37,60.04 25.15,90.54 21.98,28.08 27.48,35.19 -9.2,-11.47 -42.42,-54.13 -135.16,-94.9 -194.81,-35.1 -51.56,51.93 -13.68,152.37 33.22,199.78 -21.44,-12.69 -65.92,-24.46 -110.39,36.77 -25.21,34.65 -24.61,93.25 -6.48,137.43 -37.91,-19.58 -75.04,-18.57 -103.53,19.48 -37.07,50.27 -8.45,131.61 25.77,179.7 -39.87,-8.54 -81.57,-8.09 -110.03,10.04 -58.49,37.28 -42.51,115.21 -6.19,160.61 14.87,18.79 33.3,33.67 53.85,46.12 -65.02,-14.66 -137.04,-15.09 -164.16,52.25 -20.07,49.74 6.27,112.51 51.73,146.18 -165.51,-13.14 -330.57,-29.52 -495.24,-49.08 49.31,-13.14 94.3,-41.22 108.04,-83.43 19.58,-58.39 -5.14,-96.19 -45.46,-121.12 50.38,-10.72 81.87,-42.66 75.59,-109.86 -3.55,-39.49 -24.17,-63.95 -52.87,-79.04 43.66,-17.83 69.93,-51.8 62.61,-109.11 -5.97,-45.67 -38.2,-69.6 -78.83,-82.06 55.28,-17.55 89.4,-55.43 71.27,-122.49 -10.87,-40.54 -37.67,-68.4 -72.64,-85.22l1.67 -0.02c54.98,-8.09 144.13,-50.96 142.18,-109.84 -1.88,-57.55 -82.61,-88.57 -135.46,-96.66 -1.05,-0.21 -2.19,-0.21 -3.56,-0.45 9.01,0 17.89,0 26.58,-0.98 45.01,-4.17 91.58,-13.2 132.51,-30.8 59.89,-25.6 111.83,-85.93 75.27,-146.42 -8.88,-14.94 -21.89,-26.11 -37.07,-34.72 43.64,-11.49 85.85,-30.73 95.28,-63.89 24.78,-86.7 -119.45,-95.74 -217.45,-66.22 10.51,-13.44 21.68,-26.35 32.7,-39.25 30.43,8.96 64.55,7.77 96.72,3.4 26.05,-3.43 55.35,-7.34 79.73,-17.14 7.57,-2.89 43.87,-34.35 46,-34.35 10.06,0.22 20.91,-6.66 23.09,-15.65 12.16,-52.24 -10.79,-79.13 -53.68,-93.02 15.17,-0.24 28.17,-4.37 44.18,-5.89 14.64,-1.2 29.81,-0.24 44.69,-2.87 39.57,-7.1 81.31,-39.04 63.95,-79.13 -11.69,-27.35 -45.22,-38.06 -82.59,-38.29 -0.6,-3.47 -1.67,-6.34 -3.56,-9.29 16.24,-13.2 34.65,-21.96 44.69,-42.96 18.75,-39.04 14.66,-101.85 -41.43,-111.83 -53.38,-9.53 -85.33,33.69 -101.11,73.48 -5.89,-8.09 -13.29,-15.86 -21.36,-23.42 -6.21,-5.91 -15.71,-7.85 -24.4,-5.89 -49.29,12.01 -85.61,42.51 -98.3,87.67 -7.62,26.33 -7.94,63.72 -1.43,98.39 -11.09,-18.6 -28.7,-33.99 -55.2,-43.96 -46.04,-17.36 -82.98,8.54 -100.57,46.89 -30.88,66.8 5.44,153.29 34.44,215.04 1.13,2.63 3.23,5.14 5.35,7.02 -6.46,8.84 -12.99,17.38 -19.48,26.2 2.96,-28.08 0.24,-56.16 -13.2,-82.29 -18.96,-36.64 -66.46,-80.56 -113.56,-59.05 -55.05,25.13 -68.34,85.4 -60.19,135.46 2.2,13.68 5.97,30.52 11.11,48.33 -13.2,-9.53 -27.63,-16.07 -43.04,-17.3 -67.72,-5.46 -78.29,53.46 -76.71,100.57 3.25,79.49 38.5,150.33 90.21,214.29 0.77,0.96 -49.29,-22.19 -68.02,-56.4 -11.62,-21 -24.61,-48.33 -43.87,-64.63 -21.36,-18.58 -47.94,-11.77 -71.27,-26.13 -7.85,-4.93 -21.89,-3.47 -28.17,3.19 -60.4,64.91 -56.85,135.44 -21.36,197.89 -44.48,-42.68 -95.97,-59.95 -147.68,-18.49 -52.33,41.74 -35.51,110.83 -10.27,163 -39.87,-17.53 -83.22,-23.18 -122.77,-2.87 -34.42,17.51 -40.32,54.21 -45.85,87.37 -5.95,37.13 10.36,62.73 33.07,89.61 -42.72,-6.12 -84.18,6.33 -120.05,47.79 -51.62,60.34 -34.05,147.92 26.88,196.78 -81.52,-12.93 -151.17,9.06 -177.22,98.37 -19.48,67.12 16.01,130.62 75.06,168.91 -428.93,-68.13 -905.75,-153.26 -820.14,-156.97 75.3,-3.43 229.25,-40.47 217,-134.71 -3.77,-28.85 -24.31,-51.26 -53.08,-69.6 66.39,-46.83 40.09,-146.18 -19.56,-199.88 33.09,-31.27 51.73,-74.65 47.73,-119.13 -1.65,-19.05 -7.32,-35.19 -15.17,-49.07 107.83,-54.47 124.65,-208.49 13.2,-272.89 -118.59,-68.64 -91.82,-6.87 77.03,-73.78 60.72,-23.84 176.68,-107.89 117.33,-179.61 -41.37,-50.36 -116.13,-44.09 -182.8,-34.5 155.09,-38.53 292.51,-91.37 252.64,-163.48 -27.63,-50.08 -126.08,-54.96 -196.16,-51.94 52.03,-12.54 99.59,-25.36 131.46,-37.91 58.73,-23.2 127.28,-87.88 70.97,-145.5 -23.56,-23.95 -54.96,-24.91 -87.81,-26.58 -26.18,-1.52 -55.5,-1.73 -85.1,-0.3 20.93,-9.2 36.09,-15.63 59.89,-19.48 42.89,-7.34 101.62,-32.47 126.54,-65.92 53.7,-71.51 -68.26,-102.99 -123.52,-99.8 -13.52,0.73 -28.76,2.87 -44.92,6.04 6.2,-7.04 12.46,-14.36 18.64,-21.44 7.02,1.2 14.64,1.97 23.03,2.93 43.13,4.37 88.35,13.68 131.69,15.35 56.63,2.24 125.93,-19.71 136.57,-76.65 11.86,-64.19 -64.25,-86.38 -122.46,-85.7 29,-13.14 56.63,-17.3 84.8,-29.75 46.3,-20.54 91.05,-59.35 124.59,-93.7 51.28,-52.26 130.09,-152.6 52.93,-209.24 -31.18,-22.94 -79.43,-56.39 -120.88,-56.61 -49.83,-0.26 -113.8,42.72 -145.5,74.44 -38.44,38.06 -75.36,101.32 -94.93,165.51 -17.48,-31.48 -45.44,-53.76 -85.55,-53.76 -42.57,0.3 -53.08,31.48 -56.09,62.52 -19.99,-21.21 -45.22,-36.09 -75.57,-41.22 -8.15,-1.2 -18.19,-0.54 -23.87,5.82 -40.6,43.7 -39.79,108.64 -31.18,162.32 8,49.14 24.61,156.61 30.35,216.47 -3.02,-40.32 -12.76,-80.26 -30.05,-119.06 -19.76,-43.43 -77.99,-148.13 -152.58,-123.96 -80.11,26.09 -39.49,145.5 -24.93,192.37 18.45,60.25 50.44,223.36 29.3,176.46 -28.15,-62.99 -50.96,-135.69 -90.75,-193.52 -36.09,-52.57 -127.69,-87.97 -164.76,-14.96 -13.27,26.11 -7.08,82.02 11.41,145.73 -31.93,-33.22 -68.79,-41.76 -110.55,-7.02 -64.23,53.44 -68.56,193.07 -51.5,264.11 2.72,11.47 6.51,23.18 10.36,34.67 -53.17,-77.93 -119.83,-128.89 -201.91,-106.24 -149.03,40.9 -57.75,209.06 59.05,360.53 -4.28,-1.82 -8.54,-3.61 -12.99,-5.28 -32.45,-6.66 -57.68,-22.73 -76.11,-48.18 -9.74,-6.35 -18.64,-11.69 -30.95,-16.07 1.67,0.45 -95.07,-6.12 -95.07,-6.81 -10.85,-1.52 -20.07,-4.37 -33.58,0.92 -102.39,41.28 -2.42,142.33 41.44,184.6 2.12,2.2 4.62,4.39 7.02,6.57 -53.89,-18.34 -112.11,-18.58 -157.33,18.79 -58.37,47.56 -35.87,106.93 4.3,154.04 -40.39,-4.93 -82.38,6.35 -128.74,44.62 -90.45,74.23 -50.15,201.44 33.67,267.81 32.26,25.36 70.37,49.31 111.83,71.81 -75.87,-12.46 -150.1,-6.12 -219.43,33.9 0.54,-10.27 0.24,-21 -1.67,-32.46 -6.7,-42 -42.8,-68.34 -90.51,-84.72 87.5,-66.6 106.01,-211.87 -30.89,-272.41 -10.25,-4.41 -21.06,-7.79 -31.95,-10.72 67.76,-25.38 123,-72.26 78.53,-146.93 -10.77,-18.37 -25.13,-32.26 -41.59,-43.28 52.48,-69.32 36.77,-119.81 -9.82,-152.07 45.24,-8.3 84.56,-36.62 87.52,-84.71 3.02,-44.63 -21.68,-79.81 -57.17,-104.94 61.25,-37.39 23.03,-198.21 -66.14,-234.15 -7.83,-2.87 -15.71,-5.59 -23.78,-7.77 40.62,-2.68 81.01,-7.56 120.8,-17.83 74.46,-19.26 165.28,-73.24 111.89,-152.52 -31.91,-47.43 -98.39,-67.89 -167.69,-73.03 115.38,-32.23 195.32,-81.76 163.09,-159.15 -29.73,-70.82 -120.89,-72.02 -199.93,-59.35 7.02,-2.65 14.02,-5.59 20.82,-8.75 64.49,-29.54 169.9,-91.82 125.19,-170.86 -17.87,-31.27 -47.2,-42.23 -80.48,-42.98 3.85,-2.72 7.32,-5.35 11.09,-8.82 23.86,-21.02 77.01,-65.85 70.76,-100.06 -8.69,-47.88 -95.13,-72.02 -136.06,-64.7 -21.9,3.7 -45.25,13.66 -67.66,25.15 7.26,-7.13 14.26,-14.43 21.36,-21.44 20.03,1.18 43.64,-4.69 59.56,-9.52 37.69,-11.5 95.14,-20.31 120.37,-51.26 22.94,-28.32 10.28,-66.67 -22.52,-83.96 0.02,0 0,0 -0.3,-0.3 7.85,-4.84 15.71,-9.74 23.03,-13.89 9.44,-5.37 19.8,-10.51 28.17,-17.3 7.85,-6.36 13.83,-18.79 23.33,-22.5 14.57,-5.82 16.55,-24.16 10.04,-35.42 -13.27,-23.39 -25.21,-48.54 -59.03,-49.29 -13.27,-0.26 -22.82,8.07 -31.19,10.04 -8.15,1.65 -23.33,-0.98 -34.97,5.14 -23.84,12.37 -48.78,45.37 -58.81,77.84 -2.16,-27.12 -9.95,-59.14 -46.06,-58.81 -37.65,0.43 -78.83,48 -92.42,75.64 -22.41,45.91 -23.24,109.86 -13.51,160.61 -9.74,10.04 -19.78,20.01 -29.3,30.28 10.87,-49.55 9.2,-105.71 0,-145.2 -11.62,-50.81 -32.23,-105.49 -106.16,-83.75 -43.11,12.91 -63.72,53.46 -71.57,96.2 -22.11,-31.8 -57.38,-58.37 -97.25,-36.41 -45.52,25.13 -54.75,96.66 -54.45,155.7 -32.21,-82.23 -79.13,-132.98 -147.68,-103.97 -83.19,35.4 -78.83,153.56 -61.24,218.95 3.56,13.67 8.16,27.57 12.76,41.54 -39.11,-59.11 -101.41,-121.12 -173.96,-97.94 -253.93,81.54 130.32,563.43 63.95,482.4 -55.78,-67.89 -186.42,-240.93 -302.08,-185.05 -122.47,59.03 -133.13,198.19 -50.98,283.89 58.83,61.21 131.39,103.52 207.8,144.75 111.38,60.53 43.64,54.72 -112.43,-42.21 -85.31,-52.72 -286.93,-207.72 -380.69,-84.95 -120.28,157.2 27.33,266.62 223.57,354.71 -82.98,-21.98 -173.96,-35.7 -254.16,-43.94 -70.22,-7.41 -151.98,0.24 -199.17,54.66 -57.15,66.37 -31.12,139.1 26.58,186.51 -88.35,1.2 -166.65,25.9 -198.06,99.82 -55.03,130.62 52.03,180.69 164.16,209.9 -79.57,6.33 -149.8,38.35 -185.07,122.32 -21.36,51.26 -18.94,118.17 16.55,164.07 49.07,63.42 149.86,58.58 227.11,70.52 51.43,7.75 102.93,14.43 154.42,20.31 -85.33,2.87 -157.98,8 -240.87,57.3 -66.67,39.79 -137.34,95.46 -129.87,174.05 12.33,127.91 160.46,156.97 291.38,158.19 -86.21,21.72 -143.17,71.04 -139.01,163.31 -158.02,108.13 -291.53,244.63 -385.06,411.13 -53.08,94.22 90,168.44 156.37,82.23 97.85,-127.16 211.87,-234.6 340.07,-322.48 0,0.19 0.3,0.22 0.3,0.52 88.8,59.56 142.69,52.48 245.15,41.99 14.59,-1.54 -110.53,39.79 -187.56,69.09 -122.68,46.87 -163.39,133.04 -105.62,248.94 43.04,86.21 110.84,111.15 185.88,103.29 -114.06,49.29 -183.17,166.02 -95.65,274.15 39.04,48.3 96.72,58.81 157.42,51.04 -52.85,67.06 -49.61,172.53 26.58,226.3 104.51,73.15 322.42,-40.56 401.54,-102.54 23.56,-18.36 39.04,-38.35 57.98,-60.55 33,-38.38 36.56,-10.72 -37.16,45.67 -64.76,49.74 -137.41,98.6 -189.14,159.84 -67.72,80.56 -107.29,229.69 -12.22,312.97 106.76,93.47 233.02,-98.15 283.14,-155.77 101.41,-116.22 147.23,-118.85 73.99,-46.36 -61.21,60.55 -122.38,122.77 -154.4,201.15 -32.85,80.56 -11.17,250.22 104.34,278.78 96.66,23.91 150.87,-135.25 177.97,-196.24 44.71,-101.34 -1.59,45.82 -28.98,218.65 -9.22,58.88 -25.69,242.91 71.57,261.48 51.43,10.04 86.9,-22.19 111.3,-77.63 0.02,3.4 -0.3,6.8 -0.54,10.27 -1.86,60.25 7.02,200.63 92.95,220.86 47.73,11.47 73.46,-33.67 85.91,-104.19 8.93,57.81 25.98,120.11 64.72,135.52 37.39,14.34 58.81,-9.35 70.97,-36.62 12.76,40.45 35.25,80.71 74.52,85.16 102.99,11.92 73.39,-114.01 93.47,-67.87 11.64,26.56 46.89,77.61 83.21,81.76 32.47,3.62 39.26,-25.9 38.74,-48.54 3.23,5.8 6.79,11.7 10.04,16.84 15.41,24.14 34.11,47.86 63.95,43.64 5.97,2.48 11.32,6.63 18.43,7.56 9.74,1.5 19.24,-0.15 27.63,-5.07 20.63,-11.7 21.36,-34.41 27.09,-53.68 4.02,-13.23 -4.6,-23.93 -17.66,-29.06 2.72,0 -9.44,-13.68 -12.99,-16.61 -7.83,-7.13 -17.59,-12.16 -26.8,-17.59 -9.2,-5.61 -18.96,-11.94 -29,-18.04 2.12,-1.75 4.37,-2.95 6.19,-4.69 23.86,-22.43 24.91,-61.23 3.02,-84.71 -17.89,-19.05 -98.07,-49.53 -143.61,-44.41 -7.32,-7.77 -14.64,-15.62 -21.89,-23.39 12.48,5.89 24.61,10.72 35.96,13.89 8.99,2.18 14.11,1.73 23.33,1.5 2.18,-0.54 3.85,-1.94 5.74,-3.02 0.23,0 0.21,0 0.51,0.3 32.57,-4.69 40.62,-11.02 60.72,-37.07 23.78,-31.04 25.21,-45.67 1.88,-77.69 -18.43,-25.36 -41.52,-50.96 -68.04,-71.04 25.47,-3.19 47.19,-15.56 58.84,-45.61 25.75,-66.16 -38.53,-124.5 -95.44,-155.54 -27.87,-15.35 -56.63,-25.38 -85.33,-32.17 65.86,11.69 140.98,13.14 174.26,-49.61 51.5,-97.11 -37.67,-145.73 -158.55,-169.13 55.05,-10.72 101.62,-41.22 130.92,-99.59 36.26,-72.51 -36.62,-131.3 -107.06,-146.72 -62.52,-13.61 -126.62,-5.65 -189.61,-0.45 8.17,-0.92 16.84,-1.88 26.52,-2.95 78.83,-9.29 121.93,-44.48 137.94,-117.39 11.64,-51.82 0.23,-125.04 -54.22,-152.37 52.27,-69.86 45.22,-196.48 -45.61,-199.2 32.56,-41.74 28.77,-100.79 -18.43,-162.11 10.89,-13.68 20.09,-29.96 26.37,-49.98 20.85,-66.91 -23.03,-127.9 -90.47,-149.65 19.73,-8.86 37.39,-21.53 52.26,-40.11 56.85,-70.52 24.31,-213.28 -50.44,-266.51 32.56,-19.82 56.4,-45.91 61.32,-80.11 3.49,-24.42 0.21,-48.56 -8.48,-70.99 283.4,32.47 555.73,147.7 408.56,149.43 -54.11,0.43 -123.22,4.39 -171.76,26.05 -47.94,21.28 -64.72,57.17 -103.44,90.09 -9.5,8.37 -10.06,21.21 -4.39,31.25 25.75,46.12 55.56,95.44 106.76,122.56 51.22,27.31 97.56,18.11 153.14,26.35 8.61,1.5 16.76,2.72 24.38,3.92 -55.05,14.19 -107.06,31.8 -152.37,53.91 -97.23,47.41 -161.42,160.91 -97.47,250.76 34.35,48.31 72.56,68.1 113.78,71.27 -51.17,38.06 -86.68,91.52 -41.99,150.1 33.09,43.49 86.69,55.43 141.73,50.06 -20.07,12.24 -39.56,24.91 -57.68,38.29 -44.15,32.54 -100.27,97.17 -32.32,137.49 31.19,18.8 109.48,21.45 143.83,17.59 22.81,-2.74 57.23,-29.06 69.09,-32.77 26.88,-8.03 55.35,-4.39 82.14,-15.63 2.98,-1.45 5.46,-2.95 8.48,-4.39 -65.39,40.32 -126.56,84.71 -175.85,134.78 -56.18,57.08 -119.54,178.95 -8.78,222.89 85.7,33.88 178.35,-39.34 236.87,-99.67 -15.71,21.06 -30.35,42.29 -42.29,63.8 -35.48,65.08 -65.6,201.38 -19.18,267.75 31.12,44.37 69.54,42.96 110.46,15.63 -36.21,61.3 -57.08,118.1 -47.11,149.35 26.88,85.25 134.41,40.86 176.92,-4.39 45.61,-49.07 84.56,-104.43 125.7,-156.22 32.57,-41.01 -43.56,113.5 -77.69,169.66 -26.86,43.43 -94,146.48 -27.33,189.16 64.43,41.52 147.08,-42.68 179.33,-81.93 37.97,-46.44 87.2,-131.61 96.19,-121.63 1.82,4.13 -235.2,382.28 -97.02,388.91 26.52,1.2 50.66,-6.12 72.11,-19.54 -3.55,28.53 0.83,56.85 38.44,65.6 39.55,9.27 73.15,-7.02 98.9,-34.65 2.2,62.52 18.64,127 41.16,169.72 21.23,39.72 61.54,83.22 106.01,103.91 48.69,23.03 86.89,5.65 137.64,-12.69 98.09,-35.12 71.51,-113.95 35.48,-192.09 -21.96,-47.35 -58.6,-98.37 -99.74,-134.24 -26.28,-22.96 -58,-36.09 -86.17,-57.83 50.9,12.16 117.27,10.19 137.67,-41.31 22.19,-56.87 -40.62,-103.44 -94,-116.67 -46.59,-11.49 -99.52,-10.49 -146.95,-15.84 -8.58,-0.77 -16.46,-1.76 -23.78,-1.97 -4.37,-8.3 -8.37,-16.84 -12.46,-25.15 10.59,4.82 20.54,8.76 29.3,11.71 42.2,13.87 100.19,24.7 138.18,-3.4 26.2,-19.8 30.56,-49.31 14.04,-75.43 -19.78,-31.27 -61.47,-63.74 -97.85,-78.59 -9.44,-3.94 -21.36,-5.14 -30.58,-9.52 -11.09,-5.61 -15.18,-11.26 -19.24,-16.85 65.54,20.25 138.48,30.29 176.68,-0.3 64.25,-51.5 6.79,-123.96 -46.89,-157.2 -40.77,-25.08 -92.42,-48.46 -133.94,-65.39 77.39,23.78 191.17,46.74 233.91,-7.54 53.53,-67.89 -55.44,-139.85 -159.41,-187.57 52.11,10.34 104.28,10.81 137.73,-14.34 78.31,-58.6 -16.52,-166.71 -70.67,-202.58 -146.93,-96.96 -182.87,-45.67 -52.63,-84.93 126.02,-37.84 149.35,-192.39 59.05,-268.05 6.06,-6.36 11.7,-13.44 16.54,-21.75 27.95,-45.63 23.63,-102.3 -3.49,-146.72 70.16,-37.82 118.7,-133.49 69.32,-192.15 32.56,-11.62 58.28,-29.22 69.69,-56.31 30.58,-73.5 -60.93,-134.03 -133.87,-163.09 409.72,70.05 822.32,130.39 1236.62,177.73 -159.3,7.32 -296.96,-15.62 -451.37,45.82 -62.88,25.43 -139.61,66.46 -114.91,140.15 17.89,52.76 58.28,78.38 110.52,85.7 -20.59,18.79 -35.7,40.98 -40.09,66.13 -14.34,82.3 66.07,137.49 150.33,128.67 16.03,-1.75 31.27,-4.62 45.82,-8.32 -15.99,13.44 -30.86,27.57 -44.15,42.98 -49.23,57.36 -55.28,140.89 35.78,168.44 19.78,5.8 40.09,7.32 59.87,5.37 -32.45,45.89 -41.67,95.44 -4.6,142.78 48.56,61.98 118.91,61.3 183.49,32.02 -31.7,51.47 -46.44,110.82 -29.83,163.99 11.11,36.15 50.06,45.14 86.68,38.35 -11.71,13.14 -22.2,26.88 -31.1,40.77 -21.44,33.2 -52.12,93.7 -29,131.52 23.48,39.1 101.56,49.61 144.13,37.39 12.18,-3.64 23.5,-9.07 33.54,-15.65 -10.04,17.36 -17.83,34.67 -23.57,47.64 -18.64,42.96 -28.17,101.04 1.67,142.33 27.35,37.58 60.1,33.69 88.03,12.69 -22.8,59.26 -29,127.15 25.75,166.49 23.63,16.82 43.57,20.23 59.89,15.63 0.83,37.28 14.56,102.24 49.83,121.78 22.49,12.46 50.66,-1.5 73.15,-18.58 -6.78,32.92 -3.77,66.67 26.52,91.52 38.2,30.8 91.88,14.19 126.53,-13.36 39.36,-31.29 26.05,-80.58 -5.89,-112.06 -6.78,-6.64 -15.17,-13.21 -24.7,-19.03 19.8,-21.75 29.3,-49.59 24.93,-78.14 -6.78,-43.73 -43.34,-76.17 -86.68,-85.91 21.96,-23.5 33.6,-54.69 25.51,-85.25 -8.75,-32.17 -38.8,-51.2 -71.06,-64.87 43.04,-8.61 77.78,-30.8 84.8,-73.24 8.71,-53.46 -29.3,-82.06 -81.54,-96.48 32.02,-11.19 54.75,-33.15 57.17,-70.97 3.85,-58.06 -47.13,-95.43 -111.08,-118.4 46.61,-9.53 87.22,-35.87 76.73,-84.71 -7.94,-36.86 -35.81,-58.07 -68.87,-74.68 50.15,-9.82 97.02,-40.32 91.07,-92.27 -3.53,-31.48 -29.83,-57.15 -62.3,-77.93 37.39,-4.15 70.37,-18.79 87.52,-53.23 31.12,-62.22 -13.59,-129.34 -70.22,-164.44 52.87,5.56 104.36,-7.41 120.58,-63.5 16.76,-56.65 -27.42,-116.2 -79.96,-142.09 -1.28,-0.47 -2.63,-0.98 -3.77,-1.43 57.98,-3.17 115.21,-18.58 127.91,-67.44 21.98,-82.46 -92.95,-125.4 -161.21,-142.01 -6.78,-1.76 -14.13,-2.95 -21.15,-4.62 246.24,23.18 493.13,41.46 739.73,53.91 -48.78,3.4 -95.97,12.46 -135.01,32.7 -59.03,30.5 -140.06,96.94 -104.04,164.83 38.2,71.19 121.42,72.94 205.68,44.63 -18.13,12.88 -35.49,26.58 -49.01,42.95 -36.39,43.26 -48.24,116.2 10.27,150.63 33.6,19.78 70.44,14.13 103.53,-1.5 -17.68,35.17 -28.7,72.56 -23.05,104.94 12.48,72.09 96.95,42.29 139.31,14.19 -3.85,7.32 -6.57,14.88 -8.22,22.97 -4.09,19.3 0.81,39.79 -2.42,59.05 -2.42,15.39 -9.74,29.36 -10.57,44.99 -0.75,20.91 5.2,42.2 24.46,55.58 24.1,16.35 57.38,16.14 87.2,6.63 -8.88,48.07 21.38,106.16 77.78,117.63 26.28,5.14 46.59,1.22 61.98,-9.05 -1.26,8.07 -2.72,15.62 -3.46,21.74 -6.02,44.48 -7.32,101.56 42.8,126.47 33.6,16.59 63.95,7.77 85.33,-13.89 -1.88,42.87 3.55,85.4 13.29,127.37 1.91,8.07 10.55,15.41 19.18,17.38 27.72,5.78 28.98,9.5 56.63,-2.5 21.23,-8.99 40.93,-20.22 55.86,-36.54 0,0.45 0,0.98 0.3,1.44 2.74,29.3 7.26,58.81 20.85,85.91 25.24,50.28 79.13,81.03 134.63,44.93 45.01,-29.07 53.08,-82.74 26.58,-124.26 26.5,-9.31 37.37,-35.12 37.37,-60.79 -0.24,-39.27 -35.79,-92.72 -81.25,-102 14.06,-17.38 17.3,-40.09 1.29,-68.41 -12.16,-21.68 -33,-37.09 -57.38,-46.59 14.64,-15.41 21.66,-35.63 13.8,-57.38 -9.2,-24.63 -30.86,-24.4 -46.04,-41.99 -12.78,-14.64 -6.81,-27.09 -31.12,-36.38 -24.29,-9.5 -55.05,-14.19 -84.56,-18.13 38.98,-0.3 89.02,-13.29 93.47,-73.84 3.79,-52.57 -33.67,-87.2 -85.38,-107.44 0.6,-1.73 1.11,-3.17 1.41,-5.14 12.93,-60.27 -23.63,-99.82 -77.52,-123.96 30.35,2.16 58.49,-5.89 82.06,-39.79 38.83,-54.98 -41.46,-113.26 -93.46,-132.29 -8.45,-3.19 -17.38,-6.12 -26.28,-9.06 11.41,2.19 22.8,4.6 33.82,6.79 59.13,11.56 139.85,-3.62 153.74,-66.37 15.41,-69.62 -63.72,-87.88 -121.19,-96.87 -4.37,-0.77 -8.9,-1.52 -13.59,-2.27 221.69,1.95 445.24,-4.83 664.45,-29l5.65 21.96c-0.75,0.24 -1.35,0.47 -1.89,0.7 -51.17,-10.21 -105.65,4.37 -157.74,11.24 -52.46,7.32 -112.64,8.33 -161.5,28.55 -82.06,34.2 -141.41,103.74 -106.46,184.3 34.14,78.59 135.55,63.5 208.94,38.14 32.32,-11.26 63.18,-27.63 92.63,-46.89 -7.53,7.09 -14.57,13.2 -20.31,17.59 -56.52,43.41 -187.47,108.34 -136.27,194.04 52.09,87.13 148.81,33.9 230.06,-47.11 -8.9,16.59 -16.84,32.47 -23.33,46.59 -21.15,45.14 -42.83,109.39 12.97,142.85 51.52,31.01 106.48,-8.52 133.96,-47.56 32.24,-46.68 50.06,-108.88 59.87,-168.01 5.67,10.79 11.32,21.74 16.99,32.47 -1.58,1.94 -3.55,3.94 -4.54,6.35 -16.31,35.85 -29.28,73.01 -43.19,109.86 -11.83,31.46 -30.26,66.89 -33.81,100.04 -4,40.09 27.18,75.21 73.45,76.71 57.19,1.89 68.57,-44.93 78.83,-85.16 4.33,-16.16 14.66,-40.62 20.85,-64.7 7.94,10.19 15.71,20.46 23.93,30.26 -22.49,66.37 -69.15,245.77 51.43,238.98 34.65,-1.99 62.81,-26.67 66.67,-57.61 2.12,-16.85 -1.88,-35.19 -0.3,-52.25 0.32,-3.42 0.51,-6.87 1.13,-10.27 6.81,5.35 13.74,10.72 20.52,15.86 -15.17,40 -0.3,96.63 16.25,131.82 16.31,35.17 44.99,68.1 90,72.26 53.92,4.6 79.04,-33.22 80.48,-75.19 5.37,4.67 11.34,8.75 17.59,11.92 25.77,13.2 51.73,15.41 80.5,17.36 25.47,1.73 42.2,3.7 59.86,-16.31 28.19,-31.48 14.88,-75.96 -19.24,-98.9 -19.24,-12.69 -41.99,-19.48 -65.24,-20.76 6.66,-11.71 9.44,-25.39 5.67,-40.24 -13.29,-52.03 -76.73,-70.82 -139.01,-67.89 15.41,-10.96 26.73,-26.35 30.05,-46.89 7.04,-44.86 -30.35,-77.84 -76.41,-85.16 -15.93,-2.42 -32.56,-4.15 -49.08,-5.37 41.22,-11.47 82.15,-38.06 77.54,-77.61 -8.67,-69.86 -117.87,-68.34 -168.53,-86.44 -10.04,-3.64 -22.28,-7.79 -35.48,-11.94 7.85,0.23 15.71,0.69 23.24,0.98 58.09,0.75 157.14,-7.32 164.22,-75.19 8.09,-76.22 -91.89,-88.35 -155,-90.54 71.5,-7.11 144.13,-52.48 133.85,-122.1 -12.22,-85.17 -150.61,-66.37 -218.95,-61.77 -23.78,1.74 -47.43,3.19 -70.91,5.67 61.7,-10.04 123,-21.51 183.64,-34.95 182.87,-13.37 372,-21.44 551.41,-54.45 -25.22,13.98 -50.13,28.1 -74.2,43.73 -39.34,25.34 -76.73,54.43 -101.94,92.03 -31.4,46.59 -62.6,153.05 13.06,180.62 66.67,24.66 160.91,-6.35 214.58,-51.28 -7.08,23.18 -11.7,47.13 -12.76,71.06 -2.42,57.83 20.85,140.12 100.81,142.33 47.41,1.5 85.85,-33.45 109.48,-71.06 0.24,2.18 0.24,4.69 0.54,6.57 7.56,59.78 49.83,120.88 121.1,127.99 62.82,6.31 119.98,-31.8 120.59,-90.62 0.53,-48.78 -31.19,-137.19 -15.48,-131.07 4.15,1.71 47.19,211.19 142.33,208.7 48.71,-1.43 82.29,-34.44 82.06,-77.84 -0.3,-17.85 -4.9,-40.56 -12.97,-62.99 8.07,2.18 16.22,4.39 24.31,6.57 -4.07,15.86 3.53,35.42 7.83,51.28 8.17,29.28 20.61,60.02 39.04,85.17 27.65,38.12 82.38,71.81 131.15,41.52 36.62,-22.73 43.34,-70.59 27.42,-105.47 -5.22,-11.17 -12.78,-21.21 -21.98,-29.96 17.92,3.38 35.72,5.8 53.38,7.02 32.79,61.54 141.43,110.07 199.65,70.59 38.2,-25.9 33.07,-75.72 4.69,-105.71z"/>
 </g>
</svg>
