<?xml version="1.0" encoding="UTF-8"?>
<!DOCTYPE svg PUBLIC "-//W3C//DTD SVG 1.1//EN" "http://www.w3.org/Graphics/SVG/1.1/DTD/svg11.dtd">
<!-- Creator: CorelDRAW 2021 (64-Bit) -->
<svg xmlns="http://www.w3.org/2000/svg" xml:space="preserve" width="22in" height="22in" version="1.1" style="shape-rendering:geometricPrecision; text-rendering:geometricPrecision; image-rendering:optimizeQuality; fill-rule:evenodd; clip-rule:evenodd"
viewBox="0 0 22000 22000"
 xmlns:xlink="http://www.w3.org/1999/xlink"
 xmlns:xodm="http://www.corel.com/coreldraw/odm/2003">
 <defs>
  <style type="text/css">
   <![CDATA[
    .fil0 {fill:none}
    .fil1 {fill:#2B2A29}
   ]]>
  </style>
 </defs>
 <g id="Layer_x0020_1">
  <metadata id="CorelCorpID_0Corel-Layer"/>
  <rect class="fil0" width="22000" height="22000"/>
  <path class="fil1" d="M20532.38 11544.98c-212.24,-39.13 -472.19,-120 -649.59,-260.66 199.86,-5.52 399.77,-14.56 599.28,-28.29 33.14,-2.37 33.95,-52.59 0,-52.1 -212.98,3.45 -425.82,3.69 -638.4,1.63 48.93,-66.18 80.32,-151 142.46,-209.11 130.4,-121.68 325.44,-121.17 492.56,-96.03 302.69,45.21 564.17,211.77 815.06,377.82 -213.3,189.24 -467.65,320.92 -761.37,266.74zm-19826.09 -276.29c250.87,-165.96 512.27,-332.5 815.04,-377.72 167.05,-25.15 362.11,-25.73 492.48,95.94 62.17,58.21 93.63,143.05 142.54,209.13 -212.59,2.05 -425.4,1.81 -638.48,-1.65 -33.86,-0.49 -33.04,49.74 0,52.13 199.61,13.72 399.43,22.69 599.26,28.29 -177.28,140.65 -437.24,221.53 -649.5,260.75 -293.7,54.18 -548.04,-77.52 -761.35,-266.85zm2843.85 175.28c164.65,5.11 269.86,84.1 240.76,268.88 -18.97,121.92 -99.13,216.85 -174.76,309.11 -105.7,128.97 -198.68,264.03 -277.02,411.09 -157.82,-164.98 -259.35,-375.74 -281.07,-604.94 -11.33,-118.38 -17.67,-290.51 75.15,-380.69 95.19,-92.55 219.65,-58.2 329.63,-18.99 -87.2,114.19 -143.77,256.16 -141.89,372.72 0.26,24.65 34.86,28.61 41.92,5.5 36.59,-118.12 62.15,-228.36 136.94,-330.96 6.92,-9.44 14.08,-18.24 21.46,-26.96 9.05,1.82 15.87,-1.89 19.81,-8.46 2.75,2.15 5.59,3.45 9.07,3.7zm1344.78 -549.62c-10.86,-5.26 -21.14,-2.54 -28.71,3.45 -93.93,-132.52 -148.94,-294.44 -146.31,-455.25 0.33,-15.85 -18.67,-21.69 -29.59,-12.17 -86.15,74.31 32.56,315.67 68.23,396.07 14.89,33.53 32.06,66.6 51.87,98.07 -60.07,63.38 -172.97,2.38 -221.56,-39.47 -48.07,-41.17 -78.74,-94.28 -96.26,-154.87 -30.87,-106.77 -18.25,-227.12 2.4,-334.15 33.3,-171.9 101.76,-331.54 196.88,-476.94 33.95,134.31 77.76,266 135.13,392.36 32.06,70.28 69.55,135.87 113.2,199.58 24.84,35.93 52.61,70.61 73.98,108.91 24.03,34.7 37.24,72.75 40.2,113.69 25.68,86.24 -27.45,139.83 -159.45,160.71zm268.98 375.42c-23.86,37.26 -43.41,72.42 -57.49,98.57 -47.23,20.65 -95.93,37.82 -146.41,50.08 -34.42,8.13 -69.3,11.58 -104.14,17.17 6.57,-29.92 -4.78,-58.44 -26.47,-78.83 9.3,6.89 20.88,11.19 34.35,10.6 30.67,-1.07 49.17,-23.02 55.25,-48.91 79.34,4.52 156.52,-24.91 233.2,-46.05 4.22,-0.98 7.99,-1.8 11.7,-2.63zm756.03 -10.34c144.1,-107.54 234.25,181.1 206.96,276.36 -18.48,65.52 -45.46,163.6 -76.61,221.79 -81.37,152.25 -150.44,275.71 -177.14,443.57 -128.23,-112.04 -244.81,-241.34 -299.8,-405.5 -33.86,-101.04 -48.91,-221.63 -22.19,-326.76 15.61,-61.33 44.46,-125.62 92.72,-168.45 34.37,-33.28 74.08,-51.87 119.03,-55.23 34.11,-8.72 68.23,-7.9 102.83,2.12 -6.57,2.89 -6.57,12.43 -2.38,17.2 0.26,-0.02 0.26,0 0.26,0.24 -46.51,133.26 -71.68,287.15 -40.19,421.88 4.87,20.88 34.11,14.54 35.18,-4.69 7.9,-116.91 4.26,-230.01 34.68,-344.78 3.72,-13.98 11.6,-41.99 23.28,-76.36 1.3,-0.26 2.28,-0.58 3.38,-1.4zm719.94 -448.59c-42.93,-34.69 -89.94,-65.59 -135.41,-98.66 13.16,-19.81 21.71,-43.32 31.15,-63.94 23.28,-52.04 47.84,-103.58 66.18,-157.5 68.74,159.39 208.56,184.2 385.62,171.55 25.17,34.11 52.69,65.52 81.72,94.05 -143.29,16.94 -286.33,35.19 -429.27,54.5zm366.4 -233.2c-1.91,-0.26 -3.72,-0.26 -5.35,0 -7.41,-11.28 -14.47,-22.95 -21.14,-35.12 -64.52,-118.21 -84,-235.09 -110.98,-364.32 -5.57,-26.64 -44.95,-19.06 -45.79,6.08 -4.26,137.78 48.91,300.87 136.13,436.26 -89.5,4.45 -186.84,8.13 -255.91,-57.2 -80.04,-75.64 -95.42,-216.2 -96.26,-317.98 -1.8,-199.84 65.1,-392.59 135.96,-577.4 113.62,118.7 216.78,245.88 306.15,384.48 43.64,67.9 88.29,137.92 121.07,212 19.25,43.32 36.75,94.6 37.56,142.44 1.07,98.57 -107.09,187.44 -201.45,170.76zm128.14 586.44c-2.64,4.17 -5.52,7.88 -8.97,11.35 0.84,-5.04 1.4,-9.79 0.58,-15.15 0,-0.72 -0.26,-1.21 -0.26,-2.05 3.96,1.32 6.83,3.44 8.65,5.85zm948.32 -135.64c209.69,-40.69 223.41,242.41 156,367.94 -33.3,62.47 -79.57,117.72 -118.46,176.65 -73.96,112.39 -133.99,231.83 -183.71,356.36 -105.72,-144.01 -175.02,-313.85 -201.73,-490.67 -29.82,-196.72 31.22,-532.2 285.82,-423.52 -81.23,120 -120.52,261.73 -70.04,400 6.57,17.76 35.67,16.36 34.6,-4.78 -6.06,-140.88 14.31,-263.87 85.07,-374.67 5.1,-0.75 9.56,-3.61 12.44,-7.32zm1385.37 -425.66c-5.08,-3.12 -10.04,-3.7 -14.56,-3.45 -26.94,-44.97 -51.29,-91.74 -70.86,-143.54 -41.47,-110.54 -49.14,-224.24 -75.03,-337.93 -3.44,-14.73 -28.87,-16.13 -31.25,0 -21.44,150.67 27.22,333.4 111.8,484.1 -130.02,-16.61 -210.37,-56.56 -262.73,-194.24 -32.79,-86.01 -37.57,-179.29 -30.18,-270.21 16.94,-203.39 99.48,-398.7 205.43,-572.16 48.93,152.25 114.27,295.12 194.01,434.95 56.64,99.13 120.59,199.09 158.96,307.12 16.39,46.76 36.68,106.28 28.04,155.52 -17.17,97.24 -99.45,210.11 -213.63,139.83zm-136.94 952c-25.89,6.89 -50.5,22.7 -69.07,48.42 -4.92,-7.74 -9.79,-15.38 -14.54,-23.02 22.28,-36 20.13,-77.17 -4.12,-111.29 25,-22.46 50.47,-46.79 76.29,-72.19 -5.5,51.8 1.89,104.91 11.44,158.08zm-60.03 -188c-20.13,23.83 -38.31,48.42 -56.06,73.75 -1.05,-0.75 -2.12,-1.82 -3.45,-2.63 -21.69,-15.31 -65.85,-41.52 -94.86,-38.07 -1.63,-3.71 -3.45,-7.65 -7.15,-11.09 -4.99,-5.5 -40.69,-41.76 -28.03,-57.37 20.64,41.83 112.87,43.39 189.56,35.42zm-5001.15 -916.07c0.35,-0.68 0.33,-1.24 0.33,-1.82 0.19,0.58 0.67,1.14 1,1.82l-1.33 0zm-1168.52 538.6c-1.63,0.82 -2.89,1.89 -4.29,2.64 -10.25,-8.97 -20.55,-18.27 -30.9,-28.04 -89.6,-87.8 -145.17,-191.47 -212.26,-295.05 -10.34,-16.19 -36.17,-6.08 -30.99,13 34.14,123.97 125.3,251.13 237.75,350.02 -585.86,65.76 -497.33,-651.48 -427.54,-1054.11 94.93,156.28 209.6,294.79 345.33,419.34 80.09,73.73 169.92,145.18 221.79,243.23 65.3,122.89 42.02,291.09 -98.89,348.97zm-2459.71 295.61c210.7,194.48 468.72,347.3 765.31,316.07 169.29,-17.59 337.37,-82.21 494.38,-145.1 110.82,-44.13 212.84,-98.06 299.57,-179.29 142.45,3.22 285.24,4.85 428.04,4.52 -26.96,25.4 -52.13,52.13 -75.64,79.9 -21.35,-0.81 -42.83,-0.81 -64.2,-0.81 -19.29,0 -39.94,-1.65 -60.09,-0.49 -1.05,-3.22 -2.05,-6.34 -3.71,-9.79 -13.14,-26.47 -45.69,-35.19 -71.58,-28.03 -25.66,-19.57 -70.54,-4.03 -83.61,23.75 -7.29,15.15 -3.87,29.36 4.26,40.45 -23,34.6 -25.07,80.39 -6.08,118.79 10.37,21.04 38.4,16.36 49.66,0 20.48,-29.2 37.4,-48.68 73.82,-52.36 26.73,-2.63 52.85,-14.89 57.88,-42.92 10.12,-0.58 20.39,-1.56 30.41,-1.8 12.51,-0.26 24.91,-0.58 37.24,-0.83 -14.7,19.8 -28.45,40.45 -41.76,61.59 -1.56,0.81 -3.12,1.4 -4.94,2.61 -4.26,2.47 -6.67,7.74 -5.33,12.51 0.25,0.56 0.25,0.98 0.49,1.56 -7.56,13.24 -15.29,26.47 -22.11,40.2 -32.56,5.83 -66.67,20.62 -91.74,28.78 -25.73,8.78 -54.74,17.17 -80.97,29.59 -0.47,-2.07 -1.8,-3.87 -2.87,-5.52 1.3,-8.22 1.63,-16.59 0,-25.56 -2.38,-13.07 -18.59,-20.62 -30.66,-17.17 -6.08,1.47 -12.42,3.68 -18.57,5.76 -0.98,-1.07 -1.81,-2.07 -2.89,-2.89 -3.42,-3.19 -8.13,-3.45 -12.07,-1.63 -6.65,-5.52 -14.31,-9.2 -23.52,-10.27 -29.43,-4.03 -49.49,27.7 -63.31,49.98 -1.21,2.37 -2.05,4.69 -3.35,7.13 -3.45,2.63 -6.67,5.27 -9.56,7.9 -12.17,10.28 -10.6,26.47 -2.37,37.49 -1.31,35.75 15.28,70.37 56.06,79.91 43.83,10.27 80.39,-29.11 100.46,-69.3 42.52,-10.61 83.77,-36.17 124.03,-49.66 10.56,-3.7 22.7,-6.34 34.86,-9.04 -17.17,37.82 -44.22,93.39 -46.53,140.91 -17.73,4.52 -33.86,14.28 -44.95,28.59 -25.31,15.05 -46.79,38.07 -61.91,62.4 -13.12,21.63 12.51,43.32 33.13,33.04 8.15,-4.26 16.35,-8.55 24.33,-12.42 2.65,2.05 5.26,3.87 8.39,5.03 0.02,-0.02 0.33,0 0.33,0.23 -2.12,3.45 -4.04,7.15 -6.08,10.86 -9.28,14.31 2.3,38.06 20.65,35.91 5.26,-0.49 10.51,-1.31 15.78,-2.61 10.04,1.89 19.81,1.3 29.17,-0.58 24.28,11.42 53.85,7.97 77.69,-21.62 31.76,-39.96 6.34,-83.03 -28.62,-96.52 0.61,-0.49 0.84,-1.31 1.4,-2.12 7.67,-10.04 1.49,-25.91 -8.29,-31.64 -5.17,-3.22 -10.86,-5.36 -16.36,-7.15 8.22,-50.31 38.89,-112.88 66.67,-162.37 1.33,-0.81 2.63,-1.79 3.94,-2.63 6.43,32.97 13,66.11 19.31,99.15 7.41,37.46 11.61,78.24 21.62,116.32 -12.16,11.09 -15.03,28.85 -12.4,45.2 -10.02,14.8 -18.27,31.25 -24.35,48.1 -6.31,9.28 -8.39,22.44 -9.43,35.19 -1.4,7.87 -2.14,16.1 -2.63,24.07 -0.81,23.77 39.03,29.59 42.5,5.52 1.31,-9.79 2.7,-19.83 3.94,-29.85 0.84,-2.96 1.4,-5.83 2.21,-8.46 2.07,8.46 5.76,16.35 12.65,23.51 30.11,31.48 79.34,13.14 94.04,-23.02 3.47,-7.97 -2.05,-20.88 -9.78,-24.33 -0.96,-0.26 -2.05,-0.84 -3.12,-1.33 3.15,-10.53 0.51,-22.7 -11.42,-28.52 -1.56,-0.81 -3.13,-1.63 -4.69,-2.47l0 -6.34c8.71,-16.59 10.28,-37.46 1.56,-57.04 -5.26,-11.91 -21.95,-14.8 -32.81,-9.44 -6.55,-70.95 -32.72,-146.01 -46.28,-210.53 -1.79,-9.79 -4.43,-31.9 -10.28,-51.8 1.56,-2.38 3.22,-5.01 4.52,-7.13 19.08,-31.41 40.71,-60.84 63.47,-89.36 6.59,0 13.24,0 19.81,-0.26 1.33,53.69 15.28,109.75 44.65,155.12 -14.54,12.98 -26.63,29.2 -35.7,48.17 -4.99,10.63 -2.61,21.95 7.41,28.55 17.78,11.41 36.74,15.03 55.57,11.41 0.84,7.64 1.47,15.54 2.05,23.26 1.33,12.42 11.42,21.62 24.33,18.43 38.66,-9.46 51.31,-35.86 51.06,-66.01 7.06,-3.47 13.72,-7.41 19.57,-12.52 7.87,1.66 15.61,4.29 22.76,7.74 15.03,7.97 32.72,-12.16 19.22,-24.33 23.54,-15.87 33.14,-46.54 15.38,-70.54 -15.94,-21.2 -46.05,-29.17 -71.35,-22.53 -2.96,-1.07 -5.92,-2.38 -8.81,-2.96 -24.89,-5.17 -40.43,6.92 -46.77,23.51 -7.13,-1.47 -13.98,-3.94 -20.88,-7.06 -1.89,-0.75 -3.44,-1.07 -5.26,-1.33 -20.37,-39.13 -32.56,-80.14 -31.16,-130.02 0.42,-16.19 -13.81,-22.54 -25.98,-19.67 0.02,-0.17 -0.33,-0.72 -0.33,-1.21 26.33,-29.2 54.27,-56.65 83.86,-82.79 309.83,-1.82 619.74,-10.86 929.24,-25.15 11.67,-0.58 23.32,-1 34.93,-1.81 -61.56,28.78 -120.03,75.63 -170.5,132.19 -99.69,-51.31 -231.81,-72.52 -333.41,-24.35 -112.36,53.43 -149.85,170.83 -161.46,286.9 -32.55,316.91 97.24,632.58 322.99,852.87 12.49,12.09 36.24,10.77 44.95,-5.92 83.63,-163.09 185.04,-307.93 300.13,-450.15 79.28,-97.59 159.65,-200.42 179.7,-328.32 16.13,-103.42 -8.62,-213.17 -95.12,-279 -56.13,-42.76 -130.11,-64.71 -191.68,-34.6 57.63,-55.25 123.22,-99.96 183.97,-153.56 512.64,-26.47 1022.61,-71.93 1531.78,-126.44 -25.96,24.33 -50.48,53.69 -72.98,84.1 -2.28,0.24 -4.52,1.07 -6.59,1.89 -89.08,38.31 -179.78,47.25 -270.44,68.71 -1.79,-10.83 -8.94,-19.81 -21.69,-22.28 -2.61,-3.7 -5.85,-6.83 -9.2,-10.02 1.3,-4.29 2.28,-8.65 3.35,-12.91 8.25,-30.41 -28.03,-47.84 -49.89,-29.1 0.03,0 -0.26,0 -0.26,0.26 -6.06,-3.22 -12.49,-5.01 -19.06,-3.96 -34.44,4.78 -60,43.09 -61.66,77.2 -3.45,10.02 -0.74,21.46 6.08,29.59 6.43,11.91 17.01,19.06 29.69,21.69 3.96,8.72 9.2,16.62 16.1,22.93 -1.05,-0.65 -2.14,-1.8 -3.19,-2.54 -7.41,-5.26 -19.24,-2.96 -25.59,2.89 -35.48,-16.94 -80.13,-7.73 -103.97,26.63 -18.48,27.03 -16.36,68.79 5.27,92.79 0.33,25.75 13.8,50.89 44.46,63.54 12.42,4.94 24.33,6.59 35.68,5.26 1.07,1.89 2.14,3.71 3.44,5.27 16.71,23.58 53.69,9.53 46.79,-19.81 -0.72,-3.7 -1.82,-7.41 -2.89,-11.11 6.01,-7.13 10.86,-15.36 13.98,-24.33 75.87,1.81 156.75,-21.69 230.83,-51.54 -37.24,67.67 -85.66,163.6 -87.31,233.72 -14.96,-3.13 -30.89,-1.65 -45.46,6.08 -3.1,1.56 -6.08,3.7 -8.69,5.76 -15.52,0 -30.92,0.33 -46.3,0.33 -24.49,0.23 -35.68,28.52 -22.18,46.77 -13.98,12.75 -9.46,35.67 5.59,46.28 36.75,25.91 73.73,52.13 110.47,77.94 11.68,8.55 33.89,3.19 39.87,-10.27 7.97,-18.18 17.52,-33.56 31.24,-47.61 8.79,-8.71 11.91,-24.33 4.52,-34.93 -0.82,-1.49 -2.05,-2.89 -2.89,-4.1 0.51,-6.43 0.49,-12.52 -0.33,-18.6 0.58,-3.93 -0.23,-8.22 -2.87,-12.16 -1.89,-5.27 -3.96,-10.51 -6.83,-15.87 -0.58,-0.81 -1.4,-1.79 -2.21,-2.63 -12.09,-50.96 39.19,-161.53 89.34,-253.27 -1.21,63.96 7.15,129.3 33.39,186.11 -14.24,17.43 -23.02,40.52 -25.17,60 -4.2,39.39 11.67,77.78 44.97,99.97 13.81,9.2 28.52,-3.45 30.15,-17.18 0.51,-4.78 1.07,-9.46 1.65,-14.3 26.15,12.42 55.97,14.89 84.84,4.84 11.11,-3.77 19.81,-13.47 19.48,-25.98 0,-10.35 -0.26,-20.62 -0.49,-30.97 -0.32,-12.91 -8.15,-20.9 -19.57,-25.58 -6.57,-2.87 -13.24,-5.57 -19.81,-8.46 5.5,-14.56 6.08,-31.25 -0.83,-45.79 -5.74,-11.84 -15.61,-18.74 -26.38,-21.37 -7.13,-5.59 -17.43,-5.36 -24.59,0.23 -5.83,-2.12 -12,-3.12 -18.57,-2.61 -3.7,0.24 -7.15,1.31 -10.6,2.38 -17.41,-77.94 -27.71,-153.82 -14.73,-237.98 0.75,-4.94 0.26,-9.78 -1.05,-13.98 10.28,-17.18 19.22,-31.48 24.81,-40.46 9.79,-15.28 20.13,-30.41 30.67,-44.95 11.35,8.79 23.52,21.11 40.43,38.06 8.25,8.22 16.12,16.12 24.35,24.09 -1.63,1.07 -2.89,2.38 -4.78,3.45 -13.7,7.64 -18.17,22.53 -14.8,36.26 -28.75,0.98 -40.94,47.26 -13.24,59.68 9.04,4.03 17.69,6.89 26.73,9.53 5.03,5.59 6.64,14.56 8.71,22.2 7.16,26.12 38.87,24.33 50.7,4.52 25.52,0.72 50.57,-13.72 60.1,-36.02 23.77,-10.83 16.94,-50.96 -7.74,-56.04 -1.8,-0.26 -3.68,-0.42 -5.5,-0.74 4.45,-9.04 7.41,-19.32 7.41,-30.92 0,-12.72 -3.97,-25.96 -11.12,-36.49 -2.35,-8.71 -6.15,-16.69 -11.09,-23.51 -0.24,-0.58 -0.26,-1.15 -0.58,-1.31 -2.29,-5.03 -6.57,-8.48 -11.09,-11.11 -0.23,0 -0.23,-0.33 -0.58,-0.33 -1.21,-0.72 -2.28,-1.31 -3.61,-1.89 -2.93,-1.49 -5.59,-3.38 -9.04,-4.43 -22.44,-7.08 -41.76,5.83 -50.7,23.84 -16.13,-17.52 -32.56,-34.7 -49.26,-51.54 30.43,-38.15 64.06,-73.59 102.93,-103.67 19.9,-15.29 34.86,-23.84 47.09,-34.11 185.06,-20.06 369.85,-41.5 554.63,-63.22 -32.76,50.57 -55.81,112.38 -72.98,152.58 -0.81,2.38 -1.89,4.78 -2.89,7.15 -55.3,-36.74 -153.31,-15.96 -205.17,8.39 -111.29,52.36 -169.76,166.05 -187.52,283.52 -47.49,316.07 152.65,580.78 380.2,772.39 18.24,15.38 42.34,4.84 44.72,-18.5 11.6,-111.31 38.56,-218.34 87.8,-319.29 29.85,-61.07 79.74,-112.61 108.35,-172.94 41.27,-86.47 83.01,-219.41 72.98,-318.05 -8.2,-84 -56.06,-178.15 -132.52,-220.49 -31.04,-17.17 -64.78,-26.14 -100.36,-21.11 -4.82,0.72 -13.24,8.46 -22.02,15.04 24.07,-63.94 56.13,-135.3 91.74,-176 425.65,-50.54 851.06,-103.16 1277.28,-152.07 48.28,-5.52 96.68,-10.02 145.1,-14.8 -55.32,37.24 -97.5,88.29 -134.08,146.48 -21.85,5.03 -43.57,18.5 -61.91,26.98 -42.15,19.81 -87.13,38.31 -128.14,61.56 -0.26,-0.49 -0.51,-1.33 -0.84,-1.89 23.54,-5.76 34.11,-29.04 49,-51.54 8.65,-12.91 -2.63,-34.6 -18.83,-32.72 -23.81,2.28 -49.65,6.57 -72.75,15.54 -7.29,-2.89 -16.1,-2.07 -23.77,4.26 -17.89,14.8 -38.05,21.95 -61.31,23.19 -9.28,0.33 -19.32,6.31 -21.37,16.19 -4.76,23.26 2.61,41.43 16.1,54.99 -2.37,3.94 -4.78,7.65 -6.9,11.35 -6.83,11.91 -0.51,25.96 12.17,30.08 12.19,4.03 33.53,9.62 55.48,12.26 10.37,15.03 24.09,27.78 41.52,34.6 31.81,12.4 66.67,-1.65 83.84,-30.67 11.11,-18.82 10.5,-39.38 0,-54.99 0.02,-2.63 -0.49,-4.78 -1.57,-6.57 31.97,-16.22 67.07,-34.37 99.39,-42.92 -25.89,48.17 -52.13,97.91 -73.24,149.46 -18.74,1.31 -36.52,10.77 -57.95,21.6 -66.6,34.12 -129,61.59 -199.02,82.21 -5.82,-28.03 -15.05,-59.67 -43.41,-58.7 -9.2,-4.69 -20.88,-4.43 -30.34,2.73 -1.05,-5.01 -3.45,-9.88 -6.9,-13.98 -22.68,-27.54 -67.16,-23.83 -92.56,-2.7 -23.49,19.55 -29.52,50.22 -22.7,78.57 -15.59,21.62 -20.88,49.4 -4.52,73.4 3.47,5.1 7.74,7.99 12.42,10.37 10.28,10.28 23.1,18.5 34.35,23.25 14.31,6.08 35.19,2.89 38.89,-15.87 0.58,-3.19 0.81,-6.31 1.33,-9.53 11.09,4.77 22.51,8.71 33.6,12.42 11.6,3.7 25.91,-2.63 31.9,-12.91 4.87,-9.04 9.79,-17.75 14.89,-26.47 8.22,-2.14 16.36,-4.43 24.56,-7.9 1.58,-0.56 3.21,-1.63 4.54,-2.61 80.06,-13.26 138.51,-52.94 215.45,-81.72 7.15,-2.7 14.05,-4.29 20.88,-5.01 -9.86,31.71 -17.18,63.94 -20.88,96.75 -4.52,-1.4 -9.05,-2.47 -13.5,-2.7 -2.38,-1 -4.52,-2.07 -6.83,-2.89 -20.44,-5.85 -45.28,2.37 -56.39,21.37 -2.84,5.33 -5.5,12 -6.9,19.15 -3.12,5.5 -5.5,11.61 -7.06,18.18 -17.27,38.87 -28.13,81.21 -8,121.33 20.16,39.94 66.11,60.26 106.8,38.15 18.01,-9.62 30.18,-26.8 33.53,-44.97 0.84,-0.26 1.98,-0.58 2.72,-1.07 11.35,-5.01 18.74,-11.67 23.26,-18.99 12.19,-15.38 18.5,-35.75 15.05,-54.74 -3.44,-19.41 -16.12,-34.7 -32.71,-37.08 -1.4,-8.48 -4.52,-16.94 -9.3,-24.51 8.72,-37.14 18.99,-76.2 31.25,-116.39 33.53,19.81 61.31,61.07 84.26,106.79 -18.5,13.96 -30.34,37.31 -29.27,61.15 -2.96,4.45 -4.78,8.97 -6.17,12.91 -5.24,1.56 -10.02,3.96 -13.47,7.41 -10.86,10.35 -13.49,25.63 -10.05,38.8 -0.98,5.34 -2.37,10.86 -3.7,16.2 -5.5,24.07 21.13,48.81 43.9,33.85 2.72,-1.89 5.27,-3.45 7.9,-5.08 4.52,4.76 9.3,9.2 14.63,12.65 29.27,49.24 114.18,132 163,61.15 17.78,-25.63 11.68,-60.33 2.96,-88.11 -0.72,-2.89 -2.12,-6.01 -3.61,-9.72 5.78,-6.9 8.13,-15.85 5.17,-25.63 -5.48,-17.76 -8.46,-35.67 -18.97,-47.84 4.19,-5.85 7.64,-12.75 9.28,-20.65 4.7,-25.4 -25.72,-47.84 -45.79,-26.7 -3.44,3.68 -6.31,7.64 -8.71,11.32 -3.94,-1.07 -14.8,-2.61 -27.45,-4.52 6.59,-15.29 -3.22,-31.65 -18.34,-37.24 -8.2,-2.86 -16.03,-4.01 -24,-3.68 -20.88,-65.03 -52.69,-126.11 -100.2,-157.36 20.3,-57.3 44.65,-114.41 74.05,-167.03 12.68,2.63 23.77,8.79 32.72,19.57 13.75,16.85 19.41,40.76 34.37,58.11 5.61,6.9 11.93,12.98 18.24,18.57 -4.17,9.46 -6.57,19.81 -5.75,31.15 0.51,6.67 2.4,12.98 4.68,19 -1.79,18.31 6.08,30.41 18.34,37.07 -1.4,0.23 -2.47,0.49 -4.04,0.49 -28.03,2.47 -27.21,40.29 0,43.41 34.11,3.94 68.23,7.87 102.02,11.84 26.24,2.86 30.67,-39.29 6.08,-45.21 -6.31,-1.59 -12.07,-3.87 -17.66,-6.83 2.96,-1.33 5.01,-3.45 7.65,-5.26 1.3,-0.82 2.7,-1.82 3.94,-2.96 1.65,-1.56 3.22,-2.89 4.84,-4.52 2.89,-2.89 5.53,-6.02 8.16,-9.7 23.26,-34.95 11.91,-83.37 -22.46,-103.41 -2.61,-11.84 -9.53,-22.44 -22.02,-29.85 -5.5,-3.2 -11.51,0 -13.49,5.5 -0.21,0.84 -0.49,1.33 -0.65,2.15 -5.31,-3.71 -11.19,-7.15 -17.17,-9.79 -13.56,-6.08 -33.69,-2.61 -36.84,14.8 -0.31,0.84 -0.33,1.66 -0.33,2.15 -14.45,-21.7 -24,-46.05 -38.06,-73.24 -6.31,-12.42 -14.7,-24.09 -26.15,-31.97 47.61,-68.81 105.23,-124.23 175.58,-152.84 5.78,-2.38 9.46,-6.32 11.61,-11.09 219.41,-19.58 438.89,-31.48 658.54,-35.42 -55.23,40.76 -107.28,89.85 -151.19,145.07 -53.92,-43.55 -135.87,-41.99 -201.46,-14.8 -94.63,39.13 -145.59,129.07 -165.73,225.82 -58.11,280.81 78.02,590.05 236.09,813.17 13.5,19.06 39.87,15.94 48.07,-6.02 56.58,-152.07 129.56,-293.69 220.72,-427.21 61.91,-90.74 132.78,-178.71 143.61,-291.91 12.44,-128.49 -81.11,-314.6 -222.11,-291.08 10.62,-12.65 21.72,-25.15 33.88,-37.47 24.35,-24.68 77.17,-81.23 123.48,-116.07 264.13,-2.72 528.49,5.5 792.59,27.78 253.78,21.04 505.4,55.41 756.03,98.31 -63.45,18.73 -122.31,51.54 -179.19,90.18 -91.25,12.91 -181.43,17.34 -272.26,18.99 6.57,-31.25 0.23,-61.89 -32.56,-82.21 -20.65,-12.65 -41.27,-15.12 -61.4,-10.83 -11.51,-20.97 -28.7,-38.89 -50.99,-53.43 -9.2,-5.85 -22.44,-5.36 -31.48,0 -36.75,22.18 -79.81,54.74 -76.36,102.34 -11.65,8.14 -23.02,16.36 -34.6,24.82 -11.44,8.13 -20.07,25.89 -10.37,39.38 6.92,9.2 13.49,19.22 19.57,29.43 3.45,69.69 64.78,136.94 137.2,134.24 53.11,-2.15 98.06,-52.29 97.82,-104.74 7.15,-6.83 13.72,-14.54 19.06,-22.93 1.23,-2.15 2.63,-4.27 3.94,-6.41 71.7,1.63 143.28,-2.89 214.63,-11.35 -84.49,65.34 -169.17,135.88 -243.48,214.96 -69.2,12.33 -135.55,7.15 -202.22,-13.81 0.58,-3.68 0.58,-7.39 -0.58,-10.83 -0.23,-1 -0.74,-1.82 -0.98,-3.13 2.14,-3.22 3.94,-6.33 5.01,-10.04 10.04,-15.61 15.12,-34.67 11.35,-55.81 -10.26,-57.63 -76.36,-81.95 -125.36,-61.57 -59.65,-47.11 -159.9,-12.67 -151.09,78.02 0.42,5.83 1.46,11.58 3.12,17.18 -0.47,1.3 -1.3,2.37 -1.89,3.61 -1.05,2.47 -1.56,5.1 -2.31,7.41 -0.33,0.82 -0.81,1.15 -1.4,1.96 -8.94,13.4 -4.68,31.41 5.92,42.5 0,0.26 0.17,0.49 0.17,0.81 5.03,11.68 25.4,32.23 30.92,47.52 0,6.33 0.24,12.74 0.24,19.15 0.02,12.68 7.15,22.12 16.52,27.96 2.3,17.67 10.27,33.63 29.85,45.21 8.39,5.01 22.44,6.33 30.67,0 32.48,-25.07 70.54,-33.86 109.41,-16.36 0.02,0 0,0 0.26,0 -1.56,2.87 -2.89,5.76 -3.96,8.72 -10.25,-5.85 -21.44,-10.53 -34.6,-13.56 -22.44,-4.94 -45.79,14.87 -38.63,38.63 8.48,28.61 5.59,53.43 -13.72,76.45 -17.89,21.69 -5.82,51.29 22.21,53.92 8.71,0.5 16.92,1.89 25.4,3.71 1.33,2.28 2.12,4.76 3.45,6.83 8.71,12.39 19.32,21.43 30.83,28.03 -0.65,8.94 -1.23,17.98 -2.31,26.96 -2.63,27.29 36.98,34.68 49.73,13.47 5.03,-8.63 9.79,-17.43 14.47,-25.8 0.61,0.39 1.4,0.98 2.15,1.79 -2.12,3.38 -1.33,8.71 2.38,10.53 0.26,0 0.26,0 0.26,0 -1.05,8.95 -2.31,17.99 -2.89,27.29 -1.28,27.22 28.03,36.66 48.68,28.03 8.71,-3.7 17.43,-7.48 26.15,-11.19 2.05,13.24 11.42,24.09 29.08,22.28 2.98,0.49 6.08,1.23 8.97,1.81 -11.33,82.21 70.86,153.89 154.96,160.71 32.81,2.61 58.93,-11.11 72.16,-37.82 10.63,1.15 21.37,2.47 32.23,3.45 28.28,2.87 37,-34.12 21.46,-51.8 -9.21,-10.6 -18.83,-21.37 -28.03,-31.97 5.78,-2.7 12.65,-1.3 23.51,-9.53 15.61,-11.61 27.45,-17.17 37.24,-35.67 11.09,-21.46 -2.63,-47.61 -27.78,-48.1 -11.28,0 -22.7,-0.33 -34.04,-0.58 0,-0.23 -0.26,-0.81 -0.49,-1.05 1.82,-2.89 3.71,-5.27 4.92,-8.39 5.61,-13.23 4.87,-24.33 -4.43,-35.77 -8.95,-10.86 -18.73,-18.74 -29.59,-24.33 -19.8,-33.88 -52.13,-54.18 -86.47,-59.44 -11.83,-72.42 -25.07,-145.17 3.94,-217.1 0.02,-0.24 0,-0.49 0.26,-0.82 87.61,-88.29 180.26,-181.59 281.3,-249 2.63,-0.23 5.59,-0.81 8.3,-1.3 3.15,53.17 -15.94,94.95 -18.57,144.35 -14.54,11.68 -20.39,31.16 -28.85,49.72 -14.71,9.54 -25.07,25.07 -25.92,49.4l0.03 0.84c-11.68,21.69 -23.77,43.06 -37.26,63.71 -6.55,10.51 -5.1,28.26 4.68,36.49 11.21,9.21 24.33,12.42 36.84,10.86 3.44,7.39 9.53,13.24 18.99,14.7 2.89,0.59 5.59,0.59 8.56,0.81 5.75,22.79 18.64,42.34 43.32,55.25 36.42,19.32 80.78,2.63 97.57,-30.67 30.08,1.4 60.26,-14.21 69.72,-46.7 4.52,-16.17 2.38,-31.48 -3.7,-44.72 9.3,-16.69 4.78,-42.9 -17.43,-46.61 -3.19,-0.49 -6.08,-1.46 -8.94,-2.63 0,-10.86 -2.14,-21.69 -6.34,-31.39 6.34,-8.22 7.9,-19.08 -0.33,-29.92 -22.93,-30.67 -58.7,-56.58 -97.82,-60.52 3.96,-55.81 16.43,-104.49 7.97,-162.6 83.05,-46.54 171.55,-73.24 267.25,-64.2 7.74,0.81 13.24,-1.65 17.5,-5.33 277.55,53.17 550.37,132.75 828.78,179.28 44.16,7.39 79.83,-55.83 32.72,-78.02 -293.93,-139.83 -628.85,-213.4 -946.9,-277.04 -120.59,-24.09 -242.17,-44.71 -364.09,-62.14 -17.41,-25.98 -34.93,-51.54 -51.78,-77.27 144.61,39.45 249.07,-133.5 229.43,-274.41 -19.81,-144.26 -106.54,-275.7 -177.4,-399.42 -90.57,-158.89 -165.49,-320.68 -216.94,-496.75 -6.39,-21.23 -34.21,-23.86 -46.04,-5.85 -156.01,240.62 -295.58,563.93 -229.99,856.58 23.51,104.39 75.87,208.62 170.48,264.85 54.44,32.56 130.31,56.39 182.41,23.61 22.46,35.65 46.53,68.95 72.78,99.45 -172.72,-23.35 -346.41,-41.01 -519.54,-54.01 -50.22,-3.7 -100.71,-6.64 -150.93,-9.2 -20.13,-24.91 -41.53,-46.35 -66.41,-66.67 -63.63,-52.29 -123.96,-92.56 -172.88,-157.76 20.32,-17.99 32.79,-40.85 46.77,-68.79 22.44,-45.72 43.08,-86.17 67.97,-123.48 49.19,16.68 110.5,13.24 154.4,5.01 20.88,-3.94 29.33,-31.23 19.31,-48.1 -2.63,-4.43 -5.03,-9.28 -7.73,-14.05 2.15,-2.63 4.52,-5.01 6.41,-7.55 19.24,-28.39 17.17,-59.54 7.9,-89.46 -5.01,-40.19 -23.28,-80.39 -55.48,-104.14 -32,-23.51 -63.48,-0.58 -78.6,29.6 -20.04,2.7 -37.98,11.91 -52.04,26.47 -3.1,1.31 -6.41,3.19 -9.3,5.5 -43.31,36.49 -82.19,112.87 -38.8,163.09 5.03,5.92 11.02,10.6 17.2,15.12 -36.84,50.47 -70.37,102.27 -119.44,145.43 -38.96,-69.3 -65.62,-139.09 -82.79,-210.21 33.3,-62.64 74.8,-113.43 120.26,-162.35 2.4,-0.74 4.45,-1.56 6.67,-2.63 12.09,6.57 24.74,10.86 38.24,13.24 6.15,20.3 32.55,33.04 51.12,14.31 8.39,-8.46 16.85,-16.94 25.31,-25.5 5.61,-5.75 7.99,-12.32 8.48,-19.22 9.55,-9.2 20.62,-17.2 33.53,-24.09 11.93,-6.57 17.75,-22.11 14.05,-35.19 -5.08,-17.59 -15.62,-32.13 -29.43,-42.73 0.61,-10.6 -1.24,-21.2 -5.76,-30.99 0.58,-1.89 0.83,-3.38 1.07,-5.01 2.07,-10.79 4.29,-23.02 1,-34.11 -7.55,-28.22 -37.26,-38.56 -63.64,-29.27 -23.51,8.2 -45.79,25.07 -61.89,45.7 -4.52,1.56 -8.97,3.45 -13.5,5.85 -12.07,-13.49 -36.16,-11.93 -47.83,3.69 -21.93,-4.27 -46.05,24.09 -33.53,47.61 6.08,11.35 12.07,22.93 18.41,34.37 -2.05,25.15 -0.42,50.47 10.35,67.07 -6.31,6.89 -12.65,13.72 -18.74,20.88 -17.41,19.81 -43.15,73.33 -65.59,104.25 -14.8,-84.84 -17.2,-171.9 -10.6,-262.07 62.5,8.78 108.66,-56.48 109.73,-114.11 0.03,-3.03 -0.81,-5.66 -1.3,-8.2 7.67,-5.85 15.61,-12.42 23.02,-19.31 19.83,-18.27 -0.84,-53.69 -26.47,-45.46 -4.43,1.31 -8.71,2.87 -13.24,4.52 -4.1,-33.72 -35.35,-68.23 -62.89,-80.4 -38.28,-16.7 -68.49,-5.59 -85.66,21.11 -39.38,21.14 -73.73,52.87 -62.64,100.71 0.26,0.49 0.49,1.07 0.49,1.89 -10.51,0.49 -21.95,6.83 -32.23,21.95 -19.78,29.33 -4.42,66.34 19.58,87.71 18.24,16.1 41.43,24.09 65.1,24.09 -22.28,92.23 -16.19,191.35 5.76,286.54 -37.23,-12.91 -79.57,-42.09 -108.68,-52.85 -17.18,-6.57 -34.05,-12.42 -51.06,-17.67 3.96,-15.38 1.65,-32.06 -10.51,-50.08 -5.57,-8.39 -11.35,-14.47 -17.69,-19.48 -0.3,-6.08 -0.82,-12.42 -2.22,-18.5 -0.39,-3.44 -1.56,-6.64 -2.3,-9.85 11.93,-26.96 22.69,-54.41 33.55,-82.7 8.72,-22.76 -17.2,-45.46 -38.56,-38.89 -14.8,4.52 -28.85,10.63 -42.34,17.52 -7.61,-16.19 -28.59,-21.46 -43.31,-11.44 -29.66,-18.74 -63.22,-31.48 -96.26,-37.24 -21.11,-3.68 -48.91,14.31 -39.13,39.15 9.23,23.49 15.12,47.58 17.18,71.35 -54.97,26.12 -76.2,88.04 -54.51,145.92 26.24,70.12 104.39,91 172.13,78.25 25.68,-4.69 62.4,-18.74 89.69,-39.61 70.54,23.52 140.33,47 208.55,80.07 12.91,44.2 28.78,86.96 46.21,126.93 15.38,34.84 31.81,69.79 50.48,103.65 -35.1,17.43 -62.08,10.02 -120.43,1.56 -32.07,-4.52 -63.8,-10.02 -95.78,-15.03 -5.24,-0.84 -10.53,-1.56 -15.63,-2.4 1.91,-2.87 4.29,-6.08 6.11,-9.04 11.09,-18.5 0,-40.69 -18.99,-47.03 -6.57,-2.12 -13.24,-3.68 -19.57,-5.5 -2.12,-1.89 -4.52,-3.7 -6.83,-5.33 -2.7,-4.03 -5.92,-7.41 -10.12,-9.79 -8.44,-4.69 -16.68,-8.71 -25.07,-11.6 2.07,-1.89 4.52,-3.45 6.33,-5.33 10.54,-3.45 20.07,-11.09 28.27,-26.64 17.78,-35.19 -23,-62.47 -51.52,-39.94 -2.63,2.12 -4.78,4.17 -7.15,6.31 -9.76,-1.3 -53.2,-6.82 -58.46,-6.57 -17.15,1.57 -31.72,7.32 -45.44,17.67 -4.52,3.21 -8.71,7.15 -12.67,11.11 -10.35,1.05 -20.62,2.12 -31.23,3.94 -20.06,3.45 -28.87,30.66 -18.83,46.53 1.89,3.19 3.7,6.64 5.59,9.86 -7.41,8.95 -15.87,16.94 -26.4,22.44 -31.48,16.61 -12.17,59.19 17.2,59.19 1.31,8.97 6.57,17.18 13.96,22.44 -1.79,0.83 -3.45,1.89 -5.24,2.96 -14.87,7.41 -20.39,29.92 -11.44,43.67 20.65,31.23 61.08,37.24 89.36,16.59 7.41,2.37 15.38,1.81 23.26,-2.64 13.74,13.49 30.17,25.07 49.49,33.63 6.33,2.63 12.65,3.45 18.83,2.89 -4.52,13.72 1.8,30.41 14.47,38.63 40.2,26.38 87.29,-8.23 85.4,-53.2 -1.07,-25.89 -16.43,-46.54 -31.97,-66.34 96.26,23.02 211.19,44.39 290.02,23.84 23.77,34.04 50.47,65.78 82.21,92.74 41.76,35.42 84.81,64.78 126.09,96.75 -527.98,-20.65 -1053.76,17.66 -1578.57,77.76 -37.24,-38.64 -73.73,-77.27 -106.54,-120.26 58.14,17.92 122.66,-5.92 166.06,-53.52 62.17,-67.65 64.78,-169.41 42.5,-253.76 -69.44,-265.69 -304.81,-524.3 -492.72,-715.42 -14.05,-14.56 -35.19,-6.01 -41.59,10.86 -97.5,253.25 -203.22,542.78 -128.42,816.69 2.4,9.2 5.27,17.69 8.15,26.47 -4.19,0.49 -8.15,2.3 -10.79,6.57 -39.68,64.2 -61.56,161.79 -116.56,214.07 -18.22,-14.73 -36.26,-29.85 -52.69,-46.79 -21.95,-22.37 -47.52,-50.15 -73.75,-81.14 19.34,-32.22 24.58,-79.32 31.15,-111.06 10.37,-50.15 19.9,-101.44 24.35,-152.98 6.9,1.33 14.54,1.33 23.26,-0.58 1.33,-0.23 2.47,-0.81 3.7,-1.4 21.95,11.19 47.84,-6.96 59.75,-32.13 2.63,-3.44 4.03,-7.48 4.52,-11.42 1.58,-5.75 2.63,-11.6 2.4,-17.2 0,-2.05 -0.26,-3.94 -0.26,-6.08 9.81,-23.75 7.41,-52.36 -8.22,-74.22 -16.92,-23.51 -42.25,-29.69 -66.9,-24.91 -1.8,-19.83 -27.48,-36 -47.03,-18.01 -0.49,0.58 -1.32,1.17 -1.89,1.65 -14.54,-9.04 -31.74,6.08 -29.04,22.68 0.28,0.32 0.26,0.58 0.26,0.83 -22.5,18.25 -45.78,35.19 -71.19,50.22 -28.2,20.88 -3.12,67.15 28.36,48.42 10.04,-7.48 21.37,-11.67 33.04,-12.98 -2.7,17.76 0.49,35.91 13,51.55 5.99,7.71 13.72,13.23 22.44,16.69 -5.25,33.04 -10.12,66.34 -16.45,99.13 -5.5,28.29 -11.35,56.32 -18.74,84.03 -6.67,24.07 -8.72,39.45 -16.45,51.29 -56.79,-72.91 -109.17,-158.83 -120.52,-239.8 0.02,-0.17 0.26,-0.17 0.26,-0.5 1.89,-4.75 3.22,-9.53 3.94,-14.54 11.44,-5.01 22.04,-14.8 30.43,-25.39 24.59,-13.98 33.85,-42.5 29.43,-68.98 0,-1.33 -0.33,-2.38 -0.58,-3.7 -0.49,-2.15 -1.07,-4.2 -1.65,-6.08 -0.72,-2.38 -0.72,-4.43 -1.8,-6.89 0,-0.26 -0.26,-0.5 -0.26,-0.75 -4.26,-24.59 -19.22,-44.46 -49.72,-46.02 -2.87,-3.47 -6.34,-6.34 -10.04,-8.97 -0.72,-0.49 -1.56,-0.82 -2.38,-1.07 -11.07,-32.56 -40.11,-57.63 -79.58,-48.91 -57.6,12.65 -69.46,88.78 -33.27,127.18 -6.08,44.37 15.35,87.29 52.59,110.48 3.47,91.25 68,188 125.3,262.57 -53.59,4.75 -126.37,-25.17 -173.37,-35.93 -31.74,-7.41 -63.54,-13.72 -95.21,-19.41 1.82,-21.37 -3.94,-43.32 -18.24,-59.91 2.89,-8.55 5.27,-17.2 6.57,-26.24 5.29,-39.61 -9.69,-84.33 -54.67,-90.41 -41.25,-5.59 -77.27,29.59 -82.28,69.3 -1.56,12.17 -0.24,23.51 2.96,34.11 -17.99,15.29 -32.79,34.67 -42.34,51.03 -27.91,48.35 -2.37,100.97 47.87,120.29 1.07,0.49 2.12,0.72 3.19,0.98 5.01,4.26 11.61,6.34 19.09,5.1 44.07,7.65 90.41,-9.79 118.37,-45.23 2.47,-2.87 4.26,-6.31 5.57,-10.02 70.88,17.17 143.05,29.27 214.15,42.73 28.06,5.11 57.14,13.75 83.86,9.05 0.49,0.58 0.98,1.07 1.24,1.58 30.5,37.8 67.71,81.21 109.73,123.13 -73.73,16.52 -152.23,10.11 -227.06,21.2 1,-17.75 -1.05,-35.67 -5.08,-51.87 -5.24,-20.88 -25.33,-25.3 -41.52,-18.41 -19.55,-21.46 -50.22,-32.06 -79.09,-27.54 -41.48,6.67 -70.77,39.13 -90.83,73.5 -10.83,18.57 -0.56,41.26 19.24,47.35 6.08,1.89 12.23,3.7 18.25,5.85 -0.24,22.44 10.6,45.2 27.54,60.72 34.86,32.06 85.66,22.79 126.92,11.44 12.65,-3.45 24.82,-17.17 23.52,-30.92 -0.56,-6.64 -1.91,-12.98 -4.03,-18.81 58.44,-1.59 118.7,-13.74 175.84,-20.06 26.96,-3.22 66.57,-3.44 100.2,-11.19 28.78,25.73 59.19,49.73 90.67,70.37 -410.02,55.55 -819.58,115.48 -1229.04,161.85 -108.17,12.33 -216.03,24 -323.96,35.35 -23.17,-21.13 -44.79,-43.9 -65.18,-67.9 157.03,38.89 231.57,-157.83 180.03,-295.84 -47.61,-127.93 -151.02,-231.34 -209.39,-355.64 -68.46,-145.33 -116.4,-299.71 -152.07,-456.3 -5.5,-24.26 -36.49,-23.77 -48.84,-6.34 -167.1,234.28 -307.03,567.71 -249.56,861.66 22.11,114.11 85.66,221.46 195.08,270.96 65.78,29.83 158.8,43.65 207.81,-14.8 18.99,26.12 40.43,50.71 63.94,72.17 -146.12,15.12 -292.63,29.27 -438.87,42.59 -19,-10.3 -40.2,-16.71 -71.12,-32.81 -44.39,-23.28 -86.24,-51.62 -123.22,-85.66 9.3,-88.62 30.41,-171.32 52.13,-255.91 8.71,0.26 16.91,-3.7 21.69,-13.72 1.33,-2.96 2.37,-6.08 3.44,-9.04 10.3,-0.74 20.39,-1.33 30.67,-1.81 15.54,-1.15 28.78,-12.75 28.78,-29.18 0,-25.07 -0.26,-49.89 -2.4,-75.06 -1.89,-24.33 -27.7,-35.09 -46.44,-19.22 -5.08,4.17 -9.63,8.46 -14.05,12.89 3.96,-13.24 -1.33,-25.07 -15.12,-30.08 -45.44,-17.5 -87.96,18.99 -94.3,58.95 -2.7,1.05 -5.34,2.05 -7.97,2.87 -6.32,2.63 -10.84,11.67 -4.52,17.17 4.8,4.03 9.79,7.15 15.12,9.23 3.71,10.58 10.86,20.62 21.88,29.17 5.1,3.7 10.83,6.57 16.76,9.2 5.52,6.08 13.91,11.67 16.61,18.02 -29.41,77.66 -44.72,161.76 -54.02,244.46 -0.72,-0.74 -1.24,-1.24 -2.05,-2.05 -13.72,-15.29 -25.89,-31.25 -36.74,-47.61 -3.69,-123.45 -4.76,-247.19 -2.15,-370.9 2.98,0.49 5.59,0.75 8.48,0.75 4.78,0.82 9.53,1.4 14.31,1.14 14.54,-1.14 27.78,-7.71 37.8,-17.99 13.98,4.17 29.59,4.19 43.09,0.49 5.78,-1.89 12.65,-7.15 13.47,-13.49 3.4,-24.33 -3.44,-62.38 -33.86,-64.04 -11.35,-0.42 -22.44,0.33 -33.3,2.22 -4.52,-0.82 -8.72,-0.82 -13.15,0.51 -0.33,-0.26 -0.58,-0.51 -0.81,-1.07 -23.83,-22.96 -61.65,-15.15 -78.53,12.39 -11.65,18.5 -9.28,40.71 2.56,56.91 0,0.98 -0.49,1.79 -0.49,2.87 -4.26,100.94 -5.85,201.49 -4.29,302.18 -31.64,-74.57 -49.63,-153.63 -78.25,-232.14 1.17,-0.26 2.21,-0.26 3.19,-0.49 31.5,-8.48 47.84,-41.78 42.1,-71.86 3.71,-6.74 5.5,-14.05 5.5,-22.28 3.96,-14.31 7.15,-36.17 -5.5,-46.51 -1.89,-5.03 -4.28,-9.56 -7.15,-13.98 -6.64,-10.85 -23.28,-4.03 -20.39,8.39 0.58,2.44 0.81,4.52 1.07,6.9 -15.38,-7.74 -32.56,-8.14 -42.34,8.71 -0.82,1.3 -1.23,2.96 -1.81,4.19 -9.77,0.58 -18.83,7.15 -19.32,20.46 -0.23,6.33 0.84,12.09 2.89,17.59 -5.27,1.65 -10.27,3.45 -15.28,5.36 -10.02,3.45 -20.65,13.47 -19.25,25.31 2.89,24.91 19.48,46.37 41.43,54.99 -1.79,66.67 12.17,135.71 36.5,201 -62.94,-52.87 -124.78,-107.38 -190.13,-157.27 29.69,-5.92 55.32,-31.25 61.31,-60.91 5.94,-27.7 -8.13,-53.59 -29.82,-68.71 -0.49,-1 -0.84,-2.07 -1.24,-3.13 -4.03,-8.74 -17.01,-13.49 -25.98,-10.6 -1.04,0.23 -2.05,0.81 -3.12,1.3 -2.94,-0.49 -5.83,-1.3 -8.95,-1.49 -38.63,-1.63 -69.65,24.51 -73.59,61.33 -10.25,10.04 -18.57,21.29 -21.46,33.3 -4.68,19.22 8.22,38.89 24.68,49.33 1.56,7.13 3.68,14.28 6.83,21.2 2.87,6.57 12.23,9.04 18.57,7.39 5.76,-1.3 10.84,-3.68 15.54,-6.9 49.75,46.35 103.07,88.62 154.93,132.26 16.38,13.72 70.54,49.17 109.43,84 17.17,32.06 36.75,62.15 57.86,89.69 -71.81,-36 -150.09,-71.09 -226.54,-87.87 1.91,-8.62 2.63,-17.33 1.63,-26.63 -4.5,-37.82 -48.91,-97.82 -89.34,-61.07 -10.37,9.2 -20.88,22.7 -27.8,37.56 -7.72,-0.32 -15.36,0.49 -22.68,2.63 -11.67,3.13 -21.46,14.8 -20.64,27.22 0.02,2.96 0.74,5.59 1,8.46 -7.15,7.97 -10.28,19.81 -3.96,30.41 10.11,16.61 26.24,25.4 43.64,28.28 14.33,8.72 31.25,13.73 48.84,12.98 20.23,-1.14 37.4,-9.53 49.73,-22.76 32.32,11.35 65.36,20.39 97.82,31.97 73.84,26.24 145.17,57.63 214.96,92.48 34.14,32.65 74.57,64.78 116.65,88.13 -332.33,29.33 -664.69,53.34 -997.21,72.16 -75.96,-43.15 -149.69,-82.02 -217.69,-133.73 165.33,-48.19 184.55,-272.35 111.89,-408.22 -68.15,-127.42 -191.63,-213.4 -292.97,-312.55 -123.71,-121.33 -225.75,-260.33 -310.08,-411.35 -10.51,-18.74 -44.16,-16.61 -48.1,6.08 -51.03,283.7 -135.96,629.53 -21.95,907.06 72.42,176.89 322.5,384.95 518.7,256.79 0.58,-0.33 0.75,-0.81 1,-1.05 51.06,40.92 105.56,75.87 160.55,102.25 -347.41,18.25 -695.12,30.08 -1043.51,34.61 -10.6,-90.41 -101.76,-188.98 -159.39,-245.05 -101.01,-98.07 -228.94,-123.48 -366.72,-125.85 -387.58,-6.9 -725.11,211.19 -1036.1,416.85 -14.31,9.63 -19.22,30.76 -5.5,43.5zm17817.13 164.98c4.01,6.57 10.84,10.28 19.81,8.39 7.48,8.79 14.54,17.41 21.44,26.96 74.82,102.58 100.55,212.82 136.97,331.03 7.15,23.02 41.75,18.99 42.08,-5.59 1.81,-116.56 -54.76,-258.54 -142.05,-372.78 109.98,-39.13 234.53,-73.43 329.72,19.15 92.81,89.99 86.47,262.15 75.05,380.59 -21.69,229.2 -123.24,439.97 -281.07,604.94 -78.15,-146.99 -171.31,-282.12 -277.04,-411.09 -75.59,-92.32 -155.77,-187.25 -174.76,-309.1 -28.99,-184.78 76.22,-263.87 240.87,-268.79 3.47,-0.35 6.31,-1.65 8.97,-3.7zm-1513.23 -706.7c2.89,-41.04 16.1,-79.09 40.12,-113.69 21.46,-38.4 49.24,-73 74.15,-108.94 43.57,-63.71 81.14,-129.3 113.11,-199.67 57.39,-126.35 101.2,-257.95 135.06,-392.27 95.12,145.41 163.58,305.14 196.97,476.85 20.63,107.12 33.28,227.38 2.38,334.24 -17.43,60.51 -48.1,113.69 -96.26,154.95 -48.65,41.69 -161.52,102.83 -221.46,39.29 19.83,-31.39 36.98,-64.43 51.78,-97.99 35.7,-80.39 154.3,-321.73 68.25,-396.13 -10.84,-9.46 -29.92,-3.61 -29.69,12.26 2.63,160.69 -52.29,322.8 -146.15,455.22 -7.74,-6.08 -18.01,-8.69 -28.87,-3.44 -131.92,-20.88 -185.11,-74.54 -159.39,-160.69zm-97.89 538.76c76.69,21.11 153.96,50.47 233.21,45.95 6.15,25.96 24.58,47.84 55.22,48.98 13.49,0.49 25.17,-3.7 34.37,-10.6 -21.63,20.3 -32.98,48.91 -26.38,78.76 -34.93,-5.52 -69.82,-8.97 -104.17,-17.2 -50.47,-12.07 -99.15,-29.27 -146.5,-49.89 -13.96,-26.24 -33.53,-61.4 -57.37,-98.73 3.8,0.82 7.48,1.65 11.6,2.73zm-764.19 -11.7c11.61,34.47 19.48,62.5 23.19,76.46 30.41,114.69 26.73,227.87 34.7,344.78 0.98,19.22 30.41,25.66 35.09,4.78 31.48,-134.92 6.41,-288.72 -40.2,-421.98 0.02,-0.23 0,-0.23 0.33,-0.23 4.22,-4.85 4.2,-14.31 -2.38,-17.18 34.63,-10.11 68.72,-10.95 102.83,-2.14 44.98,3.44 84.59,21.95 118.96,55.16 48.42,42.9 77.17,107.12 92.81,168.43 26.72,105.3 11.68,225.82 -22.28,326.85 -55,164.16 -171.57,293.4 -299.74,405.43 -26.68,-167.87 -95.68,-291.25 -177.14,-443.57 -31.15,-58.11 -58.11,-156.2 -76.69,-221.79 -27.19,-95.12 62.96,-383.81 207.06,-276.29 1,0.81 2.05,1.07 3.45,1.3zm-1152.73 -504.39c29.08,-28.52 56.63,-60 81.7,-94.05 177.14,12.65 316.98,-12.23 385.79,-171.64 18.18,53.92 42.74,105.49 65.99,157.59 9.55,20.62 18.01,44.16 31.24,63.96 -45.46,33.11 -92.55,63.94 -135.38,98.57 -142.96,-19.25 -286.08,-37.49 -429.34,-54.44zm-138.43 -349.53c0.65,-47.84 18.15,-99.13 37.47,-142.47 32.81,-73.98 77.43,-144.1 121.01,-212 89.46,-138.6 192.52,-265.76 306.21,-384.39 70.88,184.81 137.76,377.49 135.87,577.33 -0.81,101.85 -16.11,242.5 -96.26,318.12 -69.02,65.27 -166.21,61.59 -255.9,57.07 87.31,-135.41 140.42,-298.5 136.13,-436.26 -0.8,-25 -40.1,-32.72 -45.7,-6.01 -26.96,129.23 -46.53,246.12 -111.06,364.33 -6.57,12.09 -13.72,23.77 -21.13,35.12 -1.56,-0.26 -3.45,-0.26 -5.27,0 -94.42,16.68 -202.54,-72.1 -201.37,-170.83zm81.88 751.42c0,0.84 -0.28,1.33 -0.28,2.07 -0.81,5.34 -0.23,10.02 0.58,15.12 -3.45,-3.47 -6.41,-7.15 -9.04,-11.44 1.89,-2.3 4.78,-4.43 8.74,-5.76zm-944.61 -122.41c70.83,110.73 91.22,233.65 85.14,374.53 -1.04,21.2 27.96,22.54 34.61,4.85 50.59,-138.35 11.11,-279.98 -70.02,-400 254.57,-108.68 315.65,226.8 285.73,423.51 -26.7,176.81 -96,346.57 -201.72,490.7 -49.63,-124.55 -109.75,-244.06 -183.71,-356.36 -38.89,-59.02 -85.1,-114.27 -118.4,-176.68 -67.46,-125.5 -53.76,-408.62 155.96,-367.94 2.87,3.7 7.39,6.57 12.42,7.39zm-1611.36 -572.95c-8.71,-49.17 11.56,-108.59 28.08,-155.45 38.24,-108.09 102.27,-208.06 158.83,-307.19 79.83,-139.83 145.17,-282.54 194.08,-434.86 106.05,173.37 188.49,368.76 205.43,572.13 7.41,90.83 2.63,184.22 -30.24,270.11 -52.29,137.79 -132.69,177.66 -262.73,194.34 84.61,-150.69 133.26,-333.33 111.87,-484.03 -2.44,-16.2 -27.78,-14.87 -31.22,0 -25.89,113.62 -33.63,227.31 -75.06,337.88 -19.64,51.78 -43.97,98.54 -70.86,143.52 -4.43,-0.23 -9.53,0.26 -14.54,3.45 -114.18,70.37 -196.39,-42.57 -213.63,-139.91zm361.93 933.76c25.98,25.4 51.29,49.73 76.46,72.17 -24.33,34.11 -26.47,75.38 -4.29,111.41 -4.67,7.62 -9.53,15.29 -14.54,22.93 -18.5,-25.56 -43.08,-41.52 -68.97,-48.35 9.56,-53.11 16.94,-106.28 11.35,-158.15zm238.24 -65.27c12.65,15.61 -23.05,51.78 -28.06,57.37 -3.68,3.45 -5.59,7.41 -7.15,11.11 -29.08,-3.47 -73.24,22.77 -94.86,38.05 -1.4,0.81 -2.47,1.89 -3.45,2.7 -17.76,-25.4 -36,-50.06 -56.07,-73.82 76.71,7.97 168.94,6.34 189.59,-35.42zm4810.16 -880.58c0.33,-0.82 0.81,-1.31 1.17,-1.89 0,0.58 0,1.07 0.23,1.89l-1.4 0zm1071.05 189.49c51.78,-98.08 141.63,-169.43 221.77,-243.25 135.66,-124.46 250.4,-262.96 345.26,-419.22 69.89,402.61 158.41,1119.94 -427.45,1054.09 112.36,-98.89 203.52,-226.06 237.65,-350.11 5.34,-18.96 -20.64,-29.01 -30.99,-12.88 -67.09,103.65 -122.66,207.22 -212.26,295.02 -10.28,9.76 -20.64,18.99 -30.92,28.03 -1.3,-0.83 -2.63,-1.89 -4.19,-2.72 -140.88,-57.86 -164.16,-225.98 -98.87,-348.95zm2553.02 601.24c-310.89,-205.69 -648.44,-423.84 -1036.03,-416.94 -137.76,2.4 -265.76,27.71 -366.7,125.85 -57.63,56 -148.88,154.63 -159.48,245.07 -348.39,-4.54 -696.03,-16.36 -1043.42,-34.63 55.02,-26.47 109.41,-61.31 160.46,-102.34 0.26,0.26 0.58,0.84 1.07,1.07 196.22,128.23 446.28,-79.81 518.63,-256.65 114.02,-277.6 29.17,-623.42 -21.88,-907.03 -3.94,-22.86 -37.57,-24.91 -48.1,-6.17 -84.4,150.93 -186.44,290.01 -310.15,411.35 -101.27,99.15 -224.65,185.04 -292.88,312.55 -72.75,135.8 -53.43,360.06 111.78,408.13 -67.88,51.87 -141.63,90.67 -217.5,133.85 -332.59,-18.83 -664.94,-42.92 -997.23,-72.19 42.01,-23.26 82.47,-55.57 116.58,-88.04 69.72,-34.95 141.14,-66.41 214.87,-92.55 32.57,-11.61 65.62,-20.56 97.92,-32 12.42,13.23 29.59,21.72 49.65,22.7 17.78,0.81 34.6,-4.26 48.91,-12.91 17.43,-2.87 33.53,-11.68 43.57,-28.36 6.41,-10.51 3.19,-22.44 -3.96,-30.34 0.26,-2.96 1.07,-5.5 1.07,-8.46 0.84,-12.42 -9.04,-24 -20.62,-27.22 -7.38,-2.12 -15.05,-2.96 -22.69,-2.7 -6.83,-14.73 -17.43,-28.19 -27.78,-37.49 -40.46,-36.75 -84.94,23.28 -89.36,61 -1.07,9.37 -0.26,17.99 1.56,26.8 -76.36,16.59 -154.7,51.78 -226.57,87.7 21.16,-27.45 40.78,-57.63 57.88,-89.59 38.89,-34.96 93.04,-70.31 109.5,-84.03 51.8,-43.71 105.21,-85.98 154.87,-132.26 4.78,3.22 9.79,5.59 15.63,6.9 6.41,1.56 15.62,-0.72 18.48,-7.39 3.21,-6.9 5.36,-13.98 6.92,-21.13 16.43,-10.61 29.33,-30.15 24.56,-49.47 -2.85,-11.86 -11.09,-23.28 -21.44,-33.3 -3.87,-36.74 -34.86,-62.96 -73.43,-61.33 -3.19,0.26 -6.08,0.98 -9.04,1.56 -1.05,-0.58 -2.12,-0.98 -3.19,-1.31 -8.95,-2.89 -21.88,1.8 -25.91,10.61 -0.47,0.98 -0.72,2.05 -1.3,3.19 -21.62,14.96 -35.67,40.94 -29.85,68.74 6.11,29.57 31.74,54.99 61.33,60.74 -65.34,49.96 -127.16,104.39 -190.05,157.33 24.33,-65.36 38.31,-134.33 36.42,-200.91 22.04,-8.81 38.63,-30.18 41.59,-54.99 1.33,-11.93 -9.3,-21.95 -19.32,-25.4 -5.01,-1.82 -10.11,-3.71 -15.38,-5.27 2.06,-5.59 3.22,-11.42 2.89,-17.76 -0.49,-13.17 -9.46,-19.81 -19.25,-20.3 -0.56,-1.42 -1.07,-2.89 -1.89,-4.29 -9.79,-16.94 -26.96,-16.35 -42.25,-8.78 0.23,-2.31 0.56,-4.46 0.98,-6.83 2.96,-12.42 -13.72,-19.32 -20.3,-8.46 -2.96,4.52 -5.27,8.94 -7.15,14.05 -12.65,10.28 -9.56,32.22 -5.59,46.53 0,8.2 1.89,15.61 5.59,22.19 -5.85,30.18 10.51,63.45 41.99,71.94 1.1,0.23 2.24,0.23 3.22,0.49 -28.52,78.59 -46.53,157.59 -78.25,232.13 1.65,-100.78 0,-201.15 -4.29,-302.18 0.02,-1.07 -0.49,-1.8 -0.49,-2.87 11.93,-16.12 14.31,-38.4 2.7,-56.81 -16.91,-27.54 -54.74,-35.51 -78.5,-12.49 -0.3,0.49 -0.56,0.81 -0.81,1.07 -4.5,-1.4 -8.78,-1.4 -13.24,-0.58 -10.83,-1.82 -21.95,-2.64 -33.37,-2.05 -30.41,1.56 -37.24,39.61 -33.79,63.94 0.75,6.33 7.64,11.67 13.4,13.49 13.49,3.71 29.17,3.71 43.15,-0.58 10.04,10.37 23.25,16.94 37.82,18.02 4.7,0.33 9.53,-0.26 14.31,-1.07 2.89,0 5.5,-0.26 8.36,-0.82 2.66,123.71 1.65,247.52 -2.05,370.99 -10.84,16.36 -23,32.23 -36.81,47.51 -0.75,0.81 -1.24,1.4 -2.06,2.22 -9.2,-82.8 -24.58,-166.89 -53.94,-244.65 2.66,-6.31 11.11,-11.83 16.71,-17.92 5.76,-2.63 11.65,-5.59 16.59,-9.28 11.11,-8.48 18.24,-18.5 21.95,-29.1 5.26,-2.07 10.34,-5.26 15.06,-9.2 6.33,-5.52 1.89,-14.56 -4.45,-17.2 -2.7,-0.81 -5.34,-1.8 -7.97,-2.96 -6.34,-39.87 -48.91,-76.36 -94.37,-58.93 -13.8,5.1 -18.99,16.94 -15.06,30.18 -4.5,-4.45 -9.04,-8.72 -14.05,-13 -18.74,-15.78 -44.63,-4.94 -46.44,19.41 -2.21,24.98 -2.47,49.89 -2.47,75.06 0,16.36 13.24,28.03 28.85,29.01 10.37,0.56 20.39,1.07 30.67,1.89 1.1,2.87 2.05,6.08 3.45,8.97 4.71,10.02 12.91,14.05 21.72,13.72 21.62,84.59 42.83,167.36 52.03,255.91 -36.98,34.11 -78.83,62.38 -123.22,85.66 -30.93,16.19 -52.04,22.51 -71.12,32.88 -146.15,-13.24 -292.56,-27.54 -438.89,-42.67 23.61,-21.37 44.97,-45.95 64.03,-72.19 48.94,58.46 141.98,44.74 207.83,14.89 109.4,-49.49 172.87,-156.76 195.06,-271.02 57.39,-293.98 -82.44,-627.39 -249.49,-861.5 -12.47,-17.52 -43.48,-18.01 -48.98,6.32 -35.68,156.45 -83.52,310.82 -152,456.25 -58.44,124.27 -161.78,227.61 -209.37,355.61 -51.54,137.93 23,334.64 180.03,295.78 -20.32,24.07 -42.11,46.86 -65.29,67.97 -107.84,-11.35 -215.78,-23.02 -323.87,-35.42 -409.53,-46.3 -819,-106.3 -1229.11,-161.79 31.5,-20.65 61.89,-44.71 90.74,-70.28 33.56,7.55 73.26,7.88 100.22,11.02 57.07,6.32 117.3,18.57 175.74,20.04 -2.05,5.92 -3.44,12.25 -3.87,18.82 -1.37,13.72 10.76,27.55 23.51,31 41.2,11.35 92,20.55 126.86,-11.42 16.94,-15.54 27.78,-38.4 27.52,-60.85 6.11,-2.05 12.09,-3.93 18.18,-5.75 19.83,-6.08 30.17,-28.85 19.41,-47.26 -20.22,-34.44 -49.49,-67 -91.02,-73.59 -28.75,-4.52 -59.42,6.08 -79.06,27.55 -16.11,-6.9 -36.19,-2.38 -41.53,18.5 -3.85,16.1 -6.08,34.11 -5.01,51.78 -74.8,-11.09 -153.3,-4.75 -227.06,-21.11 42.04,-42.08 79.25,-85.4 109.66,-123.22 0.26,-0.52 0.84,-1.07 1.4,-1.56 26.63,4.76 55.74,-4.03 83.77,-8.97 71.12,-13.47 143.28,-25.73 214.15,-42.9 1.33,3.68 3.19,7.15 5.5,10.02 28.03,35.51 74.31,52.94 118.54,45.2 7.31,1.4 13.89,-0.72 18.99,-4.92 1.1,-0.25 2.05,-0.58 3.13,-1.07 50.24,-19.41 75.87,-71.93 47.84,-120.35 -9.44,-16.36 -24.33,-35.67 -42.32,-50.96 3.29,-10.6 4.52,-22.04 3.03,-34.11 -5.08,-39.7 -41.01,-74.8 -82.28,-69.3 -44.88,6.08 -60,50.73 -54.66,90.43 1.23,8.95 3.61,17.66 6.57,26.12 -14.31,16.7 -20.13,38.63 -18.25,60.02 -31.74,5.59 -63.54,11.91 -95.19,19.32 -47.09,10.83 -119.77,40.76 -173.46,35.91 57.46,-74.47 121.92,-171.31 125.37,-262.47 37.24,-23.26 58.7,-66.09 52.52,-110.57 36.26,-38.31 24.33,-114.34 -33.3,-127.16 -39.26,-8.65 -68.46,16.52 -79.56,48.98 -0.72,0.26 -1.56,0.51 -2.4,1.07 -3.68,2.64 -7.06,5.52 -10.02,8.97 -30.31,1.63 -45.46,21.44 -49.66,46.02 0,0.26 -0.24,0.49 -0.24,0.75 -1.07,2.37 -1.07,4.52 -1.91,6.83 -0.56,1.89 -1.05,4.03 -1.57,6.15 -0.23,1.33 -0.56,2.4 -0.56,3.7 -4.45,26.47 4.75,55 29.33,68.98 8.48,10.53 19.09,20.39 30.41,25.4 0.83,5 2.14,9.78 3.96,14.54 0,0.26 0.23,0.26 0.23,0.58 -11.32,80.81 -63.61,166.8 -120.49,239.8 -7.64,-12 -9.78,-27.31 -16.35,-51.31 -7.48,-27.78 -13.24,-55.81 -18.76,-84.17 -6.41,-32.71 -11.18,-66.08 -16.43,-99.15 8.72,-3.36 16.43,-8.95 22.44,-16.59 12.42,-15.54 15.61,-33.88 12.98,-51.54 11.68,1.3 22.93,5.5 32.97,12.91 31.5,18.8 56.63,-27.46 28.36,-48.35 -25.4,-15.03 -48.65,-31.97 -71.11,-50.22 0.02,-0.26 0,-0.58 0.25,-0.82 2.66,-16.68 -14.56,-31.67 -29.1,-22.69 -0.56,-0.58 -1.24,-1.07 -1.82,-1.65 -19.52,-17.92 -45.2,-1.8 -47,18.01 -24.58,-4.69 -50.07,1.33 -66.92,24.82 -15.61,21.95 -18.01,50.47 -8.23,74.33 0,2.12 -0.23,3.94 -0.23,6.08 -0.24,5.57 0.72,11.32 2.37,17.17 0.49,3.94 1.81,7.9 4.52,11.35 11.84,25.14 37.72,43.32 59.68,32.3 1.4,0.58 2.38,0.98 3.7,1.33 8.74,1.89 16.36,1.89 23.26,0.49 4.52,51.54 14.05,102.83 24.33,153.07 6.59,31.71 11.93,78.74 31.25,111.03 -26.12,30.92 -51.87,58.7 -73.73,81.14 -16.43,16.94 -34.37,32.07 -52.71,46.86 -54.99,-52.36 -76.94,-149.93 -116.56,-214.22 -2.63,-4.19 -6.57,-6.01 -10.86,-6.57 2.89,-8.71 5.85,-17.2 8.23,-26.4 74.82,-273.89 -30.9,-563.42 -128.49,-816.69 -6.31,-16.94 -27.54,-25.33 -41.5,-10.86 -188,191.22 -423.28,449.75 -492.81,715.42 -22.18,84.35 -19.57,186.11 42.57,253.78 43.31,47.68 107.84,71.43 165.96,53.43 -32.69,43.06 -69.11,81.7 -106.52,120.33 -524.71,-60.09 -1050.57,-98.38 -1578.57,-77.83 41.27,-31.9 84.43,-61.33 126.09,-96.68 31.76,-26.96 58.44,-58.7 82.21,-92.81 78.85,20.62 193.82,-0.81 290.09,-23.77 -15.59,19.83 -30.9,40.45 -31.97,66.27 -1.79,44.98 45.21,79.65 85.33,53.18 12.75,-8.2 19.06,-24.82 14.54,-38.63 6.11,0.58 12.42,-0.23 18.76,-2.87 19.41,-8.48 35.74,-20.06 49.47,-33.56 7.99,4.45 15.87,5.04 23.28,2.63 28.29,20.65 68.72,14.56 89.36,-16.68 9.05,-13.72 3.45,-36.26 -11.44,-43.57 -1.79,-1.07 -3.36,-2.12 -5.17,-2.94 7.41,-5.27 12.65,-13.49 13.98,-22.46 29.34,0 48.65,-42.57 17.18,-59.26 -10.61,-5.5 -19.06,-13.49 -26.38,-22.44 1.81,-3.12 3.68,-6.57 5.5,-9.79 10.02,-15.87 1.3,-43.09 -18.73,-46.54 -10.61,-1.79 -20.88,-2.87 -31.15,-4.03 -4.04,-3.87 -8.32,-7.8 -12.84,-11 -13.72,-10.28 -28.2,-16.2 -45.37,-17.69 -5.34,-0.33 -48.68,5.17 -58.44,6.57 -2.37,-2.05 -4.52,-4.27 -7.15,-6.31 -28.52,-22.54 -69.23,4.68 -51.54,39.87 8.13,15.61 17.76,23.26 28.36,26.7 1.81,1.89 4.1,3.45 6.34,5.36 -8.55,2.86 -16.71,6.8 -25.17,11.51 -4.26,2.45 -7.39,5.9 -10.02,9.86 -2.38,1.56 -4.85,3.45 -6.93,5.26 -6.31,1.8 -12.91,3.45 -19.55,5.5 -19.08,6.41 -30.18,28.61 -19.08,47.19 1.91,2.87 4.28,5.99 6.08,8.95 -4.99,0.74 -10.35,1.56 -15.52,2.31 -32.06,5.1 -63.7,10.6 -95.77,15.12 -58.35,8.39 -85.33,15.8 -120.52,-1.63 18.83,-33.78 35.19,-68.71 50.47,-103.57 17.45,-39.96 33.37,-82.8 46.28,-126.93 68.25,-33.04 138.02,-56.56 208.55,-80.07 27.31,20.88 63.96,34.86 89.69,39.61 67.65,12.74 145.92,-8.22 172.13,-78.25 21.65,-57.88 0.42,-119.77 -54.57,-145.91 2.24,-23.83 7.97,-47.84 17.17,-71.35 9.86,-24.91 -17.92,-42.93 -39.06,-39.22 -33.02,5.92 -66.67,18.57 -96.26,37.33 -14.8,-10.04 -35.68,-4.78 -43.32,11.35 -13.47,-6.83 -27.45,-12.91 -42.34,-17.43 -21.44,-6.6 -47.26,16.1 -38.63,38.87 10.88,28.29 21.72,55.74 33.63,82.79 -0.72,3.12 -1.8,6.31 -2.38,9.79 -1.23,5.99 -1.81,12.33 -2.05,18.41 -6.31,5.08 -12.26,11.09 -17.76,19.65 -12.16,17.92 -14.56,34.6 -10.6,49.89 -16.85,5.26 -33.79,11.19 -50.98,17.76 -29.17,10.86 -71.35,39.87 -108.66,52.87 21.95,-95.21 27.94,-194.33 5.83,-286.57 23.52,0 46.77,-7.97 65.04,-24.09 24,-21.46 39.29,-58.44 19.48,-87.71 -10.27,-15.13 -21.62,-21.46 -32.15,-22.02 0,-0.83 0.26,-1.23 0.49,-1.81 11.11,-47.84 -23.33,-79.58 -62.64,-100.71 -17.17,-26.7 -47.35,-37.8 -85.66,-21.2 -27.52,12.26 -58.7,46.86 -62.96,80.39 -4.52,-1.56 -8.72,-3.13 -13.24,-4.52 -25.54,-8.13 -46.21,27.22 -26.38,45.56 7.39,6.8 15.29,13.47 22.93,19.22 -0.49,2.63 -1.33,5.36 -1.33,8.23 1.07,57.62 47.44,122.99 109.75,114.18 6.57,90.18 4.2,177.17 -10.6,261.98 -22.42,-30.9 -48,-84.26 -65.52,-104.13 -6.08,-7.18 -12.49,-14.08 -18.83,-20.9 10.89,-16.69 12.42,-41.99 10.37,-67.16 6.34,-11.35 12.42,-22.93 18.5,-34.35 12.42,-23.51 -11.61,-51.8 -33.63,-47.61 -11.58,-15.54 -35.61,-17.17 -47.84,-3.7 -4.43,-2.29 -8.97,-4.2 -13.5,-5.76 -16.1,-20.62 -38.21,-37.56 -61.81,-45.79 -26.45,-9.21 -56.07,1.07 -63.71,29.43 -3.19,11.02 -1.07,23.19 1.07,34.04 0.26,1.56 0.58,3.19 0.98,5.01 -4.43,9.79 -6.31,20.39 -5.76,30.9 -13.72,10.6 -24.33,25.17 -29.33,42.93 -3.68,12.91 2.14,28.52 14.05,35.09 12.91,6.83 24,14.8 33.56,24.09 0.58,6.83 2.87,13.49 8.36,19.32 8.58,8.39 16.94,16.94 25.5,25.33 18.5,18.8 44.88,6.15 50.96,-14.31 13.49,-2.31 26.14,-6.57 38.4,-13.17 2.05,1.07 4.2,1.89 6.57,2.73 45.46,48.81 86.96,99.54 120.26,162.27 -17.17,71.02 -43.8,140.88 -82.7,210.19 -49.21,-43.16 -82.77,-94.93 -119.52,-145.5 6.08,-4.45 12.17,-9.21 17.18,-14.96 43.34,-50.31 4.52,-126.67 -38.89,-163.18 -2.84,-2.38 -6.08,-4.2 -9.21,-5.5 -14.05,-14.56 -32.04,-23.84 -52.1,-26.47 -15.12,-30.17 -46.54,-53.2 -78.5,-29.69 -32.3,23.83 -50.47,64.03 -55.58,104.25 -9.18,29.83 -11.26,61.07 7.97,89.34 1.82,2.64 4.29,5.03 6.34,7.74 -2.61,4.69 -5.01,9.46 -7.65,13.89 -10.02,16.94 -1.56,44.22 19.32,48.17 43.9,8.22 105.21,11.6 154.37,-5.01 24.82,37.24 45.46,77.69 67.97,123.48 14,28.04 26.4,50.73 46.79,68.72 -49,65.36 -109.26,105.46 -172.87,157.83 -24.91,20.39 -46.37,41.78 -66.43,66.59 -50.22,2.63 -100.78,5.59 -150.93,9.3 -173.11,12.98 -346.9,30.64 -519.44,53.92 26.14,-30.41 50.15,-63.71 72.58,-99.38 52.13,32.71 128,8.94 182.5,-23.52 94.7,-56.39 146.99,-160.55 170.5,-264.94 65.5,-292.74 -73.98,-615.96 -229.94,-856.58 -12,-17.99 -39.7,-15.28 -46.02,5.76 -51.62,176.16 -126.44,337.95 -217.11,496.78 -70.86,123.78 -157.59,255.15 -177.4,399.51 -19.55,140.98 84.85,313.76 229.53,274.47 -16.94,25.57 -34.46,51.29 -51.87,77.11 -121.82,17.5 -243.51,38.14 -364,62.15 -318.05,63.71 -653.04,137.27 -946.99,277.11 -47.03,22.19 -11.44,85.33 32.71,77.92 278.44,-46.44 551.33,-126.09 828.85,-179.19 4.19,3.68 9.78,6.08 17.43,5.27 95.7,-8.97 184.3,17.75 267.25,64.2 -8.37,58.19 4.03,106.86 7.97,162.67 -39.12,3.94 -74.8,29.85 -97.73,60.52 -8.23,10.83 -6.67,21.7 -0.35,29.83 -4.17,9.88 -6.31,20.65 -6.31,31.48 -2.96,1.07 -5.85,2.15 -9.04,2.64 -22.11,3.7 -26.63,29.92 -17.43,46.63 -6.08,13.14 -8.14,28.52 -3.71,44.62 9.53,32.46 39.71,48.1 69.79,46.77 16.69,33.3 61.07,49.98 97.59,30.66 24.58,-12.91 37.56,-32.46 43.39,-55.22 2.89,-0.35 5.52,-0.35 8.39,-0.74 9.62,-1.66 15.61,-7.41 19.08,-14.89 12.42,1.57 25.63,-1.56 36.72,-10.83 9.81,-8.22 11.35,-25.82 4.78,-36.42 -13.47,-20.65 -25.66,-42.08 -37.24,-63.8l0.02 -0.72c-0.84,-24.35 -11.11,-39.96 -26,-49.42 -8.37,-18.57 -14.29,-38.13 -28.76,-49.73 -2.7,-49.4 -21.72,-91.25 -18.5,-144.35 2.63,0.51 5.5,1 8.22,1.32 100.94,67.48 193.76,160.72 281.21,249.07 0.26,0.17 0.26,0.5 0.26,0.75 29.1,71.93 15.94,144.59 3.93,217.11 -34.35,5.17 -66.57,25.56 -86.41,59.51 -10.83,5.5 -20.62,13.47 -29.59,24.24 -9.27,11.35 -10.02,22.44 -4.52,35.67 1.33,3.22 3.12,5.52 5.01,8.55 -0.23,0.26 -0.49,0.68 -0.49,1 -11.42,0.23 -22.76,0.49 -34.11,0.49 -25.14,0.58 -38.87,26.7 -27.78,48.17 9.79,18.5 21.69,24 37.24,35.67 10.85,8.13 17.75,6.9 23.51,9.54 -9.2,10.6 -18.67,21.46 -27.96,31.99 -15.61,17.67 -6.8,54.74 21.39,51.78 10.86,-0.98 21.69,-2.37 32.3,-3.44 13.23,26.8 39.38,40.52 72.17,37.81 84.02,-6.92 166.24,-78.5 154.96,-160.72 2.89,-0.57 6.08,-1.3 8.97,-1.81 17.69,1.81 26.96,-9.04 29.01,-22.28 8.81,3.7 17.43,7.41 26.24,11.11 20.65,8.79 49.89,-0.83 48.65,-28.03 -0.58,-9.2 -1.89,-18.18 -2.96,-27.22 0,0 0,0 0.26,0 3.7,-1.81 4.52,-7.15 2.44,-10.6 0.77,-0.75 1.49,-1.24 2.07,-1.82 4.78,8.46 9.53,17.2 14.54,25.91 12.65,21.11 52.35,13.73 49.65,-13.49 -0.98,-8.97 -1.49,-18.01 -2.3,-26.96 11.7,-6.59 22.2,-15.54 30.9,-28.03 1.35,-2.05 2.07,-4.45 3.47,-6.93 8.46,-1.79 16.59,-3.12 25.4,-3.68 27.96,-2.63 40.2,-32.23 22.19,-53.92 -19.32,-22.95 -22.19,-47.86 -13.79,-76.39 7.15,-23.84 -16.13,-43.65 -38.57,-38.54 -13.23,2.86 -24.32,7.55 -34.69,13.47 -0.96,-2.87 -2.38,-5.92 -3.85,-8.79 0.23,0 0.23,0 0.23,0 38.8,-17.43 76.88,-8.71 109.43,16.43 8.23,6.34 22.19,5.03 30.65,0 19.59,-11.68 27.54,-27.45 29.94,-45.2 9.2,-5.85 16.35,-15.38 16.35,-28.03 0,-6.34 0.23,-12.65 0.23,-19.06 5.52,-15.31 25.98,-35.93 30.92,-47.61 0,-0.26 0.33,-0.49 0.33,-0.74 10.51,-11.09 14.8,-29.08 5.76,-42.57 -0.49,-0.81 -1,-1.07 -1.24,-1.81 -0.81,-2.47 -1.39,-5.08 -2.47,-7.39 -0.49,-1.4 -1.23,-2.47 -1.81,-3.71 1.56,-5.59 2.63,-11.41 3.12,-17.17 8.74,-90.76 -91.41,-125.13 -151.16,-78.02 -49,-20.3 -115.02,3.94 -125.3,61.56 -3.68,21.13 1.24,40.19 11.28,55.74 1.16,3.71 3.03,6.9 5.08,10.11 -0.21,1.3 -0.82,2.15 -1.05,3.12 -1,3.45 -1,7.15 -0.59,10.86 -66.57,20.88 -132.93,26.21 -202.21,13.72 -74.31,-79.02 -158.83,-149.62 -243.41,-214.89 71.37,8.46 142.96,12.91 214.63,11.44 1.23,2.05 2.63,4.1 3.93,6.31 5.27,8.39 11.84,16.03 18.99,22.93 -0.23,52.38 44.72,102.59 97.92,104.74 72.35,2.63 133.73,-64.52 137.2,-134.34 6.08,-10.02 12.65,-20.04 19.55,-29.33 9.79,-13.5 0.98,-31.25 -10.35,-39.38 -11.67,-8.46 -22.95,-16.69 -34.63,-24.91 3.47,-47.52 -39.68,-80.06 -76.43,-102.25 -8.97,-5.26 -22.12,-5.85 -31.5,0 -22.09,14.54 -39.29,32.46 -50.96,53.34 -20.13,-4.19 -40.69,-1.79 -61.31,10.86 -32.81,20.39 -39.15,51.06 -32.48,82.21 -90.97,-1.49 -181.1,-6.02 -272.33,-18.99 -56.81,-38.63 -115.83,-71.35 -179.21,-90.18 250.57,-42.76 502.28,-77.11 756.04,-98.31 264.13,-22.21 528.48,-30.43 792.52,-27.8 46.39,34.95 99.15,91.51 123.48,116.07 12.26,12.42 23.35,24.91 33.86,37.58 -140.79,-23.51 -234.44,162.6 -222.02,291.09 10.86,113.11 81.63,201.15 143.52,291.81 91.28,133.49 164.17,275.31 220.81,427.22 8.22,22.02 34.6,25.14 48.09,6.08 158.08,-223.09 294.21,-532.43 236.1,-813.17 -20.07,-96.75 -71.12,-186.67 -165.82,-225.73 -65.5,-27.28 -147.55,-28.85 -201.4,14.71 -43.88,-55.22 -96,-104.39 -151.26,-145.08 219.74,3.94 439.13,15.87 658.54,35.35 2.15,4.85 5.83,8.79 11.67,11.19 70.3,28.52 127.91,84.1 175.51,152.81 -11.35,7.88 -19.81,19.55 -26.15,31.97 -14.05,27.21 -23.51,51.54 -38.07,73.24 0.02,-0.58 0,-1.4 -0.33,-2.21 -3.12,-17.34 -23.19,-20.79 -36.65,-14.7 -6.06,2.61 -12,6.08 -17.17,9.76 -0.33,-0.81 -0.59,-1.4 -0.84,-2.05 -1.8,-5.67 -7.88,-8.79 -13.47,-5.67 -12.42,7.48 -19.31,17.99 -21.95,29.92 -34.37,20.13 -45.72,68.39 -22.53,103.32 2.63,3.7 5.36,6.92 8.32,9.79 1.47,1.65 3.12,2.96 4.69,4.52 1.3,1.07 2.7,2.05 3.94,2.89 2.65,1.89 4.85,4.03 7.74,5.34 -5.5,2.86 -11.44,5.26 -17.76,6.9 -24.58,5.76 -20.07,48.09 6.08,45.13 33.79,-3.94 67.97,-7.9 102.09,-11.84 27.21,-3.22 27.96,-41.01 0,-43.32 -1.63,0 -2.7,-0.32 -3.94,-0.58 12.09,-6.57 20.07,-18.83 18.15,-36.98 2.49,-6.18 4.29,-12.51 4.78,-19.08 0.84,-11.42 -1.63,-21.7 -5.76,-31.23 6.34,-5.52 12.65,-11.6 18.18,-18.43 15.15,-17.5 20.62,-41.25 34.35,-58.19 9.07,-10.85 20.07,-16.94 32.81,-19.64 29.36,52.69 53.69,109.73 74.06,167.19 -47.58,31.08 -79.32,92.23 -100.27,157.26 -7.81,-0.26 -15.8,0.75 -24.02,3.7 -15.03,5.57 -24.81,21.93 -18.24,37.31 -12.72,1.82 -23.51,3.44 -27.45,4.45 -2.47,-3.7 -5.33,-7.64 -8.78,-11.35 -20.06,-21.13 -50.47,1.3 -45.63,26.7 1.47,7.97 4.92,14.8 9.2,20.64 -10.6,12.07 -13.49,30.09 -18.99,47.84 -2.96,9.69 -0.58,18.67 5.26,25.56 -1.66,3.7 -2.96,6.9 -3.8,9.85 -8.6,27.7 -14.8,62.33 2.96,88.06 48.93,70.77 133.75,-12 163.18,-61.07 5.27,-3.47 10.02,-7.99 14.47,-12.74 2.72,1.63 5.33,3.12 7.97,5.01 22.7,15.12 49.4,-9.69 43.81,-33.79 -1.22,-5.34 -2.63,-10.86 -3.69,-16.19 3.45,-13.24 0.81,-28.52 -10.04,-38.8 -3.45,-3.44 -8.13,-5.82 -13.46,-7.41 -1.24,-4.03 -3.13,-8.53 -6.08,-12.98 1.07,-23.77 -10.86,-47.02 -29.27,-61 22.95,-45.79 50.7,-87.06 84.26,-106.87 12.16,40.2 22.44,79.35 31.22,116.32 -4.75,7.74 -7.97,16.13 -9.27,24.59 -16.69,2.38 -29.36,17.67 -32.81,36.98 -3.43,19.09 2.89,39.38 15.12,54.76 4.46,7.39 11.84,14.05 23.28,18.99 0.82,0.56 1.8,0.81 2.61,1.07 3.47,18.31 15.64,35.51 33.56,44.95 40.71,22.21 86.73,1.82 106.77,-38.05 20.15,-40.2 9.3,-82.44 -7.88,-121.43 -1.56,-6.57 -3.96,-12.65 -7.15,-18.15 -1.3,-7.15 -3.96,-13.72 -6.82,-19.06 -11.09,-19.02 -36.01,-27.22 -56.32,-21.39 -2.38,0.74 -4.52,1.81 -6.9,2.96 -4.5,0.26 -8.95,1.24 -13.49,2.56 -3.69,-32.74 -11.09,-65.04 -20.88,-96.77 6.93,0.83 13.75,2.4 20.88,5.1 76.89,28.78 135.31,68.49 215.47,81.63 1.31,1.14 2.87,2.15 4.52,2.63 8.13,3.45 16.35,5.85 24.58,7.97 5.01,8.71 10.02,17.43 14.8,26.4 6.01,10.34 20.3,16.69 31.97,12.98 11.18,-3.71 22.44,-7.65 33.53,-12.42 0.6,3.12 0.83,6.34 1.4,9.56 3.7,18.73 24.51,21.95 38.8,15.87 11.44,-4.78 24.1,-13 34.37,-23.35 4.78,-2.31 9.04,-5.27 12.49,-10.28 16.38,-24.09 11.02,-51.87 -4.52,-73.49 6.93,-28.29 0.82,-58.96 -22.67,-78.5 -25.4,-21.14 -69.89,-24.84 -92.58,2.63 -3.43,4.26 -5.83,8.95 -6.9,14.06 -9.54,-7.15 -21.14,-7.41 -30.41,-2.64 -28.29,-1.07 -37.59,30.67 -43.34,58.61 -70.02,-20.62 -132.43,-48 -199.09,-82.19 -21.35,-10.79 -39.13,-20.39 -57.86,-21.62 -21.2,-51.64 -47.35,-101.37 -73.26,-149.46 32.25,8.48 67.42,26.8 99.48,42.83 -1.14,1.89 -1.66,4.04 -1.66,6.67 -10.58,15.54 -11.09,36.17 0,55 17.2,29.01 52.13,43.08 83.87,30.66 17.33,-6.92 31.06,-19.57 41.43,-34.7 21.95,-2.63 43.39,-8.22 55.48,-12.07 12.74,-4.28 19.15,-18.27 12.26,-30.17 -2.14,-3.7 -4.52,-7.41 -6.92,-11.35 13.49,-13.47 20.88,-31.74 16.13,-55 -2.05,-9.79 -12.17,-15.94 -21.46,-16.1 -23.19,-1.33 -43.32,-8.48 -61.33,-23.35 -7.62,-6.34 -16.36,-7.15 -23.74,-4.13 -22.93,-9.04 -48.91,-13.3 -72.75,-15.68 -16.03,-1.82 -27.47,19.81 -18.67,32.88 14.72,22.35 25.3,45.63 48.82,51.45 -0.14,0.49 -0.49,1.31 -0.72,1.89 -41.01,-23.26 -85.92,-41.85 -128.26,-61.66 -18.31,-8.46 -39.94,-21.95 -61.89,-26.87 -36.42,-58.21 -78.76,-109.26 -134.08,-146.5 48.43,4.68 96.84,9.2 145.17,14.8 426.24,48.91 851.55,101.52 1277.21,152 35.77,40.69 67.67,112.04 91.74,176 -8.69,-6.57 -17.17,-14.14 -21.95,-14.96 -35.68,-5.11 -69.21,3.93 -100.46,21.13 -76.43,42.25 -124.3,136.37 -132.43,220.46 -10.02,98.64 31.64,231.64 72.91,318.05 28.64,60.26 78.5,111.87 108.43,172.88 49.17,100.94 76.22,208.06 87.8,319.44 2.31,23.19 26.38,33.79 44.65,18.41 227.7,-191.7 427.78,-456.23 380.19,-772.46 -17.76,-117.39 -76.22,-231.09 -187.44,-283.37 -51.87,-24.33 -149.85,-45.21 -205.18,-8.55 -1.07,-2.29 -2.14,-4.76 -2.89,-7.06 -17.15,-40.2 -40.2,-102.09 -72.98,-152.56 184.79,21.6 369.59,43.06 554.63,63.12 12.17,10.35 27.29,18.83 47.09,34.11 38.89,30.15 72.42,65.59 102.83,103.65 -16.69,16.94 -33.04,34.14 -49.15,51.55 -9.04,-17.99 -28.28,-30.9 -50.8,-23.75 -3.45,1.07 -6.08,2.87 -8.97,4.52 -1.38,0.49 -2.37,0.98 -3.7,1.82 -0.3,-0.03 -0.32,0.23 -0.56,0.23 -4.45,2.63 -8.65,6.08 -11.11,11.19 -0.14,0.23 -0.17,0.81 -0.49,1.24 -4.98,6.89 -8.71,14.86 -11.09,23.51 -7.15,10.6 -11.09,23.91 -11.09,36.59 0,11.58 2.87,21.85 7.39,30.9 -1.89,0.23 -3.7,0.58 -5.5,0.81 -24.65,4.94 -31.48,45.13 -7.74,55.99 9.56,22.28 34.7,36.75 60.03,36 11.91,19.8 43.64,21.62 50.7,-4.52 2.15,-7.74 3.7,-16.69 8.81,-22.21 8.97,-2.7 17.66,-5.59 26.63,-9.53 27.8,-12.42 15.69,-58.7 -13.16,-59.77 3.47,-13.73 -1.07,-28.52 -14.87,-36.23 -1.79,-1 -3.12,-2.31 -4.68,-3.47 8.13,-7.81 16.1,-15.78 24.32,-24 16.94,-16.91 29.02,-29.33 40.43,-38.05 10.63,14.54 20.91,29.59 30.67,44.88 5.52,9.04 14.56,23.35 24.84,40.52 -1.31,4.2 -1.89,8.97 -1.07,13.98 12.98,84.1 2.63,159.97 -14.8,237.98 -3.45,-1.07 -6.9,-2.15 -10.61,-2.37 -6.57,-0.52 -12.65,0.49 -18.41,2.63 -7.15,-5.52 -17.52,-5.76 -24.68,-0.26 -10.83,2.63 -20.62,9.46 -26.38,21.46 -6.89,14.47 -6.41,31.16 -0.81,45.63 -6.59,2.96 -13.24,5.59 -19.83,8.55 -11.4,4.68 -19.32,12.65 -19.65,25.56 -0.23,10.28 -0.49,20.63 -0.49,30.9 -0.14,12.49 8.46,22.28 19.64,25.98 28.71,10.02 58.7,7.74 84.84,-4.78 0.49,4.78 1.07,9.46 1.56,14.31 1.57,13.73 16.43,26.4 30.18,17.18 33.3,-22.28 49.07,-60.49 44.95,-99.94 -2.21,-19.57 -10.86,-42.5 -25.15,-60.03 26.15,-56.88 34.6,-122.15 33.3,-186.09 50.24,91.74 101.51,202.22 89.34,253.27 -0.8,0.81 -1.56,1.89 -2.05,2.61 -2.96,5.36 -5.1,10.53 -6.9,15.87 -2.73,4.03 -3.45,8.15 -2.89,12.16 -0.8,6.11 -0.81,12.19 -0.33,18.5 -0.72,1.33 -2.14,2.64 -2.87,4.29 -7.39,10.51 -4.29,26.14 4.43,34.83 13.72,13.98 23.26,29.36 31.25,47.61 6.08,13.47 28.26,18.74 39.87,10.28 36.82,-25.89 73.82,-52.04 110.57,-78.02 15.03,-10.53 19.48,-33.54 5.57,-46.19 13.49,-18.27 2.3,-46.54 -22.28,-46.86 -15.29,0 -30.64,-0.26 -46.19,-0.26 -2.7,-2.05 -5.59,-4.2 -8.81,-5.82 -14.52,-7.67 -30.41,-9.21 -45.46,-6.02 -1.54,-70.11 -49.96,-166.05 -87.22,-233.69 74,29.82 154.96,53.43 230.76,51.54 3.22,8.95 7.97,17.17 13.98,24.33 -0.98,3.7 -2.07,7.39 -2.89,11.09 -6.8,29.34 30.18,43.32 46.86,19.81 1.33,-1.63 2.37,-3.45 3.44,-5.26 11.35,1.33 23.28,-0.24 35.68,-5.34 30.67,-12.65 44.16,-37.82 44.39,-63.38 21.71,-24.09 23.77,-65.85 5.36,-92.81 -23.84,-34.35 -68.48,-43.64 -104,-26.8 -6.34,-5.76 -18.25,-8.13 -25.66,-2.87 -0.98,0.82 -2.05,1.89 -3.19,2.7 6.92,-6.41 12.23,-14.31 16.2,-23.02 12.65,-2.63 23.25,-9.76 29.59,-21.6 6.89,-8.31 9.53,-19.64 6.08,-29.68 -1.57,-34.12 -27.22,-72.5 -61.59,-77.18 -6.64,-1.07 -12.98,0.82 -19.06,3.94 0.03,-0.26 -0.25,-0.26 -0.25,-0.26 -21.93,-18.82 -58.12,-1.3 -49.98,29.04 1.09,4.27 2.14,8.79 3.47,12.98 -3.45,3.13 -6.67,6.41 -9.3,10.02 -12.65,2.47 -19.81,11.44 -21.7,22.28 -90.57,-21.44 -181.36,-30.41 -270.46,-68.79 -2.03,-0.84 -4.1,-1.49 -6.57,-1.82 -22.44,-30.41 -47.03,-59.77 -72.92,-84.1 509.17,54.43 1019.09,99.96 1531.71,126.34 60.84,53.78 126.44,98.4 184.06,153.65 -61.56,-30.17 -135.64,-8.22 -191.63,34.6 -86.47,65.85 -111.39,175.58 -95.26,278.93 20.15,127.98 100.45,230.74 179.77,328.33 115.02,142.21 216.62,287.13 300.04,450.31 8.81,16.59 32.55,17.92 44.97,5.76 225.75,-220.23 355.54,-535.9 323.06,-852.87 -11.65,-116 -49.15,-233.46 -161.53,-286.8 -101.41,-48.09 -233.7,-27.05 -333.43,24.33 -50.45,-56.65 -108.82,-103.35 -170.48,-132.19 11.7,0.74 23.25,1.33 34.93,1.89 309.59,14.14 619.41,23.19 929.33,25 29.59,26.3 57.63,53.75 83.77,82.77 0,0.58 -0.32,1.07 -0.32,1.4 -12.1,-2.96 -26.41,3.44 -25.82,19.48 1.33,49.98 -10.86,90.92 -31.25,130.14 -1.79,0.23 -3.44,0.49 -5.26,1.3 -6.81,3.22 -13.72,5.52 -20.88,7.15 -6.39,-16.68 -21.95,-28.85 -46.86,-23.58 -2.84,0.56 -5.76,1.89 -8.71,2.96 -25.38,-6.67 -55.48,1.3 -71.35,22.44 -17.65,24.07 -8.2,54.74 15.31,70.54 -13.49,12.23 4.26,32.3 19.39,24.32 7.08,-3.37 14.72,-6.01 22.7,-7.57 5.75,4.94 12.39,8.97 19.55,12.42 -0.3,30.09 12.42,56.48 50.98,66.09 13.07,3.21 23.09,-6.15 24.33,-18.57 0.58,-7.64 1.4,-15.54 2.21,-23.19 18.67,3.7 37.73,0 55.41,-11.42 10.02,-6.59 12.49,-18.01 7.39,-28.61 -8.94,-18.99 -21.11,-35.09 -35.58,-48.09 29.26,-45.37 43.31,-101.5 44.62,-155.12 6.69,0.26 13.23,0.26 19.83,0.26 22.7,28.52 44.46,57.88 63.45,89.36 1.33,2.12 2.89,4.76 4.52,7.15 -5.83,19.81 -8.55,41.99 -10.35,51.78 -13.47,64.53 -39.64,139.67 -46.21,210.44 -10.86,-5.24 -27.54,-2.37 -32.81,9.56 -8.69,19.46 -7.15,40.36 1.56,57.11l0.02 6.34c-1.56,0.74 -3.15,1.56 -4.78,2.38 -11.91,5.75 -14.57,18.01 -11.42,28.52 -0.98,0.49 -2.07,1 -3.15,1.33 -7.71,3.44 -13.24,16.35 -9.76,24.32 14.8,36.26 63.94,54.41 94.12,22.93 6.92,-7.06 10.6,-14.96 12.65,-23.52 0.84,2.73 1.4,5.59 2.15,8.55 1.32,10.02 2.7,20.07 3.93,29.85 3.47,24 43.32,18.25 42.6,-5.52 -0.49,-7.97 -1.33,-16.17 -2.63,-24.07 -1.07,-12.74 -3.22,-25.98 -9.54,-35.19 -6.08,-16.94 -14.31,-33.3 -24.35,-48.17 2.73,-16.38 -0.23,-34.04 -12.39,-45.23 10.04,-38.05 14.28,-78.74 21.69,-116.3 6.34,-32.97 12.98,-66.01 19.32,-99.15 1.33,0.81 2.63,1.89 3.94,2.63 27.8,49.5 58.44,112.2 66.6,162.35 -5.5,1.82 -11.02,4.04 -16.36,7.15 -9.78,5.85 -15.87,21.72 -8.15,31.74 0.42,0.75 0.75,1.56 1.24,2.15 -34.93,13.46 -60.24,56.62 -28.52,96.49 23.86,29.59 53.43,32.97 77.76,21.71 9.23,1.8 18.99,2.38 29.04,0.4 5.36,1.4 10.6,2.24 15.94,2.72 18.17,2.12 29.85,-21.72 20.56,-36 -2.12,-3.71 -3.94,-7.41 -6.08,-10.86 0,-0.25 0.26,-0.25 0.26,-0.25 3.19,-0.98 5.83,-2.87 8.46,-4.92 8,3.94 16.1,8.13 24.33,12.33 20.64,10.35 46.3,-11.28 33.06,-32.97 -15.06,-24.33 -36.52,-47.35 -61.91,-62.38 -11,-14.31 -27.22,-24.09 -44.98,-28.61 -2.28,-47.61 -29.24,-103.09 -46.44,-140.81 12.09,2.63 24.33,5.17 34.95,8.95 40.13,13.4 81.37,39.06 123.94,49.65 20.07,40.2 56.56,79.58 100.46,69.23 40.71,-9.46 57.39,-44.06 56.06,-79.83 8.16,-11.02 9.79,-27.22 -2.37,-37.56 -2.96,-2.63 -6.18,-5.27 -9.63,-7.81 -1.21,-2.47 -2.05,-4.85 -3.38,-7.15 -13.79,-22.28 -33.86,-53.92 -63.13,-50.07 -9.28,1.07 -16.94,4.78 -23.51,10.37 -4.01,-1.82 -8.79,-1.56 -12.24,1.56 -1,0.81 -1.81,1.82 -2.89,2.96 -6.08,-2.15 -12.4,-4.29 -18.57,-5.85 -12.09,-3.45 -28.2,4.29 -30.67,17.2 -1.47,8.95 -1.23,17.5 0,25.63 -0.98,1.56 -2.31,3.38 -2.89,5.59 -26.13,-12.49 -55.23,-20.88 -80.89,-29.67 -25.14,-8.15 -59.19,-23.02 -91.65,-28.78 -6.9,-13.72 -14.63,-26.96 -22.28,-40.29 0.23,-0.39 0.23,-0.98 0.56,-1.47 1.33,-4.84 -1.14,-10.02 -5.26,-12.42 -1.87,-1.4 -3.45,-1.89 -5.09,-2.7 -13.23,-21.04 -26.96,-41.69 -41.76,-61.56 12.52,0.24 24.82,0.49 37.24,0.82 10.04,0.23 20.39,1.3 30.41,1.89 5.03,27.94 31.16,40.12 57.95,42.73 36.42,3.71 53.37,23.28 73.75,52.36 11.35,16.36 39.45,21.23 49.73,0 18.99,-38.28 16.94,-84.07 -6.18,-118.77 8.25,-11.02 11.68,-25.33 4.29,-40.36 -12.89,-27.8 -57.88,-43.31 -83.61,-23.83 -25.82,-7.15 -58.37,1.63 -71.61,28.03 -1.54,3.44 -2.64,6.64 -3.68,9.79 -20.13,-1.07 -40.71,0.56 -60.03,0.56 -21.44,0 -42.83,0 -64.2,0.82 -23.49,-27.78 -48.65,-54.48 -75.61,-79.88 142.7,0.23 285.5,-1.33 428.03,-4.54 86.73,81.23 188.72,135.15 299.45,179.3 157.13,62.96 325.2,127.42 494.38,145.17 296.61,31.13 554.73,-121.68 765.43,-316.25 13.72,-12.65 8.71,-33.79 -5.59,-43.32z"/>
 </g>
</svg>
