<?xml version="1.0" encoding="UTF-8"?>
<!DOCTYPE svg PUBLIC "-//W3C//DTD SVG 1.1//EN" "http://www.w3.org/Graphics/SVG/1.1/DTD/svg11.dtd">
<!-- Creator: CorelDRAW 2021 (64-Bit) -->
<svg xmlns="http://www.w3.org/2000/svg" xml:space="preserve" width="22in" height="22in" version="1.1" style="shape-rendering:geometricPrecision; text-rendering:geometricPrecision; image-rendering:optimizeQuality; fill-rule:evenodd; clip-rule:evenodd"
viewBox="0 0 22000 22000"
 xmlns:xlink="http://www.w3.org/1999/xlink"
 xmlns:xodm="http://www.corel.com/coreldraw/odm/2003">
 <defs>
  <style type="text/css">
   <![CDATA[
    .fil0 {fill:none}
    .fil1 {fill:#2B2A29}
   ]]>
  </style>
 </defs>
 <g id="Layer_x0020_1">
  <metadata id="CorelCorpID_0Corel-Layer"/>
  <rect class="fil0" width="22000" height="22000"/>
  <path class="fil1" d="M12255.95 11428.54c18.83,328.99 -156.85,632.41 -412.58,824.97 -211.29,160.15 -610,443.07 -886.22,432.94 -284.5,-10.29 -603.26,-363.13 -761.83,-570.98 -175.43,-231.88 -289.65,-533.56 -219.87,-826.58 131.3,-550.47 881.23,-477.28 1184.67,-129.52 388.41,-349.37 1058.23,-414.27 1095.85,269.17zm-180.22 974.54c214.64,-27.26 437.96,-250.46 661.17,-444.72 -32.37,-90.43 -40.78,-194.43 -63.06,-288.12 -40.9,-165.38 -83.55,-335.66 -63.04,-506.24 22.14,-204.39 148.18,-431.2 383.5,-427.71 223.24,5.02 313.54,231.73 329.03,427.71 11.86,163.63 -58.09,349.39 -153.54,509.58 189.3,-71.6 386.99,-119.3 587.94,-149.94 -108.81,-207.88 -154.98,-470.37 -117.53,-693.69 34.09,-194.13 178.94,-385.25 398.83,-354.47 518.25,71.56 362.95,765.3 40.89,1014.06 305.05,-20.42 611.76,-13.6 906.66,1.72 75.02,3.49 162.02,12.01 257.41,22.12 -30.59,-248.77 -10.24,-543.65 115.81,-755.02 105.83,-173.9 334.2,-289.82 531.81,-204.51 213.07,90.3 248.93,349.35 173.9,543.63 -69.82,180.7 -209.62,347.67 -368.16,472.28 313.53,40.88 673.31,90.35 1048.11,131.13 -91.88,-187.52 -88.59,-477.2 -59.7,-642.58 37.64,-223.2 211.37,-450.01 465.33,-391.85 225.14,50.99 340.89,350.96 318.74,560.54 -22.08,201.24 -160.17,397.11 -333.91,509.69 368.05,28.93 737.82,40.93 1082.13,20.42 -124.29,-196.06 -213.07,-419.22 -149.88,-652.68 27.18,-100.75 86.71,-208.03 180.55,-259.04 112.49,-63.19 209.76,-20.53 325.5,10.11 238.7,63.19 255.57,276.11 192.71,489.18 -30.78,105.67 -92.07,272.78 -187.5,374.96 400.45,-58 739.69,-180.53 964.6,-397.08 -189.19,-105.64 -378.28,-284.63 -458.51,-465.33 -73.26,-165.38 -33.98,-390.29 133,-484.08 189.11,-109.01 388.52,46.1 482.36,207.99 59.59,102.34 85.27,216.56 90.35,330.76 56.12,-201.24 54.51,-446.68 -13.72,-741.42 -247.03,-228.41 -673.19,-761.95 -207.88,-976.61 153.41,-71.54 306.87,1.76 368.01,154.96 88.8,213.19 -6.63,485.86 -86.87,685.2 -3.43,6.74 -6.8,12.01 -11.83,17.18 10.17,1.57 20.36,5.07 28.92,15.19 22.12,27.33 37.58,54.63 54.46,83.55 121.17,-306.74 409.09,-766.85 618.7,-475.56 98.93,137.99 58.09,427.87 -42.62,559 -103.78,132.96 -289.7,184.15 -460.12,175.62 68.06,274.48 3.45,572.71 -155.13,831.77 155.13,-0.06 364.74,149.88 436.43,236.92 107.28,131.09 131.09,345.92 11.84,477.17 -143.06,158.39 -381.76,73.27 -497.57,-71.71 -53.02,-64.63 -136.44,-216.38 -173.86,-357.76 -151.65,146.57 -334.07,248.93 -530.09,320.47 110.75,83.38 228.39,259.06 260.77,316.87 93.85,167.08 59.57,417.6 -114.2,525.04 -242.11,148.1 -453.44,-71.58 -550.47,-277.87 -54.46,-112.47 -87,-306.74 -39.3,-449.81 -201.02,32.18 -407.22,44.07 -604.96,47.69 -100.54,0 -199.34,-3.62 -298.35,-6.93 85.28,76.73 160.19,165.34 204.55,231.72 129.67,202.94 166.95,526.74 -57.81,678.35 -216.54,145.02 -474.01,6.97 -612.05,-177.22 -81.65,-109.14 -132.85,-235.15 -151.49,-371.49 -18.77,-127.91 32.24,-272.78 15.32,-398.81 -364.73,-34.15 -731.3,-85.31 -1096.02,-131.24 112.49,120.94 199.51,267.7 237.07,425.99 42.5,189.32 32.22,472.25 -194.41,533.54 -218.13,56.2 -408.94,-119.41 -490.94,-303.42 -114.16,-252.09 0,-466.92 8.68,-708.89 -323.72,-35.88 -647.74,-63.17 -973.24,-66.5l-117.53 -0.02c30.67,20.44 63.02,49.48 98.84,91.98 80,88.74 144.84,189.22 192.59,300.11 80.1,182.25 151.6,477 -30.67,625.46 -211.33,173.74 -463.59,-46.11 -595.01,-213.09 -185.68,-235.33 -129.37,-518.22 -78.19,-794.3 -330.7,18.79 -664.78,71.54 -964.78,199.51 345.98,98.82 736.21,504.44 509.58,784.04 -277.81,342.42 -800.99,-177.35 -891.3,-552.33 -245.44,223.32 -279.57,463.74 -681.75,545.39 -213.01,45.97 -260.78,-270.9 -39.11,-296.52zm-2151.26 -137.57c-214.83,-27.35 -438.04,-250.54 -661.35,-444.93 32.26,-90.35 40.89,-194.3 63.02,-287.96 40.95,-165.4 83.39,-335.81 63.02,-506.22 -22.07,-204.57 -148.33,-431.24 -383.48,-427.75 -223.36,5.07 -313.56,231.73 -328.88,427.75 -11.93,163.61 57.83,349.37 153.39,509.54 -189.19,-71.56 -386.82,-119.24 -588.05,-149.9 109.18,-207.86 155.09,-470.52 117.65,-693.7 -34.09,-194.43 -178.94,-385.23 -398.83,-354.45 -518.01,71.54 -363.09,765.26 -40.9,1014.02 -305.11,-20.51 -611.88,-13.56 -906.8,1.61 -74.81,3.47 -161.89,12.01 -257.28,22.26 30.82,-248.77 10.24,-543.67 -115.92,-755 -105.56,-173.92 -333.95,-289.82 -531.83,-204.55 -212.92,90.35 -248.64,349.41 -173.79,543.67 69.99,180.68 209.76,347.65 368.22,472.13 -313.65,40.89 -673.19,90.35 -1048.17,131.24 92.15,-187.5 88.61,-477.17 59.55,-642.54 -37.29,-223.34 -211.31,-450.01 -465.16,-392.01 -224.91,51.12 -340.89,351.11 -318.76,560.7 22.14,201.23 160.19,397.11 334.09,509.71 -368.16,28.88 -737.97,40.89 -1082.31,20.36 124.5,-196 213.09,-419.19 150.06,-652.66 -27.26,-100.79 -87.02,-208 -180.66,-259.17 -112.57,-63.04 -209.62,-20.36 -325.54,10.28 -238.62,63 -255.73,276.09 -192.56,489.16 30.67,105.52 92.07,272.62 187.48,374.81 -400.51,-57.81 -739.65,-180.7 -964.74,-397.08 189.09,-105.69 378.45,-284.46 458.51,-465.16 73.3,-165.41 33.96,-390.48 -132.97,-484.14 -189.22,-109.01 -388.58,45.97 -482.24,208.03 -59.67,102.32 -85.27,216.41 -90.35,330.6 -56.39,-201.08 -54.63,-446.52 13.6,-741.42 247.17,-228.28 673.19,-761.78 207.88,-976.63 -153.25,-71.54 -306.75,1.89 -368.22,155.15 -88.42,213.03 6.97,485.67 87.04,685.14 3.31,6.8 6.8,11.86 12.01,17.05 -10.25,1.59 -20.53,5.21 -29.06,15.32 -22.26,27.2 -37.45,54.51 -54.5,83.55 -120.96,-306.89 -409.11,-766.97 -618.87,-475.56 -98.66,138.04 -57.81,427.87 42.66,559 104.08,132.95 289.82,184.15 460.3,175.62 -68.23,274.5 -3.49,572.59 155.09,831.77 -155.09,0 -364.74,149.88 -436.28,236.92 -107.51,131.11 -131.4,345.92 -12.01,477.05 143.29,158.58 381.78,73.26 497.7,-71.56 52.81,-64.8 136.32,-216.42 173.78,-357.8 151.76,146.43 334.19,248.64 530.06,320.49 -110.85,83.41 -228.39,259.04 -260.76,316.87 -93.63,166.96 -59.7,417.62 114.2,525.02 242.03,148.17 453.32,-71.54 550.47,-277.81 54.63,-112.51 87,-306.75 39.31,-450 201.1,32.37 407.37,44.22 604.96,47.69 100.65,-0.02 199.47,-3.47 298.34,-6.8 -85.28,76.63 -160.3,165.22 -204.51,231.72 -129.52,202.96 -167.14,526.74 57.94,678.4 216.41,144.96 473.72,6.92 611.76,-177.23 82,-109.16 132.97,-235.19 151.78,-371.48 18.67,-127.99 -32.54,-272.77 -15.33,-398.87 364.72,-34.09 731,-85.27 1095.85,-131.24 -112.57,121 -199.47,267.45 -236.92,426.03 -42.66,189.19 -32.54,472.24 194.26,533.54 218.32,56.22 409.11,-119.39 490.77,-303.42 114.2,-252.24 0,-467.04 -8.35,-708.88 323.8,-35.85 647.58,-63.19 973.13,-66.5l117.65 0c-30.63,20.34 -63.17,49.28 -98.87,91.9 -80.16,88.74 -144.98,189.22 -192.67,300.11 -80.06,182.31 -151.64,477.04 30.78,625.5 211.37,173.75 463.61,-46.14 594.68,-213.24 185.81,-235.16 129.69,-518.06 78.51,-794.15 330.66,18.77 664.67,71.54 964.62,199.47 -346.09,98.72 -736.38,504.5 -509.57,784.07 277.7,342.42 801.12,-177.39 891.47,-552.35 245.31,223.17 279.4,463.59 681.58,545.37 213.07,45.97 260.78,-270.88 39.34,-296.45z"/>
 </g>
</svg>
