<?xml version="1.0" encoding="UTF-8"?>
<!DOCTYPE svg PUBLIC "-//W3C//DTD SVG 1.1//EN" "http://www.w3.org/Graphics/SVG/1.1/DTD/svg11.dtd">
<!-- Creator: CorelDRAW 2021 (64-Bit) -->
<svg xmlns="http://www.w3.org/2000/svg" xml:space="preserve" width="22in" height="22in" version="1.1" style="shape-rendering:geometricPrecision; text-rendering:geometricPrecision; image-rendering:optimizeQuality; fill-rule:evenodd; clip-rule:evenodd"
viewBox="0 0 22000 22000"
 xmlns:xlink="http://www.w3.org/1999/xlink"
 xmlns:xodm="http://www.corel.com/coreldraw/odm/2003">
 <defs>
  <style type="text/css">
   <![CDATA[
    .fil1 {fill:none}
    .fil0 {fill:#2B2A29}
   ]]>
  </style>
 </defs>
 <g id="Layer_x0020_1">
  <metadata id="CorelCorpID_0Corel-Layer"/>
  <path class="fil0" d="M20947.05 10849.68c-109.26,60.4 -249.26,106.52 -385.38,112.64 95.37,37.22 175.55,90.24 252.7,183.7 86.68,104.96 193.37,258.38 213.24,394.37 15.26,105.26 -30.74,206.05 -154.72,216.32 -127.43,10.94 -253.99,-100.42 -338.94,-177.21 -125.7,-113.48 -224.54,-252.26 -290.01,-403.72 -20.37,-46.06 -31.19,-83.19 -35.12,-115.06 -115.72,46.96 -233.14,91.43 -351.54,132.65 -64.1,77.54 -145.56,137.58 -237.91,177.22 224.56,136.28 464.21,346.11 260.94,520.84 -88.03,75.49 -222.36,52.61 -307.76,-15.11 -147.38,-117.63 -182.5,-333.5 -318.17,-470.33 -6.94,-6.87 -10.87,-15.47 -14.28,-24.83 -65.09,16.76 -130.93,32.23 -196.84,47.32 -12.97,107.76 -123.07,197.53 -224.54,241.25 -75.43,32.68 -153.89,45.29 -231.88,43.26 59.35,66.13 117.93,133.49 170.8,202.88 55.94,72.64 111.36,153.44 85.85,248.19 -40.78,149.8 -248.43,282.84 -409.25,263.3 -373.2,-44.48 -436.04,-534.73 -341.12,-854.34 -6.04,0.83 -12.54,1.2 -19.03,2.04 -49.01,3.31 -97.56,6.12 -146.57,8.6 22.13,72.19 15.62,150.57 -29.07,220.41 -130.83,204.46 -335.02,177.13 -510.12,64.46 55.89,186.59 52.42,350.19 -153.87,320.38 -151.77,-21.6 -265.72,-250.16 -306.02,-366.06 -34.29,-99.65 -36.86,-198.43 -15.18,-293.56 -117.48,-17.51 -234.53,-37.97 -351.11,-61.98 25.15,64.02 27.72,134.24 -2.19,210.58 -86.68,220.47 -236.63,188.6 -386.19,74.68 54.58,160.07 48.09,298.85 -111.83,331.53 -344.61,69.39 -376.24,-542.57 -355.87,-846.64 -79.79,-26.11 -159.99,-52.24 -240.16,-79.19 -9.07,13.06 -18.22,26.11 -28.62,39.25 -103.14,126.47 -229.69,144.9 -361.07,107.68 31.25,160.44 22.58,354.33 -139.55,437.63 -165.19,84.48 -368.45,6.1 -474.24,-124.89 -170.78,-210.22 -187.7,-558.06 -205,-823.31 -221.97,-51.04 -446.44,-89.48 -674.02,-106.99 120.05,111.83 163.84,282.45 59.8,420.42 -59.41,77.99 -127.84,124.5 -200.7,147.38 20.4,55.56 28.62,183.25 27.33,197.98 -7.39,70.22 -33.37,137.94 -74.59,196.76 -92.27,130.56 -252.26,198.36 -417.4,171.85 -193.29,-30.65 -343.32,-168.98 -409.61,-338.79 -90.6,-232.24 7.77,-466.16 -15.18,-700.52 -488.52,146.16 -907.63,442.98 -1175.98,887.02 -20.85,34.65 -81.48,11.02 -68.49,-27.33 171.69,-513.13 668.82,-850.34 1195.93,-1014.03 22.11,-6.42 44.15,-12.24 66.28,-18.34 -1.73,-6.51 -1.28,-13.83 0,-19.95 45.16,-257.54 68.1,-558.87 210.65,-790.24 57.26,-93.17 217.63,-281.7 349.83,-215.19 148.28,74.76 42.5,393.09 2.18,503.33 -17.36,46.96 -38.59,92.25 -62.43,135.89 233.23,-132.2 481.12,-197.96 601.23,29 61.56,116.35 19.94,202.43 -73.24,266.98 236.19,19.18 471.98,60.87 706.06,116.37 179.02,-277.19 809.24,-1079.74 1048.53,-497.21 45.97,111.44 36.02,208.61 -9.98,291.83 238.9,135.52 300.43,358.41 205.08,584.17 30.35,9.76 60.25,19.95 90.6,29.77 134.78,-191.43 323.31,-435.53 567.35,-468.21 170.41,-22.88 309.94,82.06 332.07,240.48 23.87,171.84 -84.95,315.91 -246.67,385.3 -0.45,0.45 -0.83,0.45 -1.28,0.83 39.04,20.76 76.26,44.47 110.52,69.83 189.46,46.51 378.43,81.16 566.96,106.07 4.77,-8.99 9.52,-17.59 14.72,-26.56 -105.77,-196.33 -271.37,-455.91 -247.05,-669.81 14.28,-126.92 117.03,-255.15 262.23,-253.93 174.73,2.04 254.91,122.08 283.07,283.29 81.48,-98.39 191.11,-128.14 339.39,-12.22 264.88,206.94 90.98,450.23 -120.95,633.46 107.06,-5.65 213.22,15.2 303.83,80.05 5.2,3.7 9.95,7.77 15.18,11.86 99.74,-2.5 199.41,-7.32 299.06,-14.28 -52.84,-275.59 -197.21,-1074.81 273.1,-943.74 301.72,84.05 254.01,456.35 139.61,752.33 37.69,-13.5 77.16,-24.16 119.21,-29.45 116.13,-15.47 276.51,4.84 352.85,99.59 95.74,-19.18 191.56,-40 287.35,-62.88 -75.87,-237.91 -245.77,-1022.48 155.17,-877.61 221.46,79.6 196.76,329.07 118.76,570.3 69.39,-44.93 147.85,-80.05 233.61,-103.29 43.81,-12.24 75.89,20.37 81.09,57.91 19.95,44.09 39.87,87.73 59.8,131.82 9.53,11.94 9.98,26.58 6.96,40.47 79.28,-24.55 158.17,-50.21 237.53,-76.71 -32.98,-190.66 -67.2,-389.47 -77.63,-581.69 -6.93,-125.72 14.36,-257.18 111.44,-350.73 201.98,-192.99 393.09,43.72 413.46,245.77 9.97,99.67 -12.52,198.43 -48.54,293.11 49.85,-44.54 103.22,-81.61 156.07,-106.99 120.52,-56.7 313.81,-59.95 380.99,73.09 65.47,129.04 -64.17,247.35 -171.61,307.39zm-19894.06 0c109.24,60.4 249.22,106.52 385.34,112.64 -95.37,37.22 -175.57,90.24 -252.68,183.7 -86.72,104.96 -193.33,258.38 -213.28,394.37 -15.15,105.26 30.78,206.05 154.72,216.32 127.45,10.94 254.03,-100.42 339,-177.21 125.68,-113.48 224.52,-252.26 289.97,-403.72 20.4,-46.06 31.23,-83.19 35.1,-115.06 115.77,46.96 233.21,91.43 351.52,132.65 64.19,77.54 145.67,137.58 237.98,177.22 -224.52,136.28 -464.23,346.11 -260.94,520.84 88.01,75.49 222.4,52.61 307.77,-15.11 147.36,-117.63 182.5,-333.5 318.18,-470.33 6.94,-6.87 10.83,-15.47 14.3,-24.83 65,16.76 130.88,32.23 196.76,47.32 13.01,107.76 123.13,197.53 224.56,241.25 75.4,32.68 153.89,45.29 231.9,43.26 -59.39,66.13 -117.91,133.49 -170.82,202.88 -55.88,72.64 -111.36,153.44 -85.78,248.19 40.73,149.8 248.34,282.84 409.16,263.3 373.2,-44.48 436.06,-534.73 341.14,-854.34 6.08,0.83 12.56,1.2 19.09,2.04 48.95,3.31 97.51,6.12 146.46,8.6 -22.07,72.19 -15.58,150.57 29.07,220.41 130.92,204.46 335.04,177.13 510.16,64.46 -55.89,186.59 -52.42,350.19 153.89,320.38 151.72,-21.6 265.72,-250.16 306.06,-366.06 34.24,-99.65 36.81,-198.43 15.13,-293.56 117.46,-17.51 234.51,-37.97 351.14,-61.98 -25.15,64.02 -27.76,134.24 2.14,210.58 86.7,220.47 236.67,188.6 386.21,74.68 -54.6,160.07 -48.11,298.85 111.83,331.53 344.59,69.39 376.26,-542.57 355.87,-846.64 79.77,-26.11 159.94,-52.24 240.12,-79.19 9.12,13.06 18.21,26.11 28.61,39.25 103.2,126.47 229.76,144.9 361.09,107.68 -31.19,160.44 -22.54,354.33 139.57,437.63 165.19,84.48 368.45,6.1 474.2,-124.89 170.8,-210.22 187.68,-558.06 205.06,-823.31 221.91,-51.04 446.42,-89.48 673.98,-106.99 -120.05,111.83 -163.82,282.45 -59.82,420.42 59.44,77.99 127.93,124.5 200.7,147.38 -20.37,55.56 -28.61,183.25 -27.33,197.98 7.41,70.22 33.45,137.94 74.61,196.76 92.33,130.56 252.26,198.36 417.38,171.85 193.31,-30.65 343.33,-168.98 409.63,-338.79 90.6,-232.24 -7.79,-466.16 15.18,-700.52 488.52,146.16 907.63,442.98 1175.98,887.02 20.85,34.65 81.46,11.02 68.49,-27.33 -171.63,-513.13 -668.84,-850.34 -1195.93,-1014.03 -22.04,-6.42 -44.17,-12.24 -66.28,-18.34 1.73,-6.51 1.28,-13.83 0,-19.95 -45.07,-257.54 -68.04,-558.87 -210.67,-790.24 -57.23,-93.17 -217.6,-281.7 -349.81,-215.19 -148.21,74.76 -42.5,393.09 -2.18,503.33 17.36,46.96 38.57,92.25 62.43,135.89 -233.14,-132.2 -481.18,-197.96 -601.19,29 -61.57,116.35 -19.94,202.43 73.26,266.98 -236.25,19.18 -472.06,60.87 -706.15,116.37 -179.01,-277.19 -809.24,-1079.74 -1048.51,-497.21 -45.97,111.44 -35.98,208.61 9.95,291.83 -238.81,135.52 -300.39,358.41 -205.02,584.17 -30.33,9.76 -60.25,19.95 -90.57,29.77 -134.82,-191.43 -323.35,-435.53 -567.44,-468.21 -170.32,-22.88 -309.89,82.06 -332.02,240.48 -23.82,171.84 84.97,315.91 246.65,385.3 0.45,0.45 0.88,0.45 1.33,0.83 -39.04,20.76 -76.32,44.47 -110.57,69.83 -189.4,46.51 -378.41,81.16 -566.96,106.07 -4.75,-8.99 -9.52,-17.59 -14.75,-26.56 105.8,-196.33 271.37,-455.91 247.1,-669.81 -14.3,-126.92 -117.01,-255.15 -262.25,-253.93 -174.67,2.04 -254.84,122.08 -283.05,283.29 -81.48,-98.39 -191.15,-128.14 -339.37,-12.22 -264.86,206.94 -91.03,450.23 120.93,633.46 -107.06,-5.65 -213.28,15.2 -303.88,80.05 -5.18,3.7 -9.95,7.77 -15.17,11.86 -99.7,-2.5 -199.39,-7.32 -299.09,-14.28 52.89,-275.59 197.25,-1074.81 -273.06,-943.74 -301.69,84.05 -254.03,456.35 -139.59,752.33 -37.71,-13.5 -77.16,-24.16 -119.19,-29.45 -116.17,-15.47 -276.55,4.84 -352.83,99.59 -95.82,-19.18 -191.6,-40 -287.38,-62.88 75.83,-237.91 245.77,-1022.48 -155.17,-877.61 -221.5,79.6 -196.8,329.07 -118.79,570.3 -69.35,-44.93 -147.81,-80.05 -233.63,-103.29 -43.81,-12.24 -75.87,20.37 -81.07,57.91 -19.91,44.09 -39.85,87.73 -59.8,131.82 -9.55,11.94 -10,26.58 -6.93,40.47 -79.34,-24.55 -158.23,-50.21 -237.53,-76.71 32.92,-190.66 67.19,-389.47 77.56,-581.69 6.94,-125.72 -14.3,-257.18 -111.36,-350.73 -202.02,-192.99 -393.17,43.72 -413.55,245.77 -9.97,99.67 12.56,198.43 48.54,293.11 -49.85,-44.54 -103.17,-81.61 -156.03,-106.99 -120.52,-56.7 -313.85,-59.95 -381.02,73.09 -12.26,24.19 -17.68,48 -17.68,71.14 0.04,100.21 101.99,187.47 189.33,236.25z"/>
  <rect class="fil1" width="22000" height="22000"/>
 </g>
</svg>
