<?xml version="1.0" encoding="UTF-8"?>
<!DOCTYPE svg PUBLIC "-//W3C//DTD SVG 1.1//EN" "http://www.w3.org/Graphics/SVG/1.1/DTD/svg11.dtd">
<!-- Creator: CorelDRAW 2021 (64-Bit) -->
<svg xmlns="http://www.w3.org/2000/svg" xml:space="preserve" width="22in" height="22in" version="1.1" style="shape-rendering:geometricPrecision; text-rendering:geometricPrecision; image-rendering:optimizeQuality; fill-rule:evenodd; clip-rule:evenodd"
viewBox="0 0 22000 22000"
 xmlns:xlink="http://www.w3.org/1999/xlink"
 xmlns:xodm="http://www.corel.com/coreldraw/odm/2003">
 <defs>
  <style type="text/css">
   <![CDATA[
    .fil0 {fill:none}
    .fil1 {fill:#2B2A29}
   ]]>
  </style>
 </defs>
 <g id="Layer_x0020_1">
  <metadata id="CorelCorpID_0Corel-Layer"/>
  <rect class="fil0" width="22000" height="22000"/>
  <path class="fil1" d="M20900.35 10403.9c194.89,60.98 374.16,158.85 531.5,291.35 19.85,16.73 4.52,57.17 -22.25,53.97 -289.71,-34.01 -564.84,-128.54 -814.22,-278.54 -116.04,4.78 -231.66,12.96 -348.23,30.22 -121.01,17.81 -240.59,44.56 -358.46,78.03 34.46,0.21 68.77,-0.78 101.24,1.5 84.41,5.72 167.23,24.62 245.89,55.8 155.46,61.5 288.95,168.85 385.12,305.58 18.36,25.64 -11.56,50.49 -36.03,47.04 -372.98,-54.06 -753.16,-133.38 -1107.22,-266.83 -322.68,130.98 -638.13,299.96 -925.38,489.31 -169,111.6 -344.63,214.63 -525.39,308.3 455.89,49 791.22,53.86 1247.55,96.06 41.46,3.77 177.98,116.95 130.5,126.21 -157.8,30.88 -318.76,69.5 -478.87,87.07 -77.48,8.52 -140.06,-18.57 -215.28,-22.02 -76.22,-3.22 -159.04,24.29 -235.76,31.2 -278.52,25.15 -563.47,-25.26 -816.72,-144.27 -364.08,155.38 -745.18,270.41 -1135.99,332.57 -11.74,1.83 -23.55,3.32 -35.53,5.28 81.52,57.84 186.38,63.35 287.25,64.52 126.33,1.54 249.89,3.79 375.19,22.22 262.54,38.52 516.85,132.29 747.33,263.3 24.04,13.6 14.46,54.81 -14.44,53.31 -354.81,-18.5 -715.19,-16.42 -1068.26,-59.04 -142.56,-17.24 -283.02,-47.38 -416.28,-102.19 -73.54,-30.33 -144.62,-66.45 -213.34,-106.59 -46.98,-27.72 -99.81,-54.5 -145.57,-87.94 -598.68,36.71 -1203.79,-32.81 -1777.93,-204.28 10.4,43.7 27.32,85.02 57.08,126.25 62.49,85.8 154.43,140.71 251.3,179.99 155.21,62.81 320.07,97.01 475.32,160.58 296.47,121.28 565.74,297.8 797.74,518.13 19.66,18.46 -0.31,54.52 -26.54,45.99 -424.78,-140.5 -868.74,-257.02 -1278.44,-437.89 -335.05,-148.06 -637.7,-395.04 -741.96,-757.58 -395.8,-162.2 -770.54,-375.74 -1110.33,-639.24 -12.65,-10.15 -25.24,-19.97 -37.99,-30 44.81,140.8 57.31,282.28 73.83,431.6 22.78,207.12 116.57,386.87 216,566.63 103.41,186.99 207.07,373.57 310.55,560.35 17.15,30.73 -19.41,74.97 -51.67,51.78 -343.85,-247.87 -674.4,-577.39 -860,-963.79 -100.68,-209.79 -143.51,-440.57 -192.39,-666.52 -26.08,-120 -50.16,-240.1 -74.64,-360.52 -14.84,-72.59 -40.5,-153.84 -53.32,-233.6 -52.15,-62.81 -102.95,-127.32 -151.3,-193.58 -92.42,-126.8 -174.81,-260.48 -246.8,-399.8 24.57,164.01 32.17,329.74 25.79,487.08 -17.35,430.31 -104.53,858.93 -240.92,1266.57 -12,35.93 -73.71,32.92 -70.13,-9.52 38.67,-445.91 33.76,-896 -31.3,-1339.4 -28.86,-195.52 -84.09,-393.52 -71.44,-592.58 9.6,-151.49 55.99,-295.78 132.84,-425.24 -7.22,-19.01 28.48,-64.32 31.72,-58.62 -0.08,-2.91 -0.44,-5.7 -0.55,-8.52 -2.46,-59.67 86.97,-85.46 114.48,-31.18 34.92,69.27 64.74,140.71 93.98,212.26 329.14,132.1 597.67,374.3 875.3,591.21 165.71,129.39 336.46,241.47 524.97,334.27 162.52,79.94 328.66,167.78 423.2,329.56 17.83,30.52 -11.54,64.49 -44.22,57.29 -402.66,-88.28 -822.45,-178.59 -1169.5,-413.18 -78.22,-52.98 -152.35,-111.79 -221.41,-175.98 147.36,211.07 319.5,404.53 507.37,580.41 590.89,273 1355.91,84.17 1891.21,520.87 34.33,28.06 4.38,82 -34.29,82.97 -325.49,7.77 -651.2,12.52 -973.39,-42.08 -66.77,-11.45 -137.37,-25.49 -209.12,-43.19 249.95,156.24 515.23,288 790.19,394.41 14.52,-1.83 28.8,-3.57 42.29,-6.04 71.65,-12.84 143.28,-22.25 215.7,-29.02 163.35,-15.56 326.19,-25.03 485.89,-66.47 293.06,-75.76 557.87,-234.8 766.23,-453.85 12.17,-12.61 38.41,-14.78 49.94,0 166.65,211.07 -17.89,453.85 -220.65,546.74 -143.99,66.05 -302.78,104.59 -454.19,149.57 -72.07,21.24 -144.48,42.73 -216.57,63.86 478.65,110.5 974.72,150.43 1464.69,113.98 30.67,-36.98 57.63,-76.62 80.42,-118.71 58.77,-107.58 76.28,-224.54 94.72,-343.89 39.55,-255.61 69.38,-514.89 6.82,-769.47 -8.27,-33.97 36.02,-51.15 55,-23.2 64.11,93.37 107.68,196.07 144.5,302.78 39.91,116.23 82.56,235.56 95.27,358.58 12.06,117.62 -6.48,232.86 -33.97,347.13 -14.61,60.94 -29.36,134 -53.29,201.22 304.07,-48.45 603.37,-125.49 892.14,-232.98 48.39,-18.02 96.34,-37.32 143.82,-57.5 69.89,-72.59 123.01,-162.6 174.28,-249.36 78.97,-134.1 158.94,-262.62 272.64,-370.62 117.09,-111.26 252.96,-201.06 392.05,-282.2 141.3,-82.32 623.14,-166.83 617.08,-149.44 -59.61,172.22 -386.29,282.7 -517.42,392.89 -128.86,108.13 -242.96,230.04 -341.49,364.8 99.52,-51.95 199.33,-103.69 300.61,-152.65 325.26,-156.92 635.44,-338.84 966.38,-481.7 0.28,-1.91 0.78,-4 1.54,-6.04 56.79,-163.82 549.96,-639.98 592.6,-663.41 59.65,-33.13 119.35,-66.13 179.02,-98.95 42.02,-23.3 99.37,-55.46 119.87,12.33 18.71,61.46 -47.02,129.47 -80.3,172.2 -60.79,78.03 -130.76,148.24 -192.26,225.85 -30.1,38.18 -59.04,78.55 -81.24,122.22 -8.73,17.3 -15.57,35.3 -21.79,53.32 248.2,-67.36 511.12,-106.61 762,-75.52 18.25,-26.23 35.93,-52.24 40.24,-58.26 17.26,-23.32 35.95,-45.13 56.64,-65.31 42.73,-42.16 92.59,-76.81 145.02,-105.72 119.41,-65.59 251.32,-102.85 383.84,-130.56 18.02,-3.77 42.06,8.5 39.78,30.31 -25.36,239.78 -252.5,305.06 -449.26,375.84 2.21,0.65 3.94,1.18 6.13,1.72 5.6,1.94 10.02,4.76 13.62,8.19zm-19800.65 0c-194.8,60.98 -374.2,158.85 -531.54,291.35 -19.8,16.73 -4.65,57.17 22.12,53.97 289.96,-34.01 564.98,-128.54 814.35,-278.54 116.08,4.78 231.66,12.96 348.19,30.22 121.17,17.81 240.69,44.56 358.5,78.03 -34.25,0.21 -68.74,-0.78 -101.43,1.5 -84.17,5.72 -167.17,24.62 -245.7,55.8 -155.4,61.5 -289.19,168.85 -385.13,305.58 -18.14,25.64 11.56,50.49 36.06,47.04 373.09,-54.06 753.18,-133.38 1107.09,-266.83 322.82,130.98 638.23,299.96 925.37,489.31 169.15,111.6 344.76,214.63 525.39,308.3 -455.72,49 -911.15,101.85 -1367.35,144.05 -41.44,3.77 -58.05,68.96 -10.69,78.22 158.03,30.88 318.66,69.5 478.98,87.07 77.52,8.52 140.06,-18.57 215.18,-22.02 76.28,-3.22 159.15,24.29 235.76,31.2 278.74,25.15 563.57,-25.26 816.83,-144.27 364.29,155.38 745.05,270.41 1135.9,332.57 11.96,1.83 23.64,3.32 35.51,5.28 -81.46,57.84 -186.36,63.35 -287.15,64.52 -126.19,1.54 -250.02,3.79 -375.17,22.22 -262.6,38.52 -516.85,132.29 -747.35,263.3 -23.91,13.6 -14.46,54.81 14.46,53.31 355,-18.5 715.19,-16.42 1068.23,-59.04 142.52,-17.24 282.93,-47.38 416.19,-102.19 73.75,-30.33 144.58,-66.45 213.3,-106.59 47.15,-27.72 99.94,-54.5 145.7,-87.94 598.56,36.71 1203.76,-32.81 1777.93,-204.28 -10.44,43.7 -27.4,85.02 -57.08,126.25 -62.37,85.8 -154.39,140.71 -251.28,179.99 -155.17,62.81 -320.08,97.01 -475.46,160.58 -296.38,121.28 -565.74,297.8 -797.7,518.13 -19.53,18.46 0.42,54.52 26.63,45.99 424.82,-140.5 868.74,-257.02 1278.36,-437.89 335.18,-148.06 637.8,-395.04 742.05,-757.58 395.75,-162.2 770.54,-375.74 1110.33,-639.24 12.78,-10.15 25.24,-19.97 37.87,-30 -44.73,140.8 -57.3,282.28 -73.71,431.6 -22.71,207.12 -116.5,386.87 -216.02,566.63 -103.18,186.99 -207.06,373.57 -310.53,560.35 -16.94,30.73 19.32,74.97 51.57,51.78 344.08,-247.87 674.39,-577.39 860.11,-963.79 100.8,-209.79 143.4,-440.57 192.38,-666.52 26.04,-120 50.2,-240.1 74.7,-360.52 14.84,-72.59 40.43,-153.84 53.28,-233.6 52.28,-62.81 102.95,-127.32 151.28,-193.58 92.38,-126.8 174.81,-260.48 246.77,-399.8 -24.41,164.01 -32.35,329.74 -25.81,487.08 17.52,430.31 104.61,858.93 240.78,1266.57 12.31,35.93 73.9,32.92 70.37,-9.52 -38.75,-445.91 -33.91,-896 31.3,-1339.4 28.86,-195.52 84.02,-393.52 71.31,-592.58 -9.45,-151.49 -56.01,-295.78 -132.96,-425.24 7.64,-19.01 -28.35,-64.32 -31.6,-58.62 0.15,-2.91 0.31,-5.7 0.53,-8.52 2.55,-59.67 -86.87,-85.46 -114.37,-31.18 -34.88,69.27 -64.75,140.71 -93.98,212.26 -329.07,132.1 -597.67,374.3 -875.43,591.21 -165.46,129.39 -336.33,241.47 -524.85,334.27 -162.64,79.94 -328.78,167.78 -423.31,329.56 -17.76,30.52 11.67,64.49 44.24,57.29 402.87,-88.28 822.54,-178.59 1169.48,-413.18 78.53,-52.98 152.33,-111.79 221.51,-175.98 -147.23,211.07 -319.5,404.53 -507.37,580.41 -590.92,273 -1356.01,84.17 -1891.23,520.87 -34.18,28.06 -4.42,82 34.31,82.97 325.62,7.77 651.22,12.52 973.3,-42.08 66.98,-11.45 137.49,-25.49 209.24,-43.19 -249.87,156.24 -515.37,288 -790.22,394.41 -14.4,-1.83 -28.9,-3.57 -42.39,-6.04 -71.5,-12.84 -143.3,-22.25 -215.58,-29.02 -163.42,-15.56 -326.21,-25.03 -485.91,-66.47 -293.02,-75.76 -557.83,-234.8 -766.23,-453.85 -12.12,-12.61 -38.39,-14.78 -49.95,0 -166.59,211.07 17.81,453.85 220.57,546.74 144.14,66.05 302.66,104.59 454.27,149.57 72.13,21.24 144.37,42.73 216.44,63.86 -478.37,110.5 -974.69,150.43 -1464.56,113.98 -30.46,-36.98 -57.63,-76.62 -80.49,-118.71 -58.58,-107.58 -76.28,-224.54 -94.65,-343.89 -39.43,-255.61 -69.5,-514.89 -6.8,-769.47 8.38,-33.97 -36.04,-51.15 -55.15,-23.2 -63.86,93.37 -107.58,196.07 -144.37,302.78 -39.78,116.23 -82.63,235.56 -95.37,358.58 -11.83,117.62 6.59,232.86 34.08,347.13 14.67,60.94 29.38,134 53.31,201.22 -304.13,-48.45 -603.4,-125.49 -892.14,-232.98 -48.2,-18.02 -96.38,-37.32 -143.97,-57.5 -69.63,-72.59 -122.88,-162.6 -174.16,-249.36 -78.76,-134.1 -159.15,-262.62 -272.79,-370.62 -116.71,-111.26 -252.79,-201.06 -391.84,-282.2 -141.24,-82.32 -623.29,-166.83 -617.14,-149.44 59.65,172.22 386.18,282.7 517.39,392.89 128.94,108.13 242.98,230.04 341.51,364.8 -99.47,-51.95 -199.37,-103.69 -300.7,-152.65 -325.06,-156.92 -635.48,-338.84 -966.3,-481.7 -0.15,-1.91 -0.78,-4 -1.62,-6.04 -56.66,-163.82 -550,-639.98 -592.52,-663.41 -59.59,-33.13 -119.34,-66.13 -178.99,-98.95 -41.91,-23.3 -99.5,-55.46 -119.98,12.33 -18.5,61.46 47.13,129.47 80.39,172.2 60.92,78.03 130.77,148.24 192.17,225.85 30.22,38.18 59.12,78.55 81.22,122.22 9.05,17.3 15.56,35.3 21.91,53.32 -248.1,-67.36 -511.14,-106.61 -762.23,-75.52 -18.14,-26.23 -35.82,-52.24 -40.24,-58.26 -17,-23.32 -35.82,-45.13 -56.43,-65.31 -42.77,-42.16 -92.59,-76.81 -145.15,-105.72 -119.24,-65.59 -251.17,-102.85 -383.67,-130.56 -18.02,-3.77 -42.22,8.5 -39.93,30.31 25.51,239.78 252.47,305.06 449.43,375.84 -2.15,0.65 -4.13,1.18 -6.19,1.72 -5.39,1.94 -10.02,4.76 -13.57,8.19z"/>
 </g>
</svg>
