<?xml version="1.0" encoding="UTF-8"?>
<!DOCTYPE svg PUBLIC "-//W3C//DTD SVG 1.1//EN" "http://www.w3.org/Graphics/SVG/1.1/DTD/svg11.dtd">
<!-- Creator: CorelDRAW 2021 (64-Bit) -->
<svg xmlns="http://www.w3.org/2000/svg" xml:space="preserve" width="22in" height="22in" version="1.1" style="shape-rendering:geometricPrecision; text-rendering:geometricPrecision; image-rendering:optimizeQuality; fill-rule:evenodd; clip-rule:evenodd"
viewBox="0 0 22000 22000"
 xmlns:xlink="http://www.w3.org/1999/xlink"
 xmlns:xodm="http://www.corel.com/coreldraw/odm/2003">
 <defs>
  <style type="text/css">
   <![CDATA[
    .fil0 {fill:none}
    .fil1 {fill:#2B2A29}
   ]]>
  </style>
 </defs>
 <g id="Layer_x0020_1">
  <metadata id="CorelCorpID_0Corel-Layer"/>
  <rect class="fil0" width="22000" height="22000"/>
  <path class="fil1" d="M20146.41 11421.33c-11.02,191.94 -70.22,371.25 -148.39,543.93 -62.35,-122.32 -126.98,-244.02 -210.2,-352.98 -153.57,-201.3 -587.51,-610.39 -140.59,-804.28 31.29,23.78 61.02,51.88 88.2,87.37 107.06,139.52 130.83,313.87 202.34,470.39 5.07,11.17 21.15,4.67 21.59,-5.89 8.16,-194.66 -51.64,-409.85 -181.52,-560.48 335.11,-93.55 379.41,433.93 368.56,621.93zm-17924.32 -641.52c-129.79,150.55 -189.67,365.73 -181.52,560.48 0.45,10.48 16.61,16.97 21.66,5.8 71.44,-156.46 95.28,-330.85 202.28,-470.39 27.27,-35.49 57.02,-63.5 88.26,-87.28 446.92,193.89 12.99,602.99 -140.66,804.28 -83.13,108.87 -147.83,230.66 -210.2,352.91 -78.06,-172.76 -137.28,-352.07 -148.3,-543.87 -10.87,-188.09 33.37,-715.48 368.47,-621.93zm1256.03 499.85c-92.12,118.31 -139.25,328.36 -141.58,471.29 -0.15,10.79 16.97,16.84 21.75,5.82 55.71,-130.62 80.17,-293.65 162.32,-410.23 14,-19.86 30.28,-39.25 47.19,-58.52 -1.11,8.84 2.2,18.43 10.19,22.67 444.3,237.74 -82.21,707.39 -316.21,930.07 -79.85,-115.3 -144.66,-239.8 -171.09,-379.56 -40.09,-211.05 39.79,-726.97 387.44,-581.54zm1222.58 242.37c-41.61,86.15 -56.5,182.8 -30.61,283.22 2.95,11.32 19.11,10.72 22.37,0 29.75,-98.18 61.75,-195.41 107.06,-285.56 174.65,50.04 220.77,169.66 135.16,360.68 -39.72,54.04 -82.83,105.09 -129.49,153.12 -34.44,40.54 -69.32,80.41 -101.56,122.62 -75.28,98.84 -131.09,203.26 -178.05,315.31 -99.35,-122.7 -176.9,-260.56 -216.17,-415.8 -71.43,-282.78 67.74,-592.8 391.29,-533.59zm983.59 122.02c-80.71,130.09 -116.13,281.56 -59.59,428.04 10.72,27.69 51.41,24.31 52.63,-7.17 5.67,-138.56 10.64,-258.76 76.71,-383.71 407.44,-29.24 152.9,450 77.69,611.95 -51.33,110.61 -64.79,232.33 -106.91,344.76 -148.28,-112.73 -263.9,-257.78 -308.22,-442.37 -51.47,-214.52 -12.07,-587.57 267.69,-551.49zm1004.07 48.93c-33.24,140.28 -19.5,292.43 30.63,425.47 4.86,12.67 21.3,9.89 22.81,-3.1 16.07,-134.24 -8.39,-270.69 19.54,-403.87 1.67,-8.09 4.98,-14.72 6.96,-22.5 12.99,-3.4 22.34,-11.02 28.23,-21.21 353.98,-41.07 278.78,331.77 208.25,561.59 -37.22,121.57 -68.72,282.99 -128.14,403.43 -140.27,-96.96 -265.84,-211.57 -351.33,-361.22 -123.97,-217.22 -136.66,-551.49 163.05,-578.59zm1252.84 -371.49c-19.18,153.42 -2.65,310.62 63.93,451 11.73,24.68 48.78,6.72 42.51,-17.83 -38.78,-151.32 -57.9,-293.48 -46.28,-435.29 276.06,-149.05 480.37,207.35 432.11,431.83 -21.28,99.14 -78.59,184.24 -131.91,267.73 -74.5,116.81 -144.58,223.57 -190.34,350.5 -159.45,-126.62 -318.33,-264.65 -409.54,-449.48 -45.14,-85.46 -68.85,-176.44 -71.21,-273.1 -13.33,-160.82 70.37,-263.81 251.44,-308.95 47.43,-25.38 54.21,-20.61 59.29,-16.39zm1154.99 -247.95c-134.03,221.07 -209.77,492.37 -204.55,698.19 1.07,44.24 66.67,54.51 77.93,10.51 55.8,-217.15 93.92,-423.2 207.09,-621.56 15.35,-26.96 33.3,-51.11 50.36,-76.11 220.73,49.61 150.48,399.42 118.1,529.3 -36,143.68 -111.59,210.2 -206.97,316.14 -85.14,94.52 -154.85,200.07 -215.12,311.52 -212.15,-326.27 -429.54,-1235.63 173.15,-1167.98zm-296.13 -597.55c-89.61,-162.11 -99.44,-355.48 -147.92,-558.28 -3.83,-16.16 -25,-10.42 -26.65,3.62 -22.97,195.41 7.23,409.24 108.56,574.58 -203.39,-58.67 -371.47,-229.91 -420.4,-439.51 -48.69,-209.45 79.36,-477.63 166.17,-695.92 120.22,127.67 247.44,251.57 357.69,386.58 131.16,160.67 420.03,739.11 -23.71,724.32 -5.59,-0.24 -9.59,2.33 -13.74,4.6zm-1010.11 337.89c-39.02,-74.52 -77.01,-149.2 -96.19,-233.23 -27.72,-121.42 -13.53,-247.35 -32.17,-369.97 -2.12,-13.76 -22.96,-12.09 -26.2,0 -55.94,212.15 -13.22,446.38 99.59,635.58 -363.64,-31.94 -393.9,-385 -281.02,-665.48 34.89,-86.62 239.35,-525.38 339.84,-399.06 25.83,32.53 28.08,142.56 44.78,184.83 40.79,103.59 95.37,171.03 126.08,279.22 53.7,188.54 148,519.86 -165.87,563.05 -4.13,0.6 -6.04,3.17 -8.84,5.05zm-988.88 150.55c-170.48,-191.56 -298.46,-422.37 -307.91,-682.33 -0.69,-17.44 -25.44,-21 -30.43,-4.15 -61.23,204.91 54.21,399.12 158.19,569.15 23.48,38.35 48.46,76.19 75.19,112.73 -301.7,-26.8 -514.19,-254.76 -452.57,-584.02 31.04,-165.15 147.38,-332.37 259.06,-466.03 47.49,155.62 107.59,305.66 189.2,447.45 50.23,87.28 116.58,163.48 167.84,249.17 44.03,73.52 153.97,428.19 -58.58,358.03zm-1158.39 102.45c-16.97,-32.98 -33.15,-66.35 -46.59,-101.32 -54.43,-141.5 -66.97,-291.89 -71.96,-442.68 -0.51,-13.98 -20.01,-13.44 -21.3,0 -16.22,164.82 -10.27,306.32 51.13,460.42 11.17,28.08 22.56,58.9 35.25,90.15 -436.47,61.32 -303.45,-794.37 -165.59,-1072.84 94.56,130.24 189.82,260.11 281.34,392.55 53.25,77.03 107.83,154.34 147.02,239.8 17.06,46.81 34.2,93.55 51.35,140.38 32.83,209.21 -54.3,306.77 -260.65,293.54zm-991.92 -93.02c-9.57,-29.81 -17.96,-60.55 -23.78,-93.77 -18.7,-107.68 1.82,-225.01 -27.57,-328.45 -2.7,-9.59 -18.49,-13.35 -23.03,-3.02 -46.64,107.68 -16.01,253.84 8.99,365.82 5.67,25.13 12.09,53.38 20.01,82.23 -10.19,-4.83 -21.75,-6.81 -54.3,-24.16 -140.19,-75.06 -225.82,-180.3 -227.41,-350.58 -0.9,-93.61 96.12,-510.39 208.91,-514.87 45.61,-1.8 272.74,415.82 295,464.98 62.6,137.7 108.81,504.59 -138.18,398.35 -14.34,-6.19 -27.93,-3.31 -38.65,3.47zm-1124.17 -276.04c-13.29,-29.98 -25.02,-60.87 -33.77,-93.1 -41.14,-151.23 2.5,-283.44 -5.2,-433.77 -0.81,-17.44 -25,-25.83 -34.29,-9.2 -92.25,165.43 -76.32,382.79 7.94,562.19 -299.3,-58.96 -235.28,-483.37 -168.76,-677.87 37.07,-108.36 81.24,-182.8 139.91,-276.2 42.29,-67.2 47.5,-131.22 133.28,-113.18 98.15,20.7 177.65,307.84 210.11,392.79 35.51,92.78 69.39,186.63 73.86,287.53 3.94,45.97 0.6,91.43 -9.82,136.21 -3.85,135.82 -98.09,209.81 -282.63,221.82 -10.49,-6.12 -21.81,-3.31 -30.63,2.8zm-892.48 -325.88c-5.44,-10.49 -11.17,-20.76 -15.78,-31.78 -78.14,-186.66 -185,-389.15 -196.09,-593.55 -1.11,-19.65 -28.32,-23.63 -34.2,-4.6 -55.2,177.43 53.08,353.28 120.44,513.8 15.32,36.62 29.9,76.11 45.52,115.38 -192.67,-85.25 -328.15,-225.16 -367.19,-439 -19.84,-108.51 -9.06,-221.67 25.38,-326.03 7.79,-23.63 125.19,-299.15 183.08,-294.25 64.27,5.28 225.69,364.56 259.98,429.85 63.65,121.33 289.86,618.25 -21.15,630.17zm-681.19 1725.06c18.19,33.13 77.67,38.2 94.28,0 95.61,-218.29 188.39,-382.73 344.31,-565.77 104.21,-122.23 211.48,-242.52 243.35,-405.22 29.15,-148.54 -37.82,-342.43 -173.28,-396.79 59.43,-21.66 123.37,-30.5 191.17,-30.05 4.39,9.35 10.81,17.89 21.98,23.26 319.55,155.83 650.09,284.49 987.59,388.17 -2.69,1.88 -5.28,3.17 -8.15,5.29 -27.33,20.67 -46.42,49.76 -69.69,74.37 -6.64,7.02 -14.64,13.59 -22.94,20.01 -4.37,-5.91 -10.13,-11.17 -18.67,-15.11 -233.59,-106.84 -405.91,-4.3 -484.97,237.25 -100.04,305.72 -12.76,651.29 150.1,917.76 18.22,29.73 59.65,35.64 84.8,10.87 195.94,-192.69 486.1,-406.08 533.9,-697.59 15.8,-96.06 8.6,-214.29 -51.65,-296.52 -56.16,-76.73 -109.63,-67.72 -186.81,-101.32 45.55,-48.33 97.34,-92.87 149.65,-131.54 354.13,104.34 715.95,180.54 1081.69,228.33 -18.32,17.51 -35.49,36.02 -51.35,55.5 -4.05,-2.04 -7.54,-4.6 -12.67,-5.8 -256.11,-58.39 -518.96,66.88 -566.45,343.45 -51.62,301.18 135.61,622.4 316.3,845.44 18.51,22.79 65.24,17.44 77.09,-9.98 87.75,-202.49 203.03,-368.69 342.64,-538.5 69.17,-83.96 137.34,-163.09 149.65,-276.57 16.78,-154.04 -84.26,-325.73 -236.25,-326.57 17,-27.27 36.32,-53.23 57.23,-78.44 329.97,39.49 662.78,56.48 995.9,50.51 -55.03,40.69 -106.61,89.61 -151.08,144.06 -229.59,-204.4 -398.5,166.8 -419.2,376.84 -33.67,340.31 127.22,639.01 398.82,832.9 24.46,17.53 64.62,4.98 78.29,-20.53 84.35,-157.89 110.7,-334.87 195.86,-495.78 61.77,-116.82 125.79,-235.88 120.35,-372.01 -7.02,-179.78 -121.78,-303.92 -281.17,-319.91 52.26,-60.42 115.36,-109.56 185.88,-149.28 304.31,-10.72 608.27,-40.77 910.14,-89.17 -56.61,57.08 -131,137.94 -142.54,154.04 -22.26,30.8 -41.24,63.95 -57.91,98.31 -221.61,2.18 -408.95,180.44 -387.2,410.96 28.33,299.75 286.63,596.41 526.51,755.05 22.88,15.09 53.53,3.79 67.19,-17.66 79.66,-124.97 110.63,-295.92 155.92,-437.26 44.86,-140.06 120.89,-309.79 92.57,-460.42 -35.02,-186.74 -213.15,-286.39 -380.01,-242.96 38.68,-82.32 93.32,-152.76 156.37,-227.37 7.73,-9.2 23.39,-25.66 36.47,-43.49 22.37,-3.85 44.78,-6.79 67.06,-10.79 314.64,-56.48 625.48,-138.86 936.17,-222.83 -21.43,55.88 -38.27,114.01 -49.68,173.3 -5.29,4.22 -8.99,8.97 -11.41,14.26 -94.52,-22.43 -145.02,-70.59 -256.32,5.82 -106.55,73.16 -147.85,207.27 -151.47,330.72 -11.09,384.61 291.98,660.13 569.15,877.67 27.65,21.66 72.64,17.66 82.61,-21.83 79.6,-316.98 448.5,-638.39 297.18,-989.57 -75.57,-175.54 -283.44,-315.54 -466.33,-249.62 9.61,-51.58 23.56,-103.5 42.89,-155.98 427.82,-115.68 856.01,-230.98 1293.79,-282.99 -77.01,55.56 -146.18,128.95 -205.98,213.52 -314.83,-130.47 -486.64,4.99 -525.5,349 -41.44,366.78 23.84,729.07 279.05,1004.95 17.23,18.64 57.08,16.69 68.04,-8.75 137.43,-320.15 460.87,-487.24 492.67,-847.92 15.94,-180.62 5.44,-431.12 -192.18,-469.65 67.44,-88.41 142.12,-169.49 213.84,-255.04 56.87,-5.01 113.93,-8.99 171.18,-11.5 359.31,-16.01 728.3,22.82 1070.72,135.85 48.39,15.97 94.7,33.69 139.32,52.94 -247.12,138.69 -457.25,326.75 -565.54,573.17 -7.47,17.15 11.02,32.26 25.9,19.95 234.83,-194.33 439.4,-381.02 696.05,-516.02 239.85,133.14 436.07,311.31 659.78,496.43 14.9,12.31 33.3,-2.8 25.83,-20.01 -102.41,-233.17 -296.06,-414.08 -525.96,-550.35 32.32,-12.99 65.54,-25.2 99.81,-36.51 342.4,-113.05 711.39,-151.77 1070.66,-135.85 57.3,2.57 114.38,6.57 171.25,11.65 71.66,85.4 146.39,166.56 213.81,254.97 -197.66,38.5 -208.08,289.11 -192.16,469.56 31.89,360.77 355.25,527.86 492.59,848.01 11.04,25.51 50.89,27.33 68.04,8.75 255.21,-275.82 320.59,-638.17 279.14,-1005.04 -38.95,-343.94 -210.65,-479.47 -525.51,-349 -59.86,-84.5 -129.04,-157.8 -205.98,-213.52 437.8,52.09 865.96,167.39 1293.76,282.99 19.35,52.55 33.3,104.43 42.83,156.14 -182.8,-65.99 -390.6,73.93 -466.33,249.56 -151.23,351.16 217.69,672.65 297.26,989.57 9.98,39.4 54.9,43.49 82.53,21.74 277.25,-217.54 580.32,-492.91 569.15,-877.61 -3.53,-123.45 -44.84,-257.54 -151.47,-330.7 -111.21,-76.43 -161.66,-28.31 -256.26,-5.91 -2.48,-5.29 -6.04,-10.04 -11.41,-14.26 -11.39,-59.29 -28.23,-117.27 -49.74,-173.3 310.79,83.96 621.63,166.49 936.19,222.98 22.35,3.92 44.78,6.87 67.04,10.64 13.08,17.89 28.77,34.29 36.62,43.49 62.99,74.68 117.65,145.13 156.3,227.43 -166.94,-43.49 -345.06,56.18 -380.09,242.96 -28.23,150.55 47.8,320.38 92.65,460.44 45.31,141.34 76.17,312.29 155.9,437.24 13.68,21.44 44.41,32.77 67.21,17.59 239.88,-158.55 498.17,-455.13 526.43,-755.05 21.74,-230.51 -165.51,-408.71 -387.11,-410.89 -16.7,-34.35 -35.64,-67.57 -57.92,-98.39 -11.62,-16.07 -85.93,-96.78 -142.54,-154.02 301.8,48.46 605.77,78.44 910.12,89.17 70.54,39.7 133.66,88.87 185.91,149.35 -159.39,16.01 -274.17,140.06 -281.19,319.91 -5.41,136.14 58.52,255.15 120.37,372.02 85.1,160.89 111.51,337.87 195.86,495.67 13.68,25.53 53.83,38.06 78.29,20.63 271.52,-193.91 432.49,-492.61 398.89,-832.83 -20.82,-210.2 -189.67,-581.39 -419.26,-376.93 -44.48,-54.37 -96.06,-103.35 -151.11,-144.13 333.07,6.04 665.89,-10.87 995.92,-50.51 20.85,25.21 40.15,51.26 57.23,78.44 -152.05,0.9 -253.09,172.61 -236.27,326.72 12.33,113.33 80.58,192.45 149.67,276.5 139.61,169.79 254.97,335.92 342.55,538.5 11.86,27.48 58.67,32.77 77.09,9.89 180.77,-223.04 368,-544.24 316.29,-845.44 -47.49,-276.57 -310.34,-401.76 -566.36,-343.39 -5.2,1.13 -8.61,3.77 -12.69,5.74 -15.9,-19.33 -32.98,-37.91 -51.35,-55.41 365.76,-47.81 727.57,-123.98 1081.62,-228.33 52.42,38.57 104.19,83.19 149.72,131.46 -77.16,33.58 -130.62,24.68 -186.78,101.47 -60.25,82.06 -67.44,200.31 -51.65,296.35 47.73,291.61 337.95,504.92 533.81,697.67 25.23,24.76 66.67,18.88 84.86,-10.94 162.87,-266.4 250.16,-611.97 150.1,-917.69 -79.02,-241.55 -251.42,-344.16 -485.04,-237.23 -8.45,3.92 -14.28,9.2 -18.57,15.02 -8.37,-6.36 -16.31,-12.99 -23.03,-19.95 -23.24,-24.53 -42.35,-53.68 -69.6,-74.44 -2.87,-2.12 -5.44,-3.32 -8.24,-5.29 337.59,-103.59 668.14,-232.24 987.68,-388.17 11.11,-5.37 17.59,-13.83 21.98,-23.26 67.81,-0.45 131.76,8.45 191.17,30.05 -135.37,54.36 -202.43,248.34 -173.28,396.79 31.87,162.77 139.14,282.99 243.35,405.31 155.92,182.93 248.7,347.48 344.22,565.74 16.78,38.2 76.11,33.09 94.37,0 188.8,-341.65 301.27,-778.15 158.43,-1158 -81.37,-216.47 -315.09,-393 -524.16,-246.61 -107.89,-72.41 -233.61,-87.13 -364.24,-75.51 -10.27,-4.52 -21.98,-5.65 -34.74,-0.96 35.27,-34.97 72.41,-68.72 98.39,-109.65 14.04,-22.2 26.28,-46.51 37.91,-71.51 1.43,-0.69 3.02,-1.11 4.3,-1.95 264.88,21.57 452.57,-270.83 489.19,-507.55 22.43,-145.13 -2.09,-292.58 -63.11,-425.92 -34.95,-76.43 -134.33,-275.07 -236.03,-286.69 -90.75,-10.21 -120.89,96.79 -155.3,164.53 -90.53,178.18 -195.94,359.85 -263.51,548.09 -63.65,177.04 -78.01,470.99 134.93,509.05 -52.39,77.16 -117.42,144.68 -159.69,225.16 -253.93,100.42 -511.85,190.27 -773.63,267.45 40.86,-39.06 76.86,-85.19 107.36,-135.61 662.12,-31.96 173.15,-1078.81 -31.01,-1328.74 -13.29,-16.31 -44.56,-19.71 -61.77,-8.01 -129.4,88.57 -169.89,284.57 -228.18,424.1 -80.32,192.09 -148.15,396.4 -112.96,607.44 24.57,146.24 195.2,407.43 344.31,319.46 -38.12,56.25 -83.96,107.53 -136.59,152.69 -1.11,1.05 -0.75,2.48 -1.65,3.47 -318.93,89.08 -642.71,159.69 -970.17,208.17 30.52,-29.09 52.57,-68.7 68.94,-111.59 185.52,19.63 343.32,-127.39 375.56,-302.79 26.73,-145.26 -3.4,-292.28 -58.06,-426.97 -38.1,-94 -96.12,-281.19 -177.73,-345.21 -17.72,-13.83 -39.4,-16.24 -57.15,0 -111.68,102.76 -201.76,290.46 -280.59,420.33 -75.72,124.8 -139.38,249.32 -136.36,399.04 4.47,222.07 95.58,313.96 282.09,246.22 -17.06,41.61 -36.17,82.91 -55.2,126.02 -197.65,28.23 -396.25,49.85 -596.11,61.38 -120.05,7.02 -239.35,10.36 -358.03,10.51 24.7,-27.65 44.93,-60.64 62.67,-95.37 229.91,40.84 389.51,-132.12 417.23,-356.68 16.54,-133.73 -18.88,-268.65 -50.81,-397.09 -38.2,-153.03 -55.05,-340.22 -131.69,-478.61 -13.48,-24.63 -45.52,-20.31 -60.1,0 -135.44,189.5 -282.76,374.43 -406.59,571.72 -71.19,113.41 -154.79,261.24 -131.52,401.69 19.71,119.22 168.08,301.57 289.03,278.45 -14.11,24.91 -27.63,50.06 -40.93,75.36 -383.41,-2.65 -760.55,-38.5 -1135.21,-98.39 52.41,-40.17 99.05,-87.28 141.19,-138.99 243.14,49.89 481.12,-91.07 566.81,-332.99 110.55,-311.99 -129.13,-670.02 -322.18,-896.46 -24,-28.1 -70.29,-11.26 -79.52,20.91 -65.39,228.54 -161.12,445.1 -295.15,641.94 -90.3,132.74 -192.09,241.08 -177.22,412.33 7.34,84.65 66.91,181.67 137.96,215.57 -22.11,21.15 -44.63,41.69 -67.44,61.62 -280.72,-47.88 -560.31,-108.51 -840.43,-177.81 17.06,-20.4 33.75,-41.01 48.78,-63.06 1.67,0.83 2.24,2.42 4.3,2.87 304.97,66.76 435.81,-211.4 445.33,-465.94 6.81,-181.97 -93.79,-356.89 -185.07,-513.05 -51.17,-87.67 -126.62,-286.09 -246.45,-289.02 -75.49,-1.82 -95.8,58.73 -115.66,120.88 -65.24,204.01 -150.72,387.33 -210.13,593.31 -48.03,166.86 -3.47,591.96 252.7,527.18 -12.91,25.06 -25.06,50.51 -36.62,76.26 -61.36,-15.32 -122.62,-30.95 -184,-47.04 -290.52,-76.26 -586.53,-152.13 -885.53,-208.08 54.62,-33.54 100.89,-75.28 139.91,-122.92 6.83,8.07 15.02,13.66 27.42,15.18 224.86,28.98 439.59,-196.85 527.17,-382.75 147.55,-313.19 -67.5,-660.81 -174.65,-958.44 -13.51,-37.6 -64.85,-59.73 -95.44,-25.23 -236.24,266.31 -573.83,593.25 -632.8,963.07 -27.18,170.41 90,433.47 280.48,376.24 -34.93,44.32 -78.65,85.63 -133.79,123.39 -416.33,-73.93 -838.03,-106.09 -1258.13,-42.38 -230.5,35.03 -493.2,104.17 -735.49,214.64 -253.66,-121.96 -533.56,-197.2 -777.4,-234.22 -420.12,-63.78 -841.73,-31.63 -1258.15,42.29 -55.09,-37.75 -98.81,-79.06 -133.79,-123.37 190.51,57.21 307.69,-205.92 280.5,-376.24 -58.96,-369.84 -396.55,-696.77 -632.8,-963 -30.65,-34.57 -82.02,-12.46 -95.46,25.23 -107.12,297.63 -322.18,645.11 -174.63,958.38 87.6,185.89 302.32,411.79 527.18,382.81 12.37,-1.6 20.61,-7.17 27.39,-15.17 39.04,47.56 85.33,89.31 139.91,122.92 -298.91,55.95 -595.05,131.76 -885.53,208.02 -61.36,16.07 -122.68,31.78 -184,47.11 -11.54,-25.83 -23.69,-51.26 -36.62,-76.32 256.22,64.85 300.74,-360.23 252.64,-527.11 -59.33,-205.98 -144.81,-389.39 -210.05,-593.4 -19.84,-62.05 -40.24,-122.68 -115.75,-120.8 -119.81,2.96 -195.17,201.38 -246.37,289.03 -91.28,156.07 -191.85,331.02 -185.07,512.98 9.52,254.52 140.36,532.61 445.33,466.01 2.04,-0.45 2.57,-2.1 4.3,-2.87 15.05,21.98 31.72,42.59 48.78,63.06 -280.19,69.3 -559.71,129.87 -840.45,177.73 -22.86,-19.93 -45.29,-40.45 -67.42,-61.6 71.06,-33.9 130.56,-130.92 137.94,-215.57 14.81,-171.25 -86.9,-279.59 -177.28,-412.26 -134.02,-196.91 -229.67,-413.38 -295.15,-641.94 -9.2,-32.23 -55.5,-48.99 -79.43,-21 -193.06,226.53 -432.72,584.56 -322.18,896.55 85.7,241.92 323.67,382.81 566.81,332.99 42.06,51.63 88.78,98.75 141.11,138.93 -374.55,59.95 -751.65,95.74 -1135.13,98.39 -13.29,-25.23 -26.88,-50.44 -40.94,-75.36 120.97,23.03 269.33,-159.24 289.11,-278.47 23.2,-140.36 -60.4,-288.28 -131.67,-401.67 -123.75,-197.23 -270.98,-382.22 -406.53,-571.74 -14.55,-20.31 -46.57,-24.61 -60.16,0 -76.56,138.48 -93.41,325.67 -131.54,478.63 -32.06,128.5 -67.42,263.36 -50.87,397.07 27.63,224.62 187.25,397.62 417.23,356.76 17.68,34.74 37.99,67.65 62.67,95.29 -118.68,-0.15 -237.98,-3.38 -358.11,-10.43 -199.78,-11.62 -398.44,-33.22 -596.03,-61.45 -19.03,-43.04 -38.06,-84.41 -55.28,-126.02 186.59,67.81 277.7,-24.16 282.09,-246.22 3.02,-149.65 -60.55,-274.17 -136.3,-399.04 -78.87,-129.87 -168.89,-317.66 -280.57,-420.27 -17.74,-16.24 -39.4,-13.89 -57.15,0 -81.61,63.95 -139.61,251.06 -177.75,345.06 -54.72,134.78 -84.78,281.79 -58.06,427.14 32.25,175.38 190.06,322.39 375.58,302.68 16.37,42.96 38.35,82.53 68.92,111.68 -327.44,-48.63 -651.23,-119.07 -970.15,-208.17 -0.9,-1.13 -0.54,-2.5 -1.67,-3.47 -52.67,-45.24 -98.45,-96.5 -136.66,-152.69 149.13,87.9 319.85,-173.28 344.31,-319.52 35.25,-211.03 -32.62,-415.35 -112.96,-607.52 -58.19,-139.46 -98.69,-335.38 -228.18,-423.95 -17.2,-11.79 -48.48,-8.3 -61.68,8 -204.08,249.93 -693.13,1296.63 -31.04,1328.59 30.46,50.49 66.52,96.72 107.3,135.76 -261.61,-77.26 -519.62,-167.18 -773.55,-267.45 -42.33,-80.5 -107.35,-147.98 -159.69,-225.16 212.85,-38.05 198.49,-332.06 134.92,-509.05 -67.57,-188.3 -172.98,-369.97 -263.51,-548.09 -34.48,-67.8 -64.55,-174.86 -155.32,-164.52 -101.69,11.54 -201.15,210.28 -236.1,286.61 -60.93,133.43 -85.46,280.89 -63.05,426 36.56,236.63 224.32,529.06 489.12,507.46 1.3,0.83 2.87,1.37 4.39,1.97 11.56,24.98 23.78,49.31 37.91,71.57 25.9,40.93 63.12,74.61 98.39,109.65 -12.84,-4.77 -24.46,-3.64 -34.74,0.98 -130.62,-11.79 -256.34,3.02 -364.23,75.43 -209.07,-146.33 -442.76,30.2 -524.16,246.6 -142.91,379.86 -30.35,816.35 158.42,1158.01zm16956.41 -216.23c-26.52,139.85 -91.3,264.35 -171.18,379.65 -233.89,-222.57 -760.4,-692.36 -316.14,-930.06 8.03,-4.24 11.32,-13.89 10.19,-22.58 16.93,19.18 33.24,38.59 47.19,58.37 82.17,116.67 106.61,279.61 162.41,410.38 4.69,10.87 21.83,4.83 21.68,-5.97 -2.33,-142.93 -49.53,-352.91 -141.65,-471.29 347.63,-145.35 427.59,370.65 387.5,581.52zm-1218.72 194.59c-39.28,155.15 -116.82,292.96 -216.17,415.65 -46.96,-111.96 -102.78,-216.47 -178.05,-315.16 -32.3,-42.35 -67.12,-82.21 -101.62,-122.62 -46.57,-48.09 -89.78,-99.2 -129.42,-153.26 -85.61,-190.96 -39.49,-310.56 135.07,-360.62 45.4,90.15 77.33,187.34 107.08,285.49 3.34,10.79 19.48,11.47 22.41,0 25.92,-100.44 10.96,-196.99 -30.58,-283.16 323.57,-59.26 462.71,250.84 391.29,533.68zm-1107.22 139.74c-44.3,184.69 -159.93,329.67 -308.29,442.46 -42.04,-112.43 -55.56,-234.13 -106.91,-344.82 -75.12,-161.89 -329.58,-641.19 77.78,-611.8 65.98,124.87 71.04,245 76.62,383.71 1.31,31.4 41.91,34.8 52.63,7.08 56.63,-146.54 21.21,-297.93 -59.5,-428.04 279.76,-36.17 319.09,336.99 267.67,551.4zm-1108.78 76.05c-85.38,149.73 -210.97,264.35 -351.24,361.22 -59.5,-120.43 -90.92,-281.79 -128.22,-403.34 -70.5,-229.85 -145.65,-602.77 208.25,-561.61 6.06,10.19 15.32,17.83 28.23,21.21 2.06,7.77 5.29,14.43 6.96,22.43 28.02,133.26 3.55,269.63 19.63,403.96 1.58,12.99 17.98,15.86 22.81,3.08 50.13,-133.1 63.87,-285.17 30.65,-425.47 299.6,27.03 286.99,361.37 162.94,578.52zm-1356.52 -933.62c180.98,45.16 264.8,148.21 251.42,309.04 -2.4,96.51 -26.05,187.49 -71.19,272.95 -91.2,184.92 -250.16,322.86 -409.55,449.57 -45.74,-126.92 -115.9,-233.7 -190.36,-350.49 -53.38,-83.58 -110.67,-168.61 -131.91,-267.81 -48.24,-224.5 156.07,-580.79 432.13,-431.74 11.56,141.8 -7.47,283.89 -46.3,435.2 -6.31,24.61 30.82,42.51 42.51,17.98 66.61,-140.44 83.13,-297.65 63.97,-451.07 5.05,-4.32 11.83,-8.99 59.26,16.37zm-1041.15 903.63c-60.23,-111.44 -129.94,-216.92 -215.1,-311.52 -95.35,-105.94 -171.03,-172.44 -206.9,-316.2 -32.51,-129.81 -102.67,-479.54 117.95,-529.3 17.23,24.98 35.1,49.31 50.43,76.19 113.2,198.26 151.32,404.39 207.05,621.54 11.39,44.02 76.92,33.75 77.99,-10.57 5.22,-205.83 -70.52,-477.03 -204.55,-698.19 602.69,-67.59 385.3,841.8 173.13,1168.04zm109.26 -1770.19c-443.75,14.87 -154.85,-563.65 -23.72,-724.32 110.16,-134.93 237.47,-258.91 357.67,-386.52 86.83,218.29 214.89,486.56 166.11,695.85 -48.84,209.69 -216.92,380.93 -420.33,439.59 101.34,-165.36 131.54,-379.2 108.58,-574.67 -1.65,-13.98 -22.8,-19.71 -26.65,-3.62 -48.46,202.88 -58.3,396.17 -147.92,558.36 -4.13,-2.27 -8.15,-4.84 -13.74,-4.69zm1015.01 337.42c-313.94,-43.04 -219.57,-374.42 -165.96,-562.94 30.73,-108.21 85.4,-175.63 126.17,-279.16 16.67,-42.44 18.94,-152.43 44.69,-184.9 100.59,-126.26 305.04,312.44 339.92,399.04 112.88,280.42 82.53,633.48 -281.11,665.42 112.9,-189.14 155.62,-423.35 99.59,-635.58 -3.15,-12.09 -23.99,-13.76 -26.11,0 -18.73,122.68 -4.45,248.55 -32.23,370.04 -19.18,83.96 -57.1,158.72 -96.12,233.16 -2.78,-1.82 -4.69,-4.45 -8.84,-5.07zm939.12 -202.43c51.28,-85.55 117.65,-161.87 167.86,-249.09 81.61,-141.8 141.71,-291.89 189.2,-447.37 111.68,133.49 228.02,300.76 258.97,465.94 61.7,329.28 -150.78,557.16 -452.5,583.96 26.76,-36.47 51.73,-74.29 75.21,-112.65 104.06,-170.04 219.42,-364.17 158.19,-569.08 -5.05,-16.93 -29.75,-13.44 -30.44,4.07 -9.5,259.9 -137.41,490.79 -307.9,682.26 -212.53,70.22 -102.61,-284.43 -58.6,-358.05zm956.35 166.96c17.08,-46.74 34.2,-93.55 51.26,-140.38 39.28,-85.4 93.87,-162.7 147.1,-239.71 91.43,-132.44 186.78,-262.38 281.26,-392.64 137.88,278.54 270.98,1134.25 -165.59,1072.93 12.78,-31.27 24.17,-62.07 35.28,-90.15 61.44,-154.19 67.42,-295.68 51.17,-460.44 -1.26,-13.44 -20.83,-13.95 -21.28,0 -4.9,150.72 -17.53,301.2 -71.96,442.7 -13.53,34.86 -29.69,68.31 -46.68,101.32 -206.26,13.2 -293.48,-84.33 -260.56,-293.63zm1213.83 197.2c-246.97,106.07 -200.78,-260.79 -138.11,-398.52 22.28,-49.08 249.41,-466.69 294.93,-464.87 112.9,4.45 209.9,421.17 209,514.78 -1.65,170.35 -87.28,275.52 -227.49,350.58 -32.47,17.35 -44.03,19.33 -54.3,24.16 8,-28.85 14.43,-57.02 20.1,-82.17 24.91,-112.04 55.65,-258.22 8.96,-365.82 -4.52,-10.34 -20.37,-6.48 -23.03,3.02 -29.34,103.37 -8.91,220.79 -27.63,328.38 -5.72,33.22 -14.13,64.02 -23.72,93.77 -10.76,-6.72 -24.31,-9.5 -38.72,-3.32zm1132.26 -275.45c-184.6,-12.07 -278.75,-85.98 -282.6,-221.74 -10.49,-44.94 -13.74,-90.39 -9.89,-136.29 4.52,-100.96 38.5,-194.72 73.91,-287.59 32.41,-84.88 111.98,-371.94 210.13,-392.7 85.78,-18.13 91.07,46.06 133.19,113.09 58.75,93.46 102.84,167.86 140,276.2 66.52,194.64 130.47,619.06 -168.76,677.87 84.2,-179.4 100.19,-396.77 7.92,-562.13 -9.26,-16.61 -33.43,-8.31 -34.26,9.29 -7.69,150.25 35.93,282.39 -5.29,433.71 -8.75,32.3 -20.4,63.12 -33.69,93.02 -8.81,-6.06 -20.14,-8.93 -30.65,-2.74zm901.98 -953.31c34.29,-65.32 195.71,-424.48 259.96,-429.85 57.85,-4.84 175.33,270.68 183.1,294.25 34.44,104.43 45.22,217.54 25.36,326.18 -39.02,213.83 -174.48,353.6 -367.17,438.91 15.62,-39.19 30.2,-78.83 45.52,-115.36 67.37,-160.61 175.63,-336.39 120.43,-513.82 -5.89,-19.11 -33.15,-15.03 -34.2,4.6 -11.02,204.4 -117.95,406.89 -196.16,593.48 -4.52,11 -10.28,21.28 -15.71,31.85 -311,-11.92 -84.86,-508.81 -21.15,-630.23z"/>
 </g>
</svg>
