<?xml version="1.0" encoding="UTF-8"?>
<!DOCTYPE svg PUBLIC "-//W3C//DTD SVG 1.1//EN" "http://www.w3.org/Graphics/SVG/1.1/DTD/svg11.dtd">
<!-- Creator: CorelDRAW 2021 (64-Bit) -->
<svg xmlns="http://www.w3.org/2000/svg" xml:space="preserve" width="22in" height="22in" version="1.1" style="shape-rendering:geometricPrecision; text-rendering:geometricPrecision; image-rendering:optimizeQuality; fill-rule:evenodd; clip-rule:evenodd"
viewBox="0 0 22000 22000"
 xmlns:xlink="http://www.w3.org/1999/xlink"
 xmlns:xodm="http://www.corel.com/coreldraw/odm/2003">
 <defs>
  <style type="text/css">
   <![CDATA[
    .fil0 {fill:none}
    .fil1 {fill:#2B2A29}
   ]]>
  </style>
 </defs>
 <g id="Layer_x0020_1">
  <metadata id="CorelCorpID_0Corel-Layer"/>
  <rect class="fil0" width="22000" height="22000"/>
  <path class="fil1" d="M20304.72 11159.61c69.05,44.71 146.85,74.7 239.96,79.2 42.2,2.04 80.21,-3.39 113.8,-14.85 58.58,-19.98 104.32,-58.85 136.22,-108.41 32.89,-51.1 51.41,-113.54 54.56,-178.8 2.52,-52.14 -4.76,-106.06 -22.3,-157.46 -5.36,-15.74 -11.92,-30.78 -19.5,-45.08l0 -0.17c-36.74,-69.22 -96.74,-114.85 -165.83,-136.94 -70.74,-22.63 -151.19,-20.99 -226.69,4.76 -19.33,6.58 -38.39,14.81 -56.84,24.59 -70.39,37.3 -121.56,88.5 -159.11,148.56 -27.3,43.63 -47.68,92.22 -63.17,143.81l113.22 -23.38 180.8 -37.73c23.35,-4.86 42.11,4.82 53.46,20.06l0.17 0.34c4.06,5.52 7.11,11.98 8.83,18.74 1.85,6.95 2.19,14.48 0.94,21.91 -3.17,18.81 -15.14,35.55 -38.15,41.79l-0.16 0c-53.87,14.6 -115.55,30.83 -183.33,48.3l-112.14 28.6c45.57,46.22 93.16,88.46 145.24,122.19zm-19112.18 -425.41c-7.6,14.3 -14.15,29.35 -19.51,45.08 -17.55,51.42 -24.83,105.35 -22.31,157.5 3.15,65.26 21.65,127.68 54.54,178.77 31.9,49.55 77.66,88.41 136.22,108.39 33.59,11.46 71.63,16.9 113.87,14.87 93.09,-4.48 170.89,-34.47 239.93,-79.2 52.07,-33.72 99.65,-75.97 145.19,-122.19l-112.1 -28.6c-67.73,-17.46 -129.46,-33.69 -183.35,-48.3 -23.07,-6.25 -35.11,-22.99 -38.26,-41.78 -1.21,-7.27 -0.83,-14.73 0.87,-21.6 1.7,-6.88 4.77,-13.45 8.91,-19.05l0.17 -0.17c11.32,-15.34 30.06,-25.1 53.46,-20.24l180.62 37.69 113.36 23.42c-15.52,-51.65 -35.88,-100.24 -63.14,-143.82 -37.57,-60.04 -88.74,-111.26 -159.14,-148.54 -18.44,-9.78 -37.5,-18.01 -56.85,-24.59 -75.44,-25.71 -155.81,-27.37 -226.5,-4.81 -69.19,22.19 -129.26,67.81 -165.97,136.99l0 0.17zm1213.57 570.72l4.17 -3.39c-35.28,-3.88 -71.66,-3.25 -107.82,1.24 -73.81,9.15 -145.9,34.35 -205.48,70.04 -16.8,10.06 -32.06,20.87 -45.74,32.26 -63.9,53.18 -98.42,122.33 -106.38,195.73 -8.13,74.95 11.05,154.76 54.57,227.41 11.88,19.85 25.48,39.02 40.66,57.28 72.39,86.99 149.06,113.86 219.9,100.88 44.83,-8.22 88.63,-32.01 128.58,-66.47 41.67,-35.94 78.98,-83.39 109.07,-137.15 72.42,-129.35 102.07,-292.68 49.83,-417.85 -117.85,86.74 -217.51,200.1 -319.96,316.68l-4.05 4.78c-9.68,10.83 -21.66,16.24 -34.01,17.43 -10.84,1.06 -21.12,-1.37 -29.87,-6.18l-0.17 -0.17c-7.66,-4.27 -14.23,-10.39 -19,-17.57 -7.33,-11.02 -10.89,-25.06 -8.13,-39.6 27.02,-141.93 163.83,-249.14 266.63,-329.69l7.2 -5.64zm1153.76 344.92c19.04,-41.89 42.68,-82.43 66.28,-119.14 -74.92,-26.14 -158.17,-30.53 -234.7,-12.18 -84.04,20.17 -159.74,68.13 -206.15,145.18 -45.61,75.67 -56.11,160.95 -37.9,240.06 18.94,82.31 68.88,158.15 142.62,210.05 77.46,54.48 169.8,74.65 258.24,63.36 89.07,-11.36 174.26,-54.6 236.44,-126.7 23.58,-27.36 43.65,-61.16 59.03,-98.39 26.16,-63.29 38.53,-135.7 31.59,-203.07 -6.61,-64.2 -31.01,-123.42 -78.22,-164.1 -8.16,-7.02 -17.05,-13.55 -26.67,-19.48 -7.88,13.58 -15.28,26.76 -22.1,38.94l-8.56 15.2 -0.17 0c-15.68,27.76 -28.81,60.44 -41.91,93.14 -22.14,55.24 -44.35,110.56 -83.98,157.4l-0.16 0.17c-9.36,10.89 -20.98,16.58 -33.33,18.02 -8.1,0.99 -16.11,-0.15 -23.56,-2.81l-0.17 0c-6.09,-2.2 -11.83,-5.57 -16.75,-9.74 -10.27,-8.69 -17.78,-21.8 -19.43,-35.88l0 -0.17c-7,-61.49 11.07,-127.23 39.55,-189.85zm1052.91 88.24c0.27,-32.75 3.37,-66.31 9.09,-99.73l-4.11 1.24c-98.76,29.74 -199.24,60.01 -264.67,130.14 -20.22,21.65 -33.64,47.7 -41.21,76.31 -15.57,58.77 -7.37,128.45 16.68,195.09 24.69,68.19 65.6,132.27 114.66,178.09 31.78,29.7 66.57,51.35 101.74,60.66 24.39,6.45 50.24,9.61 76.61,9.68 75.7,0.23 156.64,-23.68 223.48,-65.66 64.88,-40.75 115.74,-98.18 133.74,-166.17 4.61,-17.45 7.13,-35.47 7.19,-53.84l-0.11 -7.76c-1.75,-64.97 -26.93,-162.74 -71.82,-244.89 -35.93,-65.76 -83.82,-120.11 -140.07,-133.32 -17.08,65.55 -18.2,130.74 -19.35,198.2 -0.35,21.29 -0.74,42.8 -1.48,63.18 -0.74,19.5 -9.55,34.54 -22.2,44.54 -8.35,6.59 -18.13,10.72 -28.17,12.17 -9.57,1.4 -19.63,0.38 -29.07,-3.05 -15.56,-5.68 -29.22,-17.63 -36,-36.05 -17.39,-47.37 -25.38,-101.93 -24.91,-158.85zm1167.64 -111.23c3.23,-31.3 8.37,-62.75 15.5,-93.77 -48.31,21.73 -96.72,49.7 -138.28,82.08 -51.05,39.78 -91,85.45 -105.33,132.56 -6.87,22.64 -10.17,46.73 -10.25,71.37 -0.26,70.29 24.84,145.07 66.46,207.44 40.99,61.44 97.43,110.06 160.49,129.21 18.5,5.62 37.6,8.71 56.93,8.78 34.29,0.11 77.72,-6.44 119.86,-17.94 38.56,-10.52 75.48,-25.12 102.34,-42.36 34.46,-22.1 54.86,-49.16 67.17,-80.19 13.38,-33.72 18.38,-74.19 21.28,-118.81 6.09,-93.26 -11.72,-176.59 -51.19,-246.95 -33.07,-58.97 -81.52,-109.35 -143.99,-149.35 -16.22,40 -29.43,82.38 -38.94,125.28 -12.44,56.13 -18.76,113.41 -17.56,167.75 0.52,21.92 -11.56,37.75 -27.48,45.99 -5.84,3.02 -12.31,4.91 -18.77,5.57 -6.95,0.71 -14.07,0.07 -20.65,-2l-0.17 -0.17c-17.2,-5.47 -30.86,-18.46 -34.06,-40.03 -8.59,-57.34 -9.95,-120.52 -3.34,-184.46zm1460.24 -245.48c-1.37,-27.53 -1.32,-55.48 0.24,-83.41 -49.47,25.37 -98.9,55.1 -142.58,89.98 -60.77,48.51 -109.97,106.84 -130.71,176.72 -1.87,6.31 -3.5,12.51 -4.85,18.46 -19.07,84.22 2.36,168.66 48.7,238.26 47.26,70.73 119.68,125.89 201.53,150.2 7.24,2.14 14.44,4.05 21.46,5.63 33.08,7.49 64.48,9.94 93.87,8.02 66.42,-4.34 122.91,-31.59 166.39,-73.76 44.6,-43.27 76.03,-102.32 91.09,-168.89 8.63,-38.17 11.87,-78.91 9.14,-120.62 -5.57,-85.02 -34.46,-152.58 -80.03,-206.53 -34.43,-40.79 -78.6,-74.4 -129.64,-102.34 -0.26,18.14 -0.26,36.21 -0.26,54.31 -0.02,54.69 -0.05,109.63 -5.86,163.61 -2.04,19.11 -12.64,34.09 -26.46,43.17 -7.93,5.21 -17,8.52 -26.04,9.53 -9.89,1.11 -20.21,-0.37 -29.87,-4.8l-0.17 0c-14.22,-6.56 -25.76,-18.65 -30.84,-37.06l0 -0.17c-13.62,-49.62 -22.33,-104.27 -25.12,-160.31zm1259.7 -186.99c7.75,-29.88 17.72,-59.54 27.23,-85.33 -51.85,5.68 -99.98,19.76 -143.43,42.96 -57.74,30.82 -108.07,78.33 -148.92,144.11 -42.23,67.96 -40.6,158.86 -12.87,246.82 32.77,103.96 101.06,201.93 177.47,255.27 98.06,68.49 190.15,59.66 262.66,7.86 45.28,-32.33 83.97,-81.06 112.95,-138.54 29.51,-58.55 48.71,-125.91 54.43,-194.28 11.8,-141.13 -34.86,-285.87 -168.61,-362.26 -6.5,21.73 -21.76,77.48 -34.44,126.85 -6.61,25.74 -50.67,36.14 -55.22,43.85l-0.12 2.2c0.51,0.96 1.83,1.89 4.11,2.81 15.27,4.75 26.78,16.19 32.6,29.52 2.24,5.1 3.72,10.78 4.26,16.57 0.6,6.45 0.04,13.08 -1.89,19.58 -3.99,13.64 -13.11,25.41 -28.16,32.06l-5.71 2.46c-12.33,5.48 -24.87,6.59 -37.15,3.44l-0.17 0c-12.33,-3.18 -22.85,-10.28 -31.01,-21.2 -30.73,-41.06 -25.07,-108.91 -7.99,-174.74zm28.01 137.15c-0.28,3.39 -0.82,7.76 -1.2,9.33l2.52 -0.24c-0.56,-2.85 -1,-5.89 -1.32,-9.08zm-1.2 9.33l-0.06 0.22c0.56,1.6 1.63,5.76 2.13,8.15 0.35,-0.15 1.06,0.06 2,0.54l0.8 -0.34c-0.93,-2.7 -1.71,-5.65 -2.34,-8.81l-2.52 0.24zm4.06 8.91l1.15 0.65 -0.35 -0.99 -0.8 0.34zm174.3 -1002.47c3.81,55.37 7.59,110.06 13.95,163.89 62.67,-45.48 117.63,-101.25 159.79,-164.91 49.31,-74.48 81.13,-159.89 87.1,-252.29 2.33,-36.31 -1.82,-71.44 -11.35,-104.74 -22.77,-79.56 -76.36,-148.86 -145.55,-199.8 -70.17,-51.67 -155.87,-84.32 -241.68,-89.84 -42.35,-2.73 -84.78,1.21 -125.28,12.8 -24.01,6.87 -45.93,15.98 -65.78,26.96 -75.54,41.78 -123.26,112.27 -146.37,193.04 -23.86,83.43 -21.73,177.62 2.86,263.45 9.78,34.18 23.11,66.92 39.73,96.96l-0.13 0.07c73.18,132.2 176.74,183.43 296.34,232.18 -4.88,-53.94 -5.2,-108.85 -2.89,-162.47 3.35,-77.37 12.25,-152.31 20.72,-217.61 2.35,-18.44 12.75,-31.39 26.04,-38.59 7.57,-4.14 15.87,-6.26 23.97,-6.26 7.98,0 16.04,1.96 23.5,5.9 13.46,7.13 24.15,20.14 26.63,38.62l0 0.17c9.3,70.11 13.9,136.81 18.41,202.47zm-1351.3 250.95c0.37,14.34 1.15,28.48 2.37,42.39 63.01,-23.1 123.73,-58.1 173.72,-103.34 54.1,-48.94 95.62,-109.96 113.45,-180.72 11.06,-43.92 10.38,-87.54 0.55,-128.96 -15.44,-65 -53.35,-124.95 -104.05,-172.97 -51.22,-48.53 -115.22,-84.68 -182.19,-101.54 -49.09,-12.37 -99.67,-14.26 -147.63,-2.86 -47.44,11.28 -103.65,31.29 -151.78,59.46 -36.42,21.32 -68.03,47.04 -86.71,76.57 -28.49,45 -44.26,113.41 -45.58,182.44 -1.28,66.69 10.87,132.32 37.95,175.89 50.81,81.74 146.88,129.38 239.5,175.28l22.6 11.24c-2.09,-32.17 -3.22,-63.96 -4.33,-95.72l0 -0.17c-1.14,-32.59 -2.3,-65.2 -4.75,-100.55 -2.37,-34.51 -2.97,-63.18 2.43,-92.03 5.67,-30.31 17.57,-58.53 40.06,-89.69 10.62,-14.72 26.49,-21.54 41.94,-21.78 7.89,-0.12 15.87,1.55 22.93,4.78 7.92,3.63 15.07,9.3 20.47,16.89 8.76,12.24 12.28,27.74 6.77,45.08l0 0.17c-18.66,58.26 -11.46,133.71 -4.64,205.4 3.08,32.34 6.12,64.01 6.91,94.76zm-1323.23 221.71c-1.55,15.25 -2.86,29.82 -3.89,43.81 16.06,-13.03 32.41,-25.76 48.78,-38.48 88.48,-68.83 177.26,-137.9 188.72,-240.39 3.66,-32.91 7.44,-72.1 7.39,-109.35 -0.05,-35.34 -3.43,-70.01 -13.46,-97.24 -18.06,-48.98 -55.58,-85.91 -101.44,-111.91 -58.1,-32.92 -128.98,-48.5 -192.51,-49.22l-0.16 0c-55.73,-0.69 -95.69,10.05 -130.53,29.63 -36.72,20.64 -70.3,52.3 -110.33,91.03 -24.74,23.97 -50.96,51.63 -72.2,81.37 -19.82,27.78 -35.43,57.46 -41.07,87.5 -7.41,39.32 5.51,87.48 27.7,134.83 31.55,67.3 81.04,130.98 120.51,169.06 26.85,25.91 56.78,48 88.17,68.06 13.11,8.38 26.59,16.49 40.32,24.44 3.13,-54.09 9.03,-108.68 17,-162.7 12.28,-83.29 29.5,-166.15 49.14,-244.37l0 -0.17c4.41,-17.29 15.98,-28.24 30.08,-33.42 7.59,-2.68 15.43,-3.52 22.67,-2.63 7.03,0.87 13.98,3.38 20.2,7.3l0.34 0.17c12.52,8.02 21.74,21.5 22.19,39.63l0 0.17c1.19,53.85 -0.55,106.02 -3.9,157.59 -3.32,51.02 -8.35,102.78 -13.72,155.31zm-1262.67 54.21c7.11,45.09 14.24,90.22 26.52,132.28 56.99,-46.72 111.37,-98.4 150.16,-156.7 46.5,-69.89 70.64,-150.7 48.56,-246.37 -18.07,-78.4 -68.24,-139.54 -133.09,-181.8 -75.92,-49.49 -171.43,-73.41 -260.35,-69.72 -44.48,1.86 -84.15,9.47 -118.73,21.98 -57.21,20.68 -100.48,54.99 -128.61,98.87 -28.38,44.26 -41.9,98.97 -39.35,159.96 1.69,40.61 10.55,84.09 26.89,129.28 30.2,83.54 79.98,145.36 142.26,189.06 53.33,37.42 116.17,61.98 184.14,75.82 -15.7,-47.63 -28.94,-97.69 -40.27,-148.13 -16.44,-73.22 -28.81,-146.26 -38.87,-213.56 -2.75,-18.49 3.23,-35.22 13.72,-47.44 6.25,-7.28 14.2,-12.96 22.92,-16.44 9.67,-3.88 20.26,-5.22 30.8,-3.37 15.08,2.68 29.2,11.17 39,27.2 47.15,77.14 60.74,163.14 74.31,249.07zm-1043.11 148.74l17.83 26.63c38.12,-50.94 66.81,-102.79 86.39,-157.8 25.23,-70.87 35.73,-147.77 32.28,-235.51 -2.52,-64.32 -10.84,-122.43 -33.28,-171.07 -21.3,-46.15 -56.4,-85.05 -113.4,-114.53 -41.42,-21.39 -95.41,-33.71 -150.98,-37.53 -59.46,-4.07 -119.61,1.61 -167.52,16.31 -43.72,13.4 -78.25,33.94 -104.49,59.41 -36.8,35.73 -58.13,82.06 -66.35,132.55 -8.56,52.68 -3.08,109.94 13.79,165.05 19.44,63.5 53.99,123.79 99.65,170.8 44.57,45.91 97.31,83.31 154.26,113.73 22.37,11.96 45.44,22.86 68.96,32.82 -26.26,-45.85 -50.11,-92.98 -70.73,-140.44 -34.87,-80.2 -60.59,-161.53 -73.32,-239.48 -2.2,-13.46 1.54,-25.48 8.81,-34.9 4.92,-6.39 11.21,-11 18.19,-13.95 7.31,-3.09 15.14,-4.31 23.44,-3.17l1.35 0.17c11.14,1.85 21.89,7.53 29.74,18.81 46.89,66.12 80.82,137.36 114.74,208.59 20.74,43.56 41.51,87.15 64.41,127.78 14.55,25.82 30.06,51.02 46.25,75.72zm-1102.5 -124.19l17 32.35c62.7,-43.15 99.46,-126.44 115.17,-217.47 18.26,-105.78 7.95,-219.86 -23.07,-296.8 -2.63,-6.54 -5.48,-12.88 -8.49,-18.96 -35.44,-71.39 -94.63,-112.65 -162.58,-130.85 -84.01,-22.49 -181.54,-10.84 -266.59,22.46 -29.1,11.38 -54.8,26.66 -76.81,44.88 -44.13,36.49 -73.65,85 -86.88,137.75 -13.3,53.02 -10.24,110.41 10.84,164.39 10.88,27.84 26.64,54.89 47.45,80.07 68.5,82.78 168.12,130.33 271.27,169.41l-12.9 -25.98c-44.63,-89.37 -98.13,-196.5 -86.81,-298.35 1.5,-13.42 8.28,-25.57 17.69,-33.76l0.17 0c4.7,-4.07 10.18,-7.42 16.08,-9.59 6.82,-2.52 14.41,-3.6 22.31,-2.76 11.93,1.22 23.35,6.45 32.41,16.76 49.93,56.73 75.92,129.44 101.3,200.44 12.07,33.79 24.01,67.19 37.37,95.47 11.24,23.83 23.02,47.31 35.07,70.55zm-885.76 395.48c-118.74,61.33 -258.03,89.12 -377.06,70.2 -14.35,-2.28 -28.23,-5.2 -41.59,-8.7 -120.4,-31.55 -203,-110.25 -250.8,-209.76 -46.44,-96.62 -59.41,-212.91 -41.85,-323.46 3.12,-19.59 7.19,-39.02 12.17,-58.07 43.31,-165.27 147.33,-258.88 272.24,-295.58 71.81,-21.08 150.15,-22.89 227.22,-8.36 76.09,14.33 151.35,44.69 218.1,88.09 134.04,87.17 234.37,227.22 240.64,397.17 101.17,20.5 204.94,41.08 312.87,61.74 80.69,15.44 161.72,30.51 243.15,45.07l-9.46 -15.1c-125.55,-24.33 -262.17,-77.11 -368.67,-160.39 -93.91,-73.44 -164.67,-170.37 -185.55,-292.34 0,-1 -0.86,-6.53 -1.2,-7.2 -17.74,-116.06 18.28,-219.1 85.78,-297.76 66.23,-77.19 162.92,-130.36 268.27,-148.4 1.22,0 7.31,-1 8.52,-1.42 132.8,-20.28 254.67,-8.97 350.52,47.05 87.19,50.95 151.2,137.35 180.42,268.34 25,112.17 24.02,261.45 -18.38,387.44 -30.32,90.12 -81.63,169.14 -159.41,217.01l3.24 6.2 0.16 0 13.19 25.65c174.34,29.39 348.14,55.74 521.02,77.69 147,18.67 294.9,34.4 443.85,46.43l-6.94 -9.06c-122.61,-28.01 -253.22,-79.14 -359.43,-157.92 -92.73,-68.8 -167,-158.59 -202.09,-272.43 -3.2,-10.38 -6.17,-21.07 -8.85,-32.04 -26.76,-108.9 -18.72,-217.6 24.01,-308.11 43.49,-92.14 122.21,-164.95 235.97,-200.04 8.25,-2.54 17.02,-4.98 26.24,-7.23 6.78,-1.7 13.2,-3.18 19.26,-4.45l0.16 0c110.59,-23.29 233.87,-16.3 337.14,26.14 107.13,44.02 193.07,125.48 223.63,249.88l2.85 12.57c25.43,120.72 30.06,273.96 -6.6,409.16 -26.06,96.1 -72.87,183.64 -147.57,245.89l16.29 20.58 32.52 40.28 74.95 4.17c32.41,1.67 63.75,3.12 93.44,4.21 134.26,4.99 267.69,6.08 400.41,3.78 104.3,-1.82 209.13,-5.81 314.43,-11.71l-7.56 -12.77c-6.07,-10.48 -11.94,-21.17 -17.58,-31.96 -119.89,1.81 -235.38,-38.35 -329.8,-107.46 -102.56,-75.05 -180.51,-184.51 -212.41,-311.56 -5.33,-21.23 -9.54,-41.93 -12.6,-62 -17.67,-115.46 -0.07,-218 50.65,-299.57 51.1,-82.2 134.83,-141.69 248.89,-170.36 17.8,-4.47 36.15,-8.17 54.98,-11.05 125.13,-19.1 262.78,3.52 376,65.27 103.73,56.58 187.33,145.86 223.33,265.97 1.58,5.32 3.08,10.7 4.44,16.09 28.01,111.02 7.02,239.41 -48.9,348.02 -52.2,101.39 -135.3,186.52 -238.07,225.73l8.19 16.59c7.31,14.45 15.42,29.39 24.33,44.64l-0.12 0.07c2.53,4.28 6.99,9.63 12.33,15.49 174.43,-12.43 349.04,-29.91 523.87,-51.27 163.85,-20.03 325.65,-43.16 486.04,-68.54l-3.49 -11.89c-3.8,-14.13 -6.53,-28.81 -8.42,-43.65 -111.55,-40.65 -219.07,-114.17 -297.6,-208.21 -77.52,-92.87 -127.35,-206.13 -126.32,-328.55 1.02,-118.41 51.07,-167.23 114.43,-229.01 15.33,-14.95 31.63,-30.85 48.59,-49.71 35.18,-39.13 69.69,-70.98 110,-95.48 40.96,-24.9 86.55,-41.19 142.8,-48.37 125,-16.01 261.24,9.65 367.36,75.85 95.83,59.79 167.68,152.07 186.8,276.16 20.3,131.81 -17.88,250.34 -88.76,350.78 -76.37,108.2 -191.04,194.88 -310.17,253.66 1.25,5.83 2.62,11.61 4.1,17.35l0 0.17c1.45,5.67 3.08,11.45 4.88,17.36 75.52,-12.61 154.55,-26.31 236.49,-40.89 95.93,-17.07 186.28,-33.69 272.53,-49.94 128.26,-24.15 257.91,-48.46 396.91,-73.38 111.1,-19.94 222.43,-39.16 333.94,-57.09l-4.26 -7.91c-8.54,-16.22 -16.15,-32.95 -22.75,-50.17l-1.68 -1.03c-3.26,-2.04 -6.3,-4.33 -9.12,-6.83 -113.93,-24.86 -229,-88.03 -314.4,-175.02 -82.07,-83.59 -137.59,-189.63 -140.43,-306l-0.04 -1.69c-3.06,-140.86 41.5,-265.76 124.31,-356.74 83.15,-91.33 204.13,-147.87 353.48,-151.49l1.67 -0.04c129.8,-2.84 255.43,50.94 351.16,136.8 96.7,86.72 163.56,206.58 174.08,334.32 10.52,127.63 -36.33,240.68 -114.4,330.33 -76.33,87.65 -183.09,152.84 -294.64,186.83 2.26,5.79 4.65,11.56 7.18,17.3 4.69,10.62 9.87,21.13 15.56,31.54 207.04,-31.26 414.99,-57.19 623.89,-74.01 193.6,-15.6 388.23,-23.32 584,-20.18 -4.55,-10.44 -8.75,-21.04 -12.63,-31.79 -188.79,-2.2 -341.16,-124.63 -433.33,-288.68 -43.21,-76.91 -73.24,-163.44 -87.42,-250.93 -14.26,-87.96 -12.47,-177.04 7.98,-258.6 39.72,-158.43 148.06,-288.41 343.09,-330.22 7.15,-1.53 14.88,-2.98 23.11,-4.31l0.17 0c129.43,-20.89 273.75,11.98 392.44,82.94 120.01,71.76 214.89,182.85 243.81,317.57 1.27,5.94 2.56,12.86 3.82,20.67 21.99,136.07 -9.72,268.5 -75.13,383.25 -65.83,115.41 -166.04,213.1 -279.86,278.37 3.74,15.06 7.94,30.26 12.67,45.62 4.2,13.67 8.79,27.29 13.78,40.82 13.59,0.46 26.99,0.96 38.08,1.54 323.03,17.45 675.41,62.63 1002.33,168.52 329.81,106.84 633.74,275.5 856.31,539.66 30.61,36.37 31.33,78.71 15.49,112.71 -6.06,13.01 -14.76,24.83 -25.23,34.55 -10.78,10 -23.53,17.8 -37.37,22.52 -32.94,11.19 -70.52,5.7 -101.96,-27.45 -220.59,-232.6 -507.09,-384.06 -818.38,-480.06 -307.26,-94.76 -638.69,-135.65 -955.17,-147.23 -7.44,9 -14.49,18.17 -21.09,27.51l-2.58 3.84c170.28,76.35 248.76,247.87 254.32,427.78 2.24,72.61 -7.52,146.63 -27.95,215.99 -20.64,70.09 -52.2,135.7 -93.29,190.7 -97.91,131.01 -248.22,203.54 -434.79,141.4 -109.19,-36.42 -210.4,-149.51 -275.49,-279.39 -65.88,-131.48 -96.06,-282.85 -61.19,-391.61 5.91,-18.45 13.65,-37.3 22.91,-56.18 41.68,-84.85 115.23,-168.95 201.07,-224.36 42.56,-27.48 88.35,-48.14 135.23,-58.86l-12.14 0.2c-168.61,2.98 -336.7,13.72 -504.32,30 -159.67,15.52 -320.75,36.45 -482.65,60.76 -10.28,16.75 -18.76,34.11 -25.73,51.96 -7.76,19.82 -13.59,40.04 -17.95,60.52 165.42,43.63 271.59,173.2 317.11,324.17 21.51,71.33 29.38,147.54 23.43,221.49 -5.98,74.53 -26.05,147.17 -60.29,210.73 -70.26,130.41 -198.65,222.16 -386.34,215.92 -124.71,-4.13 -242.99,-57.63 -331.43,-141.51 -87.16,-82.66 -145.78,-195.14 -153.58,-319.27 -9.52,-151.33 55.61,-271.26 153.67,-365.66 89.2,-85.88 205.69,-149.89 316.2,-196.81 4.66,-13.19 9.72,-25.99 15.16,-38.32 -234.8,38.09 -471.18,82.44 -707.39,126.72 -167.28,31.37 -334.46,62.72 -496.83,91.15l-21.13 25.42c-18.82,22.48 -37.58,44.9 -54.95,67.99 99.57,59.21 173.03,144.28 218.48,243.43 53.61,116.92 67.93,253.2 39.88,389.25 -21.06,102.12 -90.07,178.19 -178.07,227.69 -99.04,55.74 -223.35,77.75 -328.24,64.76 -111.89,-13.9 -206.26,-88.9 -271.38,-186.83 -70.78,-106.46 -107.54,-241.75 -93.93,-353.94 12.35,-101.92 78.22,-197.82 166.15,-271.68 87.21,-73.26 197.64,-125.77 298.83,-140.8 6.18,-10.77 12.7,-21.29 19.56,-31.53 -154.05,24.03 -307.96,44.57 -461.96,61.15 -185.01,19.92 -370.42,34.14 -556.65,41.87l-4.9 8.25c-10.39,17.46 -20.74,34.89 -30.56,52.33 73.61,24.2 135.28,81.3 183.16,151.93 71.01,104.74 112.51,241.71 115.86,340.21 4.59,135.07 -48.72,242.29 -134.84,319.49 -94.67,84.89 -229.07,132.22 -368.2,139.16 -124.66,6.18 -232.01,-50.59 -313.8,-137.58 -92.44,-98.3 -152.25,-236.3 -166.33,-363.61 -14.38,-129.9 44.44,-231.14 136.17,-307.27 109.37,-90.75 266.89,-144.53 396.79,-167.37 5.09,-10.35 10.44,-20.48 16.03,-30.33 -118.75,2.33 -237.71,1.89 -357,-1.49 -143.57,-4.07 -287.72,-12.46 -432.55,-25.39 -13.59,7.48 -26.93,17.9 -39.85,30.27l-0.16 0c-5.81,5.56 -11.57,11.61 -17.28,18.05 86.4,55.59 137.91,144.39 158.82,242.9 22.32,105.17 9.34,222.04 -33.55,320.04 -4.72,10.8 -9.4,20.63 -13.95,29.38 -63.25,121.66 -172.69,208.46 -297.06,249.59 -124,41.01 -263.17,36.72 -386.55,-23.51 -117.98,-57.58 -206.78,-158.46 -251.45,-275.22 -43.63,-114 -45.34,-243.33 8.54,-362.75 6.24,-13.85 13.47,-27.73 21.55,-41.54 63.96,-109.24 170.37,-183.18 288.97,-216.84 39.48,-11.2 80.36,-17.94 121.55,-20.03 -59.62,-7.95 -119.03,-16.35 -178.23,-25.15 -169.31,-25.16 -339.02,-53.98 -508.96,-85.91 -26.05,8.56 -50.82,18.15 -74.4,28.69 -14.4,6.44 -28.48,13.25 -42.23,20.42 48.47,95.83 62.47,208.7 49.02,319.21 -16.09,132.18 -71.76,262.15 -154.69,355.85 -12.86,14.55 -26.59,28.16 -40.98,40.75 -74.32,65 -168.71,105.03 -263.53,112.03 -96.5,7.11 -193.71,-19.75 -271.74,-88.78 -11.72,-10.38 -22.97,-21.67 -33.59,-33.81 -84.13,-96.18 -139.74,-228.18 -145.32,-357.3 -5.06,-117.07 30.35,-232.17 121.56,-318.13 87.63,-82.59 206.25,-140.65 329.7,-162.61 24.29,-4.32 48.81,-7.24 73.35,-8.7l-7.69 -1.7c-115.91,-25.75 -229.94,-52.43 -342.31,-79.88 -48.9,94.06 -136.28,171.23 -237.54,223.54zm1992.85 93.85l-79.48 -9.04c18.28,5.78 36.26,12.61 53.82,20.53l11.24 5.26c4.72,-5.74 9.52,-11.33 14.42,-16.75zm4870.37 -430.15l-22.47 -0.22c6.41,1.54 12.81,3.33 19.17,5.36l3.3 -5.14zm11348.6 447.21c-13.69,-11.39 -28.96,-22.22 -45.76,-32.28 -59.59,-35.69 -131.69,-60.89 -205.51,-70.04 -36.15,-4.49 -72.52,-5.11 -107.77,-1.24l11.87 9.3c102.59,80.58 238.98,187.57 266.03,329.26 2.79,14.41 -0.76,28.5 -8.06,39.57l-0.16 0.35c-4.82,7.2 -11.4,13.37 -19.02,17.56 -8.82,4.76 -19.06,7.16 -29.7,6.2 -12.42,-1.15 -24.39,-6.51 -34.02,-17.43l-4.06 -4.6c-102.47,-116.61 -202.15,-230.04 -320.08,-316.82 -52.25,125.18 -22.6,288.54 49.84,417.89 30.1,53.76 67.4,101.19 109.04,137.1 39.94,34.46 83.72,58.24 128.54,66.46 70.84,13 147.5,-13.89 219.87,-100.88 15.21,-18.27 28.82,-37.47 40.7,-57.32 43.51,-72.64 62.69,-152.44 54.57,-227.37 -7.94,-73.37 -42.45,-142.53 -106.33,-195.7zm-1096.19 498.66c18.21,-79.11 7.72,-164.38 -37.88,-240.05 -46.44,-77.03 -122.14,-125.01 -206.2,-145.18 -76.5,-18.35 -159.75,-13.96 -234.68,12.18 23.59,36.72 47.24,77.25 66.29,119.14 28.46,62.64 46.54,128.35 39.54,189.85l0 0.17c-1.64,14.04 -9.09,27.09 -19.22,35.73 -4.91,4.19 -10.68,7.59 -16.96,9.85 -7.45,2.76 -15.54,3.85 -23.69,2.9 -12.29,-1.48 -23.96,-7.07 -33.35,-18.06l-0.16 -0.17c-39.64,-46.84 -61.82,-102.15 -83.96,-157.37 -13.12,-32.7 -26.25,-65.42 -41.94,-93.17l-0.17 0 -8.17 -14.54c-7.05,-12.57 -14.7,-26.2 -22.46,-39.63 -9.65,5.94 -18.55,12.48 -26.74,19.53 -47.2,40.68 -71.58,99.89 -78.19,164.07 -6.93,67.35 5.44,139.77 31.59,203.04 15.38,37.24 35.49,71.06 59.08,98.43 62.19,72.11 147.37,115.34 236.41,126.71 88.44,11.28 180.78,-8.87 258.25,-63.37 73.74,-51.9 123.68,-127.75 142.62,-210.06zm-1164.48 -57.77c-7.56,-28.61 -20.99,-54.68 -41.19,-76.3 -65.48,-70.12 -165.99,-100.39 -264.8,-130.15l-3.99 -1.2c5.72,33.42 8.8,67 9.06,99.74 0.45,56.93 -7.57,111.49 -24.96,158.85 -6.77,18.44 -20.28,30.37 -35.74,36.04 -9.39,3.44 -19.51,4.43 -29.2,3.06l-0.17 0c-9.98,-1.47 -19.72,-5.48 -27.96,-11.96 -12.7,-9.96 -21.54,-25.06 -22.26,-44.75 -0.77,-20.57 -1.16,-42.27 -1.53,-63.75 -1.18,-67.27 -2.31,-132.26 -19.33,-197.61 -56.27,13.22 -104.15,67.58 -140.09,133.37 -44.92,82.2 -70.13,180.05 -71.88,244.99l-0.11 7.59c0.05,18.33 2.57,36.33 7.19,53.77 17.99,68.03 68.87,125.5 133.78,166.25 66.86,41.98 147.85,65.88 223.58,65.64 26.32,-0.07 52.14,-3.23 76.5,-9.67 35.15,-9.31 69.93,-30.95 101.7,-60.61 49.08,-45.84 90.02,-109.95 114.67,-178.16 24.09,-66.65 32.3,-136.37 16.74,-195.13zm-1230.19 -26.83c-0.07,-24.67 -3.38,-48.78 -10.27,-71.44 -14.29,-47.11 -54.25,-92.78 -105.31,-132.57 -41.56,-32.37 -89.98,-60.35 -138.29,-82.08 7.13,31.04 12.28,62.54 15.53,93.89 6.61,63.97 5.26,127.17 -3.35,184.52 -3.29,21.63 -17.07,34.65 -34.09,40.04l-0.17 0c-6.81,2.13 -14.07,2.77 -21.01,1.98 -6.48,-0.75 -12.81,-2.68 -18.43,-5.58l-0.17 0c-15.87,-8.25 -27.87,-24.17 -27.28,-46.13 1.2,-54.32 -5.11,-111.55 -17.54,-167.63 -9.51,-42.89 -22.69,-85.25 -38.9,-125.24 -62.5,40.02 -110.96,90.38 -144.03,149.34 -39.46,70.36 -57.28,153.7 -51.19,246.96 2.9,44.63 7.91,85.08 21.27,118.81 12.31,31.03 32.7,58.07 67.19,80.19 26.83,17.24 63.7,31.83 102.21,42.34 42.17,11.52 85.62,18.06 119.92,17.96 19.36,-0.06 38.49,-3.16 57.02,-8.79 63.03,-19.16 119.44,-67.77 160.43,-129.2 41.61,-62.36 66.69,-137.1 66.45,-207.37zm-1420.72 -236.08c-1.35,-5.97 -2.97,-12.15 -4.83,-18.44 -20.76,-69.87 -69.92,-128.19 -130.72,-176.7 -43.69,-34.87 -93.11,-64.61 -142.59,-89.98 1.58,27.98 1.63,56 0.26,83.57 -2.79,55.98 -11.5,110.54 -25.13,160.09l0.16 0.05c-4.99,18.38 -16.64,30.58 -30.94,37.22 -9.59,4.43 -20.03,5.93 -30.04,4.81 -9.24,-1.04 -18.26,-4.26 -26.04,-9.35 -13.78,-9.02 -24.41,-24.06 -26.52,-43.37 -5.79,-53.84 -5.81,-108.64 -5.84,-163.18 0,-18.23 -0.01,-36.46 -0.27,-54.75 -51.04,27.94 -95.19,61.56 -129.61,102.34 -45.56,53.96 -74.46,121.52 -80.02,206.54 -2.74,41.74 0.5,82.49 9.14,120.68 15.06,66.54 46.49,125.59 91.08,168.84 43.46,42.16 99.94,69.4 166.31,73.75 29.38,1.93 60.79,-0.52 93.88,-8.02 6.54,-1.48 13.67,-3.36 21.27,-5.63l0.17 0c81.89,-24.29 154.32,-79.47 201.5,-150.24 46.44,-69.56 67.85,-154.03 48.79,-238.26zm-1259.57 -40.15c27.73,-87.97 29.37,-178.85 -12.86,-246.81 -40.85,-65.78 -91.2,-113.29 -148.95,-144.1 -43.46,-23.2 -91.59,-37.3 -143.45,-42.98 9.51,25.78 19.48,55.44 27.24,85.33 17.06,65.78 22.71,133.56 -7.89,174.63 -8.1,10.95 -18.66,18.09 -31.04,21.3 -12.33,3.22 -24.85,2.11 -37.1,-3.34l-6.01 -2.54c-14.95,-6.58 -23.91,-18.24 -28.01,-31.66 -2.01,-6.62 -2.61,-13.41 -1.99,-19.94 0.51,-5.56 2,-11.2 4.35,-16.54 5.5,-12.83 16.35,-23.95 30.8,-29 25.21,-9.03 -41.41,-17.81 -49.85,-50.61 -13.03,-50.57 -28,-105.47 -34.04,-125.69 -133.8,76.38 -180.48,221.13 -168.7,362.27 5.71,68.39 24.9,135.74 54.42,194.3 28.98,57.48 67.67,106.2 112.94,138.54 72.49,51.77 164.59,60.61 262.64,-7.87 76.41,-53.34 144.73,-151.31 177.51,-255.28zm-306 -211.45c-0.32,3.22 -0.75,6.29 -1.31,9.18l2.51 0.23c-0.38,-1.58 -0.93,-6.02 -1.2,-9.41zm-1.31 9.18c-0.61,3.16 -1.37,6.09 -2.3,8.81l0.76 0.33c0.85,-0.43 1.5,-0.65 1.86,-0.57 0.56,-2.5 1.68,-6.58 2.25,-8.13l-0.06 -0.21 -2.51 -0.23zm-2.3 8.81l-0.06 0.19 0.59 0.26 0.23 -0.11 -0.76 -0.33zm-0.06 0.19l-0.26 0.73 0.84 -0.48 -0.59 -0.26zm-422.93 -1360.47c-9.54,33.31 -13.69,68.49 -11.35,104.81 5.93,92.39 37.71,177.76 87.02,252.25 42.15,63.67 97.13,119.44 159.81,164.96 6.37,-53.72 10.12,-108.28 13.93,-163.55 4.53,-65.81 9.13,-132.62 18.49,-202.84 2.4,-18.44 12.94,-31.44 26.39,-38.62 7.56,-4.04 15.76,-6.07 23.63,-6.07 7.89,0 15.93,1.99 23.42,5.96 13.63,7.15 24.22,20.2 26.63,38.73 8.51,65.25 17.39,140.17 20.73,217.78 2.31,53.63 1.97,108.53 -2.93,162.48 119.53,-48.71 223.05,-99.97 296.18,-232.26 16.63,-30.07 29.98,-62.85 39.77,-97.06 24.57,-85.83 26.7,-179.98 2.85,-263.39 -23.09,-80.75 -70.79,-151.21 -146.31,-192.98l0 -0.17c-19.44,-10.76 -41.37,-19.81 -65.83,-26.81 -40.5,-11.6 -82.98,-15.53 -125.35,-12.8 -85.77,5.54 -171.43,38.19 -241.57,89.84 -69.15,50.93 -122.72,120.19 -145.5,199.73zm1310.6 238.43c-9.83,41.41 -10.51,85.04 0.55,128.93 17.85,70.78 59.39,131.79 113.47,180.74 50.02,45.26 110.77,80.26 173.79,103.37 1.21,-13.9 2,-28.05 2.34,-42.4 0.8,-30.81 3.83,-62.53 6.91,-94.93 6.84,-71.65 14.02,-147.04 -4.54,-205.24 -5.63,-17.4 -2.13,-32.84 6.48,-45.12 5.36,-7.6 12.56,-13.34 20.5,-17.01l0.52 -0.17c6.79,-3.04 14.45,-4.67 22.22,-4.61 15.65,0.12 31.79,7 42.46,21.94 22.38,31.12 34.26,59.26 39.92,89.52 5.4,28.87 4.77,57.51 2.41,92.03 -2.42,35.13 -3.58,67.72 -4.73,100.32 -1.13,31.93 -2.26,63.89 -4.36,96.12l22.61 -11.25c92.62,-45.9 188.67,-93.52 239.48,-175.27 27.08,-43.55 39.23,-109.14 37.96,-175.83 -1.32,-69 -17.07,-137.38 -45.47,-182.38 -18.91,-29.69 -50.52,-55.46 -86.86,-76.72 -48.13,-28.17 -104.28,-48.17 -151.69,-59.42 -47.98,-11.39 -98.59,-9.51 -147.72,2.87 -66.97,16.87 -130.98,53.01 -182.2,101.56 -50.71,48.04 -88.61,107.98 -104.04,172.95zm1372.39 247.92c-0.06,37.25 3.71,76.44 7.34,109.32 11.45,102.51 100.19,171.52 188.65,240.33 16.39,12.74 32.76,25.48 48.83,38.54 -1.03,-13.99 -2.35,-28.54 -3.9,-43.77l0 -0.16c-5.35,-52.69 -10.38,-104.54 -13.67,-155.15 -3.34,-51.58 -5.08,-103.74 -3.87,-157.59 0.34,-18.13 9.65,-31.85 22.49,-39.96 6.26,-3.89 13.22,-6.43 20.19,-7.3 7.37,-0.92 15.05,-0.15 22.32,2.46 14.26,5.07 26.05,16.08 30.47,33.76 19.63,78.23 36.85,161.12 49.13,244.39 7.96,54.04 13.87,108.61 17.02,162.65 13.7,-7.94 27.19,-16.04 40.27,-24.41 31.35,-20.05 61.28,-42.16 88.13,-68.06 39.51,-38.07 89.02,-101.72 120.56,-168.99 22.2,-47.35 35.13,-95.56 27.72,-134.9 -5.64,-30.04 -21.24,-59.74 -41.07,-87.5 -21.24,-29.76 -47.47,-57.39 -72.19,-81.37 -40,-38.72 -73.59,-70.39 -110.34,-91.03 -34.85,-19.58 -74.86,-30.31 -130.58,-29.63l-0.16 0c-63.52,0.72 -134.37,16.29 -192.49,49.22 -45.84,25.97 -83.34,62.91 -101.41,111.91 -10.05,27.24 -13.41,61.89 -13.46,97.24zm1411.51 -53.96c-64.84,42.26 -115.03,103.4 -133.1,181.8 -22.1,95.68 2.06,176.49 48.56,246.38 38.67,58.11 93.08,109.79 150.17,156.59 12.28,-42.09 19.41,-87.2 26.52,-132.29 13.56,-85.9 27.14,-171.85 74.28,-248.96 9.79,-15.96 23.9,-24.5 39.04,-27.18 10.45,-1.87 21.13,-0.54 30.82,3.34 8.73,3.5 16.68,9.2 22.93,16.47 10.48,12.28 16.47,29.04 13.73,47.42 -10.08,67.33 -22.45,140.36 -38.9,213.57 -11.33,50.43 -24.56,100.49 -40.26,148.11 67.98,-13.85 130.82,-38.41 184.14,-75.83 62.32,-43.74 112.1,-105.52 142.2,-188.87l0 -0.17c16.34,-45.19 25.21,-88.69 26.9,-129.31 2.53,-60.98 -10.98,-115.69 -39.34,-159.93 -28.12,-43.87 -71.39,-78.2 -128.56,-98.87 -34.58,-12.51 -74.28,-20.12 -118.75,-21.98 -88.94,-3.69 -184.46,20.24 -260.37,69.72zm1032.01 63.57c-22.46,48.64 -30.78,106.68 -33.28,170.9l0 0.17c-3.44,87.74 7.06,164.63 32.3,235.52 19.57,55 48.25,106.85 86.37,157.81l17.83 -26.64c16.96,-25.91 32.56,-51.19 46.4,-75.65l-0.13 -0.07c22.89,-40.63 43.67,-84.22 64.41,-127.79 33.97,-71.37 67.99,-142.78 115.07,-208.92l0.17 -0.33c7.56,-10.39 17.83,-16.21 29.04,-18.12l1.52 -0.17c7.93,-1.09 16.06,0.05 23.46,3.17 7.01,2.96 13.28,7.72 18.03,13.79l0.67 0.84c6.65,8.94 10.43,20.47 8.5,33.53l-0.17 0.67c-12.74,77.94 -38.46,159.28 -73.32,239.49 -20.62,47.45 -44.47,94.58 -70.73,140.42 23.52,-9.95 46.59,-20.85 68.94,-32.81 56.94,-30.42 109.65,-67.8 154.21,-113.73 45.68,-47.03 80.22,-107.32 99.68,-170.84l0 -0.17c16.87,-55.06 22.33,-112.25 13.78,-164.84 -8.21,-50.48 -29.53,-96.79 -66.32,-132.52 -26.24,-25.49 -60.8,-46.04 -104.53,-59.43 -47.88,-14.69 -108.04,-20.37 -167.54,-16.3 -55.54,3.81 -109.53,16.14 -150.94,37.52 -57,29.48 -92.13,68.39 -113.41,114.51zm1267.69 -218.16c-67.95,18.19 -127.14,59.46 -162.58,130.85 -3,6.06 -5.83,12.38 -8.45,18.87 -31.02,76.93 -41.34,191.04 -23.08,296.85 15.71,91.03 52.47,174.34 115.16,217.51l17.02 -32.37c12.05,-23.24 23.84,-46.72 35.08,-70.54 13.3,-28.22 25.23,-61.57 37.29,-95.31 25.38,-71.04 51.41,-143.82 101.34,-200.6 9.09,-10.15 20.11,-15.36 31.66,-16.75l0.16 0c7.8,-0.89 15.49,0.13 22.71,2.74 6.01,2.17 11.72,5.62 16.65,9.97 9.18,8.11 15.98,20.07 17.52,33.22l0 0.17c11.32,101.8 -42.15,208.86 -86.8,298.21l-0.17 0 -12.95 26.19c103.18,-39.1 202.89,-86.66 271.46,-169.48 20.8,-25.16 36.55,-52.19 47.42,-80.02 21.08,-53.99 24.14,-111.41 10.84,-164.46 -13.24,-52.78 -42.78,-101.3 -86.92,-137.8 -22,-18.19 -47.66,-33.46 -76.72,-44.81 -85.11,-33.31 -182.65,-44.96 -266.65,-22.46zm1250.65 201.82c124.94,36.69 228.98,130.29 272.28,295.59 4.98,19.03 9.04,38.43 12.17,57.99 17.57,110.55 4.61,226.89 -41.83,323.54 -47.82,99.52 -130.43,178.27 -250.87,209.81 -13.35,3.49 -27.22,6.41 -41.54,8.69 -119.04,18.91 -258.33,-8.91 -377.05,-70.24 -101.27,-52.32 -188.66,-129.48 -237.54,-223.54 -112.38,27.48 -226.43,54.16 -342.29,79.88l-7.72 1.71c24.55,1.46 49.06,4.38 73.36,8.7 123.44,21.95 242.07,80.03 329.71,162.6 91.19,85.95 126.61,201.07 121.55,318.16 -5.59,129.11 -61.21,261.11 -145.36,357.28 -10.62,12.14 -21.87,23.42 -33.58,33.8 -78.02,69.05 -175.24,95.9 -271.73,88.78 -94.81,-6.98 -189.19,-47.02 -263.51,-112.02 -14.39,-12.59 -28.13,-26.21 -40.99,-40.75 -82.92,-93.67 -138.58,-223.67 -154.67,-355.87 -13.45,-110.5 0.55,-223.36 49.02,-319.2 -13.76,-7.18 -27.83,-14 -42.22,-20.42 -23.58,-10.54 -48.37,-20.13 -74.41,-28.67 -169.94,31.93 -339.65,60.74 -508.96,85.91 -59.19,8.8 -118.59,17.19 -178.2,25.15 41.18,2.09 82.06,8.82 121.52,20.02 118.58,33.65 224.96,107.59 288.93,216.81 8.1,13.81 15.32,27.7 21.57,41.58 53.89,119.41 52.18,248.74 8.57,362.74 -44.69,116.78 -133.47,217.63 -251.47,275.23 -123.37,60.24 -262.56,64.53 -386.54,23.51 -124.37,-41.13 -233.84,-127.94 -297.09,-249.59l0 -0.17c-4.83,-9.33 -9.48,-19.02 -13.85,-29.04 -42.91,-98.02 -55.91,-214.98 -33.59,-320.2 20.9,-98.47 72.37,-187.29 158.71,-242.88 -5.68,-6.41 -11.46,-12.47 -17.34,-18.1 -12.85,-12.3 -26.25,-22.72 -40.1,-30.24 -144.75,12.93 -288.81,21.3 -432.34,25.37 -119.27,3.38 -238.24,3.82 -356.95,1.49 5.54,9.78 10.87,19.91 15.98,30.33 129.91,22.83 287.47,76.64 396.85,167.39 91.73,76.13 150.54,177.37 136.15,307.24 -14.11,127.32 -73.91,265.33 -166.36,363.63 -81.78,86.98 -189.11,143.74 -313.78,137.56 -139.13,-6.91 -273.52,-54.26 -368.2,-139.13 -86.11,-77.22 -139.44,-184.45 -134.87,-319.52 3.35,-98.5 44.85,-235.49 115.88,-340.24 47.87,-70.62 109.56,-127.69 183.14,-151.89 -9.83,-17.46 -20.2,-34.9 -30.59,-52.39l0.12 -0.07 -4.82 -8.11c-186.27,-7.73 -371.74,-21.96 -556.83,-41.89 -154,-16.58 -307.91,-37.1 -461.98,-61.15 6.87,10.24 13.39,20.76 19.57,31.53 101.22,15.03 211.67,67.55 298.89,140.81 87.92,73.85 153.8,169.75 166.14,271.67 13.6,112.18 -23.17,247.47 -93.95,353.93 -65.13,97.94 -159.53,172.95 -271.41,186.84 -104.88,13.01 -229.19,-9.01 -328.23,-64.73 -88,-49.51 -157.01,-125.6 -178.08,-227.72 -28.02,-136.04 -13.68,-272.32 39.93,-389.24 45.46,-99.16 118.92,-184.23 218.48,-243.44 -17.44,-23.2 -36.28,-45.7 -55.19,-68.28l-20.9 -25.13c-162.72,-28.47 -330.28,-59.91 -497.87,-91.33 -235.85,-44.24 -471.89,-88.51 -706.33,-126.55 5.43,12.33 10.48,25.15 15.16,38.33 110.5,46.92 226.98,110.92 316.19,196.8 98.06,94.41 163.18,214.33 153.71,365.67 -7.83,124.15 -66.46,236.61 -153.63,319.28 -88.46,83.87 -206.74,137.37 -331.46,141.5 -187.69,6.25 -316.04,-85.51 -386.29,-215.9 -34.24,-63.56 -54.31,-136.18 -60.29,-210.72 -5.94,-73.95 1.92,-150.16 23.42,-221.49 45.51,-150.98 151.68,-280.54 317.09,-324.2 -4.36,-20.48 -10.17,-40.7 -17.91,-60.51 -6.98,-17.85 -15.44,-35.22 -25.72,-51.97 -161.93,-24.3 -323.04,-45.24 -482.7,-60.76 -167.61,-16.28 -335.68,-27.02 -504.23,-30l-12.14 -0.19c46.87,10.7 92.66,31.37 135.19,58.85 85.83,55.41 159.37,139.51 201.04,224.37 9.25,18.88 16.98,37.71 22.89,56.17 34.9,108.75 4.72,260.09 -61.16,391.59 -65.07,129.87 -166.32,242.98 -275.51,279.4 -186.51,62.14 -336.83,-10.35 -434.74,-141.35 -41.12,-55.02 -72.67,-120.63 -93.32,-190.75 -20.44,-69.37 -30.18,-143.41 -27.94,-216.03 5.57,-179.89 84.07,-351.38 254.33,-427.71l-2.59 -3.7c-6.8,-9.58 -13.87,-18.81 -21.17,-27.68 -316.48,11.6 -647.88,52.47 -955.12,147.23 -311.31,96 -597.82,247.48 -818.3,480.15 -31.54,33.07 -69.11,38.54 -102.04,27.35 -13.85,-4.71 -26.59,-12.53 -37.33,-22.52 -10.47,-9.72 -19.17,-21.54 -25.22,-34.54l0.15 -0.06c-15.87,-34.04 -15.19,-76.41 15.35,-112.65 222.53,-264.16 526.45,-432.83 856.28,-539.67 326.91,-105.91 679.31,-151.07 1002.41,-168.51 11.17,-0.57 24.42,-1.07 37.99,-1.53 5.01,-13.54 9.59,-27.15 13.8,-40.83 4.72,-15.34 8.92,-30.54 12.65,-45.61 -113.81,-65.27 -214.02,-162.97 -279.82,-278.39 -65.42,-114.74 -97.1,-247.17 -75.11,-383.25 1.26,-7.82 2.55,-14.73 3.82,-20.68 28.93,-134.69 123.78,-245.81 243.77,-317.57 118.67,-70.96 262.97,-103.83 392.43,-82.93 8.64,1.38 16.43,2.83 23.31,4.31 195.02,41.81 303.35,171.79 343.08,330.21 20.45,81.56 22.24,170.65 7.98,258.6 -14.18,87.49 -44.2,174.01 -87.43,250.93 -92.18,164.06 -244.54,286.48 -433.34,288.69 -3.85,10.74 -8.05,21.35 -12.62,31.79 195.77,-3.13 390.39,4.59 583.97,20.18 208.91,16.81 416.86,42.74 623.91,74.01 5.69,-10.4 10.88,-20.91 15.56,-31.54 2.53,-5.75 4.93,-11.51 7.18,-17.3 -111.55,-33.98 -218.29,-99.17 -294.6,-186.81 -78.07,-89.67 -124.93,-202.7 -114.42,-330.36 10.57,-127.79 77.37,-247.65 174.02,-334.32 95.73,-85.85 221.37,-139.63 351.15,-136.8l1.72 0.04c149.34,3.65 270.33,60.18 353.48,151.48 82.83,90.96 127.38,215.83 124.31,356.7l-0.04 1.74c-2.83,116.37 -58.32,222.4 -140.41,305.98 -85.4,86.99 -200.48,150.16 -314.41,175.04 -2.81,2.51 -5.86,4.81 -9.12,6.85l-1.74 1.06c-6.56,17.16 -14.15,33.85 -22.66,50.04l-4.3 7.98c111.55,17.94 222.88,37.16 333.98,57.1 139.06,24.94 268.62,49.23 396.93,73.38 86.23,16.25 176.59,32.87 272.48,49.94 81.9,14.59 160.93,28.28 236.46,40.89 1.8,-5.93 3.44,-11.77 4.93,-17.54 1.5,-5.69 2.86,-11.46 4.11,-17.33 -119.16,-58.76 -233.85,-145.47 -310.2,-253.67 -70.9,-100.45 -109.07,-219.05 -88.74,-350.95 19.14,-123.97 90.97,-216.21 186.76,-275.98 106.14,-66.22 242.39,-91.89 367.36,-75.88 56.23,7.18 101.82,23.47 142.8,48.37 40.31,24.49 74.84,56.35 110.04,95.48 16.96,18.86 33.25,34.74 48.58,49.7 63.35,61.8 113.43,110.63 114.37,229.02 1.04,122.42 -48.76,235.67 -126.28,328.54 -78.5,94.04 -186.04,167.56 -297.57,208.21 -1.86,14.83 -4.59,29.52 -8.39,43.66l-3.48 11.91c160.4,25.38 322.18,48.5 486,68.53 174.84,21.37 349.44,38.84 523.86,51.27 5.37,-5.87 9.84,-11.22 12.36,-15.49l-0.12 -0.07c8.91,-15.26 17.03,-30.22 24.34,-44.69l8.16 -16.56c-102.79,-39.22 -185.88,-124.34 -238.08,-225.72 -55.93,-108.6 -76.91,-236.98 -48.9,-347.99 1.36,-5.39 2.85,-10.79 4.44,-16.11 36.01,-120.11 119.59,-209.39 223.33,-265.97 113.2,-61.75 250.83,-84.37 375.95,-65.27 18.86,2.88 37.24,6.59 55.07,11.07 114.07,28.67 197.78,88.15 248.89,170.32 50.72,81.54 68.32,184.06 50.66,299.51 -3.07,20.08 -7.3,40.82 -12.63,62.07 -31.91,127.04 -109.86,236.5 -212.41,311.55 -94.41,69.1 -209.87,109.28 -329.74,107.48 -5.61,10.68 -11.55,21.46 -17.8,32.24l-7.4 12.51c105.28,5.9 210.12,9.89 314.41,11.7 132.69,2.31 266.13,1.21 400.36,-3.78 29.7,-1.09 61.05,-2.55 93.48,-4.21l74.85 -4.17c11.45,-13.96 22.42,-27.46 32.64,-40.28l16.26 -20.58c-74.69,-62.25 -121.5,-149.79 -147.55,-245.86l0 -0.16c-36.65,-135.17 -32.02,-288.36 -6.63,-409.03l2.84 -12.53c30.58,-124.43 116.53,-205.9 223.7,-249.94 103.29,-42.44 226.56,-49.41 337.19,-26.1 6.79,1.42 13.26,2.91 19.36,4.41 8.71,2.13 17.45,4.56 26.18,7.26 113.8,35.08 192.54,107.91 236.05,200.05 42.74,90.53 50.77,199.24 24.03,308.2 -2.56,10.44 -5.54,21.11 -8.87,31.95 -35.08,113.85 -109.35,203.63 -202.09,272.42 -106.23,78.8 -236.85,129.92 -359.46,157.93l-6.94 9.06c148.97,-12.03 296.87,-27.76 443.85,-46.43 172.88,-21.96 346.69,-48.31 521.01,-77.69l16.51 -32.01c-77.76,-47.91 -129.02,-126.83 -159.31,-216.84 -42.39,-126 -43.35,-275.31 -18.37,-387.46 29.19,-130.99 93.2,-217.4 180.37,-268.34 95.85,-56.02 217.74,-67.33 350.57,-47.05 1.2,0.41 7.29,1.42 8.53,1.42 105.33,18.04 202.03,71.22 268.26,148.39 67.49,78.63 103.51,181.69 85.77,297.76 -0.34,0.67 -1.2,6.2 -1.2,7.22 -20.87,121.96 -91.63,218.89 -185.52,292.33 -106.48,83.26 -243.11,136.05 -368.67,160.39l-9.53 15.13c81.45,-14.56 162.5,-29.63 243.22,-45.08 108,-20.67 211.72,-41.25 312.89,-61.74 6.29,-169.99 106.58,-310.03 240.6,-397.17 66.73,-43.41 141.98,-73.75 218.06,-88.09 77.08,-14.52 155.41,-12.72 227.2,8.35zm-7286.77 494.21c6.35,-2.02 12.74,-3.8 19.13,-5.35l-22.42 0.22 3.29 5.13zm4892.8 436.51c17.56,-7.92 35.54,-14.76 53.83,-20.54l-79.55 9.06c4.91,5.42 9.71,11.01 14.44,16.76l11.28 -5.28z"/>
 </g>
</svg>
