<?xml version="1.0" encoding="UTF-8"?>
<!DOCTYPE svg PUBLIC "-//W3C//DTD SVG 1.1//EN" "http://www.w3.org/Graphics/SVG/1.1/DTD/svg11.dtd">
<!-- Creator: CorelDRAW 2021 (64-Bit) -->
<svg xmlns="http://www.w3.org/2000/svg" xml:space="preserve" width="22in" height="22in" version="1.1" style="shape-rendering:geometricPrecision; text-rendering:geometricPrecision; image-rendering:optimizeQuality; fill-rule:evenodd; clip-rule:evenodd"
viewBox="0 0 22000 22000"
 xmlns:xlink="http://www.w3.org/1999/xlink"
 xmlns:xodm="http://www.corel.com/coreldraw/odm/2003">
 <defs>
  <style type="text/css">
   <![CDATA[
    .fil0 {fill:none}
    .fil1 {fill:#2B2A29}
   ]]>
  </style>
 </defs>
 <g id="Layer_x0020_1">
  <metadata id="CorelCorpID_0Corel-Layer"/>
  <rect class="fil0" width="22000" height="22000"/>
  <path class="fil1" d="M20934.61 10256.9c-7.17,-45.46 -31.04,-81.93 -60.94,-104.19 0.54,-1.14 1.14,-2.27 1.67,-3.41 -209.6,-142.8 -416.57,15.18 -596.65,89.55 -263.52,108.94 -538.95,187.94 -770.38,356.38 -30.56,22.33 -49.14,62.97 -53.08,106.46 -94.99,18.94 -189.35,39.19 -283.29,60.63 -161.57,18.02 -322.86,36.09 -483.98,53.91 23.03,-88.05 45.22,-176.38 66.52,-264.94 38.95,-7.7 76.35,-29.54 98.07,-61.69 164.7,-243.14 252.58,-521.97 366.2,-791.61 77.63,-184.24 231.35,-402.29 117.65,-596.93 -1.07,0.6 -2.12,1.28 -3.19,1.88 -17.89,-27.63 -48.84,-48.03 -88.78,-51.11 -267.45,-20.78 -421.77,351.63 -510.27,554.12 -122.85,281.17 -182.65,557.98 -120.5,859.99 2.42,12.09 6.57,22.37 11.39,31.8 -20.91,109.99 -38.2,220.39 -51.26,330.85 -24.25,2.66 -48.48,5.22 -72.7,7.86 -9.37,-1.82 -18.96,-0.75 -27.57,2.95 -226.66,24.23 -453.25,47.19 -680.23,66.73 49.25,-123.24 95.14,-248.25 139.76,-373.74 39.57,-3.49 78.98,-21.21 104.04,-50.96 189.52,-224.26 306.4,-492.22 447.98,-748.42 96.72,-174.95 272.65,-375.47 180.15,-581.07 -1.05,0.49 -2.19,1.05 -3.32,1.59 -14.87,-29.39 -43.49,-52.93 -82.91,-60.27 -263.64,-48.93 -456.57,304.97 -566.05,496.98 -151.92,266.59 -240.63,535.57 -210.88,842.42 1.13,12.22 4.15,22.94 7.92,32.83 -44.78,148.06 -83.22,297.8 -112.2,448.28 -239.5,19.61 -479.53,35.55 -720.76,45.37 41.29,-118.19 79.87,-237.61 117.09,-357.52 39.34,-5.07 77.99,-24.46 101.94,-55.2 180.15,-231.73 286.01,-504.3 417,-765.99 89.57,-178.74 257.26,-386.28 156.45,-587.96 -1.13,0.58 -2.18,1.13 -3.31,1.73 -16.07,-28.76 -45.61,-51.11 -85.33,-56.85 -265.46,-38.14 -443.72,323.31 -545.28,519.69 -140.96,272.48 -218.67,544.85 -176.46,850.28 1.75,12.13 5.13,22.73 9.29,32.47 -36.17,139.89 -66.43,280.93 -88.93,422.37 -310.41,9.89 -619.23,5.74 -927.52,-7.77 50,-119.98 96.89,-241.62 142.56,-363.78 39.64,-2.89 79.34,-20.01 104.94,-49.23 193.01,-221.31 314.11,-487.32 459.76,-741.22 99.44,-173.39 278.62,-371.13 189.44,-578.16 -1.11,0.53 -2.27,1.07 -3.38,1.52 -14.43,-29.62 -42.68,-53.61 -82.02,-61.53 -262.83,-53.19 -461.32,297.63 -573.83,487.9 -156.13,264.11 -249.15,531.63 -224.24,838.93 0.98,12.22 3.77,23.03 7.39,32.92 -45.29,141.52 -84.48,284.59 -115.36,428.57 -326.18,-16.39 -651.98,-42.59 -978.63,-73.31 63.67,-105.71 125.04,-213.24 185.22,-321.43 39.57,3.08 81.4,-7.94 111.08,-33.07 223.87,-189.99 383.33,-434.99 565.21,-664.3 124.29,-156.61 330.87,-325.35 273.57,-543.4 -1.13,0.28 -2.35,0.68 -3.55,0.98 -9.82,-31.42 -34.2,-59.35 -71.81,-73.09 -252.04,-91.75 -500.68,225.46 -640.29,396.85 -193.8,237.83 -325.73,488.44 -347,796.04 -0.83,12.24 0.36,23.33 2.48,33.69 -64.55,130.45 -123.6,263.36 -174.86,398.2 -29.45,-2.8 -58.99,-5.5 -88.5,-8.37 -257.91,-25.47 -522.72,-46.83 -787.58,-54.45 33,-74.14 65.3,-148.67 97.1,-223.49 39.7,-1.15 80.18,-16.46 106.97,-44.63 202.58,-212.49 335.32,-472.96 492.07,-720.08 107,-168.93 294.76,-358.5 214.74,-569.32 -1.05,0.43 -2.27,0.98 -3.4,1.43 -13.12,-30.22 -40.24,-55.5 -79.19,-65.15 -260.26,-64.72 -474.03,277.02 -594.83,462.15 -167.63,256.92 -272.35,520.07 -261.09,828.15 0.45,12.31 2.72,23.18 5.95,33.3 -36,97.53 -68.92,196.07 -98.46,295.21 -255.19,-3.08 -509.43,8.39 -756.7,42.74 39.49,-87.45 78.08,-175.4 115.66,-263.81 39.72,-1.15 80.11,-16.46 107,-44.63 202.6,-212.49 335.32,-472.96 492.07,-720.08 106.99,-168.93 294.76,-358.5 214.74,-569.32 -1.14,0.43 -2.27,0.98 -3.41,1.43 -13.14,-30.22 -40.32,-55.5 -79.21,-65.15 -260.26,-64.72 -474.09,277.02 -594.81,462.15 -167.69,256.92 -272.44,520.07 -261.18,828.15 0.45,12.31 2.8,23.18 5.97,33.3 -43.43,117.63 -82.68,236.54 -116.28,356.53 -610.37,104.85 -1170.78,362.18 -1585.91,910.5 -103.2,136.36 130.17,318.33 238.83,184.24 445.33,-549.61 1063.7,-770.68 1723.32,-840.81 31.1,106.82 66.52,212.83 105.24,317.88 -3.15,10.04 -5.5,20.91 -5.95,33.22 -11.26,308.12 93.46,571.27 261.09,828.21 120.82,185.11 334.63,526.79 594.89,462.09 38.89,-9.68 66.07,-34.89 79.13,-65.15 1.22,0.49 2.35,0.96 3.49,1.41 79.96,-210.71 -107.74,-400.39 -214.82,-569.21 -156.67,-247.23 -289.41,-507.7 -491.99,-720.17 -26.89,-28.17 -67.36,-43.49 -107,-44.62 -36.24,-85.19 -73.3,-169.9 -111.21,-254.16 325.65,-26.28 659.44,-18.88 986.01,1.97 48.09,123.13 102.54,244.64 161.66,364.09 -2.12,10.42 -3.32,21.44 -2.48,33.67 21.3,307.6 153.18,558.3 347.01,796.06 139.61,171.37 388.25,488.59 640.29,396.85 37.67,-13.76 61.98,-41.69 71.87,-73.09 1.13,0.28 2.35,0.69 3.55,1.05 57.23,-218.07 -149.35,-386.88 -273.64,-543.49 -181.88,-229.24 -341.35,-474.31 -565.21,-664.28 -29.6,-25.17 -71.51,-36.09 -111.08,-33.07 -50.43,-90.68 -101.92,-180.62 -154.49,-269.78 201.98,14.64 400.41,33.45 591.51,51.26 195.8,18.34 393.15,33 591.34,44.18 28.79,124.65 63.44,248.57 102.78,371.34 -3.7,9.95 -6.51,20.67 -7.49,32.92 -24.89,307.37 68.13,574.88 224.26,838.93 112.52,190.25 311,541.07 573.92,487.99 39.26,-7.92 67.48,-32.02 82,-61.62 1.05,0.51 2.19,1.07 3.32,1.58 89.19,-207.12 -89.94,-404.77 -189.44,-578.2 -145.65,-253.86 -266.68,-519.94 -459.76,-741.16 -25.57,-29.3 -65.3,-46.44 -104.87,-49.31 -37.22,-99.52 -75.66,-198.43 -115.36,-296.73 323.38,15.86 648.66,20.7 973.71,12.01 54.15,110.07 113.48,218.29 176.59,324.44 -1.35,10.57 -1.65,21.66 0.15,33.82 44.8,305.04 195.41,544.85 406.83,767.15 152.37,160.2 424.48,457.46 668.76,346.7 36.54,-16.54 58.67,-46.36 66.05,-78.44 1.22,0.28 2.42,0.54 3.64,0.75 40.47,-221.76 -178.5,-374.27 -314.32,-520.84 -198.96,-214.74 -376.69,-446.83 -614.46,-619.13 -31.48,-22.81 -74.08,-30.58 -113.27,-24.46 -51.86,-78.46 -104.51,-156.22 -157.95,-233.4 277.26,-10.42 554.06,-31.4 828.74,-64.46 -2.42,8.91 -1.13,18.94 5.8,29.37 88.5,130.77 186.27,256.7 289.35,378.51 0.45,10.56 1.97,21.6 5.74,33.28 94.6,293.41 282.99,504.98 528.31,689.22 176.68,132.72 494.41,380.85 716.91,231.13 33.22,-22.3 50.13,-55.35 52.18,-88.2 1.2,0.06 2.42,0.09 3.7,0.09 3.17,-225.42 -238.09,-339.47 -396.34,-461.64 -231.71,-178.82 -445.4,-378.28 -708.37,-508.75 -34.8,-17.31 -78.16,-17.91 -115.83,-5.43 -97.62,-104.75 -196.01,-208.64 -297.65,-308.61 256.37,-33.3 510.72,-77.52 762.07,-134.15 72.73,77.01 148.45,151.68 226.53,224.09 1.73,10.4 4.52,21.15 9.74,32.32 129.42,279.8 341.95,467.08 607.74,620.28 191.56,110.37 536.83,318.24 739.64,142.69 30.28,-26.2 43.11,-61 41.07,-93.85 1.28,-0.15 2.48,-0.22 3.7,-0.3 -24.08,-224.2 -277.34,-308.29 -449.19,-410.36 -251.65,-149.44 -487.9,-321.67 -764.79,-419.37 -36.6,-12.99 -79.64,-8.3 -115.59,8.63 -53.98,-45.4 -108.19,-90.62 -162.71,-135.25 116.67,-28.55 232.39,-60.63 347.54,-94.9 1.13,0.06 1.97,0.6 3.1,0.6 159.17,-2.78 317.58,-17.44 474.4,-39.72 10.04,6.12 21,11.56 33.52,15.26 313.89,92.12 590.08,44.63 864.31,-73.78 197.68,-85.31 561.74,-232.78 514.19,-536.53zm-19869.2 0c7.13,-45.46 30.97,-81.93 60.91,-104.19 -0.56,-1.14 -1.11,-2.27 -1.65,-3.41 209.62,-142.8 416.57,15.18 596.59,89.55 263.56,108.94 538.99,187.94 770.38,356.38 30.65,22.33 49.19,62.97 53.17,106.46 94.9,18.94 189.35,39.19 283.29,60.63 161.55,18.02 322.82,36.09 483.96,53.91 -23.05,-88.05 -45.24,-176.38 -66.54,-264.94 -38.93,-7.7 -76.28,-29.54 -98.11,-61.69 -164.65,-243.14 -252.47,-521.97 -366.14,-791.61 -77.63,-184.24 -231.41,-402.29 -117.63,-596.93 1.03,0.6 2.06,1.28 3.13,1.88 17.91,-27.63 48.89,-48.03 88.87,-51.11 267.39,-20.78 421.72,351.63 510.2,554.12 122.85,281.17 182.61,557.98 120.56,859.99 -2.5,12.09 -6.61,22.37 -11.43,31.8 20.89,109.99 38.23,220.39 51.2,330.85 24.27,2.66 48.52,5.22 72.75,7.86 9.33,-1.82 18.94,-0.75 27.61,2.95 226.64,24.23 453.21,47.19 680.21,66.73 -49.25,-123.24 -95.11,-248.25 -139.81,-373.74 -39.53,-3.49 -78.95,-21.21 -104.06,-50.96 -189.48,-224.26 -306.34,-492.22 -447.92,-748.42 -96.7,-174.95 -272.72,-375.47 -180.21,-581.07 1.11,0.49 2.22,1.05 3.34,1.59 14.92,-29.39 43.56,-52.93 82.94,-60.27 263.73,-48.93 456.61,304.97 566.06,496.98 151.9,266.59 240.63,535.57 210.89,842.42 -1.18,12.22 -4.17,22.94 -7.96,32.83 44.84,148.06 83.26,297.8 112.24,448.28 239.48,19.61 479.53,35.55 720.72,45.37 -41.26,-118.19 -79.79,-237.61 -117.07,-357.52 -39.31,-5.07 -78.04,-24.46 -101.9,-55.2 -180.19,-231.73 -286.01,-504.3 -417.08,-765.99 -89.46,-178.74 -257.16,-386.28 -156.35,-587.96 1.07,0.58 2.19,1.13 3.23,1.73 16.07,-28.76 45.7,-51.11 85.31,-56.85 265.48,-38.14 443.81,323.31 545.35,519.69 140.96,272.48 218.67,544.85 176.42,850.28 -1.67,12.13 -5.09,22.73 -9.29,32.47 36.19,139.89 66.5,280.93 88.95,422.37 310.39,9.89 619.23,5.74 927.48,-7.77 -49.95,-119.98 -96.87,-241.62 -142.56,-363.78 -39.56,-2.89 -79.3,-20.01 -104.9,-49.23 -192.99,-221.31 -314.09,-487.32 -459.71,-741.22 -99.52,-173.39 -278.67,-371.13 -189.44,-578.16 1.11,0.53 2.2,1.07 3.36,1.52 14.41,-29.62 42.68,-53.61 81.95,-61.53 262.87,-53.19 461.41,297.63 573.88,487.9 156.13,264.11 249.15,531.63 224.3,838.93 -0.98,12.22 -3.81,23.03 -7.45,32.92 45.27,141.52 84.54,284.59 115.36,428.57 326.2,-16.39 652.04,-42.59 978.58,-73.31 -63.61,-105.71 -124.99,-213.24 -185.16,-321.43 -39.59,3.08 -81.44,-7.94 -111.08,-33.07 -223.9,-189.99 -383.35,-434.99 -565.23,-664.3 -124.22,-156.61 -330.91,-325.35 -273.57,-543.4 1.18,0.28 2.35,0.68 3.53,0.98 9.85,-31.42 34.2,-59.35 71.85,-73.09 252.02,-91.75 500.66,225.46 640.29,396.85 193.8,237.83 325.69,488.44 346.94,796.04 0.85,12.24 -0.28,23.33 -2.42,33.69 64.59,130.45 123.58,263.36 174.82,398.2 29.5,-2.8 58.99,-5.5 88.48,-8.37 257.93,-25.47 522.79,-46.83 787.65,-54.45 -33,-74.14 -65.34,-148.67 -97.15,-223.49 -39.68,-1.15 -80.11,-16.46 -106.95,-44.63 -202.62,-212.49 -335.36,-472.96 -492.07,-720.08 -107.04,-168.93 -294.72,-358.5 -214.76,-569.32 1.13,0.43 2.29,0.98 3.43,1.43 13.1,-30.22 40.26,-55.5 79.15,-65.15 260.3,-64.72 474.1,277.02 594.87,462.15 167.67,256.92 272.42,520.07 261.12,828.15 -0.43,12.31 -2.76,23.18 -5.97,33.3 36.09,97.53 68.96,196.07 98.45,295.21 255.25,-3.08 509.41,8.39 756.68,42.74 -39.49,-87.45 -78.06,-175.4 -115.66,-263.81 -39.64,-1.15 -80.11,-16.46 -107,-44.63 -202.58,-212.49 -335.32,-472.96 -491.99,-720.08 -107.08,-168.93 -294.76,-358.5 -214.8,-569.32 1.13,0.43 2.29,0.98 3.43,1.43 13.1,-30.22 40.26,-55.5 79.15,-65.15 260.28,-64.72 474.12,277.02 594.92,462.15 167.63,256.92 272.35,520.07 261.09,828.15 -0.45,12.31 -2.78,23.18 -5.97,33.3 43.43,117.63 82.68,236.54 116.37,356.53 610.3,104.85 1170.76,362.18 1585.83,910.5 103.2,136.36 -130.11,318.33 -238.75,184.24 -445.42,-549.61 -1063.7,-770.68 -1723.41,-840.81 -31.1,106.82 -66.52,212.83 -105.24,317.88 3.17,10.04 5.5,20.91 5.95,33.22 11.26,308.12 -93.46,571.27 -261.09,828.21 -120.82,185.11 -334.61,526.79 -594.89,462.09 -38.87,-9.68 -66.07,-34.89 -79.17,-65.15 -1.13,0.49 -2.27,0.96 -3.38,1.41 -80,-210.71 107.72,-400.39 214.76,-569.21 156.71,-247.23 289.45,-507.7 492.07,-720.17 26.8,-28.17 67.27,-43.49 106.97,-44.62 36.17,-85.19 73.24,-169.9 111.23,-254.16 -325.75,-26.28 -659.51,-18.88 -986.01,1.97 -48.18,123.13 -102.61,244.64 -161.7,364.09 2.1,10.42 3.28,21.44 2.44,33.67 -21.28,307.6 -153.2,558.3 -346.96,796.06 -139.65,171.37 -388.27,488.59 -640.29,396.85 -37.63,-13.76 -62,-41.69 -71.85,-73.09 -1.18,0.28 -2.35,0.69 -3.53,1.05 -57.34,-218.07 149.31,-386.88 273.55,-543.49 181.9,-229.24 341.35,-474.31 565.25,-664.28 29.64,-25.17 71.48,-36.09 111.04,-33.07 50.45,-90.68 101.94,-180.62 154.53,-269.78 -202,14.64 -400.43,33.45 -591.51,51.26 -195.8,18.34 -393.2,33 -591.37,44.18 -28.7,124.65 -63.42,248.57 -102.71,371.34 3.66,9.95 6.46,20.67 7.45,32.92 24.85,307.37 -68.17,574.88 -224.3,838.93 -112.47,190.25 -310.96,541.07 -573.88,487.99 -39.27,-7.92 -67.55,-32.02 -81.95,-61.62 -1.13,0.51 -2.25,1.07 -3.36,1.58 -89.23,-207.12 89.91,-404.77 189.44,-578.2 145.63,-253.86 266.72,-519.94 459.76,-741.16 25.56,-29.3 65.3,-46.44 104.9,-49.31 37.2,-99.52 75.57,-198.43 115.28,-296.73 -323.29,15.86 -648.59,20.7 -973.62,12.01 -54.13,110.07 -113.52,218.29 -176.64,324.44 1.33,10.57 1.65,21.66 -0.15,33.82 -44.71,305.04 -195.43,544.85 -406.83,767.15 -152.39,160.2 -424.52,457.46 -668.78,346.7 -36.49,-16.54 -58.67,-46.36 -66.07,-78.44 -1.22,0.28 -2.4,0.54 -3.62,0.75 -40.43,-221.76 178.52,-374.27 314.37,-520.84 198.92,-214.74 376.65,-446.83 614.41,-619.13 31.48,-22.81 74.06,-30.58 113.29,-24.46 51.84,-78.46 104.51,-156.22 157.93,-233.4 -277.23,-10.42 -553.97,-31.4 -828.74,-64.46 2.44,8.91 1.22,18.94 -5.82,29.37 -88.48,130.77 -186.2,256.7 -289.3,378.51 -0.43,10.56 -1.94,21.6 -5.74,33.28 -94.64,293.41 -282.97,504.98 -528.24,689.22 -176.79,132.72 -494.41,380.85 -716.96,231.13 -33.24,-22.3 -50.15,-55.35 -52.18,-88.2 -1.22,0.06 -2.44,0.09 -3.66,0.09 -3.19,-225.42 238,-339.47 396.28,-461.64 231.71,-178.82 445.39,-378.28 708.39,-508.75 34.84,-17.31 78.12,-17.91 115.77,-5.43 97.62,-104.75 196.03,-208.64 297.72,-308.61 -256.39,-33.3 -510.74,-77.52 -762.09,-134.15 -72.71,77.01 -148.39,151.68 -226.55,224.09 -1.71,10.4 -4.54,21.15 -9.7,32.32 -129.44,279.8 -341.95,467.08 -607.76,620.28 -191.49,110.37 -536.85,318.24 -739.64,142.69 -30.26,-26.2 -43.11,-61 -41.12,-93.85 -1.22,-0.15 -2.44,-0.22 -3.64,-0.3 24.1,-224.2 277.32,-308.29 449.19,-410.36 251.61,-149.44 487.9,-321.67 764.75,-419.37 36.69,-12.99 79.7,-8.3 115.57,8.63 54.02,-45.4 108.21,-90.62 162.77,-135.25 -116.71,-28.55 -232.46,-60.63 -347.54,-94.9 -1.15,0.06 -1.95,0.6 -3.15,0.6 -159.15,-2.78 -317.58,-17.44 -474.33,-39.72 -10.1,6.12 -21.02,11.56 -33.54,15.26 -313.9,92.12 -590.08,44.63 -864.38,-73.78 -197.61,-85.31 -561.74,-232.78 -514.12,-536.53z"/>
 </g>
</svg>
