<?xml version="1.0" encoding="UTF-8"?>
<!DOCTYPE svg PUBLIC "-//W3C//DTD SVG 1.1//EN" "http://www.w3.org/Graphics/SVG/1.1/DTD/svg11.dtd">
<!-- Creator: CorelDRAW 2021 (64-Bit) -->
<svg xmlns="http://www.w3.org/2000/svg" xml:space="preserve" width="22in" height="22in" version="1.1" style="shape-rendering:geometricPrecision; text-rendering:geometricPrecision; image-rendering:optimizeQuality; fill-rule:evenodd; clip-rule:evenodd"
viewBox="0 0 22000 22000"
 xmlns:xlink="http://www.w3.org/1999/xlink"
 xmlns:xodm="http://www.corel.com/coreldraw/odm/2003">
 <defs>
  <style type="text/css">
   <![CDATA[
    .fil0 {fill:none}
    .fil1 {fill:#2B2A29}
   ]]>
  </style>
 </defs>
 <g id="Layer_x0020_1">
  <metadata id="CorelCorpID_0Corel-Layer"/>
  <rect class="fil0" width="22000" height="22000"/>
  <path class="fil1" d="M19446.59 11123c-3.34,-2.92 -7.19,-3.74 -10.95,-3.06 111.38,-89.95 239.95,-198.44 335.47,-322.28 -76.35,139.41 -184.85,266.1 -324.52,325.35zm-14000.65 1706.44c-0.1,3.94 -0.21,7.83 -0.31,11.76 -0.05,0.81 -1.31,0.83 -1.34,0 -0.11,-3.94 -0.23,-7.81 -0.34,-11.74 -0.04,-1.28 1.99,-1.26 1.99,-0.02zm-3217.05 -1976.44c95.47,123.86 224.07,232.35 335.48,322.31 -3.82,-0.7 -7.7,0.17 -10.99,3.1 -139.72,-59.29 -248.19,-185.93 -324.49,-325.41zm299.28 415.43c8.04,0.15 15.15,0.68 21.68,1.2 -36.68,145.06 -139.42,254.41 -215.08,382.29 -40.59,68.62 -72.7,143.31 -94.08,220.71 8.58,-92.89 25.3,-183.65 70.07,-277.06 56.47,-117.85 140.96,-220.74 217.42,-327.15zm-51.45 4.83c-137.15,175.58 -281.81,393.65 -297.72,616.18 -5.2,-58.65 -3.72,-118.15 -1.62,-159.2 4.94,-95.63 33.22,-186.69 82.72,-268.65 51.81,-85.76 120.28,-167.97 216.62,-188.33zm-203.63 639.95c28.58,-111.87 71.74,-215.63 139.92,-317.64 69.75,-104.41 142.26,-202.99 168.94,-325.52 0.67,-0.06 1.37,-0.13 2.04,-0.26 0.85,0.75 1.67,1.47 2.65,2.18 2.55,1.7 5.03,3.57 7.54,5.4 25.02,57.42 52.97,109.4 15.26,185.89 -33.32,67.59 -94.49,129.56 -139.78,189.26 -65.73,86.74 -131.41,173.52 -196.57,260.69zm61.04 -10.85c92.38,-118.81 183.68,-238.57 272.54,-359.8 38.89,-53.06 65.94,-124.19 64,-190.61 43.32,58.92 63.48,131.58 34.35,205.25 -30.71,77.61 -115.68,137.77 -175.7,192.94 -35.74,32.86 -70.12,69.03 -108.02,99.33 -26.41,21.12 -59.37,35.01 -87.18,52.88zm335.16 -752.61c-12.5,-11.35 -18.71,-56.09 -24.24,-72.47 -16.86,-49.89 -34.07,-99.97 -57.15,-147.4 -92.82,-190.75 -294.35,-327.9 -453.29,-464.64 29.17,2.02 114.25,63.35 132.42,73.71 96.93,55.17 191.42,116.9 270.83,195.89 92.09,91.65 176.17,219.26 171.18,354.63 -2.76,19.75 -5.52,39.53 -8.28,59.33 -18.56,26.47 -29.03,26.79 -31.48,0.94zm-87.35 39.7c-1.26,-0.42 -2.48,-0.89 -3.73,-1.34 -0.19,-0.85 -0.59,-1.59 -0.92,-2.4 1.55,1.24 3.09,2.51 4.65,3.74zm-445.78 -660.37c126.98,106.35 269.85,213.56 364.41,345.92 52.73,73.76 78.05,158.04 104.3,243.05 -143.44,-206.56 -299.54,-402.74 -468.7,-588.97zm27.13 86.11c134.18,155.62 260.47,317.64 378.41,485.87 -75.94,-63.8 -149.46,-130.43 -214.46,-205.43 -77.11,-89.02 -123.43,-180.61 -163.94,-280.44zm1425.26 787.33c-36.09,25.85 -69.81,58.97 -91.39,76.01 -100.94,79.55 -196.44,170.33 -261.4,282.47 -91.88,158.64 -115.68,359.32 -104.81,550.85 -11.57,-49.78 -23.19,-99.52 -34.5,-149.37 -33.85,-148.99 1.07,-279.43 54.15,-419.85 81.59,-215.85 242.52,-309.01 437.94,-340.11zm-356.76 497.94c40.47,-110.68 110.16,-206.41 193.78,-288.5 13.68,-13.42 125.49,-101.84 197.68,-158.49 -124.84,162.11 -224.11,345.49 -304.63,532.41 -43.87,101.79 -102.02,235.34 -130.34,367.27 -7.73,-152.09 -11.94,-301.01 43.51,-452.69zm-2.29 576.98c8.81,-62.3 16.56,-125.02 33.96,-186.19 32.52,-114.37 76.09,-225.35 125.06,-333.64 81.44,-180.22 186.25,-344.35 296.34,-507.24 39.72,192.2 -108.4,430.59 -191.43,589.12 -78.78,150.44 -168.63,297.03 -263.94,437.94zm9.82 47.71c141.86,-182.06 261.1,-375.43 360.96,-584.39 72.19,-151.04 166.29,-328.34 130.26,-497.33 112.11,62.32 112.87,247.41 83.17,357.33 -31.79,117.56 -104.15,220.37 -177.45,315.68 -116.82,151.89 -251.1,286.02 -396.94,408.7zm382.16 -1869.48c-73.91,-114.78 -175.64,-207.53 -272.4,-302.48 -90.81,-89.13 -178.58,-184.09 -277,-265.28 -2.91,-4.71 -5.86,-9.38 -8.84,-14.04 217.33,124.12 436.37,256.77 590.81,457.7 170.43,221.76 204.17,479.32 128.19,739.54 14.49,-83.79 -8.82,-185.22 -23.2,-261.7 -23.44,-124.7 -68.72,-246.82 -137.55,-353.74zm-237.39 6.31c72.3,103.81 135.68,212.72 192.05,325.94 39.33,79.04 71.93,163.5 111.08,243.65 -158.98,-140.25 -283.67,-310.73 -381.59,-500.18 -56.61,-109.65 -105.17,-223.45 -150.08,-338.31 -13.63,-34.94 -33.88,-73.52 -46.74,-112.35 76.3,136.78 192.62,262.48 275.28,381.25zm-235.41 -442.35c144.45,144.85 307.96,274.3 421.33,444.41 72.05,108.07 115.68,231.95 140.08,358.88 8.16,42.49 8.97,90.48 10.77,138.5 -65.9,-175.61 -166.56,-349.94 -266.16,-496.78 -67.81,-99.93 -143.83,-193.93 -213.14,-292.73 -34.37,-49.05 -63.86,-100.57 -92.89,-152.28zm-72.77 95.71c142.09,377.83 319.01,743.82 648.72,992.6 -4.68,-0.37 -9.33,-0.74 -13.97,-1.15 -249.98,-59.08 -454.9,-331.59 -540.04,-555.1 -53.19,-139.75 -79.26,-287.41 -94.71,-436.35zm1925.19 1156.77c-195.37,85.57 -363.34,316.39 -437.43,497.04 -49.85,121.53 -65.67,267.27 -70.15,397.84 -3.54,105 13.67,208.02 25.09,311.8 -67.25,-233.36 -135.33,-475.51 -60.04,-710.57 80.5,-251.1 269.63,-488.2 542.53,-496.1zm-409.11 565.77c42.03,-133.98 128.22,-258.81 224.9,-359.17 61.45,-63.79 134.92,-111.26 203.61,-164.95 -41.33,86.93 -78.87,177.43 -119.71,263.13 -56.42,118.43 -110.87,237.7 -163.81,357.67 -48.8,110.67 -100.13,221.75 -140.91,335.7 -12.9,36.09 -24.07,72.93 -31.93,110.42 -5.97,-32.77 -11.94,-65.17 -15.47,-96.59 -16.05,-142.63 0.47,-309.51 43.32,-446.2zm16.69 629.32c1.22,-42.48 3.51,-84.6 15.93,-129.61 39.71,-143.81 109.35,-284.21 168.63,-420.49 61.07,-140.32 124.92,-279.44 191.09,-417.39 28.76,-59.93 85.31,-139.78 100.16,-215 35.04,91.76 23.49,229.04 17.64,304.97 -11,142.07 -83.47,252.83 -158.57,368.96 -108.89,168.44 -230.68,335.07 -334.87,508.56zm52.73 40.84c70.2,-104.25 134.28,-213.82 201.93,-318.56 84.71,-131.19 189.01,-262.94 251.21,-406.8 58.3,-134.73 56.18,-292.66 35.95,-435.62 -3.21,-22.73 -7.64,-46.49 -14.9,-68.48 386.99,428.25 -93.93,919.96 -474.19,1229.45zm200.09 -2056.13c-61.12,-121.44 -122.93,-242.54 -183.32,-364.35 -19.86,-40.02 -37.13,-83.11 -54.59,-126.43 20.68,21.79 42.5,42.66 64.19,63.12 103.82,98.04 198.19,202.11 277.36,321.45 82.5,124.46 148.38,259.4 196.35,400.84 40.29,118.76 85.46,257.22 31.3,374.37 -93.72,-229.02 -220.08,-448.15 -331.3,-669.01zm387.48 647.35c69.82,-179.4 -70.84,-463.01 -142.97,-604.81 -66.63,-131.02 -150.57,-253.76 -248.23,-363.55 -105.2,-118.27 -243.01,-209.43 -305.68,-357.72 105.6,76.36 207.86,157.04 305.7,243.32 106.93,94.18 229.22,195.54 305.46,317.11 73.52,117.22 127.48,265.93 154.69,401.62 28.04,139.74 4.97,256.45 -68.98,364.03zm-699.34 -1164.6c22.33,48.78 48.07,96.26 69.75,140.77 55.92,114.72 114.2,228.35 171.5,342.38 121.15,241.19 230.22,495.84 370.7,726.29 -11.09,0.53 -22.11,0.64 -32.99,0.26 -184.38,-187.26 -345.07,-372.4 -436.4,-625.78 -41.48,-115.04 -71.02,-234.1 -97.7,-353.3 -12.8,-57.13 -26.11,-114.41 -36.86,-171.95 -3.67,-19.37 -5.95,-39.02 -8.01,-58.67zm-12.29 206.29c30.12,138.2 63.27,276.28 112.37,409.16 87.17,235.78 230.94,417.8 408.2,585.71 -240.04,-51.62 -419.19,-315.11 -514.3,-524.45 -98.03,-215.83 -79.56,-460.06 -53.87,-696.61 4.43,77.19 33.32,160.78 47.59,226.2zm-23.88 -395.19c-0.66,1.07 -1.11,2.29 -1.52,3.53 -1.44,-0.34 -2.82,-0.43 -4.24,-0.32 0.24,-2.28 0.45,-4.54 0.67,-6.82 1.69,1.19 3.38,2.43 5.09,3.61zm-8.22 64.28c-2.09,4.81 -3.91,9.71 -5.56,14.71 0.98,-9.04 1.96,-18 2.93,-26.97 0.79,4.09 1.71,8.2 2.63,12.26zm2088.1 1258.51c11.83,-2.54 23.67,-5.13 35.5,-7.73 -90.42,55.18 -159.92,144.64 -220.27,230.47 -97.37,138.48 -183.64,290.25 -256.05,443.15 -81.03,171.11 -166.43,379.36 -189.04,584.71 -36.23,-253.71 -24.49,-504.08 123.78,-736.8 118.21,-185.39 292.78,-409.03 506.07,-513.8zm-585.57 1341.6c-0.7,-72.96 4.02,-146.08 20.55,-223.38 33.58,-157.56 94.3,-307.81 168.85,-450.13 67.76,-129.38 142.63,-254.87 224.41,-375.86 81.65,-120.91 181.83,-211.44 280.44,-316.14 12.35,-2.78 24.72,-5.56 37.06,-8.37 -275.86,424.55 -606.04,874.5 -731.31,1373.88zm50.56 -4.41c140.59,-503.74 464.17,-941.58 737.67,-1382.33 4.54,-1.05 9.07,-2.09 13.57,-3.15 183.87,267.81 -190.84,696.17 -351.4,889.13 -95.48,114.72 -194.36,226.7 -285.38,345.05 -35.77,46.49 -77.21,97.49 -114.46,151.3zm22.62 75.66c11.18,-19.33 22.54,-38.45 34.78,-56.81 55.52,-83.24 117.23,-162.07 180.73,-239.31 110.67,-134.62 227.54,-264.15 332.75,-403.19 136.08,-179.74 392.23,-542.73 233.46,-772.11 15.88,0.88 31.84,2.31 48.03,4.81 123.32,86.89 147.66,257.65 111.17,404.66 -45.21,181.89 -165.87,337.72 -294.07,469.74 -204.32,210.39 -449,376.8 -646.85,592.2zm752.88 -1577.31c-1.2,3.44 -1.05,6.61 -0.37,9.59 -5.86,1.41 -11.74,2.76 -17.61,4.13 -0.99,-169.45 -22.41,-339.77 -52.45,-506.26 -26.22,-145.22 -69.49,-247.28 -175.63,-351.2 -193.12,-189.09 -411.81,-387.23 -645.91,-537.92 258.44,120.76 524.29,265.12 716.39,462.54 237.87,244.49 286.7,605.06 175.59,919.13zm-1034.35 -1416.9c227.87,179.59 466.29,340.53 680.13,539.36 52.5,48.8 107.74,97.1 150.25,155.17 52.95,72.25 69.52,156.6 85.07,243.18 29.94,166.62 44.39,334.17 61.06,502.33 -8.07,1.86 -16.16,3.7 -24.23,5.58 -1.35,-0.15 -2.71,-0.43 -4.09,-0.62 -40.98,-139.85 -119.28,-277.06 -187.44,-404.07 -72.36,-134.84 -154.51,-262.91 -248.56,-383.6 -92.76,-119.07 -194.87,-230.28 -290.93,-346.6 -81.72,-99.04 -148.32,-206.8 -221.26,-310.73zm-25.3 129.81c65.11,266.02 172.26,520.19 321.1,751.27 86.7,134.63 186.39,263.65 300.39,376.35 46.78,46.28 103.89,100.87 166,145.47 -230.96,-76.4 -425.11,-235.8 -559.75,-450.27 -154.71,-246.44 -216.25,-534.72 -227.73,-822.82zm820.43 1237.16c-68.73,-50.24 -132.4,-108.89 -191.54,-170.05 -109.09,-112.81 -204.31,-239.31 -287.12,-372.44 -131.57,-211.63 -227.88,-441.5 -289.67,-681.64 111.13,170.91 272.2,325.3 392.64,471.51 111.45,135.23 211.25,275.94 296.8,429.02 71.63,128.18 125.07,273 203.85,397.35 -4.81,-0.79 -9.7,-1.4 -14.48,-2.25 -35.94,-24.78 -74.98,-45.53 -110.48,-71.51zm1772.78 -32.54c-378.7,337.78 -600.04,855.2 -552.77,1360.2 -108.39,-304.61 -181.65,-639.5 -17.53,-933.74 125.55,-225.24 349.43,-324.96 570.3,-426.46zm70.44 1.48c-127.22,236.69 -243.2,478.95 -347.61,726.74 -62.09,147.32 -122.56,296 -170.77,448.56 -24.42,77.24 -50.85,159.76 -65.38,242.97 -71.45,-532.38 194.01,-1059.53 583.76,-1418.26zm-530.52 1437.8c19.65,-90.08 36.65,-181.07 65.3,-269.14 47.06,-144.65 104.62,-285.86 163.87,-425.9 117.35,-277.43 249.56,-548.47 392.57,-813.59 0.6,0 1.14,0 1.73,0 -25.44,293.13 -113.86,573.7 -239.73,839.96 -110.4,233.7 -256.11,445.7 -383.73,668.67zm41.48 39.68c162.93,-234.17 301.27,-498.35 415.04,-755.8 108.81,-246.28 185.67,-503.65 207.34,-771.27 68.11,314.77 58.21,713.94 -97.33,997.97 -121.87,222.63 -321.78,382.6 -525.06,529.1zm594.23 -2157.78c-64.04,-164.22 -151.62,-318.34 -256.8,-459.61 -104.8,-140.76 -225.43,-269.24 -356.91,-385.37 -79.88,-70.61 -172.62,-157.24 -270.59,-222.39 558.63,204.36 1062.93,804.98 982.75,1405.57 -18.28,-117.58 -58.97,-236.54 -98.45,-338.21zm-992.59 -1079.22c103.18,98.67 236.67,176.07 342.43,270.68 132.1,118.27 255.34,247.3 360.36,390.41 105.11,143.29 193.23,300.6 254.22,467.76 54.67,149.75 66.29,300.11 96.34,453.14 -6.57,-0.2 -13.12,-0.37 -19.69,-0.52 -4.39,-0.64 -8.78,-1.18 -13.08,-1.83 -22.04,-65.92 -73.24,-123.55 -112.35,-180.15 -44.54,-64.7 -89.7,-129.02 -134.54,-193.56 -97.09,-139.5 -194.65,-278.64 -290.78,-418.85 -95.17,-138.86 -188.68,-279.01 -276.61,-422.69 -69.91,-114.19 -124.97,-256 -206.3,-364.41zm270.64 902.7c-88.93,-136.31 -157.67,-285.02 -204.29,-440.94 -33.6,-112.45 -43.36,-226.42 -58.54,-340.19 49.66,99.39 119.7,196.24 172.68,282.28 88.31,143.42 182.01,283.39 277.21,422.33 100.16,146.15 201.6,291.46 302.63,437.06 64.25,92.64 128.8,227.69 216.7,309.01 -8.15,-1.47 -16.4,-2.86 -24.55,-4.48 -230.27,-221 -502.16,-389.58 -681.84,-665.06zm-312.16 -749.55c8.16,109.74 37.05,223.17 65.66,320.23 45.27,153.61 111.81,301.5 197.12,437.03 90.26,143.3 202.2,269.14 327.84,382.42 91.46,82.53 185.7,168.12 284.24,246.6 -263.25,-73.11 -509.91,-215.29 -675.47,-434.69 -202.41,-268.24 -221.29,-620.2 -199.39,-951.59zm2115.64 1196.85c-128.44,-216.62 -203.74,-459.18 -226.08,-707.36 38.29,212.3 122.1,421.57 225.16,596.86 144.51,245.71 342.28,492.15 562.66,685.17 -223.78,-152.78 -419.35,-334.37 -561.74,-574.67zm502.53 725.2c2.36,0.32 4.69,0.65 7.11,0.96 -45.67,54.51 -73.09,126.59 -107.22,188.37 -37.88,68.74 -77.01,136.95 -119.97,202.69 -88.56,135.27 -192.53,249.26 -318.41,350.13 -159.38,127.8 -375.47,240.06 -508,407.49 105.2,-214.99 250.69,-395.46 417.94,-577.67 190.12,-207.14 383.48,-428.76 628.56,-571.97zm-103.65 22.81c-222.08,147.71 -402.74,354.91 -582.61,549.2 -129.4,139.78 -287.14,305.3 -383.02,488.78 27.56,-119.73 97.46,-243.09 151.97,-334.98 66.76,-112.49 146.12,-218.74 236.33,-313.5 92.42,-97.15 195.95,-183.87 309.57,-255.26 85.78,-53.93 177.91,-90.79 267.76,-134.24zm-33.7 -37.56c-241.29,64.62 -471.37,259.25 -626.76,437.52 -97.24,111.51 -177.29,235.11 -241.83,368.19 -42.74,88 -95.44,192.01 -114.1,295.32 -3.53,-98.31 0.15,-195.71 22.52,-297.94 36,-164.07 103.43,-321.13 205.96,-454.61 108.22,-140.69 255.36,-250.31 423.29,-309.07 113.72,-39.78 220.17,-46.74 330.93,-39.42zm-905.21 1240.75c80.65,-90.76 162.71,-172.16 264.03,-247.78 104.36,-77.8 214.28,-148.52 313.06,-233.59 109.78,-94.62 201.15,-211.32 280.18,-332.26 78.32,-119.8 193.15,-277.18 217.54,-419.88 1.2,-1.67 1.95,-3.58 2.63,-5.46 9.82,5.07 19.56,10.53 29.3,15.77 -12.16,1.48 -23.33,9.82 -23.26,25.71 1.67,304.69 -197.89,548.25 -415.11,740.67 -203.11,179.89 -427.96,332.26 -668.37,456.82zm1116.49 -1427.36c-193.36,-199.76 -385.99,-396.85 -530.88,-639.12 -86.06,-143.85 -151.3,-299.53 -193.51,-461.74 -27.87,-107.43 -39.57,-213.88 -47.49,-321.59 82.14,233.66 232.09,456.68 348.67,661.31 90.75,159.47 181.59,318.92 272.36,478.42 49.97,87.62 96.39,189.21 150.85,282.71zm-93.77 -265.04c-86.17,-153.72 -172.23,-307.41 -258.38,-461.15 -82.91,-148.05 -168.76,-294.76 -247.53,-445.03 -65.75,-125.43 -112.8,-252.77 -157.65,-383.97 43.96,29.92 89.33,57.94 130.11,93.34 57.92,50.2 110.53,106.37 158.7,165.87 104.87,129.47 188.15,275.12 262.53,423.71 86.92,173.75 162.1,353.92 216.25,540.73 35.57,123.03 54.22,247.09 73.1,372 -50.96,-105.77 -122.77,-208.49 -177.13,-305.5zm220.98 407.29c14.52,-358.64 -151.14,-740.77 -308.49,-1052.33 -76.11,-150.71 -162.19,-297.72 -270.09,-428.09 -83.66,-100.98 -197.89,-224.92 -325.64,-275.33 -1.22,-3.49 -2.42,-7 -3.56,-10.51 660.52,326.87 1024.97,1041.91 911.43,1768.44 -1.22,-0.75 -2.42,-1.45 -3.65,-2.19zm-7828.24 -76.72c-16.36,-2.14 -31.51,-3.49 -41.08,-1.17 -39.57,9.65 -74.16,39.27 -104.98,64.7 -77.73,64.19 -139.53,147.24 -179.46,239.8 -41.65,96.66 -56.34,198.9 -49.14,303.52 6.07,88.46 5.93,210.56 61.9,282.3 5.05,6.45 12.24,8.61 19.55,8.11 4.12,9.91 18.03,7.79 18.91,-3.1 0.15,-1.43 0.22,-2.82 0.32,-4.26 0.39,-0.28 0.75,-0.49 1.07,-0.75 45.46,-36.53 79.3,-84.9 124.22,-119.89 31.34,-24.39 64.58,-41.23 94.87,-68.24 91.01,-81.2 201.45,-163.33 275.68,-260.54 93.33,-122.32 56.29,-265.38 -43.16,-360.28 254.3,29.11 508.8,57.92 763.58,83.17 -130.98,42.57 -244.35,130.17 -310.61,265.83 -64.03,130.96 -128.22,305.63 -109.63,453.14 22.89,181.48 82.35,363.62 120.51,542.67 3.89,18.25 29.9,30.16 45.67,18.6 246.29,-180.66 497.39,-422.57 637.26,-698.17 70.58,-139.01 121.33,-482.67 -69,-552.94 278.65,23.77 557.72,41.78 837.39,49.5 69.63,1.93 139.31,3.21 208.94,3.78 -166.56,72.94 -294.83,229.09 -369.05,404.15 -144.1,339.74 -17.87,666.5 68.31,1004.98 4.63,18.12 30.51,31.86 47.07,19.15 274.52,-210.71 583.09,-437.65 724.15,-765.72 83.61,-194.46 94.22,-514.95 -81.62,-667.51 358.97,-12.02 717.04,-45.78 1071.08,-109.2 57.07,-10.23 113.95,-21.23 170.76,-32.66 -137.87,106.97 -254.3,254.35 -349.2,387.25 -246.01,344.41 -211.27,717.38 -121.19,1107.51 -1.05,4.2 -2.29,8.37 -3.17,12.57 -1.84,8.57 3.68,17.03 10.95,20.57 0.02,0.21 0.07,0.44 0.15,0.64 3.07,12.8 12.91,18.46 23.37,18.57 0.48,1.26 0.84,2.57 1.29,3.87 4.75,13.19 27.14,12.2 25.96,-3.51 -0.34,-4.64 -0.71,-9.13 -1.05,-13.73 265.91,-357.54 688.98,-565.69 932.25,-942.62 129.87,-201.22 212.89,-553.61 -3.27,-705.01 320.08,-74.2 639.91,-149.13 965.61,-195.25 134.44,-19.07 268.33,-31.23 401.84,-36.99 -236.54,97.34 -462.74,257.61 -579.06,476.79 -199.58,376.19 -43.58,806.72 97.86,1172.61 2.17,5.58 6.03,10.76 10.81,14.81 0.21,1.78 0.28,3.55 0.53,5.31 1.22,9.22 13.52,11.94 16.71,2.29 0,-0.04 0.02,-0.06 0.02,-0.11 5.33,0.34 10.76,-0.72 15.97,-4.39 252.59,-177.13 518.61,-370.48 659.35,-653.72 147.23,-296.35 153.89,-695.41 79.51,-1015.12 321.43,10.41 640.26,59.47 957.01,147.55 157.52,43.79 313.12,97.17 462.41,164.4 -299.59,-55.8 -636.73,121.46 -820.28,344.33 -221.7,269.26 -332.01,694.7 -250.01,1037.02 4.47,18.49 25.08,23.69 40.48,16.39 304.9,-144.78 591.21,-333.39 837.89,-564.54 206.96,-194 380.53,-437.65 376.14,-732.11 0.03,-3.75 -0.89,-6.83 -2.09,-9.74 8.67,4.8 17.44,9.3 25.96,14.24 208.7,120.09 379.94,277.78 540.08,455.76 26.73,29.65 71.74,-8.52 53.55,-41.28 -106.39,-191.63 -267.74,-342.22 -454.25,-461.86 3.25,-2.45 4.15,-8.22 -0.22,-10.72 -4.09,-2.4 -8.09,-4.86 -12.15,-7.26 138.86,-765.3 -262.46,-1533.65 -972.43,-1858.86 -13.14,-6.04 -34.59,-2.54 -37.39,15.21 -95.65,610.93 148.83,1304.28 654.03,1672.93 -148.9,-61.22 -301.48,-109.43 -446.53,-148.22 -300.66,-80.34 -603.96,-127.6 -909.39,-140.17 235.13,-729.24 -460.36,-1531.25 -1153.75,-1673.15 -18.62,-3.84 -33.02,7.96 -34.7,26.43 -37.3,407.93 -61.55,874.68 205.59,1215.12 168.2,214.32 409.26,354.88 668.54,430.94 -139.22,5.2 -278.89,17.65 -418.8,37.65 -354.56,50.57 -702.32,136.49 -1050.76,218.99 121.46,-284.78 75.5,-626.46 -111.16,-873.54 -108.34,-143.45 -260.48,-244.35 -411.97,-337 -190.59,-116.61 -389.12,-218.93 -593.41,-309.3 -18.08,-8.01 -38.59,1.26 -39.39,22.59 -14,386.27 44.78,794.33 276.85,1114.63 151.45,209 380.14,379.83 634.69,439.27 -131.59,29.67 -263.5,57.66 -396.19,81.74 -316.87,57.46 -635.67,90.36 -955.43,105.56 203.72,-162.43 76.73,-537.68 -7.47,-729.75 -74.95,-171.06 -205.98,-292.66 -342.91,-415.58 -136.56,-122.56 -281.48,-234.81 -432.65,-338.7 -19.95,-13.74 -42.72,5.06 -44.39,25.45 -15.93,196.27 -44.5,396.26 -41.73,593.33 2.27,159.3 48.26,302.27 123.67,441.56 93.39,172.57 234.46,355.29 417.19,433.28 -375.3,4.3 -751.43,-12.8 -1126.82,-40.97 93.26,-265.05 71.12,-538.2 -91.65,-773.89 -171.74,-248.67 -437.28,-401.93 -694.69,-547.63 -18.11,-10.25 -44.76,2.48 -43.43,24.93 17.26,293.97 38.37,601.33 178.25,866.83 70.61,133.98 172.7,245.74 292.41,337.67 30.07,23.09 62.92,48.42 97.72,70.78 -276.61,-24.14 -552.64,-52.93 -827.41,-82.21 84.64,-132.41 -23.03,-350.19 -106.76,-452.52 -69.39,-84.78 -157.25,-152.8 -249.42,-211.14 -84.83,-53.68 -185.93,-123.46 -283.93,-148.85 -8.28,-2.18 -17.66,-0.09 -23.67,6.23 -50.74,53.22 -10.01,148.17 7.54,209.87 28.83,101.19 72,198.83 127.33,288.31 69.24,112.02 167.18,238.41 291.17,298.72zm14054.09 1571.11c0.09,3.91 0.21,7.83 0.3,11.72 0,0.86 1.28,0.86 1.28,0 0.15,-3.9 0.22,-7.81 0.39,-11.7 0,-1.26 -2.06,-1.26 -1.97,-0.02zm3135.19 -1233.89c44.69,93.43 61.45,184.2 70.07,277.09 -21.44,-77.4 -53.55,-152.09 -94.17,-220.75 -75.57,-127.85 -178.42,-237.24 -215.04,-382.26 6.57,-0.54 13.6,-1.05 21.68,-1.22 76.5,106.44 160.97,209.32 217.46,327.15zm50.6 -133.96c49.52,81.96 77.82,173.02 82.74,268.65 2.12,41.03 3.55,100.55 -1.67,159.19 -15.83,-222.54 -160.52,-440.59 -297.63,-616.17 96.27,20.35 164.74,102.56 216.56,188.32zm-209.54 190.93c-45.22,-59.78 -106.46,-121.65 -139.76,-189.28 -37.67,-76.52 -9.74,-128.44 15.24,-185.89 2.51,-1.81 4.99,-3.69 7.56,-5.41 0.99,-0.66 1.74,-1.39 2.57,-2.14 0.76,0.06 1.43,0.15 2.03,0.25 26.74,122.51 99.29,221.13 169,325.5 68.17,101.98 111.36,205.81 139.91,317.62 -65.17,-87.15 -130.86,-173.9 -196.54,-260.65zm48.33 196.93c-37.85,-30.3 -72.28,-66.45 -107.97,-99.31 -60.04,-55.19 -145.06,-115.36 -175.7,-192.96 -29.15,-73.7 -9,-146.32 34.35,-205.24 -1.97,66.39 25.14,137.56 63.95,190.57 88.86,121.2 180.23,241.04 272.57,359.87 -27.78,-17.89 -60.78,-31.78 -87.19,-52.93zm-279.38 -700.69c-2.8,-19.78 -5.58,-39.53 -8.31,-59.28 -4.99,-135.4 79.05,-262.98 171.16,-354.63 79.37,-79.02 173.9,-140.72 270.84,-195.92 18.13,-10.36 103.22,-71.65 132.44,-73.69 -158.94,136.74 -360.54,273.89 -453.33,464.64 -23.1,47.41 -40.33,97.51 -57.15,147.4 -5.51,16.33 -11.7,61.12 -24.16,72.46 -2.48,25.86 -12.99,25.52 -31.49,-0.98zm123.45 36.93c-0.39,0.78 -0.78,1.56 -0.99,2.37 -1.2,0.43 -2.5,0.96 -3.7,1.42 1.52,-1.28 3.1,-2.51 4.69,-3.78zm-27.57 -67.68c26.19,-84.99 51.49,-169.26 104.28,-243.05 94.53,-132.34 237.38,-239.5 364.38,-345.87 -169.13,186.2 -325.29,382.4 -468.66,588.92zm277.56 -222.38c-65,74.98 -138.54,141.64 -214.44,205.43 117.95,-168.25 244.19,-330.29 378.43,-485.87 -40.53,99.8 -86.9,191.4 -163.98,280.44zm-823.31 846.98c53.08,140.4 87.97,270.87 54.07,419.86 -11.32,49.85 -22.89,99.59 -34.44,149.35 10.81,-191.54 -12.97,-392.19 -104.87,-550.83 -64.91,-112.16 -160.43,-202.92 -261.39,-282.52 -21.5,-16.99 -55.26,-50.15 -91.35,-75.96 195.47,31.04 356.39,124.28 437.99,340.1zm-37.67 610.54c-28.38,-131.94 -86.53,-265.52 -130.4,-367.27 -80.48,-186.91 -179.77,-370.3 -304.66,-532.41 72.26,56.61 184,145.07 197.74,158.49 83.6,82.06 153.28,177.82 193.74,288.49 55.5,151.64 51.29,300.63 43.57,452.69zm-305.18 -313.68c-83.07,-158.53 -231.13,-396.89 -191.49,-589.09 110.1,162.83 214.97,327.01 296.43,507.23 48.93,108.25 92.51,219.3 125.04,333.64 17.37,61.14 25.15,123.89 33.91,186.19 -95.29,-140.91 -185.14,-287.51 -263.88,-437.97zm-142.87 76.97c-73.23,-95.31 -145.64,-198.08 -177.43,-315.68 -29.66,-109.99 -28.91,-295.02 83.19,-357.34 -36.08,168.98 58.07,346.27 130.27,497.34 99.89,208.96 219.1,402.33 360.91,584.39 -145.8,-122.7 -280.14,-256.82 -396.94,-408.71zm-122.76 -1107.05c-14.33,76.47 -37.69,177.89 -23.18,261.69 -76.02,-260.2 -42.29,-517.76 128.2,-739.51 154.43,-200.98 373.45,-333.61 590.83,-457.73 -3,4.67 -5.96,9.37 -8.9,14.06 -98.39,81.16 -186.12,176.15 -276.96,265.27 -96.8,94.96 -198.51,187.73 -272.44,302.49 -68.85,106.91 -114.07,229.01 -137.56,353.73zm650.24 -728.69c-12.91,38.82 -33.06,77.4 -46.74,112.35 -44.9,114.89 -93.46,228.69 -150.1,338.29 -97.91,189.5 -222.59,359.98 -381.53,500.22 39.13,-80.15 71.66,-164.6 111.08,-243.69 56.33,-113.22 119.75,-222.09 192.01,-325.91 82.68,-118.77 198.96,-244.43 275.28,-381.26zm-132.81 91.19c-69.24,98.79 -145.28,192.8 -213.09,292.74 -99.59,146.83 -200.22,321.19 -266.15,496.78 1.73,-48.05 2.57,-96.01 10.73,-138.52 24.46,-126.94 68.1,-250.79 140.06,-358.86 113.41,-170.15 276.96,-299.56 421.38,-444.43 -29.06,51.71 -58.51,103.27 -92.93,152.29zm70.97 379.77c-85.09,223.53 -290,496.06 -540.02,555.13 -4.67,0.37 -9.29,0.77 -13.96,1.14 329.66,-248.79 506.63,-614.76 648.73,-992.58 -15.48,148.94 -41.52,296.6 -94.76,436.31zm-1287.96 1216.52c75.27,235.03 7.25,477.26 -60.04,710.6 11.41,-103.84 28.7,-206.8 25.08,-311.8 -4.45,-130.58 -20.3,-276.31 -70.16,-397.85 -74.05,-180.65 -241.98,-411.46 -437.39,-497.08 272.89,7.92 462,245.07 542.5,496.12zm-90.06 515.9c-3.56,31.39 -9.52,63.82 -15.49,96.59 -7.84,-37.55 -19.04,-74.34 -31.93,-110.42 -40.78,-113.98 -92.04,-225.07 -140.9,-335.73 -52.93,-119.96 -107.44,-239.26 -163.78,-357.64 -40.83,-85.77 -78.44,-176.19 -119.75,-263.13 68.72,53.68 142.19,101.16 203.65,164.95 96.64,100.34 182.87,225.18 224.84,359.17 42.9,136.66 59.35,303.58 43.37,446.21zm-394.91 -325.45c-75.13,-116.12 -147.53,-226.9 -158.55,-368.94 -5.82,-75.96 -17.45,-213.22 17.65,-304.97 14.87,75.21 71.44,155.02 100.12,214.93 66.16,137.98 130.02,277.15 191.1,417.46 59.27,136.25 128.89,276.68 168.6,420.46 12.46,45.01 14.73,87.13 15.94,129.64 -104.18,-173.51 -225.99,-340.15 -334.87,-508.57zm-192.01 -680.06c-7.22,21.98 -11.7,45.78 -14.87,68.5 -20.31,142.96 -22.34,300.9 35.87,435.61 62.3,143.85 166.57,275.63 251.28,406.81 67.66,104.72 131.75,214.31 201.9,318.56 -380.23,-309.5 -861.13,-801.2 -474.17,-1229.47zm-57.23 -157.65c-54.12,-117.19 -8.99,-255.61 31.34,-374.41 47.94,-141.47 113.86,-276.35 196.39,-400.81 79.13,-119.34 173.52,-223.42 277.32,-321.45 21.68,-20.48 43.48,-41.33 64.19,-63.11 -17.51,43.3 -34.74,86.4 -54.6,126.4 -60.4,121.79 -122.17,242.93 -183.32,364.35 -111.2,220.83 -237.55,440.04 -331.31,669.04zm-125.19 -385.71c27.27,-135.69 81.24,-284.38 154.7,-401.6 76.28,-121.57 198.57,-222.95 305.51,-317.15 97.86,-86.24 200.16,-166.93 305.72,-243.29 -62.76,148.28 -200.48,239.45 -305.65,357.68 -97.72,109.82 -181.67,232.57 -248.26,363.56 -72.11,141.83 -212.86,425.46 -142.93,604.85 -73.99,-107.58 -97.1,-224.3 -69.09,-364.05zm760.4 -741.91c-10.78,57.55 -24.07,114.84 -36.84,171.93 -26.73,119.18 -56.33,238.3 -97.7,353.34 -91.37,253.37 -252.04,438.53 -436.43,625.78 -10.95,0.37 -21.9,0.3 -33.07,-0.25 140.51,-230.52 249.63,-485.1 370.72,-726.29 57.33,-114.04 115.6,-227.67 171.48,-342.39 21.75,-44.53 47.5,-91.98 69.76,-140.81 -2.02,19.69 -4.31,39.34 -7.93,58.69zm67.81 -78.57c25.75,236.55 44.25,480.79 -53.83,696.62 -95.07,209.34 -274.23,472.83 -514.33,524.44 177.28,-167.93 321.1,-349.89 408.23,-585.72 49.08,-132.91 82.24,-270.94 112.37,-409.16 14.27,-65.41 43.17,-148.96 47.56,-226.19zm-18.58 -172.59c0.24,2.26 0.45,4.53 0.69,6.78 -1.43,-0.09 -2.87,0.02 -4.23,0.36 -0.45,-1.27 -0.91,-2.48 -1.51,-3.54 1.67,-1.2 3.41,-2.4 5.05,-3.61zm5.76 55.59c0.96,8.98 1.94,17.98 2.93,26.97 -1.65,-4.98 -3.47,-9.86 -5.59,-14.66 0.89,-4.11 1.88,-8.2 2.65,-12.31zm-1584.63 1784.6c148.3,232.69 159.98,483.07 123.81,736.76 -22.71,-205.36 -108.04,-413.55 -189.05,-584.68 -72.41,-152.89 -158.72,-304.65 -256.11,-443.15 -60.34,-85.87 -129.88,-175.27 -220.26,-230.49 11.85,2.61 23.72,5.2 35.48,7.8 213.3,104.72 387.95,328.36 506.12,513.77zm-651.83 -546.07c12.31,2.8 24.68,5.56 36.99,8.37 98.69,104.63 198.87,195.23 280.5,316.09 81.78,121.04 156.59,246.54 224.39,375.86 74.55,142.35 135.31,292.58 168.91,450.17 16.47,77.3 21.21,150.42 20.46,223.39 -125.25,-499.44 -455.37,-949.32 -731.26,-1373.87zm566.28 1218.15c-91.04,-118.33 -189.88,-230.3 -285.4,-345.01 -160.59,-192.99 -535.18,-621.33 -351.39,-889.15 4.52,1.02 9.05,2.1 13.59,3.13 273.47,440.76 597.08,878.56 737.67,1382.37 -37.21,-53.82 -78.76,-104.82 -114.46,-151.33zm-554.95 -365.24c-128.21,-132.03 -248.94,-287.8 -294.1,-469.71 -36.53,-147.04 -12.15,-317.77 111.15,-404.67 16.16,-2.53 32.17,-3.94 48.02,-4.83 -158.79,229.39 97.38,592.38 233.44,772.13 105.26,139.01 222.14,268.56 332.75,403.17 63.5,77.24 125.19,156.07 180.77,239.33 12.25,18.33 23.64,37.45 34.74,56.76 -197.82,-215.38 -442.54,-381.78 -646.77,-592.17zm69.54 -1904.24c192.09,-197.43 457.85,-341.76 716.38,-462.54 -234.06,150.72 -452.8,348.85 -645.86,537.94 -106.24,103.91 -149.49,205.98 -175.69,351.15 -30.05,166.51 -51.43,336.87 -52.48,506.31 -5.89,-1.37 -11.71,-2.76 -17.6,-4.13 0.69,-3 0.83,-6.15 -0.39,-9.59 -111.06,-314.07 -62.28,-674.64 175.63,-919.15zm637.42 -187.05c-95.97,116.33 -198.15,227.58 -290.87,346.58 -94.06,120.7 -176.22,248.81 -248.55,383.65 -68.19,127 -146.48,264.2 -187.49,404.07 -1.35,0.17 -2.73,0.45 -4.07,0.63 -8.07,-1.91 -16.16,-3.78 -24.26,-5.63 16.69,-168.11 31.13,-335.68 61.09,-502.29 15.56,-86.6 32.17,-170.93 85.1,-243.18 42.53,-58.09 97.7,-106.38 150.18,-155.19 213.9,-198.83 452.27,-359.74 680.24,-539.35 -73.01,103.91 -139.61,211.71 -221.37,310.72zm18.85 641.92c-134.62,214.46 -328.74,373.89 -559.78,450.28 62.15,-44.63 119.24,-99.24 166.04,-145.48 114.01,-112.73 213.66,-241.7 300.44,-376.34 148.81,-231.11 255.96,-485.25 321.04,-751.29 -11.39,288.11 -73.01,576.42 -227.74,822.83zm-703.17 485.83c-4.81,0.83 -9.67,1.5 -14.5,2.23 78.83,-124.37 132.22,-269.13 203.86,-397.33 85.56,-153.07 185.35,-293.76 296.8,-429.02 120.53,-146.21 281.5,-300.58 392.64,-471.51 -61.77,240.16 -158.05,470.03 -289.64,681.62 -82.81,133.15 -178.04,259.66 -287.15,372.47 -59.11,61.17 -122.76,119.82 -191.55,170.08 -35.41,25.94 -74.53,46.69 -110.46,71.46zm-1091.93 322.42c164.05,294.23 90.81,629.15 -17.53,933.72 47.25,-504.97 -174.11,-1022.42 -552.78,-1360.15 220.86,101.47 444.65,201.23 570.3,426.43zm-57.01 993.24c-14.5,-83.2 -40.93,-165.66 -65.39,-242.94 -48.24,-152.52 -108.73,-301.21 -170.8,-448.52 -104.43,-247.85 -220.41,-490.04 -347.54,-726.78 389.74,358.76 655.15,885.93 583.73,1418.25zm-437.03 -649.09c-125.78,-266.24 -214.29,-546.8 -239.65,-839.94 0.53,-0.02 1.13,0 1.65,0 143.02,265.12 275.22,536.17 392.63,813.59 59.28,139.97 116.74,281.26 163.83,425.9 28.7,88.07 45.7,179.06 65.33,269.12 -127.61,-222.97 -273.41,-434.95 -383.8,-668.67zm-182.72 179.25c-155.54,-284.01 -165.43,-683.19 -97.33,-997.95 21.6,267.62 98.47,524.99 207.35,771.23 113.71,257.48 252.04,521.67 414.95,755.87 -203.24,-146.55 -403.11,-306.49 -524.97,-529.15zm-167.7 -1290.47c-80.2,-600.6 424.18,-1201.17 982.85,-1405.57 -98.09,65.13 -190.81,151.79 -270.69,222.4 -131.46,116.11 -252.13,244.61 -356.91,385.35 -105.17,141.24 -192.78,295.43 -256.73,459.65 -39.55,101.63 -80.26,220.61 -98.52,338.17zm884.76 -1053.02c-87.94,143.63 -181.43,283.83 -276.66,422.7 -96.03,140.17 -193.65,279.35 -290.69,418.85 -44.85,64.51 -90.01,128.85 -134.63,193.53 -39.1,56.61 -90.3,114.27 -112.26,180.17 -4.39,0.64 -8.78,1.2 -13.08,1.83 -6.55,0.16 -13.2,0.33 -19.78,0.52 30.05,-153.05 41.68,-303.39 96.34,-453.14 61.11,-167.16 149.13,-324.47 254.24,-467.79 105.03,-143.12 228.24,-272.15 360.38,-390.39 105.71,-94.64 239.2,-172.01 342.5,-270.68 -81.41,108.37 -136.54,250.22 -206.37,364.39zm-746.22 1203.38c-8.15,1.61 -16.3,2.97 -24.52,4.46 87.89,-81.29 152.52,-216.35 216.77,-308.98 100.96,-145.6 202.34,-290.89 302.56,-437.07 95.2,-138.93 188.89,-278.91 277.17,-422.33 53.02,-86.06 123.06,-182.93 172.76,-282.28 -15.26,113.75 -24.92,227.74 -58.51,340.19 -46.6,155.91 -115.39,304.65 -204.33,440.94 -179.69,275.45 -451.6,444.06 -681.9,665.05zm794.63 -463.03c-165.5,219.36 -412.2,361.6 -675.48,434.71 98.54,-78.5 192.75,-164.06 284.28,-246.6 125.63,-113.31 237.53,-239.09 327.76,-382.43 85.4,-135.55 151.92,-283.41 197.15,-437.03 28.61,-97.13 57.53,-210.48 65.68,-320.28 21.92,331.43 3.02,683.42 -199.39,951.63zm-2477.93 819.93c220.32,-193.04 418.15,-439.44 562.57,-685.18 103.08,-175.26 186.89,-384.57 225.25,-596.84 -22.34,248.19 -97.63,490.74 -226.07,707.35 -142.39,240.24 -338.01,421.91 -561.74,574.67zm687.78 722.52c167.24,182.18 312.65,362.65 417.82,577.66 -132.41,-167.48 -348.6,-279.69 -507.99,-407.53 -125.78,-100.85 -229.82,-214.82 -318.32,-350.13 -43.04,-65.7 -82.14,-133.89 -120.05,-202.66 -34.04,-61.79 -61.53,-133.83 -107.14,-188.34 2.36,-0.34 4.69,-0.63 7.11,-0.96 245,143.19 438.37,364.83 628.58,571.97zm-257.18 -414.96c113.57,71.43 217.15,158.12 309.57,255.27 90.15,94.78 169.5,201.04 236.24,313.53 54.52,91.87 124.44,215.27 151.99,334.94 -95.8,-183.47 -253.61,-348.95 -383.03,-488.76 -179.76,-194.29 -360.47,-401.47 -582.52,-549.2 89.87,43.45 181.9,80.33 267.75,134.22zm96.8 -132.36c168,58.75 315.15,168.36 423.27,309.08 102.63,133.49 169.96,290.54 205.98,454.6 22.42,102.22 26.04,199.6 22.58,297.88 -18.65,-103.26 -71.45,-207.26 -114.17,-295.25 -64.56,-133.1 -144.6,-256.69 -241.77,-368.2 -155.38,-178.28 -385.53,-372.88 -626.85,-437.52 110.78,-7.38 217.24,-0.36 330.95,39.41zm-94.08 744.5c-217.16,-192.41 -416.8,-435.94 -415.05,-740.65 0.07,-15.94 -11.11,-24.23 -23.27,-25.71 9.74,-5.24 19.42,-10.7 29.22,-15.82 0.69,1.91 1.44,3.84 2.67,5.5 24.45,142.7 139.29,300.1 217.6,419.89 78.97,120.94 170.41,237.63 280.12,332.23 98.75,85.11 208.7,155.81 313.04,233.6 101.41,75.57 183.41,157.04 264.11,247.8 -240.39,-124.63 -465.31,-276.91 -668.43,-456.84zm-297.27 -1253.24c90.78,-159.48 181.58,-318.93 272.42,-478.42 116.52,-204.64 266.47,-427.66 348.67,-661.29 -7.98,107.7 -19.62,214.15 -47.55,321.56 -42.21,162.21 -107.44,317.93 -193.53,461.72 -144.88,242.28 -337.41,439.41 -530.87,639.16 54.44,-93.53 100.95,-195.06 150.86,-282.73zm-234.14 323.18c18.87,-124.91 37.45,-248.98 73.09,-371.98 54.06,-186.81 129.26,-366.98 216.25,-540.73 74.38,-148.62 157.65,-294.24 262.52,-423.71 48.1,-59.52 100.73,-115.7 158.65,-165.87 40.77,-35.4 86.14,-63.42 130.09,-93.35 -44.86,131.2 -91.82,258.56 -157.57,383.99 -78.76,150.27 -164.69,297 -247.59,445.01 -86.07,153.73 -172.23,307.45 -258.31,461.19 -54.34,97 -126.23,199.72 -177.13,305.46zm-47.56 103.98c-113.57,-726.52 250.91,-1441.55 911.49,-1768.42 -1.2,3.5 -2.42,7 -3.55,10.51 -127.82,50.38 -241.98,174.3 -325.65,275.33 -107.98,130.34 -193.98,277.36 -270.15,428.07 -157.29,311.55 -322.95,693.7 -308.43,1052.31 -1.28,0.75 -2.51,1.47 -3.71,2.2zm8123.09 -377.64c55.3,-89.5 98.46,-187.08 127.31,-288.29 17.59,-61.7 58.28,-156.66 7.56,-209.87 -6.04,-6.34 -15.41,-8.42 -23.71,-6.28 -97.92,25.43 -199.11,95.22 -283.89,148.9 -92.2,58.32 -180.08,126.32 -249.47,211.13 -83.66,102.3 -191.34,320.09 -106.69,452.52 -274.76,29.27 -550.8,58.07 -827.46,82.21 34.8,-22.41 67.65,-47.67 97.79,-70.78 119.67,-91.97 221.76,-203.69 292.34,-337.67 139.92,-265.53 161.06,-572.86 178.27,-866.86 1.31,-22.47 -25.3,-35.19 -43.4,-24.94 -257.48,145.74 -522.97,299 -694.72,547.65 -162.79,235.65 -184.85,508.87 -91.67,773.88 -375.33,28.17 -751.5,45.3 -1126.76,40.94 182.72,-77.93 323.77,-260.69 417.17,-433.22 75.36,-139.29 121.43,-282.26 123.67,-441.61 2.74,-197.06 -25.8,-397.02 -41.82,-593.31 -1.65,-20.42 -24.37,-39.19 -44.31,-25.43 -151.15,103.9 -296.14,216.16 -432.65,338.7 -136.96,122.93 -267.96,244.51 -342.94,415.56 -84.18,192.1 -211.12,567.37 -7.47,729.73 -319.7,-15.17 -638.56,-48.05 -955.45,-105.52 -132.66,-24.07 -264.56,-52.05 -396.17,-81.74 254.61,-59.47 483.24,-230.28 634.69,-439.27 232.12,-320.32 290.85,-728.37 276.8,-1114.63 -0.75,-21.35 -21.2,-30.59 -39.34,-22.59 -204.22,90.33 -402.8,192.71 -593.37,309.29 -151.46,92.63 -303.62,193.59 -412.06,336.99 -186.63,247.09 -232.54,588.74 -111.05,873.53 -348.44,-82.51 -696.24,-168.4 -1050.8,-218.99 -139.91,-20 -279.52,-32.44 -418.75,-37.63 259.21,-76.06 500.3,-216.59 668.52,-430.98 267.06,-340.4 242.81,-807.15 205.59,-1215.11 -1.52,-16.14 -12.76,-27.19 -27.98,-27.14 -2.19,0.02 -4.45,0.26 -6.76,0.72 -693.43,141.91 -1388.84,943.94 -1153.78,1673.18 -305.33,12.57 -608.72,59.8 -909.31,140.18 -145.11,38.78 -297.63,87 -446.53,148.19 505.22,-368.64 749.68,-1061.95 653.94,-1672.94 -2.78,-17.72 -24.17,-21.23 -37.37,-15.18 -709.98,325.19 -1111.29,1093.52 -972.43,1858.87 -3.99,2.38 -8.09,4.86 -12.15,7.26 -4.3,2.46 -3.49,8.26 -0.23,10.72 -186.42,119.63 -347.78,270.23 -454.24,461.83 -18.2,32.77 26.89,70.96 53.54,41.31 160.15,-177.97 331.39,-335.64 540.07,-455.76 8.54,-4.95 17.39,-9.44 25.99,-14.28 -1.14,2.96 -2.04,6.06 -2.13,9.79 -4.36,294.44 169.21,538.11 376.16,732.07 246.69,231.19 533,419.78 837.96,564.6 15.33,7.28 35.94,2.06 40.39,-16.45 82.08,-342.34 -28.31,-767.76 -249.98,-1036.98 -183.48,-222.86 -520.7,-400.13 -820.22,-344.35 149.2,-67.22 304.9,-120.63 462.32,-164.39 316.74,-88.07 635.67,-137.11 957.09,-147.53 -74.44,319.71 -67.8,718.77 79.43,1015.09 140.83,283.27 406.82,476.6 659.38,653.75 5.22,3.64 10.66,4.76 16.01,4.35 0,0.03 0,0.06 0,0.11 3.19,9.68 15.47,6.98 16.69,-2.25 0.24,-1.77 0.37,-3.53 0.6,-5.3 4.69,-4.07 8.6,-9.23 10.72,-14.86 141.5,-365.84 297.5,-796.37 97.85,-1172.57 -116.28,-219.19 -342.41,-379.43 -578.96,-476.77 133.42,5.75 267.36,17.91 401.75,36.98 325.73,46.1 645.57,121.07 965.65,195.21 -216.17,151.44 -133.11,503.82 -3.26,705.06 243.22,376.91 666.33,585.09 932.27,942.56 -0.38,4.64 -0.68,9.09 -1.05,13.74 -1.13,15.72 21.12,16.73 25.89,3.53 0.52,-1.31 0.9,-2.57 1.35,-3.87 10.43,-0.11 20.32,-5.74 23.42,-18.58 0,-0.23 0.06,-0.43 0.15,-0.62 7.25,-3.54 12.75,-12.03 10.93,-20.56 -0.96,-4.22 -2.18,-8.42 -3.25,-12.61 90.08,-390.11 124.81,-763.06 -121.11,-1107.48 -94.9,-132.91 -211.42,-280.28 -349.29,-387.26 56.86,11.44 113.72,22.45 170.8,32.69 354.04,63.39 712.09,97.17 1071.11,109.19 -175.85,152.5 -165.28,473.06 -81.69,667.52 141.04,328.03 449.63,555.02 724.25,765.71 16.54,12.69 42.35,-1.03 46.95,-19.13 86.24,-338.49 212.47,-665.24 68.34,-1005.02 -74.22,-175.05 -202.51,-331.17 -369,-404.18 69.62,-0.51 139.24,-1.8 208.85,-3.72 279.76,-7.75 558.81,-25.72 837.5,-49.55 -190.41,70.29 -139.62,413.98 -69.09,552.97 139.93,275.57 390.96,517.53 637.27,698.17 15.78,11.57 41.83,-0.33 45.76,-18.62 38.06,-179.06 97.55,-361.16 120.41,-542.65 18.67,-147.51 -45.58,-322.13 -109.54,-453.17 -66.28,-135.6 -179.7,-223.21 -310.65,-265.78 254.76,-25.27 509.23,-54.04 763.52,-83.17 -99.35,94.88 -136.51,237.98 -43.11,360.26 74.22,97.17 184.68,179.39 275.67,260.56 30.26,27.01 63.57,43.88 94.9,68.23 44.94,34.97 78.68,83.36 124.22,119.89 0.3,0.26 0.67,0.48 1.05,0.73 0.09,1.43 0.22,2.85 0.31,4.28 0.91,10.88 14.78,13.01 18.93,3.06 7.26,0.51 14.51,-1.63 19.5,-8.07 56.01,-71.76 55.86,-193.84 61.89,-282.28 7.27,-104.66 -7.37,-206.88 -49.13,-303.56 -39.88,-92.55 -101.71,-175.59 -179.48,-239.78 -30.8,-25.45 -65.31,-55.06 -104.88,-64.7 -9.66,-2.33 -24.76,-0.96 -41.07,1.15 123.99,-60.29 221.84,-186.68 291.13,-298.73z"/>
 </g>
</svg>
