<?xml version="1.0" encoding="UTF-8"?>
<!DOCTYPE svg PUBLIC "-//W3C//DTD SVG 1.1//EN" "http://www.w3.org/Graphics/SVG/1.1/DTD/svg11.dtd">
<!-- Creator: CorelDRAW 2021 (64-Bit) -->
<svg xmlns="http://www.w3.org/2000/svg" xml:space="preserve" width="22in" height="22in" version="1.1" style="shape-rendering:geometricPrecision; text-rendering:geometricPrecision; image-rendering:optimizeQuality; fill-rule:evenodd; clip-rule:evenodd"
viewBox="0 0 22000 22000"
 xmlns:xlink="http://www.w3.org/1999/xlink"
 xmlns:xodm="http://www.corel.com/coreldraw/odm/2003">
 <defs>
  <style type="text/css">
   <![CDATA[
    .fil0 {fill:none}
    .fil1 {fill:#2B2A29}
   ]]>
  </style>
 </defs>
 <g id="Layer_x0020_1">
  <metadata id="CorelCorpID_0Corel-Layer"/>
  <rect class="fil0" width="22000" height="22000"/>
  <path class="fil1" d="M10132.3 9595.61c286.72,139.35 575.55,272.53 867.7,397.49 292.15,-124.96 580.98,-258.14 867.7,-397.49 15.92,51.82 38.74,98.89 69.56,139.98 -233.86,125.97 -473.31,241.95 -716.74,349.97 422.96,173.71 853.41,329.28 1294.92,460.47 -167.17,-585.98 435.91,-1298.92 897.4,-1562.59 20.59,-11.63 55.68,3 57.57,28.49 36.16,602.49 -26.58,1280.79 -564.28,1642.28 42.59,11.07 84.82,22.33 127.23,33.03 498.19,123.1 1003.21,217.65 1512.48,284.76l1.63 -0.29c-140.72,-326.46 -134,-612.33 93.32,-936.49 238.48,-340.12 578.31,-589.71 966.17,-734.07 28.6,-10.21 59.32,6.61 57.95,39.15 -19.11,393.18 -114.89,776.31 -295.31,1127.07 -76.59,149.15 -264.89,481.26 -477.45,546.51 475.61,50.81 1470.63,68.63 1487.96,80.32 18.11,0.06 36.11,-0.02 54.2,-0.07 -207.16,-254.33 -51.04,-641.74 95.5,-898.28 219.62,-384.2 568.71,-679.49 978.93,-841.47 28.05,-11.08 60.72,6.68 58.01,39.46 -29.94,407.85 -133.83,818.25 -349,1169.84 -99.91,164.01 -291.14,405.74 -500.41,527.23 195.01,-4.15 389.74,-11.77 584.14,-23.55 248.34,-15.75 496.52,-38.87 743.98,-67.86 -92.13,-315.71 48.54,-671.76 224.17,-936.01 209.45,-314.66 505.28,-558.28 854.02,-701.95 31.07,-12.96 59.37,13.41 51.4,45.06 -136.51,531.29 -262.75,1266.28 -788.65,1548.85 232.35,-33.38 464.34,-71.41 694.61,-115.57 -1.66,-11.17 -2.88,-23.55 -2.35,-36.55 5.21,-137.83 165.57,-236.43 263.87,-304.54 157.91,-109.25 328.69,-198.74 507.92,-266.58 373.26,-141.56 770.18,-185.69 1165.9,-137.94 23.76,2.76 42.73,32.18 25.91,54 -91.39,114.94 -202.59,227.66 -327.39,329.75 -233.09,247.45 -616.19,387.79 -940.46,451.06 -133.15,25.78 -587.26,125.28 -679.33,-47.56 -216.06,53.04 -433.56,98.98 -652.02,139.98 228.49,30.66 463.33,203.42 638.13,326.21 273.51,192.04 492.55,443.54 654.5,735 9.33,17.15 -2.75,39.62 -21.03,42.75 -438.1,78.36 -894.4,-29.15 -1243.03,-309.39 -168.63,-135.16 -449.69,-526.2 -314,-746.2 -20.24,10.82 -1013.13,131.09 -1481.94,150.49 282.02,165.38 359.21,557.12 420.61,858.91 29.98,148.31 219.29,928.07 -63.99,941.19 -140.76,6.61 -312.78,-208.43 -394.67,-298.05 -132.53,-144.24 -246.81,-307.71 -327.1,-486.69 -142.75,-317.46 -173.07,-680.93 -51.75,-1005.29 -488.09,3.73 -976.96,-20.45 -1463.22,-71.33 290.61,294.06 248.78,858.62 223.7,1227.12 -9.03,137.45 -11.13,467.04 -126.99,566.52 -94.4,81.56 -242.67,-23.67 -312.07,-86.78 -312.16,-285.1 -438.17,-740.69 -427.69,-1151.13 5.3,-210.56 67.06,-451.6 206.99,-609.06 -482.05,-66.84 -960.26,-160.54 -1432.2,-279.64 90.12,274.41 32.02,621.25 -43.8,887.29 -94.52,330.34 -281.63,626.07 -520.57,870.71 -24.78,25.48 -75.45,21.48 -96.81,-6.57 -261.93,-339.65 -233.77,-791.86 -131.28,-1187.44 57.83,-223.79 223.49,-541.64 458.91,-653.11 -474.63,-133.13 -942.24,-291.86 -1399.7,-476.21 -64.9,-26.17 -129.59,-52.8 -194.05,-79.94 -64.45,27.14 -129.15,53.77 -194.05,79.94 -457.47,184.35 -925.07,343.08 -1399.7,476.21 235.41,111.47 401.07,429.32 458.91,653.11 102.48,395.58 130.65,847.78 -131.28,1187.44 -21.37,28.06 -72.04,32.05 -96.82,6.57 -238.94,-244.64 -426.04,-540.37 -520.57,-870.71 -75.83,-266.04 -133.93,-612.88 -43.8,-887.29 -471.94,119.1 -950.15,212.8 -1432.2,279.64 139.93,157.46 201.69,398.51 206.99,609.06 10.48,410.44 -115.53,866.03 -427.69,1151.13 -69.4,63.11 -217.67,168.34 -312.07,86.78 -115.85,-99.48 -117.95,-429.06 -126.98,-566.52 -25.07,-368.5 -66.91,-933.06 223.7,-1227.12 -486.27,50.88 -975.13,75.06 -1463.22,71.33 121.31,324.36 91,687.83 -51.75,1005.29 -80.3,178.98 -194.57,342.46 -327.1,486.69 -81.89,89.62 -253.91,304.66 -394.67,298.05 -283.29,-13.11 -93.97,-792.87 -63.99,-941.19 61.4,-301.79 138.59,-693.53 420.61,-858.91 -468.8,-19.4 -1461.7,-139.67 -1481.94,-150.49 135.68,220 -145.37,611.04 -314,746.2 -348.63,280.24 -804.93,387.75 -1243.03,309.39 -18.28,-3.13 -30.37,-25.6 -21.03,-42.75 161.96,-291.45 380.99,-542.96 654.5,-735 174.8,-122.8 409.64,-295.56 638.13,-326.21 -218.46,-41 -435.96,-86.94 -652.02,-139.98 -92.07,172.84 -546.19,73.33 -679.33,47.56 -324.27,-63.27 -707.37,-203.61 -940.46,-451.06 -124.8,-102.09 -236,-214.81 -327.39,-329.75 -16.82,-21.82 2.16,-51.25 25.91,-54 395.72,-47.75 792.64,-3.63 1165.9,137.94 179.23,67.84 350,157.33 507.92,266.58 98.3,68.11 258.66,166.71 263.87,304.54 0.52,13 -0.69,25.38 -2.35,36.55 230.26,44.17 462.26,82.2 694.61,115.57 -525.89,-282.57 -652.14,-1017.56 -788.65,-1548.85 -7.97,-31.65 20.33,-58.02 51.4,-45.06 348.75,143.67 644.57,387.29 854.02,701.95 175.63,264.25 316.3,620.3 224.17,936.01 247.45,28.99 495.64,52.11 743.98,67.86 194.4,11.78 389.13,19.39 584.14,23.55 -209.28,-121.49 -400.5,-363.22 -500.41,-527.23 -215.17,-351.59 -319.06,-761.99 -349,-1169.84 -2.71,-32.78 29.96,-50.54 58.01,-39.46 410.22,161.98 759.31,457.26 978.93,841.47 146.54,256.53 302.66,643.95 95.5,898.28 18.08,0.05 36.09,0.13 54.2,0.07 17.33,-11.69 1012.35,-29.51 1487.96,-80.32 -212.56,-65.26 -400.86,-397.36 -477.46,-546.51 -180.42,-350.76 -276.19,-733.89 -295.31,-1127.07 -1.37,-32.55 29.35,-49.37 57.95,-39.15 387.86,144.37 727.68,393.96 966.17,734.07 227.32,324.15 234.04,610.03 93.32,936.49l1.62 0.29c509.28,-67.11 1014.3,-161.66 1512.49,-284.76 42.41,-10.7 84.63,-21.96 127.23,-33.03 -537.7,-361.49 -600.43,-1039.79 -564.28,-1642.28 1.89,-25.49 36.98,-40.13 57.57,-28.49 461.49,263.68 1064.57,976.61 897.4,1562.59 441.51,-131.2 871.96,-286.76 1294.92,-460.47 -243.42,-108.02 -482.88,-224 -716.73,-349.97 30.82,-41.08 53.65,-88.16 69.56,-139.98z"/>
 </g>
</svg>
