<?xml version="1.0" encoding="UTF-8"?>
<!DOCTYPE svg PUBLIC "-//W3C//DTD SVG 1.1//EN" "http://www.w3.org/Graphics/SVG/1.1/DTD/svg11.dtd">
<!-- Creator: CorelDRAW 2021 (64-Bit) -->
<svg xmlns="http://www.w3.org/2000/svg" xml:space="preserve" width="22in" height="22in" version="1.1" style="shape-rendering:geometricPrecision; text-rendering:geometricPrecision; image-rendering:optimizeQuality; fill-rule:evenodd; clip-rule:evenodd"
viewBox="0 0 22000 22000"
 xmlns:xlink="http://www.w3.org/1999/xlink"
 xmlns:xodm="http://www.corel.com/coreldraw/odm/2003">
 <defs>
  <style type="text/css">
   <![CDATA[
    .fil0 {fill:none}
    .fil1 {fill:#2B2A29}
   ]]>
  </style>
 </defs>
 <g id="Layer_x0020_1">
  <metadata id="CorelCorpID_0Corel-Layer"/>
  <rect class="fil0" width="22000" height="22000"/>
  <path class="fil1" d="M20731.91 11146.64c-0.07,-0.24 -0.15,-0.39 -0.24,-0.54 0.92,-0.47 1.82,-0.9 2.72,-1.28 0.24,0.24 0.54,0.39 0.83,0.62 -1.13,0.43 -2.27,0.66 -3.31,1.2zm-19467.09 73.93c0.28,-0.17 0.54,-0.39 0.79,-0.6 0.92,0.43 1.8,0.9 2.72,1.35 -0.06,0.13 -0.15,0.3 -0.22,0.45 -1.07,-0.52 -2.22,-0.75 -3.3,-1.2zm672.95 188.09c12.5,57.08 39.17,110.52 86.34,144.51 7.83,5.56 20.46,-3.85 16.82,-12.93 -16.57,-41.01 -40.34,-76.41 -50.77,-120.35 -2.8,-12.01 -5.24,-24.02 -7.26,-35.94 17.31,0.88 36.96,-1.37 54.96,5.59 139.82,53.44 106.99,254.91 126.19,377.38 1.33,8.52 43.28,200.84 45.16,200.01 6.76,-3.1 -107.53,-119.3 -112.96,-124.97 -70.29,-72.41 -272.63,-340.44 -158.49,-433.3zm-6.31 -121.65c-2.27,21.57 -2.98,43.94 -1.54,66.76 -2.91,0.51 -5.89,1.28 -8.99,3.02 -10.14,5.87 -18.77,12.37 -26.54,19.18 -6.63,-12.78 -15.8,-23.11 -27.59,-29.67 20.1,-21.08 41.59,-40.86 64.66,-59.28zm-227.75 396.92c-37.22,49.63 -70.05,100.96 -101.17,153.67 -20.27,-177.37 -27.65,-419.52 151.85,-476.9 -20.72,30.89 -36.98,64.64 -46.23,101.79 -4.9,19.76 20.06,35.64 34.89,20.31 32.98,-34.14 63.03,-70.37 94.26,-105.41 65.62,68.17 -110.48,275.67 -133.6,306.54zm1697.59 -373.65c-137.11,-41.46 -274.7,-80.41 -408.9,-124.89 -2.25,-20.93 -10.64,-41.52 -21.13,-59.5 -0.47,-0.92 -1.03,-1.82 -1.5,-2.65 18.79,-17.51 30.78,-42.51 32.04,-69.9 1.35,-30.46 -15.09,-58 -38.87,-75.51 28.94,-1.15 57.96,-6.04 86.98,-15.41 51.39,26.94 103.4,52.27 156.09,75.36 14.96,24.98 31.14,49.61 48.52,73.69 44.15,61.3 114.68,140.59 189.97,202.96 -14.38,-1.37 -28.79,-2.66 -43.21,-4.15zm52.95 -223.43c-4.63,-20.19 -8.67,-40.39 -10.62,-61.39 -9.59,-104.81 4.5,-207.78 35.49,-308.05 6.57,-21.3 -24.48,-28.31 -32.47,-8.93 -33.07,80.2 -58.96,190.27 -60.61,298.33 -66.63,-168.78 -2.7,-398.76 31.19,-556.17 26.78,-124.2 61.38,-245.98 101.09,-366.35 55.71,293.65 191.9,885.82 -64.06,1002.56zm-58.11 42.27c1.8,9.14 4.02,18.06 6.33,26.96 -1.99,-2.05 -4.39,-4.21 -6.19,-6.27 -76.32,-87.22 -131.26,-183.25 -172.29,-285.02 31.46,-4.32 57.04,-15.26 77.07,-32.32 4.86,112.26 31.76,215.33 95.07,296.65zm-100.31 -608.04c4.09,63.59 -25.85,242 -90.04,297.11 -39.96,-112.96 -63.63,-232.54 -77.71,-355.85 -1.99,-17.31 -29.24,-24.61 -33.07,-4.45 -22.9,120.56 -16.65,238.22 13.25,350.5 -169.7,-285.37 -92.78,-592.26 -2.59,-903.65 55.05,117.33 108.28,236.18 143.78,360.83 23.67,83.07 40.86,169.3 46.38,255.51zm-636.85 205.23c103.08,68.31 209.62,135.82 319.12,197.14 -296.19,13.5 -628.82,-259.66 -839.4,-468.57 127.56,30.86 257.01,31.48 387.11,64.7 162.17,41.35 288.19,133.87 379.63,264.05 -76.13,-34.99 -155.47,-62.99 -235.58,-83.21 -16.01,-4 -24.06,17.14 -10.87,25.9zm-129.59 258.14c11.9,-3.08 22.86,-8.15 32.41,-15.17 2.46,3.17 5.11,6.51 7.36,9.59 12.22,16.69 24.85,33 38.25,48.71 -26.37,-13.68 -52.35,-28.1 -78.02,-43.13zm131.5 69.93c4.02,-4.75 5.42,-11.32 0.77,-18.04 -20.59,-30.05 -38.18,-61.53 -56.4,-93.02 -3.21,-5.61 -6.38,-11.47 -9.59,-17.23 4.81,-11.56 7.77,-24.08 8.32,-37.07 0.52,-11.02 -1.65,-21.44 -5.11,-31.48 6.23,3.38 12.29,7.02 18.58,10.36 79,41.65 162.3,82.83 247.16,100.87 -30.71,15.83 -51.28,48 -52.91,84.56 -2.33,51.32 45.31,95.05 95.05,95.05 1.09,0 2.1,-0.3 3.21,-0.3 1.65,3.53 3.32,7.11 5.12,10.72 -86.96,-30.82 -172,-64.94 -254.2,-104.43zm2062.54 951.21c10.06,8.37 30.63,0.75 24.76,-14.34 -24.95,-64.57 -44.69,-136.59 -51.47,-208.7 4.37,0.07 8.26,0.54 10.61,1.44 182.44,73.75 156.11,187.02 165.41,340.3 9.09,150.19 16.18,300.43 21.3,450.83 -80.48,-86.77 -149.61,-182.33 -202.8,-289.33 -36.51,-73.56 -194.64,-424.87 -56.59,-468.51 8.28,71.78 30.67,139.67 88.78,188.3zm-92.59 -335.47c-0.26,7.02 -0.62,13.98 -0.7,21.3 -0.22,16.4 -0.17,33.07 0.08,49.83 -15.35,3.02 -29.47,6.87 -41.99,11.94 14.56,-27.57 28.74,-55.28 42.61,-83.07zm-67.14 26.82c-2.65,4.22 -5.35,8.52 -7.98,12.82 -1.52,-1.05 -2.44,-2.48 -4.13,-3.4 4.13,-3.08 8.11,-6.25 12.11,-9.42zm-205.08 108.34c55.52,-3.41 110.12,-38.74 157.1,-72.41 2.78,17.81 -1.58,39.7 -9.48,60.55 -9.85,17.36 -19.54,34.65 -28.92,52.09 -2.42,2.95 -4.86,5.97 -7.21,8.24 -25.92,24.68 -70.69,31.7 -104.7,42.57 -46.83,14.96 -94.58,26.05 -140.3,44.56 -53.74,21.75 -102.56,50.73 -147.36,85.85 11.83,-86.32 41.82,-170.56 99.07,-237.47 38.63,-45.16 84.39,-75.81 140.28,-96.5 33.96,-12.52 139.55,-48.46 171.78,-14.64 -47.34,30.5 -105.8,51.58 -145.01,91.52 -12.13,12.31 -3.81,36.69 14.75,35.64zm-14.04 967.28c0.26,-33 0.62,-66.13 0.09,-98.52 1.52,1.86 3.1,3.77 4.58,5.59 15.97,19.09 34.37,35.79 52.8,52.4 -2.46,4.9 -4.54,9.89 -6.12,15.09 -4.28,10.13 -6.94,21.23 -7.79,33.15 -0.54,-0.24 -1.03,-0.69 -1.61,-0.9 -14.34,-6.04 -28.51,-7.85 -41.95,-6.81zm3341.41 -1016.21c30.16,113.69 77.71,223.43 146.8,318.63 16.37,22.58 48.63,3.62 37.2,-21.74 -37.2,-82.3 -72.41,-164.14 -100.79,-248.94 183.23,78.44 233.33,351.69 242.58,514.63 2.44,42.8 49.04,296.13 -21.44,303.15 -26.63,2.65 -181.73,-303.67 -200.48,-337.27 -38.24,-68.57 -76.92,-141.58 -98.47,-217.54 -2.59,-9.14 -16.74,-122.68 -21.83,-220.83 10.31,-29.3 9.39,-63.59 1.43,-98.18 3.81,4.39 8.73,7.56 15,8.09zm-14.23 -54.9c-4.15,3.32 -7.6,7.17 -11.32,10.81 -10.51,-29.45 -24.44,-57.08 -39.3,-79.66 7.34,-30.37 15.37,-60.55 24.04,-90.45 3.81,54.43 15.86,109.54 26.58,159.3zm-53.59 77.03c-20.4,56.85 -18.81,127.82 -6.91,198.19 -69.15,169.51 -131.71,346.19 -230.49,500.44 -52.65,-273.94 5.93,-544.62 137.24,-789.02 -7.6,87.67 -6.68,170.86 1.86,241.38 2.59,21.21 36.51,30.8 41.01,5.59 12.91,-72.56 26.33,-148.22 42.4,-223.94 4.28,13.2 8.78,26.35 11.58,40.17 1.8,8.91 2.72,18.04 3.32,27.18zm2113.22 -1264.95c-32.77,-300.05 252.13,-648.87 434.16,-892.16 -30.44,330.93 -67.35,776.2 -352.83,962.47 24.91,-89.25 65.3,-176.53 67.72,-269.33 0.39,-13.06 -17.51,-21.06 -26.43,-10.94 -49.89,56.52 -92.93,130.09 -122.61,209.96zm-363.25 -29.28c-112.8,-98.39 -241.32,-221.46 -266.44,-242.97 -22.81,-19.5 -45.4,-39.19 -68.11,-58.75 21.51,-48.93 29.96,-97.47 27.55,-144.21 47.34,89.23 112.96,171.01 205.68,242.22 30.59,69.69 64.17,137.8 101.32,203.72zm-64.55 -295.9c-39.79,-78.7 -77.99,-158.43 -113.18,-240.19 -8.99,-20.85 -41.22,-5.52 -35.72,15.09 15.86,58.81 34.14,116.58 54.45,173.28 -108.13,-141.65 -177.81,-294.38 -201.68,-488.14 -14.49,-117.03 -25.67,-232.48 -42.59,-347.84 172.38,266.75 495.78,791.44 338.72,887.8zm-311.54 -41.61c-104.73,-90.24 -209.07,-180.98 -312.29,-273.34 -16.91,-15.11 -39.41,7.7 -24.76,24.76 32.47,37.73 156,175.33 302.49,322.26 -202.22,59.57 -576.19,-477.71 -754.3,-735.43 138.03,66.61 276.06,132.98 413.91,199.86 182.5,88.42 443,220.71 374.96,461.88zm91.81 619.57c-38.42,-3.02 -76.49,-5.65 -114.7,-2.55 -7.23,-14.59 -18.41,-26.73 -32.15,-35.27 48.39,12.76 97.32,25.15 146.84,37.82zm-2792.46 -300.71c-24.4,43.49 -42.12,97.68 -53.15,155.15 -99.63,-203.65 5.01,-351.33 120.69,-521.81 62.41,-91.9 123.73,-184.62 184.86,-277.4 -19.99,100.61 -39.53,201.36 -55.65,302.62 -24.06,151.3 12.22,488.37 -190.19,523.17 6.68,-55.59 19.35,-109.95 31.59,-165.66 4.94,-22.58 -26.24,-37.3 -38.16,-16.07zm-56.91 174.63c-11.39,71.72 -10.96,147.4 5.37,215.27 -0.06,-0.17 -0.17,-0.3 -0.26,-0.38 -42.55,-65.47 -80.48,-134.54 -115.51,-205.15 20.25,-29.43 33.96,-60.16 42.04,-92.03 15.22,31.25 37.84,59.11 68.36,82.3zm-131.39 -34.06c-30.8,-65 -59.59,-130.92 -86.26,-196.69 -11.7,-28.91 -56.95,-18.41 -48.03,13.23 25.15,89.14 49.4,178.26 80.41,264.41 -296.65,-104.72 -261.44,-624.28 -242.56,-931.44 145.15,233.31 408.5,626.1 296.43,850.49zm-201.94 358.35c-58.69,5.59 -117.42,10.87 -177.67,-2.63 -20.06,-4.48 -35.17,19.54 -20.27,34.86 53.02,54.6 114.2,55.13 180.62,47.88 -240.53,115.28 -484.41,71.81 -706.47,-81.31 217,-40.5 553.24,-129.49 723.78,1.2zm-3652.75 -42.35c0.77,0.75 1.54,1.5 2.31,2.33 -3.98,-2.25 -8.01,-4.3 -12.24,-5.74 3.32,1.11 6.63,2.27 9.93,3.41zm-714.43 -199.18c-2.87,-4.11 -6.08,-7.85 -8.88,-11.94 -43.87,-64.02 -78.33,-132.12 -116.8,-199.24 -10.91,-19.11 -36.43,-5.22 -33.22,13.95 12.24,72.94 43.23,142.72 82.61,205.6 -166.41,-60.64 -248.23,-401.99 -264.26,-605.17 42.06,63.27 88.44,123.24 137.3,182.12 95.56,115.21 256.04,251.89 203.24,414.68zm-368 619.81c5.52,5.82 12.01,11.02 18.75,15.71 0.64,0.69 1.16,1.44 1.78,2.04 50.32,55.35 155.83,13.23 151.04,-62.52 -0.37,-6.06 -1.8,-11.39 -2.81,-16.97 18.37,-12.09 37.07,-23.2 56.23,-33.09 -1.54,12.91 -1.22,25.98 0.75,38.67 -19.69,15.39 -32.81,39.1 -32.81,65.39 0,45.06 38.37,83.49 83.47,83.49 13.89,0 26.9,-4 38.59,-10.25 32.3,-10.21 47.24,-42.06 44.8,-72.64 0,-0.17 0.06,-0.38 0.06,-0.6 0,-1.67 -0.41,-3.25 -0.51,-4.92 -0.07,-0.47 -0.07,-0.9 -0.15,-1.35 -3.38,-42.29 -39.81,-77.18 -82.79,-77.18 -1.67,0 -3.26,0.39 -4.88,0.47 -2.09,-15.35 -0.32,-30.82 5.2,-45.55 130.73,-53.61 275.07,-66.28 413.46,-68.41 48.86,-0.69 106.84,-10.12 159.81,-9.8 2.82,1.03 5.59,2.09 8.35,3.08 -46.27,19.24 -90.21,47.13 -127.5,73.54 -30.16,21.27 -59.31,44.93 -85.7,71.06 -0.94,-0.02 -1.56,-0.38 -2.53,-0.23 -308.8,36.38 -264.22,396.4 -249.11,626.31 1.63,25.06 36.17,37.91 49.66,13.44 51.69,-93.79 111.94,-180.68 172.17,-269.01 23.39,-34.29 52.03,-70.97 76.26,-109.41 16.74,63.8 51.39,128.35 78.42,176.3 49.1,87.13 117.22,160.16 191.11,226.98 31.02,28 76.78,87.52 124.18,69 11.13,-4.39 20.01,-15.48 15.97,-28.17 -36.54,-114.55 -62.91,-230.28 -72.96,-350.41 -5.09,-60.79 4.02,-131.31 -21.23,-188.6 -21.57,-49.02 -65.92,-84.26 -114.23,-105.5 12.74,5.59 -62.07,-19.33 -81.03,-15.18 -1.37,-20.22 -1.63,-40.47 0.15,-61 0.71,-8.33 -3.61,-14.36 -9.63,-18.04 48.61,-30.74 102.59,-50 152.78,-76.04 823.2,287.91 1703.33,355.03 2578.09,307.69 -14.28,18.04 -28.31,36.38 -39.9,57.38 -0.02,-0.02 -0.06,0 -0.06,0 -39.68,31.19 -79.02,62.58 -119.34,92.8 -68.4,-90.17 -260.58,-8.47 -331.81,40.09 -132.35,90.06 -186.37,257 -191.19,410.51 -0.77,24.23 30.37,35.63 46.91,19.41 81.09,-79.45 172.3,-119.99 279.54,-153.12 29.58,-9.14 60.87,-18.21 91.22,-29.39 -69.5,143.46 -119.54,290.69 -141.73,445.48 -29.7,31.33 -59.09,62.97 -87.96,95.14 -20.72,-21.06 -49.48,-34.5 -79,-34.5 -61.53,0 -107.1,50.3 -109.75,109.78 -2.68,59.26 52.35,109.8 109.75,109.8 61.56,0 107.12,-50.36 109.78,-109.8 0.8,-16.99 -3.57,-33.07 -10.94,-47.56 20.87,-23.27 41.59,-46.59 61.85,-70.37 -11.54,114.91 -6.74,234.36 16.93,359.63 -25.45,17.81 -42.7,36.24 -50.41,68.25 -15.62,64.55 40.99,121.19 105.56,105.56 32.87,-7.94 52.01,-26.13 70.78,-53.68 5.91,-8.78 9.1,-18.21 10.94,-27.8 79.98,51.35 179.7,-33.75 156.48,-120.43 -15.15,-56.4 -72.75,-92.18 -129.87,-78.74 -11.02,2.57 -21.53,7.41 -31.01,13.89 -6.68,-7.47 -13.46,-14.49 -19.48,-20.76 -19.54,-20.55 -36.64,-43.49 -50.28,-68.34 -8.33,-15.24 -13.1,-24.53 -23.01,-31.63 -1.43,-115.89 1.84,-229.52 30.09,-345.36 2.91,5.82 5.48,11.86 8.9,17.15 4.84,7.39 10.7,14.04 16.42,20.85 -26.18,21.36 -43.43,50.13 -43.43,85.55 0,13.96 3.23,26.05 7.75,37.43 9.31,35.34 33.07,65.77 72.77,71.3 1.88,0.21 3.74,0.51 5.67,0.66 41.54,5.74 78.76,2.35 110.24,-29.06 25.62,-25.69 35.87,-59.87 31.14,-95.2 -9.03,-67.2 -82.72,-116.37 -146.91,-93.04 -5.65,-14.49 -11.47,-28.91 -15.75,-43.94 -7.32,-25.66 -5.67,-49.68 -8,-75.87 -0.32,-3.79 -1.33,-7.26 -2.8,-10.27 24.27,-60.78 52.69,-119.83 82.74,-178.11 17.15,253.69 319.23,669.06 416.37,761 22.6,21.45 64.17,6.81 63.24,-26.2 -6.78,-245.53 7.15,-524.37 -46.46,-764.79 -13.89,-62.37 -40.47,-115.43 -96.04,-150.1 -41.74,-26.05 -95.71,-13.59 -134.86,-26.5 0.21,-36.69 4.04,-72.94 13.53,-107.83 14.15,-51.94 49.65,-91.28 76.9,-134.15 373.61,-23.42 745.87,-66.91 1111.91,-122.49 622.83,-94.54 1223.99,-229.76 1841.23,-290.46 -72.04,24.31 -149.54,44.48 -213.43,73.3 -90.21,40.63 -140.72,74.16 -214.37,142.57 -49.93,46.3 -102.09,88.95 -153.37,132.2 -1.63,-0.54 -3.06,-1.58 -4.94,-1.35 -47.62,4.75 -85.72,-21.98 -131.95,-25.98 -0.26,0 -0.7,0 -0.98,0 -11.88,-35.49 -47.79,-62.13 -85.44,-62.13 -50.32,-0.02 -87.58,41.14 -89.76,89.76 -2.18,48.48 42.81,89.79 89.76,89.79 38.98,0 69.88,-24.7 82.96,-58.37 11.73,1.43 23.46,3.55 35.72,5.89 16.99,3.31 34.95,6.87 52.46,7.41 -66.03,58.13 -128.37,119.81 -179.42,195.02 -17.93,-11.32 -41.43,-14.81 -61.38,-12.07 -30.39,4.07 -48.31,19.69 -66.33,43.32 -1.13,1.43 -2.29,3.04 -3.43,4.47 -22.73,29.75 -13.55,78.2 7.41,105.39 20.89,26.96 53.31,40.17 87.11,35.63 36.92,-4.99 68.83,-31.48 78.87,-67.95 6.48,-23.54 2.25,-45.59 -7.66,-65.69 38.69,-32 73.84,-67.27 107.83,-104.04 -3.02,24.98 -3.28,50.45 0.85,73.93 -24.63,16.91 -40.52,45.59 -41.97,77.39 -2.25,50.34 44.5,93.23 93.27,93.23 52.29,0 91.03,-42.72 93.28,-93.23 2.25,-50.38 -44.5,-93.25 -93.28,-93.25 -2.37,0 -4.56,0.54 -6.93,0.69 -0.58,-6.06 -1.16,-12.24 -1.5,-18.57 -1.52,-31.42 0.96,-62.22 6.19,-93.02 14.58,-15.43 29.02,-30.89 44.54,-45.76 57.41,-55.13 123.26,-77.93 179.46,-131.31 10.08,-9.52 20.89,-17.98 31.25,-27.18 -0.34,3.83 -0.7,7.62 -1,11.11 -1.41,15.54 -1.63,31.55 0.88,46.51 -27.93,14.47 -46.64,43.79 -48.14,77.09 -2.09,46.87 41.39,86.81 86.77,86.81 48.69,0 84.69,-39.79 86.79,-86.81 1.71,-37.69 -26.2,-70.46 -60.74,-82.02 -1.07,-15.71 -2.25,-31.4 -0.75,-47.56 2.07,-21.83 10.76,-44.24 11.92,-65.98 65.02,-47.81 134.67,-89.1 209.32,-121.96 12.28,-5.44 24.4,-9.89 36.43,-13.89 -92.87,131.69 -146.85,308.59 -169.15,476.81 -168.4,272.95 -269.57,621.41 -189.29,939.2 7.06,27.69 42.68,28.61 57.25,7.47 107.78,-155.92 170.41,-339.32 234.79,-517.89 17.61,66.61 41.18,127.75 60.35,169.3 64.3,139.14 152.02,269.85 229.83,401.46 40.41,68.32 60.46,128.5 136.74,152.22 15.88,4.96 35.31,-5.82 39.13,-22.19 33.9,-146.42 -8.09,-285.88 -16.12,-434.09 -7.02,-129.41 -10.36,-224.63 -78.2,-337.57 -50.32,-83.75 -121.1,-178.12 -204.27,-231.2 12.61,8.07 -23.09,-20.93 -53.46,-39.19 -1.91,-7.49 -4.43,-14.72 -6.21,-22.28 -21.38,-90.98 -14.66,-190.04 -46.1,-276.95 55.63,-141.28 134.97,-267.81 257.48,-356.23 159,-10.81 319.35,-15.86 481.67,-13.2 850.81,13.95 1607.81,74.52 2309.85,595.58 37.24,27.63 73.03,-29.69 46.51,-60.25 -225.52,-259.53 -529.81,-415.82 -858.47,-511.79 -38.74,-39.19 -76.28,-79.19 -112.58,-119.96 -24.31,-72.79 -31.42,-148.83 -25.45,-224.77 8.45,-8.63 11.92,-21.38 3.62,-34.89 0.54,-4.02 1.05,-8 1.67,-12 395.27,-199.58 401.84,-777.63 442.91,-1160.15 3.55,-33.22 -40.93,-36.53 -56.48,-15.32 -204.31,280.33 -656.06,753.47 -483.09,1145.72 -8.67,53.15 -10.57,106.54 -4,157.65 -45.98,-58.09 -90.15,-117.33 -132.12,-178.11 2.33,-7.64 -2.72,-15.48 -10.42,-14.72 -76.05,-111.53 -145.73,-227.34 -209.54,-347.33 71.74,6.78 102.31,-109.41 85.48,-195.86 -65.09,-333.29 -320.74,-654.03 -493.51,-937.54 -20.22,-33.24 -68.55,-10.66 -60.85,25.66 49.44,232.46 53.68,473.95 113.39,690.2 -25.28,-33.09 -55.86,-63.59 -90.45,-90.68 -221.67,-173.77 -532.31,-273.87 -784.83,-395.12 -29.09,-13.98 -75.06,18.19 -50.34,50.36 180.69,234.96 350.65,498.11 560.24,708.69 99.97,100.4 252.13,229.14 391.2,156.13 158.85,155.69 333.8,309.43 446.38,356.83 94.98,143.23 205.68,276.27 329.2,398.59 -3.23,-0.77 -6.48,-1.43 -9.8,-2.18 -105.26,-111.15 -239.97,-186.27 -388.4,-242.67 -0.24,-3.34 -0.09,-6.72 -0.92,-9.97 -2.33,-9.76 -8,-19.78 -11.54,-29.21 -8.15,-21.45 -18.21,-39.34 -33.75,-56.4 -22.43,-24.48 -50.36,-48.33 -82.23,-59.65 3.62,-9.46 6.04,-19.48 6.49,-30.05 2.12,-47.52 -41.97,-88.05 -88.03,-88.05 -49.38,0 -85.93,40.32 -88.03,88.05 -2.12,47.56 41.97,88.03 88.03,88.03 12.24,0 23.71,-2.48 34.14,-7.02 0.3,0.28 0.51,0.69 0.9,0.9 15.26,10.79 32.68,17.68 47.49,29.3 13.66,10.72 24.91,23.87 36.39,36.77 2.65,2.93 5.59,5.44 8.39,8.15 -111.53,-36.7 -228.41,-65.62 -344.99,-92.95 -32,-36.02 -78.36,-62.58 -117.18,-88.72 -19.39,-13.06 -39.1,-25.81 -58.73,-38.65 23.54,-17.83 38.81,-46.21 40.24,-77.69 2.27,-52.41 -46.3,-97.02 -97.02,-97.02 -54.36,-0.02 -94.69,44.39 -97.02,97.02 -2.35,52.31 46.27,96.96 97.02,96.96 3.62,-0.02 7.02,-0.69 10.49,-1.07 19.71,24.91 41.31,48.41 66.3,70.76 0.81,0.66 1.8,1.5 2.63,2.27 -114.91,-27.57 -226.29,-57.17 -328.21,-95.28 15.09,-46.44 -8.31,-101.94 -55.58,-121.87 -52.61,-22.2 -126.02,10.64 -135.44,69.15 -9.07,23.01 -7.64,49.37 7.24,70.37 20.76,54.72 95.22,80.41 145.65,33.52 4.77,-4.45 9.52,-8.82 14.28,-13.2 3.56,-3.32 5.89,-7.17 8.69,-10.72 137.41,72.26 279.89,118.17 427.42,158.25 -44.09,1.52 -80.78,38.83 -80.78,83.13 0,45.14 38.35,83.52 83.43,83.52 40.17,0 74.53,-30.05 81.85,-68.41 66.52,10.64 139.91,8.15 202.19,-2.48 12.01,-2.06 26.43,-4.54 40.86,-7.49 160.37,49.74 307,113.65 448.5,198.43 -249.32,-49.91 -504.3,-73.09 -742.9,-86.3 -441.69,-24.61 -894,-45.37 -1334.6,2.95 -349.83,38.33 -694.22,121.4 -1039.69,187.08 5.61,-5.29 11.09,-11.09 16.44,-17.36 3.53,-0.54 7.15,-1.28 10.87,-3.17 49.07,-24.79 96.8,-52.78 144.79,-80.2 17.93,14.64 40.34,23.86 63.44,23.86 56.48,0 98.28,-46.12 100.72,-100.72 2.44,-54.45 -48.05,-100.72 -100.72,-100.72 -56.48,0 -98.28,46.15 -100.72,100.72 -0.3,6.93 0.3,13.83 1.63,20.46 -4.93,2.55 -9.89,5.05 -14.69,7.77 -12.31,6.87 -24.74,13.83 -37.11,20.7 19.65,-40.17 35.89,-78.44 48.78,-101.92 36.45,-66.3 65.62,-136.14 89.21,-207.86 30.35,-4.99 56.44,-32.17 80.71,-50.06 3.21,-2.35 6.44,-4.69 9.65,-7.02 19.8,22.11 48.48,36.69 78.19,36.69 58.3,-0.02 101.43,-47.65 103.93,-103.98 2.52,-56.12 -49.55,-103.89 -103.93,-103.89 -58.24,0 -101.39,47.58 -103.93,103.89 -0.06,2.03 0.43,3.94 0.45,5.97 -7.68,4.9 -15.41,9.82 -23.11,14.64 -4.5,2.87 -9.35,5.59 -14.13,8.39 12.78,-50.59 22.9,-101.85 30.76,-153.41 57.49,-1.61 99.8,-48.87 102.35,-104.96 2.55,-56.78 -50.17,-105.18 -105.22,-105.18 -58.99,0 -102.65,48.24 -105.2,105.18 -1.91,42.06 26.52,79.36 63.72,95.97 -33.17,120.13 -60.25,238.45 -117.54,352.08 -0.09,0.22 -0.28,0.69 -0.43,0.9 -1.58,-17.14 -3.66,-34.05 -5.87,-51.04 24.79,-17.83 40.73,-47.17 42.21,-79.73 2.37,-52.65 -46.53,-97.55 -97.56,-97.55 -54.67,0 -95.14,44.71 -97.51,97.55 -2.29,50.96 43.43,94.24 92.61,97.02 5.5,44.48 9.22,89.64 15.22,132.98 0.17,1.11 0.83,1.89 1.11,2.93 -45.74,91.52 -108.73,206.97 -142.57,210.13 -8.78,0.75 -15.86,5.14 -21.08,11.02 -19.24,-13.44 -38.33,-27.25 -56.44,-42.81 -25.3,-21.83 -48.61,-46.06 -70.82,-71.2 0.6,-2.12 1.91,-3.56 1.69,-6.19 -7,-77.18 -33.37,-150.18 -37.09,-228.33 -0.62,-13.67 0.3,-26.96 0.77,-40.26 134.13,25.96 201.23,-101.69 222.68,-223.79 47.13,-268.2 74.67,-539.4 127.24,-807.98 7.49,-38.2 -40.77,-59.33 -62.5,-26.35 -138.5,210.13 -339.62,436.96 -421.1,677.12 -2.5,7.39 -4.09,14.96 -6.19,22.43 -6.38,-22.05 -13.51,-44.09 -21.83,-65.99 -83.75,-220.49 -215.68,-428.27 -324.47,-637.12 -14.94,-28.7 -57.44,-13.8 -58.28,15.8 -7.7,266.59 -88.2,999.45 307.03,1056 33.99,90.39 76.39,176.92 137.04,255.89 17.66,22.94 37.93,46.74 60.12,70.07 -60.27,-31.51 -121.59,-60.42 -189.67,-71.36 -26.58,-4.24 -52.91,-4.9 -79.08,-4.24 -198.62,-233.01 -632.86,-78.52 -888.22,-40.77 -28.17,4.15 -23.97,40.56 -7,53.61 273.34,210.8 615.68,268.26 919.85,76.94 5.52,-3.57 8.86,-7.94 11.3,-12.69 113.37,8.07 215.76,62.52 327.46,90.54 3.62,0.96 6.89,0.45 10,-0.45 6.27,4.45 12.65,8.69 19.05,12.84 -929.31,165.72 -1870.55,260.56 -2796.91,187.92 -18.69,-31.27 -51.69,-61.54 -86.79,-90.6 -9.24,-40.17 -21.53,-79.73 -32.36,-119.83 70.37,-17.3 137.17,-93.47 161.4,-150.7 52.24,-123.39 15.11,-290.78 -0.67,-416.26 -23.63,-188.09 -47.45,-376.16 -71.59,-564.25 -3.51,-27.2 -38.68,-33.96 -48.37,-6.57 -45.01,127.22 -111.7,302.41 -156.24,483.77 -49.85,-262.7 -183.36,-570.81 -221.99,-652.9 -10.98,-23.33 -46.19,-15.26 -52.61,6.87 -92.97,320.81 -265.85,836.52 53.17,1098.59 -45.78,-34.82 -94.34,-66.07 -145.15,-93.7 -72.37,-135.67 -178.61,-242.96 -322.5,-307 -189.22,-84.11 -404.15,-58.21 -596.35,-133.79 -23.99,-9.37 -39.1,24.46 -23.69,40.77 135.07,142.57 284.36,267.67 449.78,371.19 -45.78,8.81 -78.21,49.52 -80.3,96.93 -0.26,5.52 0.36,10.87 1.18,16.24 -58.02,-42.08 -113.48,-89.33 -166,-142.33 21.9,-28.1 33.09,-68.55 20.72,-99.14 -8.26,-20.4 -19.11,-38.65 -32.79,-53.46 -0.02,0 -0.02,-0.06 -0.06,-0.06 -0.11,-0.17 -0.26,-0.24 -0.37,-0.3 -21.21,-22.73 -49.27,-36.86 -85.72,-35.87 -62.65,-2.87 -109.28,53.53 -111.89,111.9 -1.74,38.12 23.37,77.69 57.66,98 33.07,26.58 83.07,25.15 119.11,6.87 1.01,-0.54 1.99,-1.05 3,-1.5 1.69,-0.92 3.23,-2.27 4.9,-3.25 53.12,74.97 119.39,139.98 194.92,196.69 -32.59,-5.76 -65.41,-9.82 -97.47,-11.41 -3.1,-31.18 -20.25,-61.62 -47.86,-77.31 -45.8,-26 -106.84,-13.38 -134.09,33.22 -26.73,45.74 -8.05,106.39 41.18,126.77 0.92,0.36 1.8,0.24 2.72,0.6 2.52,1.43 4.69,2.72 6.14,3.64 34.65,20.59 75.74,11.69 104.87,-13.59 0.45,-0.32 0.67,-0.83 1.11,-1.28 57.17,16.97 135.57,3.32 197.2,-9.82 163.13,103.95 357.99,176.23 552,229.61 -468.28,-72.41 -931.31,-193.22 -1385.58,-375.19 -17.61,-27.12 -32.75,-56.4 -52.76,-81.85 -16.95,-21.53 -34.09,-42.96 -50.77,-64.7 49.44,-76.49 38.48,-161.51 -7.26,-243.44 -95.91,-171.84 -253.32,-305.19 -353.23,-477.11 -12.39,-21.21 -47.64,-12.46 -47,12.78 4.49,179.68 57.81,367.31 121.95,534.71 43.13,112.58 98.75,207.2 223.9,229.46 6.44,1.13 11.79,0.39 16.54,-1.2 17.66,23.46 36.21,46.43 58.37,65.24 3.12,2.72 6.46,4.67 9.63,7.02 -28.25,14.04 -39.13,64.4 -4.69,81.46 92.42,45.97 185.93,88.27 280.23,127.69 -14.81,0.37 -29.02,0 -45.14,1.74 -59.11,6.19 -122.12,12.91 -184.73,23.63 -16.99,-16.91 -43.51,-28.77 -59.8,-42.96 -14.94,-13.02 -27.03,-28.7 -40.09,-43.34 34.44,-26.45 29.88,-80.5 3.77,-111 -1.39,-1.58 -2.76,-3.25 -4.17,-4.83 -36.45,-42.59 -97.13,-19.48 -120.5,20.93 -37.91,38.25 -22.09,121.78 47.73,121.78 8.05,0 15.13,-1.43 21.77,-3.46 13.29,22.7 36.08,40.54 57.55,56.09 7.88,5.72 18.3,12.99 29.67,19.78 -88.01,20.23 -171.54,53.17 -239.11,110.31 -9.12,-12.48 -20.98,-22.88 -34.48,-30.05 -39.23,-25.3 -92.91,-11.17 -120.05,23.93 -28.49,36.92 -24.87,88.5 7.32,122.17zm18737.8 424.04c-5.44,5.59 -119.75,121.87 -113.03,124.89 1.97,0.83 43.87,-191.47 45.22,-200.01 19.2,-122.49 -13.65,-323.85 126.17,-377.37 17.98,-6.87 37.69,-4.6 54.96,-5.59 -2.04,12.01 -4.45,23.95 -7.24,35.94 -10.49,43.94 -34.29,79.36 -50.74,120.37 -3.7,9.03 8.99,18.57 16.76,12.91 47.19,-33.99 73.84,-87.43 86.3,-144.52 114.19,92.93 -88.09,360.98 -158.41,433.39zm229.46 -495.78c-11.77,6.59 -21,16.93 -27.57,29.77 -7.83,-6.87 -16.46,-13.38 -26.56,-19.18 -3.1,-1.76 -6.06,-2.57 -8.99,-3.02 1.43,-22.81 0.75,-45.24 -1.59,-66.76 23.11,18.34 44.63,38.14 64.7,59.18zm29.45 31.12c31.27,35.04 61.32,71.29 94.3,105.5 14.81,15.22 39.79,-0.62 34.82,-20.4 -9.22,-37.16 -25.45,-70.82 -46.21,-101.77 179.55,57.44 172.15,299.6 151.9,476.96 -31.1,-52.72 -63.95,-104.06 -101.17,-153.65 -23.18,-30.97 -199.26,-238.39 -133.64,-306.64zm-1607.19 -62.9c75.27,-62.43 145.86,-141.71 189.97,-202.94 17.36,-24.19 33.52,-48.69 48.54,-73.78 52.63,-23.11 104.72,-48.31 156.07,-75.34 29,9.35 58.07,14.26 86.98,15.39 -23.78,17.51 -40.17,45.07 -38.8,75.59 1.2,27.4 13.21,52.31 32,69.84 -0.52,0.9 -1.05,1.8 -1.5,2.63 -10.49,17.98 -18.96,38.68 -21.15,59.59 -134.24,44.39 -271.73,83.43 -408.86,124.89 -14.43,1.41 -28.85,2.72 -43.25,4.13zm-73.78 -1230.13c39.72,120.37 74.29,242.17 101.02,366.37 33.9,157.42 97.85,387.33 31.19,556.09 -1.58,-107.98 -27.48,-218.14 -60.55,-298.31 -8,-19.41 -39.04,-12.31 -32.47,8.99 30.97,100.19 45.07,203.24 35.49,307.96 -1.95,20.98 -5.97,41.31 -10.64,61.39 -255.96,-116.65 -119.77,-708.82 -64.04,-1002.49zm217.24 748.18c20.01,17.08 45.59,28.04 77.01,32.26 -41.01,101.77 -95.97,197.91 -172.23,285.04 -1.82,2.1 -4.24,4.22 -6.19,6.33 2.33,-8.93 4.52,-17.83 6.33,-27.03 63.27,-81.33 90.24,-184.3 95.07,-296.6zm51.56 -566.94c35.57,-124.67 88.8,-243.5 143.83,-360.77 90.23,311.3 167.18,618.24 -2.57,903.57 29.93,-112.22 36.17,-229.91 13.23,-350.5 -3.85,-20.18 -31.12,-12.76 -33.07,4.54 -14.13,123.22 -37.76,242.88 -77.69,355.84 -64.19,-55.2 -94.17,-233.61 -90.09,-297.11 5.59,-86.23 22.73,-172.44 46.36,-255.57zm579.65 434.91c-80.11,20.14 -159.47,48.18 -235.58,83.19 91.37,-130.24 217.46,-222.65 379.56,-264.11 130.17,-33.13 259.6,-33.82 387.2,-64.7 -210.58,208.91 -543.27,482.1 -839.46,468.57 109.56,-61.24 216.08,-128.74 319.16,-197.15 13.14,-8.78 5.14,-29.81 -10.87,-25.81zm62.43 327.06c13.44,-15.63 26.05,-32 38.29,-48.61 2.18,-3.1 4.9,-6.42 7.32,-9.65 9.59,7 20.46,12.07 32.38,15.18 -25.57,15.09 -51.65,29.45 -77.99,43.08zm-307.67 131.31c1.8,-3.62 3.46,-7.24 5.11,-10.79 1.13,0 2.12,0.32 3.19,0.32 49.76,-0.02 97.38,-43.73 95.05,-94.99 -1.59,-36.58 -22.2,-68.79 -52.87,-84.65 84.88,-17.98 168.07,-59.11 247.14,-100.87 6.27,-3.28 12.31,-6.96 18.58,-10.28 -3.47,9.95 -5.67,20.46 -5.14,31.42 0.6,13.06 3.56,25.51 8.31,37.07 -3.17,5.8 -6.33,11.62 -9.59,17.29 -18.19,31.46 -35.78,62.97 -56.33,92.93 -4.67,6.72 -3.32,13.29 0.75,18.06 -82.21,39.55 -167.31,73.69 -254.2,104.47zm-1719.56 658.48c138.03,43.57 -20.1,394.97 -56.63,468.44 -53.14,106.99 -122.32,202.52 -202.73,289.32 5.07,-150.33 12.16,-300.58 21.21,-450.83 9.29,-153.29 -16.99,-266.53 165.44,-340.22 2.42,-0.98 6.25,-1.37 10.64,-1.52 -6.78,72.19 -26.5,144.15 -51.5,208.7 -5.8,15.17 14.73,22.81 24.76,14.34 58.15,-48.54 80.5,-116.5 88.8,-188.24zm46.44 -64.17c-12.54,-5.07 -26.67,-8.9 -41.99,-11.92 0.24,-16.76 0.24,-33.45 0.09,-49.85 -0.09,-7.26 -0.54,-14.19 -0.77,-21.28 13.91,27.85 28.1,55.56 42.68,83.04zm36.62 -46.81c-1.67,0.9 -2.59,2.33 -4.17,3.4 -2.63,-4.32 -5.35,-8.54 -8,-12.84 4.09,3.17 8.09,6.33 12.18,9.44zm207.72 63.27c-39.28,-39.87 -97.64,-60.93 -144.98,-91.52 32.17,-33.81 137.79,2.12 171.78,14.72 55.86,20.61 101.62,51.28 140.28,96.51 57.25,66.88 87.13,151.08 99.07,237.46 -44.86,-35.12 -93.64,-64.1 -147.4,-85.93 -45.68,-18.49 -93.47,-29.52 -140.28,-44.54 -34.05,-10.89 -78.83,-17.89 -104.72,-42.51 -2.33,-2.29 -4.84,-5.37 -7.17,-8.3 -9.38,-17.38 -19.11,-34.74 -29,-52.03 -7.85,-20.93 -12.22,-42.8 -9.44,-60.55 46.98,33.58 101.56,69 157.12,72.32 18.58,1.14 26.82,-23.33 14.75,-35.63zm-42.68 1009.72c-0.6,0.22 -1.05,0.69 -1.67,0.98 -0.81,-12.09 -3.47,-23.11 -7.77,-33.22 -1.58,-5.13 -3.61,-10.21 -6.04,-15.02 18.43,-16.69 36.77,-33.3 52.78,-52.42 1.44,-1.82 3.02,-3.76 4.6,-5.65 -0.51,32.38 -0.15,65.6 0,98.54 -13.44,-1.15 -27.57,0.75 -41.91,6.78zm-3284.45 -1031.09c-8,34.57 -8.84,68.85 1.43,98.16 -5.05,98.22 -19.26,211.72 -21.83,220.85 -21.57,76.02 -60.25,148.96 -98.45,217.52 -18.73,33.6 -173.88,339.92 -200.46,337.29 -70.52,-7.04 -23.95,-260.28 -21.53,-303.09 9.31,-163 59.44,-436.26 242.69,-514.72 -28.47,84.8 -63.65,166.65 -100.81,249.02 -11.47,25.3 20.76,44.33 37.15,21.66 69.09,-95.14 116.65,-204.91 146.78,-318.54 6.27,-0.54 11.24,-3.7 15.02,-8.16zm25.81 -206.07c8.69,29.9 16.69,60.04 24.02,90.39 -14.79,22.67 -28.77,50.21 -39.34,79.66 -3.7,-3.64 -7.11,-7.47 -11.24,-10.72 10.72,-49.85 22.71,-104.87 26.56,-159.32zm30.37 209.15c2.78,-13.8 7.32,-27.03 11.54,-40.24 16.09,75.81 29.45,151.47 42.44,223.94 4.45,25.21 38.35,15.71 40.92,-5.5 8.6,-70.61 9.5,-153.8 1.97,-241.47 131.22,244.49 189.8,515.17 137.19,789.11 -98.84,-154.33 -161.35,-330.93 -230.53,-500.44 11.94,-70.46 13.53,-141.43 -6.87,-198.21 0.62,-9.2 1.52,-18.26 3.34,-27.18zm-2239.17 -1447.8c-8.91,-10.1 -26.82,-2.04 -26.43,10.96 2.42,92.78 42.81,180.15 67.72,269.4 -285.47,-186.35 -322.39,-631.6 -352.83,-962.47 181.97,243.2 466.93,592.05 434.07,892.18 -29.58,-79.98 -72.62,-153.5 -122.53,-210.07zm587.19 -22.97c92.65,-71.27 158.34,-152.94 205.68,-242.28 -2.48,46.81 5.97,95.29 27.55,144.3 -22.71,19.54 -45.29,39.19 -68.11,58.73 -25.21,21.53 -153.71,144.54 -266.44,242.9 37.16,-65.92 70.74,-133.94 101.32,-203.65zm301.95 -979.95c-16.91,115.34 -28.1,230.81 -42.59,347.84 -23.93,193.68 -93.56,346.49 -201.68,488.07 20.33,-56.65 38.52,-114.4 54.45,-173.3 5.52,-20.53 -26.73,-35.94 -35.72,-15 -35.17,81.74 -73.39,161.48 -113.18,240.1 -157.03,-96.36 166.26,-621.03 338.72,-887.71zm347.78 384.22c137.88,-66.82 275.89,-133.26 413.83,-199.78 -178.03,257.61 -552.09,794.99 -754.2,735.43 146.48,-147.04 270,-284.59 302.46,-322.33 14.57,-17.02 -7.85,-39.87 -24.76,-24.76 -103.22,92.31 -207.56,183.08 -312.29,273.4 -68.04,-241.19 192.45,-373.52 374.96,-461.96zm-319.93 1043.69c-13.72,8.48 -24.98,20.72 -32.15,35.21 -38.29,-3.1 -76.26,-0.45 -114.7,2.57 49.53,-12.63 98.45,-25 146.85,-37.78zm2607.43 -246.88c12.22,55.73 24.89,110.16 31.61,165.74 -202.41,-34.91 -166.11,-371.88 -190.27,-523.26 -16.07,-101.26 -35.55,-201.98 -55.56,-302.61 61.17,92.87 122.4,185.52 184.83,277.4 115.66,170.48 220.32,318.18 120.65,521.8 -10.93,-57.38 -28.68,-111.59 -53.14,-155.15 -11.86,-21.23 -43.04,-6.5 -38.12,16.07zm163.45 76.32c8,31.78 21.81,62.6 41.97,92.06 -35.02,70.59 -72.94,139.7 -115.45,205.08 -0.13,0.13 -0.21,0.21 -0.3,0.36 16.39,-67.8 16.76,-143.44 5.44,-215.25 30.52,-23.2 53.08,-51.05 68.34,-82.25zm359.4 -802.31c18.96,307.15 54.15,826.8 -242.52,931.43 30.97,-86.08 55.26,-175.16 80.41,-264.32 8.9,-31.66 -36.32,-42.21 -48.03,-13.29 -26.65,65.83 -55.41,131.67 -86.3,196.69 -112.04,-224.41 151.32,-617.11 296.43,-850.51zm629.33 1207.7c-222.06,153.05 -465.94,196.54 -706.49,81.24 66.44,7.32 127.61,6.72 180.69,-47.79 14.87,-15.41 -0.24,-39.41 -20.31,-34.87 -60.25,13.5 -119,8.22 -177.67,2.63 170.56,-130.71 506.78,-41.76 723.78,-1.22zm2938.88 -44.63c-4.22,1.43 -8.24,3.49 -12.24,5.76 0.83,-0.77 1.58,-1.52 2.35,-2.27 3.31,-1.13 6.63,-2.33 9.89,-3.49zm907.72 -610.45c48.93,-58.88 95.29,-118.77 137.34,-182.04 -16.01,203.18 -97.85,544.47 -264.26,605.17 39.34,-62.97 70.37,-132.65 82.59,-205.59 3.25,-19.26 -22.28,-33.07 -33.22,-14.04 -38.44,67.1 -72.87,135.22 -116.73,199.26 -2.78,4.13 -6.04,7.92 -8.9,11.92 -52.78,-162.73 107.66,-299.45 203.18,-414.68zm172.08 912.32c-27.11,-35.04 -80.8,-49.2 -120.07,-23.93 -13.42,7.26 -25.28,17.68 -34.41,30.05 -67.57,-57.17 -151.08,-90 -239.13,-110.31 11.41,-6.72 21.74,-14.04 29.69,-19.71 21.51,-15.54 44.24,-33.43 57.59,-56.16 6.59,2.04 13.68,3.47 21.74,3.47 69.86,-0.02 85.63,-83.43 47.73,-121.78 -23.39,-40.32 -84.03,-63.5 -120.5,-20.85 -1.44,1.58 -2.8,3.17 -4.15,4.84 -26.13,30.5 -30.74,84.48 3.77,111 -13.14,14.55 -25.15,30.26 -40.09,43.25 -16.4,14.26 -42.89,26.05 -59.89,42.98 -62.58,-10.68 -125.57,-17.38 -184.69,-23.65 -16.07,-1.65 -30.35,-1.35 -45.14,-1.65 94.3,-39.51 187.77,-81.78 280.27,-127.69 34.44,-17.15 23.54,-67.42 -4.77,-81.46 3.25,-2.42 6.57,-4.39 9.67,-7.02 22.13,-18.9 40.71,-41.76 58.37,-65.32 4.77,1.58 10.12,2.42 16.54,1.28 125.19,-22.28 180.75,-116.88 223.94,-229.52 64.1,-167.41 117.42,-355.03 121.87,-534.73 0.69,-25.23 -34.59,-33.99 -46.96,-12.69 -99.89,171.91 -257.33,305.27 -353.21,477.05 -45.76,81.91 -56.72,166.94 -7.26,243.5 -16.67,21.75 -33.84,43.11 -50.81,64.7 -20.01,25.43 -35.12,54.66 -52.72,81.78 -454.3,181.97 -917.37,302.85 -1385.65,375.26 194.04,-53.48 388.91,-125.72 552.09,-229.7 61.62,13.21 139.97,26.82 197.14,9.89 0.45,0.36 0.66,0.92 1.13,1.28 29.15,25.24 70.22,34.14 104.87,13.53 1.43,-0.86 3.62,-2.12 6.1,-3.62 0.92,-0.39 1.82,-0.24 2.74,-0.62 49.29,-20.31 67.93,-81.01 41.22,-126.77 -27.27,-46.59 -88.27,-59.2 -134.11,-33.13 -27.63,15.62 -44.77,46.04 -47.85,77.22 -32.08,1.61 -64.87,5.76 -97.49,11.41 75.59,-56.7 141.8,-121.72 194.9,-196.7 1.65,1.05 3.23,2.35 4.96,3.26 0.98,0.51 1.97,1.05 2.95,1.52 36.02,18.34 86.08,19.78 119.15,-6.81 34.29,-20.37 59.35,-59.95 57.68,-98.09 -2.63,-58.28 -49.31,-114.76 -111.89,-111.89 -36.54,-0.9 -64.55,13.14 -85.78,35.87 -0.06,0.07 -0.21,0.15 -0.3,0.3 -0.06,0 -0.06,0.09 -0.15,0.15 -13.59,14.7 -24.53,33 -32.77,53.46 -12.31,30.56 -1.13,70.97 20.76,99.14 -52.54,52.99 -107.98,100.19 -166.02,142.24 0.83,-5.31 1.44,-10.64 1.2,-16.22 -2.1,-47.37 -34.59,-88.12 -80.35,-96.89 165.44,-103.59 314.71,-228.69 449.8,-371.26 15.47,-16.22 0.3,-50.13 -23.65,-40.69 -192.22,75.57 -407.19,49.61 -596.33,133.79 -143.98,63.95 -250.22,171.33 -322.56,306.94 -50.81,27.61 -99.35,58.88 -145.2,93.7 319.09,-262.1 146.18,-777.78 53.17,-1098.61 -6.33,-22.04 -41.52,-30.2 -52.54,-6.78 -38.65,81.97 -172.17,390.13 -221.99,652.9 -44.54,-181.46 -111.23,-356.56 -156.31,-483.77 -9.65,-27.48 -44.78,-20.61 -48.31,6.5 -24.16,188.07 -47.96,376.16 -71.66,564.31 -15.71,125.4 -52.86,292.88 -0.6,416.27 24.23,57.21 90.98,133.34 161.33,150.7 -10.78,40.09 -23.09,79.66 -32.3,119.75 -35.12,29.07 -68.13,59.35 -86.77,90.62 -926.36,72.7 -1867.69,-22.13 -2797,-187.94 6.51,-4.17 12.84,-8.39 19.11,-12.84 3.08,0.99 6.4,1.44 9.95,0.54 111.76,-28.1 214.13,-82.53 327.46,-90.53 2.42,4.69 5.82,9.14 11.32,12.61 304.22,191.38 646.56,133.96 919.81,-76.86 17.06,-13.14 21.21,-49.46 -6.96,-53.61 -255.34,-37.76 -689.58,-192.22 -888.24,40.77 -26.17,-0.77 -52.46,0 -79.04,4.24 -68.11,10.94 -129.43,39.85 -189.74,71.27 22.19,-23.26 42.5,-47.04 60.16,-70.07 60.63,-78.98 103.08,-165.51 137.04,-255.81 395.2,-56.63 314.77,-789.41 307.09,-1056.09 -0.9,-29.62 -43.43,-44.39 -58.3,-15.78 -108.79,208.89 -240.78,416.63 -324.51,637.1 -8.3,21.89 -15.41,43.94 -21.83,65.98 -2.09,-7.49 -3.7,-15.02 -6.19,-22.34 -81.46,-240.27 -282.63,-467.08 -421.08,-677.19 -21.74,-32.94 -70.01,-11.8 -62.52,26.35 52.54,268.54 80.09,539.78 127.22,807.98 21.53,122.15 88.56,249.84 222.74,223.79 0.45,13.35 1.35,26.65 0.69,40.24 -3.64,78.14 -30.05,151.17 -37.01,228.33 -0.3,2.63 1.05,4.15 1.67,6.19 -22.19,25.21 -45.54,49.4 -70.84,71.3 -18.11,15.54 -37.13,29.28 -56.4,42.72 -5.26,-5.89 -12.37,-10.19 -21.15,-11.02 -33.81,-3.17 -96.78,-118.53 -142.54,-210.13 0.3,-1.07 0.9,-1.74 1.13,-2.85 5.97,-43.43 9.74,-88.5 15.17,-133.04 49.17,-2.74 94.9,-45.99 92.65,-96.95 -2.35,-52.87 -42.89,-97.56 -97.55,-97.56 -50.96,0 -99.91,44.86 -97.49,97.56 1.46,32.47 17.38,61.83 42.14,79.66 -2.18,16.97 -4.24,33.96 -5.89,51.02 -0.09,-0.21 -0.24,-0.6 -0.39,-0.9 -57.3,-113.63 -84.33,-231.88 -117.57,-351.99 37.24,-16.61 65.62,-53.91 63.74,-95.97 -2.48,-57.02 -46.21,-105.17 -105.17,-105.17 -55.05,-0.02 -107.76,48.31 -105.2,105.17 2.5,56.01 44.86,103.35 102.31,104.94 7.87,51.56 17.98,102.84 30.73,153.44 -4.75,-2.8 -9.65,-5.59 -14.1,-8.46 -7.7,-4.83 -15.41,-9.74 -23.11,-14.57 0.08,-2.06 0.53,-4 0.45,-6.04 -2.55,-56.27 -45.67,-103.91 -103.98,-103.91 -54.36,0 -106.46,47.81 -103.89,103.91 2.5,56.31 45.69,103.95 103.89,103.95 29.77,0 58.39,-14.55 78.23,-36.68 3.25,2.33 6.42,4.75 9.67,7.08 24.23,17.81 50.36,45.09 80.71,50 23.57,71.72 52.78,141.58 89.17,207.93 12.93,23.39 29.15,61.77 48.86,101.86 -12.46,-6.81 -24.85,-13.74 -37.15,-20.61 -4.81,-2.72 -9.8,-5.2 -14.72,-7.77 1.37,-6.63 1.97,-13.5 1.67,-20.46 -2.48,-54.66 -44.24,-100.81 -100.72,-100.81 -52.69,0 -103.22,46.36 -100.72,100.81 2.42,54.52 44.24,100.64 100.72,100.64 23.12,0 45.44,-9.2 63.42,-23.78 47.94,27.4 95.74,55.35 144.81,80.2 3.7,1.8 7.34,2.57 10.81,3.17 5.37,6.25 10.87,12 16.52,17.29 -345.49,-65.7 -689.94,-148.69 -1039.69,-187.04 -440.64,-48.33 -892.99,-27.55 -1334.62,-3.02 -238.67,13.2 -493.57,36.41 -742.89,86.31 141.49,-84.8 288.06,-148.69 448.5,-198.43 14.43,2.91 28.77,5.44 40.86,7.54 62.28,10.57 135.61,13.07 202.13,2.42 7.32,38.35 41.74,68.4 81.91,68.4 45.07,0 83.43,-38.35 83.43,-83.43 0.02,-44.39 -36.69,-81.7 -80.78,-83.2 147.53,-40.11 290.01,-85.93 427.35,-158.27 2.87,3.61 5.2,7.49 8.75,10.72 4.77,4.45 9.52,8.84 14.19,13.23 50.45,46.87 124.97,21.21 145.65,-33.45 14.96,-21.02 16.39,-47.43 7.34,-70.37 -9.44,-58.6 -82.83,-91.43 -135.46,-69.24 -47.26,20.01 -70.67,75.51 -55.58,121.93 -101.92,38.05 -213.3,67.65 -328.22,95.28 0.83,-0.77 1.73,-1.58 2.65,-2.33 24.98,-22.28 46.51,-45.83 66.29,-70.74 3.46,0.37 6.87,1.11 10.48,1.11 50.75,0 99.37,-44.69 97.02,-97.02 -2.4,-52.54 -42.65,-97.02 -97.02,-97.02 -50.72,0 -99.35,44.63 -97.02,97.02 1.44,31.57 16.7,59.95 40.24,77.78 -19.63,12.76 -39.34,25.51 -58.81,38.65 -38.8,26.05 -85.17,52.72 -117.1,88.65 -116.58,27.33 -233.46,56.25 -344.99,93.02 2.8,-2.72 5.74,-5.29 8.3,-8.24 11.56,-12.84 22.81,-26.05 36.47,-36.77 14.72,-11.56 32.25,-18.49 47.49,-29.22 0.39,-0.3 0.54,-0.6 0.92,-0.9 10.34,4.45 21.81,6.93 34.11,6.93 46.06,0 90.15,-40.47 88.03,-88.03 -2.18,-47.65 -38.72,-88.03 -88.03,-88.03 -46.06,-0.02 -90.15,40.54 -88.03,88.03 0.45,10.55 2.87,20.61 6.42,30.05 -31.87,11.32 -59.8,35.19 -82.17,59.65 -15.54,17.06 -25.66,34.95 -33.81,56.4 -3.55,9.44 -9.14,19.48 -11.47,29.22 -0.83,3.31 -0.77,6.66 -0.98,9.97 -148.37,56.4 -283.07,131.61 -388.4,242.67 -3.26,0.81 -6.49,1.44 -9.83,2.2 123.63,-122.25 234.21,-255.29 329.29,-398.59 112.51,-47.43 287.52,-201.14 446.38,-356.76 139.01,73 291.23,-55.73 391.2,-156.22 209.6,-210.58 379.56,-473.71 560.24,-708.61 24.76,-32.25 -21.23,-64.33 -50.36,-50.36 -252.49,121.25 -563.11,221.31 -784.8,395.03 -34.59,27.16 -65.17,57.62 -90.45,90.69 59.65,-216.26 63.95,-457.72 113.39,-690.2 7.71,-36.24 -40.62,-58.88 -60.85,-25.66 -172.74,283.52 -428.42,604.27 -493.51,937.62 -16.82,86.36 13.74,202.58 85.4,195.86 -63.72,119.9 -133.41,235.8 -209.45,347.24 -7.69,-0.75 -12.82,7.11 -10.43,14.73 -41.97,60.87 -86.15,120.13 -132.12,178.2 6.57,-51.22 4.6,-104.57 -4,-157.74 172.98,-392.25 -278.77,-865.28 -483.15,-1145.64 -15.48,-21.3 -59.95,-17.96 -56.42,15.26 41.07,382.56 47.64,960.65 442.91,1160.21 0.54,3.98 1.14,8 1.67,11.92 -8.3,13.5 -4.83,26.28 3.62,34.95 5.91,75.87 -1.13,151.92 -25.45,224.71 -36.3,40.83 -73.84,80.86 -112.58,120.05 -328.66,95.97 -633.01,252.28 -858.47,511.7 -26.5,30.57 9.29,87.88 46.51,60.25 702.04,-521.06 1459.06,-581.61 2309.85,-595.58 162.34,-2.66 322.63,2.42 481.63,13.2 122.55,88.5 201.91,214.97 257.48,356.31 -31.4,86.9 -24.7,185.97 -46.06,276.87 -1.8,7.56 -4.3,14.81 -6.19,22.28 -30.43,18.34 -66.16,47.26 -53.46,39.19 -83.19,53.08 -153.95,147.46 -204.31,231.28 -67.87,112.86 -71.21,208.08 -78.23,337.57 -8,148.22 -50.06,287.68 -16.07,434.01 3.77,16.37 23.18,27.25 39.1,22.28 76.35,-23.8 96.36,-83.9 136.74,-152.22 77.84,-131.78 165.57,-262.38 229.83,-401.54 19.2,-41.54 42.74,-102.69 60.42,-169.28 64.33,178.63 126.98,361.96 234.66,517.89 14.66,21.13 50.3,20.22 57.31,-7.49 80.33,-317.72 -20.85,-666.17 -189.29,-939.12 -22.28,-168.22 -76.28,-345.14 -169.15,-476.9 12,4.07 24.1,8.48 36.41,13.91 74.67,32.81 144.28,74.14 209.36,121.93 1.13,21.75 9.83,44.18 11.86,66.07 1.52,16.05 0.39,31.78 -0.69,47.49 -34.57,11.54 -62.52,44.39 -60.78,82.06 2.12,47.02 38.14,86.77 86.77,86.77 45.46,0 88.86,-39.87 86.83,-86.77 -1.52,-33.3 -20.16,-62.67 -48.18,-77.09 2.5,-14.94 2.33,-30.95 0.9,-46.51 -0.28,-3.56 -0.66,-7.32 -1.05,-11.09 10.42,9.11 21.21,17.65 31.27,27.18 56.25,53.29 122.08,76.17 179.46,131.22 15.56,14.94 29.98,30.43 44.54,45.76 5.22,30.88 7.7,61.62 6.21,93.02 -0.3,6.42 -0.92,12.54 -1.52,18.58 -2.33,-0.15 -4.54,-0.69 -6.94,-0.69 -48.78,0 -95.52,42.89 -93.25,93.34 2.27,50.43 40.99,93.17 93.25,93.17 48.84,0 95.5,-42.8 93.23,-93.17 -1.35,-31.87 -17.27,-60.57 -41.91,-77.48 4.09,-23.48 3.85,-48.84 0.83,-73.84 34.07,36.69 69.17,71.96 107.89,103.98 -9.95,20.14 -14.19,42.2 -7.68,65.75 10.04,36.39 41.91,62.99 78.83,67.96 33.81,4.54 66.28,-8.76 87.13,-35.7 20.91,-27.12 30.11,-75.66 7.39,-105.41 -1.14,-1.44 -2.25,-2.96 -3.38,-4.45 -18.04,-23.56 -35.96,-39.28 -66.37,-43.34 -19.86,-2.72 -43.43,0.75 -61.38,12.07 -51.05,-75.12 -113.41,-136.89 -179.4,-194.94 17.5,-0.62 35.48,-4.15 52.46,-7.41 12.33,-2.42 24.02,-4.54 35.72,-5.97 13.14,33.69 44.03,58.37 82.92,58.37 46.96,-0.02 92.03,-41.22 89.85,-89.76 -2.18,-48.65 -39.49,-89.7 -89.85,-89.7 -37.61,-0.02 -73.54,26.65 -85.4,62.05 -0.24,0.08 -0.69,0 -0.98,0 -46.21,4 -84.35,30.73 -131.99,25.98 -1.89,-0.17 -3.23,0.83 -4.9,1.35 -51.26,-43.28 -103.44,-85.91 -153.35,-132.2 -73.69,-68.34 -124.2,-101.86 -214.35,-142.55 -63.95,-28.78 -141.43,-49.01 -213.45,-73.24 617.17,60.61 1218.41,195.86 1841.25,290.4 365.97,55.54 738.21,99.14 1111.88,122.46 27.18,42.96 62.75,82.23 76.86,134.18 9.52,34.89 13.29,71.19 13.59,107.89 -39.17,12.82 -93.17,0.45 -134.93,26.5 -55.56,34.65 -82.06,87.67 -95.97,150.03 -53.59,240.4 -39.7,519.24 -46.51,764.86 -0.9,33 40.63,47.58 63.29,26.13 97.1,-91.96 399.19,-507.31 416.33,-760.94 30.05,58.28 58.52,117.27 82.74,178.11 -1.43,3.02 -2.48,6.42 -2.78,10.19 -2.33,26.2 -0.69,50.3 -8.01,75.96 -4.3,15.02 -10.12,29.45 -15.8,43.87 -64.17,-23.35 -137.85,25.9 -146.84,93.02 -4.75,35.33 5.5,69.54 31.1,95.2 31.5,31.48 68.64,34.82 110.24,29.15 1.89,-0.3 3.85,-0.52 5.65,-0.75 39.72,-5.43 63.44,-35.93 72.79,-71.2 4.54,-11.41 7.71,-23.48 7.71,-37.46 0,-35.48 -17.21,-64.25 -43.34,-85.53 5.67,-6.89 11.56,-13.52 16.31,-20.93 3.49,-5.29 6.12,-11.32 8.99,-17.15 28.25,115.83 31.57,229.46 30.05,345.44 -9.89,7.08 -14.64,16.31 -23.03,31.63 -13.59,24.85 -30.74,47.79 -50.21,68.25 -6.04,6.33 -12.84,13.38 -19.48,20.85 -9.5,-6.5 -20.01,-11.32 -31.04,-13.89 -57.08,-13.44 -114.7,22.28 -129.87,78.74 -23.24,86.6 76.49,171.78 156.45,120.37 1.89,9.57 5.05,19.03 10.94,27.78 18.81,27.63 37.91,45.76 70.82,53.68 64.57,15.56 121.12,-40.98 105.56,-105.56 -7.77,-31.93 -25,-50.43 -50.43,-68.25 23.72,-125.27 28.47,-244.79 16.91,-359.63 20.31,23.71 40.98,47.19 61.92,70.37 -7.41,14.57 -11.7,30.59 -11.02,47.58 2.72,59.48 48.3,109.78 109.78,109.78 57.46,0 112.49,-50.51 109.86,-109.78 -2.72,-59.5 -48.24,-109.8 -109.86,-109.8 -29.52,0 -58.22,13.44 -78.98,34.44 -28.83,-32.02 -58.21,-63.65 -87.88,-95.05 -22.2,-154.81 -72.26,-302.04 -141.81,-445.48 30.37,11.24 61.62,20.22 91.28,29.37 107.16,33.22 198.44,73.78 279.52,153.2 16.48,16.16 47.73,4.84 46.89,-19.48 -4.81,-153.44 -58.81,-320.44 -191.17,-410.53 -71.21,-48.48 -263.45,-130.17 -331.77,-40.09 -40.39,-30.2 -79.75,-61.62 -119.39,-92.72 -0.06,0 -0.06,0 -0.06,-0.09 -11.62,-20.97 -25.6,-39.34 -39.94,-57.38 874.8,47.41 1754.87,-19.78 2578.11,-307.6 50.21,25.98 104.19,45.31 152.82,76.02 -6.04,3.7 -10.43,9.67 -9.68,18.06 1.82,20.44 1.52,40.78 0.15,60.94 -18.94,-4.17 -93.76,20.82 -81.01,15.24 -48.33,21.15 -92.65,56.4 -114.25,105.41 -25.28,57.38 -16.14,127.82 -21.28,188.69 -9.97,120.05 -36.32,235.8 -72.94,350.35 -4,12.67 4.9,23.84 16.01,28.17 47.41,18.56 93.17,-40.92 124.12,-69.02 73.93,-66.82 142.03,-139.76 191.11,-226.96 27.12,-47.94 61.68,-112.43 78.44,-176.32 24.25,38.44 52.93,75.21 76.28,109.41 60.25,88.41 120.5,175.24 172.15,269.1 13.52,24.4 48.03,11.62 49.67,-13.51 15.11,-229.93 59.74,-589.84 -249.17,-626.31 -0.9,-0.17 -1.58,0.21 -2.39,0.21 -26.43,-26.07 -55.59,-49.76 -85.78,-71.04 -37.22,-26.37 -81.16,-54.21 -127.52,-73.48 2.87,-1.07 5.59,-2.12 8.37,-3.17 52.93,-0.32 110.99,9.14 159.83,9.89 138.41,2.03 282.78,14.72 413.48,68.34 5.5,14.7 7.23,30.2 5.2,45.52 -1.65,0 -3.25,-0.45 -4.9,-0.45 -42.96,0 -79.43,34.89 -82.83,77.24 -0.08,0.36 -0.08,0.9 -0.15,1.35 -0.08,1.65 -0.45,3.26 -0.45,4.93 0,0.13 0,0.36 0,0.6 -2.35,30.56 12.52,62.43 44.84,72.62 11.71,6.27 24.7,10.21 38.59,10.21 45.16,-0.02 83.49,-38.35 83.49,-83.43 0.02,-26.37 -13.12,-50.06 -32.83,-65.47 1.97,-12.69 2.33,-25.69 0.75,-38.65 19.18,9.89 37.91,21.06 56.25,33.13 -0.96,5.59 -2.42,10.96 -2.78,16.93 -4.83,75.7 100.64,117.93 151,62.58 0.62,-0.69 1.13,-1.43 1.73,-2.03 6.81,-4.77 13.29,-9.97 18.81,-15.71 32.17,-33.76 35.79,-85.25 7.26,-122.26z"/>
 </g>
</svg>
