<?xml version="1.0" encoding="UTF-8"?>
<!DOCTYPE svg PUBLIC "-//W3C//DTD SVG 1.1//EN" "http://www.w3.org/Graphics/SVG/1.1/DTD/svg11.dtd">
<!-- Creator: CorelDRAW 2021 (64-Bit) -->
<svg xmlns="http://www.w3.org/2000/svg" xml:space="preserve" width="22in" height="22in" version="1.1" style="shape-rendering:geometricPrecision; text-rendering:geometricPrecision; image-rendering:optimizeQuality; fill-rule:evenodd; clip-rule:evenodd"
viewBox="0 0 22000 22000"
 xmlns:xlink="http://www.w3.org/1999/xlink"
 xmlns:xodm="http://www.corel.com/coreldraw/odm/2003">
 <defs>
  <style type="text/css">
   <![CDATA[
    .fil0 {fill:none}
    .fil1 {fill:#2B2A29}
   ]]>
  </style>
 </defs>
 <g id="Layer_x0020_1">
  <metadata id="CorelCorpID_0Corel-Layer"/>
  <rect class="fil0" width="22000" height="22000"/>
  <path class="fil1" d="M8028.73 11026.99c-0.73,-4 -1.14,-8.12 -0.7,-12.56 0.46,-4.43 0.61,-8.8 0.81,-13.16 -41.86,-12.46 -83.42,-24.1 -124.9,-35.36 -41.65,-11.92 -83.27,-23.21 -125.01,-33.81 -83.2,-20.45 -167.8,-41.85 -254.25,-59.45 -17.17,-3.58 -28.2,-30.2 -6,-37.43 80.2,-26.25 160.86,-28.42 240.96,-20.43 40.14,4.35 80.32,12.24 120.21,22.11 39.82,9.16 79.28,20.6 118.46,33.07 -30.5,-57.06 -80.82,-104.64 -139.66,-140.65 -59.04,-36.89 -126.78,-62.95 -193.05,-74.8 -45.98,-8.25 -93,-13.23 -139.77,-13.72 -23.42,-0.35 -46.88,0.16 -70.27,1.35 -23.35,0.97 -46.82,2.08 -70.11,4 -36.02,2.5 -91.63,3.55 -144.19,9.35 -52.6,5.43 -102.07,17.43 -125.94,45.35 -32.17,37.63 -18.27,46.5 10.87,80 15.26,17.53 34.15,32.12 52.07,47.32 32.85,27.74 67.25,54.3 101.8,80.86 73.22,55.87 149.43,108.94 235.51,150.32 41.8,19.54 85.87,36.12 131.89,48.89 45.96,12.55 93.76,21.59 141.85,22.35 35.56,0.85 85.83,-6.99 132.18,-23.82 46.32,-17.06 88.03,-44.49 107.25,-79.79zm5942.54 0c0.73,-4 1.14,-8.12 0.7,-12.56 -0.46,-4.43 -0.61,-8.8 -0.8,-13.16 41.85,-12.46 83.42,-24.1 124.9,-35.36 41.65,-11.92 83.26,-23.21 125.01,-33.81 83.2,-20.45 167.8,-41.85 254.25,-59.45 17.17,-3.58 28.2,-30.2 6.01,-37.43 -80.2,-26.25 -160.87,-28.42 -240.96,-20.43 -40.15,4.35 -80.32,12.24 -120.21,22.11 -39.82,9.16 -79.28,20.6 -118.46,33.07 30.5,-57.06 80.82,-104.64 139.66,-140.65 59.04,-36.89 126.78,-62.95 193.05,-74.8 45.98,-8.25 93,-13.23 139.77,-13.72 23.41,-0.35 46.88,0.16 70.27,1.35 23.34,0.97 46.82,2.08 70.11,4 36.02,2.5 91.63,3.55 144.19,9.35 52.6,5.43 102.07,17.43 125.94,45.35 32.17,37.63 18.27,46.5 -10.87,80 -15.26,17.53 -34.15,32.12 -52.07,47.32 -32.85,27.74 -67.25,54.3 -101.8,80.86 -73.22,55.87 -149.43,108.94 -235.5,150.32 -41.8,19.54 -85.87,36.12 -131.89,48.89 -45.96,12.55 -93.76,21.59 -141.85,22.35 -35.56,0.85 -85.83,-6.99 -132.18,-23.82 -46.32,-17.06 -88.03,-44.49 -107.25,-79.79zm-1540.64 -580.5c70.73,1.52 140.15,2.76 209.5,-0.96 69.46,-4.16 137.94,-10.99 205.82,-23.46 26.36,-5.3 24.36,-40.86 -2.74,-45.02 -61.36,-9.75 -122.56,-15.89 -184.07,-19.79 -61.17,-4.91 -122.3,-8.02 -184.21,-9.99 72.87,-54.05 140.98,-118.13 209.5,-146.16 50.2,-20.24 104.63,-30.11 160.16,-30.11 27.84,-0.11 56.1,2.03 84.57,6.02 28.51,3.6 57.77,8.47 86.77,14.97 58.02,13.04 116.42,31.7 174.31,50.26 57.68,19.12 113.92,40.76 167.96,58.8 -32.32,21.42 -63.95,44.31 -95.52,67.21 -31.59,22.5 -62.99,45.25 -95.35,66.93 -64.46,43.05 -132.61,83.55 -209.11,107.44 -87.44,27.23 -181.08,31.02 -271.22,12.06 -45.19,-9.35 -90.23,-22.24 -133,-41.13 -42.87,-18.72 -84.27,-41.38 -123.38,-67.07zm-558.76 244.3c56.52,34.53 108.84,73.83 158.61,114.32 49.83,40.38 96.18,84.19 139.02,130.82 86.64,90.94 159.12,194.5 218.51,303.19 -116.46,0.61 -231.23,-27.65 -340.89,-72.72 -54.4,-23.63 -107.37,-51.47 -158.52,-82.72 -51.11,-31.39 -99.28,-67.81 -145.56,-105.68 -50.59,-40.87 -98.63,-87.04 -142.44,-135.07 -22,-24.04 -42.73,-48.79 -61.91,-74.14 -18.92,-25.91 -36.17,-52.46 -51.59,-79.5 -33.56,-59.35 -44.04,-112.49 -48.84,-166.16 127.48,119.54 269.7,225.84 426.96,297.85 35.63,16.49 56.71,-21.64 31.52,-46.01 -28.79,-27.84 -58.3,-54.48 -88.02,-81.14 -29.57,-27.11 -59.52,-53.65 -89.56,-79.93 52.09,21.78 102.83,46.82 152.7,76.91zm657.64 186.39l49.65 22.01c-13.19,-5.36 -26.73,-6.06 -39.24,-3.64l-10.4 -18.37zm114.63 75.52c-14.05,-11.87 -27.62,-24.37 -40.74,-37.43 -6.73,-6.63 -13.99,-11.37 -21.42,-14.81 18.94,8.31 37.7,17 56.78,24.93 1.28,9.18 3.01,18.25 5.37,27.32zm172.79 106.33c-23.43,-30.22 -46.82,-61.57 -72.76,-89.66l30.93 12.89c42.33,18.02 85.44,34.26 128.29,50.99 42.97,16.37 85.73,33.65 129.01,49.33 -11.76,14.1 -21.48,29.73 -28.47,47 -59.23,-21.15 -120.91,-37.48 -178.73,-66.5l-8.26 -4.05zm4720.63 295.22c35.96,-29.72 69.52,-61.42 100.99,-94.47 31.43,-33.63 60.55,-69.23 88.04,-105.51l10.83 -14.94c1.99,-0.89 3.98,-1.89 5.94,-3.21 23.48,-15.38 44.59,-29.17 65.68,-42.94 20.67,-14.39 40.7,-29.96 61.41,-49.07 39.93,-37.29 81.59,-72.19 124.15,-106.18 73.12,-60.1 150.81,-111.24 227.54,-165.39 18.22,26.98 44.08,48.41 74.94,64.2 30.86,13.81 64.2,20.39 99.12,17.2l18.52 -3.94c-4.89,65.62 6.39,130.39 39.29,187.2 -39,46.7 -82.29,88.63 -132.45,119.94 -25.13,15.28 -51.96,28.35 -81.2,36 -29.3,7.65 -60.7,11.15 -94.52,9.19 -24.15,-1.38 -40.81,12.46 -48.9,30.05 -185.22,46.15 -371.38,88.69 -559.38,121.85zm1293.44 -455.92c-44.87,15.72 -89.15,20.94 -134.67,28.52 28.63,-29.96 60,-53.28 92.01,-75.84 31.89,-23.19 64.81,-45.18 96.78,-71.07 27.24,-22.14 22.24,-70.28 -17.88,-72.07 -131,-4.99 -233.14,107.15 -309.19,199.32 -3.82,4.46 -7.43,9.01 -11.15,13.55 -13.3,-56.74 -7.04,-111.8 12.13,-164.95 1.87,-3.48 3.94,-6.83 5.68,-10.44 6.39,-11.37 11.05,-22.89 14.05,-34.69 26.69,-51.72 65.63,-99.29 111.35,-141.2 45.46,-42.92 97.99,-79.72 153.06,-108.14 43.43,-23.51 103,-42.56 163.32,-64.31 59.9,-22.24 119.98,-48.95 164.52,-84.41 20.68,67.69 26.14,139.44 13.88,210.09 -12.21,70.4 -41.68,140.76 -91.57,201.51 -33.19,40.81 -72.83,76.23 -117.26,105.24 -44.71,28.33 -93.82,51.18 -145.04,68.89zm-5818 363.84c10.88,22.13 25.89,43.23 43.88,62.31 -21.95,-20.63 -43.45,-41.38 -64.42,-62.47 6.86,0.26 13.76,0.39 20.54,0.15zm369.06 280.65c54.94,-10.78 110.85,-10.11 167.22,-3.33 56.34,6.7 112.72,21.47 167.75,41.9 110.38,38.84 215.82,100.88 304.24,163.87 98.82,72.82 188.12,150.96 265.54,239 77.68,86.31 144.09,180.05 197.2,280.19 -64.5,17.81 -130.79,25.18 -197.78,24.7 -67.03,-0.3 -133.99,-11.33 -200.54,-26.78 -66.71,-15.19 -131.79,-39.29 -195.29,-65.91 -63.64,-26.34 -124.75,-58.4 -182.98,-92.06 -76.03,-42.68 -210.8,-120.85 -310.54,-208.33 -99.63,-89.08 -163.75,-185.5 -107.25,-264.41 82.42,52.78 167.97,103.98 257.68,147.2 44.83,21.86 90.23,43.6 136.6,63.05 46.48,19.23 93.65,37.48 141.46,54.87 61.1,22.15 104.15,-50.55 42.73,-73.71 -88.4,-34.65 -175.24,-71.04 -258.61,-114.58 -41.7,-21.44 -82.9,-43.39 -123.26,-66.44 -40.23,-23.83 -79.63,-48.29 -118.3,-73.54 9.66,-6.07 14.31,-15.74 14.12,-25.68zm1650.31 240.35l93.66 76.87c12.99,10.61 70.59,53.28 98.73,75.15 0.18,0.86 0.45,1.74 0.9,2.56 7.67,14.04 7.47,10 20.64,19.95 12.75,9.65 29.4,11.69 42.83,2.39l14.3 -9.89c23.5,-16.28 20.29,-44.9 2.91,-63.87 -25.57,-27.72 -53.76,-54.15 -83.06,-79.89 56.43,5.79 113.81,9.69 165.78,24.75 59.25,16.72 114.09,39.4 163.38,69.78 49.15,30.59 93,66.83 130.21,109.61 101.66,117.53 155.94,260.63 198.13,400.78 -48.62,-15.59 -96.89,-32.61 -144.98,-49.78 -48.07,-17.09 -95.83,-34.09 -143.15,-51.8 -47.33,-18.41 -94.26,-37.09 -140.69,-56.22l-69.29 -28.92 -68.25 -31.03c-47.86,-22.19 -95.57,-45.94 -139.77,-72.99 -44.23,-27.7 -84.74,-59.11 -118.46,-95.12 -54.55,-57.98 -109.77,-206.44 -23.84,-242.35zm5229.06 -1420.32l8.57 -1.96 -9.54 5.08 0.97 -3.12zm204.06 -109.56c25.73,-23.36 48.03,-50.13 66.22,-78.23 2.36,-1.09 4.74,-2.33 6.88,-3.93 35.37,-27.12 60.97,-62.34 86.05,-98.18 24.89,-36.09 48.7,-73.71 82.14,-104.43 73.55,-66.84 157.83,-121.89 250.03,-159.59 52.15,-22.91 106,-40.56 160.8,-54.93 55.04,-13.94 109.5,-26.76 165.17,-36.66 30.99,-5.87 70.67,-14.98 111.42,-24.15 40.7,-9.31 83.38,-17.59 121.85,-19.95 -20.91,38.01 -42.57,76.46 -65.68,114.48 -23.64,37.3 -48.69,74.14 -75.62,109.76 -53.25,72.07 -116.33,136.16 -189.33,190.05 -71.83,51.72 -150.2,85.51 -229.97,106.44 -80.81,19.49 -162.57,26.66 -243.16,23.5 63.03,-43.94 125.3,-88.91 187.91,-133.43 47.02,-35.1 1.48,-94.8 -46.23,-63.55 -64.24,39.98 -128.12,80.21 -192.71,119.17 -65.36,37.85 -129.72,77.16 -195.77,113.63zm-3342.02 1309.78l139.33 -18.78c46.36,-6.57 92.55,-14.59 138.89,-21.81 92.65,-13.84 184.44,-32.56 276.65,-49.29l137.52 -28.73 68.74 -14.56 68.37 -15.95 136.74 -32.4 135.94 -35.44c87.39,24.06 178.78,24.91 270.42,40.59 9.47,1.56 18.84,3.78 28.31,5.52 0.78,16.07 13.67,30.33 37.7,30.27 6.81,21.52 20.15,43.12 30.37,58.42 56.87,84.95 83.65,163.92 91.7,253.04l-7.76 1.75c-30.1,9.49 -56.33,23.5 -78.69,42.83 -24.8,15.79 -44.16,35.53 -58.4,59.24 -11.71,16.59 -19.52,33.78 -23.72,51.41 -60.13,-50.06 -141.04,-97.96 -215.18,-136.22 -74.26,-38.02 -141.85,-66.06 -178.67,-78.44 -257.37,-81.5 -537.33,-85.62 -804.3,-8.91 -50.71,-24.71 -129.67,-60.93 -193.97,-102.54zm131.81 181.7l3.31 1.51c8.98,11.98 23.39,20.07 41.2,18.61 54.13,23.15 109.72,43.11 166.87,61.67 28.5,9.13 57.55,18.09 86.77,26.03 29.16,7.57 58.69,14.74 88.52,21.41 59.22,13.05 90.37,-63.06 32.51,-78.02 -72.85,-19.14 -143.05,-40.28 -211.56,-67.38 20.2,-3.11 40.43,-5.62 60.7,-7.65 20.14,-2.43 40.32,-4.26 60.54,-5.57 40.4,-2.64 80.79,-3.01 121.18,-1.15 80.69,3.44 160.65,13.33 239.76,33.33 103.45,24.48 202.93,64.15 291.45,114.91 14.42,8.2 71.14,44.75 121.31,82.51 50.04,37.8 93.43,76.88 78.08,91.13 -18.61,17.16 -140.5,-8.74 -164.2,-10.31 -57.07,-4.28 -114.74,-4.71 -172.56,-1.31 -63.54,4.09 -127.42,9.9 -191.07,16.44l-95.39 9.56c-31.84,2.44 -63.72,4.15 -95.58,5.19 -120.83,4.8 -251.61,-4.48 -348.43,-62.02 -45.41,-27.06 -83.66,-65.78 -104.44,-109.7 -22.98,-48.7 -9.72,-89.79 -8.98,-139.18zm1662.41 -368.24c25.2,-1.63 50.37,-3.25 75.82,-4.94 0.52,14.13 3.12,27.91 7.77,41.42 -27.28,-12.53 -55.4,-25.31 -83.59,-36.47zm702.91 -160.63c-31.48,-34.65 -48.38,-77.25 -67.52,-118.62 71.92,5.67 145.63,10.38 220.31,11.15 74.22,-0.12 149.21,-4.86 224.57,-15.96 42.59,-6.63 33.87,-59.67 -1.25,-61.04 -70.21,-3.76 -140.75,-5.19 -210.48,-6.83 -69.7,-1.45 -139.98,-5.9 -208.33,-13.06l-13.33 -1.69c61.05,-41.59 125.35,-69.61 207.62,-93.38 51.92,-14.69 107.6,-29.06 162.89,-41.52 55.22,-12.6 110.91,-21.53 164.13,-22.52 171.34,-5.11 297.03,98.41 404.13,200.7 -177.52,129.69 -382.86,258.39 -600.12,261.99 -109.3,1.43 -218.24,-28.19 -282.62,-99.23zm-216.12 -129.78c14.12,25.85 26,52.53 37.7,78.92 -3.6,-2.84 -7,-5.79 -10.88,-8.42 -20.84,-20.4 -46.67,-34.41 -77.64,-42.24 -29.9,-9.69 -61.26,-12.89 -93.94,-8.62 -33.54,-0.74 -66.06,6.23 -97.9,20.99 -32.66,12.75 -60.4,31.13 -83.5,54.73 -26.03,19.83 -45.84,43.95 -59.44,72.31 -8.18,14.13 -14.11,28.51 -17.97,43.05 -47.01,-2.73 -95.19,-4.6 -143.06,-3.61 -47.9,1.09 -95.23,5.41 -141.4,13.21 -62.27,-19.01 -127.21,-35.23 -192.13,-45.5 80.5,-25.66 161.5,-49.68 241.23,-77.65l120.06 -40.78 118.9 -43.61c64.37,-23 127.96,-48.06 191.57,-73.08 23.43,18.89 55.62,32.22 92.01,41.91 36.37,9.7 76.55,14.59 116.39,18.39zm885.09 -812.18c16.75,-62.41 27.73,-133.08 1.11,-175.43 -16.81,-26.64 -58.04,-21.03 -75.19,6.44 -21.12,34.24 -17.27,67.49 -22.02,104.7 -1.37,10.26 -3.57,20.49 -5.42,30.71 -34.06,-103.29 -59.83,-196.43 -38.36,-322.06 10.82,-62.61 30.13,-121.52 56.94,-176.64 26.41,-55.92 60.59,-107.58 102.29,-154.3 80.74,131.73 174.14,306.3 159.94,456.01 -9.41,104.79 -98.74,164.47 -179.3,230.57zm-3918.13 1064.17c22.73,-13.43 44.86,-27.61 65.95,-42.7 21.06,-15.59 41.15,-31.97 60,-49.29 37.57,-34.71 70.21,-73.1 95.6,-116.06 10.19,-17.29 -13.69,-29.67 -28.78,-21.8 -42.45,22.17 -83.33,46.67 -123.93,72.02 -40.78,24.94 -81.36,49.89 -122.07,74.8 -18.6,-126.02 -32.72,-258.77 81.8,-348.65 36.87,-29.15 80.38,-49.78 125.85,-65.14 22.69,-7.77 45.95,-14.42 69.06,-20.64 22.97,-6.69 45.89,-13.34 68.12,-19.79 52.15,-16.19 104.38,-30.39 155.91,-47.81 35.1,-11.55 103.58,-51.47 125.17,-21.74 14.55,20.15 -1.53,71.85 -24.36,124.57 -22.87,52.67 -52.56,106.39 -62.46,130.17 -35.25,84.84 -66.56,179.76 -133.27,249.32 -21.99,22.93 -46.82,41.53 -73.76,56.39 -27.04,14.79 -56.12,24.81 -86.5,32.46 -60.9,14.89 -126.88,18.75 -192.34,13.91zm-274.35 -1446.76c-25.16,0.09 -48.28,7.13 -69.77,20.4 -22.46,8.46 -41.8,22.56 -58.07,42.28 -17.68,18.35 -30.01,40 -37.11,64.81 -11.35,23.93 -16.33,49.56 -14.9,76.88 0.67,53.78 22.89,101.14 58.24,139.33 24.49,23.91 53.39,41.09 86.33,48.63l7.45 0.69c8.86,106.49 -8.11,211.59 -44.82,311.58 -36.66,99.52 -93.06,194.51 -161.24,282.69 2.04,-30.5 0.93,-60.75 -3.61,-89.6 -21.14,-132.91 -87.91,-270.96 -187.42,-364.02 4.77,-7.78 8.37,-16.06 10.49,-24.81l2.33 -8.92 9.79 -37.75c18.33,-71.3 1.69,-145.39 -47.14,-199.47 -34.63,-38.12 -85.95,-61.81 -135.57,-63.51 -52.43,-2.74 -100.16,18.05 -140.64,52.69 -54.61,46.91 -75.64,124.74 -63.43,194.9l7.11 40.69 1.58 9.06 16.35 46.73 27.59 40.17 37.27 31.86 45.03 21.61c8.01,2.74 42.2,8.99 50.93,9.75 35.69,2.49 47,-3.87 74.93,-14.7 4.57,-1.16 9.01,-2.61 13.33,-4.41 31.38,35.37 60.37,71.9 85.3,111.79 24.93,39.34 45.78,81.92 60.8,130.21 45.06,143.95 -12.66,237.19 -94.85,353.52 -213.02,176.11 -471.7,281.23 -768.25,287.45 -45.69,-5.69 -91.02,-13.76 -136.48,-20.76 -45.43,-7.6 -91.03,-13.76 -136.28,-22.52 -85.3,-15.91 -170.8,-30.76 -255.56,-49.39 -42.48,-9.02 -85.02,-17.36 -127.26,-27.04l-126.73 -29.65c-42.31,-9.49 -84.28,-20.24 -126.19,-31.28l-125.9 -32.65 -125.13 -35.5 -62.51 -17.76 -62.15 -19.06c70.44,-15.43 139.64,-37.91 205.7,-58.46 23.87,-7.34 47.48,-14.52 71.04,-21.74 1.62,2.78 3.22,5.25 4.92,8.15 13.73,21.01 37.54,28.02 59.28,25.13 7,54.93 49.67,102.56 129.72,134.42 65.82,24.83 139.01,32.19 211.35,26.55 72.41,-6.31 143.53,-22.78 205.86,-43.93 72.08,-24.98 139.78,-57.36 203.61,-94.69 64,-38.42 124.04,-81.36 180.59,-125.72 43.1,-33.41 95.94,-75.13 134.96,-122.24 39.06,-47.39 64.31,-101.35 54.86,-162.27 -10.62,-68.11 -58.36,-100.92 -116.51,-119.02 -58.13,-19.13 -127.08,-22.07 -180.04,-28.61 -142.57,-19.06 -289.1,-30.56 -432.3,-5.32 -130.41,24.39 -251.08,79.07 -346.52,171.37 -51.61,49.47 -94.26,108.5 -123.46,172.71 -9.51,20.81 -14.9,38.85 -17.2,56 -75.65,25.01 -151.52,49.57 -227.79,68.95 -76.58,20.04 -154.36,38.03 -233.75,49.72 -253.91,-84.58 -503.68,-180.68 -748.3,-288.44 -247.94,-109.22 -491.11,-228.45 -728.59,-358.22 31.24,5.07 62.29,10.12 93.65,13.77 31.45,3.61 62.84,6.83 94.13,9.72l93.64 8.13c31.2,2.47 62.76,3.96 94.01,5.86l14.98 0.91c162.52,159.07 400.34,256.39 625.95,226.78 62.72,-7 120.65,-26.87 174.14,-51.03 53.65,-24.75 103.33,-54.42 152.06,-87.64 48.7,-33.08 96,-67.91 144.13,-100.65 48.11,-32.78 97.1,-63.26 149.66,-89.33 45.11,-22.21 35.51,-90.65 -11.7,-104.1 -58.94,-18.26 -120.46,-39.78 -183.59,-61.13 -62.48,-23.03 -127.03,-44.43 -191.56,-63.72 -64.22,-20.11 -129.89,-34.52 -194.47,-44.09 -64.64,-9.69 -130,-10.22 -194.14,-1.87 -108.07,14.03 -195.39,69.41 -279.92,131.8 -40.84,30.24 -80.37,63.39 -125.72,88.36 -49.64,27.2 -104.32,34.42 -158.73,49.22 -1.56,0.42 -3,1.04 -4.48,1.64 -149.16,-9.57 -298.52,-21.35 -448.65,-20.38l-35.25 -20.49c-95.65,-54.28 -188.71,-113.32 -282.05,-172.12 60.54,-1.65 120.81,-10.22 176.56,-22.56 55.93,-12.75 107.41,-29.34 153.15,-51.04 13.75,6.43 28.73,12.41 43.16,15.8 32.33,7.61 68.89,8.8 99.51,-0.49 50.88,-15.43 88.99,-52.14 99.27,-104.1 6.76,-34.07 0.05,-70.53 -17.37,-101.51 -4.52,-14.23 -10.78,-27.97 -19.06,-41.09 -16.52,-25.64 -38.15,-45.57 -65.03,-60.37 -26.71,-15.27 -55.13,-23.02 -85.51,-23.56 -22.28,-1.04 -43.06,3.11 -62.37,12.34 -20.92,6 -39.05,16.79 -54.24,32.36 -21.62,20.67 -36.06,45.46 -43.17,74.42 -7.3,30.04 -4.41,65.57 8.11,97.85 -43.03,10.09 -86.61,19.13 -130.82,24.47 -44.03,5.08 -89.06,7.18 -135.9,4.75 -91.61,-3.88 -176.26,-33.37 -264.5,-55.29l-23.46 -16.08c16.26,-13.08 32.41,-26.26 48.39,-39.64 37.16,-31.91 74.07,-64.13 110.43,-96.67 43.78,-39.13 3.25,-101.25 -47.81,-66.98 -67.85,46.48 -135.79,93.05 -203.82,139.68 -68.03,-46.63 -135.96,-93.2 -203.82,-139.68 -51.06,-34.26 -91.58,27.86 -47.81,66.98 36.36,32.54 73.27,64.76 110.43,96.67 15.98,13.38 32.14,26.56 48.39,39.64l-23.46 16.08c-88.24,21.92 -172.89,51.41 -264.5,55.29 -46.84,2.43 -91.87,0.33 -135.9,-4.75 -44.21,-5.34 -87.79,-14.38 -130.82,-24.47 12.52,-32.29 15.41,-67.81 8.11,-97.85 -7.12,-28.96 -21.55,-53.74 -43.17,-74.42 -15.19,-15.57 -33.32,-26.36 -54.24,-32.36 -19.31,-9.23 -40.08,-13.38 -62.37,-12.34 -30.38,0.54 -58.8,8.29 -85.51,23.56 -26.88,14.8 -48.5,34.73 -65.03,60.37 -8.29,13.12 -14.55,26.86 -19.06,41.09 -17.42,30.98 -24.13,67.44 -17.37,101.51 10.28,51.96 48.39,88.67 99.27,104.1 30.61,9.29 67.18,8.11 99.5,0.49 14.44,-3.4 29.41,-9.37 43.17,-15.8 45.74,21.7 97.22,38.29 153.15,51.04 55.74,12.34 116.01,20.91 176.55,22.56 -93.33,58.8 -186.4,117.84 -282.05,172.12l-35.25 20.49c-150.14,-0.98 -299.49,10.81 -448.65,20.38 -1.48,-0.6 -2.92,-1.22 -4.48,-1.64 -54.42,-14.8 -109.1,-22.02 -158.73,-49.22 -45.35,-24.98 -84.89,-58.13 -125.72,-88.36 -84.53,-62.39 -171.85,-117.77 -279.92,-131.8 -64.14,-8.35 -129.5,-7.82 -194.14,1.87 -64.58,9.57 -130.25,23.98 -194.47,44.09 -64.53,19.3 -129.08,40.69 -191.56,63.72 -63.12,21.36 -124.64,42.88 -183.59,61.13 -47.21,13.45 -56.81,81.89 -11.7,104.1 52.56,26.07 101.55,56.55 149.66,89.33 48.14,32.74 95.44,67.57 144.13,100.65 48.74,33.22 98.42,62.89 152.07,87.64 53.49,24.16 111.41,44.03 174.14,51.03 225.61,29.61 463.43,-67.71 625.95,-226.78l14.98 -0.91c31.26,-1.91 62.81,-3.39 94.01,-5.86l93.65 -8.13c31.3,-2.89 62.68,-6.11 94.13,-9.72 31.37,-3.65 62.42,-8.7 93.65,-13.77 -237.47,129.77 -480.64,249 -728.58,358.22 -244.62,107.76 -494.38,203.86 -748.3,288.44 -79.39,-11.69 -157.17,-29.67 -233.75,-49.72 -76.26,-19.39 -152.14,-43.94 -227.79,-68.95 -2.3,-17.15 -7.69,-35.19 -17.2,-56 -29.2,-64.2 -71.85,-123.24 -123.46,-172.71 -95.44,-92.3 -216.1,-146.99 -346.52,-171.37 -143.21,-25.23 -289.74,-13.73 -432.3,5.32 -52.96,6.54 -121.91,9.49 -180.04,28.61 -58.15,18.09 -105.89,50.91 -116.51,119.02 -9.45,60.92 15.8,114.88 54.87,162.27 39.02,47.11 91.86,88.83 134.96,122.24 56.56,44.36 116.59,87.3 180.59,125.72 63.83,37.33 131.53,69.72 203.61,94.69 62.33,21.14 133.45,37.61 205.86,43.93 72.35,5.64 145.53,-1.71 211.35,-26.55 80.06,-31.85 122.72,-79.49 129.72,-134.42 21.74,2.89 45.55,-4.12 59.28,-25.13 1.7,-2.89 3.3,-5.37 4.92,-8.15 23.55,7.22 47.17,14.41 71.04,21.74 66.06,20.55 135.25,43.03 205.7,58.46l-62.15 19.06 -62.51 17.76 -125.13 35.5 -125.9 32.65c-41.92,11.03 -83.88,21.78 -126.19,31.28l-126.73 29.65c-42.24,9.69 -84.79,18.02 -127.26,27.04 -84.76,18.63 -170.25,33.48 -255.56,49.39 -45.24,8.76 -90.85,14.92 -136.28,22.52 -45.46,6.99 -90.79,15.07 -136.48,20.76 -296.55,-6.22 -555.23,-111.34 -768.25,-287.45 -82.19,-116.33 -139.91,-209.57 -94.85,-353.52 15.02,-48.29 35.86,-90.87 60.8,-130.21 24.93,-39.89 53.92,-76.41 85.29,-111.79 4.32,1.8 8.76,3.25 13.33,4.41 27.93,10.83 39.24,17.19 74.93,14.7 8.72,-0.76 42.92,-7 50.93,-9.75l45.03 -21.61 37.27 -31.86 27.59 -40.17 16.35 -46.73 1.58 -9.06 7.12 -40.69c12.21,-70.16 -8.82,-147.99 -63.43,-194.9 -40.48,-34.64 -88.21,-55.43 -140.64,-52.69 -49.63,1.7 -100.94,25.39 -135.57,63.51 -48.83,54.08 -65.47,128.17 -47.14,199.47l9.79 37.75 2.33 8.92c2.12,8.76 5.72,17.03 10.49,24.81 -99.5,93.06 -166.28,231.11 -187.42,364.02 -4.54,28.85 -5.65,59.1 -3.61,89.6 -68.18,-88.18 -124.58,-183.17 -161.24,-282.69 -36.72,-100 -53.68,-205.09 -44.82,-311.58l7.45 -0.69c32.94,-7.54 61.85,-24.72 86.33,-48.63 35.35,-38.2 57.56,-85.55 58.24,-139.33 1.43,-27.32 -3.55,-52.96 -14.9,-76.88 -7.09,-24.8 -19.43,-46.46 -37.11,-64.81 -16.27,-19.72 -35.61,-33.82 -58.08,-42.28 -21.49,-13.27 -44.61,-20.31 -69.77,-20.4l-48.79 4.87c-31.38,8.16 -59.12,23.93 -83.47,46.57 -35.17,36.44 -59.39,82.65 -63.15,136.38 -2.76,27.21 0.93,53.02 11.08,77.54 6.09,25.07 17.8,47.24 35.32,66.55 15.64,19.89 34.87,35.13 57.41,43.93 -17.72,79.18 -16.06,161.77 0.43,244.57 -2.51,-1.15 -4.88,-2.37 -7.65,-3.33 -20.15,-14.53 -41.09,-28.52 -63.16,-40.38 -37.16,-22.83 -74.99,-44.99 -112.82,-65.56 -55.73,-30.98 -114.79,-64.78 -174.7,-88.24 3.28,-48.7 -12.3,-101.04 -41.31,-139.44 -14.91,-21.32 -33.47,-37.34 -55.73,-47.98 -20.87,-15.03 -44.12,-23.5 -69.99,-25.46 -48.41,-4.75 -100.52,4.7 -140.1,38.37 -39.4,33.87 -68.28,77.14 -76.77,130.15 -7.92,50.1 5.13,106.91 35.14,147.25 14.81,21.63 33.83,38.18 57.04,49.56 21.69,15.63 46.25,24.91 73.43,27.81 51.32,4.2 106.54,-6.69 146.11,-41.04 17.65,-15.35 32.6,-32.91 44.37,-52.18 35.83,29.13 74.93,54.85 115.17,79.46 20.17,12.17 40.63,24.01 61.08,35.56 20.49,11.15 41.17,21.78 61.53,32.41 51.62,26.61 117.44,73.14 180.75,79 33.89,94.76 84.71,188.6 143.21,273.05 58.46,83.92 124.66,161.15 187.24,224.24 133.04,133.15 310.44,260.08 510.85,328.97 -115.19,11 -230.67,18.04 -346.2,24.32 -57.61,-25.57 -116.09,-25.79 -182.57,-37.75 -44.74,-8.9 -88.84,-19.63 -132.17,-31.92 -21.63,-6.17 -43.09,-12.8 -64.37,-19.72 -21.26,-7.44 -42.24,-15.31 -63.08,-23.5l-5.83 -2.51c-0.37,-28.59 -25.36,-58.04 -65.89,-50.67 -4.69,0.88 -9.52,1.74 -14.37,2.57 21.7,-90.1 25.32,-190.4 3.28,-281.79 -10.95,-45.83 -28.2,-88.85 -52.85,-128.33 -24.64,-39.51 -56.44,-74.61 -96.71,-102.83 -28.79,-20.5 -59.94,-36.21 -92.33,-50.93 -32.46,-14.65 -66.29,-26.59 -100.77,-37 -69.07,-19.11 -139.09,-38.57 -205.39,-56.94 -39.61,-10.98 -95.57,-38.3 -151.58,-53 -56.06,-14.49 -111.65,-20.11 -152.28,10.82 -89.71,67.85 -18.92,196.25 13.27,276.15 47.71,120.76 88.81,249.85 164.97,360.52 35.62,51.73 79.52,89.14 128.89,118.18 24.64,14.37 50.73,26.36 77.8,36.22 27.18,9.51 55.37,16.39 84.2,21.81 115.73,22.11 242.8,11.5 361.72,-8.15 13.54,5.36 27.05,10.76 40.38,16.06 40.76,15.52 91.33,35.39 146.14,52.13 -312.09,1.97 -624.53,-14.94 -935.27,-48.7 -3.71,-1.52 -7.31,-3.01 -11.53,-4.09 -11.75,-3.11 -22.68,-2.96 -32.67,-0.78l-64.13 -7.21 -63.8 -8.57 -127.79 -17.27c-44.85,-21.2 -87.53,-45.52 -127.91,-73.99 -64.7,-45.01 -120.93,-99.57 -171.46,-156.44 -50.54,-56.59 -94.7,-118.7 -134.96,-181.66 -41.69,-65.09 -80.19,-130.83 -116.5,-198.73 -36.33,-67.6 -71.1,-134.37 -105.22,-202.01 -34.6,-69.06 -63.8,-143.61 -101.54,-210.96 36.77,-29.4 64.53,-67.35 78.36,-113.59 10.38,-30.5 12.54,-61.24 6.66,-91.96 -0.59,-30.49 -8.65,-58.81 -23.82,-85.62 -13.1,-28.2 -31.67,-51.16 -55.74,-68.8 -21.51,-22.28 -47.25,-37.66 -77.47,-46.06 -20.15,-3.45 -39.97,-7.92 -59.98,-11.81 -40.06,-2.18 -78.46,5.68 -115.26,23.6 -54.41,29.73 -98.26,72.35 -120.31,132.07 -12.24,29.77 -16.22,60.31 -11.92,91.68 -0.93,30.44 5.81,60.31 20.78,87.71 12.83,28.59 31.97,52.22 57.04,70.93 22.46,23.26 49.73,39.82 81.61,49.58l63.89 11.71c11.54,0.5 22.85,0.08 33.94,-0.81 18.52,50.65 43.49,101.57 70.06,150.04 26.61,48.41 54.67,95.73 78.5,141.54l42.81 82.17 44.07 81.13c-19.6,-15.59 -39.42,-30.72 -59.59,-45.74 -62.14,-48.2 -126.89,-89.24 -194.3,-127.2 0.04,-17.5 -12.01,-36.74 -35.35,-41.01l-6.23 -1.06c-0.4,-2.39 -0.44,-4.76 -0.99,-7.1 -0.49,-24.04 -7.19,-46.89 -20.11,-68.41 -11.14,-22.33 -26.84,-40.67 -47.32,-54.92 -18.13,-18.2 -39.68,-31.43 -65.05,-39.13l-50.56 -10.53c-33.67,-2.62 -65.96,3.48 -96.4,16.13 -26,12.51 -48.93,29.21 -67.15,49.99 -34.75,-41.37 -75.69,-76.43 -119.38,-108.68 -43.65,-32.41 -90.59,-60.33 -138.28,-84.48 -52.26,-27.65 -106.49,-51.26 -161.8,-71.9 -45.14,-17.22 -156.6,-40.94 -163.06,-98.69 -6.29,-56.71 -82.28,-66.74 -108.56,-21.26 -53.61,93.38 -79.04,200.58 -71.85,308.62 6.98,108.12 47.88,214.39 122.88,307.57 37.54,45.03 83.24,86.09 133.98,120.92 50.81,34.8 107.6,61.05 165.81,79.93 57.65,19.02 121.18,27.75 180.53,26.78 34.55,-0.78 51.26,-5.22 66.56,-13.28 16.24,20.55 32.68,40.15 49.25,60.33 4.63,10.37 12.44,19.37 22.15,26.14l18.66 21.04 -96.26 -30.15 -95.48 -32.23c-93.05,-30.7 -184.73,-65.3 -276.65,-99.28 -45.84,-17.32 -91.11,-35.92 -136.75,-53.84l-68.29 -27.08 -67.67 -28.64c-181.17,-74.89 -358.71,-158.02 -534.91,-243.63 -50.49,-24.97 -100.93,-49.93 -151.38,-74.83l-150.24 -76.75c-4.37,-12.68 -9.41,-25.11 -14.75,-38.03 3.33,-1.69 6.59,-3.74 9.45,-6.44 59.29,-54.87 89.6,-134.04 102.83,-218.95 13.18,-84.85 9.22,-174.86 -3.11,-250.96 -14.69,-87.26 -42.42,-174.37 -84.69,-251.9 -21.26,-38.52 -44.74,-76.94 -72.07,-112.06 -27.04,-35.57 -57.99,-67.61 -91.13,-98.52 -25.68,-23.89 -68.21,-31.43 -89.82,1.81 -61.06,94.13 -114.29,193.1 -154.75,298.32 -19.94,51.92 -41.67,108.62 -53.66,167.05 -46.46,-50.61 -105.87,-95.26 -163.76,-134.37 -57.63,-39.3 -115.91,-70.02 -161.02,-90.48 -58.36,-26.89 -119.75,-47.61 -182.28,-64.54 -61.85,-17.82 -124.95,-31.56 -187.85,-42.83 -108.9,-20.78 -263.23,-68.56 -367.79,-39.84 -29.27,8.26 -52.46,43.31 -35.52,76.32 27.6,54.54 57.45,108.37 89.07,162.29 15.84,26.87 32.26,53.74 49.23,80.27 17.09,26.56 35.47,51.95 54.2,77.31 74.97,101.75 165.07,193.09 275.66,262.55 45.92,27.97 93.65,51.4 142.02,69.56 48.31,18.19 98.44,29.45 147.26,35.84 97.68,12.94 194.61,0.1 280.3,-39.23 3.61,-1.69 6.6,-3.84 9.07,-6.23 211.41,142.71 429.39,276.3 655.9,396.81 52.13,27.03 103.86,54.94 156.7,80.74l158.75 76.71 160.84 72.35c53.59,24.17 108.28,45.88 162.34,68.91 -2.79,0.6 -5.39,1.19 -8.37,1.86 -31.64,6.73 -63.61,12.6 -95.84,18.31 -1.64,-0.45 -3.25,-0.66 -4.96,-0.99 -34.05,-38.8 -78.27,-73.24 -129.29,-101.85 -25.51,-14.36 -52.51,-27.39 -80.63,-39.18 -28.09,-11.96 -56.76,-23.46 -86.23,-33.32 -117.75,-38.96 -241.07,-64.33 -333.53,-73.06 -123.59,-14.46 -230.35,17.15 -324.28,67.7 -93.92,50.92 -176.06,123.57 -251.19,194.26 -19.89,18.62 -25.48,59.11 5.21,82.4 28.9,21.62 58.17,43.5 87.63,65.67 29.9,21.57 60.59,42.48 91.65,63.2 30.98,20.72 62.57,40.88 94.58,60.18 32.18,18.96 65.17,36.43 98.35,52.99 33.22,16.44 67.03,31.62 101.04,45.09 34.15,13.28 69.09,24.08 104.09,33.26 70.05,18.16 141.3,28.2 213.96,24.71 54.2,-2.19 106.98,-10.12 155.68,-24.71 48.94,-14.91 94.19,-37.23 132.61,-66.43 23.98,-18.2 42.78,-38.76 58.63,-60.78l-1 3.46c-2.96,18.95 -1.55,37.8 3.93,56.61 2.29,18.79 8.45,37.52 18.96,56.05 11.64,17.67 23.19,35.73 35.08,53.01 30.11,34.26 67.56,60.83 111.95,79.77l68.41 20.33c11.93,2.35 23.75,3.44 35.48,4 -23.72,19.07 -46.8,39.1 -68.91,59.28 -3.01,-1.19 -5.69,-2.73 -8.72,-3.89l-74.99 -22.4c-50.17,-8.96 -98.09,-6.84 -143.97,5.46l-61.95 24.98c-39.79,22.84 -68.97,53.6 -87.23,92.51 -15.13,29.13 -20.15,60.36 -14.74,93.88 -1.26,31.8 7.27,63.58 25.46,95.35 15.52,32.56 39.33,59.87 70.32,83.53 27.57,27.82 61.26,49.39 100.7,64.59 26.12,8.15 52.52,15.59 78.9,22.89 52.72,8.65 102.43,6.28 148.89,-7.15l62.02 -27.37c39.45,-25.02 66.83,-57.66 82.63,-97.59 13.33,-30.05 16.37,-61.54 9.22,-94.36 -0.48,-31.54 -10.24,-62.48 -28.9,-93.16 -16.28,-31.37 -39.4,-58.09 -69.58,-80.33l-0.58 -0.49c32.35,-21.31 65.96,-41.09 99.84,-60.49 23.76,-13.66 47.96,-26.78 72.28,-39.28 24.54,-12.94 49.43,-25.36 74.58,-37.26 50.38,-23.67 102.01,-45.15 154.96,-64.16 21.03,-7.53 42.33,-14.26 63.82,-21.42 -18.26,30.93 -31.81,61.8 -39.72,80.82 -24.64,59.88 -38.29,129.83 -35.29,199.65 -9.24,2.14 -18.29,4.75 -27.27,7.97 -51.63,20.93 -92.04,53.72 -109.98,101.57 -10.17,23.85 -12.32,48.74 -6.41,74.81 0.81,25.03 8.98,49.72 24.87,73.39 13.98,24.14 33.7,44.56 59.01,61.3 22.83,20.22 50.02,35.19 81.41,44.85 20.7,4.61 41.4,9.55 62.19,13.83 41.36,3.72 79.91,-1.04 115.39,-14.26 9.3,-3.98 18.06,-8.53 26.5,-13.33 7.98,14.92 19.99,29.65 37.27,44.09 53.11,44.64 130.95,48.89 208.9,44.49 19.49,-1.21 39.15,-3.02 58.4,-5.08 19.39,-2.46 38.56,-4.94 57.11,-7.33 37.1,-4.59 71.8,-8.26 101.52,-7.27 23.49,0.82 46.98,2.22 70.38,4.09 23.49,1.6 47.12,3.26 70.58,5.42 47.09,4.26 94.19,9.53 141.09,14.59 46.98,4.74 94.21,7.91 141.13,10.1 46.94,1.7 93.47,2.88 140.16,-1.43 75.62,-6.38 149.54,-19.56 215.7,-44.79 66.35,-25.74 124.63,-62.02 168.8,-111.96 36,-40.64 67.41,-97.16 78.24,-155.33 10.93,-57.86 1.56,-116.9 -42.78,-162.94 -2.46,-2.57 -5.02,-4.82 -7.65,-6.93 59.72,-27.7 140.83,-67.32 190.27,-115.23l15.29 1.68c83.37,10.05 167.21,15.94 250.85,23.23 41.86,3.99 83.87,5.71 125.69,8.39l125.7 7.29c167.69,6.44 335.6,10.8 503.18,7.58 335.32,-4.63 670.14,-28.2 1001.83,-72.56 -24.58,24.66 -47.67,50.72 -70.59,71.31 -26.78,24 -55.16,47.86 -84.03,71.86 -4.92,2.29 -9.81,4.74 -14.7,7.55 -86.11,-14.6 -187.33,5.33 -271.18,23.32 -130.98,26.24 -251.21,81.67 -347.07,164.15 -91.9,80.65 -155.95,175.54 -204.57,277.64 -48.63,102.05 -81.65,210.83 -112.29,315.37 -14.96,50.7 44.35,84.18 102.61,65.02 212.33,-68.95 420.64,-145.9 622.09,-230.2 71.08,-30.87 142.69,-61.87 207.9,-101.4 65.3,-39.24 124.78,-83.5 172.02,-136.99 78.19,-89.62 132.56,-215.5 71.03,-316.43 -16.67,-27.48 -39.98,-49.02 -66.83,-63.49 61.26,-49.78 146.64,-103.83 174.69,-172.93 465.91,-70.49 924.89,-180.94 1372.43,-324.3 1.22,14.98 5.22,29.54 12.04,43.27 -4.75,51.25 14.06,98.62 62.34,128.68 54.3,33.89 130.1,33.38 192.61,-0.98 15.13,-8.69 29.41,-18.92 42.74,-30.06 -25.91,23.94 -52.56,47.24 -80,69.34 -23.11,18.85 -46.76,37.3 -70.65,55.57 -31.7,-13.88 -64.07,-24.39 -97.05,-31.86 -33.05,-8.08 -66.71,-13.13 -100.59,-15.41 -67.76,-4.48 -136.53,2.02 -205.34,14.87 -68.62,13.48 -136.52,35.56 -202.51,61.58 -65.77,26.66 -128.98,59.59 -188.01,94.2 -35.34,21.15 -69.55,43.53 -102.82,67.14 -33.23,23.56 -65.61,47.04 -96.83,72.41 -31.2,25.13 -61.26,51.41 -90.33,78.73 -29.01,27.32 -56.98,54.41 -83.87,83.16 -53.7,56.89 -102.42,118.99 -146.49,181.41 -43.93,62.89 -82.69,128.81 -115.61,197.13 -17.55,36.39 -1.17,68.53 38.95,85.35 50.54,21.2 102.29,36.6 154.52,47 52.29,9.83 105.1,13.74 158.18,13.87 26.5,0 53.16,-1.14 79.72,-3.22 26.49,-2.24 53.02,-6.08 79.45,-10.44 52.9,-9.01 105.7,-21.35 157.8,-36.81 208.17,-64.49 405.28,-177.67 574.87,-292.55 36.71,-24 74.3,-50.85 110.11,-79.07 35.79,-28.19 69.9,-58.09 99.21,-89.77 58.64,-63.94 97.85,-136.5 95.96,-216.76 -1.19,-53.32 -23.79,-106.02 -62.13,-142.6 26.06,-19.41 51.76,-39.16 76.93,-59.29 51.59,-42.4 100.94,-86.93 148.13,-132.23 47.38,-45.03 91.5,-94.02 133.84,-142.34 14.52,-5.79 29.04,-11.81 43.15,-17.87 48.36,-20.6 89.97,-48.26 125.94,-79.27 -19.78,45.96 -39.6,94.57 -56.93,144.24 -17.38,49.35 -32.31,98.96 -41.53,148.19 -22.56,5.47 -44.83,14.36 -65.89,26.83 -24.06,14.05 -41.65,31.68 -57.96,51.69 -23.89,29.13 -39.32,61.29 -39.91,96.11 -1.14,63.7 41,119.67 111.26,137.3 22.85,5.75 16.73,5.08 41.24,4.98 28.36,-0.11 54.09,-6.12 80.44,-18.68 11.47,-5.47 17.48,-7.61 25.91,-13.56 11.46,-8.19 23.98,-17.13 33.49,-27.04 8.74,-9.01 19.65,-20.84 24.67,-31.81l12.1 -26.88c2.96,-8.86 4.13,-17.49 3.82,-25.89 4.76,-7.16 9.13,-14.56 12.58,-22.52 11.34,-26.16 15.47,-56.01 5.14,-80.59 -10.56,-24.97 -28.67,-47.18 -54.99,-60.05 17.77,-54.87 35.43,-109.18 53.22,-164.09 18.47,-54.21 39.2,-108.37 66.17,-163.22 29.02,-58.3 62.16,-113.13 96.77,-166.59 34.15,-54.59 69.86,-107.83 104.42,-161.63 197.9,-96.44 391.98,-200.49 581.04,-312.76 149.5,-91.09 300,-182.07 444.66,-281.83 -22.82,26.61 -46.26,52.99 -70.04,79.29 -23.77,26.16 -48.52,51.18 -73.22,76.65 -7.91,-4.69 -22.3,1.19 -23.86,12.52 -0.83,5.73 -2.57,11.24 -4.75,16.67l-32.72 33.32c-13.03,12.89 -26.11,25.78 -39.62,38.14 -43.36,24.7 -98.35,44.73 -149.33,61.85 -50.93,17.11 -98.75,29.36 -126.78,42.07 -28.15,12.44 -55.76,25.94 -83.05,40.38 -27.38,14.2 -54.64,28.74 -81.19,44.53 -53.22,31.2 -103.89,66.86 -153.22,103.06 -49.5,36.71 -95.96,77.89 -140.87,119.77 -44.69,41.9 -86.65,86.68 -125.5,133.91 -39.07,46.45 -75.12,94.85 -107.43,145.56 -32.11,51.04 -60.99,102.77 -85.62,156.05 -19.35,42.13 -0.67,84.14 50.2,90.61 164.2,20.71 332.59,-8.93 490.8,-71.8 78.83,-31.91 155.1,-72.53 227.19,-118.68 35.73,-23.71 70.57,-48.81 104.15,-75.03 33.61,-26.22 66.2,-53.28 96.71,-82.56 28.04,-26.49 55.66,-53.78 82.15,-81.81 26.5,-27.91 51.77,-56.8 74.8,-87.2 46.22,-60.59 86.09,-123.34 113.05,-190.53 32.39,-80.76 49.86,-188.26 4.1,-256.21 103.04,-114.03 193.39,-236.82 272.64,-357.72 15.48,-8.04 30.72,-16.35 44.86,-25.96 1.72,-1.17 3.38,-2.39 4.96,-3.66 1.58,1.27 3.23,2.49 4.95,3.66 14.15,9.61 29.39,17.92 44.87,25.96 79.25,120.9 169.6,243.69 272.64,357.72 -45.76,67.94 -28.29,175.45 4.1,256.21 26.96,67.19 66.83,129.94 113.05,190.53 23.03,30.4 48.3,59.29 74.8,87.2 26.48,28.02 54.11,55.31 82.14,81.81 30.51,29.28 63.1,56.33 96.71,82.56 33.57,26.22 68.41,51.31 104.14,75.03 72.08,46.15 148.36,86.77 227.19,118.68 158.2,62.87 326.6,92.51 490.8,71.8 50.87,-6.46 69.56,-48.47 50.2,-90.61 -24.63,-53.28 -53.51,-105.01 -85.62,-156.05 -32.3,-50.7 -68.35,-99.11 -107.43,-145.56 -38.85,-47.23 -80.81,-92.02 -125.5,-133.91 -44.91,-41.87 -91.37,-83.06 -140.87,-119.77 -49.33,-36.2 -100,-71.86 -153.22,-103.06 -26.55,-15.79 -53.81,-30.33 -81.19,-44.53 -27.29,-14.44 -54.91,-27.93 -83.05,-40.38 -28.02,-12.71 -75.84,-24.97 -126.77,-42.07 -50.98,-17.13 -105.98,-37.16 -149.33,-61.85 -13.52,-12.36 -26.59,-25.25 -39.63,-38.14l-32.72 -33.32c-2.18,-5.43 -3.93,-10.94 -4.75,-16.67 -1.56,-11.33 -15.95,-17.21 -23.86,-12.52 -24.7,-25.47 -49.45,-50.49 -73.22,-76.65 -23.78,-26.3 -47.22,-52.68 -70.05,-79.29 144.66,99.76 295.16,190.74 444.66,281.83 189.06,112.28 383.15,216.33 581.04,312.76 34.56,53.8 70.27,107.04 104.42,161.63 34.61,53.46 67.75,108.29 96.77,166.59 26.96,54.84 47.7,109 66.17,163.22 17.8,54.91 35.46,109.22 53.22,164.09 -26.32,12.87 -44.43,35.08 -54.99,60.05 -10.33,24.58 -6.21,54.43 5.14,80.59 3.46,7.96 7.82,15.36 12.58,22.52 -0.3,8.4 0.87,17.03 3.82,25.89l12.1 26.88c5.02,10.97 15.92,22.8 24.67,31.81 9.51,9.92 22.03,18.85 33.49,27.04 8.43,5.94 14.43,8.09 25.9,13.56 26.35,12.56 52.08,18.56 80.44,18.68 24.52,0.1 18.4,0.78 41.24,-4.98 70.26,-17.63 112.4,-73.6 111.26,-137.3 -0.59,-34.82 -16.01,-66.98 -39.91,-96.11 -16.31,-20.01 -33.91,-37.65 -57.96,-51.69 -21.05,-12.47 -43.33,-21.36 -65.89,-26.83 -9.22,-49.22 -24.15,-98.83 -41.53,-148.19 -17.33,-49.67 -37.16,-98.28 -56.93,-144.24 35.96,31.01 77.57,58.67 125.94,79.27 14.12,6.06 28.63,12.08 43.15,17.87 42.33,48.32 86.46,97.31 133.84,142.34 47.19,45.3 96.54,89.83 148.13,132.23 25.17,20.13 50.87,39.88 76.93,59.29 -38.34,36.59 -60.94,89.28 -62.13,142.6 -1.89,80.26 37.32,152.82 95.96,216.76 29.31,31.67 63.42,61.58 99.21,89.77 35.81,28.23 73.4,55.08 110.11,79.07 169.59,114.88 366.69,228.06 574.87,292.55 52.1,15.46 104.91,27.8 157.8,36.81 26.43,4.36 52.96,8.2 79.45,10.44 26.56,2.08 53.22,3.22 79.72,3.22 53.08,-0.13 105.89,-4.04 158.18,-13.87 52.23,-10.4 103.98,-25.79 154.52,-47 40.13,-16.82 56.5,-48.96 38.95,-85.35 -32.93,-68.32 -71.69,-134.24 -115.61,-197.13 -44.07,-62.43 -92.79,-124.53 -146.49,-181.41 -26.88,-28.75 -54.85,-55.84 -83.87,-83.16 -29.07,-27.32 -59.13,-53.6 -90.33,-78.73 -31.22,-25.37 -63.6,-48.85 -96.83,-72.41 -33.28,-23.61 -67.48,-46 -102.82,-67.14 -59.04,-34.61 -122.24,-67.54 -188.01,-94.2 -65.99,-26.03 -133.89,-48.1 -202.51,-61.58 -68.81,-12.85 -137.58,-19.35 -205.34,-14.87 -33.88,2.28 -67.54,7.33 -100.59,15.41 -32.98,7.47 -65.34,17.98 -97.05,31.86 -23.89,-18.27 -47.54,-36.72 -70.65,-55.57 -27.44,-22.1 -54.1,-45.39 -80,-69.34 13.32,11.14 27.61,21.38 42.73,30.06 62.51,34.35 138.31,34.86 192.61,0.98 48.28,-30.06 67.09,-77.43 62.33,-128.68 6.82,-13.73 10.83,-28.3 12.04,-43.27 447.54,143.36 906.52,253.8 1372.43,324.3 28.06,69.11 113.44,123.15 174.7,172.93 -26.85,14.46 -50.17,36 -66.83,63.49 -61.52,100.92 -7.16,226.81 71.03,316.43 47.24,53.49 106.71,97.75 172.02,136.99 65.21,39.53 136.81,70.53 207.9,101.4 201.44,84.3 409.75,161.25 622.09,230.2 58.26,19.17 117.58,-14.31 102.61,-65.02 -30.63,-104.54 -63.65,-213.32 -112.29,-315.37 -48.63,-102.09 -112.68,-196.99 -204.58,-277.64 -95.85,-82.47 -216.09,-137.91 -347.07,-164.15 -83.86,-17.99 -185.07,-37.92 -271.19,-23.32 -4.89,-2.8 -9.78,-5.26 -14.7,-7.55 -28.87,-24 -57.25,-47.86 -84.03,-71.86 -22.93,-20.59 -46.02,-46.65 -70.59,-71.31 331.69,44.37 666.5,67.93 1001.83,72.56 167.58,3.21 335.49,-1.14 503.18,-7.58l125.7 -7.29c41.83,-2.68 83.83,-4.4 125.69,-8.39 83.63,-7.29 167.48,-13.18 250.85,-23.23l15.29 -1.68c49.44,47.91 130.56,87.53 190.27,115.23 -2.63,2.11 -5.19,4.37 -7.65,6.93 -44.34,46.05 -53.71,105.08 -42.78,162.94 10.83,58.18 42.24,114.69 78.24,155.33 44.16,49.94 102.45,86.22 168.79,111.96 66.17,25.23 140.09,38.41 215.71,44.79 46.69,4.31 93.22,3.13 140.16,1.43 46.91,-2.19 94.15,-5.36 141.13,-10.1 46.9,-5.06 94,-10.33 141.09,-14.59 23.46,-2.16 47.09,-3.82 70.58,-5.42 23.41,-1.87 46.89,-3.26 70.38,-4.09 29.72,-0.99 64.43,2.68 101.52,7.27 18.56,2.39 37.72,4.86 57.11,7.33 19.26,2.06 38.91,3.87 58.4,5.08 77.94,4.4 155.79,0.15 208.9,-44.49 17.28,-14.44 29.29,-29.17 37.27,-44.09 8.45,4.8 17.21,9.35 26.51,13.33 35.47,13.22 74.03,17.98 115.39,14.26 20.78,-4.28 41.48,-9.23 62.19,-13.83 31.39,-9.67 58.57,-24.64 81.41,-44.85 25.31,-16.74 45.03,-37.16 59.01,-61.3 15.89,-23.67 24.06,-48.36 24.87,-73.39 5.91,-26.07 3.76,-50.97 -6.41,-74.81 -17.94,-47.85 -58.35,-80.65 -109.98,-101.57 -8.98,-3.22 -18.04,-5.83 -27.27,-7.97 3,-69.82 -10.65,-139.77 -35.29,-199.65 -7.91,-19.02 -21.47,-49.89 -39.73,-80.82 21.5,7.16 42.8,13.89 63.83,21.42 52.95,19.01 104.58,40.49 154.96,64.16 25.15,11.9 50.04,24.31 74.58,37.26 24.32,12.5 48.53,25.62 72.29,39.28 33.89,19.4 67.48,39.19 99.84,60.49l-0.58 0.49c-30.19,22.24 -53.3,48.96 -69.58,80.33 -18.66,30.68 -28.42,61.62 -28.9,93.16 -7.15,32.81 -4.11,64.31 9.22,94.36 15.79,39.93 43.17,72.56 82.63,97.59l62.02 27.37c46.45,13.43 96.16,15.8 148.89,7.15 26.38,-7.31 52.78,-14.75 78.9,-22.89 39.44,-15.2 73.12,-36.77 100.7,-64.59 30.99,-23.66 54.8,-50.97 70.32,-83.53 18.2,-31.76 26.72,-63.55 25.46,-95.35 5.4,-33.52 0.39,-64.75 -14.74,-93.88 -18.26,-38.91 -47.44,-69.67 -87.23,-92.51l-61.95 -24.98c-45.87,-12.3 -93.81,-14.42 -143.97,-5.46l-74.99 22.4c-3.03,1.15 -5.71,2.69 -8.71,3.89 -22.11,-20.18 -45.19,-40.2 -68.91,-59.28 11.72,-0.56 23.55,-1.64 35.48,-4l68.41 -20.33c44.38,-18.93 81.83,-45.51 111.95,-79.77 11.89,-17.28 23.44,-35.35 35.08,-53.01 10.51,-18.53 16.67,-37.26 18.96,-56.05 5.48,-18.81 6.88,-37.66 3.93,-56.61l-1 -3.46c15.85,22.02 34.66,42.57 58.64,60.78 38.42,29.2 83.67,51.51 132.61,66.43 48.7,14.59 101.47,22.52 155.67,24.71 72.67,3.48 143.92,-6.56 213.96,-24.71 35.01,-9.19 69.94,-19.99 104.09,-33.26 34.01,-13.46 67.81,-28.65 101.03,-45.09 33.19,-16.56 66.17,-34.03 98.35,-52.99 32.01,-19.3 63.6,-39.46 94.58,-60.18 31.05,-20.72 61.74,-41.63 91.64,-63.2 29.46,-22.17 58.73,-44.05 87.63,-65.67 30.69,-23.29 25.1,-63.78 5.21,-82.4 -75.14,-70.69 -157.28,-143.34 -251.19,-194.26 -93.93,-50.55 -200.69,-82.17 -324.28,-67.7 -92.46,8.73 -215.78,34.1 -333.53,73.06 -29.47,9.87 -58.14,21.36 -86.23,33.32 -28.11,11.79 -55.12,24.81 -80.63,39.18 -51.02,28.61 -95.24,63.05 -129.29,101.85 -1.71,0.33 -3.32,0.54 -4.96,0.99 -32.23,-5.71 -64.2,-11.58 -95.85,-18.31 -2.98,-0.67 -5.57,-1.26 -8.37,-1.86 54.06,-23.03 108.75,-44.74 162.34,-68.91l160.84 -72.35 158.76 -76.71c52.84,-25.79 104.57,-53.7 156.7,-80.74 226.52,-120.51 444.5,-254.1 655.9,-396.81 2.46,2.39 5.46,4.54 9.07,6.23 85.68,39.33 182.62,52.17 280.3,39.23 48.82,-6.39 98.95,-17.66 147.26,-35.84 48.37,-18.16 96.1,-41.58 142.01,-69.56 110.59,-69.46 200.69,-160.8 275.66,-262.55 18.72,-25.36 37.11,-50.76 54.2,-77.31 16.96,-26.52 33.39,-53.4 49.23,-80.27 31.62,-53.92 61.47,-107.75 89.07,-162.29 16.94,-33.01 -6.25,-68.07 -35.52,-76.32 -104.56,-28.72 -258.89,19.06 -367.79,39.84 -62.9,11.26 -126,25.01 -187.85,42.83 -62.53,16.93 -123.92,37.65 -182.28,64.54 -45.12,20.46 -103.4,51.18 -161.03,90.48 -57.89,39.11 -117.3,83.76 -163.76,134.37 -11.99,-58.43 -33.72,-115.13 -53.66,-167.05 -40.46,-105.22 -93.7,-204.19 -154.75,-298.32 -21.61,-33.24 -64.14,-25.7 -89.82,-1.81 -33.14,30.92 -64.09,62.95 -91.14,98.52 -27.33,35.11 -50.81,73.54 -72.07,112.06 -42.28,77.52 -70,164.63 -84.69,251.9 -12.32,76.1 -16.29,166.11 -3.11,250.96 13.23,84.91 43.54,164.08 102.83,218.95 2.85,2.7 6.11,4.75 9.45,6.44 -5.34,12.93 -10.38,25.35 -14.75,38.03l-150.24 76.75c-50.45,24.89 -100.89,49.86 -151.38,74.83 -176.2,85.61 -353.75,168.73 -534.92,243.63l-67.67 28.64 -68.29 27.08c-45.64,17.92 -90.91,36.52 -136.76,53.84 -91.92,33.98 -183.59,68.58 -276.65,99.28l-95.48 32.23 -96.25 30.15 18.66 -21.04c9.7,-6.77 17.52,-15.77 22.15,-26.14 16.57,-20.18 33.01,-39.78 49.25,-60.33 15.3,8.06 32.01,12.51 66.56,13.28 59.35,0.97 122.88,-7.76 180.53,-26.78 58.22,-18.88 115,-45.13 165.81,-79.93 50.75,-34.83 96.45,-75.89 133.98,-120.92 75,-93.18 115.9,-199.45 122.88,-307.57 7.19,-108.04 -18.24,-215.24 -71.85,-308.62 -26.28,-45.48 -102.26,-35.45 -108.56,21.26 -6.45,57.75 -117.91,81.47 -163.06,98.69 -55.31,20.63 -109.55,44.25 -161.8,71.9 -47.7,24.15 -94.63,52.07 -138.28,84.48 -43.69,32.25 -84.63,67.31 -119.39,108.68 -18.22,-20.78 -41.14,-37.48 -67.15,-49.99 -30.44,-12.65 -62.72,-18.75 -96.4,-16.13l-50.56 10.53c-25.37,7.7 -46.91,20.94 -65.05,39.13 -20.48,14.25 -36.18,32.58 -47.32,54.92 -12.93,21.52 -19.62,44.37 -20.11,68.41 -0.55,2.34 -0.59,4.71 -0.99,7.1l-6.23 1.06c-23.34,4.27 -35.39,23.52 -35.35,41.01 -67.41,37.96 -132.16,79 -194.3,127.2 -20.18,15.02 -39.99,30.15 -59.59,45.74l44.07 -81.13 42.81 -82.17c23.83,-45.81 51.9,-93.13 78.5,-141.54 26.57,-48.46 51.53,-99.39 70.05,-150.04 11.09,0.9 22.4,1.31 33.94,0.81l63.9 -11.71c31.88,-9.76 59.15,-26.32 81.6,-49.58 25.08,-18.71 44.21,-42.35 57.05,-70.93 14.96,-27.4 21.7,-57.27 20.78,-87.71 4.3,-31.37 0.31,-61.91 -11.92,-91.68 -22.05,-59.72 -65.91,-102.35 -120.31,-132.07 -36.79,-17.92 -75.19,-25.78 -115.25,-23.6 -20.01,3.89 -39.83,8.36 -59.98,11.81 -30.22,8.4 -55.96,23.77 -77.48,46.06 -24.07,17.64 -42.64,40.6 -55.74,68.8 -15.18,26.81 -23.23,55.13 -23.82,85.62 -5.88,30.72 -3.72,61.46 6.66,91.96 13.83,46.24 41.59,84.19 78.36,113.59 -37.74,67.35 -66.94,141.9 -101.54,210.96 -34.12,67.64 -68.89,134.41 -105.22,202.01 -36.31,67.9 -74.81,133.65 -116.5,198.73 -40.26,62.96 -84.43,125.07 -134.96,181.66 -50.53,56.86 -106.76,111.43 -171.46,156.44 -40.38,28.46 -83.05,52.79 -127.91,73.99l-127.79 17.27 -63.8 8.57 -64.13 7.21c-9.99,-2.18 -20.92,-2.33 -32.67,0.78 -4.22,1.08 -7.82,2.57 -11.53,4.09 -310.74,33.75 -623.18,50.67 -935.27,48.7 54.81,-16.75 105.39,-36.62 146.14,-52.13 13.33,-5.3 26.84,-10.7 40.38,-16.06 118.93,19.65 246,30.26 361.73,8.15 28.83,-5.42 57.03,-12.3 84.2,-21.81 27.07,-9.86 53.16,-21.85 77.8,-36.22 49.37,-29.04 93.28,-66.45 128.9,-118.18 76.16,-110.68 117.26,-239.76 164.97,-360.52 32.19,-79.9 102.98,-208.3 13.28,-276.15 -40.63,-30.94 -96.22,-25.31 -152.28,-10.82 -56.01,14.7 -111.97,42.02 -151.58,53 -66.3,18.36 -136.33,37.82 -205.39,56.94 -34.48,10.42 -68.31,22.35 -100.77,37 -32.39,14.72 -63.54,30.43 -92.33,50.93 -40.26,28.22 -72.07,63.31 -96.71,102.83 -24.64,39.48 -41.9,82.5 -52.85,128.33 -22.04,91.39 -18.42,191.69 3.28,281.79 -4.85,-0.83 -9.68,-1.69 -14.37,-2.57 -40.52,-7.37 -65.52,22.08 -65.88,50.67l-5.83 2.51c-20.84,8.19 -41.83,16.06 -63.08,23.5 -21.28,6.91 -42.73,13.55 -64.37,19.72 -43.32,12.28 -87.43,23.02 -132.17,31.92 -66.48,11.96 -124.96,12.17 -182.57,37.75 -115.53,-6.28 -231.01,-13.32 -346.2,-24.32 200.41,-68.89 377.8,-195.82 510.85,-328.97 62.58,-63.09 128.78,-140.32 187.24,-224.24 58.5,-84.45 109.32,-178.3 143.21,-273.05 63.31,-5.86 129.13,-52.4 180.75,-79 20.37,-10.62 41.04,-21.26 61.53,-32.41 20.45,-11.55 40.92,-23.39 61.08,-35.56 40.24,-24.61 79.34,-50.33 115.17,-79.46 11.77,19.28 26.72,36.83 44.37,52.18 39.57,34.35 94.8,45.24 146.11,41.04 27.18,-2.91 51.74,-12.18 73.43,-27.81 23.21,-11.39 42.24,-27.93 57.05,-49.56 30.01,-40.35 43.06,-97.15 35.14,-147.25 -8.49,-53.01 -37.37,-96.28 -76.77,-130.15 -39.57,-33.67 -91.69,-43.12 -140.09,-38.37 -25.87,1.96 -49.12,10.44 -70,25.46 -22.26,10.64 -40.81,26.67 -55.73,47.98 -29,38.4 -44.59,90.75 -41.31,139.44 -59.91,23.46 -118.96,57.26 -174.7,88.24 -37.83,20.57 -75.66,42.73 -112.82,65.56 -22.07,11.85 -43.01,25.85 -63.16,40.38 -2.76,0.97 -5.14,2.18 -7.65,3.33 16.49,-82.8 18.15,-165.39 0.43,-244.57 22.54,-8.8 41.77,-24.04 57.41,-43.93 17.52,-19.31 29.24,-41.48 35.32,-66.55 10.15,-24.52 13.85,-50.33 11.08,-77.54 -3.76,-53.72 -27.98,-99.93 -63.15,-136.38 -24.35,-22.64 -52.09,-38.41 -83.47,-46.57l-48.79 -4.87zm-6527.72 555.14c-70.73,1.52 -140.15,2.76 -209.5,-0.96 -69.46,-4.16 -137.95,-10.99 -205.82,-23.46 -26.36,-5.3 -24.37,-40.86 2.74,-45.02 61.36,-9.75 122.56,-15.89 184.07,-19.79 61.17,-4.91 122.3,-8.02 184.2,-9.99 -72.87,-54.05 -140.98,-118.13 -209.5,-146.16 -50.21,-20.24 -104.63,-30.11 -160.16,-30.11 -27.84,-0.11 -56.1,2.03 -84.57,6.02 -28.51,3.6 -57.77,8.47 -86.77,14.97 -58.02,13.04 -116.42,31.7 -174.31,50.26 -57.68,19.12 -113.92,40.76 -167.96,58.8 32.31,21.42 63.95,44.31 95.52,67.21 31.59,22.5 62.99,45.25 95.35,66.93 64.46,43.05 132.61,83.55 209.11,107.44 87.44,27.23 181.08,31.02 271.22,12.06 45.19,-9.35 90.23,-22.24 133,-41.13 42.87,-18.72 84.26,-41.38 123.38,-67.07zm558.76 244.3c-56.52,34.53 -108.84,73.83 -158.61,114.32 -49.83,40.38 -96.19,84.19 -139.02,130.82 -86.64,90.94 -159.12,194.5 -218.51,303.19 116.46,0.61 231.24,-27.65 340.89,-72.72 54.39,-23.63 107.37,-51.47 158.52,-82.72 51.11,-31.39 99.28,-67.81 145.56,-105.68 50.59,-40.87 98.63,-87.04 142.44,-135.07 22,-24.04 42.74,-48.79 61.91,-74.14 18.92,-25.91 36.17,-52.46 51.59,-79.5 33.56,-59.35 44.04,-112.49 48.84,-166.16 -127.48,119.54 -269.7,225.84 -426.96,297.85 -35.63,16.49 -56.71,-21.64 -31.52,-46.01 28.79,-27.84 58.3,-54.48 88.02,-81.14 29.57,-27.11 59.52,-53.65 89.56,-79.93 -52.09,21.78 -102.83,46.82 -152.71,76.91zm-657.64 186.39l-49.65 22.01c13.19,-5.36 26.73,-6.06 39.25,-3.64l10.4 -18.37zm-114.62 75.52c14.05,-11.87 27.62,-24.37 40.74,-37.43 6.73,-6.63 13.99,-11.37 21.42,-14.81 -18.94,8.31 -37.7,17 -56.78,24.93 -1.29,9.18 -3.01,18.25 -5.37,27.32zm-172.79 106.33c23.43,-30.22 46.82,-61.57 72.77,-89.66l-30.93 12.89c-42.33,18.02 -85.45,34.26 -128.29,50.99 -42.97,16.37 -85.73,33.65 -129.01,49.33 11.75,14.1 21.48,29.73 28.47,47 59.23,-21.15 120.91,-37.48 178.73,-66.5l8.26 -4.05zm-4720.63 295.22c-35.96,-29.72 -69.52,-61.42 -100.99,-94.47 -31.43,-33.63 -60.56,-69.23 -88.04,-105.51l-10.83 -14.94c-1.99,-0.89 -3.99,-1.89 -5.94,-3.21 -23.48,-15.38 -44.59,-29.17 -65.68,-42.94 -20.66,-14.39 -40.7,-29.96 -61.41,-49.07 -39.93,-37.29 -81.58,-72.19 -124.14,-106.18 -73.12,-60.1 -150.81,-111.24 -227.54,-165.39 -18.22,26.98 -44.08,48.41 -74.95,64.2 -30.85,13.81 -64.2,20.39 -99.11,17.2l-18.52 -3.94c4.89,65.62 -6.39,130.39 -39.29,187.2 39,46.7 82.29,88.63 132.45,119.94 25.13,15.28 51.96,28.35 81.19,36 29.3,7.65 60.71,11.15 94.52,9.19 24.15,-1.38 40.82,12.46 48.9,30.05 185.23,46.15 371.38,88.69 559.38,121.85zm-1293.44 -455.92c44.87,15.72 89.15,20.94 134.66,28.52 -28.62,-29.96 -60,-53.28 -92.01,-75.84 -31.89,-23.19 -64.8,-45.18 -96.77,-71.07 -27.24,-22.14 -22.24,-70.28 17.88,-72.07 130.99,-4.99 233.14,107.15 309.19,199.32 3.82,4.46 7.43,9.01 11.15,13.55 13.3,-56.74 7.04,-111.8 -12.13,-164.95 -1.87,-3.48 -3.94,-6.83 -5.68,-10.44 -6.39,-11.37 -11.05,-22.89 -14.05,-34.69 -26.69,-51.72 -65.63,-99.29 -111.35,-141.2 -45.45,-42.92 -97.98,-79.72 -153.05,-108.14 -43.43,-23.51 -103,-42.56 -163.32,-64.31 -59.9,-22.24 -119.98,-48.95 -164.51,-84.41 -20.68,67.69 -26.14,139.44 -13.88,210.09 12.21,70.4 41.68,140.76 91.57,201.51 33.19,40.81 72.84,76.23 117.26,105.24 44.71,28.33 93.81,51.18 145.04,68.89zm5818 363.84c-10.87,22.13 -25.89,43.23 -43.87,62.31 21.95,-20.63 43.45,-41.38 64.42,-62.47 -6.86,0.26 -13.76,0.39 -20.54,0.15zm-369.06 280.65c-54.94,-10.78 -110.85,-10.11 -167.22,-3.33 -56.34,6.7 -112.73,21.47 -167.76,41.9 -110.38,38.84 -215.82,100.88 -304.23,163.87 -98.82,72.82 -188.12,150.96 -265.55,239 -77.68,86.31 -144.08,180.05 -197.19,280.19 64.5,17.81 130.79,25.18 197.78,24.7 67.03,-0.3 133.99,-11.33 200.54,-26.78 66.71,-15.19 131.79,-39.29 195.29,-65.91 63.64,-26.34 124.74,-58.4 182.98,-92.06 76.03,-42.68 210.8,-120.85 310.53,-208.33 99.64,-89.08 163.75,-185.5 107.25,-264.41 -82.42,52.78 -167.96,103.98 -257.67,147.2 -44.83,21.86 -90.23,43.6 -136.6,63.05 -46.48,19.23 -93.65,37.48 -141.46,54.87 -61.1,22.15 -104.15,-50.55 -42.73,-73.71 88.4,-34.65 175.24,-71.04 258.61,-114.58 41.7,-21.44 82.9,-43.39 123.26,-66.44 40.23,-23.83 79.63,-48.29 118.3,-73.54 -9.67,-6.07 -14.31,-15.74 -14.12,-25.68zm-1650.31 240.35l-93.67 76.87c-12.98,10.61 -70.59,53.28 -98.73,75.15 -0.19,0.86 -0.45,1.74 -0.9,2.56 -7.67,14.04 -7.47,10 -20.64,19.95 -12.75,9.65 -29.4,11.69 -42.83,2.39l-14.3 -9.89c-23.5,-16.28 -20.29,-44.9 -2.92,-63.87 25.58,-27.72 53.76,-54.15 83.06,-79.89 -56.43,5.79 -113.82,9.69 -165.78,24.75 -59.25,16.72 -114.09,39.4 -163.38,69.78 -49.16,30.59 -93,66.83 -130.21,109.61 -101.66,117.53 -155.94,260.63 -198.13,400.78 48.61,-15.59 96.89,-32.61 144.98,-49.78 48.07,-17.09 95.83,-34.09 143.15,-51.8 47.33,-18.41 94.26,-37.09 140.69,-56.22l69.29 -28.92 68.25 -31.03c47.86,-22.19 95.57,-45.94 139.77,-72.99 44.23,-27.7 84.74,-59.11 118.46,-95.12 54.55,-57.98 109.77,-206.44 23.84,-242.35zm-5229.06 -1420.32l-8.57 -1.96 9.54 5.08 -0.97 -3.12zm-204.07 -109.56c-25.73,-23.36 -48.02,-50.13 -66.22,-78.23 -2.35,-1.09 -4.74,-2.33 -6.88,-3.93 -35.37,-27.12 -60.97,-62.34 -86.05,-98.18 -24.89,-36.09 -48.7,-73.71 -82.14,-104.43 -73.55,-66.84 -157.84,-121.89 -250.03,-159.59 -52.15,-22.91 -106,-40.56 -160.8,-54.93 -55.04,-13.94 -109.5,-26.76 -165.17,-36.66 -30.99,-5.87 -70.67,-14.98 -111.42,-24.15 -40.7,-9.31 -83.38,-17.59 -121.85,-19.95 20.91,38.01 42.57,76.46 65.68,114.48 23.64,37.3 48.69,74.14 75.62,109.76 53.25,72.07 116.33,136.16 189.33,190.05 71.83,51.72 150.2,85.51 229.97,106.44 80.81,19.49 162.57,26.66 243.16,23.5 -63.03,-43.94 -125.3,-88.91 -187.91,-133.43 -47.03,-35.1 -1.48,-94.8 46.23,-63.55 64.24,39.98 128.12,80.21 192.71,119.17 65.37,37.85 129.72,77.16 195.77,113.63zm3342.02 1309.78l-139.33 -18.78c-46.36,-6.57 -92.55,-14.59 -138.89,-21.81 -92.65,-13.84 -184.44,-32.56 -276.65,-49.29l-137.52 -28.73 -68.74 -14.56 -68.37 -15.95 -136.74 -32.4 -135.94 -35.44c-87.39,24.06 -178.78,24.91 -270.42,40.59 -9.47,1.56 -18.84,3.78 -28.31,5.52 -0.78,16.07 -13.67,30.33 -37.71,30.27 -6.81,21.52 -20.14,43.12 -30.37,58.42 -56.87,84.95 -83.65,163.92 -91.7,253.04l7.76 1.75c30.11,9.49 56.33,23.5 78.69,42.83 24.8,15.79 44.16,35.53 58.4,59.24 11.72,16.59 19.52,33.78 23.72,51.41 60.12,-50.06 141.04,-97.96 215.18,-136.22 74.26,-38.02 141.85,-66.06 178.67,-78.44 257.37,-81.5 537.33,-85.62 804.29,-8.91 50.72,-24.71 129.67,-60.93 193.98,-102.54zm-131.81 181.7l-3.31 1.51c-8.98,11.98 -23.38,20.07 -41.19,18.61 -54.13,23.15 -109.72,43.11 -166.87,61.67 -28.5,9.13 -57.55,18.09 -86.77,26.03 -29.16,7.57 -58.69,14.74 -88.52,21.41 -59.22,13.05 -90.37,-63.06 -32.51,-78.02 72.86,-19.14 143.06,-40.28 211.56,-67.38 -20.2,-3.11 -40.43,-5.62 -60.7,-7.65 -20.15,-2.43 -40.32,-4.26 -60.54,-5.57 -40.4,-2.64 -80.79,-3.01 -121.18,-1.15 -80.69,3.44 -160.65,13.33 -239.76,33.33 -103.45,24.48 -202.94,64.15 -291.45,114.91 -14.41,8.2 -71.13,44.75 -121.31,82.51 -50.04,37.8 -93.43,76.88 -78.08,91.13 18.61,17.16 140.5,-8.74 164.2,-10.31 57.07,-4.28 114.74,-4.71 172.56,-1.31 63.54,4.09 127.42,9.9 191.07,16.44l95.39 9.56c31.84,2.44 63.72,4.15 95.58,5.19 120.83,4.8 251.61,-4.48 348.42,-62.02 45.42,-27.06 83.67,-65.78 104.44,-109.7 22.98,-48.7 9.71,-89.79 8.98,-139.18zm-1662.41 -368.24c-25.2,-1.63 -50.37,-3.25 -75.83,-4.94 -0.52,14.13 -3.12,27.91 -7.77,41.42 27.28,-12.53 55.41,-25.31 83.59,-36.47zm-702.92 -160.63c31.48,-34.65 48.38,-77.25 67.52,-118.62 -71.92,5.67 -145.62,10.38 -220.31,11.15 -74.21,-0.12 -149.21,-4.86 -224.56,-15.96 -42.59,-6.63 -33.88,-59.67 1.25,-61.04 70.21,-3.76 140.75,-5.19 210.48,-6.83 69.71,-1.45 139.99,-5.9 208.34,-13.06l13.33 -1.69c-61.06,-41.59 -125.35,-69.61 -207.63,-93.38 -51.92,-14.69 -107.6,-29.06 -162.89,-41.52 -55.22,-12.6 -110.91,-21.53 -164.13,-22.52 -171.34,-5.11 -297.03,98.41 -404.13,200.7 177.52,129.69 382.86,258.39 600.12,261.99 109.3,1.43 218.23,-28.19 282.62,-99.23zm216.13 -129.78c-14.12,25.85 -26,52.53 -37.7,78.92 3.6,-2.84 7,-5.79 10.88,-8.42 20.83,-20.4 46.67,-34.41 77.64,-42.24 29.9,-9.69 61.26,-12.89 93.94,-8.62 33.54,-0.74 66.06,6.23 97.91,20.99 32.66,12.75 60.4,31.13 83.5,54.73 26.03,19.83 45.84,43.95 59.44,72.31 8.18,14.13 14.11,28.51 17.97,43.05 47,-2.73 95.19,-4.6 143.06,-3.61 47.9,1.09 95.23,5.41 141.4,13.21 62.27,-19.01 127.21,-35.23 192.13,-45.5 -80.5,-25.66 -161.51,-49.68 -241.24,-77.65l-120.06 -40.78 -118.9 -43.61c-64.37,-23 -127.96,-48.06 -191.57,-73.08 -23.43,18.89 -55.62,32.22 -92.01,41.91 -36.36,9.7 -76.55,14.59 -116.39,18.39zm-885.09 -812.18c-16.75,-62.41 -27.73,-133.08 -1.11,-175.43 16.81,-26.64 58.04,-21.03 75.18,6.44 21.12,34.24 17.27,67.49 22.02,104.7 1.38,10.26 3.57,20.49 5.43,30.71 34.06,-103.29 59.83,-196.43 38.36,-322.06 -10.81,-62.61 -30.12,-121.52 -56.94,-176.64 -26.41,-55.92 -60.59,-107.58 -102.29,-154.3 -80.74,131.73 -174.13,306.3 -159.93,456.01 9.41,104.79 98.74,164.47 179.3,230.57zm3918.13 1064.17c-22.73,-13.43 -44.86,-27.61 -65.96,-42.7 -21.06,-15.59 -41.15,-31.97 -60,-49.29 -37.57,-34.71 -70.21,-73.1 -95.6,-116.06 -10.18,-17.29 13.69,-29.67 28.78,-21.8 42.45,22.17 83.33,46.67 123.93,72.02 40.78,24.94 81.36,49.89 122.06,74.8 18.61,-126.02 32.72,-258.77 -81.8,-348.65 -36.87,-29.15 -80.38,-49.78 -125.85,-65.14 -22.69,-7.77 -45.96,-14.42 -69.07,-20.64 -22.96,-6.69 -45.88,-13.34 -68.11,-19.79 -52.15,-16.19 -104.38,-30.39 -155.91,-47.81 -35.1,-11.55 -103.58,-51.47 -125.17,-21.74 -14.55,20.15 1.53,71.85 24.36,124.57 22.87,52.67 52.56,106.39 62.46,130.17 35.25,84.84 66.56,179.76 133.27,249.32 21.99,22.93 46.82,41.53 73.75,56.39 27.05,14.79 56.12,24.81 86.51,32.46 60.9,14.89 126.88,18.75 192.34,13.91z"/>
 </g>
</svg>
