<?xml version="1.0" encoding="UTF-8"?>
<!DOCTYPE svg PUBLIC "-//W3C//DTD SVG 1.1//EN" "http://www.w3.org/Graphics/SVG/1.1/DTD/svg11.dtd">
<!-- Creator: CorelDRAW 2021 (64-Bit) -->
<svg xmlns="http://www.w3.org/2000/svg" xml:space="preserve" width="22in" height="22in" version="1.1" style="shape-rendering:geometricPrecision; text-rendering:geometricPrecision; image-rendering:optimizeQuality; fill-rule:evenodd; clip-rule:evenodd"
viewBox="0 0 22000 22000"
 xmlns:xlink="http://www.w3.org/1999/xlink"
 xmlns:xodm="http://www.corel.com/coreldraw/odm/2003">
 <defs>
  <style type="text/css">
   <![CDATA[
    .fil0 {fill:none}
    .fil1 {fill:#2B2A29}
   ]]>
  </style>
 </defs>
 <g id="Layer_x0020_1">
  <metadata id="CorelCorpID_0Corel-Layer"/>
  <rect class="fil0" width="22000" height="22000"/>
  <path class="fil1" d="M15288.74 10233.61c-2.28,-1.8 -4.62,-3.58 -6.94,-5.38 -0.33,-0.48 -0.69,-0.91 -1.02,-1.4 2.44,2.47 5.36,4.46 7.96,6.78zm-8569.45 -6.78c-0.35,0.5 -0.73,0.95 -1.11,1.4 -2.28,1.8 -4.6,3.6 -6.92,5.4 2.61,-2.34 5.54,-4.33 8.04,-6.8zm-5384.81 897.86c-71.47,39.71 -137.67,89.24 -193.81,148.5 -80.97,85.55 -158.17,193.5 -133.38,316.7 13.74,68.2 52.37,111.56 100.33,148.39 -1.3,9.45 -2.25,18.86 -2.25,27.91 -1.14,30.64 5.26,59.26 19.19,85.76 8.98,27.67 24.36,51.59 46.06,71.73 1.66,2.08 3.28,4.17 4.91,6.28 35.87,45.38 102.96,62.94 158.12,65.45 59.59,2.65 115.52,-26.32 158.17,-65.45 41.11,-37.81 65.47,-103.31 65.47,-158.17 0,-50.67 -23.57,-125.07 -65.47,-158.13 -2.08,-1.66 -4.15,-3.31 -6.23,-4.93 -27.79,-27.6 -60.59,-46.7 -98.29,-57.28 -19.72,-2.67 -39.48,-5.3 -59.19,-7.96 -59.31,-2.68 -115.06,26.28 -157.48,65.23 -5.94,5.45 -11.42,11.61 -16.63,18.15 -1.63,-134.09 100.57,-256.36 224.83,-340.36 67.23,-45.4 140.47,-76.43 218.81,-96.54 18.01,-4.65 32.78,-9.24 45.71,-14.17 268.92,39.72 540.38,68.17 811.98,88.41 -29.55,36.04 -54.61,75.52 -73.72,116.77 -73.51,158.7 -61.3,322.15 5.43,471.13 1.75,62.53 34.33,130.99 77.17,173.81 48.01,48.06 119.33,77.56 187.2,77.56 71.73,0 135.4,-30 187.2,-77.56 51.94,-47.65 74.45,-118.62 77.52,-187.12 2.98,-65.97 -31.59,-141.25 -77.52,-187.18 -48.01,-48.03 -119.31,-77.56 -187.2,-77.56 -59.19,-0.03 -112.72,20.66 -158.78,54.5 0.95,-78.33 20.09,-155.51 64.83,-226.01 33.91,-53.48 75.92,-93.93 125.54,-123.19 229.04,13.43 457.57,21.8 683.98,26.61 207.08,4.45 414.46,5.38 621.94,3.55 -87.81,120.23 -153.31,264.26 -167.56,343.33 -25.23,139.97 16.02,293.56 105.14,402.14 1.07,9.19 2.16,18.32 4.07,27.77 0.57,2.65 1.09,5.33 1.69,8.01 15.19,73.55 83.29,134.09 153.43,153.41 54.93,15.09 120.07,6.69 169.26,-22.15 50.4,-29.43 83.36,-76.76 100.99,-131.25 24.98,-77.15 -5.57,-156.06 -56.49,-213.74 -1.75,-2.04 -3.53,-4.03 -5.28,-5.95 -34.03,-38.55 -102.94,-65.99 -153.79,-63.72 -38.65,1.7 -75.64,11.63 -109.81,29.67 -12.94,6.81 -24.31,15.93 -35.02,25.85 -37.53,-104 -26.84,-221.04 45.93,-350.22 51.02,-90.57 123.83,-144.04 191.2,-206.98 405.35,-8.08 810.71,-27.23 1214.96,-55.76 -92.53,115.5 -160.2,250.46 -178.09,368.19 -8.11,53.36 -7.25,119.71 3.65,186.77 -3.84,9.67 -7.18,19.39 -9.81,28.98 -13.22,42.09 -15.09,84.12 -5.66,126.26 1.92,42.13 14.46,81.42 37.58,117.79 19.81,43.86 45.19,80.42 79.57,116.11 28.48,30.66 62.25,52.32 101.23,65.05 37.46,19.62 77.84,28.67 121.13,27.08 55.85,-2.53 109.31,-16.89 158.69,-42.98 36.66,-19.74 66.09,-46.73 88.24,-80.99 19.48,-19.57 32.98,-42.72 40.45,-69.38 19.69,-37.46 28.72,-77.84 27.09,-121.13 -3.77,-27.84 -7.49,-55.76 -11.23,-83.6 -10.12,-47.58 -33.11,-89.17 -58.2,-129.85 -44.57,-72.22 -109.64,-119.78 -189.28,-145.57 -80.9,-26.18 -169.19,-7.16 -242.36,31.09 11.91,-51.89 30.92,-102.2 55.7,-148.52 57.01,-106.54 148.74,-183.5 233.43,-264.05 91.56,-7.37 183.1,-14.9 274.5,-23.15 250.63,-22.63 501.73,-47.86 753.12,-70.4 -65.47,129.21 -103.31,278.73 -109.31,399.87 -5.02,100.7 18.36,198.26 81.56,278.54 20.9,26.52 46.78,47.89 74.93,66.68 17.44,42.13 42.91,81.18 72.25,110.61 59.64,59.59 148.21,96.3 232.53,96.3 184.35,0 320.84,-150.72 328.8,-328.8 3.67,-81.94 -39.26,-175.49 -96.3,-232.56 -59.61,-59.59 -148.19,-96.28 -232.5,-96.28 -141.42,-0.02 -254.44,88.81 -303.09,210.59 -48.3,-154.55 44.93,-349.89 120.85,-519.7 532.12,-44.38 1065.39,-70.33 1598.05,-25.43 -9.93,12.47 -19.55,25.43 -28.24,39.55 -98.89,160.19 -192.18,295.73 -227.72,485.72 -16.54,88.38 -14.79,205.77 12.89,309.82 -22.65,64.29 -27.35,133.93 -8.04,204.3 32.44,117.43 126.66,211.74 244.09,244.09 120.21,33.1 251.87,-1.76 339.99,-89.85 91.11,-91.23 117.76,-216.77 89.85,-339.99 -0.83,-3.6 -1.68,-7.18 -2.41,-10.78 -51.26,-225.35 -342.83,-319.7 -523.8,-194.33 11.71,-151.44 90.52,-322.24 155.23,-421.76 46.9,-72.13 80.5,-136.15 148.36,-185.85 8.13,-5.92 17.22,-10.9 25.66,-16.49 294.26,38.46 582.66,102.56 868.48,186.96 366.22,108.15 681.19,296.34 1030.87,439.8 119.54,49.09 188.1,-120.24 116.37,-199.99 -234.66,-261.37 -595.12,-417.81 -915.78,-545.31 -348.33,-138.48 -719.9,-209.52 -1090.91,-254.94 -171.87,-21.13 -344.23,-34.22 -516.85,-41.44 -45.47,-41.92 -84.93,-88.36 -105.57,-114.24 -63.29,-79.26 -100.42,-169.73 -114.71,-270.09 -4.48,-31.66 -7.75,-73.24 -6.92,-116.75 1.3,1.33 2.37,2.89 3.7,4.24 44.09,43.84 96.11,74.12 156.04,90.94 62.7,16.8 125.3,16.83 188,0 70.8,-11.8 124.73,-56.37 177.89,-99.95 41.89,-42.22 70.89,-91.96 86.93,-149.28 14.15,-44.93 16.14,-89.9 6.02,-134.9 -1.98,-44.97 -15.38,-86.89 -40.11,-125.75 -30,-50.83 -70.47,-91.28 -121.3,-121.35 -4.34,-2.66 -8.94,-4.81 -13.36,-7.13 -83.44,-52.96 -187.77,-70.14 -284.07,-43.6 -118.88,32.72 -214.24,128.12 -246.96,246.98 -1.35,4.76 -1.9,9.67 -2.99,14.48 -91.75,110.45 -113.67,293.45 -103.36,426.88 11.2,143.95 63.15,279.3 149.57,392.85 -438.75,-2.63 -878.14,30.54 -1314.89,77.23 -5.21,-1.85 -10.71,-3.98 -16.61,-6.8 -84.05,-40.28 -142.86,-132.18 -175.28,-215.68 -30.17,-77.65 -61.87,-180.43 -66.25,-264.09 -0.03,-0.69 0.09,-1.24 0.05,-1.87 49.69,44.62 125.07,70.9 189.35,70.9 70.62,0 154.62,-31.3 203.31,-84.22 35.69,-38.74 67.96,-84.61 80.21,-136.94 12.2,-52.18 16.05,-109.95 0.29,-162.01 -17.68,-58.5 -44.9,-104.91 -87.39,-148.86 -37.6,-38.96 -58.9,-46.7 -102.46,-65.07 -38.41,-16.26 -78.69,-26.61 -121.06,-25.71 -108.57,2.25 -204.4,60.28 -260.78,152.25 -35.64,58.22 -43.55,126.61 -33.36,192.5 -119.33,169.31 -26.73,451.24 66.75,619.15 20.64,37.13 45.3,72.63 73.57,104.45 -64.12,7.54 -128.24,15.19 -192.2,23.03 -318.61,39.08 -636.05,75.31 -953.48,106.11 -102.22,-61.72 -199.45,-167.39 -233.4,-282.31 -36.66,-124.19 -12.32,-231.32 39.71,-328.83 3.06,3.81 5.92,7.82 9.27,11.49 19.64,30.33 45.66,54.22 78.13,71.73 43.43,25.16 90.26,37.84 140.49,38.01 22.44,-0.14 60.61,-5.02 82.36,-10.45 16.33,-4.1 17.35,-5.8 41.85,-16.13 35.78,-11.69 66.78,-31.56 92.89,-59.71 15.07,-19.5 30.11,-38.93 45.14,-58.41 12.3,-21.04 22.63,-51.47 31.07,-74.29 12.01,-38.19 13.72,-76.37 5.14,-114.57 -1.71,-38.24 -13.11,-73.83 -34.07,-106.82 -26.82,-41.58 -61.56,-76.32 -103.1,-103.1 -32.99,-21 -68.58,-32.37 -106.83,-34.08 -25.47,-6.87 -50.94,-6.87 -76.42,0 -38.2,1.71 -73.83,13.08 -106.82,34.08 -19.39,14.98 -38.77,29.95 -58.15,44.93 -28.5,26.78 -48.95,61.44 -63.93,96.92 -7.35,17.37 -11.92,32.04 -15.47,46.94 -0.19,0.21 -0.4,0.45 -0.61,0.69 0.33,-2.59 0.71,-5.14 1.04,-7.72 -0.45,3.17 -1.28,6.33 -2.54,9.31l0 0.03c-141.72,155.16 -199.11,417.9 -141.11,599.12 24.12,75.5 87.89,175.56 170.28,261.98 -328.45,29.29 -657.35,51.75 -987.86,64.76 -72.49,-68.27 -147.3,-132.98 -205.19,-222.63 -64.12,-99.38 -94.45,-219.87 -63.79,-315.84 47.63,42.37 113.67,68.22 176.94,68.22 71.85,-0.03 135.64,-30.05 187.5,-77.63 52.06,-47.81 74.57,-118.95 77.65,-187.53 2.96,-66.04 -31.69,-141.46 -77.65,-187.46 -48.08,-48.11 -119.5,-77.65 -187.5,-77.65 -71.85,0 -135.59,30 -187.48,77.65 -52.04,47.77 -74.57,118.88 -77.68,187.46 -0.07,1.92 0.17,3.91 0.17,5.85 -100.16,129.85 -108.65,337.67 -35.31,493.06 21.11,44.76 105.02,153.65 201.61,243.53 -104.09,2.86 -208.33,4.97 -312.88,5.73 -321.01,2.34 -641.14,-5.45 -960.96,-17.08 -202.65,-135.28 -341.27,-318 -281.67,-532.59 5.71,7.42 11.63,14.53 17.89,20.83 38.98,38.91 88.91,58.27 142.08,64.64 24.91,4.72 49.79,9.67 75.31,7.26 52.32,-4.91 92.86,-15.62 134.12,-47.49 31.28,-24.19 52.81,-52.18 68.22,-88.57 35.88,-85.05 14.88,-174.76 -45.8,-241.87 -59.19,-65.42 -130.73,-75.78 -211.49,-86.16 -58.76,-7.56 -120.85,29.15 -162.43,67.3 -24.55,22.54 -41,51.28 -51.78,82.22 -127.41,112.53 -152.48,317.1 -103.67,474.77 33.03,106.63 100.14,197.46 184.05,270.42 -205.92,-8.53 -411.83,-17.74 -617.78,-26.8 -11.38,-13.1 -28.93,-21.02 -53.13,-18.65 -182.83,18.11 -466.93,-6.99 -575.5,-183.97 -58.84,-96.02 -30.73,-194.12 22.49,-287.48 11.56,22.25 26.07,42.63 42.23,58.77 42.7,42.7 106.08,68.95 166.44,68.95 63.81,0 120.37,-26.66 166.46,-68.95 46.21,-42.39 66.2,-105.54 68.93,-166.44 2.61,-58.62 -28.13,-125.59 -68.93,-166.41 -42.7,-42.7 -106.09,-68.98 -166.46,-68.98 -63.79,0 -120.4,26.69 -166.44,68.98 -19.81,18.15 -34.55,40.28 -45.43,64.26 -157.72,123.69 -259.85,325.28 -177.57,525.5 24.45,59.45 234.37,290.91 400.11,321.27zm19731.15 -321.27c82.27,-200.26 -19.81,-401.81 -177.53,-525.5 -10.95,-23.98 -25.69,-46.09 -45.5,-64.26 -45.97,-42.3 -102.65,-68.98 -166.42,-68.98 -60.35,0 -123.72,26.31 -166.44,68.98 -40.81,40.82 -71.56,107.79 -68.98,166.41 2.77,60.9 22.75,124.05 68.98,166.44 46.07,42.27 102.65,68.95 166.44,68.95 60.36,0 123.79,-26.26 166.42,-68.95 16.23,-16.17 30.69,-36.52 42.23,-58.77 53.24,93.34 81.42,191.46 22.49,287.48 -108.5,176.98 -392.64,202.08 -575.46,183.97 -24.24,-2.39 -41.8,5.55 -53.17,18.65 -205.89,9.06 -411.79,18.27 -617.75,26.8 83.93,-72.96 151.04,-163.79 184.07,-270.42 48.81,-157.67 23.74,-362.24 -103.67,-474.77 -10.76,-30.97 -27.25,-59.67 -51.83,-82.22 -41.53,-38.15 -103.64,-74.85 -162.41,-67.3 -80.76,10.35 -152.32,20.74 -211.51,86.16 -60.66,67.11 -81.58,156.82 -45.71,241.87 15.31,36.37 36.87,64.4 68.13,88.57 41.3,31.87 81.85,42.61 134.17,47.49 25.5,2.41 50.4,-2.52 75.33,-7.26 53.15,-6.37 103.15,-25.7 142.01,-64.64 6.38,-6.33 12.2,-13.41 17.89,-20.83 59.69,214.56 -79,397.31 -281.63,532.59 -319.82,11.61 -640,19.43 -960.98,17.08 -104.5,-0.76 -208.74,-2.84 -312.91,-5.73 96.66,-89.91 180.56,-198.74 201.63,-243.53 73.31,-155.39 64.88,-363.19 -35.26,-493.06 0,-1.94 0.24,-3.94 0.17,-5.85 -3.18,-68.58 -25.66,-139.69 -77.75,-187.46 -51.82,-47.68 -115.61,-77.65 -187.43,-77.65 -68.03,0 -139.43,29.55 -187.48,77.65 -45.97,45.96 -80.69,121.42 -77.68,187.46 3.04,68.55 25.59,139.71 77.68,187.53 51.82,47.56 115.61,77.63 187.48,77.63 63.29,-0.03 129.33,-25.85 176.89,-68.22 30.69,95.97 0.33,216.46 -63.76,315.84 -57.85,89.64 -132.68,154.38 -205.16,222.63 -330.51,-13.03 -659.39,-35.47 -987.91,-64.76 82.51,-86.44 146.2,-186.46 170.28,-261.98 58,-181.22 0.66,-443.96 -141.11,-599.1l0.03 -0.07c-1.26,-2.98 -2.11,-6.09 -2.54,-9.29 0.35,2.58 0.69,5.14 1.02,7.72 -0.17,-0.26 -0.43,-0.45 -0.59,-0.69 -3.58,-14.93 -8.11,-29.55 -15.47,-46.94 -14.96,-35.47 -35.43,-70.14 -63.93,-96.92 -19.39,-14.98 -38.8,-29.95 -58.2,-44.93 -32.91,-21 -68.53,-32.37 -106.75,-34.08 -25.47,-6.87 -50.99,-6.87 -76.39,0 -38.27,1.71 -73.88,13.08 -106.82,34.08 -41.56,26.76 -76.32,61.54 -103.17,103.1 -20.97,32.99 -32.24,68.58 -34,106.82 -8.53,38.17 -6.87,76.37 5.09,114.57 8.43,22.82 18.79,53.27 31.09,74.29 15.05,19.45 30.09,38.93 45.14,58.41 26.16,28.15 57.11,48.03 92.87,59.71 24.5,10.33 25.5,12.04 41.89,16.13 21.73,5.41 59.86,10.31 82.34,10.45 50.24,-0.19 97.03,-12.85 140.52,-38.01 32.44,-17.51 58.43,-41.4 78.08,-71.73 3.34,-3.67 6.19,-7.65 9.27,-11.49 52.08,97.48 76.42,204.63 39.71,328.83 -33.93,114.92 -131.16,220.61 -233.38,282.31 -317.41,-30.82 -634.91,-67.01 -953.47,-106.11 -63.96,-7.86 -128.08,-15.47 -192.2,-23.03 28.27,-31.85 52.92,-67.3 73.57,-104.45 93.56,-167.94 186.09,-449.84 66.71,-619.15 10.21,-65.9 2.35,-134.28 -33.37,-192.5 -56.32,-91.97 -152.13,-150 -260.72,-152.25 -42.37,-0.9 -82.67,9.48 -121.14,25.71 -43.52,18.36 -64.78,26.13 -102.39,65.07 -42.46,43.95 -69.72,90.37 -87.44,148.86 -15.71,52.06 -11.87,109.85 0.33,162.01 12.2,52.32 44.55,98.19 80.16,136.94 48.74,52.89 132.75,84.22 203.31,84.22 64.36,0 139.69,-26.26 189.43,-70.9 -0.09,0.64 0.07,1.19 0,1.87 -4.36,83.67 -36.11,186.46 -66.2,264.09 -32.44,83.5 -91.2,175.42 -175.3,215.68 -5.92,2.8 -11.37,4.98 -16.63,6.8 -436.69,-46.71 -876.15,-79.83 -1314.86,-77.23 86.44,-113.55 138.36,-248.9 149.57,-392.85 10.29,-133.45 -11.63,-316.41 -103.41,-426.88 -1.09,-4.83 -1.59,-9.71 -2.94,-14.48 -32.68,-118.88 -128.05,-214.26 -246.93,-246.98 -96.37,-26.54 -200.7,-9.36 -284.04,43.6 -4.43,2.3 -9.03,4.48 -13.39,7.13 -50.83,30.07 -91.28,70.54 -121.37,121.35 -24.65,38.86 -38.13,80.78 -40.12,125.75 -10.12,44.97 -8.1,89.97 6.02,134.9 16.13,57.3 45.05,107.06 87.01,149.28 53.1,43.58 107.01,88.15 177.89,99.95 62.63,16.8 125.3,16.83 188,0 59.85,-16.82 111.94,-47.11 155.99,-90.94 1.33,-1.35 2.42,-2.89 3.67,-4.24 0.85,43.5 -2.41,85.11 -6.94,116.75 -14.29,100.35 -51.39,190.85 -114.69,270.09 -20.64,25.88 -60.02,72.32 -105.57,114.24 -172.53,7.23 -344.91,20.33 -516.85,41.44 -371.01,45.4 -742.58,116.49 -1090.91,254.94 -320.65,127.48 -681.04,283.95 -915.77,545.31 -71.63,79.74 -3.18,249.09 116.44,199.99 349.61,-143.48 664.57,-331.62 1030.89,-439.8 285.82,-84.43 574.2,-148.5 868.39,-186.96 8.43,5.59 17.63,10.59 25.73,16.49 67.89,49.67 101.39,113.74 148.38,185.85 64.72,99.5 143.53,270.35 155.24,421.76 -180.97,-125.37 -472.64,-31.02 -523.8,194.33 -0.83,3.58 -1.59,7.18 -2.42,10.78 -28.01,123.22 -1.35,248.78 89.85,339.99 88.03,88.1 219.69,122.96 339.97,89.85 117.46,-32.35 211.67,-126.66 244.02,-244.09 19.41,-70.4 14.62,-140.02 -7.94,-204.3 27.58,-104.05 29.33,-221.44 12.87,-309.82 -35.59,-190.02 -128.91,-325.52 -227.79,-485.72 -8.7,-14.12 -18.22,-27.06 -28.25,-39.55 532.73,-44.93 1065.98,-18.95 1598.05,25.43 75.92,169.81 169.19,365.15 120.97,519.7 -48.74,-121.77 -161.75,-210.59 -303.12,-210.59 -84.33,-0.02 -172.96,36.68 -232.55,96.28 -57.01,57.06 -99.97,150.61 -96.3,232.56 7.94,178.07 144.45,328.8 328.85,328.8 84.26,0 172.79,-36.7 232.48,-96.3 29.33,-29.43 54.83,-68.48 72.3,-110.61 28.1,-18.79 54,-40.14 74.9,-66.68 63.12,-80.31 86.54,-177.84 81.51,-278.54 -6.02,-121.16 -43.81,-270.66 -109.33,-399.87 251.44,22.54 502.54,47.79 753.17,70.4 91.37,8.25 182.91,15.8 274.44,23.15 84.76,80.52 176.46,157.51 233.48,264.05 24.74,46.32 43.79,96.65 55.66,148.52 -73.13,-38.25 -161.42,-57.25 -242.24,-31.09 -79.76,25.78 -144.8,73.34 -189.35,145.57 -25.07,40.66 -48.06,82.27 -58.17,129.85 -3.77,27.82 -7.54,55.76 -11.28,83.6 -1.59,43.29 7.44,83.67 27.15,121.13 7.44,26.66 20.9,49.81 40.38,69.38 22.15,34.26 51.58,61.28 88.26,80.99 49.34,26.07 102.91,40.47 158.67,42.98 43.31,1.56 83.67,-7.44 121.13,-27.08 39.05,-12.73 72.72,-34.36 101.23,-65.05 34.36,-35.71 59.76,-72.22 79.57,-116.11 23.17,-36.37 35.71,-75.67 37.63,-117.79 9.36,-42.13 7.51,-84.17 -5.69,-126.26 -2.68,-9.59 -6.02,-19.31 -9.85,-28.98 10.94,-67.06 11.78,-133.38 3.67,-186.77 -17.89,-117.72 -85.52,-252.67 -178.05,-368.19 404.25,28.53 809.59,47.68 1214.93,55.76 67.39,62.94 140.21,116.41 191.2,206.98 72.72,129.19 83.41,246.22 45.88,350.22 -10.69,-9.95 -22.06,-19.03 -34.93,-25.85 -34.19,-18.03 -71.22,-27.96 -109.85,-29.67 -50.9,-2.3 -119.78,25.19 -153.81,63.72 -1.75,1.93 -3.5,3.94 -5.26,5.95 -50.9,57.65 -81.42,136.58 -56.51,213.74 17.72,54.5 50.56,101.82 100.99,131.25 49.24,28.81 114.35,37.27 169.26,22.15 70.14,-19.33 138.26,-79.83 153.48,-153.41 0.52,-2.68 1.09,-5.36 1.68,-8.01 1.93,-9.48 3.01,-18.58 4.01,-27.77 89.12,-108.6 130.43,-262.15 105.17,-402.14 -14.2,-79.1 -79.74,-223.07 -167.53,-343.33 207.5,1.83 414.89,0.9 621.94,-3.55 226.39,-4.81 454.91,-13.18 683.96,-26.61 49.67,29.24 91.7,69.71 125.56,123.19 44.74,70.5 63.86,147.68 64.78,226.01 -46.04,-33.86 -99.54,-54.5 -158.74,-54.5 -67.87,-0.03 -139.19,29.55 -187.18,77.56 -45.87,45.9 -80.49,121.23 -77.57,187.18 3.1,68.48 25.59,139.47 77.57,187.12 51.75,47.54 115.45,77.56 187.18,77.56 67.87,0 139.19,-29.5 187.17,-77.56 42.89,-42.82 75.4,-111.28 77.22,-173.81 66.73,-149 78.93,-312.41 5.36,-471.13 -19.05,-41.28 -44.15,-80.73 -73.72,-116.77 271.6,-20.24 543.11,-48.69 812.01,-88.41 12.96,4.93 27.67,9.55 45.73,14.17 78.34,20.11 151.56,51.14 218.76,96.54 124.31,84 226.46,206.29 224.87,340.36 -5.17,-6.54 -10.69,-12.7 -16.63,-18.15 -42.46,-38.98 -98.15,-67.89 -157.48,-65.23 -19.74,2.63 -39.45,5.31 -59.19,7.96 -37.7,10.55 -70.48,29.67 -98.31,57.28 -1.99,1.61 -4.08,3.3 -6.19,4.93 -41.94,33.06 -65.54,107.46 -65.54,158.13 0,54.83 24.43,120.37 65.54,158.17 42.65,39.1 98.57,68.13 158.07,65.45 55.26,-2.51 122.3,-20.07 158.17,-65.45 1.68,-2.11 3.25,-4.19 4.93,-6.28 21.73,-20.14 37.04,-44.06 46.06,-71.73 13.89,-26.49 20.31,-55.09 19.15,-85.76 0,-9.08 -0.85,-18.46 -2.18,-27.91 47.91,-36.82 86.61,-80.17 100.31,-148.39 24.76,-123.19 -52.42,-231.15 -133.41,-316.7 -56.09,-59.26 -122.3,-108.79 -193.76,-148.5 165.68,-30.38 375.58,-261.79 400.06,-321.27z"/>
 </g>
</svg>
