<?xml version="1.0" encoding="UTF-8"?>
<!DOCTYPE svg PUBLIC "-//W3C//DTD SVG 1.1//EN" "http://www.w3.org/Graphics/SVG/1.1/DTD/svg11.dtd">
<!-- Creator: CorelDRAW 2021 (64-Bit) -->
<svg xmlns="http://www.w3.org/2000/svg" xml:space="preserve" width="22in" height="22in" version="1.1" style="shape-rendering:geometricPrecision; text-rendering:geometricPrecision; image-rendering:optimizeQuality; fill-rule:evenodd; clip-rule:evenodd"
viewBox="0 0 22000 22000"
 xmlns:xlink="http://www.w3.org/1999/xlink"
 xmlns:xodm="http://www.corel.com/coreldraw/odm/2003">
 <defs>
  <style type="text/css">
   <![CDATA[
    .fil0 {fill:none}
    .fil1 {fill:#2B2A29}
   ]]>
  </style>
 </defs>
 <g id="Layer_x0020_1">
  <metadata id="CorelCorpID_0Corel-Layer"/>
  <rect class="fil0" width="22000" height="22000"/>
  <path class="fil1" d="M20968.45 11029.89c-300.89,-26.9 -603.87,-24.65 -890.41,68.4 -1.2,-0.8 -2.18,-1.84 -3.38,-2.48 159.64,-216.96 229.06,-511.45 250.76,-749.55 1.77,-20.02 -34.35,-23.54 -40.04,-4.56 -57.98,191.01 -133.83,373.22 -235.06,550.68 -40.75,71.44 -80.64,147.68 -133.03,213.6 -28.11,35.39 -52.13,51.01 -59.89,88.9 -3.2,0.16 -6.43,0.16 -9.63,0.39 -12.33,-14.26 -30.26,-23.22 -49.4,-26.83 179.73,-262.43 45.97,-752.33 1.83,-1016.7 -4.72,-28.74 -55.67,-20.34 -56.71,6.65 -6.81,190.76 -6.24,377.44 -34.19,567.18 -15.62,106.43 -39.16,210.54 -58.64,316.26 6.33,-34.44 -44.27,173.78 18.82,142.48 -8.38,4.15 -12.74,11.37 -13.69,18.98 -32.49,1.2 -65.02,2.56 -97.39,3.29 -5.52,-3.06 -11.28,-5.54 -17.46,-7.62 105.74,-371.99 3.7,-809.03 -111.87,-1169.51 -12.33,-38.53 -72.96,-21.14 -67.11,15.94 62.31,398.35 -10.33,767.96 -2.66,1164.08 -45.63,0.23 -91.28,0 -136.94,-0.41 0.5,-3.45 1.27,-6.65 1.36,-10.33 4.59,-229.22 62.54,-446.66 9.6,-677.62 -53.17,-232.17 -138.64,-461.21 -271.74,-668.64 -17.69,-27.56 -70.24,-9.06 -59.5,21.7 82.25,233.29 153.12,460.51 155.85,705.73 2.27,208.13 -40.05,412.6 -40.52,618.83 0.02,2.73 0.72,4.98 0.89,7.61 -70.15,-1.77 -140.32,-4.09 -210.47,-6.97 103.95,-193.89 39.64,-515.76 9.78,-700.04 -48.53,-299.3 -117.91,-602.66 -241.39,-886.57 -14.65,-33.71 -70.17,-20.82 -62.38,14.89 65.83,304.09 116.34,601.71 115.87,911 -0.16,131.42 -0.88,262.52 -6.4,393.94 -3.33,79.61 -18.19,150.33 -8.24,219.11 -9.13,8.56 -16.66,18.25 -21.31,28.83 -1.18,2.72 -2.22,5.61 -3.36,8.33 -105.77,-5.77 -211.51,-12.42 -317.15,-20.02 131.58,-248.52 93.22,-584.39 53.58,-842.67 -55.17,-359.35 -191.97,-722.23 -338.28,-1061.08 -12.08,-27.94 -58.48,-17.3 -51.83,12.42 74.19,331.88 160.91,655.43 199.28,992.68 17.62,154.71 24.56,308.09 14.8,463.36 -8.94,141.21 -50.61,281.37 -52.22,421.92 -85.76,-6.9 -171.63,-14.1 -257.48,-21.8 0.34,-0.63 0.8,-1.04 1.14,-1.75 149.37,-335.96 17.93,-738.9 -88.68,-1071.82 -117.55,-367.27 -304.31,-728.23 -518.64,-1060.49 -19.75,-30.69 -68.38,-3.77 -53.01,26.81 164.2,327.63 286.15,653.77 375.69,1001.97 85.22,331.01 206.07,723.28 78.73,1054.52 -4.4,11.28 -5.85,21.71 -5.76,31.63 -140.87,-13.37 -281.84,-27.22 -422.87,-41.25 8.67,-12.65 14.73,-27.31 17.2,-44.04 107.97,-703.73 -2.06,-1492.26 -379.28,-2130.47 -28.17,-47.74 -114.92,-14.42 -98.91,36.05 111.9,350.54 219.44,689.3 243.32,1053.54 22.97,349.5 27.22,691.7 -14.19,1040.88 -0.89,7.44 -0.73,14.41 -0.16,21.07 -103.05,-10.17 -206.22,-20.19 -309.45,-29.87 44.86,-728.8 -96.75,-1476.23 -392.04,-2159.78 -10.56,-24.43 -53.57,-15.14 -45.97,11.06 203.52,703.87 267.66,1406.72 236.58,2130.31 -69.74,-6.27 -139.44,-12.26 -209.33,-18.03 53.33,-106.67 35.14,-249.72 36.51,-362 2.97,-252.19 -28.11,-506.13 -66.31,-756.01 -56.19,-368.79 -116.28,-739.85 -426.86,-1018 -33.3,-29.78 -82.09,14.19 -51.89,45.02 314.6,321.07 354.31,768.52 366.88,1171.5 6.17,198.87 -10.96,398.76 -25,597.31 -7.19,102.5 -40.84,211.89 -16.16,307.67 -99.46,-7.35 -199.03,-14.26 -298.73,-20.09 -43.07,-2.65 -86.09,-4.08 -129.11,-6.17 -3.02,-1.91 -6.24,-3.68 -9.35,-5.52 125.41,-333.74 77.85,-742.8 22.59,-1081.33 -54.78,-335.07 -130.72,-697.33 -332.13,-992.43 -3.05,-4.33 -10.26,-1.3 -9.22,3.36 76,357.73 201.75,696.99 214.71,1064.91 11.71,336.92 -66.54,670.48 -64.8,1003.72 -121.7,-3.83 -243.39,-5.68 -364.95,-6.15 4.97,-9.69 8.65,-20.34 9.76,-32.69 69.47,-714.13 -134.15,-1458.14 -494.54,-2098.12 -16.48,-29.15 -71.19,-8.72 -60.3,21.95 242.91,684.5 330.04,1362.61 346.22,2076.17 0.32,12.33 3.11,23.06 7.2,32.76 -132.06,1.04 -263.95,3.36 -396.04,6.81 37.35,-99.86 -8.08,-195.98 -34.82,-307.93 -47.74,-199.91 -97.71,-399.89 -155.14,-597.85 -110.17,-380.41 -261.48,-750.09 -400.6,-1123.06 -14.8,-39.89 -85.29,-23.64 -72.87,17.36 111.56,366.25 189.41,739.13 281.19,1109.3 46.22,186.43 94.51,372.46 137.03,559.65 26.92,118.27 24.99,250.58 101.47,346.68 -182.91,5.7 -365.93,12.83 -549.24,20.34 64.34,-226.31 -100.66,-569.41 -176.74,-774.52 -104.18,-280.37 -245.56,-562.85 -409.18,-821.03 -18.57,-29.24 -76.96,-9.38 -63.5,23.13 120.39,290.41 223.43,577.11 307.93,876.95 42.04,149.13 74.64,300.16 108.26,450.9 20.12,89.93 19.48,180.66 74.33,251.15 -0.38,0 -0.72,0 -1.11,0 -662.71,27.38 -1372.78,18.73 -2003.61,220.7 -127.65,40.93 -78.32,212.65 57.25,179.57 360.74,-88.11 704.53,-178.21 1078.77,-217.76 266.95,-28.29 535.47,-43.09 803.92,-57.19 0.5,1.68 0.48,3.2 1.13,4.79 191.01,541.71 258.44,1130.19 193.96,1693.21 -5.52,47.56 83.45,57.09 95.94,11.21 159.16,-582.16 142.72,-1150.14 -59.02,-1721.48 0.88,-0.09 1.77,-0.16 2.72,-0.16 187.17,-10.33 373.85,-18.98 560.3,-25.63 -48.92,73.19 -10.58,136.07 12.17,236.33 40.93,180.45 66.22,363.05 79.68,546.43 27.24,371.44 11.76,728.89 -78.25,1093.74 -13.19,53.58 76.26,75.46 95.24,22.75 128.47,-357.04 212.71,-741.44 206.79,-1116.5 -2.79,-176.1 -22.91,-352.22 -58.48,-525.59 -20.57,-100.21 -21.71,-200.14 -92.33,-262.46 127.9,-3.52 255.71,-5.83 383.52,-6.81 35.96,292.71 96.44,570.7 76.89,871.27 -21.86,338.21 -112.6,652.8 -226.81,974.66 -13.92,39.57 51.42,61.59 75.69,27.63 360.7,-505.66 510.4,-1289.15 282.54,-1874.1 116.94,0.55 233.94,3.04 351.11,6.56 9.92,103.31 61.34,218.87 66.31,312.81 9.6,181.73 -2.34,365.29 -34.22,545.07 -67.17,378.67 -244.33,714.47 -448.25,1050.59 -16.64,27.38 24.36,57.66 50.78,33.96 339.6,-304.09 544.5,-728.32 620.99,-1141.72 27.11,-146.18 90.67,-563.73 -17.05,-791.43 59.5,2.88 119,5.61 178.59,9.37 53.44,3.36 106.84,7.2 160.34,11.13 -25.4,113.8 -4.97,230.81 -8.58,348.47 -5.44,182.75 -36.37,365.66 -80.09,544.19 -79.34,324.11 -167.7,704.6 -406.84,970.48 -37.07,41.34 25.22,100.05 68.47,59.28 280.95,-264.77 405.81,-648.86 507.04,-989.48 75.14,-252.92 199.48,-659.35 60.46,-921.94 83.95,6.88 167.88,14.33 251.96,22.25 -34.37,123.74 -6.43,262.29 -13.21,390.26 -10.17,190.85 -28.67,384.98 -61.2,573.52 -61.34,356.62 -200.46,691.38 -336.92,1030.14 -12.01,29.87 38.52,45.49 56.87,20.74 233.06,-312.26 363.43,-687.95 444.8,-1049.93 40.52,-179.64 72.96,-353.42 84.18,-537.15 7.92,-128.85 33.78,-281.91 -5.54,-411.33 117.91,11.69 235.94,23.95 354.07,36.28 -96.11,624.12 -269.74,1207.87 -512.24,1799.96 -11.35,27.63 37.39,44.13 53.98,19.7 366.88,-541.94 599.6,-1173.19 678.65,-1796.5 104.11,10.96 208.31,21.7 312.49,32.12 -0.64,3.11 -1.75,6 -2.16,9.29 -33.08,301.91 -88.74,599.06 -195.74,888.57 -110.35,298.64 -270.35,570.29 -413.65,855.95 -26.17,52.24 47.27,117.25 99.64,66.47 486.62,-471.7 736.15,-1172.3 774.77,-1795.21 95.46,8.56 191.08,16.66 286.61,23.95 -1.02,2.54 -2.22,4.79 -3.11,7.6 -88.58,291.9 -102.52,601.37 -194.78,894.09 -91.03,289.11 -223.59,563.42 -348.29,842.19 -8.72,19.39 25.95,36.91 41.09,20.66 217.19,-232.33 370.63,-501.98 487.25,-782.28 122.86,-295.06 248.68,-632.93 214.71,-951.27 -0.63,-6.08 -1.93,-11.85 -3.76,-17.39 94.85,6.02 189.56,11.15 284.29,15.14 -56.05,203.5 -50.13,430.63 -107.15,633.24 -67.97,241.87 -160.8,476.6 -239.37,715.26 -13.21,40.05 53.1,79.75 86.25,43.41 186.93,-205.11 314.83,-450.17 394.83,-701.07 63.59,-199.67 149.45,-460.19 127.27,-683.14 73.37,1.2 146.63,1.36 220,0.89 -46.13,211.26 -77.05,424.14 -132.31,634.35 -58.61,223.2 -144.09,437.28 -213.76,657.76 -14.48,46.29 60.7,73.67 89.15,32.6 263.72,-381.61 436.37,-882.74 450.97,-1328.33 46.77,-1.45 93.62,-3.45 140.45,-5.85 -57.48,385.13 -182.36,725.68 -320.09,1092.86 -17.53,46.86 57.25,67.45 86.65,31.65 265.97,-324.43 411.56,-745.05 461.3,-1136.27 0.18,-1.21 -0.09,-2.18 0,-3.36 38.14,-3.22 76.16,-6.81 114.19,-10.74 22.04,361.91 12.58,710.61 -7.68,1073.16 -1.36,25.63 42.52,29.63 50.61,5.92 116.71,-344.13 148.88,-739.91 111.4,-1096.54 45.36,-5.7 90.67,-11.94 136,-18.82 -31.24,115.64 43.16,263.57 66.06,377.06 37.41,185.06 51.49,375.44 107.63,557.15 7.4,23.95 44.7,16.82 47.26,-5.52 24.43,-221.52 -12.82,-451.76 -37.48,-672.49 -10.87,-96.91 -7.61,-203.75 -84.09,-263.64 300.16,11.6 593.35,-46.79 880.46,-114.21 56.23,-13.21 39.32,-78.26 -12.96,-82.98zm-19936.83 76.26c300.89,-26.93 603.91,-24.75 890.39,68.31 1.23,-0.8 2.16,-1.77 3.45,-2.48 -159.61,-216.96 -229.06,-511.45 -250.76,-749.55 -1.72,-20.02 34.28,-23.54 40.04,-4.56 57.92,191.08 133.83,373.19 234.99,550.67 40.77,71.44 80.64,147.77 133.01,213.61 28.22,35.39 52.15,51.01 60,88.87 3.22,0.16 6.4,0.16 9.6,0.41 12.35,-14.26 30.29,-23.22 49.33,-26.83 -179.62,-262.43 -45.88,-752.25 -1.75,-1016.7 4.72,-28.76 55.64,-20.34 56.62,6.65 6.9,190.83 6.31,377.53 34.19,567.18 15.71,106.43 39.17,210.54 58.71,316.26 -6.31,-34.44 44.2,173.78 -18.98,142.48 8.52,4.15 12.89,11.37 13.85,19.04 32.53,1.14 64.95,2.5 97.39,3.29 5.45,-3.04 11.28,-5.6 17.39,-7.7 -105.7,-371.98 -3.61,-809.02 111.88,-1169.5 12.41,-38.53 73.03,-21.14 67.11,16.03 -62.2,398.26 10.33,767.87 2.66,1163.96 45.72,0.25 91.28,0 136.94,-0.39 -0.39,-3.45 -1.28,-6.65 -1.37,-10.33 -4.47,-229.22 -62.47,-446.66 -9.54,-677.62 53.19,-232.08 138.64,-461.21 271.65,-668.64 17.8,-27.56 70.33,-9.06 59.53,21.7 -82.25,233.28 -153.06,460.5 -155.78,705.73 -2.31,208.13 39.96,412.6 40.46,618.83 0,2.72 -0.66,4.95 -0.89,7.61 70.24,-1.77 140.39,-4.09 210.54,-6.97 -104.02,-193.89 -39.64,-515.76 -9.76,-699.96 48.44,-299.37 117.89,-602.73 241.3,-886.64 14.67,-33.71 70.24,-20.82 62.47,14.89 -65.9,304.18 -116.37,601.71 -115.96,911 0.25,131.42 0.95,262.52 6.4,393.94 3.38,79.61 18.19,150.31 8.24,219.11 9.24,8.65 16.57,18.35 21.32,28.83 1.27,2.79 2.15,5.6 3.36,8.33 105.81,-5.77 211.57,-12.33 317.21,-20.02 -131.74,-248.52 -93.31,-584.39 -53.65,-842.67 55.28,-359.37 192.04,-722.24 338.35,-1061.08 12.03,-27.94 58.48,-17.2 51.83,12.42 -74.24,331.88 -161.04,655.42 -199.34,992.68 -17.6,154.71 -24.5,308.09 -14.74,463.36 8.9,141.2 50.63,281.35 52.15,421.92 85.86,-6.91 171.62,-14.1 257.48,-21.8 -0.32,-0.57 -0.73,-1.04 -1.04,-1.77 -149.36,-335.94 -17.94,-738.87 88.65,-1071.8 117.48,-367.27 304.34,-728.23 518.64,-1060.52 19.7,-30.67 68.31,-3.75 53.01,26.83 -164.22,327.63 -286.13,653.77 -375.69,1001.97 -85.18,331.08 -206.13,723.28 -78.71,1054.5 4.41,11.3 5.67,21.72 5.61,31.65 140.96,-13.37 281.98,-27.22 422.93,-41.16 -8.56,-12.74 -14.67,-27.4 -17.23,-44.13 -107.85,-703.73 2.15,-1492.26 379.37,-2130.47 28.2,-47.65 114.94,-14.32 98.85,36.05 -111.88,350.52 -219.37,689.3 -243.32,1053.52 -23.07,349.52 -27.22,691.72 14.26,1040.9 0.89,7.52 0.72,14.42 0.09,21.07 103.09,-10.1 206.22,-20.12 309.44,-29.88 -44.83,-728.8 96.67,-1476.25 392.11,-2159.71 10.58,-24.5 53.51,-15.21 45.97,10.99 -203.48,703.87 -267.81,1406.72 -236.58,2130.31 69.7,-6.27 139.44,-12.19 209.2,-18.03 -53.25,-106.67 -35,-249.72 -36.37,-362 -2.95,-252.19 28.11,-506.13 66.15,-756.01 56.39,-368.81 116.44,-739.85 426.93,-1018 33.35,-29.78 82.09,14.19 51.98,45.02 -314.57,321.07 -354.31,768.59 -366.89,1171.5 -6.24,198.87 10.99,398.75 24.91,597.31 7.31,102.5 40.93,211.89 16.19,307.76 99.57,-7.44 199.09,-14.35 298.8,-20.18 43.09,-2.65 86.02,-4.08 129.11,-6.08 2.97,-2.02 6.17,-3.7 9.28,-5.61 -125.31,-333.74 -77.84,-742.8 -22.59,-1081.33 54.87,-335.1 130.71,-697.33 332.22,-992.36 3.04,-4.4 10.17,-1.36 9.12,3.36 -75.91,357.67 -201.75,696.92 -214.65,1064.92 -11.76,336.91 66.47,670.5 64.72,1003.64 121.75,-3.83 243.39,-5.67 365.02,-6.08 -5.04,-9.76 -8.65,-20.43 -9.85,-32.76 -69.42,-714.13 134.17,-1458.14 494.63,-2098.13 16.42,-29.15 71.19,-8.71 60.3,22.05 -242.98,684.41 -330.11,1362.52 -346.29,2076.08 -0.23,12.41 -3.04,23.06 -7.13,32.85 131.99,0.96 263.98,3.36 395.87,6.79 -37.16,-99.93 8.24,-196.06 34.92,-308 47.74,-199.91 97.7,-399.8 155.12,-597.85 110.28,-380.41 261.5,-750.09 400.59,-1122.99 14.92,-39.95 85.38,-23.61 72.9,17.3 -111.56,366.31 -189.4,739.13 -281.12,1109.28 -46.2,186.45 -94.57,372.49 -137.09,559.67 -26.81,118.28 -24.99,250.58 -101.48,346.68 182.93,5.77 366,12.83 549.31,20.34 -64.31,-226.31 100.59,-569.41 176.76,-774.52 104.13,-280.39 245.54,-562.84 409.16,-821.05 18.59,-29.22 76.96,-9.35 63.43,23.15 -120.28,290.4 -223.43,577.1 -307.93,877.04 -42.04,149.04 -74.56,300.17 -108.2,450.81 -20.09,90.02 -19.45,180.66 -74.32,251.15 0.34,0 0.73,0 1.04,0 662.73,27.38 1372.69,18.81 2003.52,220.7 127.75,40.93 78.5,212.63 -57.09,179.55 -360.69,-88.02 -704.53,-178.09 -1078.77,-217.67 -267.02,-28.35 -535.54,-43.18 -803.92,-57.19 -0.46,1.61 -0.57,3.13 -1.11,4.72 -191.08,541.71 -258.44,1130.28 -193.99,1693.21 5.54,47.63 -83.45,57.09 -96.01,11.19 -159.05,-582.14 -142.72,-1150.12 59.02,-1721.46 -0.81,-0.09 -1.77,-0.16 -2.65,-0.16 -187.22,-10.33 -373.83,-18.98 -560.28,-25.63 48.85,73.19 10.56,136.08 -12.17,236.33 -40.91,180.43 -66.24,363.04 -79.71,546.43 -27.28,371.44 -11.85,728.89 78.17,1093.75 13.23,53.67 -76.23,75.44 -95.21,22.75 -128.36,-357.04 -212.79,-741.44 -206.7,-1116.5 2.81,-176.1 22.81,-352.22 58.45,-525.59 20.59,-100.2 21.64,-200.13 92.19,-262.36 -127.72,-3.61 -255.57,-5.93 -383.39,-6.91 -35.93,292.72 -96.5,570.79 -77.05,871.34 22.04,338.14 112.78,652.72 226.81,974.68 14.03,39.48 -51.26,61.5 -75.53,27.54 -360.78,-505.66 -510.47,-1289.07 -282.54,-1874.1 -116.92,0.64 -234.01,3.05 -351.17,6.57 -9.83,103.31 -61.34,218.86 -66.22,312.81 -9.61,181.79 2.31,365.29 34.19,545.07 67.04,378.64 244.27,714.47 448.25,1050.59 16.57,27.38 -24.33,57.66 -50.85,33.96 -339.55,-304.09 -544.43,-728.32 -621,-1141.72 -26.97,-146.18 -90.65,-563.76 17.07,-791.43 -59.5,2.88 -118.94,5.61 -178.53,9.37 -53.4,3.36 -106.9,7.2 -160.41,11.13 25.41,113.8 5.07,230.81 8.58,348.54 5.54,182.69 36.35,365.59 80.09,544.12 79.43,324.11 167.76,704.59 406.91,970.57 37,41.25 -25.22,99.95 -68.56,59.18 -280.84,-264.77 -405.7,-648.86 -507.02,-989.48 -75.1,-252.92 -199.51,-659.35 -60.39,-921.87 -83.91,6.88 -167.95,14.26 -251.94,22.18 34.19,123.72 6.31,262.29 13.12,390.26 10.19,190.85 28.67,385.05 61.18,573.49 61.45,356.65 200.54,691.41 336.94,1030.17 12.1,29.96 -38.43,45.49 -56.93,20.74 -232.97,-312.26 -363.28,-687.95 -444.73,-1049.93 -40.44,-179.64 -72.87,-353.42 -84.18,-537.15 -7.83,-128.85 -33.71,-281.91 5.6,-411.33 -117.89,11.78 -235.94,23.95 -354.15,36.28 96.22,624.12 269.81,1207.87 512.24,1799.95 11.4,27.72 -37.32,44.22 -53.89,19.71 -366.86,-541.94 -599.62,-1173.11 -678.74,-1796.5 -104.02,10.96 -208.22,21.7 -312.43,32.12 0.57,3.11 1.77,5.99 2,9.29 33.26,301.91 88.81,599.06 195.83,888.64 110.44,298.55 270.44,570.22 413.72,855.88 26.19,52.21 -47.33,117.25 -99.62,66.47 -486.61,-471.63 -736.17,-1172.3 -774.77,-1795.21 -95.62,8.65 -191.17,16.66 -286.63,23.95 0.89,2.54 2.25,4.88 3.04,7.6 88.67,291.9 102.5,601.37 194.76,894.09 91.08,289.11 223.54,563.42 348.31,842.19 8.65,19.46 -25.88,36.91 -41.09,20.66 -217.19,-232.33 -370.65,-501.98 -487.24,-782.21 -122.77,-295.12 -248.59,-632.99 -214.72,-951.34 0.75,-6.02 2,-11.85 3.83,-17.39 -94.8,6.02 -189.63,11.22 -284.29,15.15 55.98,203.5 50.06,430.63 107.15,633.33 68.01,241.78 160.73,476.51 239.36,715.17 13.24,40.05 -53.16,79.77 -86.24,43.41 -186.91,-205.11 -314.9,-450.18 -394.83,-701.07 -63.66,-199.67 -149.51,-460.19 -127.26,-683.15 -73.33,1.21 -146.7,1.43 -219.98,0.89 46.04,211.26 76.96,424.14 132.31,634.36 58.61,223.2 143.97,437.28 213.67,657.83 14.58,46.22 -60.63,73.69 -89.15,32.51 -263.61,-381.62 -436.3,-882.71 -450.88,-1328.3 -46.84,-1.46 -93.78,-3.45 -140.55,-5.77 57.57,385.04 182.34,725.57 320.19,1092.77 17.53,46.86 -57.34,67.45 -86.74,31.65 -265.86,-324.43 -411.49,-745.05 -461.21,-1136.27 -0.16,-1.13 0.07,-2.17 -0.09,-3.38 -38.02,-3.2 -76.07,-6.78 -114.12,-10.71 -22,361.91 -12.65,710.61 7.7,1073.15 1.36,25.63 -42.7,29.63 -50.63,5.93 -116.69,-344.13 -148.97,-739.91 -111.4,-1096.47 -45.34,-5.77 -90.74,-12.01 -135.98,-18.89 31.17,115.71 -43.25,263.57 -66.15,377.04 -37.3,185.09 -51.49,375.46 -107.57,557.17 -7.35,23.95 -44.76,16.82 -47.24,-5.52 -24.5,-221.52 12.8,-451.76 37.48,-672.5 10.89,-96.82 7.51,-203.65 83.99,-263.63 -300.07,11.6 -593.36,-46.69 -880.46,-114.21 -56.3,-13.21 -39.41,-78.25 12.98,-82.88z"/>
 </g>
</svg>
