<?xml version="1.0" encoding="UTF-8"?>
<!DOCTYPE svg PUBLIC "-//W3C//DTD SVG 1.1//EN" "http://www.w3.org/Graphics/SVG/1.1/DTD/svg11.dtd">
<!-- Creator: CorelDRAW 2021 (64-Bit) -->
<svg xmlns="http://www.w3.org/2000/svg" xml:space="preserve" width="22in" height="22in" version="1.1" style="shape-rendering:geometricPrecision; text-rendering:geometricPrecision; image-rendering:optimizeQuality; fill-rule:evenodd; clip-rule:evenodd"
viewBox="0 0 22000 22000"
 xmlns:xlink="http://www.w3.org/1999/xlink"
 xmlns:xodm="http://www.corel.com/coreldraw/odm/2003">
 <defs>
  <style type="text/css">
   <![CDATA[
    .fil1 {fill:none}
    .fil0 {fill:#2B2A29}
   ]]>
  </style>
 </defs>
 <g id="Layer_x0020_1">
  <metadata id="CorelCorpID_0Corel-Layer"/>
  <path class="fil0" d="M11682.21 8921.72c155.74,233.1 268.62,491.35 428.57,723.78 160.08,231.96 342.28,448.89 543.41,646.1 23.41,22.81 114.34,63.98 136.73,80.82 46.47,35.02 473.3,-6.44 631.81,-416.41 56.99,-147.24 193.69,-277.28 333.31,-357.65 204.73,-117.08 452.27,-7.1 442.59,243.3 -18.67,483.38 -680.48,888.29 -1144.5,794.44 321.37,243.73 677.61,441.07 1055.11,582.76 165.07,61.81 331.78,111.99 499.53,150.92 167.22,-103.91 268.84,-223.82 304.63,-438.98 29.59,-177.99 6.96,-361.52 7.45,-540.91 0.95,-231.33 185.23,-424.66 421.83,-286.14 273.13,160.22 202.54,527.3 104.83,771.74 -68.24,171.18 -212.92,438.96 -395.49,572.27 360.44,42.23 722.45,36.13 1080.99,-12.94 1.63,-2.7 3.19,-5.39 4.62,-8.44 51.07,-96.59 68.11,-190.37 53.18,-298.36 -24.87,-182.49 -99.87,-352.2 -117.26,-536.48 -18.17,-190.69 35.36,-564.58 321.53,-439.81 264.32,116.09 336.64,489.07 280.67,738.92 -27.3,122.04 -71.21,327.25 -158.78,474.94 220.91,-49.3 439.57,-114.43 654.75,-194.46 2.04,-9.79 3.95,-19.87 5.89,-29.94 18.57,-97.68 19.57,-192.3 9.15,-291.12 -18.52,-176.08 -71.41,-346.5 -97.99,-521 -33.37,-222.03 -46.1,-668.91 288.41,-645.89 320.56,22.04 341.37,436.82 339.24,677.13 -1.78,206.03 -31.93,438.34 -122.74,634.4 272.02,-124.23 537.79,-259.74 788.17,-417.24 75.67,-113.17 129.04,-227.19 133.76,-369.18 5.32,-158.7 -47.32,-311.62 -49.91,-469.14 -2.61,-164 61.3,-368.15 258.51,-381.6 213.49,-14.76 266.54,262.97 251.59,421.57 -14.51,155.22 -58.9,316.97 -130.28,462.29 129.81,-109.68 252.28,-229.35 366.19,-360.37 35.43,-71.5 74,-141.25 114.25,-211.78 67.1,-116.48 111.42,-247.78 199.24,-351.92 101.48,-120.18 316.42,-288 468.28,-148.93 334.81,306.33 -361.84,728.35 -670.87,897.2 -1.81,4.04 -3.8,7.72 -5.27,11.63 -16.01,37.62 -534.78,490.08 -803.83,658.66 265.94,19.17 554.37,66.33 779.32,182.36 204.5,105.15 412.09,352.77 289.1,593.68 -120.4,235.77 -374.49,118.29 -512.71,-24.35 -120.69,-124.91 -239.7,-244.12 -383.52,-343.5 -140.87,-97.43 -296.24,-167.95 -447.26,-247.68 -125.9,69.08 -253.89,133.44 -382.09,194.7 -180.19,86.44 -641.21,294.72 -662.78,285.04 -4.32,1.94 -9.18,3.74 -13.66,5.33 121.18,38.92 238.13,100.55 317.23,149.38 214.88,133.76 485.37,369.72 415.93,653.3 -56.23,230.32 -307.17,291.43 -496.03,174.6 -127.8,-78.83 -189.12,-212.61 -245.91,-346 -41.67,-98.8 -118.65,-171.31 -146.51,-276.08 -38.83,-146.24 -230.72,-198.87 -238.42,-225.1 -254.7,74.1 -515.64,128.04 -783.36,154.17 -44.6,4.29 -89.13,7.77 -133.55,10.7 125.1,156.26 142.35,401.43 144.51,592.91 3.39,294.77 -25.79,667.71 -332.5,810.26 -281.62,131.44 -474.72,-81.85 -462.72,-355.78 7.85,-176.31 40.63,-351.63 83.8,-522.45 23.8,-94 54.76,-188.03 64.89,-284.68 9.36,-85.98 -13.42,-157.59 -30.82,-236.04 -389.21,-19.76 -774.42,-90.7 -1144.53,-208.5 80.74,251.78 -90.67,614.93 -188.92,842.81 -110.64,255.8 -287.26,616.1 -619.85,588.59 -316.22,-25.93 -361.4,-372.19 -220.68,-600.17 115.35,-186.98 274.48,-353.04 410.62,-524.82 54.85,-69.41 123.72,-143.06 151.25,-228.68 25.39,-78.68 -3.86,-152.25 18.28,-231.06 0.88,-4.41 3.2,-8.26 5.67,-12.51 -380.41,-166.09 -738.33,-385.1 -1059.4,-654.24 -92.23,-77.48 -181.95,-158.83 -268.02,-243.07 -1.35,44.69 -6.54,89.48 -12.15,134.46 -23.44,188.09 -66.41,375.6 -125.89,555.69 -93.52,281.54 -333.88,823.3 -723.2,722.61 -390.73,-101.34 -202.17,-589.24 -74.99,-818.02 99.27,-178.96 275.03,-293.54 375.22,-472.17 105.55,-187.41 214.78,-388.07 130.56,-572.96 -3.65,-8.11 5.7,-16.17 9.88,-22.84 -6.74,-9.01 -13.81,-17.51 -20.48,-26.15 -199.76,-264.34 -413.15,-575.16 -497.15,-898.79 -27.43,-106.41 138.8,-180.24 199.58,-89.11zm-1364.42 0c-155.74,233.1 -268.62,491.35 -428.57,723.78 -160.08,231.96 -342.28,448.89 -543.41,646.1 -23.41,22.81 -114.34,63.98 -136.73,80.82 -46.48,35.02 -473.3,-6.44 -631.81,-416.41 -56.98,-147.24 -193.69,-277.28 -333.31,-357.65 -204.73,-117.08 -452.27,-7.1 -442.58,243.3 18.67,483.38 680.48,888.29 1144.5,794.44 -321.36,243.73 -677.61,441.07 -1055.11,582.76 -165.07,61.81 -331.78,111.99 -499.53,150.92 -167.22,-103.91 -268.84,-223.82 -304.63,-438.98 -29.59,-177.99 -6.96,-361.52 -7.44,-540.91 -0.96,-231.33 -185.23,-424.66 -421.83,-286.14 -273.13,160.22 -202.54,527.3 -104.82,771.74 68.24,171.18 212.91,438.96 395.49,572.27 -360.44,42.23 -722.46,36.13 -1080.99,-12.94 -1.63,-2.7 -3.19,-5.39 -4.62,-8.44 -51.07,-96.59 -68.11,-190.37 -53.18,-298.36 24.87,-182.49 99.87,-352.2 117.26,-536.48 18.17,-190.69 -35.35,-564.58 -321.53,-439.81 -264.32,116.09 -336.64,489.07 -280.67,738.92 27.3,122.04 71.2,327.25 158.78,474.94 -220.91,-49.3 -439.57,-114.43 -654.76,-194.46 -2.04,-9.79 -3.95,-19.87 -5.89,-29.94 -18.57,-97.68 -19.57,-192.3 -9.15,-291.12 18.52,-176.08 71.41,-346.5 97.99,-521 33.37,-222.03 46.11,-668.91 -288.41,-645.89 -320.56,22.04 -341.37,436.82 -339.24,677.13 1.78,206.03 31.93,438.34 122.74,634.4 -272.01,-124.23 -537.79,-259.74 -788.17,-417.24 -75.67,-113.17 -129.04,-227.19 -133.76,-369.18 -5.32,-158.7 47.32,-311.62 49.91,-469.14 2.62,-164 -61.29,-368.15 -258.51,-381.6 -213.5,-14.76 -266.54,262.97 -251.59,421.57 14.51,155.22 58.9,316.97 130.28,462.29 -129.81,-109.68 -252.28,-229.35 -366.19,-360.37 -35.43,-71.5 -74,-141.25 -114.25,-211.78 -67.11,-116.48 -111.42,-247.78 -199.24,-351.92 -101.48,-120.18 -316.42,-288 -468.28,-148.93 -334.81,306.33 361.84,728.35 670.87,897.2 1.81,4.04 3.8,7.72 5.28,11.63 16.01,37.62 534.78,490.08 803.83,658.66 -265.94,19.17 -554.37,66.33 -779.32,182.36 -204.5,105.15 -412.09,352.77 -289.1,593.68 120.4,235.77 374.49,118.29 512.71,-24.35 120.68,-124.91 239.69,-244.12 383.52,-343.5 140.87,-97.43 296.24,-167.95 447.26,-247.68 125.91,69.08 253.89,133.44 382.1,194.7 180.19,86.44 641.21,294.72 662.78,285.04 4.32,1.94 9.19,3.74 13.66,5.33 -121.18,38.92 -238.12,100.55 -317.23,149.38 -214.88,133.76 -485.37,369.72 -415.92,653.3 56.23,230.32 307.17,291.43 496.02,174.6 127.81,-78.83 189.12,-212.61 245.91,-346 41.66,-98.8 118.65,-171.31 146.51,-276.08 38.82,-146.24 230.72,-198.87 238.42,-225.1 254.7,74.1 515.65,128.04 783.36,154.17 44.59,4.29 89.13,7.77 133.55,10.7 -125.11,156.26 -142.35,401.43 -144.51,592.91 -3.39,294.77 25.79,667.71 332.5,810.26 281.62,131.44 474.72,-81.85 462.72,-355.78 -7.85,-176.31 -40.63,-351.63 -83.8,-522.45 -23.8,-94 -54.76,-188.03 -64.89,-284.68 -9.36,-85.98 13.42,-157.59 30.82,-236.04 389.21,-19.76 774.42,-90.7 1144.53,-208.5 -80.74,251.78 90.67,614.93 188.92,842.81 110.63,255.8 287.26,616.1 619.85,588.59 316.22,-25.93 361.4,-372.19 220.68,-600.17 -115.35,-186.98 -274.48,-353.04 -410.63,-524.82 -54.85,-69.41 -123.72,-143.06 -151.24,-228.68 -25.4,-78.68 3.85,-152.25 -18.28,-231.06 -0.88,-4.41 -3.2,-8.26 -5.67,-12.51 380.41,-166.09 738.33,-385.1 1059.41,-654.24 92.23,-77.48 181.95,-158.83 268.02,-243.07 1.35,44.69 6.54,89.48 12.15,134.46 23.44,188.09 66.41,375.6 125.9,555.69 93.52,281.54 333.88,823.3 723.2,722.61 390.73,-101.34 202.17,-589.24 74.99,-818.02 -99.27,-178.96 -275.03,-293.54 -375.22,-472.17 -105.55,-187.41 -214.78,-388.07 -130.56,-572.96 3.66,-8.11 -5.69,-16.17 -9.88,-22.84 6.75,-9.01 13.81,-17.51 20.48,-26.15 199.76,-264.34 413.15,-575.16 497.15,-898.79 27.43,-106.41 -138.8,-180.24 -199.59,-89.11z"/>
  <rect class="fil1" width="22000" height="22000"/>
 </g>
</svg>
